<svg xmlns="http://www.w3.org/2000/svg" viewBox="0 0 512 512"><path fill="#FFF" stroke="#000" stroke-miterlimit="10" d="M482.7 483.3H30.2v-453h273l-13.8-18L360 30.8l.8 17.6-23-6.3 11 22.7L294.4 85l85.3-.8-90.4 58.8 127-40-38 134.5 48.4-79 16 70.2 29.8-117.2-5.4-14.7 20-.5 18.8 29.5-23 1.6z"/><path d="M464.2 464h-416V51h274.4L201.2 99l121 2-189 108 254.4-78L320 365l99-155.5 16.8 99.5 28.6-98.8v80.3"/><path fill="#CF5E33" d="M133 209l-67.5 33V66.6h216.8l-81 32.4 121 2m113.3 208l9.3-32v168H289l30.7-79.7 98.7-156"/><path fill="#FFF" stroke="#FFF" stroke-miterlimit="10" d="M215.5 129L187 158.6l-8-36.5zm191 181.6l-23.4 7.2 12-31.5zm36 83.6H404l20.3-37.8 14.7 16.4zM240 264.8l-77.5 76.8 14 13 76-77.4 13 13-89.4 89.6-39-39.4 89-89.7zM214.5 434L180 385.5l31.2-31zM82.7 300.4l48.7 34.7 31-31zm147-74L268 191l91.6-32.5-45.8 106.8-21.4 20.5-23 3.4-42.2-41.4z"/><path stroke="#000" stroke-miterlimit="10" d="M288.4 174.4l9-2.5 27.2 99-8.8 2.2zm20-17.6l8.8-2.4 27.4 99-9 2.5z"/><path d="M333 161l9-2.5 14 51-8.8 2.4z"/><path fill="#FFF" d="M227.2 45l-5.8 15.6L201.2 45h26m-79 338l-14.7-13.5v-22.7l36.6 36"/></svg>