<svg xmlns="http://www.w3.org/2000/svg" viewBox="0 0 512 512"><path fill="#FFF" stroke="#000" stroke-miterlimit="10" d="M482.3 488.4L305 488l-11.8 13-30.3-46.3-43.6 42L196 425l-83 87-12.2-138.3-72 71.8v-410h453.5z"/><path d="M464.2 469.5h-145L345 438v-17h-10l-43 48.6-28-43.4-37 39-23.5-79.8-77.7 88.3-13-144.2L48.2 398V53.5h416"/><path fill="#F2C439" d="M446 451.8h-99l8.4-11-.4-31-23 .4-37 41.6-30-47.5-29.4 32-23.5-89.5-80.3 111-5-163.6L66 351.4V71.6h380"/><path stroke="#000" stroke-miterlimit="10" d="M231.4 282l-98 169.8L232 145.5l39 53L342.3 0 452 51.8 268.4 369z"/><path fill="#FFF" stroke="#000" stroke-miterlimit="10" d="M232.8 259.4l-99.3 192.4 103.8-279.4 36.6 51.3 82.4-217L438 45.3 270.4 343.8z"/></svg>