<svg xmlns="http://www.w3.org/2000/svg" viewBox="0 0 512 512"><path fill="#FFF" stroke="#000" stroke-miterlimit="10" d="M29 29h453.3v453.5H29z"/><path stroke="#000" stroke-miterlimit="10" d="M48.2 48H463v415H48z"/><path fill="#BE9431" d="M65.5 66.5H445V446H65.4z"/><path stroke="#000" stroke-miterlimit="10" d="M428 115.7v239.5l-172.4 108L85.2 354.7v-239l170-67.7z"/><ellipse cx="253.1" cy="116" stroke="#000" stroke-miterlimit="10" rx="117" ry="116"/><path fill="#FFF" stroke="#FFF" stroke-miterlimit="10" d="M355.7 66.4s-101.3-131-204.2.2c0 0-10 67.6-35.2 100.4 0 0 3.8 12.2 14.3 13.4 10.5 1.3 3.4-10.5 24-16 20.5-5.4 32.7 30.3 32.7 30.3s7.6 42.8 6.8 82.3c0 0 8-6.7 12-24.8 4-18 2-35.7 7-45.8l14 9.6 15-22.6 13 12.2h-1l13-12.2 13 22.6 14.8-9.6c5.3 10 3.2 27.8 6.6 45.8C305 270.2 313 277 313 277c-1-39.5 6.7-82.3 6.7-82.3s12.2-35.8 32.7-30.3 13.5 17.2 24 16 14.3-13.5 14.3-13.5c-25.2-33-35.3-101-35.3-101-103-131-204.2 0-204.2 0"/><path stroke="#000" stroke-miterlimit="10" d="M253 150c-9-1-12.3 0-12.3 0-10.5 8.5-17.2 0-17.2 0-13.5-15.4 24-59.5 24-59.5s6.2-6.7 11.5 0c0 0 37.2 44.2 23.7 59.7 0 0-6.8 8.4-17.2 0 0 0-3.4-1.4-12.4 0m-69-92.5s-31-1-26 50.4c0 0 0 14 27 13 0 0 31.7-7 46-38s-46-25-46-25zm141 0s32-.7 27 50.3c0 0 1 14-26 13 0 0-31-7-46-38-15-30 45.7-25 45.7-25z"/><path fill="#FFF" stroke="#FFF" stroke-miterlimit="10" d="M255.6 415.2l17.2-19 7.4 8 18.3-45.7 13 24c15.2-27.3 40-178 40-178 8-12.3 9.8-4.7 9.8-4.7s.8 10.5 15 21.4c0 0-32 51.7-50.5 169.3 0 0-27 38.2-69.2 38l-1 .2c-42.2 0-69-38.2-69-38.2C168 272.8 136 221 136 221c14.3-10.8 15.2-21.3 15.2-21.3s1.7-7.6 9.6 4.6c0 0 24.8 151 40 178.2l13-24 18.2 45.8 7.4-8 17.2 19"/><ellipse cx="252.7" cy="294.7" fill="#FFF" stroke="#FFF" stroke-miterlimit="10" rx="47.7" ry="48.3"/><path fill="#FFF" stroke="#FFF" stroke-miterlimit="10" d="M271 252.6h-36.6V232l13.4 10.3h10.5L271 232z"/><ellipse cx="253.1" cy="295.1" fill="#FFF" stroke="#000" stroke-width="5" stroke-miterlimit="10" rx="32.5" ry="33.2"/><ellipse cx="252.8" cy="294.8" stroke="#000" stroke-miterlimit="10" rx="23" ry="22.9"/><path stroke="#000" stroke-miterlimit="10" d="M253.8 230.6l-6-11.6-13-1.7 9.3-9.2-2-12 12 6 11-7-2 13 10 9-13 2z"/></svg>