<svg xmlns="http://www.w3.org/2000/svg" viewBox="0 0 512 512"><path fill="#FFF" stroke="#000" stroke-miterlimit="10" d="M29 36.3h452.8v445.4h-453z"/><path stroke="#000" stroke-miterlimit="10" d="M48.2 54.7h415V464h-415z"/><path fill="#F2C439" d="M66 72.4h380v374.4H66z"/><path stroke="#000" stroke-miterlimit="10" d="M379 385l-122.6 53.4L134 385V113.6l121.4-16.4L379 113.6z"/><path fill="#FFF" stroke="#FFF" stroke-miterlimit="10" d="M360.2 370.5l-104.8 47.7-104.8-47.7v-243l104-14.6L360 127z"/><path stroke="#000" stroke-miterlimit="10" d="M349 362l-92.8 44-92.8-44V138l92-13.5L349 138z"/><path stroke="#000" stroke-miterlimit="10" d="M492.8 250.5L339 286.7l48 94.5-95-44-36.6 87-30.7-89.2L17.2 499.7l152.5-212.2L66 249.7l103.3-30.2-94.6-151 145.4 96L256 61l33 108.5L492.8 22.8l-153 193z"/><path fill="#FFF" stroke="#FFF" stroke-miterlimit="10" d="M459.5 250.2l-132 31 41 81-81.4-37.8-31 74.6-26-76.3L51.7 464 182 282l-89-32.5 88.6-26-81-129.4 124.7 83 30.2-89 29 93 175-126L328 220.3z"/></svg>