<svg xmlns="http://www.w3.org/2000/svg" viewBox="0 0 512 512"><path fill="#FFF" stroke="#000" stroke-miterlimit="10" d="M482 481.6H30v-452l431.4.2 36.5-10h14L501 30l-18.4 5-.3 139v37.6z"/><path stroke="#000" stroke-miterlimit="10" d="M48.2 47.6h415V464h-415z"/><path fill="#29799D" d="M65.5 65.7h381V445h-381z"/><path stroke="#000" stroke-miterlimit="10" d="M413 368.2L123.4 446 73 259l278.4-75 21.6 7 51 8.7 50.8 17L512 240l-6.6 28.8-16.8 27-16.8 22-20.6 19.7-22 16.8zM308.5 161l-241 66.8-21.7-78.2 241-67 18.2 5.8 13.5 4 21 6.5 16.3 9-2.5 9-11 14-16 15z"/><path fill="#FFF" stroke="#FFF" stroke-miterlimit="10" d="M140 239.8l50.4 186.8-13 3.5L127 244zM82.5 256L133 442.8l-13 3.5-50.6-186.8zm-3-114.7l21 76.5-10.3 2.8L69.5 144zm-29 0l24 89-10 3L40.3 144z"/><path fill="#FFF" stroke="#000" stroke-miterlimit="10" d="M312.4 160s39.7-18 49.3-52C332.4 82.2 284 83 284 83l-8.7 8.5s47-3.4 74.2 18.4c-11 31-50.5 50-50.5 50h13.4zM423 364c26.4-16 45.4-32.7 59.2-48.6l3.6-4.3 3.5-4 3.4-4 3.7-5 3.3-5.3c1-1.4 1.7-3 2.5-4 1-2.2 2.2-4.2 3.2-6.2l3.5-7 2-5.5 3-8 1-6 1-3.5 1-4.5v-5.4l-4.6-5-3.8-4-4.7-4.2-4.4-3.5c-2-1.8-3.8-3-5.7-4-2.7-2-5.5-4-8.3-5.7-53-30.4-131-31-131-31l-24.3 7s127 1 174.3 52.8c0 0 1 57.3-136.3 137l54-17.2z"/><path fill="#FFF" stroke="#FFF" stroke-miterlimit="10" d="M335.6 205s70.2-3.2 80 5.6c0 0 22 10-4.8 17.3 0 0-11 3-24-3 0 0-13-10.8-51.2-21zM41.3 143.7L457.3 31l2.7 10.2L44 154zM62 224.2L472 113l2.8 10.2-410 111zm213.3-128s28-1.3 31.7 2.2c0 0 9 4-1.8 6.8 0 0-4.3 1.4-9.5-.8 0 0-5.2-4-20.4-8.2zM392 369s18.8-32.7-16-8c0 0-49.3 14-70.3-27.7 0 0-8.8-21.8 32.4-38.2 0 0 132-74 105-21 0 0-3 11 12-8 0 0 5-7 6 12 0 0 1 9-31 37 0 0-19 21 41-6v14l-51 35-28 11z"/><path fill="#FFF" stroke="#FFF" stroke-miterlimit="10" d="M326.2 144s-15.4 2.8 3.5-15.3c0 0 18-29-27.3-11.8 0 0-67.4 33-21 39 0 0 25.4-4 6.2 7H305l21-14 .2-6zm-285 113.8l430-116.5 3.5 13-430 116.5zm0 205.5L470.8 347l3.3 12L45 475.4z"/><path fill="#FFF" d="M464 190.8h18v23.5h-18zm0 122.4h17.5v23.5H464z"/></svg>