<svg xmlns="http://www.w3.org/2000/svg" viewBox="0 0 512 512"><path fill="#FFF" stroke="#000" stroke-miterlimit="10" d="M482.3 482H265v-79h-23.5l-.4 79.3H24V29.6h458.8z"/><path stroke="#000" stroke-miterlimit="10" d="M463 463.6H289l.4-61-73 .5v61h-174V48H463z"/><path fill="#4F8C40" d="M446 428.3L252.8 65.7l-193 362.6V65.7H446"/><path stroke="#000" stroke-miterlimit="10" d="M150.5 262s-55.8 4.5-94 32.7l-.2-47.7c57-34.3 123.3-36.6 123.3-36.6l-29 51.5zm204.5 0s55.7 4.5 94 32.7V247c-57-34.3-123.3-36.5-123.3-36.5L355 262z"/><path fill="#FFF" stroke="#000" stroke-miterlimit="10" d="M308.3 222.4h-25.6l.8 114.3-18.4.4h-42l1-114h-26v127l44.6 17h23l43.4-17z"/><path stroke="#000" stroke-miterlimit="10" d="M240.3 183.7h25.2v195h-25.2z"/><path fill="#FFF" stroke="#000" stroke-miterlimit="10" d="M517.6 307.6L253 400v-20.6l227.6-79.8zm-529.2 0L253 400v-20.8L25.5 299.6z"/><path fill="#FFF" stroke="#FFF" stroke-miterlimit="10" d="M247 179.5h12.2v209.2H247z"/><path fill="#FFF" stroke="#FFF" stroke-miterlimit="10" d="M253 109.8l-30.4 74h61z"/><path fill="#FFF" stroke="#000" stroke-miterlimit="10" d="M25.4 299.6s71.6-58 172-58.7v-19c-132.4 1.4-209 85-209 85l37-8zm455.2 0s-61.3-56.2-172.3-58.7v-19s115.2-9 209.3 85l-37-8z"/><path fill="#FFF" d="M261.3 394.7L253 400l-8.5-5.3v-6h16.8M482 252.4h-18.5v89H482v-23l34.7-11L482 279M41.8 240.3H24v38.5l-34.5 28.5L24 318.8v10.4h17.8m154-106.4h15.8v17.5h-15.8zm107.5 0h6v17.5h-6z"/></svg>