<svg xmlns="http://www.w3.org/2000/svg" viewBox="0 0 512 512"><path fill="#FFF" stroke="#000" stroke-miterlimit="10" d="M482.7 481.6h-453V30H163l.3 66.3 23.2.5.4-66.8h137v66l24-.5V30h134z"/><path stroke="#000" stroke-miterlimit="10" d="M463.8 463.6h-416v-416H144v67.2h60.5l1-67.2h101l-.3 66.7 61.4.5V47.6h96.2z"/><path fill="#CF5E33" d="M451.2 457.7H60.8V59.4h66.4l-.4 67.2 96.2.4V59.4h67.7l.4 66.8h96V59.4h65"/><path fill="#FFF" stroke="#000" stroke-width="2" stroke-miterlimit="10" d="M473.3 398s-7.2 68-54.2 83.6C372 466 365 398 365 398h-.5s-7.2 68-54.2 83.6C263.3 466 256 398 256 398h-1s-7 68-54 83.6C154 466 146.6 398 146.6 398h-.4s-7 68-54.2 83.6C45 466 38 398 38 398l4.4-20h428.2l2.7 20z"/><path fill="#CF5E33" d="M134.6 374.4v6l-5.5 23.8-4 12.6-2 8.8-4 10.4-7 9-6 7.5-5 4.3-9 3-3-2-8-6-10-11-9.6-20-6.7-22V375m196 1v6l-5.4 23-4.4 12.5-2.4 8.6-4 10-7 10-6.6 8-5.4 5-9.7 3-3.6-2-8-6-10-10-10-20-7-22v-23m191.4-1v6l-5 23-5 13-2 8.7-4.4 10-7.2 9-6.5 7.7-5 4.4-9.8 3-3.5-2.4-8-6-10-11-9.6-20-6.7-21v-23m191-1v6l-5.4 23-4.5 13-2.7 8.3-4.5 10-7 9.5-7 7.4-5.3 4-9 3-3.6-2-8-6-10-11-10-19.2-7-21.5v-23"/><path stroke="#000" stroke-miterlimit="10" d="M480.2 384.8h-15.5s-3.7 65.4-45 78.8c-41.3-13.4-45-78.8-45-78.8h-15.5 12.2H356s-3.8 65.4-45 78.8c-41.4-13.4-45-78.8-45-78.8h-15.6H262h-15.4s-3.8 65.4-45 78.8c-41.3-13.4-45-78.8-45-78.8H141h12.2-15.4s-3.8 65.4-45 78.8c-41.3-13.4-45-78.8-45-78.8H32l6-11.6h14s3.3 70.2 40.3 84.5c37-14.3 40.3-84.5 40.3-84.5H161s3.4 70.2 40.3 84.5c37-14.3 40.4-84.5 40.4-84.5h28.6s3.4 70.2 40.4 84.5c37-14.3 40.3-84.5 40.3-84.5h28.3s3.2 70.2 40.2 84.5c37-14.3 40.3-84.5 40.3-84.5h14l6.4 11.6z"/><path fill="#FFF" stroke="#000" stroke-width="2" stroke-miterlimit="10" d="M418.8 340.6s-7.2 68-54.2 83.6c-47-15.6-54.2-83.6-54.2-83.6h-.5s-8 68-55 83.6c-47-15.6-54-83.6-54-83.6h-1s-7 68-54 83.6c-47-15.6-54-83.6-54-83.6l3-17.4h321l2 17.4z"/><path fill="#CF5E33" d="M299.5 319v5.8L294 348l-4 12.3-2.7 8.6-4.2 10-7 9-6 7-5 4-9 3-3-2-8-6-10-11-10-20-7-21v-23m192-1v5l-5 24-4 12-2.2 8-4 10-7 9-6 7-5 4-9.7 3-3.6-2-8-6-10-11-10-20-7-21.6v-23m-135 0v6l-5.4 23-5 13-2 8.4-4.4 10-7 9-7 8-5.2 4-9 3-4-2-8-6-10-11-10-19.7-7-21.3v-23"/><path stroke="#000" stroke-miterlimit="10" d="M425.3 327.3h-15.5s-3.8 65.5-45 78.8c-41.3-13-45-78-45-78h-15.5 12H301s-3.8 66-45 79c-41.3-13-45-78-45-78h-15.6H207h-15.3s-3.8 66-45 79c-41.3-13-45-78-45-78H86l6.2-11h14s3.2 70 40.2 85c37-15 40.3-85 40.3-85h28.8s3.2 70 40.2 84.7c37-15 40.3-85 40.3-85h29s3.8 70 40.7 84.7c37-15 40.3-85 40.3-85h14l6 11.4z"/><path fill="#FFF" stroke="#000" stroke-width="2" stroke-miterlimit="10" d="M473 289.6s-7 68-54.2 83.6c-47-15.5-54.2-83.6-54.2-83.6h-.4s-7 68-54.2 83.6c-47-15.5-54.2-83.6-54.2-83.6h-1s-7 68-54 83.6c-47.2-15.5-54.3-83.6-54.3-83.6h-.4s-7 68-54 83.6c-47-15.5-54-83.6-54-83.6l3-18.6h429l3 18.3z"/><path fill="#CF5E33" d="M134.6 268v6l-5.5 23-4 12.4-2 8.6-4 10-7 9.3-6 7.6-5 4-9 3-4-2-8-6-10-11-9-20-7-22v-23m193-1v6l-5.4 23-4 12-2.5 8-4 10-7 9-7 7-6 4-9.3 3-3.4-2-8-6-10-11-10-20-7-21v-23m193.4-1v6l-5.2 23-4 12-2 8.6-4 10-7 9.3-7 8-5.3 4-9.3 3-3-2-8-6-10-11-10-19.8-7-21.5v-23m189.2-1v6l-5.4 23-4.8 13-2.5 9-4 10-7 9.2-7 7.3-5.5 4-9 3-3.3-2-8-6-10-11-10-19-7-21v-23"/><path stroke="#000" stroke-miterlimit="10" d="M479.6 276.4H464s-3.7 65.4-45 78.8c-41.2-13.4-45-78.8-45-78.8h-15.4 12-15.3s-3.8 65.4-45 78.8c-41.3-13.4-45-78.8-45-78.8h-15.6 11.7H246s-3.8 65.4-45 78.8c-41.4-13.4-45-78.8-45-78.8h-15.6 12.2H137s-3.6 65.4-45 78.8c-41.2-13.4-45-78.8-45-78.8H31.7l6-11.6h14S55 335 92 349.3c36.8-14.3 40.2-84.5 40.2-84.5h28.3s3.2 70.2 40.2 84.5c37-14.3 40.3-84.5 40.3-84.5h28.8S273 335 310 349.3c37-14.3 40.3-84.5 40.3-84.5h28.3s3.3 70.2 40.2 84.5c37-14.3 40.4-84.5 40.4-84.5H473l6.6 11.6z"/><path fill="#FFF" stroke="#000" stroke-width="2" stroke-miterlimit="10" d="M419 229s-7 68.2-54 83.7c-47.2-15.5-54.3-83.6-54.3-83.6h-.5s-7 69-54.2 84c-47-15-54.2-83-54.2-83h-1s-7 68-54 84c-47-16-54.3-84-54.3-84l2.5-19h323.3l.3 19z"/><path fill="#CF5E33" d="M299.8 207.5v6l-5.4 23-4.2 12.4-2.5 8-4.2 10-7.2 9-6.7 7-5.5 4-9 3-3-3-8-6-10-11-9-20-7-22v-23m192-.5v6l-5 23-4 13-2 8.4-4 10-7 9.6-6.5 7.7-5.7 4.4-9 3-3.2-2-8-6-10-10.4-10-19.7-6.2-22v-23m-135 0v6l-5.2 23-5 12-2.2 8.4-4 10-7 9-7 7.8-6 4.4-9 3-3.6-2-8-6-10-10.7-9.6-20-6.6-21v-23"/><path stroke="#000" stroke-miterlimit="10" d="M425.6 216H410s-3.6 65.3-45 78.7c-41-13.4-45-78.7-45-78.7h-15.4 12.2-15.5s-3.8 65.3-45 78.7c-41.3-13.4-45-78.8-45-78.8h-15.5 11.6H192s-3.8 65-45 78c-41.3-14-45-79-45-79H86.3l6-12h14s3.3 70 40.3 84c37-14 40.4-84 40.4-84h29s3.3 70 40.2 84c37-15 40.4-85 40.4-85h28s3.4 71 40.4 85c37-14 40.7-85 40.7-85h14l6.4 12z"/><path fill="#FFF" stroke="#000" stroke-width="2" stroke-miterlimit="10" d="M473.3 178.2s-7.2 68-54.2 83.6c-47-15.5-54-83.6-54-83.6s-7 68-54 83.6c-47-15.5-54-83.6-54-83.6h-1s-7 68-54 83.6c-47-15.5-54-83.6-54-83.6s-7 68-54 83.6c-47-15.5-54-83.6-54-83.6l6-18.4h427l3 18.4z"/><path fill="#CF5E33" d="M134.6 156.6v5.8l-5.5 23.3-4 12.2-2 8-4 10-7 9-6 7-5 4-9 3-4-2-8-6-10-11-11-18-6-22v-23m193-1v6l-5.3 23-4 12-2.6 8-4 10-7.4 9-6.8 7-6 4-10 3-4-2-8-6-10-11-10-20-7-22v-23m193-.4v5.7l-5 23.4-4.6 13-2.2 8-4 10-7 9.5-7 7.6-5.3 4.4-9.2 3-3-2-8-6-10-11-10-20-6.2-21v-23m189.4 0v6l-5.3 23-4 12.6-2 8.6-4 10-7 9.5-7 7-5.5 4-10 3-3-2-8-6-10.5-11-9-19.6-6.4-21v-23"/><path stroke="#000" stroke-miterlimit="10" d="M479.8 165h-15.5s-3.7 65.4-45 78.7c-41.3-13.3-45-78.7-45-78.7h-15.5H371h-15.5s-3.7 65.4-45 78.7c-41.3-13.3-45-78.7-45-78.7H250h11.7-15.5s-3.8 65.4-45 78.7c-41.3-13.3-45-78.7-45-78.7h-15.5 12-15.3s-3.8 65.4-45 78.7c-41.3-13.3-45-78.7-45-78.7H31.7l6-11.6h14S55 223.6 92 238c37-14.4 40.4-84.6 40.4-84.6h28.3S164 223.6 201 238c37-14.5 40.2-84.7 40.2-84.7H270s3.3 70.2 40.3 84.5c37-14.4 40.3-84.6 40.3-84.6h28S382 223.6 419 238c37-14.4 40.4-84.6 40.4-84.6h14l6.4 11.6z"/><path fill="#FFF" stroke="#FFF" stroke-miterlimit="10" d="M30.8 42.2H47v426H30.8z"/><path fill="#FFF" d="M463.8 41H481v429.3h-17.2z"/><path fill="#FFF" d="M41.3 463.6H473V481H41.4z"/><path fill="#CF5E33" d="M458.3 268l-7.2-27.4-6 29m15 107l-7-27.3-7 29m14-221.6l-7-27.4-6 29m-392-.8l8-27.4 8 29M53 269l8-27 7.6 29M53 376l8-23.4 7.3 24.8"/></svg>