<svg xmlns="http://www.w3.org/2000/svg" viewBox="0 0 512 512"><path fill="#FFF" stroke="#000" stroke-miterlimit="10" d="M29.3 35.4h452.5V488H29.3z"/><path stroke="#000" stroke-miterlimit="10" d="M47.8 54h416.4v416H47.8z"/><path fill="#4F8C40" d="M65.5 70.7h380.3v381H65.5z"/><path stroke="#000" stroke-miterlimit="10" d="M65.5 70.7l109.2 230.7S173 383 187 451.8h174.7s18.5-20.2 17.2-53.8c0 0 25 6.3 29-6.7 0 0 4-.4-5-29 0 0-23-47.5-18-55 0 0 11-4.2 12-27 0 0 3-19.7-36-24.3v-9.3l84-176H65z"/><path fill="#FFF" stroke="#000" stroke-miterlimit="10" d="M429 70.7s-4.7 23.6-48.8 50c0 0-28.6 119.8-124.2 119-95.6.8-124-119-124-119-44.3-26.5-49-50-49-50h346z"/><path d="M97.7 97.4l3.3 2c2.2 1 5.4 2.8 9.5 5 4 2 9 4.3 15 7l9 4 10.5 4c1.8.8 3.7 1.4 5.6 2 2 .8 3.8 1.5 5.8 2 2 .8 4 1.5 6 2 2 .8 4.2 1.4 6.4 2 4.2 1.4 8.6 2.4 13 3.7 2.3 1 4.6 1 7 2l7 2 7 2 7.3 1c5 1 10 2 15 2h2l2 1h4l4 1h4c3 0 5 1 8 1h31l8-1c10-1 20-2 30-4h3l4-1 7-1.6 4-1h2l1.7-1 6.5-2c2-1 4-1 6-2l6-2c2-1 4-2 6-2l5-2.6 10-4.6 5-2 4.7-2 8-3.4 3.3-1.4 3-2 10-4.5 3-2-3 2-8 7-3 2-3.4 3c-2.8 1.2-5 3-8 5l-4 2.4-4.7 3-10 5.4-1.5 1-1 1-3 1-6 3c-2 1-4 2-6 2.4l-6 3c-4 1.5-8 3.3-13 5l-7 2c-1 .3-2.4 1-4 1l-4 1-7 2-4 1-4 1-7.6 1c-2.8 1-5.4 1-8 1.4l-8 1c-2.6.5-5 .6-8 1l-8 .6h-16l-8.4-.4c-2 0-5-.5-8-1h-4l-1.3-.6h-2c-5-1-10-1.6-15.2-3l-8-2-7.3-2-7-2-7-2-7-2.3-6.8-2.3c-8.7-3-16.6-7-23.7-11-7-3-13.4-7-19-11-5.3-3-10-6-13.6-9l-9-7-2-2-.6-.3z"/><path d="M192.8 155.2l1.3.6 4 1.8 6 2.7c2 1 5 2 8 3l9 3.2c4 1 7 2 11 2.8 2 .4 4 .8 6 1l3 .6h26l3-1 3-1c1 0 2-1 3-1l3-1 3-1c1 0 2 0 3-1l5-1.6 5-1 4-2 2-1 2-1c1-.5 3-1 4-2l3-1 3-1.3 4-2 2-.7-1 1c-1 .2-2 1.2-3 3l-3 2-3 2c-1 1-2 1.2-3 2l-1.3 1-2 1.2-4.3 2-5 2-2.3 1-2.5 1-3 .6-3 1-3 .5-3 .6-6 .7-6 .3h-9l-3-.7c-2 0-4-.7-6-1-4-.7-8-1.6-11.4-2.7-4-1-7-2-10.4-3.4-3.4-1-6.4-2.2-9-4l-4-2-3.5-2-5.4-3.3c-3-2-4-3-4-3z"/><path stroke="#000" stroke-miterlimit="10" d="M313.4 141c-60.3-100.7-115.2 0-115.2 0h115.2z"/><path d="M145 136.7s0-.7.3-2l1.3-4.8c1.2-4 3-10 5.3-15 2-5 4-10 6-14l2-5 1-2-1 2c0 1-1 3-2 5-1 4-3 9-6 14s-5 10-7 13c-1 2-2 3-3 4l-1 1zm197.4-40.5l1.2 1.6c.8 1 2 2.4 3 4l4 6.3 1.8 4 2 4 1.6 4 1.6 4 2.4 7 1.3 5 .4 2-1.3-1c-.8-1-2-2-3-4l-3.8-6-2-3-1.8-4-1.8-4-1.5-3c-1-2-1.8-4-2.4-6l-1-5v-2zM192.8 108v2.5l-.7 6.3c0 5-1 12-3 18.6-1 6.7-3 13.4-5 18.3l-2 6-1 2.2v-3l1-7 3-19 5-19 2-6 1-2zm120.6 0l1.2 2.3c.8 1.3 2 3.3 3 5.7 1.2 2.5 2.5 5.3 3.7 8.4l2 4.8c.5 1.6 1 3.3 1.7 5l1.6 5 1.5 5 3 8.8c1 2.6 1 5 1 6.4l1 2.5-1-3-3-6-3-9-2-5-2-5-1-5-1-5-2-9c-1-3-1-5-1-7v-3z"/><path stroke="#000" stroke-miterlimit="10" d="M288.3 261.3V113.7S291.8 76.4 256-28h-.2C220 76.4 223.5 113.7 223.5 113.7v147.6"/><path fill="#FFF" d="M277.3 258V122.8S279.5 88.8 256-7c-23.5 95.7-21.3 129.8-21.3 129.8V258s-5.2 11 0 20.3v15h42.7V258z"/><path fill="#FFF" stroke="#000" stroke-width="2" stroke-miterlimit="10" d="M198.2 451.8s-23.5-144.5-5.4-143.7c0 0 40-39 135.3-60 0 0 27-15 69 129 0 0 3 16-12 10 0 0-7-2-11-6 0 0-16-81-31-95 0 0-10-16-29-5 0 0-89 35-90 40 0 0-5 7 9 4 0 0 76-30 82-29 0 0 15-8 25 0 0 0 19 10 23 114 0 0 2 19-16 4 0 0-7-7-8-17 0 0 4-56 1-67 0 0-4-10-14-9 0 0-29 3-69 27 0 0-7 8 10 6 0 0 46-20.2 55-20 0 0 13-1 11 10.8 0 0 0 65-18 83 0 0-16 9-15-3 0 0 0-17 5-25 0 0 4-20-1.5-29 0 0-1-8.5-21.7 14 0 0-6 8 0 22.7 0 0 12.4 17.7 0 50.5h-80z"/><path fill="none" stroke="#000" stroke-miterlimit="10" d="M367.6 265.3s-6 .8 5 19.7c0 0 7.2 11.8 7.2 15.5 0 0 5.3 8.4 11.3-7 0 0 5-10.6-5-20.7 0 0-17-13.6-18-7.5z"/><path d="M256.2 30l.5 35.8.2 17.4V223c0 5-1 10-1 14.2l-1 11v10h-1V256c-1-1.6-1-4-1-7.2l-1-11.4c0-4.4-1-9.3-1-14.7v-17.4c-1-6.3-1-12.8-1-19.5v-120l1-35.8z"/></svg>