<svg xmlns="http://www.w3.org/2000/svg" viewBox="0 0 512 512"><path fill="#FFF" stroke="#000" stroke-miterlimit="10" d="M29.8 29.5h458.4V483H29.8z"/><path stroke="#000" stroke-miterlimit="10" d="M47.8 47.6h421.4v415H47.8z"/><path fill="#406181" d="M66.3 66h385.3v380.4H66.3z"/><path stroke="#000" stroke-miterlimit="10" d="M17.2 181.2h483.6v161H17.2z"/><path fill="#FFF" stroke="#000" stroke-miterlimit="10" d="M17.2 192h483.6v139.2H17.2z"/><path stroke="#000" stroke-miterlimit="10" d="M259 99.3v75.2h-76l-9.5-19.3-23.2-10.5.5-24.4-77.3-20.6-56.3-8.4 196.6-79.8 1.3 87.8z"/><path fill="#FFF" stroke="#FFF" stroke-miterlimit="10" d="M259 105.2V167h-72l-5-17.3-23.3-9.2v-25.2L88.3 95.6l-48-7.2 167.7-68v84.3z"/><path stroke="#000" stroke-miterlimit="10" d="M259 99.2v75.2h75.8l9.7-19.2 23-10.5-.3-24.4 77.3-20.5 56.4-8.3-196.8-80-1.4 87.8z"/><path fill="#FFF" stroke="#FFF" stroke-miterlimit="10" d="M259 105.2V167h72l5-17.3 23-9.3v-25.2l70.4-19.8 48-7.2-167.8-68 .2 84.5z"/><path stroke="#000" stroke-miterlimit="10" d="M298.2 380.8L259 512l-39.3-133.7 15-144 1-125.3h47l1.3 125.6z"/><path fill="#FFF" stroke="#FFF" stroke-miterlimit="10" d="M292.4 378.3L259 492l-33.4-114.6L241 234.2l.5-119h35l1 119.4z"/><ellipse cx="259" cy="91.3" stroke="#000" stroke-miterlimit="10" rx="28.6" ry="28.8"/><ellipse cx="259" cy="91.3" fill="#FFF" stroke="#FFF" stroke-miterlimit="10" rx="22.9" ry="23.1"/><ellipse cx="259" cy="261.7" stroke="#000" stroke-miterlimit="10" rx="125.6" ry="129"/><ellipse cx="259" cy="261.7" fill="#FFF" stroke="#000" stroke-miterlimit="10" rx="115.8" ry="119"/><ellipse cx="258.9" cy="261.6" stroke="#000" stroke-miterlimit="10" rx="104.5" ry="107.3"/><path fill="#FFF" stroke="#FFF" stroke-miterlimit="10" d="M282 342h-46.8v-59l-53.8-.5V235l53.4-.8.4-53H282v53.4l54.5.4v47.5H282z"/></svg>