<?xml version="1.0" encoding="UTF-8" ?>
<!DOCTYPE svg PUBLIC "-//W3C//DTD SVG 1.1//EN" "http://www.w3.org/Graphics/SVG/1.1/DTD/svg11.dtd">
<svg width="545pt" height="442pt" viewBox="0 0 545 442" version="1.1" xmlns="http://www.w3.org/2000/svg">
<g id="#4e5d6cff">
</g>
<g id="#5b6876ff">
</g>
<g id="#677381ff">
</g>
<g id="#717e8aff">
<path fill="#717e8a" opacity="1.00" d=" M 105.01 306.80 C 107.58 308.08 109.15 310.45 110.00 313.13 C 107.29 311.97 105.19 309.89 105.01 306.80 Z" />
</g>
<g id="#5c6b7bff">
</g>
<g id="#516374ff">
</g>
<g id="#3c4e5eff">
</g>
<g id="#2f3e4cff">
</g>
<g id="#26333cff">
</g>
<g id="#1d2730ff">
</g>
<g id="#182228ff">
</g>
<g id="#131b21ff">
</g>
<g id="#0e141bff">
</g>
<g id="#455564ff">
</g>
<g id="#000000ff">
<path fill="#000000" opacity="1.00" d=" M 249.91 28.87 C 275.24 26.35 300.97 28.93 325.44 35.90 C 334.84 39.01 344.17 42.42 353.04 46.85 C 356.80 48.67 360.65 50.79 364.95 50.69 C 384.97 50.69 404.98 50.67 425.00 50.68 C 432.85 50.72 440.72 50.46 448.56 50.98 C 448.58 55.93 448.16 60.92 448.79 65.85 C 453.47 68.60 458.97 69.45 464.20 70.65 C 463.62 70.84 462.47 71.21 461.89 71.39 C 467.02 73.15 472.05 75.32 476.45 78.53 C 491.47 88.99 504.35 102.69 513.40 118.63 C 517.61 126.00 522.02 133.38 524.56 141.54 C 526.04 146.31 527.43 151.11 529.18 155.79 C 529.97 165.11 532.75 175.01 528.98 184.03 C 527.34 188.47 522.41 191.40 517.74 190.30 C 510.13 188.73 505.03 182.29 500.12 176.80 C 494.60 169.15 488.15 161.52 479.30 157.69 C 469.83 153.92 458.64 153.88 449.72 159.18 C 450.13 160.73 450.56 162.28 450.96 163.85 C 454.88 178.91 457.75 194.38 457.55 210.00 C 457.45 214.62 457.54 219.35 459.28 223.71 C 461.87 230.50 462.89 237.76 462.78 245.01 C 463.23 259.48 460.51 274.16 454.14 287.20 C 451.90 291.94 448.11 296.36 448.43 301.92 C 448.43 324.13 448.59 346.36 448.37 368.57 C 446.49 368.32 444.63 368.05 442.77 367.79 C 444.17 367.54 445.58 367.24 446.98 366.95 C 447.56 355.30 447.09 343.65 447.23 332.00 C 447.00 322.16 447.91 312.27 446.48 302.49 C 442.51 307.04 438.28 311.43 433.09 314.61 C 434.22 324.04 433.63 333.53 433.72 343.00 C 433.69 350.73 433.84 358.47 433.57 366.21 C 432.21 358.20 432.83 350.07 432.73 342.00 C 432.68 333.25 432.88 324.49 432.57 315.74 C 431.93 316.09 431.29 316.44 430.67 316.79 C 426.09 319.45 421.59 322.23 416.87 324.63 C 412.48 326.75 409.15 330.37 405.57 333.56 C 391.20 346.73 374.05 356.60 356.03 363.84 C 352.52 365.40 347.73 366.14 346.34 370.30 C 343.74 376.47 341.71 382.87 339.23 389.09 C 331.73 386.99 325.66 381.99 319.37 377.65 C 316.66 375.41 313.02 376.26 309.86 376.65 C 298.68 378.58 287.34 379.60 275.99 379.67 C 260.19 379.74 244.26 380.07 228.63 377.26 C 225.73 376.96 222.38 375.74 219.81 377.75 C 214.26 381.59 209.21 386.28 202.93 388.96 C 201.56 389.56 200.05 389.84 198.56 389.72 C 194.70 383.22 194.05 375.33 190.23 368.84 C 187.66 366.62 184.12 366.05 181.08 364.71 C 164.23 357.68 147.82 349.05 133.95 337.03 C 129.43 333.28 125.28 329.10 120.72 325.41 C 116.51 322.12 111.78 319.59 107.44 316.50 C 103.72 313.96 99.79 311.62 96.67 308.33 C 93.81 305.36 91.74 301.75 89.88 298.10 C 87.04 292.48 83.69 287.11 81.54 281.17 C 78.37 273.28 76.65 264.93 75.37 256.55 C 75.24 248.27 74.73 239.87 76.65 231.74 C 77.65 227.57 77.95 223.28 77.78 219.00 C 77.28 201.58 79.42 184.16 83.48 167.23 C 84.89 161.87 86.70 156.61 87.87 151.19 C 83.21 150.60 78.41 150.27 73.80 151.42 L 72.91 151.68 C 68.01 152.95 63.31 155.10 59.45 158.42 C 51.73 164.43 47.06 173.32 39.85 179.85 C 36.19 183.35 31.50 186.82 26.12 185.92 C 21.36 185.48 18.28 181.01 17.45 176.64 C 16.28 170.42 16.66 164.03 16.79 157.74 C 20.03 146.14 22.54 134.12 28.55 123.55 C 31.67 118.00 34.78 112.44 38.00 106.95 C 43.30 100.61 48.09 93.81 54.13 88.13 C 57.78 84.74 61.34 81.25 64.94 77.80 C 68.65 75.52 72.42 73.33 76.17 71.11 L 76.69 70.84 C 81.06 68.34 85.55 66.04 90.15 63.98 C 90.23 59.50 90.26 55.02 90.32 50.55 C 117.56 50.77 144.80 50.54 172.03 50.67 C 177.48 50.89 182.34 48.16 187.13 45.94 C 195.32 41.94 203.96 38.96 212.66 36.26 C 213.18 36.09 214.23 35.76 214.76 35.60 C 226.28 32.49 238.09 30.51 249.91 28.87 M 90.89 51.81 C 90.76 55.57 90.81 59.34 91.06 63.10 C 98.45 61.29 105.93 59.38 113.60 59.63 C 124.51 59.86 136.13 61.51 145.07 68.27 C 147.27 68.51 149.41 68.04 151.16 66.64 C 156.72 60.64 164.65 57.74 170.49 52.10 C 162.02 51.14 153.50 51.82 145.00 51.64 C 126.96 51.76 108.92 51.40 90.89 51.81 M 367.80 52.19 C 372.60 57.21 379.27 59.87 383.99 64.97 C 384.84 65.58 385.50 66.86 386.64 66.87 C 389.49 69.89 392.75 72.47 396.11 74.89 C 401.81 72.16 407.71 69.90 413.63 67.68 C 418.68 67.20 423.34 64.86 428.41 64.44 C 435.06 63.80 441.73 64.59 448.26 65.88 C 448.45 61.20 448.41 56.52 448.12 51.85 C 428.42 51.57 408.71 51.82 389.00 51.73 C 381.93 51.76 374.85 51.54 367.80 52.19 M 251.10 53.69 C 236.06 55.56 220.99 58.37 206.79 63.76 C 202.94 64.59 199.39 66.39 195.79 67.94 C 187.05 72.03 178.44 76.48 170.49 81.99 C 172.63 85.37 175.37 88.79 175.51 92.98 C 175.86 100.21 169.39 107.18 161.99 106.58 C 156.99 106.99 153.21 103.34 149.79 100.27 C 143.57 94.55 136.24 90.21 128.78 86.35 C 124.89 87.02 121.62 89.51 118.21 91.34 C 108.47 97.25 99.46 105.91 96.50 117.24 C 93.63 129.08 95.88 141.78 101.63 152.42 C 103.49 155.63 106.36 158.05 108.93 160.67 C 107.34 162.54 105.74 164.49 105.04 166.90 C 101.94 176.94 99.39 187.23 98.65 197.74 C 106.99 192.45 115.28 186.96 124.55 183.38 C 148.25 173.73 175.43 174.16 199.39 182.70 C 210.83 187.09 222.20 192.39 231.48 200.55 C 237.59 206.13 243.77 211.98 247.37 219.57 C 250.73 225.75 251.30 232.86 252.44 239.67 C 256.60 240.23 260.80 240.33 264.99 240.25 C 271.87 240.13 278.78 240.60 285.62 239.69 C 286.92 232.49 287.64 224.96 291.34 218.49 C 295.11 210.96 301.24 205.00 307.61 199.65 C 315.19 193.95 323.23 188.71 332.10 185.25 C 345.46 180.08 359.58 176.19 374.01 176.34 C 390.24 175.83 406.67 179.24 421.14 186.71 C 429.81 190.42 436.73 196.94 444.53 202.06 C 444.67 189.42 440.16 177.43 437.29 165.32 C 439.79 162.84 443.17 161.20 445.06 158.12 C 451.67 147.20 453.32 133.71 450.62 121.34 C 446.18 106.09 432.08 96.28 418.18 90.27 C 412.64 94.88 405.81 97.63 400.46 102.49 C 396.38 105.91 392.63 110.49 387.03 111.26 C 380.91 111.99 375.08 107.84 372.48 102.49 C 372.37 99.34 371.99 96.10 372.79 93.01 C 373.66 90.59 375.48 88.70 377.05 86.73 C 368.61 79.84 358.95 74.66 349.21 69.89 C 346.84 68.73 344.37 67.83 341.85 67.12 C 339.12 65.53 336.12 64.42 333.09 63.57 C 316.94 58.62 300.39 54.48 283.48 53.42 L 282.93 53.89 C 272.44 51.48 261.70 53.68 251.10 53.69 M 71.03 97.16 C 68.67 98.98 67.54 101.83 66.33 104.45 C 63.49 110.97 60.98 117.82 60.67 124.99 C 60.44 133.27 65.12 141.57 72.66 145.15 C 75.40 145.77 78.25 145.42 81.03 145.69 C 85.93 146.03 90.50 147.92 94.98 149.80 C 93.18 144.39 90.74 139.18 89.50 133.60 C 87.19 123.02 88.43 111.57 93.83 102.08 C 97.13 94.67 103.39 89.33 108.83 83.53 C 107.38 82.77 105.67 82.92 104.10 82.81 C 91.92 84.14 80.71 89.88 71.03 97.16 M 437.78 87.42 C 442.41 92.76 448.08 97.21 451.77 103.32 C 457.18 111.07 459.29 120.67 458.75 130.03 C 458.96 138.51 455.62 146.44 452.13 153.98 C 457.03 152.65 461.79 150.48 466.96 150.39 C 470.66 150.11 474.92 150.54 477.93 147.91 C 481.47 144.93 484.27 140.98 485.60 136.53 C 487.37 130.06 486.30 123.16 484.25 116.89 C 481.83 110.04 478.73 102.76 472.29 98.77 C 462.11 92.09 450.24 86.64 437.78 87.42 M 39.92 132.93 C 38.08 135.94 37.23 139.46 37.53 142.99 C 37.84 148.32 38.30 154.09 41.45 158.60 C 42.99 161.04 47.31 161.71 48.80 158.92 C 52.32 153.77 58.24 151.27 63.22 147.85 C 59.74 143.69 55.41 140.01 53.46 134.80 C 51.21 129.45 51.25 123.56 51.27 117.86 C 46.49 122.04 43.12 127.51 39.92 132.93 M 496.68 122.65 C 496.12 128.91 495.93 135.46 493.00 141.17 C 490.85 145.77 486.96 149.17 483.35 152.60 C 490.18 155.59 496.25 160.10 501.11 165.76 C 504.13 164.86 507.04 163.06 507.73 159.74 C 509.94 152.19 511.50 143.03 506.71 136.13 C 503.71 131.40 500.51 126.76 496.68 122.65 M 28.93 160.98 C 27.95 165.92 26.87 171.12 28.59 176.03 C 33.10 173.75 36.89 170.39 40.35 166.76 C 37.04 164.14 34.27 160.85 30.91 158.33 C 29.08 157.60 29.34 159.88 28.93 160.98 M 516.39 162.30 C 513.83 165.51 510.83 168.38 507.10 170.21 C 509.61 174.93 513.99 179.03 519.41 179.96 C 519.97 174.15 519.06 168.38 518.11 162.67 C 517.68 162.58 516.82 162.39 516.39 162.30 M 134.82 189.94 C 117.46 194.12 100.25 202.77 89.55 217.50 C 83.24 226.08 81.68 236.80 79.67 246.97 C 78.87 254.36 80.15 261.78 81.69 268.99 C 83.33 276.12 85.62 283.27 89.78 289.37 C 90.23 285.96 90.59 282.47 90.01 279.05 C 89.17 274.18 86.54 269.85 85.59 265.02 C 85.03 260.66 86.24 256.35 87.15 252.13 C 89.08 244.59 91.55 236.99 96.05 230.55 C 96.36 230.76 96.97 231.18 97.28 231.39 C 98.56 248.11 102.26 264.78 109.12 280.13 C 113.84 289.39 118.53 298.78 125.13 306.89 C 129.67 312.98 135.19 318.22 140.47 323.66 C 141.83 324.69 143.16 326.00 144.96 326.17 C 157.46 327.44 170.09 325.84 182.17 322.53 C 187.89 320.99 193.75 319.68 199.07 317.00 C 209.34 311.53 219.04 304.55 226.19 295.28 C 232.68 285.41 237.71 274.00 237.57 262.00 C 237.59 253.89 237.37 245.52 234.43 237.86 C 232.76 228.48 227.60 219.81 220.47 213.52 C 197.86 192.69 164.90 183.69 134.82 189.94 M 328.71 204.73 C 321.67 209.90 314.44 215.33 309.75 222.85 C 306.21 228.26 303.98 234.47 302.90 240.82 C 300.50 247.25 300.50 254.23 300.49 261.00 C 300.33 280.67 311.51 299.40 327.58 310.33 C 334.05 314.26 340.65 318.20 347.99 320.29 C 363.20 325.05 379.47 328.22 395.38 325.62 C 397.66 325.66 400.14 325.50 401.89 323.84 C 406.55 319.82 410.54 315.07 414.35 310.25 C 421.00 301.71 427.65 293.00 431.98 283.00 C 439.59 267.32 443.39 250.15 445.55 232.95 C 448.42 238.98 451.42 245.09 452.56 251.73 C 453.41 259.09 448.85 265.70 448.57 272.96 C 448.38 277.83 448.41 282.72 448.89 287.58 C 450.38 285.72 451.74 283.73 452.61 281.49 C 455.80 273.61 457.70 265.28 459.09 256.92 C 460.26 246.23 458.65 235.24 454.62 225.29 C 450.88 216.72 444.01 209.86 436.29 204.77 C 426.67 197.83 415.58 193.06 404.13 190.07 C 378.39 184.43 350.65 190.35 328.71 204.73 M 253.57 254.36 C 254.08 268.46 250.08 282.65 242.51 294.55 C 238.84 300.36 233.97 305.28 229.05 310.03 C 222.80 316.18 214.80 320.06 207.02 323.89 C 198.43 328.05 188.95 329.57 179.70 331.53 C 182.47 334.95 186.53 336.88 190.66 338.13 C 208.57 343.62 227.45 344.16 246.00 345.35 C 256.66 345.53 267.33 345.46 278.00 345.47 C 286.00 345.40 294.03 345.65 302.01 344.77 C 316.35 344.20 330.74 342.81 344.70 339.34 C 350.00 337.81 355.72 336.02 359.26 331.51 C 349.96 329.69 340.44 328.31 331.80 324.19 C 319.50 318.32 307.50 310.72 299.37 299.55 C 289.30 286.79 284.27 270.53 284.43 254.34 C 274.14 254.26 263.86 254.24 253.57 254.36 M 447.39 270.57 C 447.23 273.06 446.75 275.53 446.56 278.03 C 446.00 282.56 443.09 286.25 441.21 290.30 C 439.31 293.87 438.15 298.10 434.80 300.65 C 432.86 302.17 431.02 303.88 430.06 306.21 C 427.32 309.19 425.25 312.72 423.14 316.16 C 426.67 314.54 429.88 312.33 432.84 309.83 C 436.77 304.45 440.46 298.86 445.05 294.01 C 446.54 292.17 448.71 290.38 448.56 287.78 C 448.40 282.04 448.82 276.17 447.39 270.57 M 105.01 306.80 C 105.19 309.89 107.29 311.97 110.00 313.13 C 109.15 310.45 107.58 308.08 105.01 306.80 M 151.64 332.59 C 155.70 336.57 160.75 339.30 165.44 342.45 C 171.22 345.89 177.05 349.47 183.55 351.36 C 182.73 347.68 181.87 343.99 180.52 340.46 C 179.09 337.34 176.93 334.64 175.08 331.78 C 167.30 332.85 159.45 332.20 151.64 332.59 M 363.31 332.25 C 361.06 335.66 358.30 338.81 356.85 342.68 C 355.42 346.38 354.15 350.14 353.12 353.98 C 356.52 352.93 359.81 351.55 362.99 349.95 C 372.90 345.03 382.73 339.64 391.12 332.36 C 381.85 332.45 372.58 332.45 363.31 332.25 M 249.79 346.48 C 263.55 347.51 277.43 347.44 291.21 346.47 C 284.18 345.48 277.07 345.71 270.00 345.65 C 263.26 345.69 256.48 345.49 249.79 346.48 M 197.13 350.41 C 197.61 361.45 199.88 372.32 201.70 383.19 C 208.57 377.85 214.39 371.00 218.35 363.23 C 219.13 361.32 220.46 358.91 219.29 356.94 C 211.78 355.18 204.48 352.73 197.13 350.41 M 320.26 356.55 C 317.46 356.54 318.15 359.69 318.75 361.45 C 320.51 366.19 323.66 370.23 326.66 374.25 C 329.76 378.28 333.06 382.23 337.25 385.19 C 338.79 373.62 340.87 362.08 341.51 350.42 C 334.47 352.63 327.55 355.22 320.26 356.55 M 230.04 366.11 C 245.13 369.28 260.61 369.99 275.99 369.70 C 286.74 369.91 297.40 368.47 308.05 367.21 C 307.13 364.90 306.15 362.61 305.18 360.32 C 299.43 360.17 293.71 360.71 288.00 361.33 C 277.34 361.81 266.66 361.63 256.00 361.55 C 248.62 361.61 241.33 359.80 233.95 360.38 C 232.18 361.91 231.26 364.15 230.04 366.11 Z" />
<path fill="#000000" opacity="1.00" d=" M 111.45 246.11 C 111.45 242.56 110.87 237.31 115.24 236.06 C 120.76 234.79 126.43 236.41 132.02 236.33 C 138.33 236.14 144.49 237.71 150.75 238.25 C 166.49 239.55 182.25 240.63 197.97 242.24 C 201.42 242.58 204.99 242.64 208.27 241.34 C 210.63 240.77 213.12 239.10 215.56 240.19 C 219.09 241.64 222.42 243.67 225.32 246.16 C 225.00 247.49 224.68 248.82 224.29 250.13 C 222.47 255.26 223.76 260.75 223.30 266.04 C 222.72 272.91 220.96 279.76 217.71 285.86 C 210.31 298.57 197.80 308.75 183.06 311.22 C 173.65 312.34 163.77 311.91 155.00 307.99 C 141.59 302.55 131.12 290.78 127.14 276.88 C 126.50 273.98 125.90 271.07 125.43 268.14 C 125.13 262.02 125.51 255.90 125.82 249.80 C 122.14 249.68 118.45 249.63 114.77 249.78 C 113.71 248.51 112.56 247.33 111.45 246.11 M 140.28 250.28 C 137.70 256.81 135.91 263.97 137.28 270.99 C 139.08 283.18 147.23 294.26 158.44 299.43 C 165.14 302.55 172.77 303.16 180.04 302.31 C 190.16 300.69 199.31 294.64 205.21 286.32 C 211.58 276.55 213.39 263.75 208.94 252.85 C 208.42 251.59 207.52 250.26 205.95 250.61 C 189.63 250.51 173.31 250.47 156.99 250.26 C 151.43 249.88 145.82 249.31 140.28 250.28 Z" />
<path fill="#000000" opacity="1.00" d=" M 257.51 318.52 C 260.23 315.26 262.60 311.48 266.31 309.26 C 268.88 307.66 272.04 309.06 273.88 311.12 C 277.44 314.92 280.38 319.25 284.01 322.99 C 286.52 325.57 288.72 328.44 290.39 331.64 C 283.25 331.83 276.13 331.19 269.00 331.24 C 261.61 331.23 254.23 331.98 246.83 331.68 C 249.76 326.79 254.10 323.03 257.51 318.52 Z" />
</g>
<g id="#ffffffff">
<path fill="#ffffff" opacity="1.00" d=" M 74.63 34.73 C 113.09 34.79 151.54 34.58 190.00 34.69 C 197.57 34.77 205.33 33.82 212.66 36.26 C 203.96 38.96 195.32 41.94 187.13 45.94 C 182.34 48.16 177.48 50.89 172.03 50.67 C 144.80 50.54 117.56 50.77 90.32 50.55 C 90.26 55.02 90.23 59.50 90.15 63.98 C 85.55 66.04 81.06 68.34 76.69 70.84 C 74.97 68.60 74.24 65.82 74.40 63.02 C 74.57 53.59 74.33 44.16 74.63 34.73 Z" />
<path fill="#ffffff" opacity="1.00" d=" M 325.44 35.90 C 331.56 34.80 337.79 34.48 344.00 34.72 C 384.13 34.90 424.27 34.54 464.40 35.03 C 464.37 46.90 464.74 58.79 464.20 70.65 C 458.97 69.45 453.47 68.60 448.79 65.85 C 448.16 60.92 448.58 55.93 448.56 50.98 C 440.72 50.46 432.85 50.72 425.00 50.68 C 404.98 50.67 384.97 50.69 364.95 50.69 C 360.65 50.79 356.80 48.67 353.04 46.85 C 344.17 42.42 334.84 39.01 325.44 35.90 Z" />
<path fill="#ffffff" opacity="1.00" d=" M 251.10 53.69 C 261.70 53.68 272.44 51.48 282.93 53.89 C 279.01 59.87 274.37 65.30 269.75 70.74 C 258.26 85.16 247.23 100.04 238.05 116.06 C 233.46 123.99 228.59 132.05 226.99 141.22 C 232.32 137.57 236.62 132.72 241.43 128.46 C 266.65 105.92 293.47 85.10 322.07 67.02 C 325.36 64.89 329.18 63.72 333.09 63.57 C 336.12 64.42 339.12 65.53 341.85 67.12 C 342.97 67.85 344.06 68.62 345.17 69.38 C 343.66 71.46 342.16 73.54 340.52 75.52 C 322.63 95.60 305.74 116.72 291.75 139.73 C 286.78 148.83 280.87 157.73 278.78 168.04 C 285.03 164.02 289.88 158.31 295.48 153.49 C 315.98 135.40 337.43 118.35 360.12 103.08 C 363.29 100.88 366.63 98.93 370.03 97.10 C 370.82 98.90 371.61 100.72 372.48 102.49 C 375.08 107.84 380.91 111.99 387.03 111.26 C 392.63 110.49 396.38 105.91 400.46 102.49 C 405.81 97.63 412.64 94.88 418.18 90.27 C 432.08 96.28 446.18 106.09 450.62 121.34 C 453.32 133.71 451.67 147.20 445.06 158.12 C 443.17 161.20 439.79 162.84 437.29 165.32 C 440.16 177.43 444.67 189.42 444.53 202.06 C 436.73 196.94 429.81 190.42 421.14 186.71 C 406.67 179.24 390.24 175.83 374.01 176.34 C 359.58 176.19 345.46 180.08 332.10 185.25 C 323.23 188.71 315.19 193.95 307.61 199.65 C 301.24 205.00 295.11 210.96 291.34 218.49 C 287.64 224.96 286.92 232.49 285.62 239.69 C 278.78 240.60 271.87 240.13 264.99 240.25 C 260.80 240.33 256.60 240.23 252.44 239.67 C 251.30 232.86 250.73 225.75 247.37 219.57 C 243.77 211.98 237.59 206.13 231.48 200.55 C 222.20 192.39 210.83 187.09 199.39 182.70 C 175.43 174.16 148.25 173.73 124.55 183.38 C 115.28 186.96 106.99 192.45 98.65 197.74 C 99.39 187.23 101.94 176.94 105.04 166.90 C 105.74 164.49 107.34 162.54 108.93 160.67 C 106.36 158.05 103.49 155.63 101.63 152.42 C 95.88 141.78 93.63 129.08 96.50 117.24 C 99.46 105.91 108.47 97.25 118.21 91.34 C 121.62 89.51 124.89 87.02 128.78 86.35 C 136.24 90.21 143.57 94.55 149.79 100.27 C 153.21 103.34 156.99 106.99 161.99 106.58 C 169.39 107.18 175.86 100.21 175.51 92.98 C 175.37 88.79 172.63 85.37 170.49 81.99 C 178.44 76.48 187.05 72.03 195.79 67.94 C 199.39 66.39 202.94 64.59 206.79 63.76 C 207.57 63.82 209.14 63.94 209.93 63.99 C 198.04 80.82 184.82 97.38 178.19 117.15 C 182.07 114.43 185.72 111.40 189.15 108.14 C 211.38 87.84 235.48 69.60 261.16 53.90 C 257.81 53.78 254.45 53.63 251.10 53.69 Z" />
<path fill="#ffffff" opacity="1.00" d=" M 71.03 97.16 C 80.71 89.88 91.92 84.14 104.10 82.81 C 105.67 82.92 107.38 82.77 108.83 83.53 C 103.39 89.33 97.13 94.67 93.83 102.08 C 88.43 111.57 87.19 123.02 89.50 133.60 C 90.74 139.18 93.18 144.39 94.98 149.80 C 90.50 147.92 85.93 146.03 81.03 145.69 C 78.25 145.42 75.40 145.77 72.66 145.15 C 65.12 141.57 60.44 133.27 60.67 124.99 C 60.98 117.82 63.49 110.97 66.33 104.45 C 67.54 101.83 68.67 98.98 71.03 97.16 Z" />
<path fill="#ffffff" opacity="1.00" d=" M 437.78 87.42 C 450.24 86.64 462.11 92.09 472.29 98.77 C 478.73 102.76 481.83 110.04 484.25 116.89 C 486.30 123.16 487.37 130.06 485.60 136.53 C 484.27 140.98 481.47 144.93 477.93 147.91 C 474.92 150.54 470.66 150.11 466.96 150.39 C 461.79 150.48 457.03 152.65 452.13 153.98 C 455.62 146.44 458.96 138.51 458.75 130.03 C 459.29 120.67 457.18 111.07 451.77 103.32 C 448.08 97.21 442.41 92.76 437.78 87.42 Z" />
<path fill="#ffffff" opacity="1.00" d=" M 39.92 132.93 C 43.12 127.51 46.49 122.04 51.27 117.86 C 51.25 123.56 51.21 129.45 53.46 134.80 C 55.41 140.01 59.74 143.69 63.22 147.85 C 58.24 151.27 52.32 153.77 48.80 158.92 C 47.31 161.71 42.99 161.04 41.45 158.60 C 38.30 154.09 37.84 148.32 37.53 142.99 C 37.23 139.46 38.08 135.94 39.92 132.93 Z" />
<path fill="#ffffff" opacity="1.00" d=" M 496.68 122.65 C 500.51 126.76 503.71 131.40 506.71 136.13 C 511.50 143.03 509.94 152.19 507.73 159.74 C 507.04 163.06 504.13 164.86 501.11 165.76 C 496.25 160.10 490.18 155.59 483.35 152.60 C 486.96 149.17 490.85 145.77 493.00 141.17 C 495.93 135.46 496.12 128.91 496.68 122.65 Z" />
<path fill="#ffffff" opacity="1.00" d=" M 450.35 159.94 C 454.80 157.77 459.56 156.26 464.49 155.72 C 464.44 237.15 464.43 318.57 464.45 400.00 C 464.54 408.15 464.06 416.33 464.95 424.45 C 456.01 425.71 446.99 425.14 438.00 425.24 C 421.67 425.21 405.33 425.31 389.00 425.20 C 377.34 424.46 365.67 424.84 354.00 424.76 C 344.33 424.65 334.66 424.79 325.00 425.24 C 265.34 425.08 205.67 425.41 146.00 425.15 C 134.01 424.48 122.00 424.84 110.00 424.76 C 98.07 424.82 86.13 424.59 74.21 424.91 C 74.62 397.61 74.26 370.30 74.38 343.00 C 74.51 313.84 74.07 284.67 74.59 255.52 C 74.79 255.78 75.18 256.29 75.37 256.55 C 76.65 264.93 78.37 273.28 81.54 281.17 C 83.69 287.11 87.04 292.48 89.88 298.10 C 90.55 304.71 90.12 311.37 90.21 318.00 C 90.29 336.99 90.06 355.98 90.33 374.97 C 95.40 372.47 100.37 369.81 105.26 366.98 C 111.08 363.54 116.89 359.91 123.46 358.06 C 119.00 366.41 110.94 371.85 104.78 378.84 C 100.86 382.90 96.84 386.86 93.00 390.99 C 88.19 395.74 90.75 403.12 90.27 409.10 C 97.03 409.10 103.97 410.17 110.61 408.64 C 114.84 405.13 117.06 399.75 120.41 395.44 C 124.59 389.28 127.69 382.15 133.81 377.58 C 133.41 382.83 132.33 388.00 131.01 393.09 C 149.61 393.65 168.23 393.40 186.84 393.23 C 184.76 388.13 182.88 382.96 181.37 377.67 C 180.56 375.40 180.02 372.64 177.74 371.36 C 172.82 368.46 167.39 366.53 162.54 363.49 C 151.13 356.57 140.02 348.91 130.66 339.33 C 126.69 335.24 121.50 331.48 120.72 325.41 C 125.28 329.10 129.43 333.28 133.95 337.03 C 147.82 349.05 164.23 357.68 181.08 364.71 C 184.12 366.05 187.66 366.62 190.23 368.84 C 194.05 375.33 194.70 383.22 198.56 389.72 C 200.05 389.84 201.56 389.56 202.93 388.96 C 209.21 386.28 214.26 381.59 219.81 377.75 C 222.38 375.74 225.73 376.96 228.63 377.26 C 244.26 380.07 260.19 379.74 275.99 379.67 C 287.34 379.60 298.68 378.58 309.86 376.65 C 313.02 376.26 316.66 375.41 319.37 377.65 C 325.66 381.99 331.73 386.99 339.23 389.09 C 341.71 382.87 343.74 376.47 346.34 370.30 C 347.73 366.14 352.52 365.40 356.03 363.84 C 374.05 356.60 391.20 346.73 405.57 333.56 C 409.15 330.37 412.48 326.75 416.87 324.63 C 417.33 324.76 418.24 325.02 418.70 325.15 C 416.29 329.99 412.58 333.99 408.79 337.77 C 396.68 350.07 382.42 360.23 366.94 367.86 C 363.84 369.52 359.92 370.99 358.91 374.76 C 356.89 380.99 354.97 387.26 352.29 393.24 C 366.74 393.48 381.20 393.44 395.65 393.26 C 393.80 389.96 392.24 386.47 391.49 382.74 C 396.73 385.59 400.78 390.00 405.08 394.03 C 408.73 397.34 412.49 400.53 416.02 403.97 C 418.56 406.30 421.23 409.10 424.92 409.20 C 432.71 409.60 440.51 409.25 448.30 409.17 C 448.32 403.56 449.25 397.78 447.95 392.27 C 444.21 387.09 438.56 383.72 433.69 379.72 C 427.05 374.20 419.37 369.62 414.34 362.43 C 420.33 362.92 426.24 364.09 432.14 365.19 C 432.71 353.13 432.10 341.06 432.46 329.00 C 432.59 324.87 432.77 320.50 430.67 316.79 C 431.29 316.44 431.93 316.09 432.57 315.74 C 432.88 324.49 432.68 333.25 432.73 342.00 C 432.83 350.07 432.21 358.20 433.57 366.21 C 436.62 366.79 439.67 367.42 442.77 367.79 C 444.63 368.05 446.49 368.32 448.37 368.57 C 448.59 346.36 448.43 324.13 448.43 301.92 C 448.11 296.36 451.90 291.94 454.14 287.20 C 460.51 274.16 463.23 259.48 462.78 245.01 C 462.89 237.76 461.87 230.50 459.28 223.71 C 457.54 219.35 457.45 214.62 457.55 210.00 C 457.75 194.38 454.88 178.91 450.96 163.85 C 450.73 162.55 450.53 161.24 450.35 159.94 M 226.94 393.16 C 238.62 393.58 250.31 393.24 262.00 393.34 C 278.72 393.25 295.45 393.55 312.17 393.19 C 310.19 391.00 308.39 388.52 305.80 387.02 C 302.67 386.47 299.50 387.10 296.39 387.37 C 277.95 389.38 259.35 389.14 240.92 387.19 C 238.37 386.99 235.74 386.53 233.22 387.13 C 230.65 388.56 228.89 391.02 226.94 393.16 M 130.47 394.13 C 129.25 399.09 128.16 404.09 127.47 409.16 C 149.18 409.39 170.91 409.44 192.62 409.13 C 191.31 404.11 189.91 399.02 187.37 394.47 C 181.74 392.84 175.77 393.91 170.00 393.70 C 156.82 393.96 143.61 393.12 130.47 394.13 M 220.26 398.29 C 215.59 402.10 210.12 404.82 205.67 408.92 C 211.42 409.55 217.22 409.28 223.00 409.31 C 254.33 409.30 285.67 409.31 317.00 409.31 C 322.49 409.29 327.99 409.55 333.45 408.88 C 329.09 404.57 323.25 402.29 318.64 398.29 C 316.03 396.36 313.61 393.40 310.06 393.56 C 283.35 393.52 256.64 393.57 229.94 393.52 C 226.01 393.14 223.14 396.14 220.26 398.29 M 351.71 394.25 C 350.03 399.20 347.91 404.02 346.60 409.10 C 359.06 409.57 371.54 409.18 384.00 409.31 C 390.26 409.18 396.60 409.87 402.77 408.51 C 400.62 403.59 398.35 398.72 395.83 393.98 C 386.23 393.31 376.61 393.88 367.00 393.67 C 361.90 393.53 356.78 393.58 351.71 394.25 Z" />
<path fill="#ffffff" opacity="1.00" d=" M 28.93 160.98 C 29.34 159.88 29.08 157.60 30.91 158.33 C 34.27 160.85 37.04 164.14 40.35 166.76 C 36.89 170.39 33.10 173.75 28.59 176.03 C 26.87 171.12 27.95 165.92 28.93 160.98 Z" />
<path fill="#ffffff" opacity="1.00" d=" M 516.39 162.30 C 516.82 162.39 517.68 162.58 518.11 162.67 C 519.06 168.38 519.97 174.15 519.41 179.96 C 513.99 179.03 509.61 174.93 507.10 170.21 C 510.83 168.38 513.83 165.51 516.39 162.30 Z" />
<path fill="#ffffff" opacity="1.00" d=" M 134.82 189.94 C 164.90 183.69 197.86 192.69 220.47 213.52 C 227.60 219.81 232.76 228.48 234.43 237.86 C 234.29 239.27 234.13 240.69 233.96 242.11 C 228.70 235.73 224.07 228.63 217.17 223.86 C 204.35 214.85 188.62 210.34 173.02 210.06 C 158.91 209.77 145.20 213.56 131.31 215.44 C 123.59 216.61 115.90 214.67 108.63 212.20 C 108.01 218.09 108.34 224.02 109.19 229.88 C 109.96 235.28 109.18 241.00 111.45 246.11 C 112.56 247.33 113.71 248.51 114.77 249.78 C 118.40 255.85 123.94 260.98 125.43 268.14 C 125.90 271.07 126.50 273.98 127.14 276.88 C 127.17 284.13 126.08 291.61 128.35 298.66 C 130.64 306.12 136.15 312.25 142.77 316.21 C 149.37 320.43 157.34 321.40 164.39 324.63 C 156.46 325.56 148.15 326.39 140.47 323.66 C 135.19 318.22 129.67 312.98 125.13 306.89 C 118.53 298.78 113.84 289.39 109.12 280.13 C 102.26 264.78 98.56 248.11 97.28 231.39 C 96.97 231.18 96.36 230.76 96.05 230.55 C 91.55 236.99 89.08 244.59 87.15 252.13 C 86.24 256.35 85.03 260.66 85.59 265.02 C 86.54 269.85 89.17 274.18 90.01 279.05 C 90.59 282.47 90.23 285.96 89.78 289.37 C 85.62 283.27 83.33 276.12 81.69 268.99 C 80.15 261.78 78.87 254.36 79.67 246.97 C 81.68 236.80 83.24 226.08 89.55 217.50 C 100.25 202.77 117.46 194.12 134.82 189.94 Z" />
<path fill="#ffffff" opacity="1.00" d=" M 328.71 204.73 C 350.65 190.35 378.39 184.43 404.13 190.07 C 415.58 193.06 426.67 197.83 436.29 204.77 C 444.01 209.86 450.88 216.72 454.62 225.29 C 458.65 235.24 460.26 246.23 459.09 256.92 C 457.70 265.28 455.80 273.61 452.61 281.49 C 451.74 283.73 450.38 285.72 448.89 287.58 C 448.41 282.72 448.38 277.83 448.57 272.96 C 448.85 265.70 453.41 259.09 452.56 251.73 C 451.42 245.09 448.42 238.98 445.55 232.95 C 443.39 250.15 439.59 267.32 431.98 283.00 C 427.65 293.00 421.00 301.71 414.35 310.25 C 410.54 315.07 406.55 319.82 401.89 323.84 C 400.14 325.50 397.66 325.66 395.38 325.62 C 388.45 325.45 381.51 325.41 374.61 324.70 C 381.47 321.72 389.10 320.54 395.40 316.35 C 402.19 311.92 407.98 305.62 410.92 297.99 C 412.72 293.43 412.49 288.45 412.66 283.65 C 416.56 273.89 418.47 263.40 417.40 252.90 C 417.56 255.63 417.77 258.36 417.91 261.09 C 420.18 257.23 422.38 253.29 425.24 249.83 C 426.98 248.17 428.85 246.64 430.69 245.09 C 428.89 234.07 432.87 223.19 431.35 212.19 C 425.23 214.26 418.87 216.27 412.32 215.71 C 398.10 214.72 384.34 210.13 370.03 210.06 C 351.13 209.79 331.25 215.00 317.23 228.24 C 311.47 233.27 307.34 239.76 303.28 246.15 C 303.13 244.37 302.98 242.60 302.90 240.82 C 303.98 234.47 306.21 228.26 309.75 222.85 C 314.44 215.33 321.67 209.90 328.71 204.73 Z" />
<path fill="#ffffff" opacity="1.00" d=" M 140.28 250.28 C 145.82 249.31 151.43 249.88 156.99 250.26 C 173.31 250.47 189.63 250.51 205.95 250.61 C 207.52 250.26 208.42 251.59 208.94 252.85 C 213.39 263.75 211.58 276.55 205.21 286.32 C 199.31 294.64 190.16 300.69 180.04 302.31 C 172.77 303.16 165.14 302.55 158.44 299.43 C 147.23 294.26 139.08 283.18 137.28 270.99 C 135.91 263.97 137.70 256.81 140.28 250.28 Z" />
<path fill="#ffffff" opacity="1.00" d=" M 335.45 251.47 C 354.28 250.32 373.15 250.71 392.00 250.33 C 395.85 250.34 399.73 249.97 403.57 250.49 C 408.11 256.59 408.07 264.73 407.64 271.99 C 406.80 283.02 399.56 292.46 390.74 298.61 C 375.83 308.26 354.28 305.98 342.05 292.98 C 331.64 282.21 328.52 264.92 335.45 251.47 Z" />
<path fill="#ffffff" opacity="1.00" d=" M 253.57 254.36 C 263.86 254.24 274.14 254.26 284.43 254.34 C 284.27 270.53 289.30 286.79 299.37 299.55 C 307.50 310.72 319.50 318.32 331.80 324.19 C 340.44 328.31 349.96 329.69 359.26 331.51 C 355.72 336.02 350.00 337.81 344.70 339.34 C 330.74 342.81 316.35 344.20 302.01 344.77 C 294.03 345.65 286.00 345.40 278.00 345.47 C 267.33 345.46 256.66 345.53 246.00 345.35 C 227.45 344.16 208.57 343.62 190.66 338.13 C 186.53 336.88 182.47 334.95 179.70 331.53 C 188.95 329.57 198.43 328.05 207.02 323.89 C 214.80 320.06 222.80 316.18 229.05 310.03 C 233.97 305.28 238.84 300.36 242.51 294.55 C 250.08 282.65 254.08 268.46 253.57 254.36 M 257.51 318.52 C 254.10 323.03 249.76 326.79 246.83 331.68 C 254.23 331.98 261.61 331.23 269.00 331.24 C 276.13 331.19 283.25 331.83 290.39 331.64 C 288.72 328.44 286.52 325.57 284.01 322.99 C 280.38 319.25 277.44 314.92 273.88 311.12 C 272.04 309.06 268.88 307.66 266.31 309.26 C 262.60 311.48 260.23 315.26 257.51 318.52 Z" />
<path fill="#ffffff" opacity="1.00" d=" M 151.64 332.59 C 159.45 332.20 167.30 332.85 175.08 331.78 C 176.93 334.64 179.09 337.34 180.52 340.46 C 181.87 343.99 182.73 347.68 183.55 351.36 C 177.05 349.47 171.22 345.89 165.44 342.45 C 160.75 339.30 155.70 336.57 151.64 332.59 Z" />
<path fill="#ffffff" opacity="1.00" d=" M 363.31 332.25 C 372.58 332.45 381.85 332.45 391.12 332.36 C 382.73 339.64 372.90 345.03 362.99 349.95 C 359.81 351.55 356.52 352.93 353.12 353.98 C 354.15 350.14 355.42 346.38 356.85 342.68 C 358.30 338.81 361.06 335.66 363.31 332.25 Z" />
<path fill="#ffffff" opacity="1.00" d=" M 197.13 350.41 C 204.48 352.73 211.78 355.18 219.29 356.94 C 220.46 358.91 219.13 361.32 218.35 363.23 C 214.39 371.00 208.57 377.85 201.70 383.19 C 199.88 372.32 197.61 361.45 197.13 350.41 Z" />
<path fill="#ffffff" opacity="1.00" d=" M 320.26 356.55 C 327.55 355.22 334.47 352.63 341.51 350.42 C 340.87 362.08 338.79 373.62 337.25 385.19 C 333.06 382.23 329.76 378.28 326.66 374.25 C 323.66 370.23 320.51 366.19 318.75 361.45 C 318.15 359.69 317.46 356.54 320.26 356.55 Z" />
<path fill="#ffffff" opacity="1.00" d=" M 230.04 366.11 C 231.26 364.15 232.18 361.91 233.95 360.38 C 241.33 359.80 248.62 361.61 256.00 361.55 C 266.66 361.63 277.34 361.81 288.00 361.33 C 293.71 360.71 299.43 360.17 305.18 360.32 C 306.15 362.61 307.13 364.90 308.05 367.21 C 297.40 368.47 286.74 369.91 275.99 369.70 C 260.61 369.99 245.13 369.28 230.04 366.11 Z" />
</g>
<g id="#151214ff">
<path fill="#151214" opacity="1.00" d=" M 90.89 51.81 C 108.92 51.40 126.96 51.76 145.00 51.64 C 153.50 51.82 162.02 51.14 170.49 52.10 C 164.65 57.74 156.72 60.64 151.16 66.64 C 148.89 66.43 146.61 66.25 144.34 66.06 C 144.52 66.62 144.89 67.72 145.07 68.27 C 136.13 61.51 124.51 59.86 113.60 59.63 C 105.93 59.38 98.45 61.29 91.06 63.10 C 90.81 59.34 90.76 55.57 90.89 51.81 Z" />
</g>
<g id="#161114ff">
<path fill="#161114" opacity="1.00" d=" M 367.80 52.19 C 374.85 51.54 381.93 51.76 389.00 51.73 C 408.71 51.82 428.42 51.57 448.12 51.85 C 448.41 56.52 448.45 61.20 448.26 65.88 C 441.73 64.59 435.06 63.80 428.41 64.44 C 423.34 64.86 418.68 67.20 413.63 67.68 C 414.49 67.28 415.35 66.87 416.21 66.46 C 406.35 66.29 396.46 65.84 386.64 66.87 C 385.50 66.86 384.84 65.58 383.99 64.97 C 379.27 59.87 372.60 57.21 367.80 52.19 Z" />
<path fill="#161114" opacity="1.00" d=" M 433.09 314.61 C 438.28 311.43 442.51 307.04 446.48 302.49 C 447.91 312.27 447.00 322.16 447.23 332.00 C 447.09 343.65 447.56 355.30 446.98 366.95 C 445.58 367.24 444.17 367.54 442.77 367.79 C 439.67 367.42 436.62 366.79 433.57 366.21 C 433.84 358.47 433.69 350.73 433.72 343.00 C 433.63 333.53 434.22 324.04 433.09 314.61 Z" />
</g>
<g id="#3c4b5cff">
</g>
<g id="#d6dce2ff">
<path fill="#d6dce2" opacity="1.00" d=" M 206.79 63.76 C 220.99 58.37 236.06 55.56 251.10 53.69 C 254.45 53.63 257.81 53.78 261.16 53.90 C 235.48 69.60 211.38 87.84 189.15 108.14 C 185.72 111.40 182.07 114.43 178.19 117.15 C 184.82 97.38 198.04 80.82 209.93 63.99 C 209.14 63.94 207.57 63.82 206.79 63.76 Z" />
</g>
<g id="#d5dce2ff">
<path fill="#d5dce2" opacity="1.00" d=" M 282.93 53.89 L 283.48 53.42 C 300.39 54.48 316.94 58.62 333.09 63.57 C 329.18 63.72 325.36 64.89 322.07 67.02 C 293.47 85.10 266.65 105.92 241.43 128.46 C 236.62 132.72 232.32 137.57 226.99 141.22 C 228.59 132.05 233.46 123.99 238.05 116.06 C 247.23 100.04 258.26 85.16 269.75 70.74 C 274.37 65.30 279.01 59.87 282.93 53.89 Z" />
<path fill="#d5dce2" opacity="1.00" d=" M 131.31 215.44 C 145.20 213.56 158.91 209.77 173.02 210.06 C 188.62 210.34 204.35 214.85 217.17 223.86 C 224.07 228.63 228.70 235.73 233.96 242.11 C 234.13 240.69 234.29 239.27 234.43 237.86 C 237.37 245.52 237.59 253.89 237.57 262.00 C 237.71 274.00 232.68 285.41 226.19 295.28 C 219.04 304.55 209.34 311.53 199.07 317.00 C 193.75 319.68 187.89 320.99 182.17 322.53 C 170.09 325.84 157.46 327.44 144.96 326.17 C 143.16 326.00 141.83 324.69 140.47 323.66 C 148.15 326.39 156.46 325.56 164.39 324.63 C 157.34 321.40 149.37 320.43 142.77 316.21 C 136.15 312.25 130.64 306.12 128.35 298.66 C 126.08 291.61 127.17 284.13 127.14 276.88 C 131.12 290.78 141.59 302.55 155.00 307.99 C 163.77 311.91 173.65 312.34 183.06 311.22 C 197.80 308.75 210.31 298.57 217.71 285.86 C 220.96 279.76 222.72 272.91 223.30 266.04 C 223.76 260.75 222.47 255.26 224.29 250.13 C 224.68 248.82 225.00 247.49 225.32 246.16 C 222.42 243.67 219.09 241.64 215.56 240.19 C 213.12 239.10 210.63 240.77 208.27 241.34 C 204.99 242.64 201.42 242.58 197.97 242.24 C 182.25 240.63 166.49 239.55 150.75 238.25 C 144.49 237.71 138.33 236.14 132.02 236.33 C 126.43 236.41 120.76 234.79 115.24 236.06 C 110.87 237.31 111.45 242.56 111.45 246.11 C 109.18 241.00 109.96 235.28 109.19 229.88 C 108.34 224.02 108.01 218.09 108.63 212.20 C 115.90 214.67 123.59 216.61 131.31 215.44 Z" />
</g>
<g id="#cccccfff">
<path fill="#cccccf" opacity="1.00" d=" M 144.34 66.06 C 146.61 66.25 148.89 66.43 151.16 66.64 C 149.41 68.04 147.27 68.51 145.07 68.27 C 144.89 67.72 144.52 66.62 144.34 66.06 Z" />
<path fill="#cccccf" opacity="1.00" d=" M 430.06 306.21 C 430.96 305.42 431.89 304.67 432.82 303.92 C 432.83 305.89 432.83 307.86 432.84 309.83 C 429.88 312.33 426.67 314.54 423.14 316.16 C 425.25 312.72 427.32 309.19 430.06 306.21 Z" />
</g>
<g id="#d2d4d7ff">
<path fill="#d2d4d7" opacity="1.00" d=" M 386.64 66.87 C 396.46 65.84 406.35 66.29 416.21 66.46 C 415.35 66.87 414.49 67.28 413.63 67.68 C 407.71 69.90 401.81 72.16 396.11 74.89 C 392.75 72.47 389.49 69.89 386.64 66.87 Z" />
</g>
<g id="#d5dce3ff">
<path fill="#d5dce3" opacity="1.00" d=" M 341.85 67.12 C 344.37 67.83 346.84 68.73 349.21 69.89 C 358.95 74.66 368.61 79.84 377.05 86.73 C 375.48 88.70 373.66 90.59 372.79 93.01 C 371.99 96.10 372.37 99.34 372.48 102.49 C 371.61 100.72 370.82 98.90 370.03 97.10 C 366.63 98.93 363.29 100.88 360.12 103.08 C 337.43 118.35 315.98 135.40 295.48 153.49 C 289.88 158.31 285.03 164.02 278.78 168.04 C 280.87 157.73 286.78 148.83 291.75 139.73 C 305.74 116.72 322.63 95.60 340.52 75.52 C 342.16 73.54 343.66 71.46 345.17 69.38 C 344.06 68.62 342.97 67.85 341.85 67.12 Z" />
<path fill="#d5dce3" opacity="1.00" d=" M 317.23 228.24 C 331.25 215.00 351.13 209.79 370.03 210.06 C 384.34 210.13 398.10 214.72 412.32 215.71 C 418.87 216.27 425.23 214.26 431.35 212.19 C 432.87 223.19 428.89 234.07 430.69 245.09 C 429.78 241.67 429.61 236.16 425.01 235.82 C 415.97 235.38 406.79 235.26 397.92 237.32 C 382.70 238.87 367.39 239.60 352.16 241.10 C 347.78 241.48 343.38 241.98 338.99 241.68 C 335.62 241.47 332.50 239.75 329.12 239.78 C 324.72 241.69 320.43 243.98 315.61 244.69 C 315.61 246.07 315.56 247.45 315.72 248.83 C 317.08 250.78 319.30 251.85 321.20 253.18 C 321.22 260.79 320.57 268.64 323.19 275.94 C 326.85 287.79 335.51 297.65 346.01 303.99 C 356.21 309.94 368.57 310.78 380.02 308.94 C 394.04 306.00 405.54 295.76 412.66 283.65 C 412.49 288.45 412.72 293.43 410.92 297.99 C 407.98 305.62 402.19 311.92 395.40 316.35 C 389.10 320.54 381.47 321.72 374.61 324.70 C 381.51 325.41 388.45 325.45 395.38 325.62 C 379.47 328.22 363.20 325.05 347.99 320.29 C 340.65 318.20 334.05 314.26 327.58 310.33 C 311.51 299.40 300.33 280.67 300.49 261.00 C 300.50 254.23 300.50 247.25 302.90 240.82 C 302.98 242.60 303.13 244.37 303.28 246.15 C 307.34 239.76 311.47 233.27 317.23 228.24 Z" />
</g>
<g id="#32424fff">
</g>
<g id="#283541ff">
</g>
<g id="#feffffff">
<path fill="#feffff" opacity="1.00" d=" M 73.80 151.42 C 78.41 150.27 83.21 150.60 87.87 151.19 C 86.70 156.61 84.89 161.87 83.48 167.23 C 79.42 184.16 77.28 201.58 77.78 219.00 C 77.95 223.28 77.65 227.57 76.65 231.74 C 74.73 239.87 75.24 248.27 75.37 256.55 C 75.18 256.29 74.79 255.78 74.59 255.52 C 74.46 231.01 74.22 206.51 74.33 182.00 C 74.18 171.81 74.75 161.59 73.80 151.42 Z" />
</g>
<g id="#1f2a34ff">
</g>
<g id="#19232cff">
</g>
<g id="#1f2a30ff">
</g>
<g id="#192229ff">
</g>
<g id="#141b21ff">
</g>
<g id="#0e141aff">
</g>
<g id="#000001ff">
<path fill="#000001" opacity="1.00" d=" M 397.92 237.32 C 406.79 235.26 415.97 235.38 425.01 235.82 C 429.61 236.16 429.78 241.67 430.69 245.09 C 428.85 246.64 426.98 248.17 425.24 249.83 C 422.56 249.74 419.88 249.74 417.20 249.80 C 417.25 250.58 417.35 252.12 417.40 252.90 C 418.47 263.40 416.56 273.89 412.66 283.65 C 405.54 295.76 394.04 306.00 380.02 308.94 C 368.57 310.78 356.21 309.94 346.01 303.99 C 335.51 297.65 326.85 287.79 323.19 275.94 C 320.57 268.64 321.22 260.79 321.20 253.18 C 319.30 251.85 317.08 250.78 315.72 248.83 C 315.56 247.45 315.61 246.07 315.61 244.69 C 320.43 243.98 324.72 241.69 329.12 239.78 C 332.50 239.75 335.62 241.47 338.99 241.68 C 343.38 241.98 347.78 241.48 352.16 241.10 C 367.39 239.60 382.70 238.87 397.92 237.32 M 335.45 251.47 C 328.52 264.92 331.64 282.21 342.05 292.98 C 354.28 305.98 375.83 308.26 390.74 298.61 C 399.56 292.46 406.80 283.02 407.64 271.99 C 408.07 264.73 408.11 256.59 403.57 250.49 C 399.73 249.97 395.85 250.34 392.00 250.33 C 373.15 250.71 354.28 250.32 335.45 251.47 Z" />
</g>
<g id="#141d25ff">
</g>
<g id="#d9dddeff">
<path fill="#d9ddde" opacity="1.00" d=" M 114.77 249.78 C 118.45 249.63 122.14 249.68 125.82 249.80 C 125.51 255.90 125.13 262.02 125.43 268.14 C 123.94 260.98 118.40 255.85 114.77 249.78 Z" />
</g>
<g id="#dbdbdeff">
<path fill="#dbdbde" opacity="1.00" d=" M 417.20 249.80 C 419.88 249.74 422.56 249.74 425.24 249.83 C 422.38 253.29 420.18 257.23 417.91 261.09 C 417.77 258.36 417.56 255.63 417.40 252.90 C 417.35 252.12 417.25 250.58 417.20 249.80 Z" />
</g>
<g id="#0b1015ff">
</g>
<g id="#141113ff">
<path fill="#141113" opacity="1.00" d=" M 447.39 270.57 C 448.82 276.17 448.40 282.04 448.56 287.78 C 448.71 290.38 446.54 292.17 445.05 294.01 C 440.46 298.86 436.77 304.45 432.84 309.83 C 432.83 307.86 432.83 305.89 432.82 303.92 C 431.89 304.67 430.96 305.42 430.06 306.21 C 431.02 303.88 432.86 302.17 434.80 300.65 C 438.15 298.10 439.31 293.87 441.21 290.30 C 443.09 286.25 446.00 282.56 446.56 278.03 C 446.75 275.53 447.23 273.06 447.39 270.57 Z" />
</g>
<g id="#10181fff">
</g>
<g id="#161214ff">
<path fill="#161214" opacity="1.00" d=" M 89.88 298.10 C 91.74 301.75 93.81 305.36 96.67 308.33 C 99.79 311.62 103.72 313.96 107.44 316.50 C 106.95 316.49 105.97 316.46 105.48 316.45 C 105.32 333.29 105.78 350.14 105.26 366.98 C 100.37 369.81 95.40 372.47 90.33 374.97 C 90.06 355.98 90.29 336.99 90.21 318.00 C 90.12 311.37 90.55 304.71 89.88 298.10 Z" />
</g>
<g id="#d5dce4ff">
<path fill="#d5dce4" opacity="1.00" d=" M 105.48 316.45 C 105.97 316.46 106.95 316.49 107.44 316.50 C 111.78 319.59 116.51 322.12 120.72 325.41 C 121.50 331.48 126.69 335.24 130.66 339.33 C 140.02 348.91 151.13 356.57 162.54 363.49 C 167.39 366.53 172.82 368.46 177.74 371.36 C 180.02 372.64 180.56 375.40 181.37 377.67 C 182.88 382.96 184.76 388.13 186.84 393.23 C 168.23 393.40 149.61 393.65 131.01 393.09 C 132.33 388.00 133.41 382.83 133.81 377.58 C 127.69 382.15 124.59 389.28 120.41 395.44 C 120.44 394.95 120.51 393.99 120.54 393.51 C 115.61 393.54 110.67 393.51 105.74 393.32 C 105.68 388.48 105.70 383.61 104.78 378.84 C 110.94 371.85 119.00 366.41 123.46 358.06 C 116.89 359.91 111.08 363.54 105.26 366.98 C 105.78 350.14 105.32 333.29 105.48 316.45 Z" />
<path fill="#d5dce4" opacity="1.00" d=" M 416.87 324.63 C 421.59 322.23 426.09 319.45 430.67 316.79 C 432.77 320.50 432.59 324.87 432.46 329.00 C 432.10 341.06 432.71 353.13 432.14 365.19 C 426.24 364.09 420.33 362.92 414.34 362.43 C 419.37 369.62 427.05 374.20 433.69 379.72 C 433.28 384.23 433.00 388.76 432.71 393.28 C 423.51 393.96 414.25 392.85 405.08 394.03 C 400.78 390.00 396.73 385.59 391.49 382.74 C 392.24 386.47 393.80 389.96 395.65 393.26 C 381.20 393.44 366.74 393.48 352.29 393.24 C 354.97 387.26 356.89 380.99 358.91 374.76 C 359.92 370.99 363.84 369.52 366.94 367.86 C 382.42 360.23 396.68 350.07 408.79 337.77 C 412.58 333.99 416.29 329.99 418.70 325.15 C 418.24 325.02 417.33 324.76 416.87 324.63 Z" />
</g>
<g id="#0c141aff">
</g>
<g id="#0d141bff">
</g>
<g id="#201e20ff">
<path fill="#201e20" opacity="1.00" d=" M 249.79 346.48 C 256.48 345.49 263.26 345.69 270.00 345.65 C 277.07 345.71 284.18 345.48 291.21 346.47 C 277.43 347.44 263.55 347.51 249.79 346.48 Z" />
</g>
<g id="#0a1014ff">
</g>
<g id="#171214ff">
<path fill="#171214" opacity="1.00" d=" M 104.78 378.84 C 105.70 383.61 105.68 388.48 105.74 393.32 C 110.67 393.51 115.61 393.54 120.54 393.51 C 120.51 393.99 120.44 394.95 120.41 395.44 C 117.06 399.75 114.84 405.13 110.61 408.64 C 103.97 410.17 97.03 409.10 90.27 409.10 C 90.75 403.12 88.19 395.74 93.00 390.99 C 96.84 386.86 100.86 382.90 104.78 378.84 Z" />
<path fill="#171214" opacity="1.00" d=" M 130.47 394.13 C 143.61 393.12 156.82 393.96 170.00 393.70 C 175.77 393.91 181.74 392.84 187.37 394.47 C 189.91 399.02 191.31 404.11 192.62 409.13 C 170.91 409.44 149.18 409.39 127.47 409.16 C 128.16 404.09 129.25 399.09 130.47 394.13 Z" />
<path fill="#171214" opacity="1.00" d=" M 351.71 394.25 C 356.78 393.58 361.90 393.53 367.00 393.67 C 376.61 393.88 386.23 393.31 395.83 393.98 C 398.35 398.72 400.62 403.59 402.77 408.51 C 396.60 409.87 390.26 409.18 384.00 409.31 C 371.54 409.18 359.06 409.57 346.60 409.10 C 347.91 404.02 350.03 399.20 351.71 394.25 Z" />
</g>
<g id="#171215ff">
<path fill="#171215" opacity="1.00" d=" M 432.71 393.28 C 433.00 388.76 433.28 384.23 433.69 379.72 C 438.56 383.72 444.21 387.09 447.95 392.27 C 449.25 397.78 448.32 403.56 448.30 409.17 C 440.51 409.25 432.71 409.60 424.92 409.20 C 421.23 409.10 418.56 406.30 416.02 403.97 C 412.49 400.53 408.73 397.34 405.08 394.03 C 414.25 392.85 423.51 393.96 432.71 393.28 Z" />
</g>
<g id="#e1e5e8ff">
<path fill="#e1e5e8" opacity="1.00" d=" M 226.94 393.16 C 228.89 391.02 230.65 388.56 233.22 387.13 C 235.74 386.53 238.37 386.99 240.92 387.19 C 259.35 389.14 277.95 389.38 296.39 387.37 C 299.50 387.10 302.67 386.47 305.80 387.02 C 308.39 388.52 310.19 391.00 312.17 393.19 C 295.45 393.55 278.72 393.25 262.00 393.34 C 250.31 393.24 238.62 393.58 226.94 393.16 Z" />
</g>
<g id="#171114ff">
<path fill="#171114" opacity="1.00" d=" M 220.26 398.29 C 223.14 396.14 226.01 393.14 229.94 393.52 C 256.64 393.57 283.35 393.52 310.06 393.56 C 313.61 393.40 316.03 396.36 318.64 398.29 C 323.25 402.29 329.09 404.57 333.45 408.88 C 327.99 409.55 322.49 409.29 317.00 409.31 C 285.67 409.31 254.33 409.30 223.00 409.31 C 217.22 409.28 211.42 409.55 205.67 408.92 C 210.12 404.82 215.59 402.10 220.26 398.29 Z" />
</g>
</svg>
