<?xml version="1.0" encoding="utf-8"?>
<!-- Generator: Adobe Illustrator 16.0.0, SVG Export Plug-In . SVG Version: 6.00 Build 0)  -->
<!DOCTYPE svg PUBLIC "-//W3C//DTD SVG 1.1//EN" "http://www.w3.org/Graphics/SVG/1.1/DTD/svg11.dtd">
<svg version="1.1" id="Layer_2" xmlns="http://www.w3.org/2000/svg" xmlns:xlink="http://www.w3.org/1999/xlink" x="0px" y="0px"
	 width="512px" height="512px" viewBox="0 0 512 512" enable-background="new 0 0 512 512" xml:space="preserve">
<g>
	<rect x="54" y="53" fill="#FFFFFF" stroke="#000000" stroke-width="2" stroke-miterlimit="10" width="405" height="404"/>
	<rect x="71.5" y="67.5" stroke="#000000" stroke-miterlimit="10" width="367" height="370"/>
	<path stroke="#000000" stroke-width="2" stroke-miterlimit="10" d="M78.791,214.423l24.811-13.591l24.661-5.017l44.061-2.014
		l25.292,7.494l26.483,11.062l10.672,13.29l5.732,20.681L250.979,255h7.909l11.069-15.989c0,0,19.77-18.768,20.561-19.559
		c0.789-0.791,23.128-15.117,23.128-15.117l34.597-7.757l25.897-5.558l19.967,4.535l17.792,5.53l11.071,3.753l5.329,3.951
		l7.701,4.546V225l-5.133,6.325l-4.738,1.358l-25.697-7.783L378.291,225H356.94l-24.513,1.977l-17.596,5.904l-7.71,10.009
		l-7.849,14.959l-7.459,11.521l0.086,18.111l4.547,16.996l9.622,18.183l17.857,8.304l14.036,6.916l21.143,6.524l8.562,3.613
		l6.669,5.48l-9.883,5.534l-17.001,6.129l-18.979-6.523l-29.653-2.373l-18.979-10.675l-11.267-29.652l-30.84,23.721l-14.63,11.664
		l-15.616,8.896l-26.359-0.395l-24.052-3.955l-14.251-2.371l-48.812-73.145l-3.559-46.655L78.791,214.423z"/>
	<path d="M440.667,232.684c5.537-34.754-6.526-48.54-6.526-48.54c23.13-28.627,77.226,35.847,77.226,35.847
		s8.902-92.612-71.097-134.871c0,0-36.771-18.536-71.036,18.365l-4.745-18.204c0,0-21.604-26.282-103.848-26.282h-8.348
		c-82.244,0-103.849,26.282-103.849,26.282l-4.744,18.286C109.434,66.667,72.663,85.16,72.663,85.16
		C-7.334,127.419,1.567,220.011,1.567,220.011s54.095-64.485,77.224-35.858c0,0-12.063,13.782-6.525,48.535L440.667,232.684z"/>
	<path fill="#FFFFFF" stroke="#000000" stroke-width="2" stroke-miterlimit="10" d="M255.724,68
		c74.728,0,98.055,32.044,98.055,32.044l1.185,17.998c0,8.302,10.677,7.021,10.677,7.021c25.304-34.002,54.957-28.91,54.957-28.91
		c34.003,0.396,53.771,32.397,53.771,32.397c26.491,41.91,26.887,69.97,26.887,69.97c-54.563-71.168-81.845-15.425-81.845-15.425
		c12.259,15.815,11.071,34.394,11.071,34.394c-16.211-21.351-63.26-20.737-63.26-20.737C277.073,197.939,272.726,263,272.726,263
		h-16.606l-0.199,15.32l17.595,0.166c0,101.218,94.496,69.533,94.496,69.533c-92.123,1.58-82.238-64.867-82.238-64.867
		c12.258-84.613,89.753-75.925,89.753-75.925c51.795,0.396,67.227,30.049,67.227,30.049c16.22,26.886-0.002,56.943-0.002,56.943
		s0.802-30.423-12.245-39.517c0,0,9.515,90.196-86.563,128.943c0,0,2.025-11.763,0.05-19.273c0,0-13.739,10.871-88.072,10.871
		c-74.331,0-88.07-10.871-88.07-10.871c-1.977,7.511,0.05,19.272,0.05,19.272c-96.077-38.746-86.564-128.942-86.564-128.942
		c-13.047,9.094-12.244,39.513-12.244,39.513s-16.223-30.061-0.003-56.947c0,0,15.433-29.66,67.228-30.055
		c0,0,77.496-8.702,89.752,75.909c0,0,9.886,66.422-82.238,64.841c0,0,94.298,31.629,94.298-69.589l17.792-0.055l0.199-15.32
		h-17.001c0,0-4.349-65.061-94.495-66.248c0,0-47.05-0.506-63.261,20.845c0,0-1.186-18.638,11.071-34.453
		c0,0-27.281-55.776-81.843,15.393c0,0,0.396-28.086,26.886-69.996c0,0,19.769-32.033,53.771-32.427c0,0,29.654-5.144,54.958,28.859
		c0,0,10.675,1.184,10.675-7.119l1.186-17.811c0,0,23.328-32.043,98.054-32.043H255.724z"/>
	<path fill="#C6D0D1" stroke="#C6D0D1" stroke-miterlimit="10" d="M164.219,363.379c0,0,1.823,0.424,0.592-0.22
		c-0.387-0.202-3.324-1.605-3.695-1.804c-17.554-9.333-18.415-13.392-18.415-13.392c22.734,0.99,44.129-6.211,44.129-6.211
		c42.941-17.279,38.373-55.337,38.373-55.337c-2.901-22.933-19.24-35.322-19.24-35.322c-43.492-33.475-116.505-11.07-116.505-11.07
		S71.693,329.207,164.219,363.379z"/>
	<path fill="#C6D0D1" stroke="#C6D0D1" stroke-miterlimit="10" d="M347.694,363.379c0,0-1.823,0.424-0.592-0.22
		c0.388-0.202,3.324-1.605,3.696-1.804c17.554-9.333,18.414-13.392,18.414-13.392c-22.733,0.99-44.129-6.211-44.129-6.211
		c-42.94-17.279-38.373-55.337-38.373-55.337c2.9-22.933,19.24-35.322,19.24-35.322c43.491-33.475,116.505-11.07,116.505-11.07
		S440.22,329.207,347.694,363.379z"/>
	<polygon fill="#FFFFFF" points="116.945,271.853 202.545,270.863 201.359,294.191 193.057,315.146 178.625,326.414 
		167.752,330.962 155.562,332.242 151.099,331.841 137.704,328.392 122.085,314.949 111.608,286.283 	"/>
	<polygon fill="#FFFFFF" points="400.433,271.853 314.832,270.863 316.02,294.191 324.322,315.146 338.753,326.414 349.626,330.962 
		361.816,332.242 366.279,331.841 379.675,328.392 395.293,314.949 405.771,286.283 	"/>
	<path stroke="#000000" stroke-miterlimit="10" d="M207.453,279.424l0.036-12.924h-98.45l-0.018,15.294
		c0,0-1.254,53.29,49.223,50.063c0,0-39.193,6.643-39.585-58.357h80.921c0,0,0.838,52.764-41.336,58.357
		C158.244,331.857,208.736,337.414,207.453,279.424z"/>
	<path stroke="#000000" stroke-miterlimit="10" d="M309.904,279.424l-0.033-12.924h98.449l0.017,15.294
		c0,0,1.254,53.29-49.222,50.063c0,0,39.192,6.643,39.582-58.357h-80.92c0,0-0.838,52.764,41.338,58.357
		C359.115,331.857,308.622,337.414,309.904,279.424z"/>
	<polygon fill="#FFFFFF" stroke="#000000" stroke-width="2" stroke-miterlimit="10" points="181.129,376.561 207.488,385.787 
		185.61,413.464 	"/>
	<polygon fill="#FFFFFF" stroke="#000000" stroke-width="2" stroke-miterlimit="10" points="332.428,376.561 306.069,385.787 
		327.946,413.464 	"/>
	<path fill="#FFFFFF" stroke="#000000" stroke-width="2" stroke-miterlimit="10" d="M256.333,402.656
		c31.315,0.263,40.906-7.38,40.906-7.38c-2.9-0.791-5.273-7.464-5.273-7.464S279.843,393,256.251,393h-0.132
		c-23.591,0-35.716-5.188-35.716-5.188s-2.372,6.764-5.272,7.553c0,0,9.589,7.601,40.906,7.337L256.333,402.656z"/>
	<path fill="#C6D0D1" d="M213.207,72.646c0,0-27.069,13.71-42.885,54.83c0,0,61.671-56.196,81.972-58.98
		C252.293,68.496,216.702,70.544,213.207,72.646z"/>
	<path fill="#C6D0D1" d="M269.957,68.844c0,0-42.965,43.872-56.144,89.735c0,0,74.172-69.558,106.292-79.606
		C320.105,78.973,291.043,69.254,269.957,68.844z"/>
	<path fill="#C6D0D1" d="M332.793,85.121c0,0-47.511,42.619-67.167,101.135c0,0,62.501-62.406,88.415-69.392l-1.055-16.737
		C352.986,100.126,340.804,87.311,332.793,85.121z"/>
	<polygon stroke="#000000" stroke-miterlimit="10" points="256.515,353.5 273.221,353.5 256.333,333.5 255.823,333.5 238.855,353.5 
		255.724,353.5 	"/>
</g>
</svg>
