<svg xmlns="http://www.w3.org/2000/svg" viewBox="0 0 512 512"><path fill="#FFF" stroke="#000" stroke-miterlimit="10" d="M482.3 324.5l-86.8-49.7H110l-79.8 49.7V24h452z"/><path stroke="#000" stroke-miterlimit="10" d="M463.5 313.7l-68-39-285.5.2-61.8 38V42h415.3z"/><path fill="#952B43" d="M446.5 304l-51-29.2H110l-43.3 27V59.4h379.8m-59.3 282c-142.3 106-261 0-261 0l15.3-17.2s104.6 100.2 230 0l15.7 17.2z"/><path fill="#952B43" d="M423.7 376.4c-182.7 154.5-335.4 0-335.4 0l15.4-16.6s138.5 139 304.2 0l15 16.6z"/><path fill="#FFF" stroke="#000" stroke-miterlimit="10" d="M64.8 401.2s174.5 182.7 383.3 0l19 22.8c-229 187.4-421 0-421 0l19-23z"/><path fill="#952B43" d="M318 297.6c-71.4 36.3-131 0-131 0V321s59.6 27.6 131 0v-23.4z"/><g stroke="#000" stroke-miterlimit="10"><path d="M427.7 232.5c4.7 4.7 3.5 13.7-2.7 20l-79 79c-6.3 6.2-15.2 7.5-20 2.7l-32.8-32.8c-4.8-4.8-3.6-13.7 2.7-20l79-79c6-6.3 15-7.5 19-2.7l33 32.8zM185.2-8c-4.8-4.7-13.7-3.4-20 2.8l-79 79C80 80 78.8 89 83.5 93.8l33 32.8c4.6 4.8 13.6 3.6 19.8-2.7l79-79c6.3-7 7.5-16 2.7-20L185.2-8zM83.4 232.7c-4.7 4.7-3.5 13.7 2.8 20l79.2 78.7c6.2 6.3 15.2 7.5 20 2.7l32.6-32c5-4.7 4-13.6-2-20l-79-79c-6.5-6.2-15.4-7.4-20-2.7l-33 33zM293 25c-4.7 5-3.4 13.8 3 20l79 79c6.3 6 15.2 7.3 20 2.6l32.8-33c4.7-4.7 3.5-13.6-2.8-20L345.8-5c-6.2-6.4-15.2-7.6-20-2.8l-32.7 33z"/><path d="M403.3 85.4L338.3 8h-159L108 83v150l68 71h157.5l69.8-68.6z"/></g><path fill="#FFF" stroke="#FFF" stroke-miterlimit="10" d="M293.6 283s-37.2 18-74.2.2l-85.8-85.7s-17.8-37.2-.2-74.2l86-83.3s37.2-17.8 74.2 0l86 83.3s18 37.2.2 74.2"/><g stroke-miterlimit="10"><path fill="#FFF" stroke="#FFF" d="M219.4 40c4.7 4.7 4.4 12.8-1 18l-66 66.2c-5.2 5.2-13.3 5.6-18 1l-33-33c-4.7-4.7-4.3-12.8 1-18l66-66.2c5.3-5.2 13.4-5.6 18-1l33 33zm192 190c4.8 4.6 4.4 12.7-1 18l-66 66c-5 5.3-13.2 5.7-18 1l-33-33c-4.6-4.6-4.2-12.7 1-18l66-66c5.3-5.3 13.5-5.7 18-1l33 33zm-225 85c-4.7 4.8-13 4.4-18-1l-66-66c-5.3-5.3-5.7-13.4-1-18.2l33-32.8c4.8-4.7 13-4.3 18 1l66 66c5.3 5.3 5.7 13.5 1 18.2l-33 32.8zm192.2-190c-4.8 4.8-13 4.4-18.2-.8l-66-66.2c-5.2-5.3-5.6-13.4-.8-18l33-33c4.7-4.7 12.8-4.3 18 1l66 66.2c5.2 5.2 5.6 13.3.8 18l-32.8 33z"/><circle cx="178.1" cy="83.7" r="39.1" stroke="#000"/><circle cx="178.1" cy="240.9" r="39.1" stroke="#000"/><circle cx="334.9" cy="240.9" r="39.1" stroke="#000"/><circle cx="334.9" cy="83.7" r="39.1" stroke="#000"/><path fill="#FFF" stroke="#FFF" d="M189 85.8L334.5 231l-11 11L178 97z"/><path fill="#FFF" stroke="#FFF" d="M178.3 231L323.7 85.8l11 11L189.2 242z"/><circle cx="178.1" cy="83.7" r="17.6" fill="#FFF" stroke="#FFF"/><circle cx="334.9" cy="83.7" r="17.6" fill="#FFF" stroke="#FFF"/><circle cx="178.1" cy="240.9" r="17.6" fill="#FFF" stroke="#FFF"/><circle cx="334.9" cy="240.9" r="17.6" fill="#FFF" stroke="#FFF"/><path stroke="#000" d="M290.2 181.7c0 6.6-5.3 12-12 12h-43.5c-6.6 0-12-5.4-12-12v-41.3c0-6.6 5.4-12 12-12h43.5c6.7 0 12 5.4 12 12v41.3z"/></g></svg>