<?xml version="1.0" encoding="utf-8"?>
<!-- Generator: Adobe Illustrator 16.0.0, SVG Export Plug-In . SVG Version: 6.00 Build 0)  -->
<!DOCTYPE svg PUBLIC "-//W3C//DTD SVG 1.1//EN" "http://www.w3.org/Graphics/SVG/1.1/DTD/svg11.dtd">
<svg version="1.1" id="Layer_2" xmlns="http://www.w3.org/2000/svg" xmlns:xlink="http://www.w3.org/1999/xlink" x="0px" y="0px"
	 width="512px" height="512px" viewBox="0 0 512 512" enable-background="new 0 0 512 512" xml:space="preserve">
<g>
	<rect x="48" y="55" fill="#FFFFFF" stroke="#000000" stroke-width="2" stroke-miterlimit="10" width="413" height="414"/>
	<rect x="65" y="73" stroke="#000000" stroke-width="2" stroke-miterlimit="10" width="379" height="378"/>
	<rect x="81" y="91" fill="#4B929C" width="347" height="343"/>
	<g>
		<g>
			<path stroke="#000000" stroke-width="2" stroke-miterlimit="10" d="M400.554,235.228l-7.377,20.879l8.713,0.946
				c-7.21,13.356-16.244,25.605-26.762,36.425l-4.946-5.324l-11.715,9.292l7.073,5.154c-3.888,3.402-7.941,6.635-12.141,9.673
				c-2.255-0.719-4.799-1.325-7.661-1.77c0,0-30.078,16.701-56.405,24.24l-29.79,3.507c0,0-6.126,2.263-22.969,4.613
				c-24.896-2.787-48.126-11.013-68.439-23.456l3.766-3.378l-13.884-9.696l-3.15,4.04c-15.194-11.457-28.332-25.444-38.762-41.338
				l7.202-1.891l-9.544-14.948l-4.86,4.768c-10.197-18.891-16.374-39.989-18.386-62.378L105,198.059v-34.34l-14.623,3.119
				c2.238-28.208,11.509-54.404,26.374-76.794l4.05,7.822l12.533-15.756l-7.913-4.161c30.398-37.839,77.331-62.096,130.012-62.096
				c9.537,0,18.885,0.792,27.979,2.327l-5.072,5.551L298,28.376V21.46c32,8.282,59.035,25.315,80.094,48.279l-7.191,3.887
				l16.561,14.544l3.059-3.507c19.411,26.842,30.84,59.712,30.84,95.217c0,22.236-4.471,43.438-12.582,62.774L400.554,235.228z"/>
			<polygon stroke="#000000" stroke-width="2" stroke-miterlimit="10" points="171.9,316.029 168.134,319.407 100.31,380.267 
				154.866,310.373 158.016,306.333 			"/>
			<polygon stroke="#000000" stroke-width="2" stroke-miterlimit="10" points="421.38,343.301 365.54,302.6 358.467,297.445 
				370.182,288.153 375.128,293.478 			"/>
			<polygon stroke="#000000" stroke-width="2" stroke-miterlimit="10" points="427.888,259.873 401.89,257.053 393.177,256.107 
				400.554,235.228 408.789,242.654 			"/>
			<polygon stroke="#000000" stroke-width="2" stroke-miterlimit="10" points="424.416,45.345 390.557,84.663 387.536,88.169 
				371.049,73.625 378.392,69.739 			"/>
			<polygon stroke="#000000" stroke-width="2" stroke-miterlimit="10" points="298,0.5 298,28.376 278.338,23.73 282.963,18.179 			
				"/>
			<polygon stroke="#000000" stroke-width="2" stroke-miterlimit="10" points="133.285,82.109 120.702,97.866 116.555,90.044 
				104.215,66.757 125.397,77.948 			"/>
			<polygon stroke="#000000" stroke-width="2" stroke-miterlimit="10" points="105,163.719 105,198.059 90.515,194.585 
				30.652,179.879 90.475,166.838 			"/>
			<polygon stroke="#000000" stroke-width="2" stroke-miterlimit="10" points="123.305,267.145 116.104,269.035 89.463,276.033 
				108.901,256.964 113.761,252.196 			"/>
			<path stroke="#000000" stroke-width="2" stroke-miterlimit="10" d="M361.938,347.809
				c-34.997,13.874-105.866,24.911-105.866,24.911c47.727,7.676,93.648,9.365,93.648,9.365c8.963,0.872,10.848,7.942,10.848,7.942
				c2.819,8.152-3.402,11.239-3.402,11.239c-42.667,22.221-149.402,29.098-149.402,29.098
				c42.234,14.002,114.909,17.832,114.909,17.832c7.592,0.606,9.041,6.465,9.041,6.465c1.302,5.39-3.037,6.674-3.037,6.674
				c-60.604,28.685-126.892,33.823-126.892,33.823c18.579,3.976,33.001,15.636,33.453,15.999
				c-15.629-8.072-52.925-11.207-52.925-11.207c-5.311,0.21-5.97-4.542-5.97-4.542c-0.321-6.06,5.536-7.271,5.536-7.271
				c92.85-12.12,124.74-29.492,124.74-29.492c-72.961-2.691-123.108-17.275-133.088-20.807c-9.979-3.531-8.191-11.063-8.191-11.063
				c0-9.34,9.701-9.033,9.701-9.033c62.375-1.422,105.545-16.669,105.545-16.669c-33.521,0.809-124.887-22.285-124.887-22.285
				c-14.752-2.157-13.302-15.489-13.302-15.489c1.735-14.545,14.751-15.353,14.751-15.353c38.424-0.59,63.641-2.877,79.426-5.083
				c16.843-2.351,22.969-4.613,22.969-4.613l29.79-3.507c26.327-7.539,56.405-24.24,56.405-24.24
				c2.862,0.444,5.406,1.051,7.661,1.77c17.538,5.575,17.649,18.164,17.649,18.164C372.499,343.228,361.938,347.809,361.938,347.809
				z"/>
		</g>
		<polygon stroke="#000000" stroke-width="2" stroke-miterlimit="10" points="404.459,118 449.582,118 407.93,130.39 		"/>
	</g>
	<g>
		<path fill="#FFFFFF" d="M140.265,238.576c0,0,12.689,24.933,36.119,48.5c0,0-1-14.804-3.754-43.964
			C172.629,243.112,161.852,243,140.265,238.576z"/>
		<path fill="#FFFFFF" d="M115.138,230.648c0,0,3.54,12.795,15.254,24.241c0,0-1.809-3.432-3.797-19.829
			C126.595,235.061,121.591,233.23,115.138,230.648z"/>
		<path fill="#FFFFFF" d="M165.676,300.181c0,0-11.862-17.553-24.292-40.981c0,0,1.084,14.773,6.472,25.77
			C147.856,284.969,159.928,296.156,165.676,300.181z"/>
		<path fill="#FFFFFF" d="M200.976,319.407c-5.154-12.161-12.154-67.211-12.154-67.211s27.968,65.158,34.231,73.585
			C223.053,325.781,201.502,320.649,200.976,319.407z"/>
		<path fill="#FFFFFF" d="M203.146,244.579c0,0,16.481,42.498,23.857,53.406c0,0,4.482-29.157,6.941-53.363L203.146,244.579z"/>
		<path fill="#FFFFFF" d="M239.59,328.242c0,0,4.044-37.795,5.057-67.626c0,0,17.631,57.407,22.266,67.992
			C266.913,328.608,251.174,329.771,239.59,328.242z"/>
		<path fill="#FFFFFF" d="M254.336,244.587c0,0,17.935,59.458,19.236,64.845c0,0,20.249-28.587,31.095-64.996L254.336,244.587z"/>
		<path fill="#FFFFFF" d="M277.773,327.526c0,0,27.327-39.643,38.318-66.307c0,0,5.967,25.364,7.032,52.544
			C323.124,313.764,299.476,325.421,277.773,327.526z"/>
		<path fill="#FFFFFF" d="M326.372,243.61c0,0,8.81,33.097,9.388,38.349c0,0,9.601-15.01,18.251-41.037
			C354.011,240.922,336.508,243.106,326.372,243.61z"/>
		<path fill="#FFFFFF" d="M339.258,304.483c0,0,10.966-17.946,24.994-61.714c0,0,4.087,7.811,6.65,34.163
			C370.902,276.933,352.113,296.873,339.258,304.483z"/>
		<path fill="#FFFFFF" d="M373.583,237.389c0,0,1.574,4.285,1.545,7.189c0,0,2.157-2.07,5.691-9.009
			C380.819,235.569,375.222,237.022,373.583,237.389z"/>
	</g>
	<path fill="#FFFFFF" stroke="#FFFFFF" stroke-width="2" stroke-miterlimit="10" d="M165.247,158.203l34.365,9.209
		c0,0-6.661,16.479-21.748,12.437C177.864,179.849,160.332,176.544,165.247,158.203z"/>
	<path fill="#FFFFFF" stroke="#FFFFFF" stroke-width="2" stroke-miterlimit="10" d="M346.03,158.204l-34.365,9.208
		c0,0,6.661,16.479,21.749,12.437C333.414,179.849,350.946,176.545,346.03,158.204z"/>
	<path fill="none" stroke="#FF0000" stroke-width="2" stroke-miterlimit="10" d="M256.072,179.475"/>
	<path fill="#FFFFFF" d="M256.463,30c101.267-1,132.916,94.878,132.916,94.878c6.458,14.748,8.354,37.732,8.354,37.732l-24.15-3.149
		c0.074-11.312-4.559-18.603-4.559-18.603c-2.948-6.952-14.088-4.222-20.564-1.924l-0.841-16.014l-5.494,17.369
		c0,0-0.532,0.108-13.451,6.74c-16.485,8.464-45.412,20.597-45.412,20.597c4.074,15.043,12.99,23.407,20.964,28.02l-2.451,25.846
		l11.522-21.819c3.747,1.207,6.266,1.485,6.266,1.485s3.025,0.583,8.533,0.269c3.678-0.21,7.081-0.409,10.189-1.1l7.889,12.95
		l-0.902-15.112c12.01-4.825,18.04-13.302,18.04-13.302s6.256-7.791,7.449-12.12c0.442-1.613,1.044-3.418,1.393-5.374l27.04,7.796
		c-0.792,25.255-9.197,39.055-9.197,39.055c-14.174,27.607-60.31,23.567-60.31,23.567c-22.562-2.829-73.614-3.367-73.614-3.367
		s-51.053,0.539-73.614,3.367c0,0-46.136,4.04-60.309-23.567c0,0-9.256-15.197-9.256-42.881c0,0,1.519-26.052,5.785-36.572
		l20.248,14.544c0,0-0.579,15.352,2.458,23.432l-10.992,15.353l18.417-3.232c0,0,11.191,16.564,35.191,16.564v11.176l8.557-11.445
		c0,0,28.071-3.098,36.314-33.533c0,0-29.353-11.439-45.407-20.597l-14.749-29.493l-0.287,23.297c0,0-21.081-9.971-25.309,0
		l-20.354-15.955c0,0,31.649-95.878,132.917-94.878H256.463z"/>
	<path stroke="#000000" stroke-width="2" stroke-miterlimit="10" d="M256.072,112.141c35.68,0,57.75-14.483,57.75-14.483
		S286.545,126,256.072,126h-0.391c-30.472,0-57.749-28.342-57.749-28.342s22.07,14.379,57.749,14.379L256.072,112.141z"/>
</g>
</svg>
