<svg xmlns="http://www.w3.org/2000/svg" viewBox="0 0 512 512"><path fill="#FFF" stroke="#000" stroke-width="2" stroke-miterlimit="10" d="M71 53h386v415H71z"/><path stroke="#000" stroke-width="2" stroke-miterlimit="10" d="M89 72h353v380H89z"/><path fill="#4B929C" d="M102 90h326v344H102z"/><path d="M401.3 234.5l-7 21 8.2 1c-6.7 13.3-15 25.6-25 36.5l-4.6-5.4-11 9.3 6 5-12 9c-2-1-5-2-7-2 0 0-29 16-53 24l-28 3s-6 2-22 4c-24-3-45-11-64-24l3-4-13-10-3 4c-13-10-26-24-35-40l6-2-9-15-5 5c-10-19-16-41-18-63l13 3v-34l-13 3c2-28 11-55 25-77l4 8 12-16-8-4c29-38 73-62 122-62 9 0 17 1 26 2l-5 6 18 5v-7c29.4 8 55.4 25 75 48l-7 4 16 15 3-3c18 27 29 60 29 96 0 22-4 43-11 63l-8-8z"/><path d="M187.6 315.6L184 319l-63.4 61 51-70 3-4m246.2 37l-52.2-41-6.6-5 11-9.4 4.5 5.4m49.5-33.8l-24.5-2.8-8-1 6.8-21 7.7 7.5m14.6-198L392 83l-3 3.5L373.7 72l7-4M306-1v28l-18.7-4.6 4.5-5.6m-140.3 64l-11.8 15.8-4-8-11.4-23.3L144 76.6m-20 86v34.6l-13-3.5L55.3 179l55.5-13.2M142 266.5l-6.6 2-25 7 18.3-19.2 4.5-4.8m232 96c-32.7 14-99 25-99 25 44.7 7.7 87.6 9.4 87.6 9.4 8.4 0 10 8 10 8 2.8 8-3 11-3 11-40 22-139.8 29-139.8 29 39.8 14 107.7 18 107.7 18 7 0 8.4 6 8.4 6 2 5-3 6-3 6-56 29-118 34-118 34 18 4 31 15 32 16-14-8-49-11-49-11-5 0-5-5-5-5 0-6 5-8 5-8 87-12 117-29 117-29-68-3-115-18-124-21-9-4-7-11-7-11 0-10 9-9 9-9 58-2 98-17 98-17-31 1-117-23-117-23-14-2-12-16-12-16 2-15 14-16 14-16 36 0 60-2 74-5 16-2 22-4 22-4l28-4c25-7 53-24 53-24 3 1 5 1 7 2 16 6 16 18 16 18 2 13-8 18-8 18zM405 117h42l-38.8 12.4"/><path fill="#FFF" d="M158 237.8s11.8 25 33.7 48.7c0 0-1-14.8-3.5-44 0 0-10-.2-30.2-4.7zm-23.5-7.8s3.3 12.7 14.3 24.2c0 0-1.7-3.4-3.6-20 0 0-4.7-1.7-10.7-4.3zm47.2 69.7s-11-17.6-22.7-41.2c0 0 1 15 6 26 0 0 11.4 11 16.7 15.2zm33 19.3c-4.8-12.2-11.3-67.5-11.3-67.5s26 65.4 32 74c0 0-20.2-5.3-20.7-6.5zm2-75s15.5 42.5 22.4 53.5c0 0 5-29.3 7-53.6h-29zm34 84s4-38 5-68c0 0 16.3 57.6 20.7 68.2 0 0-14.7 1.2-25.6-.3zm14-84s16.7 59.6 18 65c0 0 19-28.7 29-65.3l-47 .2zm21.8 83s25.6-39.7 35.8-66.4c0 0 5.6 25.4 6.6 52.7 0 0-23 11.7-43 13.8zm45.5-84s8.2 33 8.7 38.4c0 0 9-15 17-41.2 0 0-16.3 2.2-25.7 2.7zm12 61s10.3-18 23.4-62c0 0 3.8 8 6.2 34.3 0 0-17.6 20-29.6 27.7zm32-67.3s1.6 4.3 1.5 7.2c0 0 2-3 5.4-10l-7 2zM178.6 161H212s-2 17.7-16.7 17.7c0 0-16.7 1.3-16.7-17.7zm174.4 0h-33.2s2 17.7 16.6 17.7c0 0 16.6 1.3 16.6-17.7z"/><path fill="#FFF" d="M266.6 29c94.7-1 124.3 95 124.3 95 6 14.8 7 37.7 7 37.7l-23-3.2c0-11.4-5-18.7-5-18.7-3-7-13-4.3-19-2l-1-16-5 17.4s-1 0-13 6.7c-15 8-42 20-42 20 3 15 12 23 19 28l-3 26 11-22c3 1 6 1 6 1h8l9-1 7 13-1-16c11-5 17-13 17-13s6-8 7-12l1-6 25 8c-.6 25-8.5 39-8.5 39-13 28-56.4 24-56.4 24-21-3-69-4-69-4s-47.6 0-68.7 3c0 0-43 4-57-24 0 0-9-15-9-43 0 0 1.4-26 5.4-37l19 15s-.6 15 2.2 23l-10 16 17.3-3s11 16.3 33 16.3v12l8-11.6s26-3 33.7-33.4c0 0-27.4-11.4-42.4-20.6l-14-30v23s-20-10-24 0l-19-15s33-94 128-93h.6z"/><path stroke="#000" stroke-width="2" stroke-miterlimit="10" d="M266.2 111c33.4 0 54-14.5 54-14.5s-25.5 28.5-54 28.5h-.3c-29 0-54-28.5-54-28.5s20 14.5 54 14.5z"/><path fill="#FFF" stroke="#FFF" stroke-width="2" stroke-miterlimit="10" d="M149.7 380l-53 79.2 32.4 2zM83 409.5l47.4-81-47 46.4zm1.5-121l28.4-37-30 19.2zM383 459.3L365 412l36 43.8zm64.8-18.8l2-26.3-54.4-54.5zm-.8-162L413.8 263l32 31.3z"/><path fill="#FFF" d="M363.6 330s3.8.2 5 4c0 0 1 4.2-3.7 7.2 0 0-13 9-111 28.2 0 0 88-21.5 101-28.5 0 0 14-7 5-10l-3-1s4-2 6-1zm-185 28s-10.7.6-9.4 6.7c0 0 0 4.7 7.2 7.7 0 0 8.5 4.4 59.6 14 0 0-43.8-11.2-58.7-19 0 0-8.3-5.4 1.2-9.4zm11.7 66.4s-6 .7-3.6 7c0 0 3 7.7 37.6 14.7 0 0-31.3-10-33-15 0 0-3.6-2-1-6zM345.7 390s15-.4 11.4 5.5c0 0-2 6.6-48 19.3 0 0 30-12.8 36-17.5 0 0 8-5 1-7.3z"/></svg>