<?xml version="1.0" encoding="iso-8859-1"?>
<!-- Generator: Adobe Illustrator 21.0.2, SVG Export Plug-In . SVG Version: 6.00 Build 0)  -->
<svg version="1.1" xmlns="http://www.w3.org/2000/svg" xmlns:xlink="http://www.w3.org/1999/xlink" x="0px" y="0px"
	 viewBox="0 0 300 300" style="enable-background:new 0 0 300 300;" xml:space="preserve">
<g id="IconGuides">
</g>
<g id="Finka">
	<g id="Background">
		<g>
			<polygon style="fill:#FCAE1D;" points="54.677,245.033 245.589,245.033 245.589,86.901 198.774,54.121 54.677,54.121 			"/>
			<polygon style="fill:#C98E2B;" points="35.095,103.904 63.72,93.298 44.884,149.577 114.971,103.309 64.455,194.71 
				106.09,160.212 63.965,241.704 104.106,196.423 170.925,245.033 245.589,164.078 203.233,248.802 211.555,248.802 
				240.192,228.731 228.933,264.614 35.095,264.614 			"/>
			<polygon style="fill:#231F20;" points="245.589,245.033 54.677,245.033 54.677,54.121 198.774,54.121 186.889,45.799 
				47.31,45.799 47.31,253.355 254.866,253.355 254.866,93.397 245.589,86.901 			"/>
			<polygon style="fill:#FFFFFF;" points="254.866,93.397 254.866,253.355 47.31,253.355 47.31,45.799 186.889,45.799 170.81,34.54 
				35.095,34.54 35.095,264.614 265.169,264.614 265.169,100.611 			"/>
		</g>
	</g>
	<g id="Fist">
		<path style="fill:#231F20;" d="M91.46,209.966l-24.394,36.551c101.096,0,101.096,0,101.096,0l8.801-12.238l61.435-90.969v-32.716
			l8.036-10.667l-7.741-16.552l-14.104-1.836l5.487-7.098V70.78l-15.493-13.249l-9.635-2.09l-5.935-16.154l-20.376-2.907
			l-8.138-11.779l-13.982,0.061l-2.968-5.874L132.09,9.917l-8.159,22.926l-33.45,36.143l5.956,55.724l19.336,41.446L91.46,209.966z"
			/>
		<g>
			<polygon style="fill:#FFFFFF;" points="225.947,127.12 234.154,116.226 234.154,116.226 			"/>
			<polygon style="fill:#FFFFFF;" points="234.154,116.226 234.154,140.537 176.962,234.279 238.397,143.31 238.397,110.594 			"/>
			<polygon style="fill:#FFFFFF;" points="238.397,110.594 246.433,99.927 238.397,110.594 			"/>
			<path style="fill:#FFFFFF;" d="M234.154,116.226l12.279-16.299l-7.741-16.552l-14.104-1.836l5.487-7.098V70.78l-15.493-13.249
				l-9.635-2.09l-5.935-16.154l-20.376-2.907l-8.138-11.779l-13.982,0.061l-2.968-5.874l-19.992-8.293l-1.465-0.579l-8.159,22.926
				l-33.45,36.143l5.956,55.724l19.336,41.446L91.46,209.966l28.718-40.141l13.625,6.527l-15.234-9.697l-17.523-40.968
				l-6.119-55.316l32.285-35.744l6.841-19.333l9.828,3.382l6.48,3.234l1.84,3.792l-2.652,0.612l-23.905,39.651l8.24,14.767
				l11.259,1.632c5.122,7.186,7.766,13.632,9.219,18.112c4.742,14.616,3.889,30.102,3.427,38.509
				c-0.24,4.352-0.618,7.608-0.245,7.669c0.705,0.116,3.795-11.245,4.786-22.928c0.86-10.141-0.03-18.545-0.951-24.147l10.769,3.753
				l7.424,15.338l18.479,1.917l5.099,10.402l4.528-3.051l-4.65-9.717l21.988-33.41l10.688,2.774l4.487,12.34l-14.244,27.193
				L234.154,116.226L234.154,116.226z M137.882,77.797l-6.69-12.238l20.968-35.001l15.501-1.632l7.995,10.361l-26.516,38.509
				H137.882z M160.931,94.114l-8.893-12.646l28.555-39.161l15.093,0.449l5.222,13.951l-28.27,40.385L160.931,94.114z
				 M199.48,114.184h-16.317l-7.057-12.891l28.27-41.364l11.993,2.284l9.056,10.198L199.48,114.184z"/>
		</g>
	</g>
	<g id="FloatingPieces">
		<g>
			<polygon style="fill:#FFFFFF;" points="244.597,67.893 234.256,25.305 210.821,37.176 216.756,69.3 			"/>
			<path style="fill:#231F20;" d="M236.203,33.321l-24.03,11.173c1.433,7.757,1.433,7.757,1.433,7.757l24.847-9.662L236.203,33.321z
				"/>
			<polygon style="fill:#FCAE1D;" points="213.606,52.252 238.453,42.59 244.597,67.893 216.756,69.3 			"/>
			<polygon style="fill:#FFFFFF;" points="254.866,82.035 265.169,82.937 265.169,63.596 254.866,66.408 			"/>
			<polygon style="fill:#231F20;" points="245.589,68.941 245.589,81.224 254.866,82.035 254.866,66.408 			"/>
			<polygon style="fill:#FCAE1D;" points="245.589,68.941 230.075,73.176 230.075,74.441 228.924,75.935 235.176,80.313 
				245.589,81.224 			"/>
			<line style="fill:#FCAE1D;" x1="245.589" y1="81.224" x2="235.176" y2="80.313"/>
		</g>
		<g>
			<polygon style="fill:#050708;" points="202.091,20.768 212.738,26.601 204.457,42.184 			"/>
			<polyline style="fill:#050708;" points="262.791,17.341 248.677,45.799 269.4,29.253 262.791,17.341 			"/>
			<path style="fill:#050708;" d="M264.607,125.933l7.893,5.324c-81.566,100.351-81.566,100.351-81.566,100.351L264.607,125.933z"/>
		</g>
	</g>
	<g id="LightingBolt_1_">
		<g id="LightingBolt">
			<polygon style="fill:#FFFFFF;" points="226.926,116.226 145.715,258.959 103.045,264.614 138.698,204.5 85.504,274.42 
				54.256,274.42 155.016,174.313 142.043,222.612 			"/>
			<polygon style="fill:#231F20;" points="85.504,274.42 93.52,280.131 109.723,253.355 138.698,204.5 			"/>
		</g>
		<polygon style="fill:#FFFFFF;" points="35.573,233.259 67.698,190.733 35.573,223.959 		"/>
		<polygon style="fill:#FFFFFF;" points="102.148,173.457 42.182,262.631 35.573,253.355 		"/>
	</g>
</g>
</svg>
