<svg xmlns="http://www.w3.org/2000/svg" viewBox="0 0 512 512"><path fill="#FFF" stroke="#000" stroke-miterlimit="10" d="M24 30h458v458.4H24z"/><path stroke="#000" stroke-miterlimit="10" d="M43.2 47.6h420.2v421.8H43.2z"/><path fill="#29799D" d="M60.4 66H446v387H60.5z"/><path stroke="#000" stroke-miterlimit="10" d="M396.6 392c0 6.5-5.4 12-12 12h-263c-6.7 0-12-5.5-12-12V119.6c0-6.6 5.3-12 12-12h263c6.6 0 12 5.4 12 12V392z"/><path fill="#28789F" d="M375 367.5c0 6.7-5.2 12-12 12H143c-6.6 0-12-5.3-12-12V143.2c0-6.6 5.4-12 12-12h220c6.8 0 12 5.4 12 12v224.3z"/><path stroke="#000" stroke-miterlimit="10" d="M512 313.2H0V253l24 25.4v-36.2L0 217v-24.4h512v25.6l-30 26V282l30-26z"/><path fill="#FFF" stroke="#000" stroke-miterlimit="10" d="M507.5 221.6L472.2 253l-28.6-30.6-34 30.5-30.6-31-32.6 30.3-29-30.6-34 30.5-29-30.6-32.8 30.5-31-30.5-30.7 31-31-30.7-32 30.4L67 222l-33.3 30-28.3-30v-24H507zm0 38l-34.5 30-30.2-30-32.8 30-30.7-30-32 29.6-27.2-29.6-36 29.6-29-29.6-32 30-31.4-30L160 290l-31-30.4-32 29.2-30.7-29.2L34 289.2 5.8 259.6v47.7h501.7z"/><circle cx="34.6" cy="219.2" r="8.6" stroke="#000" stroke-miterlimit="10"/><circle cx="65" cy="287.1" r="8.6" stroke="#000" stroke-miterlimit="10"/><circle cx="472" cy="219.2" r="8.6" stroke="#000" stroke-miterlimit="10"/><circle cx="442.8" cy="287.1" r="8.6" stroke="#000" stroke-miterlimit="10"/></svg>