<svg xmlns="http://www.w3.org/2000/svg" viewBox="0 0 512 512"><path fill="#FFF" stroke="#000" stroke-miterlimit="10" d="M30.2 28L476 30v13l-85 29.4-21.7 20.2-24.8 24.3-6 41 17.5 63 28 105 24.7 108 67.3 24v18H30.2V30z"/><path d="M48.2 48h413.2L391 72.4 344.6 117l-6 41.5 70.2 275.2 5.5 24.4h-366"/><path fill="#A22229" d="M60.8 61h363L391 72.4 355.5 132H400l-39.2 66 27 110.5 9.2 17.3 49 77.7h-36.4l15.2 36-16-5.8 1.2 5.8H60.8"/><path fill="#FFF" d="M468 45.2l-433.4 137L463.8 32.7m-36.6 416L37.4 304.4m387.2 151.4L37.4 304.4l392.4 137.3m-362.4-137l4 1 11 2.6 39.8 9.5c8 2 17 4 26.4 6.4l29.5 7.4c11 2.5 21 5.2 32 8l33 8.2 33 8.5 32 8.2 30 8 27 7 22 6.2 17 4.7 11 3.2 4 1-4-.8-11-2.6c-5-1-10.6-2.5-17.2-4l-22-5.5c-8-2-17-4-26.2-6.4l-30-7.3-31.3-8-32.6-8.3-32-8.5-32-8.2-29.4-8-26.7-7c-16.2-4.4-30-8.3-39.2-11l-11-3-4-1.2zM64.6 193l12.4-2.8 32.5-7.2 46-10c17-3.4 35-7.2 53-11l53-11 46.2-9.3c13.5-2.7 24.8-5 32.7-6.4l12.4-2.4-12.3 2c-8 1-19 4-32.6 7l-47 10-53 11-53 11-46 9c-14 3-25 5-33 6l-12 2zm0 22.8l12.3-1.5 32-4c13-1.4 29-3.3 46-5l52-6 52-5.5 46-4.6c13-1.4 24-2.4 32-3 8-1 12-1.3 12-1.3l-13 1-33 4-46 5-52.4 6-52.7 5-46 4-32 3-12 1z"/><path fill="#FFF" stroke="#FFF" stroke-miterlimit="10" d="M279.8 113.2l7 19 14.4-9.6z"/><path fill="#FFF" stroke="#000" stroke-miterlimit="10" d="M405.4 84.2l-8.8 12 4.4 13.2 17.4-5.3z"/><path fill="#FFF" stroke="#FFF" stroke-miterlimit="10" d="M387.2 344.7l-31.4 23.6 51.7 3.4z"/><ellipse cx="176.6" cy="191.2" fill="#FFF" stroke="#000" stroke-width="3" stroke-miterlimit="10" rx="55.8" ry="54.8"/><path fill="#FFF" stroke="#000" stroke-width="3" stroke-miterlimit="10" d="M84.8 138v47.8l32.4 48.8h8l3.3-5-30.7-43.3-.8-23.8s3.3-17.8 31.5-5.7l27.3-19s2.5-3.6 0-10c0 0-7.6-18-25.6-18.4 0 0-13.5-8-45.4 28.5z"/><ellipse cx="239.2" cy="362.7" fill="#FFF" stroke="#000" stroke-width="3" stroke-miterlimit="10" rx="55.8" ry="54.7"/><path fill="#FFF" stroke="#000" stroke-miterlimit="10" d="M341.8 183.8l89-9-89 14.6z"/><path fill="#FFF" stroke="#000" stroke-width="3" stroke-miterlimit="10" d="M147.3 310.8v48l32.4 48.6h8l3.3-5-30.6-43.3-1-23s3.5-18 31.6-5l27.3-19s2.6-3 0-10c0 0-7.5-18-25.6-18 0 0-13.4-8-45.4 29z"/><ellipse cx="371.6" cy="256" fill="#FFF" stroke="#000" stroke-width="3" stroke-miterlimit="10" rx="63.1" ry="61.9"/><path fill="#FFF" stroke="#000" stroke-width="3" stroke-miterlimit="10" d="M267.7 196.5v54.2l36.6 55h9l4-5.6-34.8-48-1-27s3.8-20 35.7-6l31-21s2.7-4 0-11c0 0-8.7-20-29-20 0 0-15.3-9-51.5 32.8z"/><path stroke="#000" stroke-miterlimit="10" d="M408.4 306.3c-36.4-12-35-52.5-35-52.5s-36.3 22.7-16.7 62.4l15 1.7 8-1-8-4c-6-2-3-6-3-6l3-4h-7c-4.3-4-2.6-8-2.6-8l5-5-7-2c-2-15 14-36 14-36s-11 17-7 23l2 9h6s6 3 2 8l-4 5 6-1s7 0 7 6l-3 6 7-2s8-1 8 5l5-3 7-4zm-10.2-63.5s7.6 7.6 7 18.5c0 0 6 4.5 10.2-5.3 0 0 1.3-8-17.2-13.2z"/></svg>