<svg xmlns="http://www.w3.org/2000/svg" viewBox="0 0 512 512"><path fill="#FFF" stroke="#000" stroke-miterlimit="10" d="M23.5 29.5h458.8v453H23.5z"/><path stroke="#000" stroke-miterlimit="10" d="M42 48h422v416H42z"/><path fill="#A22229" d="M59.6 66h386.6v379H59.6z"/><path fill="#FFF" stroke="#FFF" stroke-miterlimit="10" d="M428.5 255.6c0 94-76 167.6-172.5 167.6-96.4 0-173.5-73.4-173.5-167.4S159.5 82 256 82c96.4 0 172.5 79.6 172.5 173.6z"/><path fill="#A52329" d="M409.2 255.3c0 84.7-67.5 151-153 151-85.4 0-153.8-66-153.8-150.8s68.4-156.7 154-156.7c85.4 0 152.8 71.8 152.8 156.5z"/><path fill="#FFF" stroke="#FFF" stroke-miterlimit="10" d="M356.7 253.3c0 53.8-44 96-100 96s-101-42-101-96 45-99.4 101-99.4 100 45.2 100 99z"/><path stroke="#000" stroke-miterlimit="10" d="M302.5 253.3c0 26.5-20.5 47.2-46.5 47.2s-46.8-20.7-46.8-47.2c0-26.5 20.8-49 46.8-49 26 0 46.5 22.5 46.5 49z"/><path stroke="#000" stroke-miterlimit="10" d="M247 132.5h18.5V374H247z"/><path stroke="#000" stroke-miterlimit="10" d="M138.6 244.7H374V262H138.5z"/><path fill="#FFF" stroke="#000" stroke-miterlimit="10" d="M268.8 253.3c0 7.2-5.4 12.8-12.3 12.8-7 0-12.5-5.2-12.5-12.4s5.6-13.3 12.5-13.3c7 0 12.3 6 12.3 13.4z"/><path stroke="#000" stroke-miterlimit="10" d="M11.3 240h103.4v26H11.3zm386.5 0h102.5v26H397.8zm-157-228.5h30.6V114h-30.7zm0 380.2h30.6v102h-30.7z"/><path fill="#FFF" stroke="#000" stroke-miterlimit="10" d="M11.3 244.7H121V262H11.3zm380.2 0h108.8V262H391.5zM247 11.5h18.5V120H247zm0 373h18.5V494H247z"/></svg>