<svg xmlns="http://www.w3.org/2000/svg" viewBox="0 0 512 512"><path fill="#FFF" stroke="#000" stroke-miterlimit="10" d="M35.6 35.8h445.8v439H35.6z"/><path stroke="#000" stroke-miterlimit="10" d="M53.3 54.3h410v402.5h-410z"/><path fill="#952B43" d="M64.6 64.8h387v379.4h-387z"/><path stroke="#000" stroke-miterlimit="10" d="M206 395s-1 28.6 10.6 49.4 30.6 35 35 37c8.4 3.6 11 15.2 11 15.2 125 2.7 120-124 120-124-9-47.8 6.6-34.7 6.6-34.7s27 9 50.3 5c23.3-5 42.7-19 46-22 6-7 18-6 18-6C544.8 197 423 163 423 163s-34-3.4-27-14.2c0 0 17.7-22.8 20.6-46.3S412.3 56.2 410 52c-4.7-8 0-19 0-19-99.8-75.5-170 30-170 30-22.7 34.8-28.6 21-28.6 21s-16-23.7-37.5-34-46-10-50-9c-9 1.8-18-6-18-6C3 106 81 205.6 81 205.6c31 38.4 15 39.7 15 39.7s-27.5 8-43.7 25.2c-16.3 17.3-23.8 40-24.3 44.7-1 9.2-11 15.3-11 15.3 36 120 154.7 76 154.7 76s29.3-22.3 34-11.6z"/><path fill="#FFF" stroke="#000" stroke-miterlimit="10" d="M370.3 386.8c-6.8-3-60-17.2-48.3-59 11.5-41.7 70-21 70-21s-32-45.8 16.5-74.5C457 203.5 503 264 476.7 297c0 0 5.2 14.6 18 8.7 12.5-6 31-77.2-61.3-122.8h-.7c-5 5-35 51-71 28s1.7-73 1.7-73-53.5 16-66-39 59.7-80 82.8-45c0 0 15.5-1 13.8-14s-63.8-54-135.7 20l.6-1c3 6 38 49 4 76s-69-24-69-24-1 56-57 50c-56-5-58-81-17-92.5 0 0 4-15-10-17.6-13-2-70 45-22 136l-1-.4c7-1.3 58.3-21.2 74 19.4 15 40.8-44.7 58.4-44.7 58.4s52.7 18.3 30.4 70c-22 51.6-95 30-93-12.3 0 0-13-8.5-19.7 3.7-6.6 12 20.4 80 121.8 63v-1c1-7.2-2-62.2 41-64 43.7-2 42 60 42 60s34-44 76-7c43 37 0 99.6-40 85 0 0-12 9.2-3 19.4 10 10.4 83 5.7 98-96"/><circle cx="346.1" cy="88.4" r="23.5" fill="#952B43"/><circle cx="140.9" cy="111.9" r="23.5" fill="#952B43"/><circle cx="102.9" cy="318.6" r="23.5" fill="#952B43"/><circle cx="282.1" cy="417.8" r="23.5" fill="#952B43"/><circle cx="437.3" cy="274.9" r="23.5" fill="#952B43"/><ellipse cx="256.4" cy="242.1" stroke="#000" stroke-miterlimit="10" rx="76.3" ry="76.5"/><ellipse cx="256.4" cy="241.2" fill="#FFF" stroke="#000" stroke-miterlimit="10" rx="61.6" ry="60.4"/><ellipse cx="255.6" cy="242.1" fill="#952B43" rx="32.6" ry="32.8"/></svg>