<svg xmlns="http://www.w3.org/2000/svg" viewBox="0 0 512 512"><path fill="#FFF" stroke="#000" stroke-miterlimit="10" d="M29.8 35.8h452V482H30z"/><path stroke="#000" stroke-miterlimit="10" d="M48.2 54.3h415.5V463H48.2z"/><path fill="#F2C439" d="M65.7 71.6h380.7v374H65.7z"/><path stroke="#000" stroke-miterlimit="10" d="M537.7 181.2c8.3-15-74-13.4-74-13.4h-66l-142 103.8.3 17.6s54 7 81.3 37.4 130.7-18 200.4-145.4z"/><path fill="#FFF" stroke="#FFF" stroke-miterlimit="10" d="M270 277.4L399 182h56.4s58-2 67.2 6.4c0 0-113 164.7-177 127.7 0 0-29-29-75.5-38z"/><path stroke="#000" stroke-miterlimit="10" d="M326.4 253.5l70.7-53s111-21.4 34 79c0 0-30 35-72 23 0 0-61.5-23-32-49z"/><path fill="#FFF" stroke="#FFF" stroke-miterlimit="10" d="M398.7 304.7l-5-37-17.3 21-4-72.8 20.7-17 1 46 12-13v69z"/><path stroke="#000" stroke-miterlimit="10" d="M-26.2 181.3c-8.2-15 74-13.5 74-13.5h66l142 103.7-.2 17.6s-54 8-81.3 38S43.6 309-26.2 182z"/><path fill="#FFF" stroke="#FFF" stroke-miterlimit="10" d="M241.5 277.4l-129-95.3H56.2s-58-2-67.2 7c0 0 113 165 177 128 0 0 29-29 75.5-38.6z"/><path stroke="#000" stroke-miterlimit="10" d="M185.2 253.4l-70.7-53s-110.4-21.2-34 79c0 0 30.4 35 72.8 23.2 0 0 61.8-23 32-49.2z"/><path fill="#FFF" stroke="#FFF" stroke-miterlimit="10" d="M113 305l5-36.4 17.2 20.6 4-71.7-20.7-16.5-.5 45.7-12.2-13v68z"/></svg>