<svg xmlns="http://www.w3.org/2000/svg" viewBox="0 0 512 512"><path fill="#FFF" stroke="#000" stroke-miterlimit="10" d="M28.2 24.2h448.6v448.2H28.2z"/><path stroke="#000" stroke-miterlimit="10" d="M48 43.2h410.6V453H48z"/><path fill="#5E348A" d="M65.8 60.5h375V435h-375z"/><path fill="#FFF" stroke="#000" stroke-width="8" stroke-miterlimit="10" d="M8 440s261-10 344.3-93c0 0 91.3-102.4 0-193 0 0-88.5-94-196.5-7 0 0-96.8 101.3-148 293z"/><path fill="#FFF" stroke="#000" stroke-width="8" stroke-miterlimit="10" d="M284 89.2s118.6 24 131 159.3l89-199.3-220 40z"/><ellipse cx="250.2" cy="248.5" fill="#5E348A" stroke="#000" stroke-width="8" stroke-miterlimit="10" rx="75.3" ry="78.5"/><ellipse cx="250.6" cy="247.9" stroke="#FFF" stroke-width="9" stroke-miterlimit="10" rx="53.3" ry="55.6"/><path stroke="#000" stroke-width="3" stroke-miterlimit="10" d="M106 431c33.4-192 91-241.4 91-241.4s-55.3 44-45.6 234.6l-45.4 7z"/><path stroke="#000" stroke-width="2" stroke-miterlimit="10" d="M418.6 64.7s3 48.8-16 100c0 0 26.3-16 38.8-104.2l-22.8 4.2z"/></svg>