<svg xmlns="http://www.w3.org/2000/svg" viewBox="0 0 512 512"><path fill="#FFF" stroke="#000" stroke-miterlimit="10" d="M481.4 482H30.2V374.5l17-23.6 10-144-27-70V35.4h451.2v102l-22 69.4 3 139 19 33z"/><path stroke="#000" stroke-miterlimit="10" d="M47.8 54.3h414.7V463H47.8z"/><path fill="#F2C439" d="M65.5 66.5h379.8V451H65.5z"/><path fill="#FFF" stroke="#000" stroke-width="2" stroke-miterlimit="10" d="M255.7 0s-75.5 100-233 131.6c0 0 53.7 115.6 0 254.2 0 0 137.3 19.6 233 126.2C351.7 405.4 489 385.8 489 385.8c-53.8-138.6 0-254.2 0-254.2C331.4 100 256 0 256 0h-.3z"/><path fill="#F2C439" stroke="#000" stroke-width="2" stroke-miterlimit="10" d="M406.2 168.6C327.7 145 265.2 90 265.2 90V42.6s67 80.2 186 102l-45 24zm3.8 162.2c-12.6-72.3 0-147.4 0-147.4l47-27.4s-32.7 89.5 0 206.3l-47-31.5zm-7.6 15.2c-102 31.4-137.3 76-137.3 76v54.2s55-74.7 186.4-101.6l-49-28.6zM265 168.6s24.8 22 72 38.2l42.3-25.6c-62.6-15-114.2-60.5-114.2-60.5v48zm0 24.4s17.3 19 46.7 28.6L265 246.8V193zm81 27s-8.7 42 0 77.2l41.7 25.2c-12-55.5 0-129.4 0-129.4L346 220zm-74.2 39.2l45.4-26s-3.8 28.3 0 52.2l-45.4-26.2zm-6.8 90s40-32.7 72-40l42.3 24c-59.2 14.4-114.2 63-114.2 63v-47zm46.7-54.2c-22.7 6.4-46.6 30-46.6 30v-54.3l47 24.3zM105.4 168.6C184 145 246.6 90 246.6 90V42.6s-67.2 80.2-186 102l44.8 24zm-3.8 162.2c12.7-72.3 0-147.4 0-147.4l-47-27.4s32.8 89.5 0 206.3l47-31.5zm7.6 15.2c102 31.4 137.4 76 137.4 76v54.2s-55-74.7-186-101.6L109 346zm137.4-177.4s-24.8 22-71.8 38.2l-42.5-25.6c62.6-15 114.3-60.5 114.3-60.5v48zm0 24.4s-17.2 19-46.6 28.5l46.6 25.3V193zm-81 27s8.7 42 0 77.2L124 322.4c12-55.5 0-129.4 0-129.4l41.5 27zm74.4 39.2l-45.5-26s3.8 28.3 0 52.2l45.4-26.2zm6.6 90s-40-32.7-72-40l-42.3 24c59.2 14.4 114.3 63 114.3 63v-47zM200 295c22.6 6.4 46.6 30 46.6 30v-54.3L200 295z"/></svg>