<svg xmlns="http://www.w3.org/2000/svg" viewBox="0 0 512 512"><path fill="#FFF" stroke="#000" stroke-miterlimit="10" d="M30.2 30h452v445.4h-452z"/><path stroke="#000" stroke-miterlimit="10" d="M47.8 47.6h415.5v410H47.8z"/><path fill="#A22229" d="M65 64.8h382.4V440H65z"/><path stroke="#000" stroke-miterlimit="10" d="M391.5 120.8c0 16.4-5.4 29.7-12 29.7h-247c-6.6 0-12-13.3-12-29.7V35.4c0-16.5 5.4-29.8 12-29.8h247c6.6 0 12 13.3 12 29.8v85.4z"/><path fill="#FFF" stroke="#000" stroke-miterlimit="10" d="M386.5 66.3c0 6.6-5.4 12-12 12h-236c-6.7 0-12-5.4-12-12V24c0-6.7 5.3-12 12-12h236c6.6 0 12 5.3 12 12v42.3zm0 65.5c0 6.7-5.4 12-12 12h-236c-6.7 0-12-5.3-12-12V96.2c0-6.7 5.3-12 12-12h236c6.6 0 12 5.3 12 12v35.6z"/><path stroke="#000" stroke-miterlimit="10" d="M223.5 5.6H289v145h-65.5z"/><path stroke="#000" stroke-miterlimit="10" d="M138.6 30H373v17.6H138.7zm0 66.3H373V114H138.7z"/><path fill="#FFF" stroke="#000" stroke-miterlimit="10" d="M386.5 35.8s35.3 11.8 35.7 45c0 0 1.7 32-35.7 40.5v-13c23.8-6 22.8-29 22.8-29-.3-23.7-22.8-32-22.8-32V35.7z"/><path fill="#FFF" stroke="#000" stroke-width="2" stroke-miterlimit="10" d="M246.6 246.8h19v147.5h-19z"/><path fill="#FFF" stroke="#000" stroke-width="2" stroke-miterlimit="10" d="M247.2 378.7c-37.8 46.6-62.8-5.5-62.8-5.5s-2-8.4 14.5-7c0 0-16-12-12-52.6 0 0-53 65 16 106.3 0 0 32 14 53-17 21 30.6 54 15 54 15 69-41 15-105 15-105 4 41-11.8 52.5-11.8 52.5 16.5-1 14.3 7 14.3 7s-24.8 52.4-62.6 6h-18z"/><ellipse cx="256" cy="235.6" fill="#FFF" stroke="#000" stroke-width="4" stroke-miterlimit="10" rx="22.1" ry="25.4"/><path fill="#FFF" stroke="#000" stroke-width="2" stroke-miterlimit="10" d="M251.6 146.8h9.7v69h-9.7z"/><path fill="#FFF" stroke="#FFF" stroke-miterlimit="10" d="M228.5 7.7H283V148h-54.5z"/><ellipse cx="256" cy="235.6" fill="#FFF" rx="22.1" ry="25.4"/><ellipse cx="256.4" cy="231.6" stroke="#000" stroke-miterlimit="10" rx="4.8" ry="9.2"/><path fill="#FFF" d="M247.6 253h17v151h-17z"/></svg>