<svg xmlns="http://www.w3.org/2000/svg" viewBox="0 0 512 512"><path fill="#FFF" stroke="#000" stroke-miterlimit="10" d="M59.5 58.5h410v410h-410z"/><path stroke="#F00" stroke-miterlimit="10" d="M76.5 75.5h375v375h-375z"/><path fill="#B24B1D" d="M93 93h342v341H93z"/><path stroke="#000" stroke-miterlimit="10" d="M210 234.3l-24.8-159 78.4 143zM314 258l137.5 117.2-161.3-49.5z"/><path stroke="#000" stroke-miterlimit="10" d="M346 508l-53-236.7-59 47z"/><path fill="#FFF" d="M195.6 105.8l24.2 125.6 32.7-9.8"/><path fill="#B24B1D" d="M234 214.4L218.4 225l-20.2-105.4"/><path fill="#FFF" d="M404.5 351L371 324l8-4.8-23.6-6-46.8-40-15.5 44.2L398 349"/><path fill="#B24B1D" d="M364 327.7l7-3.8 8-5-26.7 2-50.3-29-9 25 104.4 32"/><path fill="#FFF" d="M330.2 464.7l-48.5-184.3-35 27.7 69.5 131"/><path fill="#B24B1D" d="M281.3 344h9l-13.8-59.3-29.7 23.6 69.4 130.5"/><path stroke="#000" stroke-miterlimit="10" d="M236 221.5l-117.3-42.7-22.4-50.3-3 40-93-28.2L129 247.6l-22.5 36.8 45-17.5 29 22-43 63H89.8l32 22-77.4 113 154-108 13.6 28 10-46 71.2-53 4.3-3 60.5-78 33.4 21.7-16-45 65-85 49-11L458 91l54.3-78-130 95.3-37-17.3 14.5 35z"/><path fill="#FFF" d="M491.6 34l-107.4 85.5-20.8-9L377 134l-6 6-4.4-4.8L239 236.7v48.5l54.5 6.8 61.2-79 14 8.5L365 200l75.3-98-.4 11.2 25-7.4-19-10.3"/><path fill="#B24B1D" d="M359.8 207.8l5-7.7 75.5-98-.4 12 6-17.3 29-40-233 230 50 6.2 61.5-79 14 8.4"/><path fill="#FFF" d="M25.4 155L89 178.4V189h8l5-24.2 9.8 23.5 119 46.2 5.2 50.7-40.4-.7-45.4-34 .5 6-20 7.2 11-21"/><path fill="#B24B1D" d="M225.4 268l-29.8 16.4-45.4-33.8.5 6-20 7 16.5-15.3-5.3-5.6-105-79"/><path fill="#FFF" d="M237 286.5l-40 8-49 66.5h-26l18.3 16.3-4 4.7H131l-55.4 73L194 367.6l-5-11.4 6.5-3.5 13 26 3.8-26 70.3-52.4"/><path fill="#B24B1D" d="M240.4 298.8L87 446.5l107.2-79-5-11.4 6.4-3 7.6 15 .6-14 8.6-.2 70.3-52.3m-142.4 77l3.2-5-14-4"/></svg>