<?xml version="1.0" encoding="utf-8"?>
<!-- Generator: Adobe Illustrator 16.0.0, SVG Export Plug-In . SVG Version: 6.00 Build 0)  -->
<!DOCTYPE svg PUBLIC "-//W3C//DTD SVG 1.1//EN" "http://www.w3.org/Graphics/SVG/1.1/DTD/svg11.dtd">
<svg version="1.1" id="Layer_2" xmlns="http://www.w3.org/2000/svg" xmlns:xlink="http://www.w3.org/1999/xlink" x="0px" y="0px"
	 width="512px" height="512px" viewBox="0 0 512 512" enable-background="new 0 0 512 512" xml:space="preserve">
<g>
	<rect x="60.5" y="46.5" fill="#FFFFFF" stroke="#000000" stroke-miterlimit="10" width="408" height="406"/>
	<rect x="79.5" y="64.5" stroke="#000000" stroke-miterlimit="10" width="370" height="370"/>
	<rect x="96" y="80" fill="#B24B1D" width="337" height="337"/>
	<polygon stroke="#000000" stroke-miterlimit="10" points="210.807,220.995 186.189,64.149 263.618,205.066 	"/>
	<polygon stroke="#000000" stroke-miterlimit="10" points="313.253,244.421 449.053,359.97 289.825,311.13 	"/>
	<polygon stroke="#000000" stroke-miterlimit="10" points="344.812,490.966 292.604,257.525 234.234,303.982 	"/>
	<polygon fill="#FFFFFF" points="196.512,94.128 220.328,218.123 252.608,208.387 	"/>
	<polygon fill="#FFFFFF" points="402.594,336.146 369.439,309.343 377.379,304.778 354.15,298.821 308.009,259.354 292.696,302.953 
		395.568,334.023 	"/>
	<polygon fill="#FFFFFF" points="329.334,448.319 281.421,266.427 246.996,293.824 315.503,422.368 	"/>
	<polygon stroke="#000000" stroke-miterlimit="10" points="236.418,208.288 120.571,166.198 98.434,116.563 95.655,156.125 
		3.534,128.078 130.591,234.098 108.358,270.431 152.832,253.157 181.423,275.077 138.937,337.5 92.082,337.5 123.742,359.654 
		47.212,470.994 199.127,364.656 212.792,391.696 222.322,346.38 292.696,294.045 296.857,291.098 356.534,214.241 389.491,235.686 
		373.608,191.61 437.934,107.745 486.377,97.503 455.405,80.033 509.01,3 380.755,97.107 344.133,80.033 358.519,114.578 	"/>
	<polygon fill="#FFFFFF" points="488.562,23.151 382.642,107.695 362.044,98.67 375.568,122.11 369.426,127.675 364.867,122.914 
		239,223.377 239,271.158 292.896,277.892 353.456,199.949 367.305,208.288 363.606,187.243 437.947,90.356 437.543,101.475 
		462.556,94.128 443.891,84.003 	"/>
	<polygon fill="#FFFFFF" points="28.34,142.771 91,165.668 91,176 99.229,176 103.994,152.238 113.788,175.498 231.323,221.078 
		236.352,271.176 196.512,270.452 151.643,237.086 152.172,242.971 132.517,249.984 143.265,229.203 	"/>
	<polygon fill="#FFFFFF" points="237.279,272.482 197.787,280.504 149.525,346 123.847,346 141.848,361.756 137.878,366 
		132.583,366 78.184,438.361 195.056,352.31 190.027,341.183 196.512,337.736 209.351,363.411 213.057,337.733 282.413,286.113 	"/>
</g>
</svg>
