<?xml version="1.0" encoding="iso-8859-1"?>
<!-- Generator: Adobe Illustrator 21.0.2, SVG Export Plug-In . SVG Version: 6.00 Build 0)  -->
<svg version="1.1" xmlns="http://www.w3.org/2000/svg" xmlns:xlink="http://www.w3.org/1999/xlink" x="0px" y="0px"
	 viewBox="0 0 300 300" style="enable-background:new 0 0 300 300;" xml:space="preserve">
<g id="IconGuides">
</g>
<g id="Lion">
	<g id="Background_2_">
		
			<radialGradient id="SVGID_1_" cx="162.3306" cy="153.2709" r="103.4491" gradientTransform="matrix(1 0 0 4 0 -459.8128)" gradientUnits="userSpaceOnUse">
			<stop  offset="0.0223" style="stop-color:#FEF0D5"/>
			<stop  offset="0.204" style="stop-color:#FDDC9D"/>
			<stop  offset="0.3799" style="stop-color:#FDCC6F"/>
			<stop  offset="0.547" style="stop-color:#FDBF4C"/>
			<stop  offset="0.7029" style="stop-color:#FCB632"/>
			<stop  offset="0.8435" style="stop-color:#FCB022"/>
			<stop  offset="0.9554" style="stop-color:#FCAE1D"/>
		</radialGradient>
		<polygon style="fill:url(#SVGID_1_);" points="245.958,108.984 245.958,87.1 245.958,54.25 54.636,54.25 54.636,245.572 
			196.045,245.572 252.2,252.292 239.446,204.094 267.531,171.103 255.254,143.754 270.025,114.898 245.958,119.675 		"/>
		<g>
			<image style="overflow:visible;" width="179" height="229" xlink:href="53BF539.png"  transform="matrix(1 0 0 1 137 69)">
			</image>
			<g>
				<polygon style="fill:#FFFFFF;" points="270.025,114.898 216.757,160.678 267.531,171.103 212.709,181.895 252.2,252.292 
					203.018,206.913 182.514,207.32 185.023,142.882 195.662,147.065 197.381,138.814 				"/>
			</g>
		</g>
		<path style="fill:#231F20;" d="M265.16,143.794l17.768-38.128l-27.673,4.004l0-63.761H47.253v208.002h147.231
			c10.731,0.745,21.802,1.706,33.188,2.918c12.367,1.317,24.312,2.847,35.812,4.538l-14.717-54.944l28.944-33.972L265.16,143.794z
			 M252.2,252.292l-56.155-6.72H54.636V54.25h191.323V87.1v21.883v10.691l24.067-4.777l-14.771,28.856l12.277,27.349l-28.085,32.991
			L252.2,252.292z"/>
		<path style="fill:#FFFFFF;" d="M271.701,144.244l20.049-45.868l-26.17,3.901v-67.65H35.012v230.568H194.19
			c11.976,0.89,24.286,1.628,36.915,2.182c13.817,0.607,27.642,2.189,40.717,2.33c-5.437-20.4-11.242-42.026-16.679-62.425
			l30.17-34.463L271.701,144.244z M263.483,261.368c-11.5-1.691-23.444-3.221-35.812-4.538c-11.386-1.213-22.456-2.173-33.188-2.918
			H47.253V45.91h208.001l0,63.761l27.673-4.004l-17.768,38.128l12.55,28.657l-28.944,33.972L263.483,261.368z"/>
	</g>
	<g id="Head">
		<polygon style="fill:#FCAE1D;" points="54.636,50.995 130.334,13.875 167.454,58.19 191.002,61.787 193.455,73.561 
			242.348,88.442 232.7,108.228 239.405,117.876 234.172,124.907 213.077,129.813 193.455,144.367 177.609,200.863 207.354,219.097 
			166.351,247.387 162.331,234.141 113.492,227.437 90.312,246.61 54.132,246.61 		"/>
		<polygon style="fill:#242021;" points="161.69,72.498 192.964,89.913 148.24,87.706 		"/>
		<polygon style="fill:#FFFFFF;" points="159.278,79.448 170.602,88.81 173.087,88.932 177.92,83.536 		"/>
		<linearGradient id="SVGID_2_" gradientUnits="userSpaceOnUse" x1="58.754" y1="70.5555" x2="128.7062" y2="30.1686">
			<stop  offset="0" style="stop-color:#F9D125"/>
			<stop  offset="1" style="stop-color:#FCB21C"/>
		</linearGradient>
		<path style="fill:url(#SVGID_2_);" d="M54.636,53.284c6.955-4.55,22.243-13.196,43.531-14.553
			c17.708-1.129,31.629,3.294,39.118,6.295c-8.203,2.153-13.136,4.47-21.34,6.623L54.636,63.423V53.284z"/>
		<linearGradient id="SVGID_3_" gradientUnits="userSpaceOnUse" x1="49.9896" y1="103.6146" x2="129.1043" y2="57.9376">
			<stop  offset="0" style="stop-color:#F9D125"/>
			<stop  offset="1" style="stop-color:#FCB21C"/>
		</linearGradient>
		<polygon style="fill:url(#SVGID_3_);" points="54.636,111.662 54.636,89.913 130.784,60.847 84.875,94.492 		"/>
		<linearGradient id="SVGID_4_" gradientUnits="userSpaceOnUse" x1="39.4273" y1="204.809" x2="156.1307" y2="137.4302">
			<stop  offset="0" style="stop-color:#F9D125"/>
			<stop  offset="1" style="stop-color:#FCB21C"/>
		</linearGradient>
		<path style="fill:url(#SVGID_4_);" d="M54.132,230.279v-30.723l86.177-89.529L69.994,223.676
			c-1.953,1.199-4.257,2.447-6.909,3.598C59.803,228.698,56.755,229.642,54.132,230.279z"/>
		<path style="fill:#231F20;" d="M47.253,45.91c4.273-3.12,8.903-6.194,13.911-9.142c24.985-14.703,49.778-20.586,69.17-22.893
			c5.901,4.751,12.599,10.885,19.296,18.642c7.96,9.219,13.71,18.172,17.824,25.673c7.522,1.036,16.025,2.562,23.547,3.598
			l2.453,11.774l48.894,14.881l-9.648,19.786l6.704,9.648l-5.233,7.032c0.192,2.86,0.187,8.575-2.661,14.916
			c-2.389,5.32-6.884,10.516-8.95,12.344c0.04-2.65,0.942-12.052-4.579-18.266c-1.628-1.832-3.366-3.147-4.906-4.088
			c-5.263,4.784-14.351,14.31-20.43,29.178c-6.48,15.848-6.312,29.868-5.733,37.049c2.193-0.453,5.252-1.355,8.503-3.27
			c4.984-2.937,7.883-6.761,9.321-8.994c0.913,3.043,2.41,9.593,0.393,17.381c-1.236,4.774-3.358,8.333-4.972,10.581
			c2.398,2.453,4.797,4.906,7.195,7.359c-2.677,4.323-7.673,11.171-16.025,17.17c-7.654,5.497-20.219,9.87-24.978,11.12
			c-6.813,0-9.375-0.858-16.189-0.858l12.169-12.387c-7.446-0.291-15.592-0.939-24.311-2.126
			c-8.929-1.216-17.132-2.818-24.529-4.579c-3.204,3.64-7.253,7.675-12.272,11.644c-3.239,2.562-9.497,6.916-11.337,7.999
			c-1.84,1.083-24.185,0.307-36.609,0.307v-16.925c2.229-0.431,5.966-1.544,8.871-2.698c3.199-1.271,5.82-2.753,7.849-4.088
			c23.438-37.883,46.877-75.766,70.315-113.649l-38.101,97.133c10.049,4.782,23.738,10.099,40.554,13.409
			c15.373,3.026,28.895,3.495,39.409,3.107c-2.889,4.143-5.778,8.285-8.667,12.428c3.299-1.27,8.084-3.561,12.918-7.686
			c4.146-3.537,6.91-7.215,8.667-9.975c-4.388-2.927-18.914-13.402-24.856-33.359c-7.693-25.841,5.119-47.054,7.195-50.365
			c-14.663,11.556-29.325,23.111-43.988,34.667l26.164-50.365l34.831-2.78c-0.686,0.585-7.887,6.941-6.868,16.516
			c0.684,6.431,4.667,10.463,5.887,11.61c1.059-3.134,4.506-11.986,13.768-18.596c10.229-7.3,20.862-7.091,24.006-6.914
			c-2.124-3.056-4.613-6.312-7.522-9.648c-4.1-4.702-8.188-8.593-11.937-11.774c5.124,1.581,10.247,3.161,15.371,4.742l4.742-8.994
			l-44.642-12.428l-2.289-10.138l-24.856-3.434c-2.892-5.368-6.458-11.207-10.859-17.241c-7.485-10.264-15.31-18.251-22.173-24.294
			c-11.628,2.426-25.204,6.139-39.9,11.937c-12.544,4.95-23.403,10.432-32.528,15.698c0,3.38,0,6.759,0,10.138
			c5.908-3.435,14.153-7.381,24.516-9.975c15.362-3.846,28.534-3.007,36.793-1.799c-8.429,2.131-17.54,4.85-27.145,8.34
			c-12.912,4.692-24.317,9.905-34.164,15.044c0,12.21,0,24.42,0,36.629l30.239-17.17l-30.239,40.063h-6.881L47.253,45.91z"/>
		<linearGradient id="SVGID_5_" gradientUnits="userSpaceOnUse" x1="111.6213" y1="172.5687" x2="170.7962" y2="138.4041">
			<stop  offset="0" style="stop-color:#F9D125"/>
			<stop  offset="0.4613" style="stop-color:#F9CF24"/>
			<stop  offset="0.7205" style="stop-color:#FAC622"/>
			<stop  offset="0.929" style="stop-color:#FBB91E"/>
			<stop  offset="1" style="stop-color:#FCB21C"/>
		</linearGradient>
		<polygon style="fill:url(#SVGID_5_);" points="133.441,169.386 122.812,191.952 136.548,145.348 159.605,119.021 		"/>
		<linearGradient id="SVGID_6_" gradientUnits="userSpaceOnUse" x1="221.6317" y1="107.6864" x2="170.6124" y2="56.6671">
			<stop  offset="0" style="stop-color:#F9D125"/>
			<stop  offset="0.3828" style="stop-color:#F9CE24"/>
			<stop  offset="0.7021" style="stop-color:#FAC321"/>
			<stop  offset="0.9984" style="stop-color:#FCB21C"/>
			<stop  offset="1" style="stop-color:#FCB21C"/>
		</linearGradient>
		<polygon style="fill:url(#SVGID_6_);" points="227.14,102.178 192.964,89.913 161.69,72.498 160.096,67.184 184.951,70.618 
			187.241,80.756 231.883,93.184 		"/>
		<path style="fill:#FFFFFF;" d="M218.31,126.788c1.881-0.064,4.064-0.267,6.459-0.736c1.857-0.363,3.525-0.824,4.987-1.308
			c0.305,2.364,0.485,6.018-0.491,10.302c-0.836,3.67-2.227,6.516-3.352,8.421c-0.035-2.137-0.391-6.072-2.616-10.302
			C221.703,130.134,219.728,128.056,218.31,126.788z"/>
		<path style="fill:#FFFFFF;" d="M189.121,200.885c0.634,1.187,1.638,2.762,3.189,4.333c1.348,1.367,2.695,2.31,3.761,2.943
			c1.163-1.215,2.814-3.246,4.006-6.153c1.616-3.941,1.555-7.457,1.39-9.3c-1.514,1.666-3.745,3.751-6.817,5.59
			C192.638,199.504,190.735,200.322,189.121,200.885z"/>
	</g>
</g>
</svg>
