<svg xmlns="http://www.w3.org/2000/svg" viewBox="0 0 512 512"><path fill="#FFF" stroke="#000" stroke-miterlimit="10" d="M22.2 23.7h469v469.7H22z"/><path stroke="#000" stroke-miterlimit="10" d="M43.6 43.8H470v431.5H43.7z"/><path fill="#5C2E88" d="M59.2 60.6h394v399.2h-394z"/><path stroke="#000" stroke-width="3" stroke-miterlimit="10" d="M22.2 143.4h469V371H22z"/><path fill="#FFF" stroke="#000" stroke-width="3" stroke-miterlimit="10" d="M-19.4 155.6h551.7v204.2H-19.4z"/><path stroke="#000" stroke-miterlimit="10" d="M-6.4 168.2H520v179.4H-6.3z"/><circle cx="59.2" cy="143.4" r="14.7" fill="#FFF" stroke="#000" stroke-width="5" stroke-miterlimit="10"/><circle cx="256" cy="143.4" r="14.7" fill="#FFF" stroke="#000" stroke-width="5" stroke-miterlimit="10"/><circle cx="455.4" cy="143.4" r="14.7" fill="#FFF" stroke="#000" stroke-width="5" stroke-miterlimit="10"/><circle cx="59.2" cy="371.1" r="14.7" fill="#FFF" stroke="#000" stroke-width="5" stroke-miterlimit="10"/><circle cx="256" cy="371.1" r="14.7" fill="#FFF" stroke="#000" stroke-width="5" stroke-miterlimit="10"/><circle cx="455.4" cy="371.1" r="14.7" fill="#FFF" stroke="#000" stroke-width="5" stroke-miterlimit="10"/><path fill="#FFF" stroke="#000" stroke-miterlimit="10" d="M171.4 181.2l-66 79-25.2 33.2-36.6 42h127.8l121.8-154.2zm166.8 0L213 335.4h62.6l121-154.2zm102.5 0L316.3 335.4H345l125-154.2z"/></svg>