<svg xmlns="http://www.w3.org/2000/svg" viewBox="0 0 512 512"><path fill="#FFF" stroke="#000" stroke-miterlimit="10" d="M29.8 29h451.7v446.7H29.8z"/><path stroke="#000" stroke-miterlimit="10" d="M48.2 48h415.5v409.7H48.2z"/><path fill="#406181" d="M66 65.7h379.7v373.5H66z"/><path fill="#FFF" stroke="#000" stroke-miterlimit="10" d="M256.5 6s60.3 41.6 170.8 48.3V109s7.5 287-171.3 325.2C77.2 396 84.8 109 84.8 109V54.2C195.3 47.6 255.6 6 255.6 6h1z"/><path stroke="#000" stroke-miterlimit="10" d="M256.6 17.6S313 56.8 416.2 63.2v51.4s7 270.5-160 306.5C89 385 96 115 96 115V63.2c103.2-6.4 159.6-45.6 159.6-45.6h.8z"/><path fill="#FFF" stroke="#000" stroke-miterlimit="10" d="M256.3 29s54 37.3 153 43.3v49S416 377.6 256 411.8C95.7 377.6 102.5 121 102.5 121V72.4c99-6 153-43.2 153-43.2h.7z"/><path stroke="#000" stroke-miterlimit="10" d="M255.8 325.3l-9.2-198.6h19z"/><path stroke="#000" stroke-miterlimit="10" d="M318.4 127c0 6.7 1.3 5.5-5.4 5.5H198.6c-6.7 0-5.4 1.2-5.4-5.4V96c0-6.6-1.3-5.3 5.4-5.3H313c6.7 0 5.4-1.3 5.4 5.3v31z"/><path fill="#FFF" stroke="#000" stroke-miterlimit="10" d="M313.4 122.7c0 4.8 1 4-5 4H203.6c-6 0-5 .8-5-4v-22.5c0-4.8-1-4 5-4h104.8c6 0 5-.8 5 4v22.5z"/><path stroke="#000" stroke-miterlimit="10" d="M301.2 113.7c0 1 1 .7-4 .7h-82.5c-4.8 0-4 .2-4-.7v-4.5c0-1-.8-.7 4-.7h82.6c4.8 0 4-.2 4 .7v4.5z"/><circle cx="123.5" cy="93.4" r="11.8" stroke="#000" stroke-miterlimit="10"/><circle cx="123.5" cy="93.4" r="8" fill="#FFF" stroke="#000" stroke-miterlimit="10"/><circle cx="388.2" cy="93.4" r="11.8" stroke="#000" stroke-miterlimit="10"/><circle cx="388.2" cy="93.4" r="8" fill="#FFF" stroke="#000" stroke-miterlimit="10"/><circle cx="255.6" cy="51.4" r="11.8" stroke="#000" stroke-miterlimit="10"/><circle cx="255.6" cy="51.4" r="8" fill="#FFF" stroke="#000" stroke-miterlimit="10"/><circle cx="255.6" cy="389.2" r="11.8" stroke="#000" stroke-miterlimit="10"/><circle cx="255.6" cy="389.2" r="8" fill="#FFF" stroke="#000" stroke-miterlimit="10"/><circle cx="129.3" cy="177" r="11.8" stroke="#000" stroke-miterlimit="10"/><circle cx="129.3" cy="177" r="8" fill="#FFF" stroke="#000" stroke-miterlimit="10"/><circle cx="382.3" cy="177" r="11.8" stroke="#000" stroke-miterlimit="10"/><circle cx="382.3" cy="177" r="8" fill="#FFF" stroke="#000" stroke-miterlimit="10"/><circle cx="137.3" cy="263.4" r="11.8" stroke="#000" stroke-miterlimit="10"/><circle cx="137.3" cy="263.4" r="8" fill="#FFF" stroke="#000" stroke-miterlimit="10"/><circle cx="374.3" cy="263.4" r="11.8" stroke="#000" stroke-miterlimit="10"/><circle cx="374.3" cy="263.4" r="8" fill="#FFF" stroke="#000" stroke-miterlimit="10"/><circle cx="181.3" cy="337.1" r="11.8" stroke="#000" stroke-miterlimit="10"/><circle cx="181.3" cy="337.1" r="8" fill="#FFF" stroke="#000" stroke-miterlimit="10"/><circle cx="330.3" cy="337.1" r="11.8" stroke="#000" stroke-miterlimit="10"/><circle cx="330.3" cy="337.1" r="8" fill="#FFF" stroke="#000" stroke-miterlimit="10"/></svg>