<svg xmlns="http://www.w3.org/2000/svg" viewBox="0 0 512 512"><path fill="#FFF" stroke="#000" stroke-miterlimit="10" d="M463.8 422l23 60H42l-17-59.6-19-.4-6-36.6v-48.7l11.3-5.5v-24l43.2-96.6 11.4-.4 6-44.5-5.7-38.7H42L11.2 35.4H457l24.4 91.2 22-.3 8.6 38-7 46.8h-11l-42.8 104.7.4 16.8-11.3-.4v33l12.7 57z"/><path stroke="#000" stroke-miterlimit="10" d="M457 463.6H54L42.5 422l-11.8-.4L18 372.8v-36l12.6-5.6v-24l42-90.7H84l6.5-49.6-3.6-40H61L42 54h403.3l19 72.6h23.4l6.3 38.2-6.3 46.7h-10.5l-42.8 103.3V332h-11.8v33.3L432 422l13.7.4z"/><path fill="#8F707A" d="M434 452.2H66l-8.5-29.4H48l-12-49v-37l12.2-5.2-.4-23.5 41.7-86 11.3.8L109 168l-5.7-41H84L66 66h368l12.6 60.6H470l6.4 36-7.6 49h-9.6L416 310l.3 22.3-11.8-.4-.2 31.2L415 422l12.2.4"/><path stroke="#000" stroke-miterlimit="10" d="M246.6 100c65-.3 84.5 50.6 84.5 50.6 5 .8 12.6 6.7 12.6 6.7 52 61.3-.4 114.3-.4 114.3l.4 18.5c44.6 4.7 46.7 53 46.7 53-1.7 91-69 85-69 85-14.7 5-54.2-30.4-54.2-30.4l-20 12.6-20.2-12.6S187 433 172.2 428c0 0-67.2 5.7-69-85 0 0 2.2-48.8 46.7-53v-18.4s-52.6-53-.5-114.3c0 0 7-6 12-6.8 0 0 19.4-50.8 84.6-50.4z"/><path fill="#FFF" stroke="#000" stroke-miterlimit="10" d="M246.6 403.2l20.6-17.2 26 17.2c-11.3-79 51.3-100 51.3-100-4.2-11-8-8.4-8-8.4v-30.4c26-23.3 24-53.6 24-53.6-4.3-51.7-36.2-54.6-36.2-54.6-24.8-54.2-77.7-47-77.7-47v-.3s-53-7.6-77.8 47c0 0-32 3-36 54.2 0 0-2.2 30.3 23.8 53.6v30.5s-3.7-2.6-8 8.4c0 0 62.7 21 51.3 100l26-17.3 20.2 17.3v.4z"/><ellipse cx="153.9" cy="365.3" fill="#FFF" stroke="#000" stroke-miterlimit="10" transform="rotate(-23.336 153.94 365.3)" rx="38.2" ry="59.5"/><ellipse cx="338.3" cy="365.3" fill="#FFF" stroke="#000" stroke-miterlimit="10" transform="rotate(-156.67 338.3 365.294)" rx="38.2" ry="59.5"/><path stroke="#000" stroke-miterlimit="10" d="M202.8 341l75-75 15.8 15.8-75 75z"/><path stroke="#000" stroke-miterlimit="10" d="M277.8 356.7l-75-75 15.8-15.7 75 75zM248.2 202s39-31 66.2-29.7c0 0 27.6-5.7 33.7 38.2 0 0 2 39.2-26 48.7 0 0-11 6-37.4-.5 0 0-18.7-7.5-26.8-19.3 0 0-4.6-3.3-9.2-3.3H247c-4.7 0-9.3 3.8-9.3 3.8-8.2 11.8-27 19.3-27 19.3-26.7 6.4-37.7.5-37.7.5-27.7-9.5-26-48.7-26-48.7 6-44 33.6-38.2 33.6-38.2 27.3-1.2 66.2 29.7 66.2 29.7h1.6z"/></svg>