<?xml version="1.0" encoding="iso-8859-1"?>
<!-- Generator: Adobe Illustrator 21.0.2, SVG Export Plug-In . SVG Version: 6.00 Build 0)  -->
<svg version="1.1" id="Layer_1" xmlns="http://www.w3.org/2000/svg" xmlns:xlink="http://www.w3.org/1999/xlink" x="0px" y="0px"
	 viewBox="0 0 512 512" style="enable-background:new 0 0 512 512;" xml:space="preserve">
<path style="fill:#FFFFFF;stroke:#000000;stroke-miterlimit:10;" d="M463.8,422l23,60H42l-17-59.6L6,422l-6-36.6v-48.7l11.3-5.5v-24
	l43.2-96.6l11.4-0.4l6-44.5L66.2,127H42L11.2,35.4H457l24.4,91.2l22-0.3l8.6,38l-7,46.8h-11l-42.8,104.7l0.4,16.8l-11.3-0.4v33
	l12.7,57L463.8,422z"/>
<path style="stroke:#000000;stroke-miterlimit:10;" d="M457,463.6H54L42.5,422l-11.8-0.4L18,372.8v-36l12.6-5.6v-24l42-90.7H84
	l6.5-49.6l-3.6-40H61L42,54h403.3l19,72.6h23.4l6.3,38.2l-6.3,46.7h-10.5l-42.8,103.3V332h-11.8v33.3L432,422l13.7,0.4L457,463.6z"
	/>
<path style="fill:#8F707A;" d="M434,452.2H66l-8.5-29.4H48l-12-49v-37l12.2-5.2l-0.4-23.5l41.7-86l11.3,0.8L109,168l-5.7-41H84
	L66,66h368l12.6,60.6H470l6.4,36l-7.6,49h-9.6L416,310l0.3,22.3l-11.8-0.4l-0.2,31.2L415,422l12.2,0.4"/>
<path style="stroke:#000000;stroke-miterlimit:10;" d="M246.6,100c65-0.3,84.5,50.6,84.5,50.6c5,0.8,12.6,6.7,12.6,6.7
	c52,61.3-0.4,114.3-0.4,114.3l0.4,18.5c44.6,4.7,46.7,53,46.7,53c-1.7,91-69,85-69,85c-14.7,5-54.2-30.4-54.2-30.4l-20,12.6
	L227,397.7c0,0-40,35.3-54.8,30.3c0,0-67.2,5.7-69-85c0,0,2.2-48.8,46.7-53v-18.4c0,0-52.6-53-0.5-114.3c0,0,7-6,12-6.8
	c0,0,19.4-50.8,84.6-50.4L246.6,100z"/>
<path style="fill:#FFFFFF;stroke:#000000;stroke-miterlimit:10;" d="M246.6,403.2l20.6-17.2l26,17.2c-11.3-79,51.3-100,51.3-100
	c-4.2-11-8-8.4-8-8.4v-30.4c26-23.3,24-53.6,24-53.6c-4.3-51.7-36.2-54.6-36.2-54.6c-24.8-54.2-77.7-47-77.7-47v-0.3
	c0,0-53-7.6-77.8,47c0,0-32,3-36,54.2c0,0-2.2,30.3,23.8,53.6v30.5c0,0-3.7-2.6-8,8.4c0,0,62.7,21,51.3,100l26-17.3l20.2,17.3v0.4
	L246.6,403.2z"/>
<ellipse transform="matrix(0.9182 -0.3961 0.3961 0.9182 -132.1202 90.8482)" style="fill:#FFFFFF;stroke:#000000;stroke-miterlimit:10;" cx="153.903" cy="365.316" rx="38.2" ry="59.5"/>
<ellipse transform="matrix(0.396 -0.9182 0.9182 0.396 -131.0965 531.2671)" style="fill:#FFFFFF;stroke:#000000;stroke-miterlimit:10;" cx="338.302" cy="365.288" rx="59.5" ry="38.2"/>
<path style="stroke:#000000;stroke-miterlimit:10;" d="M202.8,341l75-75l15.8,15.8l-75,75L202.8,341z"/>
<path style="stroke:#000000;stroke-miterlimit:10;" d="M277.8,356.7l-75-75l15.8-15.7l75,75L277.8,356.7z M248.2,202
	c0,0,39-31,66.2-29.7c0,0,27.6-5.7,33.7,38.2c0,0,2,39.2-26,48.7c0,0-11,6-37.4-0.5c0,0-18.7-7.5-26.8-19.3c0,0-4.6-3.3-9.2-3.3H247
	c-4.7,0-9.3,3.8-9.3,3.8c-8.2,11.8-27,19.3-27,19.3c-26.7,6.4-37.7,0.5-37.7,0.5c-27.7-9.5-26-48.7-26-48.7
	c6-44,33.6-38.2,33.6-38.2c27.3-1.2,66.2,29.7,66.2,29.7h1.6L248.2,202z"/>
</svg>
