<svg xmlns="http://www.w3.org/2000/svg" viewBox="0 0 512 512"><path fill="#FFF" stroke="#000" stroke-miterlimit="10" d="M29.8 30h452v68.4l17.7 10s.8 38.4-17.2 84.2v283.6H29.8V30z"/><path stroke="#000" stroke-miterlimit="10" d="M463.4 457.3H48.2V48h415.2v51.3l20.6 20.4-20.6 100.6z"/><path fill="#CF5E33" d="M66 66v182S208 94.7 320.4 66H66zm0 285v88.6h379.7v-165S347.7 497 66 351z"/><path fill="#FFF" stroke="#FFF" stroke-miterlimit="10" d="M491 150.3C400.6 573 36.6 337.5 36.6 337.5v-43.3s214.3-220.5 339-220c0 0 73.7-1.4 103.8 25.5l11.8 50.6z"/><path stroke="#000" stroke-miterlimit="10" d="M48.2 328.2c395.4 215.5 431-206.2 431-206.2-68-42-147.3-15.2-147.3-15.2 79.3 50 72 127.8 72 127.8-10.8 141.6-146 145-146 145C125 372.3 115 253 115 253c-33 19.8-67.3 60.6-67.3 60.6v14.6z"/><path fill="none" stroke="#000" stroke-width="3" stroke-miterlimit="10" d="M269.7 126.4C368.2 143 364.2 235 364.2 235c-.4 101.6-105.7 102.8-105.7 102.8-98.6-1.6-105-103-105-103s-.3-13.3 0-16"/><path fill="none" stroke="#000" stroke-width="2" stroke-miterlimit="10" d="M132.5 235H191m135.8 0l77.3-.4m-146 145l1-77m-.3-135.6l.4-34"/><ellipse cx="258.9" cy="234.7" fill="none" stroke="#000" stroke-width="3" stroke-miterlimit="10" rx="67.9" ry="67.7"/><ellipse cx="259.1" cy="234.6" fill="none" stroke="#000" stroke-width="4" stroke-miterlimit="10" rx="27.8" ry="27.8"/><path stroke="#000" stroke-miterlimit="10" d="M259 234.6L314 349s42.7-11.2 68.7-77.5l-123.4-37z"/><ellipse cx="198.8" cy="266.1" stroke="#000" stroke-miterlimit="10" rx="13.1" ry="13"/><ellipse cx="228.8" cy="333.4" stroke="#000" stroke-miterlimit="10" rx="13.1" ry="13"/><ellipse cx="333.6" cy="157.1" stroke="#000" stroke-miterlimit="10" rx="13.1" ry="13"/><path fill="#FFF" stroke="#FFF" stroke-miterlimit="10" d="M329.8 106.8c-77 11-211.5 146.3-211.5 146.3v-16l102.4-87 76.4-43h33z"/></svg>