<svg xmlns="http://www.w3.org/2000/svg" viewBox="0 0 512 512"><path fill="#FFF" stroke="#000" stroke-miterlimit="10" d="M482.7 476.2H29.3V30H115v54.6l281.6-.4.8-54.2h85.3z"/><path fill="#FFF" d="M144.2 27.8h18v69h-18zm205.4.2h17v70.7h-17z"/><path stroke="#000" stroke-miterlimit="10" d="M463.8 457.7h-416V48.3h48l.5 53.6h320l-.5-54h48z"/><path fill="#406181" d="M446.3 444.7h-381V65H79v55l355 .3-.5-55.3h13"/><path fill="#FFF" stroke="#FFF" stroke-miterlimit="10" d="M256 434h-69.5l-48-42.6-.7-11.8-29-11.8v-36.5h29.4l-.4-11.8-29-11.8v-37h29.8V253l23.6-5.5-6-108.5 42-12.2s51 123.6 116 0l42.3 12.2-6.2 108.5L374 253v17.7h29.6v37l-29 11.8-.3 11.8h29.3V368l-29 11.6-.7 11.8-48 42.7h-70z"/><path stroke="#000" stroke-miterlimit="10" d="M318.2 139l27.2 8-5.7 106.6 24.4 5v22l29-.3v21l-30 11.3v28h27v20.7L364 374l-.4 11.7-38.7 35.8H186l-38.5-35.8-.4-11.8-26-13v-21h27v-28l-30-11v-21h29v-22l24.6-4.8L166 147l27.2-8s54.6 119.5 125.5 0z"/><path fill="#FFF" stroke="#000" stroke-miterlimit="10" d="M319 150.4l17 6-6 96.6.3 11.6 24 6.5v111L319 413H191.5l-35.3-31V271l24-6.4.4-11.6-6.2-96.5 17-6s55.4 108.8 127 0z"/><path stroke="#000" stroke-miterlimit="10" d="M331.3 290.3c0 3.4.6 6.2-2.8 6.2h-145c-3.3 0-2.6-2.8-2.6-6.2 0-3.4-1-6.2 2-6.2h145c3.2 0 2.6 3 2.6 7zm-.7 29.5c0 3.4.6 6.2-2.8 6.2H183c-3.5 0-2.8-2.8-2.8-6.2 0-3.4-.7-6.2 2.8-6.2h144.8c3.4 0 2.8 2.8 2.8 6.2zm.7 29.7c0 3.4.6 6.2-2.8 6.2h-145c-3.3 0-2.6-2.8-2.6-6.2 0-3.5-1-6.2 2-6.2h145c3.2 0 2.6 2.7 2.6 6.2zm-.7 30.5c0 3.4.6 6-2.8 6H183c-3.5 0-2.8-2.6-2.8-6 0-3.5-.7-6.3 2.8-6.3h144.8c3.4 0 2.8 2.8 2.8 6.2z"/><path fill="#FFF" d="M366.7 27.2c0 5-4 9-9 9H153c-4.8 0-8.8-4-8.8-9s4-9 9-9h204.5c5 0 9 4 9 9z"/></svg>