<svg xmlns="http://www.w3.org/2000/svg" viewBox="0 0 512 512"><path fill="#FFF" stroke="#000" stroke-miterlimit="10" d="M433.5 350L218 315.4 397.8 389l-123 47.4L385.5 459l-.4 16.8H30V29.5l322.2.2-1.6-15.5L361 29.6h120.6v137l19.8-20.7-19.8 95v23.5H471l-7.2-8.8 5-45-20 19.3-43-73z"/><path stroke="#000" stroke-miterlimit="10" d="M196.6 440.5l74 17.2H48V48h415.2v136.6L452 201.8v-136H65.5v374.7z"/><path fill="#8F707A" d="M337.3 388.8l-140.7 51.7h-131V65.7H452v136l-100-183L409.2 326 34 263.8"/><path stroke="#000" stroke-miterlimit="10" d="M249 247.2l40.8 41.2h34.5l48.7-49.2v-29.4l-42.4-42.4 15-17-50.3-48.6-16.4 18-23.5-23c-39.5 38.2-68.5 0-68.5 0L138 143l54.6 55-127 128.2v104.6L249 247.2z"/><path fill="#FFF" stroke="#000" stroke-miterlimit="10" d="M65.5 343.4v71.4l169.7-170-35.7-35.4zm248.3-66l47-46.2v-13.8L253.3 110.2C213 151 183 114 183 114l-26.8 27L295 277.3h18.8zm-17.4-163.2l37.4 36.3-11 11.2-37.3-36.3z"/><path fill="#FFF" d="M362.3 74L352 18.7 382.3 74M34 263.8L83.2 284l7.8-10.7"/><path fill="none" stroke="#FFF" stroke-miterlimit="10" d="M446.8 209.4l21.5-31.8m-19 29.2l21.4-31.7m-27 17l15.6 19.4"/><path fill="#FFF" d="M409 47.3h-83.3V32.6h27l-.7-14L362.3 33l46.7-.4M31.5 235.8h16v73.7h-16z"/></svg>