<svg xmlns="http://www.w3.org/2000/svg" viewBox="0 0 512 512"><path fill="#FFF" stroke="#000" stroke-miterlimit="10" d="M264.2 29.5s29.4-41 65.6-11.7c0 0 92.4-56.8 130.2 48.3 0 0 26 11 22.3 48 0 0 48.3 39 6 81 0 0 4.5 15-5.6 42l-.4 240h-452V30h234z"/><path stroke="#000" stroke-miterlimit="10" d="M48.7 48.4h216s31-44.5 62-17.2c0 0 86.7-50.8 124 44.6 0 0 27 6.3 22 43.2 0 0 40.7 32 3.7 72.3 0 0 8.4 23-10 43l-3 7.4-.4 216H48.6V48.4z"/><path fill="#8F707A" d="M66.3 66v373.6h379.4v-202s26-16.5 19-50.5c0 0 35.6-34-6.4-66 0 0 5-28-20.6-41 0 0-21.4-85-110-33 0 0-29.6-35-55.2 15 0 0-18.4-2-24.7 13l-25.2 17-3-13 2.2-12H66.3z"/><path fill="#FFF" stroke="#FFF" stroke-miterlimit="10" d="M233 37.3S212 49 208 86l7 8.2s13-48.8 49.6-48.3L253 34l-20 3z"/><path fill="#FFF" d="M469.5 232.8s-20.8 12.6-30.5-3.4c0 0-3.4-3.8-2-5 0 0-11.4 1.6-5.6 21 0 0 7.2 12.6 35 7l9.2-11.2-6-8.4zM88.2 340l2.2-3.2 6.5-9c5-8 13-19.2 23-32.6 5-6.6 10-14 15-21.5l17-24 19-25.7 19-26.3 20-26.3 19-25.4 18-23.7c6-7.5 11-14.6 16-21.2l14-17c4-5 8-10 11-13l7-9 2-3-2 3-7 9-10 14-13 19-16 22-17 23-19 26-20 26-19 27-20 25-18 24-16 21-24 31-7 9-3 3zM365.5 53l-1.3 1.6-3.6 4.5c-3 4-7.6 10-13 16-3 3-5.8 7-9 11l-10 12-10.6 12c-4 4-7.7 9-11.4 13l-11.3 12c-3.7 4-7.5 8-11 12-3.6 4-7 8-10.4 11l-10 10-14 15-4 4-2 2 1-2 3-4c3-4 7-9 13-15l9-11c3-3 6-7 10-11l10-12 11-12c4-4 7-8 11-12l11-12 11-12 9-10 14-15 4-4 1-1.4zm56.7 77.8l-3.3 3.8c-3 2.3-5 5.7-9 9.8L398 158l-7 7.8-7.4 8-7.4 7.8-7.2 7.5c-4.6 5-9 10-12.8 14-3.8 4-7 7-9.3 10l-4 4 3-4 8-10 12-14 7-7 7-8 7-7 7-7 13-13 9-9 3-3zm30.4 14.2l-1.3 1.4c-.8 1-2 2.2-3.7 3.7-3.2 4-8 8-13.5 14l-9 9-10 10-11 10-12 11c-3 4-7 7-11 11l-11 10-10 9-9 8-14 12-4 4-2 2 1-1 4-4c3-3 8-8 14-13l9-8 10-9.6c4-3.2 7-6.6 11-10l11-10.7 12-10 12-10 11-9c3-3 6-5.6 9-8l14-12 5-3.5 2-1zm-16 58l-1.6 1.4-4.3 3.8c-3.8 3.2-9 8-15.5 13.4l-10.4 8.8-11.6 9.8-12.5 10.5c-4.3 3.5-8.7 7-13 10.7-4.4 3.5-8.8 7-13 10.6L342 282.2l-22.7 18c-6.6 5.2-12.2 9.4-16 12.5l-4.7 3.4-1.6 2 1.5-1 4.3-3 15.4-13c6.4-5 14-12 22-18l12.6-10 13-10 13-10 12.7-10 12-9 10.5-9 16.7-12.4 4.6-3.3 1.6-1.4z"/><path fill="#FFF" stroke="#000" stroke-width="3" stroke-miterlimit="10" d="M256 74.5c72.5 0 103.6 70.6 103.6 70.6 13.8 28 0 76 0 76-9 15-12.2 65-12.2 65-2 5-7.6 7-7.6 7-25.2 8-26.5 21-26.5 21-4.2 10 1 17 1 17 10.4 1 13 11 13 11 18.8-7 24.3 0 24.3 0 32.4 23 30.6 40 30.6 40 5.5 25-29.8 51-29.8 51-22.7 16-42.4 0-42.4 0l-24.8-26c-4.6-11 0-26 0-26h-9.5v5h-16v-7H256v-8 8h-3.6v6h-16v-5h-9.6s4.6 14 0 26L202 431s-19.7 16-42.4 0c0 0-35.3-26.5-29.8-51 0 0-1.7-16.6 30.6-40.2 0 0 5.5-7 24.4 0 0 0 2.5-9.7 13-10.6 0 0 5-8 1-17.2 0 0-1.4-13-26.6-21 0 0-5.5-2-7.6-6.7 0 0-3.3-49.2-12.2-64.3 0 0-13.8-48 0-75.2 0 0 31-70.2 103.6-70.2z"/><path fill="none" stroke="#000" stroke-width="3" stroke-miterlimit="10" d="M231 379.5V372m49.2 7.5V372"/><path fill="#8F707A" stroke="#000" stroke-width="3" stroke-miterlimit="10" d="M187.3 215.3V250s6.7 23.7 37 26.2c0 0 17.6.8 17.2-24.4 0 0 3.8-11.2-10.5-17.2 0 0-27.3-6.7-43.7-19.3zm137 0V250s-6.7 23.7-37 26.2c0 0-17.6.8-17.2-24.4 0 0-3-11.2 11-17.2 0 0 28-6.7 44-19.3zM258 322c3.6-4.6 19.8 0 19.8 0-11.6-17.7-19.8-45.8-19.8-45.8h-2s-8.2 28-19.7 45.8c0 0 16-4.6 19.7 0h2z"/><path fill="none" stroke="#000" stroke-width="3" stroke-miterlimit="10" d="M184.8 340s29 17.7 42 39.5m58.4 0s10.5-30.2 42-39.5M139 359.8s42.4 13.2 66.8 67.5m99.4 0s23.6-52.8 67.8-67.5"/></svg>