<svg xmlns="http://www.w3.org/2000/svg" viewBox="0 0 512 512"><path fill="#FFF" stroke="#000" stroke-miterlimit="10" d="M482 482H29.7V41.8h452v66L445 175v225.5l37 12.2z"/><path stroke="#000" stroke-miterlimit="10" d="M457 464.4H48V60.2h409v92.6l-12 22v225.7l12 4z"/><path fill="#A22229" d="M60.4 71.6H445v381H60.3z"/><path fill="#FFF" stroke="#FFF" stroke-miterlimit="10" d="M463 426.2l-210-75.6-210.6 75.6v-24L253 329.7l210 78z"/><circle cx="252.7" cy="340.9" r="25.2" fill="#FFF" stroke="#000" stroke-width="4" stroke-miterlimit="10"/><path fill="#FFF" stroke="#000" stroke-width="4" stroke-miterlimit="10" d="M227.4 318.6h10.3s12.6-10.5 30.3 0h10V283h41.3l18-11H379l12 10.5 43 .4 5.4-6v-36l-6-6H391l-11.6 11h-41.6l-17.6-18h-42v-36H264l-17.2 24-186.6.3-6.2 5v78l6.2 7.3H180l12.7-12.6 23 .4 11.6 23.3z"/><path fill="#FFF" stroke="#000" stroke-miterlimit="10" d="M439.4 223.2l30.3-66.8-7.2 60 43-30L466 256l39.3 59.3-43-21 7 60.4-30-65.5 5.5-5.5v-13.4l17.5 6.7-11.3-21 11.3-21-17.6 6.7V229z"/><path stroke="#000" stroke-miterlimit="10" d="M89.8 234.6h137.6v12.2H89.8zm182 6h6v30.6h-6zm17.2 0h6v30.6h-6zm18 0h6.4v30.6H307z"/><path fill="#FFF" stroke="#000" stroke-miterlimit="10" d="M179.8 180.4h49.6v19h-49.6zm7-27.4l49.4-5.2 2 18.8-49.4 5zm-15.5-23.8l46-18 7 17.5-46 18zm-18-35.8l46-18.2 7 17.6L160 111zM10.5 18L56.8 0l7 17.5-46.2 18.2zM144 61.6l36-34.2L193 41l-35.8 34.3zm-78.7-24l36-34.2 13 13.7-36 35zm49 11.4l31.3-38.5 14.7 12L129 61z"/></svg>