<svg xmlns="http://www.w3.org/2000/svg" viewBox="0 0 512 512"><path fill="#FFF" stroke="#000" stroke-miterlimit="10" d="M26.4 35.8H482V482H26.3z"/><path stroke="#000" stroke-miterlimit="10" d="M44.5 54H463v410H44.5z"/><path fill="#8F707A" d="M445.7 445.5H63V72h90.7V35.8h195l-.5 36.2h97.5"/><circle cx="251.4" cy="126.2" r="30" stroke="#000" stroke-miterlimit="10"/><circle cx="251.4" cy="289" r="30" stroke="#000" stroke-miterlimit="10"/><path stroke="#000" stroke-miterlimit="10" d="M221.4 126.2h60V289h-60z"/><circle cx="251.4" cy="126.2" r="17.9" fill="#FFF"/><circle cx="251.4" cy="289" r="17.9" fill="#FFF"/><path fill="#FFF" d="M233.5 126.2h35.7V289h-35.7z"/><circle cx="348.3" cy="163.6" r="29.8" stroke="#000" stroke-miterlimit="10"/><circle cx="155" cy="162.7" r="29.8" stroke="#000" stroke-miterlimit="10"/><path stroke="#000" stroke-miterlimit="10" d="M142 12h223v42H142z"/><circle cx="161.1" cy="83.3" r="23.7" fill="none" stroke="#000" stroke-miterlimit="10"/><circle cx="341.3" cy="83.3" r="23.7" stroke="#000" stroke-miterlimit="10"/><circle cx="361.3" cy="35.8" r="23.7" stroke="#000" stroke-miterlimit="10"/><circle cx="141.9" cy="35.8" r="23.7" fill="none" stroke="#000" stroke-miterlimit="10"/><circle cx="209" cy="78.7" r="12" stroke="#000" stroke-miterlimit="10"/><circle cx="251.7" cy="78.7" r="12" stroke="#000" stroke-miterlimit="10"/><circle cx="294" cy="78.7" r="12" stroke="#000" stroke-miterlimit="10"/><path stroke="#000" stroke-miterlimit="10" d="M197 41h24v37.7h-24zm42.6 0h24v37.7h-24zm42.4 0h24v37.7h-24zm57.3-14.2l-18.8 45L363 93.2l21.4-52zM139.7 93.2l42-21.4-17.8-45-46 14.5 21 52-21-52"/><circle cx="161.1" cy="83.3" r="23.7" stroke="#000" stroke-miterlimit="10"/><circle cx="141.9" cy="35.8" r="23.7" stroke="#000" stroke-miterlimit="10"/><circle cx="161.1" cy="83.3" r="15.9" fill="#FFF" stroke="#FFF" stroke-miterlimit="10"/><circle cx="141.9" cy="35.8" r="15.9" fill="#FFF" stroke="#FFF" stroke-miterlimit="10"/><circle cx="361.3" cy="35.8" r="15.9" fill="#FFF" stroke="#FFF" stroke-miterlimit="10"/><circle cx="209" cy="18.5" r="12" stroke="#000" stroke-miterlimit="10"/><circle cx="294" cy="18.5" r="12" stroke="#000" stroke-miterlimit="10"/><path stroke="#000" stroke-miterlimit="10" d="M209 6.5h85v24h-85z"/><circle cx="341.3" cy="83.3" r="15.9" fill="#FFF" stroke="#FFF" stroke-miterlimit="10"/><path fill="#FFF" stroke="#FFF" stroke-miterlimit="10" d="M175.4 76.6l-19.3-48L127 41l19.4 48.4zM356 89.4L376.3 41 347 28.6l-20 48z"/><path fill="#FFF" stroke="#FFF" stroke-miterlimit="10" d="M142 20h219v26.8H142z"/><circle cx="251.7" cy="78.7" r="6.4" fill="#FFF" stroke="#FFF" stroke-miterlimit="10"/><circle cx="294" cy="78.7" r="6.4" fill="#FFF" stroke="#FFF" stroke-miterlimit="10"/><circle cx="208.7" cy="78.7" r="6.4" fill="#FFF" stroke="#FFF" stroke-miterlimit="10"/><path fill="#FFF" stroke="#FFF" stroke-miterlimit="10" d="M202.3 41h13v37.7h-13zm43 0h13v37.7h-13zm42.3 0h13v37.7h-13z"/><circle cx="208.7" cy="18.5" r="6.4" fill="#FFF" stroke="#FFF" stroke-miterlimit="10"/><circle cx="294" cy="18.5" r="6.4" fill="#FFF" stroke="#FFF" stroke-miterlimit="10"/><path fill="#FFF" stroke="#FFF" stroke-miterlimit="10" d="M208.7 12H294v13h-85.3z"/><path stroke="#000" stroke-miterlimit="10" d="M251.7 362c54.8-4 74.5-30.4 74.5-30.4 78.4-76 0-148.7 0-148.7l45.8-38s103.8 101 0 227c0 0-43.6 49-120.3 50h-.3c-76.7-1-120.4-50-120.4-50-103.3-126 0-227 0-227l46 38s-78 72 0 148c0 0 20 26 74.8 30"/><circle cx="155" cy="162.7" r="17.9" fill="#FFF" stroke="#FFF" stroke-miterlimit="10"/><circle cx="348.3" cy="163.6" r="17.9" fill="#FFF" stroke="#FFF" stroke-miterlimit="10"/><path fill="#FFF" stroke="#FFF" stroke-miterlimit="10" d="M251.4 374c53.2 0 83.7-36.5 83.7-36.5 80-84.3 0-162.2 0-162.2l28-22.8s99 98 0 215c0 0-38 45.2-111 45.2s-111-45.3-111-45.3c-98.4-117 0-215 0-215l27.7 23s-79.7 77.7 0 162c0 0 30.5 36.7 83.7 36.7z"/></svg>