<svg xmlns="http://www.w3.org/2000/svg" viewBox="0 0 512 512"><path fill="#FFF" stroke="#000" stroke-miterlimit="10" d="M30.2 36.3H482V482H30z"/><path stroke="#000" stroke-miterlimit="10" d="M48.2 54.3h415.5v409.2H48.2z"/><path fill="#CF5E33" d="M65.5 72h380.7v374.4H65.5z"/><path d="M341.5 362l1.7 12.5 2.5 8.8 9.4 10.4-5-.7h-5l-6-.4-8 3.3-7 7-13 10-11 1 17-14 8-15-10-3-11 3-20 9-66-4-7-4-5-2-18 3-11.5-6-4-15-4-8-9-1-17 15-11 5-8-5.7-17-.8 4-4 10-2 10 4 7.8-4.7 19-19 13-2 1-14-6-7.6 2-12 6-21.2-1-16-6-4-8 15-8 4-17-6.5-1-3 19.4 2 5-19 7.4-5 9.5-4 4.4-13v-33l-7.3-7.3-7.6-2-6-2-9-2.5-9-.5-14-8 14 1.3 17 2 11.7-3 4-9 .5-8 3.7-5 2-11 3.4-5 3-5v-4l-7 3-3-1.4 8.6-7.3 2.5-2 9 1.4 6.4-4 6.2 4 8 3.3h6.7l10-6.4 3.7-1 8-2 13.3 6 15 2.4 6.5-4.6-3-6.5-7.4-4-15-16 7 1.4 2 2 9.8 6 7.6 1.6 7.5 8.7 8 5 14-.6 14.3-2 14 4.7 5.4 6 3.4 5-4 8 2.7 6h8l11 3 12.3 5 16 1 17-2 8.2-2 8.6-1.4-8 6.6-23 6.2h-12l-15-1.5-8.4 1.2-6 4-1.5 10 2 12-.8 15-1 13 1 7.4-2 4v4l3.7 10 6.5 5.6 13.4 1 15-5.6-5 5.3-7 3.7h-8l-10 2-8-2h-5l1.5 3 2.7 6-2 8.7v14l.7 16-3 11 2 13 1 7 3 7 8-1 7.4.6 9-.3 2 4-17 2.4-8 1.3-6 3.7"/><path fill="#FFF" stroke="#000" stroke-miterlimit="10" d="M334 367.8l-17.7-5-42.8 23-59.3-.4-36-55v-16.8l10.4-28.6-5-21 .4-23.5 5.8-10.5-.8-18-11-25.7v-14l21.5-34 17.2 6.4 24-12.2 21.4 11 25 .7 17-6.2 25 .3 5 5-2 16.7 6 14 5 25-12 44 5 28-5 27 3 32z"/><path fill="#D75D2F" d="M175.6 374.5L173 359l4.7-12.2 5.3 13.4 5.6 11.8 7.5 7-5 3-6 1.3-6-2.5"/></svg>