<?xml version="1.0" encoding="utf-8"?>
<!-- Generator: Adobe Illustrator 16.0.0, SVG Export Plug-In . SVG Version: 6.00 Build 0)  -->
<!DOCTYPE svg PUBLIC "-//W3C//DTD SVG 1.1//EN" "http://www.w3.org/Graphics/SVG/1.1/DTD/svg11.dtd">
<svg version="1.1" id="Layer_2" xmlns="http://www.w3.org/2000/svg" xmlns:xlink="http://www.w3.org/1999/xlink" x="0px" y="0px"
	 width="512px" height="512px" viewBox="0 0 512 512" enable-background="new 0 0 512 512" xml:space="preserve">
<g>
	<rect x="29.336" y="29.538" fill="#FFFFFF" stroke="#000000" stroke-miterlimit="10" width="452.521" height="452.521"/>
	<rect x="47.824" y="47.185" stroke="#000000" stroke-miterlimit="10" width="415.546" height="416.806"/>
	<rect x="65.891" y="65.672" fill="#406181" width="379.412" height="380.672"/>
	<path fill="#FFFFFF" stroke="#000000" stroke-width="4" stroke-miterlimit="10" d="M268.412,111.899v29.832l-0.058-0.426
		l54.202-0.006c0,0,18.486-0.843,18.069,18.905l0.009,23.53c0,0,41.591-0.845,56.301,41.17c0,0,15.13,30.25,0.011,96.638
		c0,0-7.138,45.799-40.749,61.77c0,0-23.529,5.043-40.756,5.467c0,0-5.041,17.229-11.344,17.229l-48.095,0.006v-0.004h-48.095
		c-6.302,0-11.345-17.228-11.345-17.228c-17.227-0.421-40.756-5.462-40.756-5.462c-33.614-15.967-40.756-61.765-40.756-61.765
		c-15.126-66.387,0-96.639,0-96.639c14.706-42.017,56.296-41.176,56.296-41.176l0.007-23.53
		c-0.42-19.748,18.067-18.907,18.067-18.907h54.202v-29.832c0,0-0.42-12.185,11.975-12.185
		C255.597,99.286,268.412,98.042,268.412,111.899z"/>
	<path fill="#406181" stroke="#000000" stroke-width="3" stroke-miterlimit="10" d="M243.202,159.79h-47.899
		c0,0-10.924-1.261-11.765,13.025c0,0,0,10.084,7.143,10.084c0,0,13.866,3.361,22.689-3.782c0,0-2.102-11.345,4.201-13.025
		C217.571,166.092,227.235,161.051,243.202,159.79z"/>
	<path fill="#406181" stroke="#000000" stroke-width="3" stroke-miterlimit="10" d="M268.885,159.786l47.898,0.004
		c0,0,10.925-1.26,11.764,13.026c0,0-0.001,10.085-7.144,10.084c0,0-13.867,3.36-22.689-3.784c0,0,2.104-11.344-4.199-13.025
		C294.515,166.09,284.851,161.048,268.885,159.786z"/>
	<g>
		<polygon points="217.752,406.009 219.252,387.941 220.752,406.009 		"/>
	</g>
	<g>
		<polygon points="236.24,406.009 237.74,387.941 239.24,406.009 		"/>
	</g>
	<g>
		<polygon points="272.794,406.013 274.294,387.941 275.794,406.013 		"/>
	</g>
	<g>
		<polygon points="291.281,406.008 292.781,387.941 294.281,406.008 		"/>
	</g>
	<g>
		<polygon points="253.503,406.009 256.003,381.639 258.503,406.009 		"/>
	</g>
	<circle stroke="#000000" stroke-miterlimit="10" cx="256.004" cy="332.689" r="4.832"/>
	<path stroke="#000000" stroke-miterlimit="10" d="M164.63,271.555c0,0-47.059,31.934-2.101,77.731c0,0,26.891,22.27,67.227-18.487
		c0,0,25.21-23.53-19.748-47.479C210.008,283.319,183.958,266.093,164.63,271.555z"/>
	<path stroke="#000000" stroke-miterlimit="10" d="M346.47,271.557c0,0,47.055,31.938,2.092,77.731c0,0-26.893,22.266-67.224-18.494
		c0,0-25.209-23.533,19.753-47.478C301.091,283.316,327.142,266.092,346.47,271.557z"/>
	<path fill="#FFFFFF" d="M223.454,307.27c0,6.265-5.079,11.344-11.344,11.344h-49.58c-6.265,0-11.344-5.079-11.344-11.344l0,0
		c0-6.266,5.079-11.345,11.344-11.345h49.58C218.375,295.925,223.454,301.004,223.454,307.27L223.454,307.27z"/>
	<path fill="#FFFFFF" d="M355.479,307.27c0,6.265-5.078,11.344-11.344,11.344h-49.58c-6.266,0-11.344-5.079-11.344-11.344l0,0
		c0-6.266,5.078-11.345,11.344-11.345h49.58C350.4,295.925,355.479,301.004,355.479,307.27L355.479,307.27z"/>
	<path fill="#FFFFFF" d="M187.322,343.403c-6.264,0.001-11.344-5.077-11.344-11.343l-0.005-49.58
		c0-6.265,5.078-11.344,11.343-11.345l0,0c6.266-0.001,11.345,5.078,11.346,11.343l0.004,49.581
		C198.666,338.325,193.588,343.403,187.322,343.403L187.322,343.403z"/>
	<path fill="#FFFFFF" d="M321.158,343.403c-6.265,0.001-11.345-5.077-11.345-11.343l-0.005-49.58
		c0-6.265,5.078-11.344,11.344-11.345l0,0c6.266-0.001,11.345,5.078,11.346,11.343l0.004,49.581
		C332.502,338.325,327.424,343.403,321.158,343.403L321.158,343.403z"/>
	<circle stroke="#000000" stroke-miterlimit="10" cx="321.155" cy="307.269" r="7.563"/>
	<circle stroke="#000000" stroke-miterlimit="10" cx="187.32" cy="307.27" r="7.563"/>
	<circle stroke="#000000" stroke-miterlimit="10" cx="176.278" cy="109.787" r="13.748"/>
	<circle stroke="#000000" stroke-miterlimit="10" cx="336.032" cy="109.791" r="13.748"/>
	<circle stroke="#000000" stroke-miterlimit="10" cx="377.235" cy="89.201" r="13.748"/>
	<circle stroke="#000000" stroke-miterlimit="10" cx="135.096" cy="89.201" r="13.748"/>
	<path stroke="#000000" stroke-miterlimit="10" d="M365.513,96.052c0,0-33.124-61.464-108.978-61.051h-0.531
		c-75.854-0.42-108.983,61.041-108.983,61.041l-22.522-15.599c0,0,28.342-72.753,131.506-72.753h0.534
		C359.702,7.7,388.037,80.456,388.037,80.456L365.513,96.052z"/>
	<path stroke="#000000" stroke-miterlimit="10" d="M323.69,115.377c0,0-22.818-38.964-67.159-39.084h-0.527
		c-44.341,0.116-67.163,39.078-67.163,39.078l-24.491-12.418c0,0,22.103-51.985,91.654-51.985h0.53
		c69.551,0.007,91.648,51.994,91.648,51.994L323.69,115.377z"/>
	<circle fill="#FFFFFF" stroke="#FFFFFF" stroke-miterlimit="10" cx="135.095" cy="89.202" r="7.983"/>
	<circle fill="#FFFFFF" stroke="#FFFFFF" stroke-miterlimit="10" cx="175.973" cy="109.787" r="7.983"/>
	<path fill="#FFFFFF" stroke="#FFFFFF" stroke-miterlimit="10" d="M141.779,93.56c0,0,27.867-64.022,114.225-64.022h-0.282
		c86.358-0.002,114.228,64.019,114.228,64.019l13.018-9.203c0,0-24.501-69.105-127.245-69.102h0.282
		c-102.744,0-127.244,69.105-127.244,69.105L141.779,93.56z"/>
	<circle fill="#FFFFFF" stroke="#FFFFFF" stroke-miterlimit="10" cx="377.235" cy="90.042" r="7.983"/>
	<circle fill="#FFFFFF" stroke="#FFFFFF" stroke-miterlimit="10" cx="336.032" cy="109.791" r="7.983"/>
	<path fill="#FFFFFF" stroke="#FFFFFF" stroke-miterlimit="10" d="M183.538,112.321c0,0,20.168-41.646,72.059-41.646h0.813
		c51.891,0.002,72.057,41.65,72.057,41.65l14.33-7.125c0,0-27.747-49.14-86.793-49.143c-59.047,0-86.796,49.138-86.796,49.138
		L183.538,112.321z"/>
</g>
</svg>
