<?xml version="1.0" encoding="utf-8"?>
<!-- Generator: Adobe Illustrator 16.0.0, SVG Export Plug-In . SVG Version: 6.00 Build 0)  -->
<!DOCTYPE svg PUBLIC "-//W3C//DTD SVG 1.1//EN" "http://www.w3.org/Graphics/SVG/1.1/DTD/svg11.dtd">
<svg version="1.1" id="Layer_2" xmlns="http://www.w3.org/2000/svg" xmlns:xlink="http://www.w3.org/1999/xlink" x="0px" y="0px"
	 width="512px" height="512px" viewBox="0 0 512 512" enable-background="new 0 0 512 512" xml:space="preserve">
<g>
	<rect x="23.454" y="29.538" fill="#FFFFFF" stroke="#000000" stroke-miterlimit="10" width="457.563" height="444.539"/>
	<rect x="41.941" y="47.605" stroke="#000000" stroke-miterlimit="10" width="421.008" height="410.084"/>
	<rect x="59.168" y="63.992" fill="#BE9431" width="386.135" height="376.05"/>
	<path stroke="#000000" stroke-miterlimit="10" d="M252.445,448.445l-12.519-8.403C202.618,351.387,59.168,298.865,59.168,298.865
		l-10.972-4.621V63.363l19.795,0.629l86.555,69.328c55.462-19.748,85.38-69.328,85.38-69.328l12.309-10.504l12.763,10.497
		c0,0,29.913,49.582,85.374,69.335l86.561-69.32l19.796-0.627l-0.021,230.881l-10.973,4.62c0,0-143.454,52.509-180.771,141.161
		l-12.52,8.402"/>
	<path fill="#FFFFFF" stroke="#000000" stroke-miterlimit="10" d="M183.184,162.717c0,0-55.038,19.338-27.289,126.476
		c0,0-70.6-69.737-16.832-149.157L-17.263,8.129c0,0-24.555,29.823,107.815,128.96l-0.647,18.92L-4.226,75.774
		c0,0-13.442,23.952,96.237,113.429l-0.239,19.024l-67.414-59.559c0,0-3.356,28.781,63.461,92.216l-21.421,48.323
		c0,0,64.708,12.175,150.017,96.613c0,0-76.493-129.82-29.859-157.559c0,0,11.342-14.289,53.371,54.192
		C239.927,282.455,197.89,161.874,183.184,162.717z"/>
	<path fill="#FFFFFF" stroke="#FFFFFF" stroke-miterlimit="10" d="M252.233,72.815c-19.747,34.034-71.848,71.43-71.848,71.43
		c36.556,26.05,71.85,133.613,71.85,133.613h0.21c0,0,35.294-107.563,71.849-133.614c0,0-52.101-37.396-71.849-71.429"/>
	<polygon fill="#FFFFFF" stroke="#FFFFFF" stroke-miterlimit="10" points="67.992,464.832 155.807,464.832 216.311,277.857 	"/>
	<rect x="24.005" y="38.782" fill="#FFFFFF" width="17.333" height="158.193"/>
	<path fill="#FFFFFF" stroke="#000000" stroke-miterlimit="10" d="M321.69,165.581c0,0,55.037,19.339,27.285,126.477
		c0,0,70.602-69.736,16.836-149.157L522.141,10.999c0,0,24.555,29.824-107.818,128.958l0.646,18.92l94.133-80.233
		c0,0,13.441,23.952-96.24,113.426l0.238,19.025l67.416-59.558c0,0,3.355,28.781-63.463,92.214l21.419,48.324
		c0,0-64.709,12.174-150.02,96.609c0,0,76.497-129.818,29.864-157.559c0,0-11.342-14.289-53.373,54.191
		C264.943,285.317,306.984,164.737,321.69,165.581z"/>
	<rect x="463.506" y="36.949" fill="#FFFFFF" width="16.999" height="172.526"/>
	<polygon fill="#FFFFFF" stroke="#FFFFFF" stroke-miterlimit="10" points="439.979,464.829 352.163,464.831 291.652,277.859 	"/>
</g>
</svg>
