<?xml version="1.0" encoding="utf-8"?>
<!-- Generator: Adobe Illustrator 16.0.0, SVG Export Plug-In . SVG Version: 6.00 Build 0)  -->
<!DOCTYPE svg PUBLIC "-//W3C//DTD SVG 1.1//EN" "http://www.w3.org/Graphics/SVG/1.1/DTD/svg11.dtd">
<svg version="1.1" id="Layer_2" xmlns="http://www.w3.org/2000/svg" xmlns:xlink="http://www.w3.org/1999/xlink" x="0px" y="0px"
	 width="512px" height="512px" viewBox="0 0 512 512" enable-background="new 0 0 512 512" xml:space="preserve">
<g>
	<rect x="22" y="10" fill="#FFFFFF" stroke="#000000" stroke-width="2" stroke-miterlimit="10" width="37" height="467"/>
	<rect x="106" y="10" fill="#FFFFFF" stroke="#000000" stroke-width="2" stroke-miterlimit="10" width="40" height="467"/>
	<rect x="190" y="31" fill="#FFFFFF" stroke="#000000" stroke-width="2" stroke-miterlimit="10" width="44" height="468"/>
	<rect x="276" y="38" fill="#FFFFFF" stroke="#000000" stroke-width="2" stroke-miterlimit="10" width="45" height="466"/>
	<rect x="321" y="3" fill="#FFFFFF" stroke="#000000" stroke-width="2" stroke-miterlimit="10" width="42" height="469"/>
	<rect x="363" y="3" fill="#FFFFFF" stroke="#000000" stroke-width="2" stroke-miterlimit="10" width="42" height="469"/>
	<rect x="405" y="10" fill="#FFFFFF" stroke="#000000" stroke-width="2" stroke-miterlimit="10" width="44" height="467"/>
	<rect x="449" y="10" fill="#FFFFFF" stroke="#000000" stroke-width="2" stroke-miterlimit="10" width="39" height="467"/>
	<rect x="234" y="43" fill="#FFFFFF" stroke="#000000" stroke-width="2" stroke-miterlimit="10" width="42" height="469"/>
	<rect x="59" y="21" fill="#FFFFFF" stroke="#000000" stroke-width="2" stroke-miterlimit="10" width="47" height="467"/>
	<rect x="40.5" y="28.5" stroke="#000000" stroke-miterlimit="10" width="19" height="431"/>
	<rect x="106.5" y="441.5" fill="none" stroke="#FF0000" stroke-miterlimit="10" width="40" height="21"/>
	<rect x="59.5" y="447.5" stroke="#000000" stroke-miterlimit="10" width="47" height="21"/>
	<rect x="146.5" y="443.5" stroke="#000000" stroke-miterlimit="10" width="44" height="22"/>
	<rect x="106.5" y="441.5" fill="none" stroke="#FF0000" stroke-miterlimit="10" width="40" height="21"/>
	<rect x="190.5" y="462.5" stroke="#000000" stroke-miterlimit="10" width="42" height="21"/>
	<rect x="233.5" y="472.5" stroke="#000000" stroke-miterlimit="10" width="42" height="20"/>
	<rect x="276.5" y="466.5" stroke="#000000" stroke-miterlimit="10" width="45" height="20"/>
	<rect x="106.5" y="441.5" stroke="#000000" stroke-miterlimit="10" width="40" height="21"/>
	<rect x="321.5" y="434.5" stroke="#000000" stroke-miterlimit="10" width="42" height="20"/>
	<rect x="363.5" y="434.5" stroke="#000000" stroke-miterlimit="10" width="42" height="20"/>
	<rect x="405.5" y="441.5" stroke="#000000" stroke-miterlimit="10" width="44" height="21"/>
	<rect x="146" y="13" fill="#FFFFFF" stroke="#000000" stroke-width="2" stroke-miterlimit="10" width="44" height="471"/>
	<rect x="59" y="60" fill="#C6D0D1" width="47" height="388"/>
	<rect x="106" y="48" fill="#C6D0D1" width="40" height="394"/>
	<rect x="146" y="52" fill="#C6D0D1" width="44" height="400"/>
	<rect x="190" y="70" fill="#C6D0D1" width="43" height="393"/>
	<rect x="233" y="80" fill="#C6D0D1" width="43" height="393"/>
	<rect x="276" y="73" fill="#C6D0D1" width="45" height="394"/>
	<rect x="321" y="45" fill="#C6D0D1" width="42" height="390"/>
	<rect x="363" y="45" fill="#C6D0D1" width="42" height="390"/>
	<rect x="405" y="48" fill="#C6D0D1" width="44" height="394"/>
	<rect x="59.5" y="37.5" stroke="#000000" stroke-miterlimit="10" width="47" height="22"/>
	<rect x="146.5" y="30.5" stroke="#000000" stroke-miterlimit="10" width="44" height="21"/>
	<rect x="106.5" y="27.5" stroke="#000000" stroke-miterlimit="10" width="40" height="20"/>
	<rect x="190.5" y="47.5" stroke="#000000" stroke-miterlimit="10" width="42" height="22"/>
	<rect x="233.5" y="59.5" stroke="#000000" stroke-miterlimit="10" width="42" height="20"/>
	<rect x="276.5" y="51.5" stroke="#000000" stroke-miterlimit="10" width="45" height="22"/>
	<rect x="321.5" y="23.5" stroke="#000000" stroke-miterlimit="10" width="42" height="21"/>
	<rect x="363.5" y="23.5" stroke="#000000" stroke-miterlimit="10" width="42" height="21"/>
	<rect x="405.5" y="27.5" stroke="#000000" stroke-miterlimit="10" width="44" height="20"/>
	<rect x="449.5" y="27.5" stroke="#000000" stroke-miterlimit="10" width="23" height="435"/>
	<path stroke="#000000" stroke-miterlimit="10" d="M278.186,211.367l3.997,33.386c0,0,9.415-0.456,16.698,3.187
		c0,0,6.619,20.942,22.619,20.487v-37.788c0,0-18.521,6.223-26.715,8.802c0,0-5.163,1.973-6.984,0
		C287.801,239.441,278.54,226.996,278.186,211.367z"/>
	<path stroke="#000000" stroke-miterlimit="10" d="M321.5,200.363c0,0,62-12.52,84-21.626v54.634c0,0-21.059,11.382-44.732,11.382
		c0,0-32.268,0-39.268-7.74V200.363z"/>
	<path stroke="#000000" stroke-miterlimit="10" d="M405.5,185.111c0,0,33-6.829,44-13.658v13.658c0,0-8.797,3.187-12.894,4.553
		c0,0-0.106,30.503-31.106,47.349V185.111z"/>
	<path stroke="#000000" stroke-miterlimit="10" d="M486.147,164.5l-13.647,4.221v7.285c0,0,7.507-4.045,12.06-5.752l3.863-5.753
		H486.147z"/>
	<path stroke="#000000" stroke-miterlimit="10" d="M233.468,220.041l-3.642,24.459c0,0-10.471-9-10.471,0
		c0,0-5.854,18.463-28.854,20.284v-41.43c0,0,16.476,8.65,26.947,9.561c0,0,4.141,8.195,13.701-18.894l0.932-7.12L233.468,220.041z"
		/>
	<path stroke="#000000" stroke-miterlimit="10" d="M146.5,197.631c0,0,20,10.854,44,13.735v42.946c0,0-23,2.277-44,0V197.631z"/>
	<path stroke="#000000" stroke-miterlimit="10" d="M146.5,193.306c0,0-38.011-5.919-40.742-9.561
		c-2.732-3.642-0.116,53.267-0.116,53.267s19.858,13.659,40.858,13.659V193.306z"/>
	<path stroke="#000000" stroke-miterlimit="10" d="M105.99,244.98c0,0-30.074-14.683-31.896-47.235c0,0-7.595-1.707-14.595-6.26
		v-10.016c0,0,24.004,12.292,45.25,11.837L105.99,244.98z"/>
	<path stroke="#000000" stroke-miterlimit="10" d="M18.577,160.981c0,0,17.756,8.195,22.309,6.374l-0.456,8.65
		C40.43,176.005,25.406,169.631,18.577,160.981z"/>
	<rect x="146.5" y="451.5" stroke="#000000" stroke-miterlimit="10" width="42" height="21"/>
	<line fill="none" stroke="#000000" stroke-width="2" stroke-miterlimit="10" x1="59" y1="21" x2="59" y2="477"/>
	<line fill="none" stroke="#000000" stroke-width="2" stroke-miterlimit="10" x1="106" y1="21" x2="106" y2="477"/>
	<line fill="none" stroke="#000000" stroke-width="2" stroke-miterlimit="10" x1="146" y1="16" x2="146" y2="472"/>
	<line fill="none" stroke="#000000" stroke-width="2" stroke-miterlimit="10" x1="190" y1="21" x2="190" y2="477"/>
	<line fill="none" stroke="#000000" stroke-width="2" stroke-miterlimit="10" x1="234" y1="42" x2="234" y2="498"/>
	<line fill="none" stroke="#000000" stroke-width="2" stroke-miterlimit="10" x1="276" y1="47" x2="276" y2="504"/>
	<line fill="none" stroke="#000000" stroke-width="2" stroke-miterlimit="10" x1="321" y1="24" x2="321" y2="481"/>
	<line fill="none" stroke="#000000" stroke-width="2" stroke-miterlimit="10" x1="363" y1="16" x2="363" y2="472"/>
	<line fill="none" stroke="#000000" stroke-width="2" stroke-miterlimit="10" x1="405" y1="20" x2="405" y2="476"/>
</g>
</svg>
