<?xml version="1.0" encoding="UTF-8" ?>
<!DOCTYPE svg PUBLIC "-//W3C//DTD SVG 1.1//EN" "http://www.w3.org/Graphics/SVG/1.1/DTD/svg11.dtd">
<svg width="717pt" height="771pt" viewBox="0 0 717 771" version="1.1" xmlns="http://www.w3.org/2000/svg">
<g id="#ffffffff">
<path fill="#ffffff" opacity="1.00" d=" M 0.00 0.00 L 0.26 0.00 C 0.19 0.06 0.06 0.19 0.00 0.26 L 0.00 0.00 Z" />
<path fill="#ffffff" opacity="1.00" d=" M 451.01 38.71 C 492.09 38.62 533.16 38.60 574.23 38.73 C 574.27 40.80 574.30 42.86 574.33 44.93 C 613.42 45.15 652.51 44.81 691.60 45.11 C 691.42 119.42 691.53 193.73 691.54 268.05 C 683.03 270.16 674.49 272.20 665.90 273.96 C 665.48 206.27 665.82 138.57 665.73 70.88 C 635.32 70.50 604.90 70.85 574.48 70.71 C 574.27 68.61 574.06 66.50 573.83 64.40 C 532.89 64.45 491.95 64.49 451.01 64.32 C 450.99 55.78 450.99 47.25 451.01 38.71 Z" />
<path fill="#ffffff" opacity="1.00" d=" M 21.99 45.58 C 41.27 45.49 60.56 45.41 79.83 45.61 C 79.76 50.64 79.76 55.67 79.92 60.69 C 100.18 60.63 120.44 60.65 140.69 60.68 C 140.68 55.79 140.69 50.90 140.74 46.01 C 161.09 45.99 181.44 45.96 201.80 46.03 C 201.81 48.49 201.82 50.94 201.85 53.40 C 222.95 53.56 244.05 53.51 265.15 53.42 C 265.47 60.92 265.28 68.42 265.28 75.92 C 285.61 76.11 305.94 75.91 326.27 76.02 C 326.31 80.86 326.32 85.71 326.32 90.56 C 346.81 90.46 367.32 90.41 387.81 90.60 C 387.94 88.23 388.05 85.86 388.20 83.50 C 409.12 83.66 430.06 83.80 450.98 83.43 C 450.98 86.46 450.96 89.49 450.90 92.52 C 450.76 98.05 450.38 103.58 450.64 109.11 C 443.44 109.67 436.21 109.43 429.00 109.46 C 415.42 109.42 401.83 109.54 388.25 109.37 C 388.10 111.63 387.95 113.90 387.82 116.16 C 367.31 116.30 346.79 116.39 326.28 116.11 C 326.29 111.35 326.26 106.58 326.18 101.82 C 305.88 101.59 285.57 101.81 265.26 101.73 C 265.27 94.23 265.37 86.74 265.14 79.24 C 244.07 79.19 223.00 79.38 201.92 79.16 C 201.82 76.73 201.73 74.30 201.64 71.87 C 181.37 71.60 161.09 71.70 140.81 71.82 C 140.74 76.63 140.71 81.45 140.73 86.26 C 120.43 86.64 100.12 86.50 79.82 86.34 C 79.74 81.31 79.72 76.29 79.72 71.26 C 69.10 71.24 58.48 71.25 47.86 71.25 C 47.50 138.54 47.83 205.83 47.69 273.13 C 39.03 271.56 30.51 269.35 21.96 267.28 C 22.01 193.38 21.95 119.48 21.99 45.58 Z" />
<path fill="#ffffff" opacity="1.00" d=" M 22.13 269.63 C 30.51 273.80 38.93 277.89 47.52 281.62 C 47.87 289.41 47.68 297.20 47.70 305.00 C 47.78 433.06 47.57 561.12 47.81 689.18 C 58.44 689.39 69.08 689.19 79.72 689.27 C 79.71 694.29 79.73 699.31 79.81 704.34 C 100.12 704.50 120.44 704.62 140.74 704.28 C 140.72 699.46 140.74 694.64 140.82 689.83 C 161.09 689.68 181.37 689.61 201.63 689.87 C 201.72 692.30 201.81 694.73 201.91 697.18 C 222.98 697.39 244.05 697.21 265.12 697.26 C 265.35 704.75 265.25 712.24 265.26 719.73 C 285.57 719.80 305.87 719.60 326.17 719.82 C 326.25 724.59 326.27 729.35 326.27 734.12 C 346.79 734.41 367.32 734.27 387.85 734.20 C 387.95 732.01 388.05 729.82 388.15 727.65 C 409.01 727.41 429.88 727.54 450.75 727.69 C 450.87 736.20 450.76 744.72 450.81 753.23 C 429.91 753.43 409.01 753.34 388.11 753.27 C 388.04 755.51 387.99 757.75 387.93 760.00 C 367.35 759.97 346.76 760.06 326.17 759.96 C 326.22 755.17 326.21 750.38 326.17 745.60 C 305.86 745.44 285.55 745.47 265.25 745.59 C 265.14 738.07 265.26 730.54 265.16 723.02 C 244.03 722.96 222.89 723.04 201.75 722.98 C 201.72 720.54 201.70 718.11 201.70 715.68 C 181.42 715.35 161.12 715.52 140.84 715.60 C 140.80 720.48 140.80 725.36 140.81 730.24 C 120.46 730.45 100.09 730.37 79.73 730.28 C 79.67 725.21 79.66 720.14 79.74 715.07 C 60.50 714.90 41.25 715.06 22.00 714.99 C 21.95 577.66 22.00 440.33 21.98 303.00 C 22.06 291.88 21.81 280.75 22.13 269.63 Z" />
<path fill="#ffffff" opacity="1.00" d=" M 666.08 283.33 C 674.65 279.42 683.38 275.83 691.63 271.26 C 691.36 369.84 691.59 468.42 691.51 567.00 C 691.54 616.19 691.45 665.37 691.56 714.56 C 652.49 714.51 613.42 714.42 574.35 714.60 C 574.22 712.50 574.09 710.40 573.94 708.31 C 532.85 708.29 491.76 708.53 450.68 708.19 C 450.74 704.21 450.72 700.23 450.87 696.26 C 451.06 691.75 451.22 687.25 451.13 682.74 C 463.41 682.29 475.71 682.64 488.00 682.54 C 516.67 682.64 545.35 682.33 574.02 682.69 C 574.15 684.70 574.29 686.72 574.43 688.75 C 604.86 688.71 635.29 688.75 665.72 688.73 C 665.71 562.48 665.72 436.24 665.72 310.00 C 665.83 301.11 665.36 292.20 666.08 283.33 Z" />
</g>
<g id="#202020ff">
<path fill="#202020" opacity="1.00" d=" M 451.01 64.32 C 491.95 64.49 532.89 64.45 573.83 64.40 C 574.06 66.50 574.27 68.61 574.48 70.71 C 604.90 70.85 635.32 70.50 665.73 70.88 C 665.82 138.57 665.48 206.27 665.90 273.96 C 674.49 272.20 683.03 270.16 691.54 268.05 C 691.57 268.85 691.61 270.46 691.63 271.26 C 683.38 275.83 674.65 279.42 666.08 283.33 C 665.36 292.20 665.83 301.11 665.72 310.00 C 665.72 436.24 665.71 562.48 665.72 688.73 C 635.29 688.75 604.86 688.71 574.43 688.75 C 574.29 686.72 574.15 684.70 574.02 682.69 C 545.35 682.33 516.67 682.64 488.00 682.54 C 475.71 682.64 463.41 682.29 451.13 682.74 C 450.90 672.17 451.01 661.60 451.03 651.02 C 491.89 651.00 532.76 650.89 573.62 651.08 C 573.69 653.66 573.74 656.24 573.95 658.82 C 574.44 658.86 575.42 658.92 575.91 658.95 C 596.05 659.05 616.19 659.00 636.32 658.96 C 636.58 616.25 636.45 573.53 636.39 530.81 C 636.55 454.53 636.39 378.25 636.48 301.98 C 636.40 299.45 635.94 296.96 635.41 294.49 C 639.05 291.72 640.93 287.44 642.07 283.12 C 640.22 282.45 638.39 281.78 636.55 281.13 C 636.45 276.39 636.42 271.65 636.43 266.92 C 636.51 214.28 636.41 161.64 636.48 109.00 C 636.45 106.12 636.34 103.25 636.20 100.39 C 615.44 100.44 594.68 100.58 573.92 100.34 C 573.82 97.80 573.73 95.26 573.64 92.73 C 532.73 92.28 491.81 92.68 450.90 92.52 C 450.96 89.49 450.98 86.46 450.98 83.43 C 450.98 77.06 450.98 70.69 451.01 64.32 Z" />
<path fill="#202020" opacity="1.00" d=" M 47.86 71.25 C 58.48 71.25 69.10 71.24 79.72 71.26 C 79.72 76.29 79.74 81.31 79.82 86.34 C 100.12 86.50 120.43 86.64 140.73 86.26 C 140.71 81.45 140.74 76.63 140.81 71.82 C 161.09 71.70 181.37 71.60 201.64 71.87 C 201.73 74.30 201.82 76.73 201.92 79.16 C 223.00 79.38 244.07 79.19 265.14 79.24 C 265.37 86.74 265.27 94.23 265.26 101.73 C 285.57 101.81 305.88 101.59 326.18 101.82 C 326.26 106.58 326.29 111.35 326.28 116.11 C 346.79 116.39 367.31 116.30 387.82 116.16 C 387.95 113.90 388.10 111.63 388.25 109.37 C 401.83 109.54 415.42 109.42 429.00 109.46 C 436.21 109.43 443.44 109.67 450.64 109.11 C 451.28 118.72 450.94 128.36 450.97 137.98 C 430.02 138.04 409.07 137.96 388.11 138.00 C 388.03 140.40 387.95 142.79 387.88 145.19 C 376.92 145.38 365.96 145.22 355.00 145.27 C 345.35 145.19 335.69 145.56 326.06 144.89 C 326.63 140.36 326.53 135.79 326.28 131.25 C 305.86 131.22 285.45 131.37 265.04 131.19 C 264.96 123.21 265.08 115.22 264.93 107.24 C 244.02 107.24 223.12 107.35 202.21 107.20 C 202.07 105.40 201.93 103.60 201.79 101.81 C 181.28 101.71 160.77 101.57 140.27 101.88 C 140.30 106.84 140.26 111.79 140.13 116.75 C 119.43 116.78 98.73 116.61 78.04 116.81 C 77.95 176.56 78.02 236.30 78.01 296.05 C 78.00 300.29 78.03 304.54 78.04 308.78 C 77.94 359.86 78.03 410.93 78.00 462.00 C 78.09 489.42 77.80 516.85 78.16 544.28 C 77.81 587.91 78.06 631.55 78.04 675.18 C 97.78 675.37 117.53 675.28 137.28 675.23 C 138.00 675.22 139.45 675.19 140.18 675.17 C 140.27 670.20 140.31 665.24 140.29 660.27 C 160.76 660.26 181.22 660.28 201.69 660.27 C 201.89 662.08 202.09 663.90 202.30 665.74 C 223.18 665.78 244.07 665.59 264.96 665.81 C 265.05 673.79 264.93 681.78 265.07 689.76 C 285.57 689.84 306.08 689.42 326.57 689.96 C 326.50 694.55 326.53 699.15 326.73 703.75 C 347.08 703.72 367.43 703.68 387.78 703.77 C 387.94 701.29 388.10 698.82 388.27 696.36 C 409.13 696.41 430.00 696.65 450.87 696.26 C 450.72 700.23 450.74 704.21 450.68 708.19 C 450.59 714.69 450.48 721.19 450.75 727.69 C 429.88 727.54 409.01 727.41 388.15 727.65 C 388.05 729.82 387.95 732.01 387.85 734.20 C 367.32 734.27 346.79 734.41 326.27 734.12 C 326.27 729.35 326.25 724.59 326.17 719.82 C 305.87 719.60 285.57 719.80 265.26 719.73 C 265.25 712.24 265.35 704.75 265.12 697.26 C 244.05 697.21 222.98 697.39 201.91 697.18 C 201.81 694.73 201.72 692.30 201.63 689.87 C 181.37 689.61 161.09 689.68 140.82 689.83 C 140.74 694.64 140.72 699.46 140.74 704.28 C 120.44 704.62 100.12 704.50 79.81 704.34 C 79.73 699.31 79.71 694.29 79.72 689.27 C 69.08 689.19 58.44 689.39 47.81 689.18 C 47.57 561.12 47.78 433.06 47.70 305.00 C 47.68 297.20 47.87 289.41 47.52 281.62 C 38.93 277.89 30.51 273.80 22.13 269.63 C 22.09 269.04 22.00 267.87 21.96 267.28 C 30.51 269.35 39.03 271.56 47.69 273.13 C 47.83 205.83 47.50 138.54 47.86 71.25 Z" />
</g>
<g id="#f6f8f8ff">
<path fill="#f6f8f8" opacity="1.00" d=" M 450.64 109.11 C 450.38 103.58 450.76 98.05 450.90 92.52 C 491.81 92.68 532.73 92.28 573.64 92.73 C 573.73 95.26 573.82 97.80 573.92 100.34 C 594.68 100.58 615.44 100.44 636.20 100.39 C 636.34 103.25 636.45 106.12 636.48 109.00 C 636.41 161.64 636.51 214.28 636.43 266.92 C 633.63 266.89 630.80 266.69 628.03 267.16 C 625.12 267.94 622.80 270.05 620.00 271.09 C 616.54 269.91 613.81 266.78 610.01 266.72 C 606.84 266.49 604.40 268.75 602.01 270.45 C 597.46 266.00 590.77 266.51 584.93 266.98 C 582.12 267.08 580.01 269.11 577.88 270.67 C 574.58 261.82 576.57 252.28 575.87 243.10 C 574.62 243.10 573.37 243.09 572.13 243.09 C 571.77 249.41 572.26 255.74 571.99 262.06 C 572.10 266.03 568.67 268.53 566.15 271.06 C 564.76 269.73 563.38 268.41 562.01 267.09 C 560.74 268.28 559.48 269.47 558.22 270.67 C 555.36 268.22 551.90 266.27 548.00 266.68 C 543.40 266.17 539.93 269.50 535.97 271.10 C 533.53 270.66 531.76 268.67 529.81 267.30 C 528.62 268.41 527.43 269.52 526.25 270.63 C 523.13 268.07 519.30 266.70 515.34 266.16 C 514.72 258.48 515.16 250.78 514.88 243.09 C 513.63 243.09 512.38 243.09 511.14 243.09 C 510.72 252.10 511.32 261.13 510.77 270.13 C 509.12 269.20 507.48 268.27 505.84 267.33 C 504.62 268.44 503.40 269.56 502.19 270.67 C 499.76 268.86 497.26 266.50 494.00 266.72 C 490.72 266.50 488.22 268.87 485.79 270.69 C 484.52 269.49 483.25 268.28 481.99 267.08 C 480.66 268.36 479.33 269.64 478.00 270.91 C 476.74 269.71 475.47 268.51 474.21 267.31 C 471.40 269.56 467.99 272.34 464.14 270.92 C 460.15 269.41 456.11 267.70 452.69 265.13 C 451.03 257.93 452.49 250.41 451.87 243.09 C 450.62 243.09 449.38 243.09 448.14 243.10 C 447.29 252.45 449.32 262.01 446.88 271.19 C 444.71 269.65 442.71 267.56 439.98 267.12 C 436.65 266.61 433.25 266.62 429.90 266.89 C 426.15 267.04 423.35 269.83 419.99 271.10 C 417.13 270.06 414.84 267.91 411.98 266.87 C 409.54 267.33 407.76 269.31 405.80 270.70 C 404.53 269.50 403.26 268.29 402.00 267.09 C 400.71 268.30 399.43 269.52 398.15 270.74 C 395.20 268.48 391.20 267.01 389.48 263.56 C 388.15 256.92 389.32 250.09 389.51 243.39 C 388.06 243.26 386.62 243.13 385.18 243.00 C 384.77 249.69 385.12 256.38 385.07 263.06 C 385.15 266.05 383.91 268.80 382.60 271.41 C 381.12 270.04 379.66 268.68 378.19 267.31 C 376.24 268.68 374.46 270.67 372.03 271.10 C 368.65 269.87 365.87 266.98 362.09 266.96 C 357.71 266.71 353.31 266.70 348.94 267.02 C 346.19 267.07 344.09 268.98 341.97 270.47 C 340.31 269.24 338.70 267.91 336.84 266.99 C 334.31 267.51 332.01 268.77 329.51 269.37 C 328.41 259.97 329.02 250.43 329.18 240.98 C 330.43 230.66 328.48 220.34 328.99 210.00 C 328.88 188.82 329.31 167.63 328.78 146.46 C 328.07 146.28 326.66 145.93 325.96 145.76 L 326.06 144.89 C 335.69 145.56 345.35 145.19 355.00 145.27 C 365.96 145.22 376.92 145.38 387.88 145.19 C 387.95 142.79 388.03 140.40 388.11 138.00 C 409.07 137.96 430.02 138.04 450.97 137.98 C 450.94 128.36 451.28 118.72 450.64 109.11 Z" />
</g>
<g id="#f6f7f8ff">
<path fill="#f6f7f8" opacity="1.00" d=" M 140.27 101.88 C 160.77 101.57 181.28 101.71 201.79 101.81 C 201.93 103.60 202.07 105.40 202.21 107.20 C 223.12 107.35 244.02 107.24 264.93 107.24 C 265.08 115.22 264.96 123.21 265.04 131.19 C 285.45 131.37 305.86 131.22 326.28 131.25 C 326.53 135.79 326.63 140.36 326.06 144.89 L 325.96 145.76 C 325.45 151.21 325.87 156.71 325.32 162.17 C 324.66 168.83 325.95 175.49 325.30 182.15 C 324.83 187.15 325.11 192.18 325.70 197.16 C 326.37 202.78 325.64 208.41 325.19 214.01 C 324.29 232.01 326.03 250.10 324.25 268.06 C 318.50 267.04 312.54 266.28 306.76 267.44 C 304.42 267.78 303.74 270.37 302.57 272.05 C 300.88 270.56 299.24 268.95 297.27 267.85 C 288.09 275.77 279.93 284.83 271.29 293.32 C 267.84 296.44 262.84 297.15 259.67 300.65 C 251.94 308.85 243.61 316.48 236.02 324.81 C 224.78 322.16 213.56 319.43 202.33 316.76 C 202.15 314.50 201.98 312.25 201.81 310.00 C 181.34 304.86 160.77 300.13 140.25 295.18 C 140.22 300.39 140.20 305.61 140.14 310.82 C 119.40 306.03 98.72 300.95 78.01 296.05 C 78.02 236.30 77.95 176.56 78.04 116.81 C 98.73 116.61 119.43 116.78 140.13 116.75 C 140.26 111.79 140.30 106.84 140.27 101.88 Z" />
</g>
<g id="#f3f5f6ff">
<path fill="#f3f5f6" opacity="1.00" d=" M 325.32 162.17 C 325.87 156.71 325.45 151.21 325.96 145.76 C 326.66 145.93 328.07 146.28 328.78 146.46 C 329.31 167.63 328.88 188.82 328.99 210.00 C 328.48 220.34 330.43 230.66 329.18 240.98 C 329.02 250.43 328.41 259.97 329.51 269.37 C 332.01 268.77 334.31 267.51 336.84 266.99 C 338.70 267.91 340.31 269.24 341.97 270.47 C 344.09 268.98 346.19 267.07 348.94 267.02 C 353.31 266.70 357.71 266.71 362.09 266.96 C 365.87 266.98 368.65 269.87 372.03 271.10 C 374.46 270.67 376.24 268.68 378.19 267.31 C 379.66 268.68 381.12 270.04 382.60 271.41 C 383.91 268.80 385.15 266.05 385.07 263.06 C 385.12 256.38 384.77 249.69 385.18 243.00 C 386.62 243.13 388.06 243.26 389.51 243.39 C 389.32 250.09 388.15 256.92 389.48 263.56 C 391.20 267.01 395.20 268.48 398.15 270.74 C 399.43 269.52 400.71 268.30 402.00 267.09 C 403.26 268.29 404.53 269.50 405.80 270.70 C 407.76 269.31 409.54 267.33 411.98 266.87 C 414.84 267.91 417.13 270.06 419.99 271.10 C 423.35 269.83 426.15 267.04 429.90 266.89 C 433.25 266.62 436.65 266.61 439.98 267.12 C 442.71 267.56 444.71 269.65 446.88 271.19 C 449.32 262.01 447.29 252.45 448.14 243.10 C 449.38 243.09 450.62 243.09 451.87 243.09 C 452.49 250.41 451.03 257.93 452.69 265.13 C 456.11 267.70 460.15 269.41 464.14 270.92 C 467.99 272.34 471.40 269.56 474.21 267.31 C 475.47 268.51 476.74 269.71 478.00 270.91 C 479.33 269.64 480.66 268.36 481.99 267.08 C 483.25 268.28 484.52 269.49 485.79 270.69 C 488.22 268.87 490.72 266.50 494.00 266.72 C 497.26 266.50 499.76 268.86 502.19 270.67 C 503.40 269.56 504.62 268.44 505.84 267.33 C 507.48 268.27 509.12 269.20 510.77 270.13 C 511.32 261.13 510.72 252.10 511.14 243.09 C 512.38 243.09 513.63 243.09 514.88 243.09 C 515.16 250.78 514.72 258.48 515.34 266.16 C 519.30 266.70 523.13 268.07 526.25 270.63 C 527.43 269.52 528.62 268.41 529.81 267.30 C 531.76 268.67 533.53 270.66 535.97 271.10 C 539.93 269.50 543.40 266.17 548.00 266.68 C 551.90 266.27 555.36 268.22 558.22 270.67 C 559.48 269.47 560.74 268.28 562.01 267.09 C 563.38 268.41 564.76 269.73 566.15 271.06 C 568.67 268.53 572.10 266.03 571.99 262.06 C 572.26 255.74 571.77 249.41 572.13 243.09 C 573.37 243.09 574.62 243.10 575.87 243.10 C 576.57 252.28 574.58 261.82 577.88 270.67 C 580.01 269.11 582.12 267.08 584.93 266.98 C 590.77 266.51 597.46 266.00 602.01 270.45 C 604.40 268.75 606.84 266.49 610.01 266.72 C 613.81 266.78 616.54 269.91 620.00 271.09 C 622.80 270.05 625.12 267.94 628.03 267.16 C 630.80 266.69 633.63 266.89 636.43 266.92 C 636.42 271.65 636.45 276.39 636.55 281.13 C 628.29 283.70 619.79 285.36 611.40 287.44 C 599.01 290.34 586.70 293.57 574.25 296.19 C 574.10 293.66 573.96 291.12 573.83 288.58 C 550.79 293.74 527.90 299.52 504.91 304.91 C 486.75 309.38 468.46 313.37 450.38 318.14 C 450.42 332.83 450.44 347.53 450.41 362.22 C 436.44 366.04 422.27 369.13 408.18 372.47 C 404.08 362.97 399.23 353.77 395.93 343.95 C 394.66 340.45 392.69 337.29 390.64 334.21 C 388.41 336.21 386.74 338.83 386.98 341.95 C 386.81 354.29 387.21 366.65 386.89 379.00 C 386.94 382.40 386.58 385.97 387.81 389.22 C 388.81 391.44 391.46 392.18 393.70 391.75 C 399.54 390.86 405.15 388.87 410.97 387.83 C 413.81 392.42 417.10 396.77 419.32 401.71 C 420.39 403.60 419.21 405.63 418.69 407.49 C 417.19 406.11 415.70 404.73 414.22 403.34 C 408.62 408.87 398.79 408.70 393.39 402.97 C 391.68 405.52 389.74 408.08 389.26 411.20 C 388.21 417.78 389.69 424.38 389.99 430.96 C 390.40 438.33 388.90 445.63 388.96 453.00 C 388.92 466.99 389.50 481.02 388.09 494.97 C 387.88 517.31 388.08 539.65 387.99 562.00 C 387.81 569.74 388.61 577.53 387.42 585.24 C 386.88 579.03 387.04 572.78 386.49 566.57 C 385.58 557.07 386.15 547.52 386.00 538.00 C 385.89 522.99 386.18 507.97 385.92 492.97 C 383.93 472.05 385.74 451.02 384.74 430.07 C 383.69 421.07 384.26 412.01 383.68 402.99 C 380.00 402.62 376.62 403.94 374.00 406.50 C 372.09 405.19 370.35 403.30 368.00 402.87 C 365.55 403.32 363.76 405.32 361.80 406.71 C 360.53 405.50 359.26 404.29 358.00 403.08 C 356.66 404.36 355.33 405.63 354.01 406.91 C 352.73 405.70 351.47 404.49 350.20 403.29 C 348.24 404.67 346.46 406.67 344.03 407.12 C 341.43 406.16 339.29 404.32 336.72 403.31 C 334.50 402.75 332.18 402.94 329.91 402.88 C 328.16 412.83 329.23 422.97 329.02 433.01 C 329.89 445.33 328.55 457.66 329.03 470.00 C 329.52 480.36 327.73 490.65 327.95 501.00 C 328.03 511.67 328.04 522.33 327.95 533.00 C 327.76 541.15 329.55 549.28 328.50 557.43 C 327.54 565.32 328.47 573.29 327.50 581.18 C 325.14 565.92 326.26 550.39 326.00 535.00 C 325.84 520.00 326.31 504.99 325.80 490.01 C 324.50 478.04 325.11 466.00 325.00 454.00 C 325.02 441.66 324.93 429.33 325.09 416.99 C 325.16 412.31 324.49 407.66 323.60 403.08 C 319.94 402.57 316.62 403.97 314.01 406.48 C 311.62 404.76 309.17 402.51 306.00 402.73 C 302.62 402.51 300.06 405.00 297.57 406.89 C 295.97 405.00 294.36 403.11 292.76 401.22 C 297.99 395.42 302.19 388.83 306.06 382.07 C 311.72 383.23 317.24 385.32 323.04 385.66 C 326.42 385.72 331.29 384.24 330.96 380.02 C 331.17 368.99 331.25 357.93 330.30 346.93 C 329.82 341.78 330.94 336.12 327.91 331.55 C 327.68 331.12 327.23 330.25 327.00 329.82 C 322.04 342.36 317.23 354.96 312.03 367.40 C 295.96 363.77 279.97 359.83 263.96 355.93 C 263.60 347.76 263.91 339.58 263.69 331.41 C 254.46 329.23 245.23 327.05 236.02 324.81 C 243.61 316.48 251.94 308.85 259.67 300.65 C 262.84 297.15 267.84 296.44 271.29 293.32 C 279.93 284.83 288.09 275.77 297.27 267.85 C 299.24 268.95 300.88 270.56 302.57 272.05 C 303.74 270.37 304.42 267.78 306.76 267.44 C 312.54 266.28 318.50 267.04 324.25 268.06 C 326.03 250.10 324.29 232.01 325.19 214.01 C 325.64 208.41 326.37 202.78 325.70 197.16 C 325.11 192.18 324.83 187.15 325.30 182.15 C 325.95 175.49 324.66 168.83 325.32 162.17 Z" />
</g>
<g id="#212121ff">
<path fill="#212121" opacity="1.00" d=" M 636.55 281.13 C 638.39 281.78 640.22 282.45 642.07 283.12 C 640.93 287.44 639.05 291.72 635.41 294.49 C 629.76 296.77 623.87 298.40 618.10 300.31 C 616.83 309.07 615.59 317.92 612.23 326.18 C 605.23 344.99 591.02 360.44 574.23 371.10 C 574.03 368.64 573.85 366.18 573.67 363.73 C 542.69 381.98 504.72 388.78 469.57 380.52 C 463.17 378.98 457.03 376.59 450.77 374.62 C 450.28 389.17 450.79 403.74 450.52 418.30 C 434.21 411.77 421.04 398.51 413.87 382.55 C 405.85 383.73 398.06 386.05 390.06 387.37 C 389.95 370.19 389.77 353.00 390.17 335.82 C 395.41 348.14 399.93 360.76 405.14 373.09 C 406.15 372.88 407.16 372.68 408.18 372.47 C 422.27 369.13 436.44 366.04 450.41 362.22 C 450.44 347.53 450.42 332.83 450.38 318.14 C 468.46 313.37 486.75 309.38 504.91 304.91 C 527.90 299.52 550.79 293.74 573.83 288.58 C 573.96 291.12 574.10 293.66 574.25 296.19 C 586.70 293.57 599.01 290.34 611.40 287.44 C 619.79 285.36 628.29 283.70 636.55 281.13 Z" />
<path fill="#212121" opacity="1.00" d=" M 140.25 295.18 C 160.77 300.13 181.34 304.86 201.81 310.00 C 201.98 312.25 202.15 314.50 202.33 316.76 C 213.56 319.43 224.78 322.16 236.02 324.81 C 245.23 327.05 254.46 329.23 263.69 331.41 C 263.91 339.58 263.60 347.76 263.96 355.93 C 279.97 359.83 295.96 363.77 312.03 367.40 C 317.23 354.96 322.04 342.36 327.00 329.82 C 327.23 330.25 327.68 331.12 327.91 331.55 C 326.79 348.29 327.70 365.12 327.42 381.90 C 319.33 380.32 311.41 378.02 303.31 376.50 C 296.19 393.94 281.17 407.19 263.83 414.02 C 263.53 406.01 263.76 397.99 263.64 389.98 C 256.55 392.18 249.54 394.71 242.22 396.03 C 229.07 398.36 215.61 398.88 202.32 397.54 C 202.08 395.32 201.87 393.10 201.65 390.88 C 190.30 389.07 178.95 386.85 168.14 382.84 C 158.34 379.40 149.20 374.41 140.36 369.03 C 140.35 374.10 140.34 379.17 140.12 384.23 C 122.53 372.87 108.78 355.30 102.88 335.12 C 100.99 328.76 100.19 322.15 99.36 315.58 C 92.26 313.31 85.18 310.96 78.04 308.78 C 78.03 304.54 78.00 300.29 78.01 296.05 C 98.72 300.95 119.40 306.03 140.14 310.82 C 140.20 305.61 140.22 300.39 140.25 295.18 Z" />
</g>
<g id="#eff1f3ff">
<path fill="#eff1f3" opacity="1.00" d=" M 618.10 300.31 C 623.87 298.40 629.76 296.77 635.41 294.49 C 635.94 296.96 636.40 299.45 636.48 301.98 C 636.39 378.25 636.55 454.53 636.39 530.81 C 635.22 531.14 634.06 531.48 632.91 531.83 C 632.59 532.86 632.28 533.90 631.98 534.94 C 630.70 534.91 629.44 534.89 628.19 534.87 C 627.45 533.45 626.72 532.04 625.99 530.64 C 625.28 532.04 624.57 533.45 623.88 534.87 C 619.96 535.05 616.03 535.05 612.11 534.87 C 611.41 533.45 610.71 532.04 610.01 530.64 C 609.29 532.02 608.58 533.41 607.89 534.81 C 601.28 535.18 594.66 535.15 588.05 534.83 C 587.48 533.54 586.91 532.26 586.36 530.98 C 584.39 533.79 581.50 535.68 578.28 536.77 C 577.52 547.53 578.62 558.34 577.26 569.07 C 576.63 586.70 577.19 604.36 577.00 622.00 C 576.85 634.32 577.63 646.70 575.91 658.95 C 575.42 658.92 574.44 658.86 573.95 658.82 C 573.74 656.24 573.69 653.66 573.62 651.08 C 532.76 650.89 491.89 651.00 451.03 651.02 C 451.01 661.60 450.90 672.17 451.13 682.74 C 451.22 687.25 451.06 691.75 450.87 696.26 C 430.00 696.65 409.13 696.41 388.27 696.36 C 388.10 698.82 387.94 701.29 387.78 703.77 C 367.43 703.68 347.08 703.72 326.73 703.75 C 326.53 699.15 326.50 694.55 326.57 689.96 C 306.08 689.42 285.57 689.84 265.07 689.76 C 264.93 681.78 265.05 673.79 264.96 665.81 C 244.07 665.59 223.18 665.78 202.30 665.74 C 202.09 663.90 201.89 662.08 201.69 660.27 C 181.22 660.28 160.76 660.26 140.29 660.27 C 140.31 665.24 140.27 670.20 140.18 675.17 C 139.45 675.19 138.00 675.22 137.28 675.23 C 138.50 666.87 137.90 658.41 137.97 650.00 C 137.77 634.34 138.59 618.65 137.18 603.03 C 137.13 592.03 135.15 581.07 136.24 570.07 C 137.15 558.56 138.15 546.70 134.94 535.44 C 126.01 534.80 117.05 535.20 108.11 534.84 C 107.41 533.43 106.71 532.03 106.00 530.64 C 105.29 532.04 104.58 533.45 103.89 534.87 C 100.96 535.03 98.00 535.36 95.08 534.94 C 93.06 534.41 91.60 532.75 89.98 531.53 C 87.41 533.06 84.62 534.35 82.46 536.48 C 80.62 538.82 79.45 541.60 78.16 544.28 C 77.80 516.85 78.09 489.42 78.00 462.00 C 78.03 410.93 77.94 359.86 78.04 308.78 C 85.18 310.96 92.26 313.31 99.36 315.58 C 100.19 322.15 100.99 328.76 102.88 335.12 C 108.78 355.30 122.53 372.87 140.12 384.23 C 140.34 379.17 140.35 374.10 140.36 369.03 C 149.20 374.41 158.34 379.40 168.14 382.84 C 178.95 386.85 190.30 389.07 201.65 390.88 C 201.87 393.10 202.08 395.32 202.32 397.54 C 215.61 398.88 229.07 398.36 242.22 396.03 C 249.54 394.71 256.55 392.18 263.64 389.98 C 263.76 397.99 263.53 406.01 263.83 414.02 C 281.17 407.19 296.19 393.94 303.31 376.50 C 311.41 378.02 319.33 380.32 327.42 381.90 C 327.70 365.12 326.79 348.29 327.91 331.55 C 330.94 336.12 329.82 341.78 330.30 346.93 C 331.25 357.93 331.17 368.99 330.96 380.02 C 331.29 384.24 326.42 385.72 323.04 385.66 C 317.24 385.32 311.72 383.23 306.06 382.07 C 302.19 388.83 297.99 395.42 292.76 401.22 C 294.36 403.11 295.97 405.00 297.57 406.89 C 300.06 405.00 302.62 402.51 306.00 402.73 C 309.17 402.51 311.62 404.76 314.01 406.48 C 316.62 403.97 319.94 402.57 323.60 403.08 C 324.49 407.66 325.16 412.31 325.09 416.99 C 324.93 429.33 325.02 441.66 325.00 454.00 C 325.11 466.00 324.50 478.04 325.80 490.01 C 326.31 504.99 325.84 520.00 326.00 535.00 C 326.26 550.39 325.14 565.92 327.50 581.18 C 328.47 573.29 327.54 565.32 328.50 557.43 C 329.55 549.28 327.76 541.15 327.95 533.00 C 328.04 522.33 328.03 511.67 327.95 501.00 C 327.73 490.65 329.52 480.36 329.03 470.00 C 328.55 457.66 329.89 445.33 329.02 433.01 C 329.23 422.97 328.16 412.83 329.91 402.88 C 332.18 402.94 334.50 402.75 336.72 403.31 C 339.29 404.32 341.43 406.16 344.03 407.12 C 346.46 406.67 348.24 404.67 350.20 403.29 C 351.47 404.49 352.73 405.70 354.01 406.91 C 355.33 405.63 356.66 404.36 358.00 403.08 C 359.26 404.29 360.53 405.50 361.80 406.71 C 363.76 405.32 365.55 403.32 368.00 402.87 C 370.35 403.30 372.09 405.19 374.00 406.50 C 376.62 403.94 380.00 402.62 383.68 402.99 C 384.26 412.01 383.69 421.07 384.74 430.07 C 385.74 451.02 383.93 472.05 385.92 492.97 C 386.18 507.97 385.89 522.99 386.00 538.00 C 386.15 547.52 385.58 557.07 386.49 566.57 C 387.04 572.78 386.88 579.03 387.42 585.24 C 388.61 577.53 387.81 569.74 387.99 562.00 C 388.08 539.65 387.88 517.31 388.09 494.97 C 389.50 481.02 388.92 466.99 388.96 453.00 C 388.90 445.63 390.40 438.33 389.99 430.96 C 389.69 424.38 388.21 417.78 389.26 411.20 C 389.74 408.08 391.68 405.52 393.39 402.97 C 398.79 408.70 408.62 408.87 414.22 403.34 C 415.70 404.73 417.19 406.11 418.69 407.49 C 419.21 405.63 420.39 403.60 419.32 401.71 C 417.10 396.77 413.81 392.42 410.97 387.83 C 405.15 388.87 399.54 390.86 393.70 391.75 C 391.46 392.18 388.81 391.44 387.81 389.22 C 386.58 385.97 386.94 382.40 386.89 379.00 C 387.21 366.65 386.81 354.29 386.98 341.95 C 386.74 338.83 388.41 336.21 390.64 334.21 C 392.69 337.29 394.66 340.45 395.93 343.95 C 399.23 353.77 404.08 362.97 408.18 372.47 C 407.16 372.68 406.15 372.88 405.14 373.09 C 399.93 360.76 395.41 348.14 390.17 335.82 C 389.77 353.00 389.95 370.19 390.06 387.37 C 398.06 386.05 405.85 383.73 413.87 382.55 C 421.04 398.51 434.21 411.77 450.52 418.30 C 450.79 403.74 450.28 389.17 450.77 374.62 C 457.03 376.59 463.17 378.98 469.57 380.52 C 504.72 388.78 542.69 381.98 573.67 363.73 C 573.85 366.18 574.03 368.64 574.23 371.10 C 591.02 360.44 605.23 344.99 612.23 326.18 C 615.59 317.92 616.83 309.07 618.10 300.31 Z" />
</g>
<g id="#ebeff2ff">
<path fill="#ebeff2" opacity="1.00" d=" M 82.46 536.48 C 84.62 534.35 87.41 533.06 89.98 531.53 C 91.60 532.75 93.06 534.41 95.08 534.94 C 98.00 535.36 100.96 535.03 103.89 534.87 C 104.58 533.45 105.29 532.04 106.00 530.64 C 106.71 532.03 107.41 533.43 108.11 534.84 C 117.05 535.20 126.01 534.80 134.94 535.44 C 138.15 546.70 137.15 558.56 136.24 570.07 C 135.15 581.07 137.13 592.03 137.18 603.03 C 138.59 618.65 137.77 634.34 137.97 650.00 C 137.90 658.41 138.50 666.87 137.28 675.23 C 117.53 675.28 97.78 675.37 78.04 675.18 C 78.06 631.55 77.81 587.91 78.16 544.28 C 79.45 541.60 80.62 538.82 82.46 536.48 Z" />
</g>
<g id="#eceff2ff">
<path fill="#eceff2" opacity="1.00" d=" M 578.28 536.77 C 581.50 535.68 584.39 533.79 586.36 530.98 C 586.91 532.26 587.48 533.54 588.05 534.83 C 594.66 535.15 601.28 535.18 607.89 534.81 C 608.58 533.41 609.29 532.02 610.01 530.64 C 610.71 532.04 611.41 533.45 612.11 534.87 C 616.03 535.05 619.96 535.05 623.88 534.87 C 624.57 533.45 625.28 532.04 625.99 530.64 C 626.72 532.04 627.45 533.45 628.19 534.87 C 629.44 534.89 630.70 534.91 631.98 534.94 C 632.28 533.90 632.59 532.86 632.91 531.83 C 634.06 531.48 635.22 531.14 636.39 530.81 C 636.45 573.53 636.58 616.25 636.32 658.96 C 616.19 659.00 596.05 659.05 575.91 658.95 C 577.63 646.70 576.85 634.32 577.00 622.00 C 577.19 604.36 576.63 586.70 577.26 569.07 C 578.62 558.34 577.52 547.53 578.28 536.77 Z" />
</g>
</svg>
