<svg xmlns="http://www.w3.org/2000/svg" viewBox="0 0 512 512"><path fill="#FFF" stroke="#000" stroke-miterlimit="10" d="M74.5 59.5h376v375h-376z"/><path stroke="#000" stroke-miterlimit="10" d="M91.5 75.5h344v344h-344z"/><path fill="#B24B1D" d="M106 89h316v316H106z"/><path stroke="#000" stroke-miterlimit="10" d="M106 276.2s24.7 27.2 65.3 26.5l-.7 66.2-2.3 5s-7.3 17 7 22l8.7 14 2 9s70 60 135.2 27c0 0 52.2-15 73.2-82l-5.2-3s7-7 9.5-26l51.8 3v-6l-52.3-2s-1.3-26-2.5-36l33.7-11-1.8-11-33.4 16s-4.2-36-25.5-60l-5.7 3s-5-7-10.4-11c-5.3-4-44 5-44 5H296s-20.3-3-39.4 1c0 0 9.7-29 1.4-48 0 0-.4-21-4.3-29 0 0-5-25-33-38L242 85h-14.5l-12 27.4s-18.7-11.8-43-13c0 0 12 11.6 18.7 29 0 0-20.3-4.7-34-2l-3.7 10L110 169l-4 80.6s1 7.5 10 16.3c0 0-8.7-1-13.4-9l1.8-8-1-14-9.4-35-91.8 23s65.3 4 68.8 6c0 0 14 5 17 7 0 0 5 3 0 6l-5.8 2s3.8 2 5.2 5c0 0 3.5 11 8.6 17l9.3 9z"/><path stroke="#000" stroke-miterlimit="10" d="M152.3 87s14.4 4 17.7 10.2c0 0 27 1.4 47 14.4 0 0-30-20.7-64.7-24.6zm135 133.8s-10.7-22.6-4.6-25.7c0 0 8-7 18.7 18l47 9 30.2-17 24.4-4 51.4 37-4-16s59-75-8-153c0 0-18-25-50.4-34 0 0-39.4-21-99.4 43h-7l9 6 5.6 11 7.3 4-4.4 6-19-13-8 13s-30 51 12 119z"/><path stroke="#000" stroke-miterlimit="10" d="M308 203l-8.6 32.4 47.7-.7 3-18.7zm65 42s30.4-7.6 52-20.6c0 0-18 19.6-52 20.7z"/><path fill="#FFF" stroke="#FFF" stroke-miterlimit="10" d="M199 96.2s-12.8 29.6-23.7 38.5c-10.8 8.8-12-1.5-13.4-6.6-2-5-7-26-6-27 0-1-3 35-13 36 0 0-16 4-26 12 0 0-9 8-30-12 0 0 10 12 13 22 2 10-8 18-12 30-3 13-8 20-8 20l-50 12h52s7 0 10 9 4 8 6 13 5 12-7 28c0 0 10-6 14-8 4-1 9-2 11 0 2 3 8 7 12 8 4 2 10 6 6 35 0 0 7-21 11-24 0 0 8-13 16-3l11 14 35-31-6-15s14-5 18-28c0 0 1-6 6-7l22-7s-22-2-29-10c0 0-5-5 2-9 0 0 7-6 22-16 0 0-15 4-23 4 0 0-4 1-11-3l-1-1s-5-11-19-19c0 0-2-1-3-2 0 0-6-1 9-47.2z"/><path fill="#FFF" stroke="#FFF" stroke-miterlimit="10" d="M176.6 284.4s-9.4 7.3-13.2 34.3c0 0 0 2.6-1.5 5 0 0-12 13.8-39 14.7 0 0 25 3 34 8 0 0 10 5 3 7.2 0 0-24 14.7-68 33.3 0 0 60-13 70-12 0 0 8 1 10 7 0 0 5 7-28 39 0 0 22-15 42-19 0 0 1-1 4 2 0 0 24 24 49 25 0 0 3 0 7-1 0 0 2-3 3 5 0 0 1 10 1 16 0 0 3-20 6-22 0 0 2-2 3 3 0 0-1 1 5 0 0 0 4.3-2 7.4 5 3 6 25 39 31 76 0 0-8.4-56-8.4-76s6-11 11.7-3 18 28 22 35c4.2 7-17.7-40-17.8-46 0 0-3-5 1-7 3-2 8-4 14-11 0 0 2-4 7 0 0 0 8 5 33 15 0 0-18-22-23-36 0 0-1-3 1-6 0 0 1.3-3 5-6 0 0 6-4 14.3-2 0 0 12 0 40 5 0 0-29-9-43.5-24 0 0-6-5-4-11 0 0 3-15.4-3-40 0 0-2-2.4-1-5.4 0 0 2-13.4 57.8-42 0 0-49 21-66 18 0 0-4 0-7-4 0 0-4-5-8.4-4.4 0 0-4.7-.4-4-4 0 0 1-6 12-17 0 0-12 9-18 11 0 0-6 1.3-6-6 0 0-1-6-8.8-7.8 0 0-3.7 0-4-3-.8-2.7-1.7-34 11-64.6 0 0-17.6 39-33.8 56 0 0-10 8.2-17-6.6 0 0-12-23-13-34.5 0 0-1 37-13.7 43.5 0 0-23 9-34 16s-29 35-29 35z"/><path fill="#FFF" stroke="#FFF" stroke-miterlimit="10" d="M341.7 198.3s-5.8 14-6 28.2c0 0 16.2 5.2 36.5-13.5l-14 17.4s22 18.3 30 58c0 0-1.7-47.4-2.8-61 0 0-.4-5.5 4-1 0 0 7.7 6.8 19.2 27.5 0 0-8.6-17-9.6-35 0 0 0-3 3-2 0 0 4.4 0 6.7-4 0 0 2.3-1-5-8l-2.2-2s33 10 47 22v-6h-4.8s-3.2-8 8-29c0 0-7.5 10-15.2 15 0 0-4 4-7-8 0 0-5.8-13 10.7-15 0 0 8-1 34.3 3 0 0-21.8-6-28.6-21 0 0-2-4 1-7 0 0 2-2 1-11 0 0-2-17-5-26 0 0-4 5-8 1 0 0-2-4 0-6 0 0 18-20 46-34 0 0-27 15-57 15 0 0-11 0-8-13 0 0 4-14 22-35 0 0-22 17-30 21 0 0-7-7-17-11 0 0 3 3 6 12 0 0 3 7-6 0 0 0-4-4-5-6 0 0-5-7 14-68 0 0-15 41-31 59 0 0-10 11-16-2 0 0-7-12-11-35 0 0 1 37-14 45 0 0-16 4-24 12 0 0-6 5-21-5 0 0 3 3 4 12 0 0 0 3 2 6 0 0 5 4 5 5 0 0-25-7-54-23 0 0 19 13 30 31 0 0 4 5-.3 8 0 0-8 9-7 25 0 0 2 10-11 11 0 0-7 1-19 3 0 0 17.7 1 27 7 0 0 4.2 3 1 7 0 0-3 4-15 15 0 0 12-1 21 1 0 0 4 0 7 5.6l14-31 1.4 41 14-21-5-7.8 21-13-22 1s-3.3-20 4.7-35l21.7 8-14-16s17-16 39-16h11v22l13-17.3s16 9 21.3 19l-10 11 15-1s3.3 4.7 3.3 18c0 0 1 32.8-33 49l-10-19-1.3 21-18.8.2z"/><path stroke="#000" stroke-miterlimit="10" d="M169 160.6S113 150 113 202l12.7 5.6L113 215s16.2 42.7 58 31.5l21 10.5-9.4-17.6s4.7-2.2 8.3-7.2L180 220l16.4 3.2s7.2-14 1.5-35.2l-5-.2 2-6.3s-5-10-19-17l-9 9.7 1-13.6z"/><path fill="#FFF" stroke="#FFF" stroke-miterlimit="10" d="M203.5 237.6s8 1 13.7 11.5c5.7 11 6.3-3 6.3-3s-13-5-15-15c-2.3-10-5 7-5 7z"/><path stroke="#000" stroke-miterlimit="10" d="M235.5 312.7l-19-21.7s24.7-28.4 59.8-20.2l-1.8 26.8 15.2-22.4s15.3 6.2 26.6 23.5l-11.7 12.5 16.7-2.6s21.7 51.6-34.7 81.7l-14.3-24.6L271 395s-44.6 3.6-64-36.8l23.4-15-27.7 1.4s-5.5-17 5-42.6l27.8 10.7z"/><circle cx="157.5" cy="203.3" r="31.7" fill="#B24B1D"/><circle cx="353.6" cy="146.8" r="25.8" fill="#B24B1D"/><circle cx="263.5" cy="330.2" r="21.6" fill="#B24B1D"/><circle cx="157.3" cy="203.6" r="15" fill="#FFF" stroke="#FFF" stroke-miterlimit="10"/><circle cx="353.4" cy="147" r="12.8" fill="#FFF" stroke="#FFF" stroke-miterlimit="10"/><circle cx="263.3" cy="330.4" r="10.9" fill="#FFF" stroke="#FFF" stroke-miterlimit="10"/></svg>