<?xml version="1.0" encoding="utf-8"?>
<!-- Generator: Adobe Illustrator 16.0.0, SVG Export Plug-In . SVG Version: 6.00 Build 0)  -->
<!DOCTYPE svg PUBLIC "-//W3C//DTD SVG 1.1//EN" "http://www.w3.org/Graphics/SVG/1.1/DTD/svg11.dtd">
<svg version="1.1" id="Layer_2" xmlns="http://www.w3.org/2000/svg" xmlns:xlink="http://www.w3.org/1999/xlink" x="0px" y="0px"
	 width="512px" height="512px" viewBox="0 0 512 512" enable-background="new 0 0 512 512" xml:space="preserve">
<g>
	<rect x="19" y="28" fill="#FFFFFF" stroke="#000000" stroke-width="2" stroke-miterlimit="10" width="479" height="479"/>
	<rect x="41.5" y="48.5" stroke="#000000" stroke-miterlimit="10" width="436" height="430"/>
	<rect x="56" y="63" fill="#409192" width="405" height="404"/>
	<path fill="none" stroke="#FF0000" stroke-miterlimit="10" d="M235.045,170.142"/>
	<path stroke="#000000" stroke-miterlimit="10" d="M299.795,192.884"/>
	<path stroke="#000000" stroke-miterlimit="10" d="M281.467,470.5c0,0-0.365-42.543,10.851-101.117c0,0-3.739,48.366,6.23,73.445
		c0,0,28.359-76.752,60.285-104.251c0,0-19.16-16.142-27.104-27.124l-1.402-1.53c7.478,5.374,33.882,20.441,33.882,20.441
		s45.931-9.699,78.045-54.215l-2.921,0.116c-36.92,0.467-67.997-8.529-67.997-8.529c43.111-0.467,87.04-9.347,87.04-9.347
		s41.469-33.238,46.5-107.721l0.7-16.473c0,0-61.415,51.173-96.114,62.739l0,0l41.385-30.62
		c51.057-44.396,61.404-72.66,61.404-72.66l-74.438-81.16c0,0,5.617,51.258-69.734,133.501
		c-62.442,68.152-77.577,12.618-77.577,12.618c-0.781-4.84-1.525-13.129-1.402-20.095c0,0,9.113-87.391,50.239-133.423
		c0,0-116.366,92.765-152.351,141.368c0,0,35.129-9.814,48.059-3.739c0,0,5.84,3.038,8.021,10.982c0,0,3.116,9.113-1.791,16.435
		c0,0-4.128,9.035-12.151,15.577c0,0-10.681,5.661-14.643,5.296c-30.026-2.765-67.296-41.125-67.296-41.125
		C71.166,68.263,76.463,10.625,76.463,10.625L2.026,91.785c0,0,10.348,28.264,61.403,72.661l41.385,30.62l0,0
		C70.115,183.5,8.7,132.326,8.7,132.326L9.401,148.8c5.032,74.482,46.5,107.72,46.5,107.72s43.929,8.88,87.04,9.347
		c0,0-31.078,8.996-67.997,8.528l-2.921-0.116c32.114,44.516,78.044,54.211,78.044,54.211s26.404-15.072,33.881-20.446l-1.402,1.519
		c-7.944,10.982-27.105,27.105-27.105,27.105c31.927,27.499,60.286,104.21,60.286,104.21c9.969-25.08,6.23-73.363,6.23-73.363
		c11.216,58.572,11.217,102.986,11.217,102.986H281.467z"/>
	<path stroke="#000000" stroke-miterlimit="10" d="M150.535,341.574"/>
	<path stroke="#000000" stroke-miterlimit="10" d="M7.708,106.319"/>
	<path fill="#FFFFFF" stroke="#FFFFFF" stroke-miterlimit="10" d="M330.067,186.342c0,0,91.286-45.02,113.251-158.581l61.688,68.23
		c0,0-48.604,81.783-173.848,126.647c0,0,95.803-7.478,167.771-75.708c0,0,0.935,66.993-45.798,103.596
		c0,0-55.612,15.106-125.245,6.227c0,0,46.266,21.498,100.943,24.301c0,0-29.441,34.115-63.09,40.191
		c0,0-28.508-12.619-55.146-35.985c0,0,17.76,34.583,39.257,52.809c0,0-39.257,45.331-50.939,86.924c0,0-6.075-29.332,0-97.095
		c0,0-23.834,23.602-23.834,157.602h-36.452c0-134-23.834-157.602-23.834-157.602c6.076,67.763,0,97.15,0,97.15
		c-11.683-41.594-50.939-86.952-50.939-86.952c21.498-18.226,39.256-52.822,39.256-52.822
		c-26.638,23.366-55.145,35.979-55.145,35.979c-33.648-6.076-63.09-40.195-63.09-40.195c54.678-2.804,100.944-24.303,100.944-24.303
		c-69.632,8.88-126.676-7.371-126.676-7.371c-46.733-36.603-43.9-105.257-43.9-105.257c71.969,68.23,167.305,78.512,167.305,78.512
		C57.302,177.775,8.7,93.966,8.7,93.966l61.688-66.206c21.964,113.562,115.431,161.697,115.431,161.697s36.14,21.342,53.898-2.492
		c0,0,27.261-29.287-1.246-51.718c0,0-19.106-6.432-34.894,2.181c0,0,70.567-73.215,102.345-91.441c0,0-23.056,52.497-25.393,97.361
		c0,0-1.089,33.804,19.007,43.618C299.537,186.965,315.944,195.071,330.067,186.342z"/>
</g>
</svg>
