<?xml version="1.0" encoding="UTF-8" ?>
<!DOCTYPE svg PUBLIC "-//W3C//DTD SVG 1.1//EN" "http://www.w3.org/Graphics/SVG/1.1/DTD/svg11.dtd">
<svg width="96pt" height="96pt" viewBox="0 0 96 96" version="1.1" xmlns="http://www.w3.org/2000/svg">
<g id="#000000ff">
<path fill="#000000" opacity="1.00" d=" M 71.76 2.60 C 74.72 5.70 77.21 9.19 79.86 12.55 C 80.81 13.79 81.77 15.02 82.72 16.25 C 84.17 18.18 85.79 19.99 86.96 22.10 C 84.42 26.40 86.35 31.45 84.85 36.03 C 84.37 37.91 83.68 39.75 82.69 41.42 C 81.59 43.55 79.55 45.44 79.82 48.02 C 79.82 58.30 79.82 68.58 79.84 78.86 C 70.04 78.83 60.24 78.98 50.45 78.76 C 51.89 70.63 51.73 61.92 55.63 54.44 C 54.16 59.95 53.58 65.78 54.63 71.42 C 56.11 66.52 57.98 61.61 61.70 57.92 C 59.23 55.19 57.07 52.19 55.32 48.95 C 58.02 51.50 60.98 53.77 64.27 55.51 C 67.28 53.66 70.28 51.78 73.09 49.64 C 67.51 48.85 62.01 47.52 56.72 45.60 C 63.28 45.75 70.07 46.61 76.43 44.57 C 80.27 41.12 82.64 36.05 83.00 30.91 C 75.12 35.97 66.56 40.85 57.03 41.62 C 67.38 37.92 77.13 31.77 83.63 22.76 C 81.95 19.41 79.91 16.27 77.63 13.30 C 74.55 24.11 65.69 32.49 55.98 37.62 C 54.19 36.20 52.15 34.81 51.33 32.57 C 49.38 28.05 51.47 23.21 52.63 18.77 C 48.97 21.62 45.43 24.62 41.64 27.30 C 43.24 27.59 46.49 26.54 46.82 29.04 C 47.86 33.17 44.55 36.32 41.46 38.38 C 31.12 33.55 22.49 24.15 20.24 12.77 C 17.37 15.83 14.67 19.07 12.40 22.60 C 19.04 31.92 29.29 37.96 40.01 41.46 C 29.96 41.08 21.08 35.99 12.79 30.81 C 13.59 35.80 15.66 40.80 19.52 44.19 C 25.94 46.46 32.90 45.85 39.57 45.49 C 34.23 47.63 28.58 48.84 22.91 49.67 C 25.82 51.74 28.88 53.57 31.96 55.36 C 35.12 53.56 38.10 51.48 40.94 49.24 C 39.12 52.33 37.02 55.26 34.63 57.94 C 38.44 61.59 40.43 66.52 42.01 71.44 C 42.85 65.88 41.52 60.35 41.40 54.80 C 44.36 62.44 44.62 70.74 45.65 78.77 C 35.96 78.99 26.28 78.80 16.59 78.88 C 16.57 68.58 16.60 58.28 16.60 47.97 C 16.85 45.62 14.96 43.92 13.90 42.02 C 11.19 37.54 10.32 32.12 10.97 26.96 C 11.53 24.95 9.77 23.51 8.90 21.91 C 10.28 20.09 11.80 18.36 13.40 16.73 C 14.83 15.31 16.19 13.82 17.59 12.37 C 20.33 9.44 22.44 5.98 25.28 3.14 C 25.07 6.30 24.56 9.42 24.24 12.57 C 24.15 13.47 24.07 14.38 23.99 15.29 C 33.41 15.49 42.83 15.26 52.26 15.41 C 53.28 14.47 54.30 13.52 55.30 12.54 C 56.69 11.15 58.13 9.80 59.74 8.66 C 59.27 9.97 58.77 11.27 58.25 12.56 C 57.88 13.49 57.50 14.42 57.11 15.35 C 62.49 15.37 67.87 15.39 73.24 15.33 C 73.17 14.65 73.01 13.28 72.93 12.59 C 72.53 9.26 71.94 5.95 71.76 2.60 M 25.27 18.21 C 28.50 25.99 34.43 32.81 42.22 36.25 C 44.48 34.52 45.98 32.04 45.97 29.14 C 43.20 28.76 40.44 29.16 37.73 29.72 C 41.14 25.51 45.66 22.36 49.10 18.17 C 41.15 18.28 33.21 18.24 25.27 18.21 M 56.12 18.26 C 54.25 23.60 50.72 30.88 56.01 35.41 C 63.22 31.86 69.24 25.77 72.26 18.28 C 66.88 18.21 61.50 18.26 56.12 18.26 M 19.10 49.13 C 19.74 58.09 19.36 67.12 19.36 76.11 C 27.56 76.23 35.77 76.29 43.97 76.07 C 43.99 75.27 44.05 73.68 44.07 72.88 C 43.01 73.30 42.07 73.94 41.31 74.80 C 40.44 70.74 39.52 66.49 36.88 63.17 C 34.85 60.46 31.87 58.75 29.10 56.92 C 25.53 54.63 22.33 51.85 19.10 49.13 M 62.84 59.92 C 58.22 63.45 56.68 69.22 54.70 74.38 C 54.26 73.68 53.39 72.29 52.96 71.59 C 52.93 72.89 50.42 75.91 52.95 76.10 C 61.01 76.34 69.07 76.11 77.13 76.17 C 76.95 67.20 77.64 58.16 76.77 49.24 C 72.69 53.51 67.58 56.50 62.84 59.92 Z" />
<path fill="#000000" opacity="1.00" d=" M 45.00 80.84 C 45.77 83.06 46.50 85.29 47.33 87.49 C 47.65 87.54 48.29 87.64 48.61 87.69 C 48.54 87.27 48.39 86.44 48.32 86.03 C 49.41 84.46 50.17 82.70 50.95 80.97 L 50.89 81.73 C 50.70 84.52 50.53 87.30 50.26 90.07 C 49.34 90.99 48.45 91.92 47.58 92.87 C 47.37 91.33 47.15 89.79 46.92 88.25 C 46.57 88.65 45.86 89.45 45.50 89.85 C 45.48 87.14 45.26 84.43 45.06 81.73 L 45.00 80.84 Z" />
</g>
<g id="#fdfefeff">
<path fill="#fdfefe" opacity="1.00" d=" M 13.91 12.69 C 15.14 12.59 16.36 12.50 17.59 12.37 C 16.19 13.82 14.83 15.31 13.40 16.73 C 13.58 15.38 13.79 14.04 13.91 12.69 Z" />
<path fill="#fdfefe" opacity="1.00" d=" M 23.99 15.29 C 24.07 14.38 24.15 13.47 24.24 12.57 C 34.59 12.59 44.95 12.65 55.30 12.54 C 54.30 13.52 53.28 14.47 52.26 15.41 C 42.83 15.26 33.41 15.49 23.99 15.29 Z" />
<path fill="#fdfefe" opacity="1.00" d=" M 58.25 12.56 C 63.14 12.63 68.03 12.58 72.93 12.59 C 73.01 13.28 73.17 14.65 73.24 15.33 C 67.87 15.39 62.49 15.37 57.11 15.35 C 57.50 14.42 57.88 13.49 58.25 12.56 Z" />
<path fill="#fdfefe" opacity="1.00" d=" M 79.86 12.55 C 80.59 12.57 82.04 12.60 82.77 12.61 C 82.76 13.83 82.74 15.04 82.72 16.25 C 81.77 15.02 80.81 13.79 79.86 12.55 Z" />
<path fill="#fdfefe" opacity="1.00" d=" M 12.40 22.60 C 14.67 19.07 17.37 15.83 20.24 12.77 C 22.49 24.15 31.12 33.55 41.46 38.38 C 44.55 36.32 47.86 33.17 46.82 29.04 C 46.49 26.54 43.24 27.59 41.64 27.30 C 45.43 24.62 48.97 21.62 52.63 18.77 C 51.47 23.21 49.38 28.05 51.33 32.57 C 52.15 34.81 54.19 36.20 55.98 37.62 C 65.69 32.49 74.55 24.11 77.63 13.30 C 79.91 16.27 81.95 19.41 83.63 22.76 C 77.13 31.77 67.38 37.92 57.03 41.62 C 66.56 40.85 75.12 35.97 83.00 30.91 C 82.64 36.05 80.27 41.12 76.43 44.57 C 70.07 46.61 63.28 45.75 56.72 45.60 C 62.01 47.52 67.51 48.85 73.09 49.64 C 70.28 51.78 67.28 53.66 64.27 55.51 C 60.98 53.77 58.02 51.50 55.32 48.95 C 57.07 52.19 59.23 55.19 61.70 57.92 C 57.98 61.61 56.11 66.52 54.63 71.42 C 53.58 65.78 54.16 59.95 55.63 54.44 C 51.73 61.92 51.89 70.63 50.45 78.76 C 60.24 78.98 70.04 78.83 79.84 78.86 C 79.82 68.58 79.82 58.30 79.82 48.02 C 79.55 45.44 81.59 43.55 82.69 41.42 C 82.83 54.84 82.68 68.26 82.77 81.68 C 72.14 81.72 61.51 81.63 50.89 81.73 L 50.95 80.97 C 50.17 82.70 49.41 84.46 48.32 86.03 C 48.39 86.44 48.54 87.27 48.61 87.69 C 48.29 87.64 47.65 87.54 47.33 87.49 C 46.50 85.29 45.77 83.06 45.00 80.84 L 45.06 81.73 C 34.64 81.63 24.22 81.71 13.79 81.68 C 13.87 68.46 13.66 55.24 13.90 42.02 C 14.96 43.92 16.85 45.62 16.60 47.97 C 16.60 58.28 16.57 68.58 16.59 78.88 C 26.28 78.80 35.96 78.99 45.65 78.77 C 44.62 70.74 44.36 62.44 41.40 54.80 C 41.52 60.35 42.85 65.88 42.01 71.44 C 40.43 66.52 38.44 61.59 34.63 57.94 C 37.02 55.26 39.12 52.33 40.94 49.24 C 38.10 51.48 35.12 53.56 31.96 55.36 C 28.88 53.57 25.82 51.74 22.91 49.67 C 28.58 48.84 34.23 47.63 39.57 45.49 C 32.90 45.85 25.94 46.46 19.52 44.19 C 15.66 40.80 13.59 35.80 12.79 30.81 C 21.08 35.99 29.96 41.08 40.01 41.46 C 29.29 37.96 19.04 31.92 12.40 22.60 Z" />
</g>
<g id="#539c98ff">
<path fill="#539c98" opacity="1.00" d=" M 25.27 18.21 C 33.21 18.24 41.15 18.28 49.10 18.17 C 45.66 22.36 41.14 25.51 37.73 29.72 C 40.44 29.16 43.20 28.76 45.97 29.14 C 45.98 32.04 44.48 34.52 42.22 36.25 C 34.43 32.81 28.50 25.99 25.27 18.21 Z" />
<path fill="#539c98" opacity="1.00" d=" M 56.12 18.26 C 61.50 18.26 66.88 18.21 72.26 18.28 C 69.24 25.77 63.22 31.86 56.01 35.41 C 50.72 30.88 54.25 23.60 56.12 18.26 Z" />
<path fill="#539c98" opacity="1.00" d=" M 19.10 49.13 C 22.33 51.85 25.53 54.63 29.10 56.92 C 31.87 58.75 34.85 60.46 36.88 63.17 C 39.52 66.49 40.44 70.74 41.31 74.80 C 42.07 73.94 43.01 73.30 44.07 72.88 C 44.05 73.68 43.99 75.27 43.97 76.07 C 35.77 76.29 27.56 76.23 19.36 76.11 C 19.36 67.12 19.74 58.09 19.10 49.13 Z" />
<path fill="#539c98" opacity="1.00" d=" M 62.84 59.92 C 67.58 56.50 72.69 53.51 76.77 49.24 C 77.64 58.16 76.95 67.20 77.13 76.17 C 69.07 76.11 61.01 76.34 52.95 76.10 C 50.42 75.91 52.93 72.89 52.96 71.59 C 53.39 72.29 54.26 73.68 54.70 74.38 C 56.68 69.22 58.22 63.45 62.84 59.92 Z" />
</g>
</svg>
