<svg version="1" xmlns="http://www.w3.org/2000/svg" width="461.333" height="461.333" viewBox="0 0 346.000000 346.000000"><path d="M0 173v173h346V0H0v173zm168 0v105h-7V68h7v105zM67.7 109.3c7.1 2.4 10.7 5.7 14.5 13.4 2.9 5.9 3.2 7.6 3.6 17.8.4 10.9-.6 20.4-3.1 29-.7 2.6-3 5.9-6.5 9.3l-5.5 5.4 3.8 14.1c3.5 13.2 9.5 33.9 11 38 .7 1.6-.2 1.7-12.6 1.5l-13.3-.3-7-25.8-6.9-25.7H39v52H14V106.8l24.3.4c19.3.4 25.2.8 29.4 2.1zm81.3 63.2V238h-12.5c-12.9 0-15.8-1-8.4-3 5.5-1.5 12.1-8.2 14.3-14.6 2.8-8.3 4-23.6 2.8-37.5-1.8-20.3-5-27.2-15-32-8.6-4.2-28.5-2.6-34.4 2.8-1.7 1.5-1.8 1.2-1.8-7.5 0-11.6 1.7-16.4 6.7-18.7 6.7-3.2 14.9-.5 17.9 5.9l1.6 3.3 9.7-2.3c5.3-1.3 10.6-2.6 11.8-2.9 2-.5 2.1-.8 1.1-4.2-2-7.3-7.9-14.3-15.3-18.1l-4-2.1 12.8-.1H149v65.5zm87.8-63.1c6.8 2.2 13.3 8.1 16.3 14.9l2.4 5.2V172c0 36.9-.2 43-1.6 46-2.6 5.7-10.4 13.5-15.6 15.8-7.2 3-20.7 4.4-40.3 4l-17.5-.3-.3-65.3-.2-65.3 25.7.3c21.1.4 26.8.7 31.1 2.2zm78.5.5c12.2 4.8 15.8 10.7 16.5 27 .6 14.2-.8 20-6.3 25.8l-4.3 4.5 4.8 4.6c6.3 6.1 7.4 11.4 6.8 30.2-.6 16.5-2.7 23-9 28.4-7.3 6.2-10.4 6.9-38 7.4-23.6.4-24.8.3-24.8-1.4 0-1.1-.1-30.6-.2-65.7l-.3-63.9 24.5.4c22.6.4 24.9.6 30.3 2.7zm-196.6 61.3c3.1 3.2 4.8 14.4 3.9 27-1 15.3-4.3 19.8-14.5 19.8-6.1 0-10.6-3.3-12.1-9-.6-2.1-1.1-10.4-1.3-18.4-.2-13.3 0-14.7 1.9-17.3 3.3-4.4 6.1-5.5 13.3-5 5 .4 6.8 1 8.8 2.9z"/><path d="M39 146.4V166h7c7.7 0 10.9-1.1 13-4.3 1.7-2.7 2.4-16.1 1.3-24.1-1.1-7.8-3.3-9.5-13.6-10.3l-7.7-.6v19.7zM206 172.6v44.6l8.8-.4c10.1-.5 12.4-1.6 14.9-7.2 1.6-3.6 1.8-7.4 1.8-37.6 0-31.5-.1-33.7-2-37.5-2.7-5.3-5.4-6.5-15.2-6.5H206v44.6zM285 142v16h7.5c12.7 0 14.5-2.1 14.5-16.7 0-8.3-.1-8.6-3.4-11.9-3.3-3.3-3.7-3.4-11-3.4H285v16zM285 198v20.2l8.5-.3c7.7-.4 8.7-.7 11.2-3.2 2.6-2.6 2.8-3.3 3.1-13.5.6-19.3-1.1-22-14.7-22.9l-8.1-.6V198z"/></svg>