<?xml version="1.0" standalone="no"?>
<!DOCTYPE svg PUBLIC "-//W3C//DTD SVG 20010904//EN"
 "http://www.w3.org/TR/2001/REC-SVG-20010904/DTD/svg10.dtd">
<svg version="1.0" xmlns="http://www.w3.org/2000/svg"
 width="512.000000pt" height="512.000000pt" viewBox="0 0 512.000000 512.000000"
 preserveAspectRatio="xMidYMid meet">
<metadata>
Created by potrace 1.11, written by Peter Selinger 2001-2013
</metadata>
<g transform="translate(0.000000,512.000000) scale(0.100000,-0.100000)"
fill="#000000" stroke="none">
<path d="M1559 5119 c-1 -2 -2 -527 -3 -1165 l-2 -1161 36 20 c40 22 185 106
215 124 11 7 27 16 35 20 8 4 71 40 139 80 67 40 124 73 126 73 2 0 36 19 77
43 40 24 93 55 118 69 25 14 96 55 159 92 62 36 115 66 116 66 2 0 131 75 205
119 49 30 380 220 414 238 23 12 46 26 51 31 6 5 15 11 21 13 5 2 76 42 156
89 122 71 143 86 129 96 -9 6 -92 55 -186 109 -93 54 -183 106 -200 115 -34
20 -145 84 -190 110 -16 9 -88 51 -160 92 -71 42 -146 85 -165 96 -19 11 -75
43 -125 72 -49 29 -106 62 -125 73 -19 10 -96 54 -170 97 -74 43 -153 88 -175
100 -22 12 -65 37 -95 55 -168 100 -210 125 -215 125 -2 0 -34 18 -70 40 -36
22 -68 40 -72 40 -3 0 -15 7 -25 17 -10 9 -19 14 -19 12z"/>
<path d="M3425 3645 c-70 -41 -130 -75 -132 -75 -2 0 -22 -11 -44 -26 -22 -14
-55 -33 -72 -43 -173 -97 -224 -127 -235 -138 -7 -7 -17 -13 -22 -13 -4 0 -54
-27 -109 -60 -56 -33 -103 -60 -106 -60 -3 0 -29 -16 -59 -35 -30 -19 -57 -35
-60 -35 -2 0 -48 -26 -103 -58 -54 -32 -118 -70 -143 -84 -73 -41 -362 -208
-400 -232 -19 -11 -37 -21 -40 -21 -3 0 -16 -8 -30 -16 -34 -22 -183 -109
-252 -148 -32 -18 -58 -36 -58 -41 0 -5 75 -52 168 -105 92 -53 174 -100 182
-105 28 -18 286 -166 300 -174 8 -4 24 -12 35 -19 11 -7 58 -34 105 -61 47
-26 99 -56 115 -66 194 -114 482 -279 525 -303 30 -16 66 -37 80 -47 14 -9 32
-20 40 -24 8 -4 24 -12 35 -19 11 -7 74 -43 140 -81 66 -38 132 -77 148 -88
15 -11 27 -16 27 -12 0 4 8 0 18 -8 15 -14 76 -48 84 -48 2 0 4 522 4 1160 0
638 -3 1160 -6 1160 -3 0 -64 -34 -135 -75z"/>
<path d="M1559 2319 c-1 -8 -2 -532 -3 -1166 l-1 -1151 20 10 c11 6 61 34 110
63 50 29 106 62 125 73 68 39 226 130 315 182 50 28 108 62 130 75 81 46 303
174 336 194 19 12 46 26 62 32 15 6 27 15 27 20 0 5 4 9 9 9 10 0 279 153 298
170 7 5 15 10 18 10 4 0 44 23 91 50 47 28 89 50 94 50 6 0 10 5 10 10 0 6 4
10 9 10 5 0 75 39 157 86 82 48 162 93 177 102 16 8 27 15 25 17 -2 2 -73 43
-158 92 -85 50 -231 134 -325 188 -93 54 -201 116 -240 138 -38 22 -151 87
-250 145 -99 58 -205 119 -235 135 -30 17 -78 46 -107 64 -29 18 -54 33 -57
33 -3 0 -27 13 -54 29 -27 16 -76 44 -108 62 -33 17 -62 37 -66 43 -4 6 -8 7
-8 3 0 -5 -12 1 -26 12 -15 12 -33 21 -40 21 -8 0 -14 4 -14 9 0 5 -8 11 -17
15 -10 3 -25 10 -33 15 -8 6 -64 38 -125 72 -60 35 -118 69 -127 77 -15 13
-18 13 -19 1z"/>
</g>
</svg>
