<?xml version="1.0" encoding="utf-8"?>
<!-- Generator: Adobe Illustrator 16.0.2, SVG Export Plug-In . SVG Version: 6.00 Build 0)  -->
<!DOCTYPE svg PUBLIC "-//W3C//DTD SVG 1.1//EN" "http://www.w3.org/Graphics/SVG/1.1/DTD/svg11.dtd">
<svg version="1.1" id="Ranks" xmlns="http://www.w3.org/2000/svg" xmlns:xlink="http://www.w3.org/1999/xlink" x="0px" y="0px"
	 width="242.38px" height="242.38px" viewBox="0 0 242.38 242.38" enable-background="new 0 0 242.38 242.38" xml:space="preserve">
<g>
	<g>
		<path fill="#1C1F24" d="M173.84,61.1l-52.36-10.93c-0.54-0.11-1.1-0.11-1.63,0L67.49,61.1c-1.85,0.39-3.18,2.02-3.18,3.92v67.92
			c0,1.57,0.62,38.84,54.46,67.88c0.59,0.32,1.25,0.48,1.9,0.48s1.31-0.16,1.9-0.48c53.84-29.04,54.46-66.31,54.46-67.88V65.01
			C177.03,63.12,175.7,61.48,173.84,61.1z"/>
	</g>
	<g>
		<path fill="#333740" d="M120.61,62.26l44.36,9.37v61.31c0,0.07-0.24,7.54-5.64,17.89c-5.17,9.93-16.06,24.23-38.72,37.31
			c-17.64-10.18-30.8-22.69-38.21-36.35c-5.78-10.65-6.13-18.48-6.15-18.91V71.63L120.61,62.26 M120.61,54.08L68.25,65.14v67.79
			c0,0,0,36.12,52.36,64.36c52.36-28.24,52.36-64.36,52.36-64.36V65.14L120.61,54.08z"/>
	</g>
	<g>
			<rect x="59.45" y="109.42" transform="matrix(0.7071 0.7071 -0.7071 0.7071 114.4121 -52.3794)" fill="#333740" width="121.97" height="5"/>
	</g>
	<g>
			<rect x="117.93" y="50.93" transform="matrix(0.7071 0.7071 -0.7071 0.7071 114.4121 -52.3794)" fill="#333740" width="5" height="121.97"/>
	</g>
</g>
</svg>
