<svg xmlns="http://www.w3.org/2000/svg" xmlns:xlink="http://www.w3.org/1999/xlink" width="500" height="500" viewBox="0 0 500 500"><symbol id="a" viewBox="-250.5 -250.36 501 501"><path fill="none" stroke="#C8C8C8" stroke-width="10" stroke-linecap="round" stroke-linejoin="round" stroke-miterlimit="10" d="M141.62 99.36c5.5 0 10 4.5 10 10v22.81c0 5.5-4.5 10-10 10h-283.23c-5.5 0-10-4.5-10-10v-22.81c0-5.5 4.5-10 10-10h283.23z"/><path fill="none" d="M29.66 203.5L-.92 172.92-31.5 203.5h-141.71V80.84h344.58V203.5z"/><path fill="#7C2B00" d="M-135-122.7L0-200.64l135 77.94v230.54h-270z"/><path fill="none" stroke="#C8C8C8" stroke-width="10" stroke-linecap="round" stroke-linejoin="round" stroke-miterlimit="10" d="M0 142.17l-28.59 40.68L0 199.36l28.59-16.51z"/><path opacity=".5" fill="#7C2B00" d="M-122.53-130.96l43.44-26.58-26.91 26.89V69.32h-16.53v-200.28zM106 69.32V-132.4l-29.52-26.73 46.04 28.16V69.32H106z"/><path opacity=".25" fill="#7C2B00" d="M-106 68.4v39.44h-16.53v-39.5m245.06 0v39.5H106V68.05"/></symbol><symbol id="b" viewBox="-250.5 -250.5 501 501"><path opacity=".25" d="M67.5-87.55V37.03h-135V-87.55L0-126.53z"/><path d="M73.61-65.63v173.47H-73.62V-65.63L0-108.13z"/><path d="M-45.02-47.67v93.9h17.7v-93.9h-17.7zm60.05-.3l-17.7 94.2h17.7l6.9-39.3 3.15-21.9 3 21.75 7.05 39.45h17.1l-17.55-94.2H15.03z" fill="#FFF"/><path fill="none" d="M135 99.25L0 99.36l-135-.11v-222.09L0-200.78l135 77.94z"/></symbol><use xlink:href="#a" width="501" height="501" x="-250.5" y="-250.36" transform="matrix(1 0 0 -1 256.5 252.334)" overflow="visible"/><use xlink:href="#b" width="501" height="501" x="-250.5" y="-250.5" transform="matrix(1 0 0 -1 256.5 252.334)" overflow="visible"/></svg>