<?xml version="1.0" encoding="utf-8"?>
<!-- Generator: Adobe Illustrator 16.0.2, SVG Export Plug-In . SVG Version: 6.00 Build 0)  -->
<!DOCTYPE svg PUBLIC "-//W3C//DTD SVG 1.1//EN" "http://www.w3.org/Graphics/SVG/1.1/DTD/svg11.dtd">
<svg version="1.1" id="Ranks" xmlns="http://www.w3.org/2000/svg" xmlns:xlink="http://www.w3.org/1999/xlink" x="0px" y="0px"
	 width="242.38px" height="242.38px" viewBox="0 0 242.38 242.38" enable-background="new 0 0 242.38 242.38" xml:space="preserve">
<g>
	<g>
		<polygon fill="#A6A8AB" points="161.56,153.72 174.65,180.05 122.23,201.38 		"/>
	</g>
	<g>
		<path fill="#A6A8AB" d="M122.24,205.38c-1.24,0-2.45-0.58-3.22-1.63c-1.08-1.48-1.03-3.5,0.14-4.91l39.33-47.66
			c0.86-1.04,2.2-1.58,3.54-1.43c1.35,0.15,2.52,0.98,3.13,2.19l13.09,26.33c0.5,1,0.55,2.15,0.16,3.2
			c-0.39,1.04-1.2,1.87-2.23,2.29l-52.41,21.33C123.25,205.28,122.74,205.38,122.24,205.38z M160.72,161.02l-25.32,30.68
			l33.74-13.73L160.72,161.02z"/>
	</g>
	<g>
		<polygon fill="#A6A8AB" points="83.02,153.72 69.93,180.05 122.34,201.38 		"/>
	</g>
	<g>
		<path fill="#A6A8AB" d="M122.34,205.38c-0.51,0-1.02-0.1-1.51-0.29l-52.41-21.33c-1.03-0.42-1.84-1.25-2.23-2.29
			c-0.39-1.04-0.34-2.2,0.16-3.2l13.09-26.33c0.6-1.21,1.78-2.04,3.13-2.19c1.35-0.15,2.68,0.38,3.54,1.43l39.33,47.66
			c1.17,1.41,1.22,3.44,0.14,4.91C124.79,204.8,123.58,205.38,122.34,205.38z M75.43,177.97l33.74,13.73l-25.32-30.68L75.43,177.97z
			"/>
	</g>
	<g>
		<path fill="#231F20" d="M167.39,165.32L167.39,165.32c-6.7,11.73-23.19,24.62-33.44,31.29l40.7-16.69L167.39,165.32z"/>
	</g>
	<g>
		<path fill="#231F20" d="M77.18,165.32L77.18,165.32c6.7,11.73,23.19,24.62,33.44,31.29l-40.7-16.69L77.18,165.32z"/>
	</g>
	<g>
		<path fill="#A6A8AB" d="M122.37,43.52L70.01,53.87v6.04v4.21v23v44.79c0,0,0,36.12,52.36,64.36
			c52.36-28.24,52.36-64.36,52.36-64.36V64.12v-4.21v-6.04L122.37,43.52z"/>
	</g>
	<g>
		<path fill="#A6A8AB" d="M122.37,200.27c-0.65,0-1.31-0.16-1.9-0.48c-53.84-29.04-54.46-66.31-54.46-67.88V53.87
			c0-1.91,1.35-3.55,3.22-3.92l52.36-10.35c0.51-0.1,1.04-0.1,1.55,0l52.36,10.35c1.87,0.37,3.22,2.01,3.22,3.92v78.04
			c0,1.57-0.62,38.84-54.46,67.88C123.68,200.11,123.02,200.27,122.37,200.27z M74.01,57.16v74.76c0.01,1.35,0.89,33.38,48.36,59.8
			c47.8-26.62,48.36-59.47,48.36-59.8V57.16l-48.36-9.56L74.01,57.16z"/>
	</g>
	<g>
		<path fill="#231F20" d="M122.31,61.24l44.36,9.37v61.31c0,0.07-0.24,7.54-5.64,17.89c-5.17,9.93-16.06,24.23-38.72,37.31
			c-17.64-10.18-30.8-22.69-38.21-36.35c-5.78-10.65-6.13-18.48-6.15-18.91V70.61L122.31,61.24 M122.31,53.07L69.95,64.13v67.79
			c0,0,0,36.12,52.36,64.36c52.36-28.24,52.36-64.36,52.36-64.36V64.13L122.31,53.07z"/>
	</g>
	<g>
		<polygon fill="#A6A8AB" points="195.44,93.77 184.72,100.16 152.33,117.16 126.29,164.51 165.61,133.66 178.97,137.31 		"/>
	</g>
	<g>
		<path fill="#A6A8AB" d="M126.29,168.51c-0.92,0-1.84-0.32-2.59-0.95c-1.45-1.23-1.83-3.31-0.92-4.98l26.04-47.35
			c0.38-0.69,0.95-1.25,1.65-1.61l32.29-16.95l10.62-6.34c1.46-0.87,3.31-0.73,4.62,0.37c1.3,1.09,1.78,2.89,1.17,4.48l-16.47,43.55
			c-0.73,1.93-2.81,2.98-4.8,2.44l-11.41-3.12l-37.74,29.61C128.04,168.23,127.16,168.51,126.29,168.51z M155.26,120.14
			l-16.02,29.12l23.9-18.75c1-0.78,2.3-1.04,3.52-0.71l9.84,2.69l11.13-29.42l-0.87,0.52c-0.06,0.04-0.13,0.07-0.19,0.11
			L155.26,120.14z"/>
	</g>
	<g>
		<polygon fill="#A6A8AB" points="49.19,93.77 59.9,100.16 92.29,117.16 118.33,164.51 79.01,133.66 65.66,137.31 		"/>
	</g>
	<g>
		<path fill="#A6A8AB" d="M118.33,168.51c-0.87,0-1.74-0.28-2.47-0.85l-37.74-29.61l-11.41,3.12c-1.99,0.54-4.07-0.51-4.8-2.44
			L45.45,95.18c-0.6-1.59-0.13-3.39,1.17-4.48c1.3-1.09,3.16-1.24,4.62-0.37l10.62,6.34l32.29,16.95c0.7,0.37,1.27,0.93,1.65,1.61
			l26.04,47.35c0.92,1.67,0.53,3.75-0.92,4.98C120.18,168.19,119.25,168.51,118.33,168.51z M79.01,129.66
			c0.89,0,1.76,0.29,2.47,0.85l23.9,18.75l-16.02-29.12L58.04,103.7c-0.06-0.03-0.13-0.07-0.19-0.11l-0.87-0.52l11.13,29.42
			l9.84-2.69C78.3,129.71,78.66,129.66,79.01,129.66z"/>
	</g>
	<g>
		<polygon fill="#231F20" points="174.73,59.91 122.37,49.55 70.01,59.91 70.01,53.87 122.37,43.52 174.73,53.87 		"/>
	</g>
	<g>
		<polygon fill="#231F20" points="142.96,121.46 183,99.82 168.92,128.47 156.98,128.47 167.88,131.21 130.43,160.89 		"/>
	</g>
	<g>
		<path fill="#A6A8AB" d="M180.72,102.19l-12.42,25.28h-19.38l16.75,4.22l-33.3,26.39l11.42-35.93L180.72,102.19z M185.27,97.45
			l-5.51,2.98l-36.93,19.96l-0.71,0.38l-0.25,0.77l-11.42,35.93l-1.98,6.24l5.13-4.07l33.3-26.38l3.18-2.52l-3.93-0.99l-1.12-0.28
			h3.26h1.25l0.55-1.12l12.42-25.28L185.27,97.45z"/>
	</g>
	<g>
		<path fill="#231F20" d="M176.1,134.56c8.72-10.95,14.68-23.72,16.26-38.9l-7.59,4.5c-1.69,11.34-7.64,22.46-15.98,32.39
			L176.1,134.56z"/>
	</g>
	<g>
		<polygon fill="#231F20" points="76.99,131.21 87.89,128.46 75.95,128.46 61.87,99.82 101.91,121.46 114.44,160.89 		"/>
	</g>
	<g>
		<path fill="#A6A8AB" d="M64.15,102.19l36.93,19.96l11.42,35.93l-33.3-26.39l16.75-4.22H76.57L64.15,102.19z M59.59,97.45
			l2.76,5.62l12.42,25.28l0.55,1.12h1.25h3.26l-1.12,0.28l-3.93,0.99l3.18,2.52l33.3,26.38l5.13,4.07l-1.98-6.24l-11.42-35.93
			l-0.24-0.77l-0.71-0.38L65.1,100.43L59.59,97.45z"/>
	</g>
	<g>
		<path fill="#231F20" d="M68.76,134.56c-8.72-10.95-14.68-23.72-16.26-38.9l7.59,4.5c1.69,11.34,7.64,22.46,15.98,32.39
			L68.76,134.56z"/>
	</g>
	<g>
		<path fill="#231F20" d="M122.29,176.08l-7.49-15.5V98.94h14.98v61.64L122.29,176.08z M119.8,159.44l2.49,5.15l2.49-5.15v-55.5
			h-4.98V159.44z"/>
	</g>
	<g>
		<rect x="108.57" y="98.94" fill="#231F20" width="27.44" height="5"/>
	</g>
	<g>
		<path fill="#231F20" d="M130.1,97.53h-15.63l1.89-15.39L112,77.77l10.29-10.29l10.29,10.29l-4.37,4.37L130.1,97.53z M120.13,92.53
			h4.33l-1.5-12.2l2.56-2.56l-3.22-3.22l-3.22,3.22l2.56,2.56L120.13,92.53z"/>
	</g>
	<g>
		<polygon fill="#231F20" points="162.09,95.51 142.73,118.15 162.09,107.08 		"/>
	</g>
	<g>
		<polygon fill="#231F20" points="82.38,95.51 101.73,118.15 82.38,107.08 		"/>
	</g>
</g>
</svg>
