<?xml version="1.0" encoding="utf-8"?>
<!-- Generator: Adobe Illustrator 16.0.2, SVG Export Plug-In . SVG Version: 6.00 Build 0)  -->
<!DOCTYPE svg PUBLIC "-//W3C//DTD SVG 1.1//EN" "http://www.w3.org/Graphics/SVG/1.1/DTD/svg11.dtd">
<svg version="1.1" id="Ranks" xmlns="http://www.w3.org/2000/svg" xmlns:xlink="http://www.w3.org/1999/xlink" x="0px" y="0px"
	 width="242.38px" height="242.38px" viewBox="0 0 242.38 242.38" enable-background="new 0 0 242.38 242.38" xml:space="preserve">
<g>
	<g>
		<polygon fill="#A6A8AB" points="161.52,153.72 174.61,180.05 122.19,201.38 		"/>
	</g>
	<g>
		<path fill="#A6A8AB" d="M122.19,205.38c-1.24,0-2.45-0.58-3.22-1.63c-1.08-1.48-1.03-3.5,0.14-4.91l39.32-47.66
			c0.86-1.04,2.19-1.58,3.54-1.43c1.35,0.15,2.52,0.98,3.13,2.19l13.09,26.33c0.5,1,0.55,2.15,0.16,3.2s-1.2,1.87-2.23,2.29
			l-52.41,21.33C123.21,205.28,122.7,205.38,122.19,205.38z M160.68,161.02l-25.32,30.68l33.74-13.73L160.68,161.02z"/>
	</g>
	<g>
		<polygon fill="#A6A8AB" points="82.97,153.72 69.89,180.05 122.3,201.38 		"/>
	</g>
	<g>
		<path fill="#A6A8AB" d="M122.3,205.38c-0.51,0-1.02-0.1-1.51-0.29l-52.41-21.33c-1.03-0.42-1.84-1.25-2.23-2.29
			s-0.34-2.2,0.16-3.2l13.09-26.33c0.6-1.21,1.78-2.04,3.13-2.19c1.35-0.16,2.68,0.38,3.54,1.43l39.32,47.66
			c1.17,1.41,1.22,3.44,0.14,4.91C124.75,204.8,123.54,205.38,122.3,205.38z M75.39,177.97l33.74,13.73l-25.32-30.68L75.39,177.97z"
			/>
	</g>
	<g>
		<path fill="#231F20" d="M167.35,165.32L167.35,165.32c-6.7,11.73-23.19,24.62-33.44,31.29l40.7-16.69L167.35,165.32z"/>
	</g>
	<g>
		<path fill="#231F20" d="M77.14,165.32L77.14,165.32c6.7,11.73,23.19,24.62,33.44,31.29l-40.7-16.69L77.14,165.32z"/>
	</g>
	<g>
		<polygon fill="#231F20" points="129.54,152.2 137.63,126.72 163.83,112.56 153.15,133.49 		"/>
	</g>
	<g>
		<polygon fill="#231F20" points="115.86,152.2 107.76,126.72 81.57,112.56 92.24,133.49 		"/>
	</g>
	<g>
		<path fill="#A6A8AB" d="M122.3,43.52L69.94,53.87v6.04v4.21v23v44.79c0,0,0,36.12,52.36,64.36
			c52.36-28.24,52.36-64.36,52.36-64.36V64.12v-4.21v-6.04L122.3,43.52z"/>
	</g>
	<g>
		<path fill="#A6A8AB" d="M122.3,200.27c-0.65,0-1.31-0.16-1.9-0.48c-53.84-29.04-54.46-66.31-54.46-67.88V53.87
			c0-1.91,1.35-3.55,3.22-3.92l52.36-10.35c0.51-0.1,1.04-0.1,1.55,0l52.36,10.35c1.87,0.37,3.22,2.01,3.22,3.92v78.04
			c0,1.57-0.62,38.84-54.46,67.88C123.61,200.11,122.96,200.27,122.3,200.27z M73.94,57.16v74.76c0.01,1.35,0.89,33.38,48.36,59.8
			c47.47-26.42,48.35-58.45,48.36-59.82V57.16l-48.36-9.56L73.94,57.16z"/>
	</g>
	<g>
		<polygon fill="#231F20" points="174.66,59.91 122.3,49.55 69.94,59.91 69.94,53.87 122.3,43.52 174.66,53.87 		"/>
	</g>
	<g>
		<path fill="#231F20" d="M122.25,61.24l44.36,9.37v61.31c0,0.07-0.24,7.54-5.64,17.89c-5.17,9.93-16.06,24.23-38.72,37.31
			c-17.64-10.18-30.8-22.69-38.21-36.35c-5.78-10.65-6.13-18.48-6.14-18.91V70.61L122.25,61.24 M122.25,53.07L69.89,64.13v67.79
			c0,0,0,36.12,52.36,64.36c52.36-28.24,52.36-64.36,52.36-64.36V64.13L122.25,53.07z"/>
	</g>
	<g>
		<path fill="#231F20" d="M122.4,176.08l-7.49-15.5V98.94h14.98v61.64L122.4,176.08z M119.91,159.44l2.49,5.15l2.49-5.15v-55.5
			h-4.98V159.44z"/>
	</g>
	<g>
		<rect x="108.68" y="98.94" fill="#231F20" width="27.44" height="5"/>
	</g>
	<g>
		<path fill="#231F20" d="M130.21,97.53h-15.63l1.89-15.39l-4.37-4.37l10.29-10.29l10.29,10.29l-4.37,4.37L130.21,97.53z
			 M120.24,92.53h4.33l-1.5-12.2l2.56-2.56l-3.22-3.22l-3.22,3.22l2.56,2.56L120.24,92.53z"/>
	</g>
	<g>
		<polygon fill="#231F20" points="139.97,129.38 134.35,134.19 134.08,126.8 149.24,92.21 155.13,94.79 		"/>
	</g>
	<g>
		
			<rect x="143.34" y="92" transform="matrix(0.9159 0.4013 -0.4013 0.9159 50.3195 -53.2167)" fill="#231F20" width="17.69" height="3"/>
	</g>
	<g>
		<polygon fill="#231F20" points="162.3,81.27 160.06,75.53 154.32,77.77 155.47,80.71 150.9,88.42 156.79,91 159.36,82.42 		"/>
	</g>
	<g>
		<polygon fill="#231F20" points="104.83,129.38 110.45,134.19 110.72,126.8 95.56,92.21 89.67,94.79 		"/>
	</g>
	<g>
		
			<rect x="91.12" y="84.65" transform="matrix(0.4011 0.9161 -0.9161 0.4011 141.1221 -28.8394)" fill="#231F20" width="3" height="17.69"/>
	</g>
	<g>
		<polygon fill="#231F20" points="82.5,81.27 84.74,75.53 90.48,77.77 89.33,80.71 93.9,88.42 88.01,91 85.44,82.42 		"/>
	</g>
	<g>
		<polygon fill="#A6A8AB" points="49.16,102.97 59.87,109.36 92.26,126.36 118.3,173.71 69.63,156.51 		"/>
	</g>
	<g>
		<path fill="#A6A8AB" d="M118.3,177.71c-0.45,0-0.9-0.07-1.33-0.23l-48.68-17.2c-1.11-0.39-1.99-1.25-2.4-2.34L45.42,104.4
			c-0.61-1.59-0.14-3.39,1.16-4.49c1.3-1.09,3.16-1.25,4.62-0.37l10.62,6.34l32.29,16.95c0.69,0.37,1.27,0.93,1.65,1.61l26.04,47.35
			c0.8,1.45,0.62,3.25-0.46,4.52C120.58,177.21,119.46,177.71,118.3,177.71z M72.71,153.36l37.04,13.08l-20.41-37.1L58.01,112.9
			c-0.06-0.03-0.13-0.07-0.19-0.11l-0.81-0.48L72.71,153.36z"/>
	</g>
	<g>
		<polygon fill="#A6A8AB" points="195.45,102.97 184.73,109.36 152.35,126.36 126.3,173.71 174.98,156.51 		"/>
	</g>
	<g>
		<path fill="#A6A8AB" d="M126.3,177.71c-1.15,0-2.28-0.5-3.05-1.41c-1.07-1.27-1.25-3.06-0.46-4.52l26.04-47.35
			c0.38-0.69,0.95-1.25,1.65-1.61l32.29-16.95l10.62-6.34c1.46-0.87,3.32-0.72,4.62,0.37c1.3,1.1,1.77,2.9,1.16,4.49l-20.47,53.55
			c-0.42,1.1-1.3,1.95-2.4,2.34l-48.68,17.2C127.2,177.64,126.75,177.71,126.3,177.71z M155.27,129.34l-20.41,37.1l37.04-13.08
			l15.69-41.04l-0.81,0.48c-0.06,0.04-0.13,0.07-0.19,0.11L155.27,129.34z"/>
	</g>
	<g>
		<path fill="#231F20" d="M150.35,167.07c21.93-15.21,39.09-34.76,41.95-62.21l-7.59,4.5c-3.11,20.78-20.46,40.83-40.79,54.17
			L150.35,167.07z"/>
	</g>
	<g>
		<polygon fill="#231F20" points="142.89,130.66 182.93,109.02 168.85,137.67 156.91,137.67 167.57,140.36 153.33,154.32 
			146.85,153.53 151.38,156.23 130.51,169.61 		"/>
	</g>
	<g>
		<path fill="#A6A8AB" d="M180.65,111.39l-12.42,25.28h-19.38l16.75,4.22l-12.63,12.38l-10.69-1.29l7.19,4.29l-17.18,11.01
			l11.42-35.93L180.65,111.39z M185.21,106.65l-5.51,2.98l-36.93,19.96l-0.71,0.38l-0.24,0.77l-11.42,35.93l-1.68,5.28l4.66-2.99
			l17.17-11.01l2.72-1.74l-1.87-1.11l1.32,0.16l0.95,0.12l0.69-0.67L167,142.32l2.55-2.5l-3.46-0.87l-1.13-0.28h3.26h1.24l0.55-1.12
			l12.42-25.28L185.21,106.65z"/>
	</g>
	<g>
		<path fill="#231F20" d="M94.26,167.07c-21.93-15.21-39.1-34.76-41.95-62.21l7.59,4.5c3.11,20.78,20.46,40.83,40.79,54.17
			L94.26,167.07z"/>
	</g>
	<g>
		<polygon fill="#231F20" points="93.23,156.23 97.76,153.53 91.27,154.32 77.03,140.36 87.7,137.67 75.76,137.67 61.68,109.02 
			101.71,130.66 114.1,169.61 		"/>
	</g>
	<g>
		<path fill="#A6A8AB" d="M63.96,111.39l36.93,19.96l11.42,35.93l-17.17-11.01l7.19-4.29l-10.69,1.29L79,140.89l16.75-4.22H76.38
			L63.96,111.39z M59.4,106.65l2.76,5.62l12.42,25.28l0.55,1.12h1.25h3.26l-1.12,0.28l-3.46,0.87l2.54,2.5l12.63,12.38l0.69,0.67
			l0.96-0.12l1.32-0.16l-1.87,1.11l2.72,1.74l17.18,11.01l4.66,2.99l-1.68-5.28l-11.42-35.93l-0.25-0.77l-0.71-0.38l-36.93-19.96
			L59.4,106.65z"/>
	</g>
	<g>
		<polygon fill="#A6A8AB" points="112.3,167.27 81.27,156.97 93.2,168.69 		"/>
	</g>
	<g>
		<polygon fill="#A6A8AB" points="132.3,167.27 163.34,156.97 151.4,168.69 		"/>
	</g>
	<g>
		<polygon fill="#231F20" points="162.05,104.51 147.69,124.15 162.05,116.08 		"/>
	</g>
	<g>
		<polygon fill="#231F20" points="82.34,104.51 96.69,124.15 82.34,116.08 		"/>
	</g>
</g>
</svg>
