<?xml version="1.0" encoding="utf-8"?>
<!-- Generator: Adobe Illustrator 16.0.2, SVG Export Plug-In . SVG Version: 6.00 Build 0)  -->
<!DOCTYPE svg PUBLIC "-//W3C//DTD SVG 1.1//EN" "http://www.w3.org/Graphics/SVG/1.1/DTD/svg11.dtd">
<svg version="1.1" id="Ranks" xmlns="http://www.w3.org/2000/svg" xmlns:xlink="http://www.w3.org/1999/xlink" x="0px" y="0px"
	 width="242.38px" height="242.38px" viewBox="0 0 242.38 242.38" enable-background="new 0 0 242.38 242.38" xml:space="preserve">
<g>
	<g>
		<polygon fill="#E6BE32" points="189.84,133.08 179.12,139.47 146.73,156.47 120.69,201.82 120.69,231.09 174.97,199.67 
			168.36,192.63 		"/>
	</g>
	<g>
		<path fill="#E6BE32" d="M120.69,235.09c-0.69,0-1.38-0.18-2-0.53c-1.24-0.71-2-2.04-2-3.47v-29.27c0-0.7,0.18-1.39,0.53-1.99
			l26.04-45.35c0.38-0.66,0.94-1.2,1.61-1.55l32.29-16.95l10.62-6.34c1.45-0.87,3.29-0.73,4.59,0.35c1.3,1.08,1.79,2.85,1.22,4.44
			l-20.64,57.24l4.93,5.25c0.83,0.89,1.22,2.11,1.04,3.32c-0.18,1.21-0.9,2.27-1.95,2.88l-54.28,31.43
			C122.08,234.91,121.38,235.09,120.69,235.09z M124.69,202.89v21.26l43.91-25.43l-3.16-3.36c-1.03-1.1-1.36-2.68-0.85-4.09
			l17.68-49.02l-1.11,0.66c-0.06,0.04-0.13,0.07-0.19,0.11l-31.36,16.46L124.69,202.89z"/>
	</g>
	<g>
		<polygon fill="#E6BE32" points="51.41,133.08 62.13,139.47 94.51,156.47 120.56,201.82 120.56,231.09 66.28,199.67 72.88,192.63 
					"/>
	</g>
	<g>
		<path fill="#E6BE32" d="M120.56,235.09c-0.69,0-1.38-0.18-2-0.54l-54.28-31.43c-1.06-0.61-1.77-1.67-1.95-2.88
			c-0.18-1.21,0.21-2.43,1.04-3.32l4.93-5.25l-20.64-57.24c-0.57-1.59-0.09-3.37,1.22-4.44c1.3-1.08,3.14-1.21,4.59-0.35l10.62,6.34
			l32.29,16.95c0.67,0.35,1.23,0.89,1.61,1.55l26.04,45.35c0.35,0.61,0.53,1.29,0.53,1.99v29.27c0,1.43-0.76,2.75-2,3.47
			C121.94,234.92,121.25,235.09,120.56,235.09z M72.64,198.73l43.91,25.43v-21.26l-24.93-43.42l-31.36-16.46
			c-0.06-0.03-0.13-0.07-0.19-0.11l-1.11-0.66l17.68,49.02c0.51,1.42,0.18,3-0.85,4.09L72.64,198.73z"/>
	</g>
	<g>
		<path fill="#E6BE32" d="M125.94,34.87c2.91-4.55,4.07-9,3.44-13.29c-1.05-7.22-6.85-11.04-7.1-11.2l-1.63-1.05l-1.63,1.05
			c-0.25,0.16-6.04,3.98-7.09,11.2c-0.62,4.29,0.54,8.75,3.45,13.29l-47.08,9.7v5.89v4.43v6.04v4.21v23v44.79
			c0,0,0,36.12,52.36,64.36c52.36-28.24,52.36-64.36,52.36-64.36V65.14v-4.21v-6.04v-4.27v-5.89L125.94,34.87z"/>
	</g>
	<g>
		<path fill="#E6BE32" d="M120.67,201.29c-0.65,0-1.31-0.16-1.9-0.48c-53.84-29.04-54.46-66.31-54.46-67.88V44.56
			c0-1.9,1.33-3.53,3.19-3.92L109.42,32c-1.48-3.7-1.96-7.39-1.43-11.01c1.28-8.84,8.1-13.48,8.87-13.98l1.63-1.05
			c1.32-0.86,3.02-0.86,4.35,0l1.63,1.05c0.77,0.5,7.6,5.13,8.89,13.99c0.53,3.63,0.04,7.32-1.44,11.03l41.94,8.78
			c1.85,0.39,3.18,2.02,3.18,3.92v88.21c0,1.57-0.62,38.84-54.46,67.88C121.97,201.13,121.32,201.29,120.67,201.29z M72.31,47.82
			v85.11c0.01,1.35,0.89,33.38,48.36,59.8c47.47-26.42,48.35-58.45,48.36-59.82V47.97l-43.9-9.19c-1.29-0.27-2.36-1.15-2.87-2.37
			c-0.51-1.21-0.39-2.6,0.32-3.71c2.38-3.71,3.34-7.26,2.86-10.56c-0.62-4.24-3.54-7.01-4.77-8.01c-1.23,0.99-4.14,3.76-4.76,8
			c-0.48,3.3,0.48,6.85,2.86,10.56c0.71,1.11,0.83,2.5,0.32,3.71c-0.51,1.21-1.59,2.1-2.88,2.36L72.31,47.82z"/>
	</g>
	<g>
		<polygon fill="#231F20" points="70.37,201.82 94.62,187.82 90.95,185.48 66.36,199.67 		"/>
	</g>
	<g>
		<polygon fill="#231F20" points="173.03,60.92 120.67,50.57 68.31,60.92 68.31,54.89 120.67,44.53 173.03,54.89 		"/>
	</g>
	<g>
		<polygon fill="#231F20" points="170.96,201.82 146.71,187.82 150.38,185.48 174.97,199.67 		"/>
	</g>
	<g>
		<path fill="#231F20" d="M68.31,50.45v-5.89l47.08-9.7c-2.91-4.55-4.07-9-3.45-13.29c1.05-7.21,6.84-11.04,7.09-11.2l1.63-1.05
			l1.63,1.05c0.25,0.16,6.05,3.98,7.1,11.2c0.63,4.29-0.53,8.75-3.44,13.29l47.08,9.85v5.89L120.66,40.1L68.31,50.45z M120.66,16.87
			c-1.11,1.2-2.44,3.11-2.79,5.63c-0.4,2.9,0.54,6.08,2.8,9.48c2.26-3.4,3.19-6.57,2.79-9.47
			C123.11,19.98,121.78,18.07,120.66,16.87"/>
	</g>
	<g>
		<polygon fill="#231F20" points="120.67,231.09 166.74,204.08 143,190.17 137.29,193.77 154.88,204.08 120.67,224.14 86.46,204.08 
			104.03,193.79 98.31,190.18 74.59,204.08 		"/>
	</g>
	<g>
		<path fill="#231F20" d="M152.47,191.24c15.61-12.39,31.36-28.81,34.21-56.27l-7.58,4.5c-3.11,20.78-18.33,37.26-32.45,48.4
			L152.47,191.24z"/>
	</g>
	<g>
		<path fill="#231F20" d="M88.86,191.24l5.83-3.37c-14.13-11.14-29.35-27.62-32.45-48.4l-7.59-4.5
			C57.5,162.43,73.25,178.85,88.86,191.24"/>
	</g>
	<g>
		<path fill="#231F20" d="M120.61,62.26l44.36,9.37v61.3c0,0.07-0.24,7.54-5.64,17.89c-5.17,9.93-16.06,24.23-38.72,37.31
			c-17.64-10.18-30.8-22.69-38.21-36.35c-5.78-10.65-6.13-18.48-6.15-18.91V71.63L120.61,62.26 M120.61,54.08L68.25,65.14v67.79
			c0,0,0,36.12,52.36,64.36c52.36-28.24,52.36-64.36,52.36-64.36V65.14L120.61,54.08z"/>
	</g>
	<g>
		<polygon fill="#231F20" points="121.19,185.84 137.41,160.7 177.32,139.13 163.24,167.78 151.3,167.78 161.96,170.47 
			147.7,184.45 140.16,183.09 145.82,186.35 134.7,193.21 		"/>
	</g>
	<g>
		<path fill="#E6BE32" d="M175.04,141.5l-12.42,25.28h-19.38l16.75,4.22l-12.63,12.38l-12.69-2.29l9.19,5.29l-9.19,5.68l-12.06-6.58
			l15.5-24.02L175.04,141.5z M179.59,136.77l-5.51,2.98l-36.93,19.96l-0.45,0.24l-0.28,0.43l-15.49,24.02l-1.17,1.81l1.89,1.03
			l12.06,6.58l1.02,0.56l0.99-0.61l9.19-5.68l2.85-1.76l-2.11-1.21l1.35,0.24l1.02,0.18l0.74-0.72l12.63-12.38l2.55-2.5l-3.46-0.87
			l-1.12-0.28h3.26h1.25l0.55-1.12l12.42-25.28L179.59,136.77z"/>
	</g>
	<g>
		<polygon fill="#231F20" points="94.96,186.35 100.61,183.09 93.08,184.45 78.82,170.47 89.48,167.78 77.54,167.78 63.46,139.13 
			103.37,160.7 119.59,185.84 106.08,193.21 		"/>
	</g>
	<g>
		<path fill="#E6BE32" d="M65.74,141.5l36.93,19.96l15.5,24.02l-12.06,6.58l-9.19-5.68l9.19-5.29l-12.69,2.29L80.79,171l16.75-4.22
			H78.16L65.74,141.5z M61.18,136.77l2.76,5.62l12.42,25.28l0.55,1.12h1.25h3.26l-1.12,0.28l-3.46,0.87l2.55,2.5l12.63,12.38
			l0.74,0.72l1.02-0.18l1.35-0.24l-2.11,1.21l2.85,1.76l9.19,5.68l0.99,0.61l1.02-0.56l12.06-6.58l1.89-1.03l-1.17-1.81
			l-15.49-24.02l-0.28-0.43l-0.45-0.24l-36.93-19.96L61.18,136.77z"/>
	</g>
	<g>
		<polygon fill="#231F20" points="160.85,147.01 120.56,82.23 80.26,147.01 76.02,144.37 120.56,72.76 165.09,144.37 		"/>
	</g>
	<g>
		<polygon fill="#E6BE32" points="112.98,195.06 112.98,143.41 127.96,143.41 127.96,195.06 120.47,210.56 		"/>
	</g>
	<g>
		<path fill="#E6BE32" d="M125.46,145.91v48.58l-4.99,10.32l-4.99-10.32v-48.58H125.46z M130.46,140.91h-5h-9.98h-5v5v48.58v1.15
			l0.5,1.03l4.99,10.32l4.5,9.31l4.5-9.31l4.99-10.32l0.5-1.03v-1.15v-48.58V140.91z"/>
	</g>
	<g>
		<path fill="#231F20" d="M120.47,209.41l-6.99-14.46v-51.04h13.98v51.04L120.47,209.41z M117.48,194.03l2.99,6.19l2.99-6.19v-46.12
			h-5.98V194.03z"/>
	</g>
	<g>
		<path fill="#231F20" d="M99.84,145.08c-0.59,0-0.92-0.02-0.92-0.02l-2.35-0.14l4.26-18.81l18.13,7.55l-0.68,1.81
			C114.92,144.38,103.31,145.08,99.84,145.08z M103.67,131.63l-2.13,9.39c3.39-0.21,9.34-1.18,12.1-5.24L103.67,131.63z"/>
	</g>
	<g>
		<path fill="#231F20" d="M141.29,145.08c-1.39,0-5.12-0.18-9.72-1.82c-4.57-1.63-7.56-4.25-8.89-7.79l-0.68-1.81l18.13-7.55
			l4.26,18.77l-2.32,0.18C142.06,145.06,141.79,145.08,141.29,145.08z M127.35,135.76c1.15,1.57,3.02,2.82,5.56,3.73
			c2.63,0.94,4.9,1.33,6.48,1.48l-2.12-9.35L127.35,135.76z"/>
	</g>
	<g>
		<path fill="#231F20" d="M127.94,128.85h-14.5l1.85-15.07l-4.19-4.19l9.58-9.58l9.59,9.58l-4.19,4.19L127.94,128.85z
			 M117.96,124.85h5.46l-1.54-12.52l2.74-2.74l-3.93-3.93l-3.93,3.93l2.74,2.74L117.96,124.85z"/>
	</g>
</g>
</svg>
