<svg xmlns="http://www.w3.org/2000/svg" xmlns:xlink="http://www.w3.org/1999/xlink" width="500" height="500" viewBox="0 0 500 500"><symbol id="b" viewBox="-250.5 -250.36 501 501"><path fill="none" stroke="#C8C8C8" stroke-width="10" stroke-linecap="round" stroke-linejoin="round" stroke-miterlimit="10" d="M141.83 99.57c5.5 0 10 4.5 10 10v22.81c0 5.5-4.5 10-10 10H-141.4c-5.5 0-10-4.5-10-10v-22.81c0-5.5 4.5-10 10-10h283.23z"/><path fill="#CC932F" d="M-135-200.64l135 30 135-30v308.48h-270z"/><path fill="#CC932F" d="M122.53 107.84V70.38h-245.06v38.52"/><path fill="#EDAF35" d="M135.04-200.64v15.19L0-155.45l-135.04-30v-15.19L0-170.64z"/><path fill="#EDAF35" d="M-122.53-129.9L0-200.64l122.53 70.74V70.38h-245.06z"/><path opacity=".25" fill="#231F20" d="M-122.53 39.7H-135v10.75h12.47zM135 39.7h-12.47v10.75H135zM-122.53-149.84l60.07-34.68 24.94 5.54-85.01 49.08v-19.94zm160.05-29.14l24.94-5.54 60.07 34.68v19.94l-85.01-49.08z"/><path fill="#FFC364" d="M124.41-128.82L0-200.64l-124.41 71.82L0-204.74z"/><path fill="#EDAF35" d="M-122.53-129.9l43.44-26.58-26.91 26.89V70.38h-16.53V-129.9zM106 70.38v-201.72l-29.52-26.73 46.04 28.16V70.38H106z"/><g fill="#EDAF35"><path d="M-10.47 89.64L0 95.69l10.47-6.05V-194.6L0-200.64l-10.47 6.04zM40.47 89.64l10.47 6.05 10.47-6.05v-254.83l-10.47-6.04-10.47-6.05zM-61.41 89.64l10.47 6.05 10.47-6.05v-266.92l-10.47 6.05-10.47 6.04z"/></g><path fill="#CC932F" d="M124.41-129.9v34L0-24.08-124.41-95.9v-34L0-58.08z"/><path opacity=".25" fill="#231F20" d="M-124.41-129.9L0-58.08l124.41-71.82L0-66.34z"/><path fill="#FFF" d="M-124.41-129.9L0-58.08l124.41-71.82L0-53.98z"/><path fill="#EDAF35" d="M-106-119.28v34l-8.5-4.91v-34.31m229.5.34v33.69l-9 5.2v-34"/><g><path fill="none" stroke="#231F20" stroke-width="10" stroke-linejoin="round" stroke-miterlimit="10" d="M74.36 56.76h6.32c3.48 0 6.32 4.5 6.32 10v22.81c0 5.5-4.5 10-10 10H-76.57c-5.5 0-10-4.5-10-10V66.76c0-5.5 2.79-10 6.19-10h6.19M75.56 142.38H42.99" opacity=".25"/><path fill="none" stroke="#C8C8C8" stroke-width="10" stroke-linecap="round" stroke-linejoin="round" stroke-miterlimit="10" d="M59.44 142.38v-22.81M59.44 142.38l-19.72 28.06 5.19 2.99 25.86-14.93z"/><path fill="none" stroke="#231F20" stroke-width="10" stroke-linejoin="round" stroke-miterlimit="10" d="M16.12 142.38h-32.57" opacity=".25"/><path fill="none" stroke="#FFF" stroke-width="10" stroke-linecap="round" stroke-linejoin="round" stroke-miterlimit="10" d="M0 142.38v-22.81M0 142.38l-28.28 40.24L0 198.96l28.29-16.34z"/><g><path fill="none" stroke="#231F20" stroke-width="10" stroke-linejoin="round" stroke-miterlimit="10" d="M-43.32 142.38h-32.57" opacity=".25"/><path fill="none" stroke="#C8C8C8" stroke-width="10" stroke-linecap="round" stroke-linejoin="round" stroke-miterlimit="10" d="M-59.44 142.38v-22.81M-59.44 142.38l-11.33 16.12 25.86 14.93 5.19-2.99z"/></g><g><path fill="none" stroke="#C8C8C8" stroke-width="10" stroke-linejoin="round" stroke-miterlimit="10" d="M74.36 76.76h6.32c3.48 0 6.32 4.5 6.32 10v22.81c0 5.5-4.5 10-10 10H-76.57c-5.5 0-10-4.5-10-10V86.76c0-5.5 2.79-10 6.19-10h6.19"/></g></g><path opacity=".25" fill="#EDAF35" d="M-106 68.4v39.44h-16.53v-39.5m245.06 0v39.5H106V68.05"/></symbol><symbol id="c" viewBox="-250.5 -250.5 501 501"><path opacity=".25" d="M67.5-87.55V37.03h-135V-87.55L0-126.53z"/><path d="M73.61-65.63v173.47H-73.62V-65.63L0-108.13z"/><g fill="#FFF"><path d="M-45.02-47.67v93.9h17.7v-93.9h-17.7zM15.03-47.97l-17.7 94.2h17.7l6.9-39.3 3.15-21.9 3 21.75 7.05 39.45h17.1l-17.55-94.2H15.03z"/></g><path fill="none" d="M135 99.25L0 99.36l-135-.11v-222.09L0-200.78l135 77.94z"/></symbol><symbol id="a" viewBox="-251.5 -251.36 503 503"><path fill="none" stroke="#231F20" stroke-width="3" stroke-miterlimit="10" d="M250-249.86h-500v500h500zM-250 250.14l500-500M250 250.14l-500-500"/><path fill="none" stroke="#F00" stroke-width="10" stroke-miterlimit="10" d="M-173.21 99.36L0 199.36l173.21-100v-200L0-200.64l-173.21 100z"/></symbol><g transform="matrix(1 0 0 -1 256.5 252.334)"><use xlink:href="#b" width="501" height="501" x="-250.5" y="-250.36" overflow="visible"/><use xlink:href="#c" width="501" height="501" x="-250.5" y="-250.5" overflow="visible"/></g></svg>