<?xml version="1.0" encoding="utf-8"?>
<!-- Generator: Adobe Illustrator 16.0.2, SVG Export Plug-In . SVG Version: 6.00 Build 0)  -->
<!DOCTYPE svg PUBLIC "-//W3C//DTD SVG 1.1//EN" "http://www.w3.org/Graphics/SVG/1.1/DTD/svg11.dtd">
<svg version="1.1" id="Ranks" xmlns="http://www.w3.org/2000/svg" xmlns:xlink="http://www.w3.org/1999/xlink" x="0px" y="0px"
	 width="242.38px" height="242.38px" viewBox="0 0 242.38 242.38" enable-background="new 0 0 242.38 242.38" xml:space="preserve">
<g>
	<g>
		<polygon fill="#E6BE32" points="191.61,133.08 180.9,139.47 148.51,156.47 122.46,201.82 122.46,231.09 176.74,199.67 
			170.14,192.63 		"/>
	</g>
	<g>
		<path fill="#E6BE32" d="M122.46,235.09c-0.69,0-1.38-0.18-2-0.53c-1.24-0.71-2-2.04-2-3.47v-29.27c0-0.7,0.18-1.39,0.53-1.99
			l26.04-45.35c0.38-0.66,0.94-1.2,1.61-1.55l32.29-16.95l10.62-6.34c1.45-0.87,3.29-0.73,4.59,0.35c1.3,1.08,1.79,2.85,1.22,4.44
			l-20.64,57.24l4.93,5.25c0.83,0.89,1.22,2.11,1.04,3.32c-0.18,1.21-0.9,2.27-1.95,2.88l-54.28,31.43
			C123.85,234.91,123.16,235.09,122.46,235.09z M126.46,202.89v21.26l43.92-25.43l-3.16-3.36c-1.03-1.1-1.36-2.68-0.85-4.09
			l17.68-49.02l-1.11,0.66c-0.06,0.04-0.13,0.07-0.19,0.11l-31.36,16.46L126.46,202.89z"/>
	</g>
	<g>
		<polygon fill="#E6BE32" points="53.19,133.08 63.9,139.47 96.29,156.47 122.33,201.82 122.33,231.09 68.05,199.67 74.66,192.63 		
			"/>
	</g>
	<g>
		<path fill="#E6BE32" d="M122.33,235.09c-0.69,0-1.38-0.18-2-0.54l-54.28-31.43c-1.06-0.61-1.77-1.67-1.95-2.88
			c-0.18-1.21,0.21-2.43,1.04-3.32l4.93-5.25l-20.64-57.24c-0.57-1.59-0.09-3.37,1.22-4.44c1.3-1.08,3.14-1.21,4.59-0.35l10.62,6.34
			l32.29,16.95c0.67,0.35,1.23,0.89,1.61,1.55l26.04,45.35c0.35,0.61,0.53,1.29,0.53,1.99v29.27c0,1.43-0.76,2.75-2,3.47
			C123.71,234.92,123.02,235.09,122.33,235.09z M74.42,198.73l43.91,25.43v-21.26L93.4,159.47l-31.36-16.46
			c-0.06-0.03-0.13-0.07-0.19-0.11l-1.11-0.66l17.68,49.02c0.51,1.42,0.18,3-0.85,4.09L74.42,198.73z"/>
	</g>
	<g>
		<path fill="#E6BE32" d="M127.73,34.87c2.91-4.55,4.07-9,3.44-13.29c-1.05-7.22-6.85-11.04-7.1-11.2l-1.63-1.05l-1.63,1.05
			c-0.25,0.16-6.04,3.98-7.09,11.2c-0.62,4.29,0.54,8.75,3.45,13.29l-47.08,9.7v5.89v4.43v6.04v4.21v23v44.79
			c0,0,0,36.12,52.36,64.36c52.36-28.24,52.36-64.36,52.36-64.36V65.14v-4.21v-6.04v-4.27v-5.89L127.73,34.87z"/>
	</g>
	<g>
		<path fill="#E6BE32" d="M122.46,201.29c-0.65,0-1.31-0.16-1.9-0.48C66.72,171.77,66.1,134.5,66.1,132.93V44.56
			c0-1.9,1.33-3.53,3.19-3.92L111.21,32c-1.48-3.7-1.96-7.39-1.43-11.01c1.28-8.84,8.1-13.48,8.87-13.98l1.63-1.05
			c1.32-0.86,3.02-0.86,4.35,0l1.63,1.05c0.77,0.5,7.6,5.13,8.89,13.98c0.53,3.63,0.05,7.32-1.44,11.03l41.94,8.78
			c1.85,0.39,3.18,2.02,3.18,3.92v88.21c0,1.57-0.62,38.84-54.46,67.88C123.76,201.13,123.11,201.29,122.46,201.29z M74.1,47.82
			v85.11c0.01,1.35,0.89,33.38,48.36,59.8c47.47-26.42,48.35-58.45,48.36-59.82V47.97l-43.9-9.19c-1.29-0.27-2.36-1.15-2.87-2.37
			c-0.51-1.21-0.39-2.6,0.32-3.71c2.38-3.71,3.34-7.26,2.86-10.56c-0.62-4.24-3.54-7.01-4.77-8.01c-1.23,0.99-4.14,3.76-4.76,8
			c-0.48,3.3,0.48,6.85,2.86,10.56c0.71,1.11,0.83,2.5,0.32,3.71c-0.51,1.21-1.59,2.1-2.88,2.36L74.1,47.82z"/>
	</g>
	<g>
		<polygon fill="#231F20" points="72.16,201.82 96.41,187.82 92.74,185.48 68.15,199.67 		"/>
	</g>
	<g>
		<polygon fill="#231F20" points="174.82,60.92 122.46,50.57 70.1,60.92 70.1,54.89 122.46,44.53 174.82,54.89 		"/>
	</g>
	<g>
		<polygon fill="#231F20" points="172.75,201.82 148.5,187.82 152.17,185.48 176.76,199.67 		"/>
	</g>
	<g>
		<path fill="#231F20" d="M70.1,50.45v-5.89l47.08-9.7c-2.91-4.55-4.07-9-3.45-13.29c1.05-7.21,6.84-11.04,7.09-11.2l1.63-1.05
			l1.63,1.05c0.25,0.16,6.05,3.98,7.1,11.2c0.63,4.29-0.53,8.75-3.45,13.29l47.08,9.85v5.89L122.45,40.1L70.1,50.45z M122.45,16.87
			c-1.11,1.2-2.44,3.11-2.79,5.63c-0.4,2.9,0.54,6.08,2.8,9.48c2.26-3.4,3.19-6.57,2.79-9.47C124.9,19.98,123.57,18.07,122.45,16.87
			"/>
	</g>
	<g>
		<polygon fill="#231F20" points="122.46,231.09 168.53,204.08 144.79,190.17 139.08,193.77 156.67,204.08 122.46,224.14 
			88.25,204.08 105.81,193.79 100.1,190.18 76.38,204.08 		"/>
	</g>
	<g>
		<path fill="#231F20" d="M154.26,191.24c15.61-12.39,31.36-28.81,34.21-56.27l-7.58,4.5c-3.11,20.78-18.33,37.26-32.45,48.4
			L154.26,191.24z"/>
	</g>
	<g>
		<path fill="#231F20" d="M90.65,191.24l5.83-3.37c-14.13-11.14-29.35-27.62-32.45-48.4l-7.59-4.5
			C59.29,162.43,75.04,178.85,90.65,191.24"/>
	</g>
	<g>
		<path fill="#231F20" d="M122.4,62.26l44.36,9.37v61.3c0,0.07-0.24,7.54-5.64,17.89c-5.17,9.93-16.06,24.23-38.72,37.31
			c-17.64-10.18-30.8-22.69-38.21-36.35c-5.78-10.65-6.13-18.48-6.15-18.91V71.63L122.4,62.26 M122.4,54.08L70.04,65.14v67.79
			c0,0,0,36.12,52.36,64.36c52.36-28.24,52.36-64.36,52.36-64.36V65.14L122.4,54.08z"/>
	</g>
	<g>
		<polygon fill="#FDBE10" points="122.64,183.5 108.66,190.17 122.64,199.88 136.7,190.17 		"/>
	</g>
	<g>
		<polygon fill="#231F20" points="123.22,185.84 139.44,160.7 179.34,139.13 165.26,167.78 153.32,167.78 163.99,170.47 
			149.72,184.45 142.19,183.09 147.84,186.35 136.73,193.21 		"/>
	</g>
	<g>
		<path fill="#E6BE32" d="M177.06,141.5l-12.42,25.28h-19.38l16.75,4.22l-12.63,12.38l-12.69-2.29l9.19,5.29l-9.19,5.68l-12.06-6.58
			l15.5-24.02L177.06,141.5z M181.62,136.77l-5.51,2.98l-36.93,19.96l-0.45,0.24l-0.28,0.43l-15.5,24.02l-1.17,1.81l1.89,1.03
			l12.06,6.58l1.02,0.56l0.99-0.61l9.19-5.68l2.85-1.76l-2.11-1.21l1.35,0.24l1.02,0.18l0.74-0.72l12.63-12.38l2.55-2.5l-3.46-0.87
			l-1.12-0.28h3.26h1.25l0.55-1.12l12.42-25.28L181.62,136.77z"/>
	</g>
	<g>
		<polygon fill="#231F20" points="96.99,186.35 102.64,183.09 95.11,184.45 80.84,170.47 91.51,167.78 79.57,167.78 65.49,139.13 
			105.4,160.7 121.61,185.84 108.1,193.21 		"/>
	</g>
	<g>
		<path fill="#E6BE32" d="M67.77,141.5l36.93,19.96l15.5,24.02l-12.06,6.58l-9.19-5.68l9.19-5.29l-12.69,2.29L82.82,171l16.75-4.22
			H80.19L67.77,141.5z M63.21,136.77l2.76,5.62l12.42,25.28l0.55,1.12h1.25h3.26l-1.12,0.28l-3.46,0.87l2.55,2.5l12.63,12.38
			l0.74,0.72l1.02-0.18l1.35-0.24l-2.11,1.21l2.85,1.76l9.19,5.68l0.99,0.61l1.02-0.56l12.06-6.58l1.89-1.03l-1.17-1.81
			l-15.49-24.02l-0.28-0.43l-0.45-0.24l-36.93-19.96L63.21,136.77z"/>
	</g>
	<g>
		<polygon fill="#231F20" points="127.88,190.14 122.4,187.17 116.91,190.14 109.33,203.03 122.4,210.2 135.47,203.03 		"/>
	</g>
	<g>
		<path fill="#231F20" d="M100.62,130.08c-0.59,0-0.92-0.02-0.92-0.02l-2.35-0.14l4.26-18.81l18.13,7.55l-0.68,1.81
			C115.7,129.38,104.09,130.08,100.62,130.08z M104.45,116.63l-2.13,9.39c3.4-0.21,9.34-1.18,12.1-5.24L104.45,116.63z"/>
	</g>
	<g>
		<path fill="#231F20" d="M122.25,139.92l-7.69-3.63l7.69-17.06l7.69,17.06L122.25,139.92z M119.82,134.35l2.43,1.15l2.43-1.15
			l-2.43-5.39L119.82,134.35z"/>
	</g>
	<g>
		<path fill="#231F20" d="M144.07,130.08c-1.39,0-5.12-0.18-9.72-1.82c-4.57-1.63-7.56-4.25-8.89-7.79l-0.68-1.81l18.13-7.55
			l4.26,18.77l-2.32,0.18C144.84,130.06,144.57,130.08,144.07,130.08z M130.13,120.76c1.15,1.57,3.02,2.82,5.56,3.73
			c2.63,0.94,4.9,1.33,6.48,1.48l-2.12-9.35L130.13,120.76z"/>
	</g>
	<g>
		<polygon fill="#231F20" points="161.08,117.21 159.84,104.84 151.33,84.93 148.98,99.1 		"/>
	</g>
	<g>
		<polygon fill="#231F20" points="83.76,117.21 84.99,104.84 93.51,84.93 95.85,99.1 		"/>
	</g>
	<g>
		<path fill="#231F20" d="M122.25,182.53l-37.83-56.85l37.83-56.85l37.83,56.85L122.25,182.53z M90.43,125.69l31.82,47.82
			l31.82-47.82l-31.82-47.82L90.43,125.69z"/>
	</g>
	<g>
		<path fill="#231F20" d="M122.74,181.75l-6.96-10.61l-4.42-28.62h22.65l-4.43,28.06L122.74,181.75z M119.6,169.68l3.02,4.61
			l3.13-5.11l3.57-22.65h-13.31L119.6,169.68z"/>
	</g>
</g>
</svg>
