<?xml version="1.0" encoding="utf-8"?>
<!-- Generator: Adobe Illustrator 16.0.0, SVG Export Plug-In . SVG Version: 6.00 Build 0)  -->
<!DOCTYPE svg PUBLIC "-//W3C//DTD SVG 1.1//EN" "http://www.w3.org/Graphics/SVG/1.1/DTD/svg11.dtd">
<svg version="1.1" xmlns="http://www.w3.org/2000/svg" xmlns:xlink="http://www.w3.org/1999/xlink" x="0px" y="0px" width="500px"
	 height="500px" viewBox="0 0 500 500" enable-background="new 0 0 500 500" xml:space="preserve">
<symbol  id="League_x5F_Gold" viewBox="-250.5 -250.36 501 501">
	<g>
		<path fill="none" stroke="#C8C8C8" stroke-width="10" stroke-linecap="round" stroke-linejoin="round" stroke-miterlimit="10" d="
			M141.83,99.57c5.5,0,10,4.5,10,10v22.81c0,5.5-4.5,10-10,10H-141.4c-5.5,0-10-4.5-10-10v-22.81c0-5.5,4.5-10,10-10H141.83z"/>
	</g>
	<polygon opacity="0" fill="#EDAF35" points="173.21,-100.64 0,-200.64 -173.21,-100.64 -173.21,99.36 0,199.36 173.21,99.36 	"/>
	<polygon opacity="0" fill="none" stroke="#231F20" stroke-miterlimit="10" points="250,-249.86 -250,-249.86 -250,250.14 
		250,250.14 	"/>
	<polygon fill="#CC932F" points="-135,-200.64 0,-170.64 135,-200.64 135,107.84 -135,107.84 	"/>
	<polyline fill="#CC932F" points="122.53,107.84 122.53,70.38 -122.53,70.38 -122.53,108.9 	"/>
	<polygon fill="#EDAF35" points="135.04,-200.64 135.04,-185.45 0,-155.45 -135.04,-185.45 -135.04,-200.64 0,-170.64 	"/>
	<polygon fill="#EDAF35" points="-122.53,-129.9 0,-200.64 122.53,-129.9 122.53,70.38 -122.53,70.38 	"/>
	<polygon opacity="0.25" fill="#231F20" points="-122.53,39.7 -135,39.7 -135,50.45 -122.53,50.45 	"/>
	<polygon opacity="0.25" fill="#231F20" points="135,39.7 122.53,39.7 122.53,50.45 135,50.45 	"/>
	<path opacity="0.25" fill="#231F20" d="M-122.53-149.84l60.07-34.68l24.94,5.54l-85.01,49.08V-149.84z M37.52-178.98l24.94-5.54
		l60.07,34.68v19.94L37.52-178.98z"/>
	<polygon fill="#FFC364" points="124.41,-128.82 0,-200.64 -124.41,-128.82 0,-204.74 	"/>
	<path fill="#EDAF35" d="M-122.53-129.9l43.44-26.58L-106-129.59V70.38h-16.53V-129.9z M106,70.38v-201.72l-29.52-26.73l46.04,28.16
		V70.38H106z"/>
	<g>
		<polygon fill="#EDAF35" points="-10.47,89.64 0,95.69 10.47,89.64 10.47,-194.6 0,-200.64 -10.47,-194.6 		"/>
		<polygon fill="#EDAF35" points="40.47,89.64 50.94,95.69 61.41,89.64 61.41,-165.19 50.94,-171.23 40.47,-177.28 		"/>
		<polygon fill="#EDAF35" points="-61.41,89.64 -50.94,95.69 -40.47,89.64 -40.47,-177.28 -50.94,-171.23 -61.41,-165.19 		"/>
	</g>
	<g>
		<polygon fill="#CC932F" points="124.41,-129.9 124.41,-95.9 0,-24.08 -124.41,-95.9 -124.41,-129.9 0,-58.08 		"/>
		<polygon opacity="0.25" fill="#231F20" points="-124.41,-129.9 0,-58.08 124.41,-129.9 0,-66.34 		"/>
		<polygon fill="#FFFFFF" points="-124.41,-129.9 0,-58.08 124.41,-129.9 0,-53.98 		"/>
	</g>
	<path fill="#EDAF35" d="M-106-119.28v34l-8.5-4.91v-34.31 M115-124.16v33.69l-9,5.2v-34"/>
	<g>
		<g opacity="0.25">
			<path fill="none" stroke="#231F20" stroke-width="10" stroke-linejoin="round" stroke-miterlimit="10" d="M74.36,56.76
				c0,0,2.84,0,6.32,0s6.32,4.5,6.32,10l0,22.81c0,5.5-4.5,10-10,10H-76.57c-5.5,0-10-4.5-10-10l0-22.81c0-5.5,2.79-10,6.19-10
				s6.19,0,6.19,0"/>
		</g>
		<g>
			<g opacity="0.25">
				
					<line fill="none" stroke="#231F20" stroke-width="10" stroke-linejoin="round" stroke-miterlimit="10" x1="75.56" y1="142.38" x2="42.99" y2="142.38"/>
			</g>
			
				<line fill="none" stroke="#C8C8C8" stroke-width="10" stroke-linecap="round" stroke-linejoin="round" stroke-miterlimit="10" x1="59.44" y1="142.38" x2="59.44" y2="119.57"/>
			
				<polygon fill="none" stroke="#C8C8C8" stroke-width="10" stroke-linecap="round" stroke-linejoin="round" stroke-miterlimit="10" points="
				59.44,142.38 39.72,170.44 44.91,173.43 70.77,158.5 			"/>
		</g>
		<g>
			<g opacity="0.25">
				
					<line fill="none" stroke="#231F20" stroke-width="10" stroke-linejoin="round" stroke-miterlimit="10" x1="16.12" y1="142.38" x2="-16.45" y2="142.38"/>
			</g>
			
				<line fill="none" stroke="#FFFFFF" stroke-width="10" stroke-linecap="round" stroke-linejoin="round" stroke-miterlimit="10" x1="0" y1="142.38" x2="0" y2="119.57"/>
			
				<polygon fill="none" stroke="#FFFFFF" stroke-width="10" stroke-linecap="round" stroke-linejoin="round" stroke-miterlimit="10" points="
				0,142.38 -28.28,182.62 0,198.96 28.29,182.62 			"/>
		</g>
		<g>
			<g opacity="0.25">
				
					<line fill="none" stroke="#231F20" stroke-width="10" stroke-linejoin="round" stroke-miterlimit="10" x1="-43.32" y1="142.38" x2="-75.89" y2="142.38"/>
			</g>
			
				<line fill="none" stroke="#C8C8C8" stroke-width="10" stroke-linecap="round" stroke-linejoin="round" stroke-miterlimit="10" x1="-59.44" y1="142.38" x2="-59.44" y2="119.57"/>
			
				<polygon fill="none" stroke="#C8C8C8" stroke-width="10" stroke-linecap="round" stroke-linejoin="round" stroke-miterlimit="10" points="
				-59.44,142.38 -70.77,158.5 -44.91,173.43 -39.72,170.44 			"/>
		</g>
		<g>
			<path fill="none" stroke="#C8C8C8" stroke-width="10" stroke-linejoin="round" stroke-miterlimit="10" d="M74.36,76.76
				c0,0,2.84,0,6.32,0s6.32,4.5,6.32,10l0,22.81c0,5.5-4.5,10-10,10H-76.57c-5.5,0-10-4.5-10-10l0-22.81c0-5.5,2.79-10,6.19-10
				s6.19,0,6.19,0"/>
		</g>
	</g>
	<path opacity="0.25" fill="#EDAF35" d="M-106,68.4v39.44h-16.53v-39.5 M122.53,68.34v39.5H106V68.05"/>
</symbol>
<symbol  id="Position_x5F_3" viewBox="-250.5 -250.5 501 501">
	<polygon opacity="0" fill="none" stroke="#231F20" stroke-miterlimit="10" points="250,-250 -250,-250 -250,250 250,250 	"/>
	<polygon opacity="0.25" points="67.5,-107.55 67.5,37.03 0,37.03 -67.5,37.03 -67.5,-107.55 0,-146.53 	"/>
	<polygon opacity="0" fill="none" stroke="#FF0000" stroke-width="10" stroke-miterlimit="10" points="-173.21,99.22 0,199.22 
		173.21,99.22 173.21,-100.78 0,-200.78 -173.21,-100.78 	"/>
	<polygon opacity="0" fill="none" stroke="#FF0000" stroke-width="10" stroke-miterlimit="10" points="-142.03,-82.78 0,-0.78 
		142.03,-82.78 142.03,-82.78 0,-164.78 -142.03,-82.78 	"/>
	<g>
		<polygon points="73.61,-85.63 73.61,107.84 0,107.84 -73.62,107.84 -73.62,-85.63 0,-128.13 		"/>
		<g>
			<path fill="#FFFFFF" d="M-55.91-44.75v93.9h17.7v-93.9H-55.91z"/>
			<path fill="#FFFFFF" d="M-9.21-44.75v93.9h17.7v-93.9H-9.21z"/>
			<path fill="#FFFFFF" d="M37.49-44.75v93.9h17.7v-93.9H37.49z"/>
		</g>
	</g>
	<polygon fill="none" points="135,99.25 0,99.36 -135,99.25 -135,-122.84 0,-200.78 135,-122.84 	"/>
	<polygon fill="#FFFFFF" points="-73.62,-65.63 0,-108.13 73.61,-65.63 73.61,-75.63 0,-118.13 -73.62,-75.63 	"/>
</symbol>
<symbol  id="base" viewBox="-251.5 -251.36 503 503">
	<polygon fill="none" stroke="#231F20" stroke-width="3" stroke-miterlimit="10" points="250,-249.86 -250,-249.86 -250,250.14 
		250,250.14 	"/>
	<line fill="none" stroke="#231F20" stroke-width="3" stroke-miterlimit="10" x1="-250" y1="250.14" x2="250" y2="-249.86"/>
	<line fill="none" stroke="#231F20" stroke-width="3" stroke-miterlimit="10" x1="250" y1="250.14" x2="-250" y2="-249.86"/>
	<polygon fill="none" stroke="#FF0000" stroke-width="10" stroke-miterlimit="10" points="-173.21,99.36 0,199.36 173.21,99.36 
		173.21,-100.64 0,-200.64 -173.21,-100.64 	"/>
</symbol>
<g id="Layer_1" display="none">
</g>
<g id="_x5B_HBE_x5D__-_Bg" display="none">
	<rect x="-724.58" y="-2129.43" display="inline" fill="#3A3A3A" width="2615.48" height="4079.18"/>
</g>
<g id="_x5B_HBE_x5D__-_Struct" display="none">
	<g id="League_x5F_Bronze" display="inline">
	</g>
	
		<use xlink:href="#base"  width="503" height="503" id="XMLID_14_" x="-251.5" y="-251.36" transform="matrix(1 0 0 -1 256.5 252.335)" display="inline" overflow="visible"/>
</g>
<g id="Bases">
	<g id="League_x5F_Diamond_x5F_Small">
		<g id="League_x5F_Diamond">
		</g>
	</g>
</g>
<g id="Compound">
	<g id="Rank_x5F_Copper_x5F_4_x5F_Small_1_">
		<g id="Rank_x5F_Copper_x5F_4_2_">
		</g>
	</g>
	<g id="Rank_x5F_Copper_x5F_4_x5F_Small_2_">
		<g id="Rank_x5F_Copper_x5F_4_3_">
		</g>
	</g>
	<g id="Rank_x5F_Copper_x5F_4_5_">
		<g id="League_x5F_Copper">
		</g>
	</g>
	<g id="Rank_x5F_Copper_x5F_4_x5F_Small_4_">
		<g id="Rank_x5F_Copper_x5F_4_6_">
		</g>
	</g>
	<g id="Rank_x5F_Copper_x5F_4_x5F_Small_3_">
		<g id="Rank_x5F_Copper_x5F_4_4_">
		</g>
	</g>
	<g id="Rank_x5F_Copper_x5F_4_x5F_Small">
		<g id="Rank_x5F_Copper_x5F_4">
		</g>
	</g>
	<g id="Position_x5F_1_x5F_Small">
		<g id="Position_x5F_1_1_">
		</g>
	</g>
	<g id="Rank_x5F_Copper_x5F_3">
	</g>
	<g id="Rank_x5F_Copper_x5F_2">
	</g>
	<g id="Rank_x5F_Copper_x5F_1">
	</g>
	<g id="Rank_x5F_Bronze_x5F_4">
	</g>
	<g id="Rank_x5F_Bronze_x5F_3">
	</g>
	<g id="Rank_x5F_Bronze_x5F_2">
	</g>
	<g id="Rank_x5F_Bronze_x5F_1">
	</g>
	<g id="Rank_x5F_Silver_x5F_4">
	</g>
	<g id="Rank_x5F_Silver_x5F_3">
	</g>
	<g id="Rank_x5F_Silver_x5F_2">
	</g>
	<g id="Rank_x5F_Silver_x5F_1">
	</g>
	<g id="Rank_x5F_Gold_x5F_4">
	</g>
	<g id="Rank_x5F_Gold_x5F_3">
		
			<use xlink:href="#League_x5F_Gold"  width="501" height="501" x="-250.5" y="-250.36" transform="matrix(1 0 0 -1 256.5 252.335)" overflow="visible"/>
		
			<use xlink:href="#Position_x5F_3"  width="501" height="501" id="XMLID_40_" x="-250.5" y="-250.5" transform="matrix(1 0 0 -1 256.5 252.335)" overflow="visible"/>
	</g>
	<g id="Rank_x5F_Gold_x5F_2">
	</g>
	<g id="Rank_x5F_Gold_x5F_1">
	</g>
	<g id="Rank_x5F_Platinum_x5F_4">
	</g>
	<g id="Rank_x5F_Platinum_x5F_3">
	</g>
	<g id="Rank_x5F_Platinum_x5F_2">
	</g>
	<g id="Rank_x5F_Platinum_x5F_1">
		<g id="Position_x5F_1">
		</g>
	</g>
</g>
</svg>
