<?xml version="1.0" encoding="utf-8"?>
<!-- Generator: Adobe Illustrator 16.0.2, SVG Export Plug-In . SVG Version: 6.00 Build 0)  -->
<!DOCTYPE svg PUBLIC "-//W3C//DTD SVG 1.1//EN" "http://www.w3.org/Graphics/SVG/1.1/DTD/svg11.dtd">
<svg version="1.1" id="Ranks" xmlns="http://www.w3.org/2000/svg" xmlns:xlink="http://www.w3.org/1999/xlink" x="0px" y="0px"
	 width="242.38px" height="242.38px" viewBox="0 0 242.38 242.38" enable-background="new 0 0 242.38 242.38" xml:space="preserve">
<g>
	<g>
		<path fill="#E6BE32" d="M127.75,34.87c2.91-4.55,4.07-9,3.44-13.29c-1.05-7.22-6.85-11.04-7.1-11.2l-1.63-1.05l-1.63,1.05
			c-0.25,0.16-6.04,3.98-7.09,11.2c-0.62,4.29,0.54,8.75,3.45,13.29l-47.08,9.7v5.89v4.43v6.04v4.21v23v44.79
			c0,0,0,36.12,52.36,64.36c52.36-28.24,52.36-64.36,52.36-64.36V65.14v-4.21v-6.04v-4.27v-5.89L127.75,34.87z"/>
	</g>
	<g>
		<path fill="#E6BE32" d="M122.47,201.29c-0.65,0-1.31-0.16-1.9-0.48c-53.84-29.04-54.46-66.31-54.46-67.88V44.56
			c0-1.9,1.33-3.53,3.19-3.92L111.22,32c-1.48-3.7-1.96-7.39-1.43-11.01c1.29-8.84,8.1-13.48,8.87-13.98l1.63-1.05
			c1.32-0.86,3.02-0.86,4.35,0l1.63,1.05c0.76,0.49,7.59,5.11,8.89,13.98c0.53,3.63,0.05,7.32-1.44,11.03l41.94,8.78
			c1.85,0.39,3.18,2.02,3.18,3.92v88.21c0,1.57-0.62,38.84-54.46,67.88C123.78,201.13,123.13,201.29,122.47,201.29z M74.12,47.82
			v85.11c0.01,1.35,0.89,33.38,48.36,59.8c47.47-26.42,48.35-58.45,48.36-59.82V47.97l-43.9-9.19c-1.29-0.27-2.36-1.15-2.87-2.37
			c-0.51-1.21-0.39-2.6,0.32-3.71c2.38-3.71,3.34-7.26,2.86-10.56c-0.62-4.25-3.54-7.02-4.77-8.01c-1.23,0.99-4.14,3.76-4.76,8
			c-0.48,3.3,0.48,6.85,2.86,10.56c0.71,1.11,0.83,2.5,0.32,3.71c-0.51,1.21-1.59,2.1-2.88,2.36L74.12,47.82z"/>
	</g>
	<g>
		<polygon fill="#E6BE32" points="191.63,133.08 180.91,139.47 140.24,161.46 122.48,201.82 122.48,231.09 176.76,199.67 
			170.16,192.63 		"/>
	</g>
	<g>
		<path fill="#E6BE32" d="M122.48,235.09c-0.69,0-1.38-0.18-2-0.53c-1.24-0.71-2-2.04-2-3.47v-29.27c0-0.55,0.12-1.1,0.34-1.61
			l17.75-40.37c0.36-0.81,0.98-1.49,1.76-1.91l40.6-21.94l10.64-6.35c1.45-0.87,3.29-0.73,4.59,0.35c1.3,1.08,1.79,2.85,1.22,4.44
			l-20.64,57.24l4.93,5.25c0.83,0.89,1.22,2.11,1.04,3.32s-0.9,2.27-1.95,2.88l-54.28,31.43
			C123.87,234.91,123.17,235.09,122.48,235.09z M126.48,202.66v21.49l43.92-25.43l-3.16-3.37c-1.03-1.1-1.36-2.68-0.85-4.09
			l17.68-49.02l-1.11,0.66c-0.05,0.03-0.1,0.06-0.15,0.08l-39.47,21.33L126.48,202.66z"/>
	</g>
	<g>
		<polygon fill="#E6BE32" points="53.31,133.08 64.03,139.47 104.71,161.46 122.46,201.82 122.46,231.09 68.18,199.67 74.78,192.63 
					"/>
	</g>
	<g>
		<path fill="#E6BE32" d="M122.46,235.09c-0.69,0-1.38-0.18-2-0.54l-54.28-31.43c-1.06-0.61-1.78-1.67-1.95-2.88
			c-0.18-1.21,0.21-2.43,1.04-3.32l4.93-5.25l-20.64-57.24c-0.57-1.59-0.09-3.37,1.22-4.44c1.3-1.07,3.14-1.21,4.59-0.35L66,136
			l40.6,21.94c0.78,0.42,1.4,1.09,1.76,1.91l17.75,40.37c0.22,0.51,0.34,1.06,0.34,1.61v29.27c0,1.43-0.76,2.75-2,3.47
			C123.84,234.92,123.15,235.09,122.46,235.09z M74.54,198.73l43.92,25.43v-21.49l-16.86-38.34l-39.47-21.33
			c-0.05-0.03-0.1-0.05-0.15-0.08l-1.11-0.66l17.68,49.02c0.51,1.42,0.18,3-0.85,4.09L74.54,198.73z"/>
	</g>
	<g>
		<polygon fill="#231F20" points="72.18,201.82 96.43,187.82 92.76,185.48 68.17,199.67 		"/>
	</g>
	<g>
		<polygon fill="#231F20" points="174.83,60.92 122.47,50.57 70.11,60.92 70.11,54.89 122.47,44.53 174.83,54.89 		"/>
	</g>
	<g>
		<polygon fill="#231F20" points="172.77,201.82 148.52,187.82 152.19,185.48 176.78,199.67 		"/>
	</g>
	<g>
		<path fill="#231F20" d="M70.11,50.45v-5.89l47.08-9.7c-2.91-4.55-4.07-9-3.45-13.29c1.05-7.21,6.84-11.04,7.09-11.2l1.63-1.05
			l1.63,1.05c0.25,0.16,6.05,3.98,7.1,11.2c0.63,4.29-0.53,8.75-3.44,13.29l47.08,9.85v5.89L122.47,40.1L70.11,50.45z M122.46,16.87
			c-1.11,1.2-2.44,3.11-2.79,5.63c-0.4,2.9,0.54,6.08,2.8,9.48c2.26-3.4,3.19-6.57,2.79-9.47
			C124.92,19.98,123.58,18.07,122.46,16.87"/>
	</g>
	<g>
		<polygon fill="#231F20" points="122.47,231.09 168.55,204.08 144.81,190.17 139.1,193.77 156.69,204.08 122.47,224.14 
			88.26,204.08 105.83,193.79 100.12,190.18 76.4,204.08 		"/>
	</g>
	<g>
		<path fill="#231F20" d="M154.28,191.24c15.61-12.39,31.36-28.81,34.21-56.27l-7.59,4.5c-3.11,20.78-18.33,37.26-32.45,48.4
			L154.28,191.24z"/>
	</g>
	<g>
		<path fill="#231F20" d="M90.67,191.24l5.83-3.37c-14.13-11.14-29.35-27.62-32.46-48.4l-7.59-4.5
			C59.31,162.43,75.06,178.85,90.67,191.24"/>
	</g>
	<g>
		<path fill="#231F20" d="M122.42,62.26l44.36,9.37v61.3c0,0.07-0.24,7.54-5.64,17.89c-5.17,9.93-16.06,24.23-38.72,37.31
			c-17.64-10.18-30.8-22.69-38.21-36.35c-5.78-10.65-6.13-18.48-6.15-18.91V71.63L122.42,62.26 M122.42,54.08L70.06,65.14v67.79
			c0,0,0,36.12,52.36,64.36c52.36-28.24,52.36-64.36,52.36-64.36V65.14L122.42,54.08z"/>
	</g>
	<g>
		<polygon fill="#FDBE10" points="122.74,183.5 108.76,190.17 122.74,199.88 136.8,190.17 		"/>
	</g>
	<g>
		<polygon fill="#231F20" points="123.32,185.84 139.54,160.7 179.44,139.13 165.36,167.78 153.42,167.78 164.09,170.47 
			149.82,184.45 142.29,183.09 147.94,186.35 136.83,193.21 		"/>
	</g>
	<g>
		<path fill="#E6BE32" d="M177.16,141.5l-12.42,25.28h-19.38l16.75,4.22l-12.63,12.38l-12.69-2.29l9.19,5.29l-9.19,5.68l-12.06-6.58
			l15.5-24.02L177.16,141.5z M181.72,136.77l-5.51,2.98l-36.93,19.96l-0.45,0.24l-0.28,0.43l-15.49,24.02l-1.17,1.81l1.89,1.03
			l12.06,6.58l1.02,0.56l0.99-0.61l9.2-5.68l2.85-1.76l-2.11-1.21l1.35,0.24l1.02,0.18l0.74-0.72l12.63-12.38l2.55-2.5l-3.46-0.87
			l-1.12-0.28h3.26h1.25l0.55-1.12l12.42-25.28L181.72,136.77z"/>
	</g>
	<g>
		<polygon fill="#231F20" points="97.09,186.35 102.74,183.09 95.21,184.45 80.94,170.47 91.61,167.78 79.67,167.78 65.59,139.13 
			105.5,160.7 121.71,185.84 108.2,193.21 		"/>
	</g>
	<g>
		<path fill="#E6BE32" d="M67.87,141.5l36.93,19.96l15.5,24.02l-12.06,6.58l-9.19-5.68l9.19-5.29l-12.69,2.29L82.92,171l16.75-4.22
			H80.29L67.87,141.5z M63.31,136.77l2.76,5.62l12.42,25.28l0.55,1.12h1.25h3.26l-1.12,0.28l-3.46,0.87l2.54,2.5l12.63,12.38
			l0.74,0.72l1.02-0.18l1.35-0.24l-2.11,1.21l2.85,1.76l9.19,5.68l0.99,0.61l1.02-0.56l12.06-6.58l1.89-1.03l-1.17-1.81l-15.5-24.02
			l-0.28-0.43l-0.45-0.24l-36.93-19.96L63.31,136.77z"/>
	</g>
	<g>
		<polygon fill="#231F20" points="128.64,190.75 122.35,187.35 116.06,190.75 107.36,212.41 122.35,206.5 137.34,212.41 		"/>
	</g>
	<g>
		<polygon fill="#231F20" points="161.01,117.21 159.78,104.84 151.26,84.93 148.91,99.1 		"/>
	</g>
	<g>
		<polygon fill="#231F20" points="83.69,117.21 84.92,104.84 93.44,84.93 95.79,99.1 		"/>
	</g>
	<g>
		<path fill="#231F20" d="M144.21,118.04c0,0,2.24-9.15-1.3-17.15c-3.47-7.81-9.07-11.96-20.12-11.96
			c-11.05,0-16.65,4.15-20.12,11.96c-3.55,8-1.3,17.15-1.3,17.15l-3.23,14.92l8.1,4.78l5.64-1.53l3.15,20.91l7.76,4.05l7.76-4.05
			l3.15-20.91l5.64,1.53l8.11-4.78L144.21,118.04z M103.95,130.17c-0.5,0-0.78-0.02-0.78-0.02l3.1-13.68l13.64,5.68
			C117.1,129.62,106.87,130.17,103.95,130.17 M122.78,137.43l-4.88-2.3l4.88-10.82l4.88,10.82L122.78,137.43z M141.79,130.17
			c-1.31,0-4.6-0.17-8.72-1.64c-3.22-1.15-6.18-3.09-7.42-6.38l13.64-5.68l3.1,13.68C142.4,130.15,142.18,130.17,141.79,130.17"/>
	</g>
	<g>
		<path fill="#231F20" d="M122.48,182.53l-37.83-56.85l37.83-56.85l37.83,56.85L122.48,182.53z M90.66,125.69l31.82,47.82
			l31.82-47.82l-31.82-47.82L90.66,125.69z"/>
	</g>
</g>
</svg>
