<?xml version="1.0" encoding="utf-8"?>
<!-- Generator: Adobe Illustrator 16.0.2, SVG Export Plug-In . SVG Version: 6.00 Build 0)  -->
<!DOCTYPE svg PUBLIC "-//W3C//DTD SVG 1.1//EN" "http://www.w3.org/Graphics/SVG/1.1/DTD/svg11.dtd">
<svg version="1.1" id="Ranks" xmlns="http://www.w3.org/2000/svg" xmlns:xlink="http://www.w3.org/1999/xlink" x="0px" y="0px"
	 width="242.38px" height="242.38px" viewBox="0 0 242.38 242.38" enable-background="new 0 0 242.38 242.38" xml:space="preserve">
<g>
	<g>
		<polygon fill="#E6BE32" points="191.54,133.08 180.83,139.47 148.44,156.47 122.4,201.82 122.4,231.09 176.68,199.67 
			170.07,192.63 		"/>
	</g>
	<g>
		<path fill="#E6BE32" d="M122.4,235.09c-0.69,0-1.38-0.18-2-0.53c-1.24-0.71-2-2.04-2-3.47v-29.27c0-0.7,0.18-1.39,0.53-1.99
			l26.04-45.35c0.38-0.66,0.94-1.2,1.61-1.55l32.29-16.95l10.62-6.34c1.45-0.87,3.29-0.73,4.59,0.35c1.3,1.08,1.79,2.85,1.22,4.44
			l-20.64,57.24l4.93,5.25c0.83,0.89,1.22,2.11,1.04,3.32c-0.18,1.21-0.9,2.27-1.95,2.88l-54.28,31.43
			C123.78,234.91,123.09,235.09,122.4,235.09z M126.4,202.89v21.26l43.92-25.43l-3.16-3.37c-1.03-1.1-1.36-2.68-0.85-4.09
			l17.68-49.02l-1.11,0.66c-0.06,0.04-0.13,0.07-0.19,0.11l-31.36,16.46L126.4,202.89z"/>
	</g>
	<g>
		<polygon fill="#E6BE32" points="53.12,133.08 63.83,139.47 96.22,156.47 122.27,201.82 122.27,231.09 67.99,199.67 74.59,192.63 
					"/>
	</g>
	<g>
		<path fill="#E6BE32" d="M122.27,235.09c-0.69,0-1.38-0.18-2-0.54l-54.28-31.43c-1.06-0.61-1.78-1.67-1.95-2.88
			s0.21-2.43,1.04-3.32l4.93-5.25l-20.64-57.24c-0.57-1.59-0.09-3.37,1.22-4.44c1.3-1.07,3.14-1.21,4.59-0.35l10.62,6.34
			l32.29,16.95c0.67,0.35,1.23,0.89,1.61,1.55l26.04,45.35c0.35,0.61,0.53,1.29,0.53,1.99v29.27c0,1.43-0.76,2.75-2,3.47
			C123.65,234.92,122.96,235.09,122.27,235.09z M74.35,198.73l43.92,25.43v-21.26l-24.93-43.42l-31.36-16.46
			c-0.06-0.03-0.13-0.07-0.19-0.11l-1.11-0.66l17.68,49.02c0.51,1.42,0.18,3-0.85,4.09L74.35,198.73z"/>
	</g>
	<g>
		<path fill="#E6BE32" d="M127.66,34.87c2.91-4.55,4.07-9,3.45-13.29c-1.05-7.22-6.86-11.04-7.1-11.2l-1.63-1.05l-1.63,1.05
			c-0.25,0.16-6.04,3.98-7.09,11.2c-0.62,4.29,0.54,8.75,3.45,13.29l-47.08,9.7v5.89v4.43v6.04v4.21v23v44.79
			c0,0,0,36.12,52.36,64.36c52.36-28.24,52.36-64.36,52.36-64.36V65.14v-4.21v-6.04v-4.27v-5.89L127.66,34.87z"/>
	</g>
	<g>
		<path fill="#E6BE32" d="M122.39,201.29c-0.65,0-1.31-0.16-1.9-0.48c-53.84-29.04-54.46-66.31-54.46-67.88V44.56
			c0-1.9,1.33-3.53,3.19-3.92L111.14,32c-1.48-3.7-1.96-7.39-1.43-11.01c1.28-8.84,8.1-13.48,8.87-13.98l1.63-1.05
			c1.32-0.86,3.02-0.86,4.35,0l1.63,1.05c0.77,0.5,7.6,5.15,8.89,13.99c0.53,3.63,0.05,7.32-1.44,11.03l41.94,8.78
			c1.85,0.39,3.18,2.02,3.18,3.92v88.21c0,1.57-0.62,38.84-54.46,67.88C123.7,201.13,123.04,201.29,122.39,201.29z M74.03,47.82
			v85.11c0.01,1.35,0.89,33.38,48.36,59.8c47.47-26.42,48.35-58.45,48.36-59.82V47.97l-43.9-9.19c-1.29-0.27-2.36-1.15-2.87-2.37
			c-0.51-1.21-0.39-2.6,0.32-3.71c2.38-3.71,3.34-7.26,2.86-10.56c-0.62-4.24-3.54-7.01-4.77-8.01c-1.23,0.99-4.14,3.76-4.76,8
			c-0.48,3.3,0.48,6.85,2.86,10.56c0.71,1.11,0.83,2.5,0.32,3.71s-1.59,2.1-2.88,2.36L74.03,47.82z"/>
	</g>
	<g>
		<polygon fill="#231F20" points="72.09,201.82 96.35,187.82 92.67,185.48 68.09,199.67 		"/>
	</g>
	<g>
		<polygon fill="#231F20" points="174.75,60.92 122.39,50.57 70.03,60.92 70.03,54.89 122.39,44.53 174.75,54.89 		"/>
	</g>
	<g>
		<polygon fill="#231F20" points="172.68,201.82 148.43,187.82 152.11,185.48 176.69,199.67 		"/>
	</g>
	<g>
		<path fill="#231F20" d="M70.03,50.45v-5.89l47.08-9.7c-2.91-4.55-4.07-9-3.45-13.29c1.05-7.21,6.84-11.04,7.09-11.2l1.63-1.05
			l1.63,1.05c0.25,0.16,6.05,3.98,7.1,11.2c0.63,4.29-0.53,8.75-3.45,13.29l47.08,9.85v5.89L122.39,40.1L70.03,50.45z M122.38,16.87
			c-1.11,1.2-2.44,3.11-2.79,5.63c-0.4,2.9,0.54,6.08,2.8,9.48c2.26-3.4,3.19-6.57,2.79-9.47C124.83,19.98,123.5,18.07,122.38,16.87
			"/>
	</g>
	<g>
		<polygon fill="#231F20" points="122.39,231.09 168.46,204.08 144.72,190.17 139.01,193.77 156.6,204.08 122.39,224.14 
			88.18,204.08 105.75,193.79 100.03,190.18 76.31,204.08 		"/>
	</g>
	<g>
		<path fill="#231F20" d="M154.2,191.24c15.61-12.39,31.36-28.81,34.21-56.27l-7.58,4.5c-3.11,20.78-18.33,37.26-32.45,48.4
			L154.2,191.24z"/>
	</g>
	<g>
		<path fill="#231F20" d="M90.58,191.24l5.83-3.37c-14.13-11.14-29.35-27.62-32.45-48.4l-7.59-4.5
			C59.22,162.43,74.97,178.85,90.58,191.24"/>
	</g>
	<g>
		<path fill="#231F20" d="M122.33,62.26l44.36,9.37v61.3c0,0.07-0.24,7.54-5.64,17.89c-5.17,9.93-16.06,24.23-38.72,37.31
			c-17.64-10.18-30.8-22.69-38.21-36.35c-5.78-10.65-6.13-18.48-6.14-18.91V71.63L122.33,62.26 M122.33,54.08L69.97,65.14v67.79
			c0,0,0,36.12,52.36,64.36c52.36-28.24,52.36-64.36,52.36-64.36V65.14L122.33,54.08z"/>
	</g>
	<g>
		<polygon fill="#231F20" points="122.61,182.06 108.63,160.65 119.4,166.81 122.61,171.79 		"/>
	</g>
	<g>
		<polygon fill="#231F20" points="122.5,182.06 136.47,160.65 125.7,166.81 122.5,171.79 		"/>
	</g>
	<g>
		<polygon fill="#FDBE10" points="122.55,183.5 108.58,190.17 122.55,199.88 136.61,190.17 		"/>
	</g>
	<g>
		<polygon fill="#231F20" points="123.13,185.84 139.35,160.7 179.26,139.13 165.18,167.78 153.24,167.78 163.91,170.47 
			149.64,184.45 142.11,183.09 147.76,186.35 136.64,193.21 		"/>
	</g>
	<g>
		<path fill="#E6BE32" d="M176.98,141.5l-12.42,25.28h-19.38l16.75,4.22l-12.63,12.38l-12.69-2.29l9.19,5.29l-9.19,5.68l-12.06-6.58
			l15.5-24.02L176.98,141.5z M181.54,136.77l-5.51,2.98L139.1,159.7l-0.45,0.24l-0.28,0.43l-15.49,24.02l-1.17,1.81l1.89,1.03
			l12.06,6.58l1.02,0.56l0.99-0.61l9.2-5.68l2.85-1.76l-2.11-1.21l1.35,0.24l1.02,0.18l0.74-0.72l12.63-12.38l2.55-2.5l-3.46-0.87
			l-1.12-0.28h3.26h1.25l0.55-1.12l12.42-25.28L181.54,136.77z"/>
	</g>
	<g>
		<polygon fill="#231F20" points="96.9,186.35 102.56,183.09 95.03,184.45 80.76,170.47 91.42,167.78 79.48,167.78 65.4,139.13 
			105.31,160.7 121.53,185.84 108.02,193.21 		"/>
	</g>
	<g>
		<path fill="#E6BE32" d="M67.68,141.5l36.93,19.96l15.49,24.02l-12.06,6.58l-9.19-5.68l9.19-5.29l-12.69,2.29L82.73,171l16.75-4.22
			H80.11L67.68,141.5z M63.13,136.77l2.76,5.62l12.42,25.28l0.55,1.12h1.24h3.26l-1.13,0.28l-3.46,0.87l2.54,2.5l12.63,12.38
			l0.74,0.72l1.02-0.18l1.35-0.24l-2.11,1.21l2.85,1.76l9.19,5.68l0.99,0.61l1.02-0.56l12.05-6.58l1.89-1.03l-1.17-1.81l-15.5-24.02
			l-0.28-0.43l-0.45-0.24l-36.93-19.96L63.13,136.77z"/>
	</g>
	<g>
		<polygon fill="#231F20" points="128.7,190.75 122.41,187.35 116.12,190.75 107.42,212.41 122.41,206.5 137.4,212.41 		"/>
	</g>
	<g>
		<polygon fill="#E6BE32" points="166.69,81.63 174.75,95.14 176.98,141.5 143.3,155.88 122.61,160.65 		"/>
	</g>
	<g>
		<polygon fill="#E6BE32" points="77.97,81.63 70.03,95.14 67.74,141.5 101.43,155.88 122.12,160.65 		"/>
	</g>
	<g>
		<polygon fill="#231F20" points="148.31,151.84 156.35,139.6 175.4,123.24 171.3,139.18 		"/>
	</g>
	<g>
		<polygon fill="#231F20" points="155.31,135.21 158.22,123.85 170.53,106.72 171.01,120.39 		"/>
	</g>
	<g>
		<polygon fill="#231F20" points="157.88,117.63 157.93,108.4 164.4,93.5 167.44,104.03 		"/>
	</g>
	<g>
		<polygon fill="#231F20" points="155.67,104.54 153.95,96.49 156.88,82.72 161.56,91.48 		"/>
	</g>
	<g>
		<polygon fill="#231F20" points="151.46,93.94 148.51,87.23 148.7,75.1 154.33,82.04 		"/>
	</g>
	<g>
		<polygon fill="#231F20" points="145.76,85.57 141.9,80.29 139.77,70.09 145.97,75.16 		"/>
	</g>
	<g>
		<polygon fill="#231F20" points="96.29,151.84 88.26,139.6 69.21,123.24 73.31,139.18 		"/>
	</g>
	<g>
		<polygon fill="#231F20" points="89.29,135.21 86.38,123.85 74.08,106.72 73.6,120.39 		"/>
	</g>
	<g>
		<polygon fill="#231F20" points="86.72,117.63 86.67,108.4 80.21,93.5 77.17,104.03 		"/>
	</g>
	<g>
		<polygon fill="#231F20" points="88.94,104.54 90.66,96.49 87.72,82.72 83.05,91.48 		"/>
	</g>
	<g>
		<polygon fill="#231F20" points="93.15,93.94 96.1,87.23 95.9,75.1 90.27,82.04 		"/>
	</g>
	<g>
		<polygon fill="#231F20" points="98.84,85.57 102.71,80.29 104.84,70.09 98.63,75.16 		"/>
	</g>
	<g>
		<path fill="#231F20" d="M144.02,118.04c0,0,2.24-9.15-1.3-17.15c-3.47-7.81-9.07-11.96-20.12-11.96
			c-11.05,0-16.65,4.15-20.12,11.96c-3.55,8-1.3,17.15-1.3,17.15l-3.23,14.92l8.11,4.78l5.64-1.53l3.15,20.91l7.76,4.05l7.76-4.05
			l3.15-20.91l5.64,1.53l8.11-4.78L144.02,118.04z M103.76,130.17c-0.5,0-0.78-0.02-0.78-0.02l3.11-13.68l13.64,5.68
			C116.92,129.62,106.68,130.17,103.76,130.17 M122.6,137.43l-4.88-2.3l4.88-10.82l4.88,10.82L122.6,137.43z M141.6,130.17
			c-1.31,0-4.6-0.17-8.72-1.64c-3.22-1.15-6.18-3.09-7.42-6.38l13.64-5.68l3.11,13.68C142.21,130.15,142,130.17,141.6,130.17"/>
	</g>
</g>
</svg>
