<?xml version="1.0" encoding="utf-8"?>
<!-- Generator: Adobe Illustrator 16.0.2, SVG Export Plug-In . SVG Version: 6.00 Build 0)  -->
<!DOCTYPE svg PUBLIC "-//W3C//DTD SVG 1.1//EN" "http://www.w3.org/Graphics/SVG/1.1/DTD/svg11.dtd">
<svg version="1.1" id="Ranks" xmlns="http://www.w3.org/2000/svg" xmlns:xlink="http://www.w3.org/1999/xlink" x="0px" y="0px"
	 width="242.38px" height="242.38px" viewBox="0 0 242.38 242.38" enable-background="new 0 0 242.38 242.38" xml:space="preserve">
<g>
	<g>
		<polygon fill="#C1B49A" points="51.41,133.08 62.12,139.47 94.51,159.47 120.55,201.82 120.55,231.09 59.05,195.32 		"/>
	</g>
	<g>
		<path fill="#C1B49A" d="M120.55,235.09c-0.69,0-1.39-0.18-2.01-0.54l-61.5-35.77c-1.08-0.63-1.81-1.73-1.96-2.97l-7.65-62.24
			c-0.19-1.52,0.51-3,1.79-3.84s2.92-0.87,4.23-0.08l10.71,6.39l32.44,20.03c0.53,0.33,0.98,0.78,1.31,1.31l26.04,42.35
			c0.39,0.63,0.59,1.35,0.59,2.09v29.27c0,1.43-0.76,2.75-2.01,3.47C121.93,234.92,121.24,235.09,120.55,235.09z M62.78,192.86
			l53.77,31.28v-21.18L91.6,162.38l-31.58-19.5l-3.65-2.18L62.78,192.86z"/>
	</g>
	<g>
		<polygon fill="#C1B49A" points="189.78,133.08 179.06,139.47 146.67,159.47 120.63,201.82 120.63,231.09 182.13,195.32 		"/>
	</g>
	<g>
		<path fill="#C1B49A" d="M120.63,235.09c-0.69,0-1.38-0.18-1.99-0.53c-1.24-0.71-2.01-2.04-2.01-3.47v-29.27
			c0-0.74,0.21-1.46,0.59-2.1l26.04-42.35c0.33-0.53,0.77-0.98,1.31-1.31l32.39-20l10.77-6.43c1.31-0.78,2.95-0.75,4.23,0.08
			c1.28,0.83,1.97,2.32,1.79,3.84l-7.65,62.24c-0.15,1.24-0.88,2.34-1.96,2.97l-61.5,35.77
			C122.02,234.91,121.33,235.09,120.63,235.09z M124.63,202.96v21.18l53.77-31.28l6.41-52.16l-3.7,2.21l-31.53,19.47L124.63,202.96z
			"/>
	</g>
	<g>
		<path fill="#C1B49A" d="M125.88,34.87c2.91-4.55,4.07-9,3.44-13.29c-1.05-7.22-6.85-11.04-7.1-11.2l-1.63-1.05l-1.63,1.05
			c-0.25,0.16-6.04,3.98-7.09,11.2c-0.62,4.29,0.54,8.75,3.45,13.29l-47.08,9.7v5.89v4.43v6.04v4.21v23v44.79
			c0,0,0,36.12,52.36,64.36c52.36-28.24,52.36-64.36,52.36-64.36V65.14v-4.21v-6.04v-4.27v-5.89L125.88,34.87z"/>
	</g>
	<g>
		<path fill="#C1B49A" d="M120.61,201.83l-1.9-1.02c-53.84-29.04-54.46-66.31-54.46-67.88V41.3l45.11-9.3
			c-1.48-3.7-1.96-7.39-1.43-11.01c1.28-8.84,8.1-13.48,8.87-13.98l3.8-2.46l3.8,2.46c0.77,0.5,7.6,5.13,8.89,13.99
			c0.53,3.63,0.05,7.32-1.44,11.03l45.12,9.44v91.46c0,1.57-0.62,38.84-54.46,67.88L120.61,201.83z M72.25,47.82v85.11
			c0.01,1.35,0.89,33.38,48.36,59.8c47.47-26.42,48.35-58.45,48.36-59.82V47.97l-48.35-10.12L72.25,47.82z M120.6,14.14
			c-1.23,0.99-4.14,3.76-4.76,8c-0.48,3.3,0.48,6.85,2.86,10.56l1.91,2.99l1.91-2.98c2.38-3.71,3.34-7.26,2.86-10.56
			C124.75,17.91,121.83,15.13,120.6,14.14z"/>
	</g>
	<g>
		<polygon fill="#231F20" points="70.31,201.82 94.57,187.82 90.89,185.48 66.31,199.67 		"/>
	</g>
	<g>
		<polygon fill="#231F20" points="172.97,60.92 120.61,50.57 68.25,60.92 68.25,54.89 120.61,44.53 172.97,54.89 		"/>
	</g>
	<g>
		<polygon fill="#231F20" points="170.9,201.82 146.65,187.82 150.33,185.48 174.91,199.67 		"/>
	</g>
	<g>
		<path fill="#231F20" d="M68.25,50.45v-5.89l47.08-9.7c-2.91-4.55-4.07-9-3.45-13.29c1.05-7.21,6.84-11.04,7.09-11.2l1.63-1.05
			l1.63,1.05c0.25,0.16,6.05,3.99,7.1,11.2c0.63,4.29-0.53,8.75-3.44,13.29l47.08,9.85v5.89L120.61,40.1L68.25,50.45z M120.6,16.87
			c-1.11,1.2-2.44,3.11-2.79,5.63c-0.4,2.9,0.54,6.08,2.8,9.48c2.26-3.4,3.19-6.57,2.79-9.47C123.05,19.98,121.72,18.07,120.6,16.87
			"/>
	</g>
	<g>
		<polygon fill="#231F20" points="120.61,231.09 166.68,204.08 142.94,190.17 137.23,193.77 154.82,204.08 120.61,224.14 
			86.4,204.08 103.97,193.79 98.25,190.18 74.53,204.08 		"/>
	</g>
	<g>
		<path fill="#231F20" d="M152.42,191.24c15.61-12.39,31.36-28.81,34.21-56.27l-7.58,4.5c-3.11,20.79-18.33,37.26-32.45,48.4
			L152.42,191.24z"/>
	</g>
	<g>
		<path fill="#231F20" d="M88.8,191.24l5.83-3.37c-14.13-11.14-29.35-27.61-32.45-48.4l-7.59-4.5
			C57.44,162.43,73.19,178.85,88.8,191.24"/>
	</g>
	<g>
		<path fill="#231F20" d="M81.31,195.57l4.71-2.72c-16.22-13.03-32.33-30.45-34.61-59.77l-51.99-30.86l11.66,29.45l33.95,19.6
			l-30.03-9.7l7.28,18.39l21.7,12.53l-19.19-6.2l4.74,11.99l29.53,17.05l11.08-6.4L81.31,195.57z"/>
	</g>
	<g>
		<path fill="#231F20" d="M197.24,172.49l21.7-12.53l7.28-18.39l-30.03,9.7l33.95-19.6l11.66-29.45l-51.99,30.86
			c-2.28,29.32-18.39,46.73-34.61,59.77l4.71,2.72l11.17-6.64l11.08,6.4l29.53-17.05l4.74-11.99L197.24,172.49z"/>
	</g>
	<g>
		<polygon fill="#231F20" points="95.89,78.38 91.44,81.9 93.11,87.44 88.52,84.13 83.96,87.49 85.58,81.93 81.1,78.47 86.69,78.35 
			88.47,72.84 90.31,78.33 		"/>
	</g>
	<g>
		<polygon fill="#231F20" points="116.89,74.01 112.44,77.53 114.11,83.07 109.52,79.76 104.96,83.12 106.58,77.56 102.1,74.1 
			107.69,73.98 109.47,68.47 111.31,73.95 		"/>
	</g>
	<g>
		<polygon fill="#231F20" points="138.89,74.01 134.44,77.53 136.11,83.07 131.52,79.76 126.96,83.12 128.58,77.56 124.1,74.1 
			129.69,73.98 131.47,68.47 133.31,73.95 		"/>
	</g>
	<g>
		<polygon fill="#231F20" points="159.89,78.38 155.44,81.9 157.11,87.44 152.52,84.13 147.96,87.49 149.58,81.93 145.1,78.47 
			150.69,78.35 152.47,72.84 154.31,78.33 		"/>
	</g>
	<g>
		<polygon fill="#231F20" points="88.95,137.89 104.48,128.71 102.48,125.34 108.42,121.83 118.29,138.5 112.35,142.01 
			110.35,138.64 85.18,153.52 		"/>
	</g>
	<g>
		<path fill="#C1B49A" d="M107.89,123.88l8.34,14.09l-3.36,1.99l-2-3.37l-23.41,13.84l2.79-11.56l16.27-9.62l-2-3.38L107.89,123.88z
			 M108.95,119.77l-2.58,1.53l-3.36,1.98l-2.58,1.53l1.53,2.58l0.47,0.79l-13.69,8.09l-1.09,0.65l-0.3,1.23l-2.79,11.56l-1.66,6.9
			l6.11-3.61l20.83-12.31l0.47,0.79l1.53,2.58l2.58-1.53l3.36-1.99l2.58-1.53l-1.53-2.58l-8.34-14.09L108.95,119.77z"/>
	</g>
	<g>
		<path fill="#231F20" d="M114.58,129.92l-4.21-7.12l52.74-31.2l-3.39,10.41c-3.98,12.25-12.72,17.76-13.09,17.99l-28.08,16.62
			L114.58,129.92z"/>
	</g>
	<g>
		<path fill="#C1B49A" d="M159.57,96.02l-1.75,5.37c-3.76,11.58-11.9,16.69-12.24,16.9l-26.33,15.58l-2.17-3.67l26.3-15.56
			c0.03-0.02,4.31-2.75,7.75-8.67l-35.84,21.21l-2.17-3.67L159.57,96.02 M166.65,87.18l-9.12,5.39l-46.46,27.49l-3.44,2.04
			l2.04,3.44l2.17,3.67l2.04,3.44l1.92,3.25l2.04,3.44l3.44-2.04l26.33-15.58l0.03-0.02l0.03-0.02c0.99-0.61,9.81-6.33,13.95-19.07
			l1.75-5.37L166.65,87.18z"/>
	</g>
	<g>
		<path fill="#231F20" d="M119.07,134.56l-2.68-4.53l26.73-15.82c0.14-0.09,3.42-2.22,6.49-6.76l-34.5,20.41l-2.68-4.54l48.03-28.42
			l-2.16,6.63c-3.83,11.77-12.11,16.96-12.46,17.17L119.07,134.56z M117.76,130.38l1.66,2.81l25.9-15.33
			c0.33-0.2,8.31-5.21,12.02-16.62l1.34-4.12l-44.89,26.56l1.66,2.81l37.06-21.93l-0.96,1.66c-3.45,5.94-7.74,8.72-7.92,8.84
			L117.76,130.38z"/>
	</g>
	<g>
		<polygon fill="#231F20" points="130.75,138.64 128.75,142.01 122.82,138.5 132.68,121.83 138.62,125.34 136.62,128.71 
			152.15,137.89 155.92,153.52 		"/>
	</g>
	<g>
		<path fill="#C1B49A" d="M133.21,123.88l3.36,1.98l-2,3.38l16.27,9.62l2.79,11.56l-23.41-13.84l-2,3.37l-3.36-1.99L133.21,123.88z
			 M132.15,119.77l-1.53,2.58l-8.34,14.09l-1.53,2.58l2.58,1.53l3.36,1.99l2.58,1.53l1.53-2.58l0.47-0.79l20.82,12.31l6.11,3.61
			l-1.66-6.9l-2.79-11.56l-0.3-1.23l-1.09-0.65l-13.69-8.09l0.47-0.79l1.53-2.58l-2.58-1.53l-3.36-1.98L132.15,119.77z"/>
	</g>
	<g>
		<path fill="#231F20" d="M94.51,120.02c-0.4-0.25-9.14-5.76-13.13-18.01L78,91.6l52.74,31.2l-8.17,13.81L94.51,120.02z"/>
	</g>
	<g>
		<path fill="#C1B49A" d="M81.54,96.02l46.46,27.49l-2.17,3.67l-35.84-21.21c3.44,5.92,7.73,8.65,7.75,8.67l26.3,15.56l-2.17,3.67
			l-26.33-15.58c-0.35-0.21-8.48-5.33-12.24-16.9L81.54,96.02 M74.46,87.18l3.28,10.07l1.75,5.37
			c4.14,12.74,12.96,18.46,13.95,19.07l0.03,0.02l0.03,0.02l26.33,15.58l3.44,2.04l2.04-3.44l1.92-3.25l2.04-3.44l2.17-3.67
			l2.04-3.44l-3.44-2.04L83.57,92.58L74.46,87.18z"/>
	</g>
	<g>
		<path fill="#231F20" d="M122.03,134.56l-0.43-0.25l-26.33-15.58c-0.36-0.22-8.64-5.41-12.46-17.18l-2.16-6.63l48.03,28.42
			l-2.68,4.54l-34.5-20.41c3.1,4.57,6.46,6.74,6.5,6.76l26.72,15.81L122.03,134.56z M82.42,97.12l1.34,4.12
			c3.71,11.42,11.69,16.42,12.03,16.63l25.89,15.32l1.66-2.81l-25.87-15.31c-0.06-0.04-4.44-2.84-7.93-8.85l-0.96-1.66l37.06,21.93
			l1.66-2.81L82.42,97.12z"/>
	</g>
	<g>
		<path fill="#231F20" d="M120.61,54.08L68.25,65.14v67.79c0,0,0,22.99,26.58,46.62l1.98-9.14c-6.02-5.87-10.88-12.12-14.41-18.64
			c-5.78-10.65-6.13-18.48-6.15-18.91V71.63l44.36-9.37l44.36,9.37v61.3c0,0.07-0.24,7.54-5.64,17.89
			c-2.87,5.5-7.5,12.36-14.91,19.6l1.97,9.13c26.58-23.63,26.58-46.62,26.58-46.62V65.14L120.61,54.08z"/>
	</g>
	<g>
		<path fill="#231F20" d="M109.31,206.58v-20.09l-4.47,1.21l-8.63-5.09l3.15-14.57c-0.32-1.48-1.84-9.43,1.34-16.59
			c3.65-8.22,9.79-11.89,19.9-11.89c10.25,0,16.2,3.55,19.9,11.89c3.18,7.17,1.67,15.11,1.34,16.59l3.15,14.57l-8.63,5.09
			l-4.47-1.21v20.09l-11.29,5.85L109.31,206.58z M120.61,185.22l3.29-1.55l-3.29-7.29l-3.29,7.29L120.61,185.22z M103.35,178.47
			c3.02-0.07,10.52-0.77,13.23-6.03l-10.83-4.51L103.35,178.47z M124.65,172.44c1.06,1.98,3.08,3.5,6,4.55
			c3.17,1.13,5.8,1.41,7.22,1.47l-2.39-10.53L124.65,172.44z"/>
	</g>
	<g>
		<path fill="#C1B49A" d="M120.61,140.56c10.43,0,15.71,3.92,18.99,11.29c3.35,7.55,1.23,16.18,1.23,16.18l3.05,14.08l-7.65,4.51
			l-5.32-1.45v20.79l-3.29,1.71v-17.41h-2v18.44l-4,2.07v-18.51h-2v18.51l-4-2.07v-18.44h-2v17.41l-3.3-1.71v-20.79l-5.32,1.45
			l-7.65-4.51l3.05-14.08c0,0-2.12-8.63,1.23-16.18C104.89,144.48,110.18,140.56,120.61,140.56 M138.54,179.47
			c0.38,0,0.58-0.01,0.58-0.01l-2.93-12.91l-12.88,5.36c1.16,3.1,3.96,4.93,7,6.02C134.2,179.31,137.31,179.47,138.54,179.47
			 M102.83,179.47c2.76,0,12.42-0.51,15.07-7.56l-12.87-5.36l-2.93,12.91C102.09,179.46,102.36,179.47,102.83,179.47 M120.61,186.33
			l4.61-2.17l-4.61-10.21l-4.6,10.21L120.61,186.33 M120.61,138.56c-10.56,0-16.99,3.85-20.81,12.48c-3.17,7.13-1.86,14.99-1.45,17
			l-2.96,13.66l-0.31,1.41l1.24,0.73l7.65,4.51l0.73,0.43l0.81-0.22l2.8-0.76v18.17v1.22l1.08,0.56l3.3,1.71l0.92,0.48l1.08,0.56
			l4,2.07l0.92,0.48v1.03l1-0.52l1,0.52v-1.03l0.92-0.48l4-2.07l1.08-0.56l0.92-0.48l3.29-1.71l1.08-0.56v-1.22V187.8l2.8,0.76
			l0.81,0.22l0.73-0.43l7.65-4.51l1.24-0.73l-0.31-1.41l-2.96-13.66c0.41-2,1.72-9.86-1.45-17
			C137.59,142.41,131.17,138.56,120.61,138.56 M126.15,172.9l8.62-3.59l1.83,8.05c-1.42-0.16-3.37-0.52-5.61-1.31
			C128.81,175.26,127.19,174.21,126.15,172.9 M104.61,177.41l1.84-8.1l8.66,3.61C112.66,176.3,107.65,177.19,104.61,177.41
			 M118.63,183.18l1.97-4.38l1.97,4.38l-1.97,0.93L118.63,183.18z"/>
	</g>
</g>
</svg>
