<svg xmlns="http://www.w3.org/2000/svg" xmlns:xlink="http://www.w3.org/1999/xlink" width="500" height="500" viewBox="0 0 500 500"><symbol id="b" viewBox="-250.5 -250.36 501 501"><path fill="none" stroke="#C8C8C8" stroke-width="10" stroke-linecap="round" stroke-linejoin="round" stroke-miterlimit="10" d="M141.83 99.19c5.5 0 10 4.5 10 10V132c0 5.5-4.5 10-10 10H-141.4c-5.5 0-10-4.5-10-10v-22.81c0-5.5 4.5-10 10-10h283.23z"/><g fill="none" stroke="#EDD6AE" stroke-width="10" stroke-linecap="round" stroke-linejoin="round" stroke-miterlimit="10"><path d="M173.21 59.36v-160L0-200.64l-173.21 100v160M-173.21 59.36h48.81M124.4 59.36h48.81"/></g><path fill="none" stroke="#C8C8C8" stroke-width="10" stroke-linecap="round" stroke-linejoin="round" stroke-miterlimit="10" d="M-92.67-174.13l46.34-30M44.81-204.13l44.81 30"/><path fill="#7F725E" d="M-135-202.72L0-169.23l135-33.49v310.56h-270z"/><path fill="#CCB697" d="M122.53 107.84V70.38h-245.06v38.52"/><path fill="#EDD6AE" d="M135-202.72v15.19l-135.04 30-135.03-30v-15.19l135.03 30z"/><path fill="#EDD6AE" d="M135-172.34v15.2l-135.04 30-135.03-30v-15.2l135.03 30z"/><path fill="#EDD6AE" d="M-122.53-129.9L0-200.64l122.53 70.74V70.38h-245.06z"/><path opacity=".25" fill="#231F20" d="M-122.53 39.7H-135v10.75h12.47zM135 39.7h-12.47v10.75H135z"/><g fill="#EDD6AE"><path d="M-10.47 85.49L0 91.54l10.47-6.05V-194.6L0-200.64l-10.47 6.04zM40.47 85.49l10.47 6.05 10.47-6.05v-250.68l-10.47-6.04-10.47-6.05zM90.47 70.38l10.47 6.05 10.47-6.05v-207.13l-10.47-6.04-10.47-6.05zM-61.41 85.49l10.47 6.05 10.47-6.05v-262.77l-10.47 6.05-10.47 6.04zM-111.41 70.38l10.47 6.05 10.47-6.05v-219.22l-10.47 6.05-10.47 6.04z"/></g><path opacity=".25" fill="#231F20" d="M-122.53-149.84l60.07-34.68 24.93 5.54-85.01 49.08v-19.94zm160.05-29.14l24.93-5.54 60.07 34.68v19.94l-85-49.08z"/><path fill="none" stroke="#C8C8C8" stroke-width="10" stroke-linecap="round" stroke-linejoin="round" stroke-miterlimit="10" d="M-46.33-204.13v43M44.81-159.63v-44.5"/><path opacity=".25" fill="#231F20" d="M-79.01-188.83l13.21 3.27 6.3-4.32-11-4.37zM77.28-188.4l-13.22 3.27-6.3-4.32 11-4.37z"/><path fill="none" stroke="#C8C8C8" stroke-width="10" stroke-linecap="round" stroke-linejoin="round" stroke-miterlimit="10" d="M43.27-158.64L-.92-133.13l-44.19-25.51"/><path fill="#FFF" d="M124.4-128.82L0-200.64l-124.41 71.82L0-204.74z"/><path fill="#79BBAE" d="M124.41-131.95v34L0-26.13l-124.4-71.82v-34L0-60.13z"/><path opacity=".25" fill="#231F20" d="M-124.4-131.95L0-60.13l124.41-71.82L0-68.39z"/><path fill="#FFF" d="M-124.4-131.95L0-60.13l124.41-71.82L0-56.03z"/><path fill="#79BBAE" d="M124.41-65.13v34L0 40.69l-124.4-71.82v-34L0 6.69z"/><path opacity=".25" fill="#231F20" d="M-124.4-65.13L0 6.69l124.41-71.82L0-1.57z"/><path fill="#FFF" d="M-124.4-65.13L0 6.69l124.41-71.82L0 10.8z"/><g fill="#EDD6AE"><path d="M-114.03-49.14v34l-8.5-4.91v-34.31M122.53-53.73v33.68l-9 5.2v-34M-114.03-115.81v34l-8.5-4.91v-34.31M-74.03-24.14v34l-8.5-4.91v-34.31M-74.03-90.81v34l-8.5-4.91v-34.31M122.53-120.4v33.68l-9 5.2v-34M82.53-28.73V4.95l-9 5.2v-34M82.53-95.4v33.68l-9 5.2v-34"/></g><g><path fill="none" stroke="#231F20" stroke-width="10" stroke-linejoin="round" stroke-miterlimit="10" d="M74.36 56.38h6.32c3.48 0 6.32 4.5 6.32 10v22.81c0 5.5-4.5 10-10 10H-76.57c-5.5 0-10-4.5-10-10V66.38c0-5.5 2.79-10 6.19-10h6.19M44.5 142h-89.32" opacity=".25"/><path fill="none" stroke="#FFF" stroke-width="10" stroke-linecap="round" stroke-linejoin="round" stroke-miterlimit="10" d="M0 158.6v-39.41"/><path fill="none" stroke="#FFF" stroke-width="10" stroke-linejoin="round" stroke-miterlimit="10" d="M74.36 76.38h6.32c3.48 0 6.32 4.5 6.32 10v22.81c0 5.5-4.5 10-10 10H-76.57c-5.5 0-10-4.5-10-10V86.38c0-5.5 2.79-10 6.19-10h6.19"/><path fill="none" stroke="#FFF" stroke-width="10" stroke-linecap="round" stroke-linejoin="round" stroke-miterlimit="10" d="M-51.41 164.81H-91.4M91.83 164.81H51.84"/><g><path fill="none" stroke="#FFF" stroke-width="10" stroke-linecap="round" stroke-linejoin="round" stroke-miterlimit="10" d="M0 241.87l13.53-41.63H57.3L21.89 174.5l13.53-41.63L0 158.6l-35.42-25.73 13.53 41.63-35.41 25.74h43.77z"/></g></g><path opacity=".25" fill="#EDD6AE" d="M-106 68.4v39.44h-16.53v-39.5m245.06 0v39.5H106V68.05"/></symbol><symbol id="c" viewBox="-250.5 -250.5 501 501"><path opacity=".25" d="M67.5-107.55V37.03h-135v-144.58L0-146.53z"/><path d="M73.61-85.63v193.47H-73.62V-85.63L0-128.13z"/><g fill="#FFF"><path d="M-55.91-44.75v93.9h17.7v-93.9h-17.7zM-9.21-44.75v93.9h17.7v-93.9h-17.7zM37.49-44.75v93.9h17.7v-93.9h-17.7z"/></g><path fill="none" d="M135 99.25L0 99.36l-135-.11v-222.09L0-200.78l135 77.94z"/><path fill="#FFF" d="M-73.62-65.63L0-108.13l73.61 42.5v-10L0-118.13l-73.62 42.5z"/></symbol><symbol id="a" viewBox="-251.5 -251.36 503 503"><path fill="none" stroke="#231F20" stroke-width="3" stroke-miterlimit="10" d="M250-249.86h-500v500h500zM-250 250.14l500-500M250 250.14l-500-500"/><path fill="none" stroke="#F00" stroke-width="10" stroke-miterlimit="10" d="M-173.21 99.36L0 199.36l173.21-100v-200L0-200.64l-173.21 100z"/></symbol><use xlink:href="#b" width="501" height="501" x="-250.5" y="-250.36" transform="matrix(1 0 0 -1 256.5 252.334)" overflow="visible"/><use xlink:href="#c" width="501" height="501" x="-250.5" y="-250.5" transform="matrix(1 0 0 -1 256.5 252.193)" overflow="visible"/></svg>