<?xml version="1.0" encoding="utf-8"?>
<!-- Generator: Adobe Illustrator 16.0.0, SVG Export Plug-In . SVG Version: 6.00 Build 0)  -->
<!DOCTYPE svg PUBLIC "-//W3C//DTD SVG 1.1//EN" "http://www.w3.org/Graphics/SVG/1.1/DTD/svg11.dtd">
<svg version="1.1" xmlns="http://www.w3.org/2000/svg" xmlns:xlink="http://www.w3.org/1999/xlink" x="0px" y="0px" width="500px"
	 height="500px" viewBox="0 0 500 500" enable-background="new 0 0 500 500" xml:space="preserve">
<symbol  id="League_x5F_Platinum" viewBox="-250.5 -250.36 501 501">
	<g>
		<path fill="none" stroke="#C8C8C8" stroke-width="10" stroke-linecap="round" stroke-linejoin="round" stroke-miterlimit="10" d="
			M141.83,99.19c5.5,0,10,4.5,10,10V132c0,5.5-4.5,10-10,10H-141.4c-5.5,0-10-4.5-10-10v-22.81c0-5.5,4.5-10,10-10H141.83z"/>
	</g>
	<polygon opacity="0" fill="#EDD6AE" points="173.21,-100.64 0,-200.64 -173.21,-100.64 -173.21,99.36 0,199.36 173.21,99.36 	"/>
	<g>
		
			<polyline fill="none" stroke="#EDD6AE" stroke-width="10" stroke-linecap="round" stroke-linejoin="round" stroke-miterlimit="10" points="
			173.21,59.36 173.21,-100.64 0,-200.64 -173.21,-100.64 -173.21,59.36 		"/>
		
			<line fill="none" stroke="#EDD6AE" stroke-width="10" stroke-linecap="round" stroke-linejoin="round" stroke-miterlimit="10" x1="-173.21" y1="59.36" x2="-124.4" y2="59.36"/>
		
			<line fill="none" stroke="#EDD6AE" stroke-width="10" stroke-linecap="round" stroke-linejoin="round" stroke-miterlimit="10" x1="124.4" y1="59.36" x2="173.21" y2="59.36"/>
	</g>
	
		<line fill="none" stroke="#C8C8C8" stroke-width="10" stroke-linecap="round" stroke-linejoin="round" stroke-miterlimit="10" x1="-92.67" y1="-174.13" x2="-46.33" y2="-204.13"/>
	
		<line fill="none" stroke="#C8C8C8" stroke-width="10" stroke-linecap="round" stroke-linejoin="round" stroke-miterlimit="10" x1="44.81" y1="-204.13" x2="89.62" y2="-174.13"/>
	<polygon opacity="0" fill="none" stroke="#231F20" stroke-miterlimit="10" points="250,-249.86 -250,-249.86 -250,250.14 
		250,250.14 	"/>
	<polygon fill="#7F725E" points="-135,-202.72 0,-169.23 135,-202.72 135,107.84 -135,107.84 	"/>
	<polyline fill="#CCB697" points="122.53,107.84 122.53,70.38 -122.53,70.38 -122.53,108.9 	"/>
	<polygon fill="#EDD6AE" points="135,-202.72 135,-187.53 -0.04,-157.53 -135.07,-187.53 -135.07,-202.72 -0.04,-172.72 	"/>
	<polygon fill="#EDD6AE" points="135,-172.34 135,-157.14 -0.04,-127.14 -135.07,-157.14 -135.07,-172.34 -0.04,-142.34 	"/>
	<polygon fill="#EDD6AE" points="-122.53,-129.9 0,-200.64 122.53,-129.9 122.53,70.38 -122.53,70.38 	"/>
	<polygon opacity="0.25" fill="#231F20" points="-122.53,39.7 -135,39.7 -135,50.45 -122.53,50.45 	"/>
	<polygon opacity="0.25" fill="#231F20" points="135,39.7 122.53,39.7 122.53,50.45 135,50.45 	"/>
	<g>
		<polygon fill="#EDD6AE" points="-10.47,85.49 0,91.54 10.47,85.49 10.47,-194.6 0,-200.64 -10.47,-194.6 		"/>
		<polygon fill="#EDD6AE" points="40.47,85.49 50.94,91.54 61.41,85.49 61.41,-165.19 50.94,-171.23 40.47,-177.28 		"/>
		<polygon fill="#EDD6AE" points="90.47,70.38 100.94,76.43 111.41,70.38 111.41,-136.75 100.94,-142.79 90.47,-148.84 		"/>
		<polygon fill="#EDD6AE" points="-61.41,85.49 -50.94,91.54 -40.47,85.49 -40.47,-177.28 -50.94,-171.23 -61.41,-165.19 		"/>
		<polygon fill="#EDD6AE" points="-111.41,70.38 -100.94,76.43 -90.47,70.38 -90.47,-148.84 -100.94,-142.79 -111.41,-136.75 		"/>
	</g>
	<path opacity="0.25" fill="#231F20" d="M-122.53-149.84l60.07-34.68l24.93,5.54l-85.01,49.08V-149.84z M37.52-178.98l24.93-5.54
		l60.07,34.68v19.94L37.52-178.98z"/>
	<g>
		<g>
			
				<path fill="none" stroke="#C8C8C8" stroke-width="10" stroke-linecap="round" stroke-linejoin="round" stroke-miterlimit="10" d="
				M-46.33-204.13c0,0,0,16.97,0,43"/>
		</g>
		<g>
			
				<path fill="none" stroke="#C8C8C8" stroke-width="10" stroke-linecap="round" stroke-linejoin="round" stroke-miterlimit="10" d="
				M44.81-159.63c0-26.88,0-44.5,0-44.5"/>
		</g>
	</g>
	<polygon opacity="0.25" fill="#231F20" points="-79.01,-188.83 -65.8,-185.56 -59.5,-189.88 -70.5,-194.25 	"/>
	<polygon opacity="0.25" fill="#231F20" points="77.28,-188.4 64.06,-185.13 57.76,-189.45 68.76,-193.82 	"/>
	
		<polyline fill="none" stroke="#C8C8C8" stroke-width="10" stroke-linecap="round" stroke-linejoin="round" stroke-miterlimit="10" points="
		43.27,-158.64 -0.92,-133.13 -45.11,-158.64 	"/>
	<polygon fill="#FFFFFF" points="124.4,-128.82 0,-200.64 -124.41,-128.82 0,-204.74 	"/>
	<g>
		<polygon fill="#79BBAE" points="124.41,-131.95 124.41,-97.95 0,-26.13 -124.4,-97.95 -124.4,-131.95 0,-60.13 		"/>
		<polygon opacity="0.25" fill="#231F20" points="-124.4,-131.95 0,-60.13 124.41,-131.95 0,-68.39 		"/>
		<polygon fill="#FFFFFF" points="-124.4,-131.95 0,-60.13 124.41,-131.95 0,-56.03 		"/>
	</g>
	<g>
		<polygon fill="#79BBAE" points="124.41,-65.13 124.41,-31.13 0,40.69 -124.4,-31.13 -124.4,-65.13 0,6.69 		"/>
		<polygon opacity="0.25" fill="#231F20" points="-124.4,-65.13 0,6.69 124.41,-65.13 0,-1.57 		"/>
		<polygon fill="#FFFFFF" points="-124.4,-65.13 0,6.69 124.41,-65.13 0,10.8 		"/>
	</g>
	<g>
		<polyline fill="#EDD6AE" points="-114.03,-49.14 -114.03,-15.14 -122.53,-20.05 -122.53,-54.36 		"/>
		<polyline fill="#EDD6AE" points="122.53,-53.73 122.53,-20.05 113.53,-14.85 113.53,-48.85 		"/>
		<polyline fill="#EDD6AE" points="-114.03,-115.81 -114.03,-81.81 -122.53,-86.72 -122.53,-121.03 		"/>
		<polyline fill="#EDD6AE" points="-74.03,-24.14 -74.03,9.86 -82.53,4.95 -82.53,-29.36 		"/>
		<polyline fill="#EDD6AE" points="-74.03,-90.81 -74.03,-56.81 -82.53,-61.72 -82.53,-96.03 		"/>
		<polyline fill="#EDD6AE" points="122.53,-120.4 122.53,-86.72 113.53,-81.52 113.53,-115.52 		"/>
		<polyline fill="#EDD6AE" points="82.53,-28.73 82.53,4.95 73.53,10.15 73.53,-23.85 		"/>
		<polyline fill="#EDD6AE" points="82.53,-95.4 82.53,-61.72 73.53,-56.52 73.53,-90.52 		"/>
	</g>
	<g>
		<g opacity="0.25">
			<path fill="none" stroke="#231F20" stroke-width="10" stroke-linejoin="round" stroke-miterlimit="10" d="M74.36,56.38
				c0,0,2.84,0,6.32,0s6.32,4.5,6.32,10l0,22.81c0,5.5-4.5,10-10,10H-76.57c-5.5,0-10-4.5-10-10l0-22.81c0-5.5,2.79-10,6.19-10
				s6.19,0,6.19,0"/>
		</g>
		<g>
			<g opacity="0.25">
				
					<line fill="none" stroke="#231F20" stroke-width="10" stroke-linejoin="round" stroke-miterlimit="10" x1="44.5" y1="142" x2="-44.82" y2="142"/>
			</g>
			
				<line fill="none" stroke="#FFFFFF" stroke-width="10" stroke-linecap="round" stroke-linejoin="round" stroke-miterlimit="10" x1="0" y1="158.6" x2="0" y2="119.19"/>
		</g>
		<g>
			<path fill="none" stroke="#FFFFFF" stroke-width="10" stroke-linejoin="round" stroke-miterlimit="10" d="M74.36,76.38
				c0,0,2.84,0,6.32,0s6.32,4.5,6.32,10l0,22.81c0,5.5-4.5,10-10,10H-76.57c-5.5,0-10-4.5-10-10l0-22.81c0-5.5,2.79-10,6.19-10
				s6.19,0,6.19,0"/>
		</g>
		<g>
			
				<line fill="none" stroke="#FFFFFF" stroke-width="10" stroke-linecap="round" stroke-linejoin="round" stroke-miterlimit="10" x1="-51.41" y1="164.81" x2="-91.4" y2="164.81"/>
		</g>
		<g>
			
				<line fill="none" stroke="#FFFFFF" stroke-width="10" stroke-linecap="round" stroke-linejoin="round" stroke-miterlimit="10" x1="91.83" y1="164.81" x2="51.84" y2="164.81"/>
		</g>
		<g>
			
				<polygon fill="none" stroke="#FFFFFF" stroke-width="10" stroke-linecap="round" stroke-linejoin="round" stroke-miterlimit="10" points="
				0,241.87 13.53,200.24 57.3,200.24 21.89,174.5 35.42,132.87 0,158.6 -35.42,132.87 -21.89,174.5 -57.3,200.24 -13.53,200.24 			
				"/>
		</g>
	</g>
	<path opacity="0.25" fill="#EDD6AE" d="M-106,68.4v39.44h-16.53v-39.5 M122.53,68.34v39.5H106V68.05"/>
</symbol>
<symbol  id="Position_x5F_1_3_" viewBox="-250.5 -250.5 501 501">
	<g opacity="0">
		<polygon fill="none" stroke="#FF0000" stroke-width="0.25" stroke-miterlimit="10" points="-173.21,99.22 0,199.22 173.21,99.22 
			173.21,-100.78 0,-200.78 -173.21,-100.78 		"/>
		<polygon fill="none" stroke="#FF0000" stroke-width="0.25" stroke-miterlimit="10" points="-142.03,-82.78 0,-0.78 142.03,-82.78 
			142.03,-82.78 0,-164.78 -142.03,-82.78 		"/>
	</g>
	<polygon opacity="0" fill="none" stroke="#231F20" stroke-miterlimit="10" points="250,-250 -250,-250 -250,250 250,250 	"/>
	<g>
		<polygon opacity="0.25" points="67.5,-161.81 67.5,36.36 0,36.36 -67.5,36.36 -67.5,-161.81 0,-200.78 		"/>
		<polygon points="73.62,-139.89 73.62,107.9 0,107.9 -73.62,107.9 -73.62,-139.89 0,-182.39 		"/>
		<polygon fill="#FFFFFF" points="-0.92,64.7 12.81,22.45 57.23,22.45 21.29,-3.66 35.02,-45.91 -0.92,-19.8 -36.86,-45.91 
			-23.13,-3.66 -59.07,22.45 -14.65,22.45 		"/>
	</g>
	<polygon fill="#FFFFFF" points="-73.62,-102.28 0,-144.78 73.62,-102.28 73.62,-112.28 0,-154.78 -73.62,-112.28 	"/>
	<polygon fill="#FFFFFF" points="-73.62,-82.28 0,-124.78 73.62,-82.28 73.62,-92.28 0,-134.78 -73.62,-92.28 	"/>
	<polygon fill="#FFFFFF" points="-73.62,-62.28 0,-104.78 73.62,-62.28 73.62,-72.28 0,-114.78 -73.62,-72.28 	"/>
	<polygon fill="#FFFFFF" points="38.98,-92.28 0,-69.78 -38.98,-92.28 -38.98,-82.28 0,-59.78 38.98,-82.28 	"/>
</symbol>
<g id="Layer_1" display="none">
</g>
<g id="_x5B_HBE_x5D__-_Bg" display="none">
	<rect x="-2055.66" y="-2800.64" display="inline" fill="#3A3A3A" width="2615.48" height="4079.18"/>
</g>
<g id="_x5B_HBE_x5D__-_Struct" display="none">
	<g id="League_x5F_Bronze" display="inline">
	</g>
</g>
<g id="Bases">
	<g id="League_x5F_Diamond_x5F_Small">
		<g id="League_x5F_Diamond">
		</g>
	</g>
</g>
<g id="Compound">
	<g id="Rank_x5F_Copper_x5F_4_x5F_Small_1_">
		<g id="Rank_x5F_Copper_x5F_4_2_">
		</g>
	</g>
	<g id="Rank_x5F_Copper_x5F_4_x5F_Small_2_">
		<g id="Rank_x5F_Copper_x5F_4_3_">
		</g>
	</g>
	<g id="Rank_x5F_Copper_x5F_4_5_">
		<g id="League_x5F_Copper">
		</g>
	</g>
	<g id="Rank_x5F_Copper_x5F_4_x5F_Small_4_">
		<g id="Rank_x5F_Copper_x5F_4_6_">
		</g>
	</g>
	<g id="Rank_x5F_Copper_x5F_4_x5F_Small_3_">
		<g id="Rank_x5F_Copper_x5F_4_4_">
		</g>
	</g>
	<g id="Rank_x5F_Copper_x5F_4_x5F_Small">
		<g id="Rank_x5F_Copper_x5F_4">
		</g>
	</g>
	<g id="Position_x5F_1_x5F_Small">
		<g id="Position_x5F_1_1_">
		</g>
	</g>
	<g id="Rank_x5F_Copper_x5F_3">
	</g>
	<g id="Rank_x5F_Copper_x5F_2">
	</g>
	<g id="Rank_x5F_Copper_x5F_1">
	</g>
	<g id="Rank_x5F_Bronze_x5F_4">
	</g>
	<g id="Rank_x5F_Bronze_x5F_3">
	</g>
	<g id="Rank_x5F_Bronze_x5F_2">
	</g>
	<g id="Rank_x5F_Bronze_x5F_1">
	</g>
	<g id="Rank_x5F_Silver_x5F_4">
	</g>
	<g id="Rank_x5F_Silver_x5F_3">
	</g>
	<g id="Rank_x5F_Silver_x5F_2">
	</g>
	<g id="Rank_x5F_Silver_x5F_1">
	</g>
	<g id="Rank_x5F_Gold_x5F_4">
	</g>
	<g id="Rank_x5F_Gold_x5F_3">
	</g>
	<g id="Rank_x5F_Gold_x5F_2">
	</g>
	<g id="Rank_x5F_Gold_x5F_1">
	</g>
	<g id="Rank_x5F_Platinum_x5F_4">
	</g>
	<g id="Rank_x5F_Platinum_x5F_3">
	</g>
	<g id="Rank_x5F_Platinum_x5F_2">
		
			<use xlink:href="#League_x5F_Platinum"  width="501" height="501" id="XMLID_52_" x="-250.5" y="-250.36" transform="matrix(1 0 0 -1 256.5 252.334)" overflow="visible"/>
		
			<use xlink:href="#Position_x5F_1_3_"  width="501" height="501" id="XMLID_38_" x="-250.5" y="-250.5" transform="matrix(1 0 0 -1 256.5 251.9746)" overflow="visible"/>
	</g>
	<g id="Rank_x5F_Platinum_x5F_1">
		<g id="Position_x5F_1">
		</g>
	</g>
</g>
</svg>
