<?xml version="1.0" encoding="utf-8"?>
<!-- Generator: Adobe Illustrator 16.0.2, SVG Export Plug-In . SVG Version: 6.00 Build 0)  -->
<!DOCTYPE svg PUBLIC "-//W3C//DTD SVG 1.1//EN" "http://www.w3.org/Graphics/SVG/1.1/DTD/svg11.dtd">
<svg version="1.1" id="Ranks" xmlns="http://www.w3.org/2000/svg" xmlns:xlink="http://www.w3.org/1999/xlink" x="0px" y="0px"
	 width="242.38px" height="242.38px" viewBox="0 0 242.38 242.38" enable-background="new 0 0 242.38 242.38" xml:space="preserve">
<g>
	<g>
		<polygon fill="#C1B49A" points="53.15,133.08 63.87,139.47 96.26,159.47 122.3,201.82 122.3,231.09 60.8,195.32 		"/>
	</g>
	<g>
		<path fill="#C1B49A" d="M122.3,235.09c-0.69,0-1.39-0.18-2.01-0.54l-61.5-35.77c-1.08-0.63-1.81-1.73-1.96-2.97l-7.65-62.24
			c-0.19-1.52,0.51-3,1.79-3.84c1.28-0.83,2.92-0.87,4.23-0.08l10.71,6.39l32.44,20.03c0.53,0.33,0.98,0.78,1.31,1.31l26.04,42.35
			c0.39,0.63,0.59,1.36,0.59,2.1v29.27c0,1.43-0.76,2.75-2.01,3.47C123.68,234.92,122.99,235.09,122.3,235.09z M64.53,192.86
			l53.77,31.28v-21.18l-24.95-40.58l-31.58-19.5l-3.65-2.18L64.53,192.86z"/>
	</g>
	<g>
		<polygon fill="#C1B49A" points="191.53,133.08 180.81,139.47 148.42,159.47 122.38,201.82 122.38,231.09 183.88,195.32 		"/>
	</g>
	<g>
		<path fill="#C1B49A" d="M122.38,235.09c-0.69,0-1.38-0.18-1.99-0.53c-1.24-0.71-2.01-2.04-2.01-3.47v-29.27
			c0-0.74,0.21-1.46,0.59-2.1l26.04-42.35c0.33-0.53,0.77-0.98,1.31-1.31l32.39-20l10.77-6.43c1.31-0.78,2.95-0.75,4.23,0.08
			c1.28,0.83,1.97,2.32,1.79,3.84l-7.65,62.24c-0.15,1.24-0.88,2.34-1.96,2.97l-61.5,35.77
			C123.77,234.91,123.08,235.09,122.38,235.09z M126.38,202.96v21.18l53.77-31.28l6.41-52.16l-3.7,2.21l-31.53,19.47L126.38,202.96z
			"/>
	</g>
	<g>
		<path fill="#C1B49A" d="M127.63,34.87c2.91-4.55,4.07-9,3.44-13.29c-1.05-7.22-6.85-11.04-7.1-11.2l-1.63-1.05l-1.63,1.05
			c-0.25,0.16-6.04,3.98-7.09,11.2c-0.62,4.29,0.54,8.75,3.45,13.29L70,44.56v5.89v4.43v6.04v4.21v23v44.79c0,0,0,36.12,52.36,64.36
			c52.36-28.24,52.36-64.36,52.36-64.36V65.14v-4.21v-6.04v-4.27v-5.89L127.63,34.87z"/>
	</g>
	<g>
		<path fill="#C1B49A" d="M122.36,201.83l-1.9-1.02C66.62,171.77,66,134.5,66,132.93V41.3l45.11-9.3c-1.48-3.7-1.96-7.39-1.43-11.01
			c1.28-8.84,8.1-13.48,8.87-13.98l3.8-2.46l3.8,2.46c0.77,0.5,7.6,5.13,8.89,13.99c0.53,3.63,0.05,7.32-1.44,11.03l45.12,9.44
			v91.46c0,1.57-0.62,38.84-54.46,67.88L122.36,201.83z M74,47.82v85.11c0.01,1.35,0.89,33.38,48.36,59.8
			c47.47-26.42,48.35-58.45,48.36-59.82V47.97l-48.35-10.12L74,47.82z M122.35,14.14c-1.23,0.99-4.14,3.76-4.76,8
			c-0.48,3.3,0.48,6.85,2.86,10.56l1.91,2.99l1.91-2.98c2.38-3.71,3.34-7.26,2.86-10.56C126.5,17.91,123.58,15.13,122.35,14.14z"/>
	</g>
	<g>
		<polygon fill="#231F20" points="72.06,201.82 96.32,187.82 92.64,185.48 68.05,199.67 		"/>
	</g>
	<g>
		<polygon fill="#231F20" points="174.72,60.92 122.36,50.57 70,60.92 70,54.89 122.36,44.53 174.72,54.89 		"/>
	</g>
	<g>
		<polygon fill="#231F20" points="172.65,201.82 148.4,187.82 152.08,185.48 176.66,199.67 		"/>
	</g>
	<g>
		<path fill="#231F20" d="M70,50.45v-5.89l47.08-9.7c-2.91-4.55-4.07-9-3.45-13.29c1.05-7.21,6.84-11.04,7.09-11.2l1.63-1.05
			l1.63,1.05c0.25,0.16,6.05,3.99,7.1,11.2c0.63,4.29-0.53,8.75-3.45,13.29l47.08,9.85v5.89L122.36,40.1L70,50.45z M122.35,16.87
			c-1.11,1.2-2.44,3.11-2.79,5.63c-0.4,2.9,0.54,6.08,2.8,9.48c2.26-3.4,3.19-6.57,2.79-9.47C124.8,19.98,123.47,18.07,122.35,16.87
			"/>
	</g>
	<g>
		<polygon fill="#231F20" points="122.36,231.09 168.43,204.08 144.69,190.17 138.98,193.77 156.57,204.08 122.36,224.14 
			88.15,204.08 105.72,193.79 100,190.18 76.28,204.08 		"/>
	</g>
	<g>
		<path fill="#231F20" d="M154.17,191.24c15.61-12.39,31.36-28.81,34.21-56.27l-7.58,4.5c-3.11,20.79-18.33,37.26-32.45,48.4
			L154.17,191.24z"/>
	</g>
	<g>
		<path fill="#231F20" d="M90.55,191.24l5.83-3.37c-14.13-11.14-29.35-27.61-32.45-48.4l-7.59-4.5
			C59.19,162.43,74.94,178.85,90.55,191.24"/>
	</g>
	<g>
		<path fill="#231F20" d="M83.05,195.57l4.71-2.72c-16.22-13.03-32.33-30.45-34.61-59.77L1.17,102.22l11.66,29.45l33.95,19.6
			l-30.03-9.7l7.28,18.39l21.7,12.53l-19.19-6.2l4.74,11.99l29.53,17.05l11.08-6.4L83.05,195.57z"/>
	</g>
	<g>
		<path fill="#231F20" d="M198.99,172.49l21.7-12.53l7.28-18.39l-30.03,9.7l33.95-19.6l11.66-29.45l-51.99,30.86
			c-2.28,29.32-18.39,46.73-34.61,59.77l4.71,2.72l11.17-6.64l11.08,6.4l29.53-17.05l4.74-11.99L198.99,172.49z"/>
	</g>
	<g>
		<path fill="#231F20" d="M122.36,54.08L70,65.14v67.79c0,0,0,22.99,26.58,46.62l1.98-9.14c-6.02-5.87-10.88-12.12-14.41-18.64
			c-5.78-10.65-6.13-18.48-6.15-18.91V71.63l44.36-9.37l44.36,9.37v61.3c0,0.07-0.24,7.54-5.64,17.89
			c-2.87,5.5-7.5,12.36-14.91,19.6l1.97,9.13c26.58-23.63,26.58-46.62,26.58-46.62V65.14L122.36,54.08z"/>
	</g>
	<g>
		<polygon fill="#231F20" points="96.99,78.38 92.54,81.9 94.2,87.44 89.61,84.13 85.06,87.49 86.68,81.93 82.2,78.47 87.78,78.35 
			89.57,72.84 91.4,78.33 		"/>
	</g>
	<g>
		<polygon fill="#231F20" points="117.99,74.01 113.54,77.53 115.2,83.07 110.62,79.76 106.06,83.12 107.68,77.56 103.2,74.1 
			108.78,73.98 110.57,68.47 112.4,73.95 		"/>
	</g>
	<g>
		<polygon fill="#231F20" points="139.99,74.01 135.54,77.53 137.2,83.07 132.62,79.76 128.06,83.12 129.68,77.56 125.2,74.1 
			130.78,73.98 132.57,68.47 134.4,73.95 		"/>
	</g>
	<g>
		<polygon fill="#231F20" points="160.99,78.38 156.54,81.9 158.2,87.44 153.62,84.13 149.06,87.49 150.68,81.93 146.2,78.47 
			151.78,78.35 153.57,72.84 155.4,78.33 		"/>
	</g>
	<g>
		<path fill="#231F20" d="M86.51,146.42l4.99-12.46l-11.26-6.9l3.37-7.84l-21.24-13.03l4.37-7.13l38.21,23.42l-8.06,20.47l3.59,2.2
			l8.34-20.3l9.22,5.65l-1.31,9l-3.91-2.39l-8.34,20.3L86.51,146.42z M91.19,126.11l0.67-1.82l-2.44-1.5l-0.78,1.75L91.19,126.11z"
			/>
	</g>
	<g>
		<path fill="#C1B49A" d="M67.22,101.13l35.85,21.98l-8.06,20.47l6.17,3.78l8.34-20.3l6.88,4.21l-0.84,5.77l-3.47-2.12l-8.34,20.3
			l-15.38-9.42l4.99-12.46l-11.23-6.88l3.37-7.84L64.42,105.7L67.22,101.13z M91.97,128.34l1.71-4.69l-4.95-3.03l-2.01,4.52
			L91.97,128.34 M66.23,97l-1.57,2.56l-2.8,4.57l-1.56,2.56l2.55,1.57l18.86,11.57l-2.34,5.45l-1.03,2.39l2.22,1.36l9.07,5.55
			l-4.04,10.1l-0.94,2.35l2.16,1.32l15.38,9.42l3,1.84l1.34-3.26l7-17.04l0.46,0.28l3.88,2.38l0.66-4.5l0.84-5.77l0.29-1.96
			l-1.69-1.03l-6.88-4.21l-3-1.84l-1.34,3.26l-7,17.04l-1.02-0.62l7.14-18.12l0.92-2.34l-2.15-1.32L68.79,98.57L66.23,97z"/>
	</g>
	<g>
		<polygon fill="#231F20" points="64.1,96.3 69.49,87.5 79.26,93.48 79.49,95.92 102.36,109.95 103.38,108.28 119.42,118.1 
			118.63,123.47 117.79,129.21 		"/>
	</g>
	<g>
		<path fill="#C1B49A" d="M69.98,89.56l7.86,4.81l0.23,2.44l24.79,15.21l1.02-1.67l13.91,8.52l-0.65,4.4l-0.51,3.48L66.16,95.8
			l1.69-2.76l1.11-1.82L69.98,89.56z M68.99,85.43l-1.57,2.56l-1.02,1.67l-1.11,1.82l-1.69,2.76l-1.57,2.56l2.56,1.57l50.48,30.94
			l3.88,2.38l0.66-4.5l0.51-3.48l0.65-4.39l0.29-1.96l-1.69-1.03l-13.91-8.52l-2.56-1.57l-1.02,1.67L80.91,95.03l-0.09-0.94
			l-0.14-1.49l-1.28-0.78L71.55,87L68.99,85.43z"/>
	</g>
	<g>
		<path fill="#231F20" d="M131.9,137.11L128,139.5l-1.31-9l9.22-5.65l8.34,20.3l3.59-2.2l-8.06-20.47l38.2-23.42l4.37,7.13
			l-21.24,13.03l3.37,7.84l-11.26,6.9l4.99,12.46l-17.96,11L131.9,137.11z M153.51,126.11l2.56-1.57l-0.78-1.75l-2.44,1.5
			L153.51,126.11z"/>
	</g>
	<g>
		<path fill="#C1B49A" d="M177.48,101.13l2.8,4.57l-21.07,12.93l3.37,7.84l-11.23,6.88l4.99,12.46l-15.38,9.42l-8.34-20.3
			l-3.47,2.12l-0.84-5.77l6.88-4.21l8.34,20.3l6.17-3.78l-8.06-20.47L177.48,101.13z M152.73,128.34l5.24-3.21l-2.01-4.52
			l-4.95,3.03L152.73,128.34 M178.47,97l-2.56,1.57l-35.85,21.98l-2.15,1.32l0.92,2.34l7.14,18.12l-1.02,0.62l-7-17.04l-1.34-3.26
			l-3,1.84l-6.88,4.21l-1.69,1.03l0.29,1.96l0.84,5.77l0.66,4.5l3.88-2.38l0.46-0.28l7,17.04l1.34,3.26l3-1.84l15.38-9.42l2.16-1.32
			l-0.94-2.35l-4.04-10.1l9.07-5.55l2.21-1.36l-1.03-2.39l-2.34-5.45l18.86-11.57l2.55-1.57l-1.56-2.56l-2.8-4.57L178.47,97z"/>
	</g>
	<g>
		<polygon fill="#231F20" points="126.08,123.47 125.29,118.1 141.32,108.28 142.35,109.95 165.21,95.92 165.44,93.48 175.22,87.5 
			180.61,96.3 126.92,129.21 		"/>
	</g>
	<g>
		<path fill="#C1B49A" d="M174.72,89.56l1.02,1.67l1.11,1.82l1.69,2.76l-50.47,30.93l-0.51-3.48l-0.65-4.4l13.91-8.52l1.02,1.67
			l24.79-15.21l0.23-2.44L174.72,89.56z M175.72,85.43L173.16,87l-7.86,4.81l-1.28,0.78l-0.14,1.49l-0.09,0.94l-20.95,12.85
			l-1.02-1.67l-2.56,1.57l-13.91,8.52l-1.69,1.03l0.29,1.96l0.65,4.39l0.51,3.48l0.66,4.5l3.88-2.38l50.48-30.94l2.56-1.57
			l-1.57-2.56l-1.69-2.76l-1.11-1.82l-1.02-1.67L175.72,85.43z"/>
	</g>
	<g>
		<path fill="#231F20" d="M111.09,206.58v-20.09l-4.47,1.21l-8.63-5.09l3.15-14.57c-0.33-1.48-1.84-9.43,1.34-16.59
			c3.65-8.22,9.79-11.89,19.9-11.89c10.25,0,16.2,3.55,19.9,11.89c3.18,7.17,1.67,15.11,1.34,16.59l3.15,14.57l-8.63,5.09
			l-4.47-1.21v20.09l-11.29,5.85L111.09,206.58z M122.38,185.22l3.29-1.55l-3.29-7.29l-3.29,7.29L122.38,185.22z M105.12,178.47
			c3.02-0.07,10.52-0.77,13.23-6.03l-10.83-4.51L105.12,178.47z M126.43,172.44c1.06,1.98,3.08,3.5,6,4.55
			c3.17,1.13,5.8,1.41,7.22,1.47l-2.39-10.53L126.43,172.44z"/>
	</g>
	<g>
		<path fill="#C1B49A" d="M122.38,140.56c10.43,0,15.71,3.92,18.99,11.29c3.35,7.55,1.23,16.18,1.23,16.18l3.05,14.08l-7.65,4.51
			l-5.32-1.45v20.79l-3.29,1.71v-17.41h-2v18.44l-4,2.07v-18.51h-2v18.51l-4-2.07v-18.44h-2v17.41l-3.29-1.71v-20.79l-5.32,1.45
			l-7.65-4.51l3.05-14.08c0,0-2.12-8.63,1.23-16.18C106.67,144.48,111.95,140.56,122.38,140.56 M140.32,179.47
			c0.38,0,0.58-0.01,0.58-0.01l-2.93-12.91l-12.88,5.36c1.16,3.1,3.96,4.93,7,6.02C135.97,179.31,139.08,179.47,140.32,179.47
			 M104.61,179.47c2.76,0,12.42-0.51,15.06-7.56l-12.87-5.36l-2.93,12.91C103.87,179.46,104.14,179.47,104.61,179.47 M122.38,186.33
			l4.61-2.17l-4.61-10.21l-4.6,10.21L122.38,186.33 M122.38,138.56c-10.56,0-16.98,3.85-20.81,12.48c-3.17,7.13-1.86,14.99-1.45,17
			l-2.96,13.66l-0.31,1.41l1.24,0.73l7.65,4.51l0.73,0.43l0.81-0.22l2.8-0.76v18.17v1.22l1.08,0.56l3.3,1.71l0.92,0.48l1.08,0.56
			l4,2.07l0.92,0.48v1.03l1-0.52l1,0.52v-1.03l0.92-0.48l4-2.07l1.08-0.56l0.92-0.48l3.29-1.71l1.08-0.56v-1.22V187.8l2.8,0.76
			l0.81,0.22l0.73-0.43l7.65-4.51l1.24-0.73l-0.31-1.41l-2.95-13.66c0.41-2,1.71-9.86-1.45-17
			C139.37,142.41,132.95,138.56,122.38,138.56 M127.92,172.9l8.62-3.59l1.83,8.05c-1.42-0.16-3.37-0.52-5.61-1.31
			C130.58,175.26,128.96,174.21,127.92,172.9 M106.38,177.41l1.84-8.1l8.66,3.61C114.43,176.3,109.42,177.19,106.38,177.41
			 M120.41,183.18l1.97-4.38l1.97,4.38l-1.97,0.93L120.41,183.18z"/>
	</g>
</g>
</svg>
