<?xml version="1.0" encoding="utf-8"?>
<!-- Generator: Adobe Illustrator 16.0.2, SVG Export Plug-In . SVG Version: 6.00 Build 0)  -->
<!DOCTYPE svg PUBLIC "-//W3C//DTD SVG 1.1//EN" "http://www.w3.org/Graphics/SVG/1.1/DTD/svg11.dtd">
<svg version="1.1" id="Ranks" xmlns="http://www.w3.org/2000/svg" xmlns:xlink="http://www.w3.org/1999/xlink" x="0px" y="0px"
	 width="242.38px" height="242.38px" viewBox="0 0 242.38 242.38" enable-background="new 0 0 242.38 242.38" xml:space="preserve">
<g>
	<g>
		<polygon fill="#C1B49A" points="53.25,133.08 63.97,139.47 96.36,159.47 122.4,201.82 122.4,231.09 60.9,195.32 		"/>
	</g>
	<g>
		<path fill="#C1B49A" d="M122.4,235.09c-0.7,0-1.39-0.18-2.01-0.54l-61.5-35.77c-1.08-0.63-1.81-1.73-1.96-2.97l-7.65-62.24
			c-0.19-1.52,0.51-3,1.79-3.84s2.92-0.87,4.23-0.08l10.71,6.39l32.44,20.03c0.53,0.33,0.98,0.78,1.31,1.31l26.04,42.35
			c0.39,0.63,0.59,1.35,0.59,2.09v29.27c0,1.43-0.76,2.75-2.01,3.47C123.78,234.92,123.09,235.09,122.4,235.09z M64.63,192.86
			l53.77,31.28v-21.18l-24.95-40.58l-31.58-19.5l-3.65-2.18L64.63,192.86z"/>
	</g>
	<g>
		<polygon fill="#C1B49A" points="191.63,133.08 180.91,139.47 148.52,159.47 122.48,201.82 122.48,231.09 183.98,195.32 		"/>
	</g>
	<g>
		<path fill="#C1B49A" d="M122.48,235.09c-0.69,0-1.38-0.18-1.99-0.53c-1.24-0.71-2.01-2.04-2.01-3.47v-29.27
			c0-0.74,0.21-1.46,0.59-2.09l26.04-42.35c0.33-0.53,0.77-0.98,1.31-1.31l32.39-20l10.77-6.43c1.31-0.78,2.95-0.75,4.23,0.08
			c1.28,0.83,1.97,2.32,1.79,3.84l-7.65,62.24c-0.15,1.24-0.88,2.34-1.96,2.97l-61.5,35.77
			C123.87,234.91,123.18,235.09,122.48,235.09z M126.48,202.96v21.18l53.77-31.28l6.41-52.16l-3.7,2.21l-31.53,19.47L126.48,202.96z
			"/>
	</g>
	<g>
		<path fill="#C1B49A" d="M127.73,34.87c2.91-4.55,4.07-9,3.44-13.29c-1.05-7.22-6.85-11.04-7.1-11.2l-1.63-1.05l-1.63,1.05
			c-0.25,0.16-6.04,3.98-7.09,11.2c-0.62,4.29,0.54,8.75,3.45,13.29l-47.08,9.7v5.89v4.43v6.04v4.21v23v44.79
			c0,0,0,36.12,52.36,64.36c52.36-28.24,52.36-64.36,52.36-64.36V65.14v-4.21v-6.04v-4.27v-5.89L127.73,34.87z"/>
	</g>
	<g>
		<path fill="#C1B49A" d="M122.46,201.83l-1.9-1.02C66.72,171.77,66.1,134.5,66.1,132.93V41.3l45.11-9.3
			c-1.48-3.7-1.96-7.39-1.43-11.01c1.29-8.84,8.1-13.48,8.87-13.98l3.8-2.46l3.8,2.46c0.76,0.49,7.59,5.11,8.89,13.98
			c0.53,3.63,0.05,7.32-1.44,11.03l45.12,9.44v91.46c0,1.57-0.62,38.84-54.46,67.88L122.46,201.83z M74.1,47.82v85.11
			c0.01,1.35,0.89,33.38,48.36,59.8c47.47-26.42,48.35-58.45,48.36-59.82V47.97l-48.35-10.12L74.1,47.82z M122.45,14.14
			c-1.23,0.99-4.14,3.76-4.76,8c-0.48,3.3,0.48,6.85,2.86,10.56l1.91,2.99l1.91-2.98c2.38-3.71,3.34-7.26,2.86-10.56
			C126.6,17.9,123.68,15.13,122.45,14.14z"/>
	</g>
	<g>
		<polygon fill="#231F20" points="72.16,201.82 96.42,187.82 92.74,185.48 68.16,199.67 		"/>
	</g>
	<g>
		<polygon fill="#231F20" points="174.82,60.92 122.46,50.57 70.1,60.92 70.1,54.89 122.46,44.53 174.82,54.89 		"/>
	</g>
	<g>
		<polygon fill="#231F20" points="172.75,201.82 148.5,187.82 152.17,185.48 176.76,199.67 		"/>
	</g>
	<g>
		<path fill="#231F20" d="M70.1,50.45v-5.89l47.08-9.7c-2.91-4.55-4.07-9-3.45-13.29c1.05-7.21,6.84-11.04,7.09-11.2l1.63-1.05
			l1.63,1.05c0.25,0.16,6.05,3.99,7.1,11.2c0.63,4.29-0.53,8.75-3.44,13.29l47.08,9.85v5.89L122.46,40.1L70.1,50.45z M122.45,16.87
			c-1.11,1.2-2.44,3.11-2.79,5.63c-0.4,2.9,0.54,6.08,2.8,9.48c2.26-3.4,3.19-6.57,2.79-9.47C124.9,19.98,123.57,18.07,122.45,16.87
			"/>
	</g>
	<g>
		<polygon fill="#231F20" points="122.46,231.09 168.53,204.08 144.79,190.17 139.08,193.77 156.67,204.08 122.46,224.14 
			88.25,204.08 105.82,193.79 100.1,190.18 76.38,204.08 		"/>
	</g>
	<g>
		<path fill="#231F20" d="M154.26,191.24c15.61-12.39,31.36-28.81,34.21-56.27l-7.59,4.5c-3.11,20.79-18.33,37.26-32.45,48.4
			L154.26,191.24z"/>
	</g>
	<g>
		<path fill="#231F20" d="M90.65,191.24l5.83-3.37c-14.13-11.14-29.35-27.61-32.45-48.4l-7.59-4.5
			C59.29,162.43,75.04,178.85,90.65,191.24"/>
	</g>
	<g>
		<path fill="#231F20" d="M83.15,195.57l4.71-2.72c-16.22-13.03-32.33-30.45-34.61-59.77L1.27,102.22l11.66,29.45l33.95,19.6
			l-30.03-9.7l7.28,18.39l21.7,12.53l-19.2-6.2l4.74,11.99l29.53,17.05l11.08-6.4L83.15,195.57z"/>
	</g>
	<g>
		<path fill="#231F20" d="M199.09,172.49l21.7-12.53l7.28-18.39l-30.03,9.7l33.95-19.6l11.66-29.45l-51.99,30.86
			c-2.28,29.32-18.39,46.73-34.61,59.77l4.71,2.72l11.17-6.64l11.08,6.4l29.53-17.05l4.74-11.99L199.09,172.49z"/>
	</g>
	<g>
		<path fill="#231F20" d="M122.46,54.08L70.1,65.14v67.79c0,0,0,22.99,26.58,46.62l1.98-9.14c-6.01-5.87-10.88-12.12-14.41-18.64
			c-5.78-10.65-6.13-18.48-6.14-18.91V71.63l44.36-9.37l44.36,9.37v61.3c0,0.07-0.24,7.54-5.64,17.89
			c-2.87,5.5-7.5,12.36-14.91,19.6l1.97,9.13c26.58-23.63,26.58-46.62,26.58-46.62V65.14L122.46,54.08z"/>
	</g>
	<g>
		<polygon fill="#231F20" points="97.69,78.38 93.24,81.9 94.9,87.44 90.32,84.13 85.76,87.49 87.38,81.93 82.9,78.47 88.48,78.35 
			90.27,72.84 92.1,78.33 		"/>
	</g>
	<g>
		<polygon fill="#231F20" points="118.69,74.01 114.24,77.53 115.9,83.07 111.32,79.76 106.76,83.12 108.38,77.56 103.9,74.1 
			109.48,73.98 111.27,68.47 113.1,73.95 		"/>
	</g>
	<g>
		<polygon fill="#231F20" points="140.69,74.01 136.24,77.53 137.9,83.07 133.32,79.76 128.76,83.12 130.38,77.56 125.9,74.1 
			131.48,73.98 133.27,68.47 135.1,73.95 		"/>
	</g>
	<g>
		<polygon fill="#231F20" points="161.69,78.38 157.24,81.9 158.9,87.44 154.32,84.13 149.76,87.49 151.38,81.93 146.9,78.47 
			152.48,78.35 154.27,72.84 156.1,78.33 		"/>
	</g>
	<g>
		<path fill="#231F20" d="M86.71,150.35l0.38-10.25l-8.36-5.01l2.53-5.98l-2.68-1.61L64.3,137.98l-14.96-8.97l13.74-10.8
			l-24.07-14.43l4.35-7.26l69.81,41.86l-1.24,9.12l-16.3-9.77l-0.47,12.93L86.71,150.35z M87.32,133.67l0.03-0.91l-1.3-0.78
			l-0.33,0.73L87.32,133.67z M63.89,129.69l8.27-6.03L69.41,122l-7.96,6.22L63.89,129.69z"/>
	</g>
	<g>
		<path fill="#C1B49A" d="M43.88,98.58l67.68,40.58l-0.8,5.89l-16.53-9.91l-0.51,13.96l-5.46-0.2l0.35-9.64l-8-4.8l2.53-5.98
			l-4.65-2.79l-14.27,10.48l-12.23-7.33l13.74-10.8l-24.65-14.78L43.88,98.58z M63.97,131.49l10.9-7.95l-5.58-3.35l-10.49,8.2
			L63.97,131.49 M88.72,136.26l0.16-4.33l-3.5-2.1l-1.57,3.48L88.72,136.26 M42.85,94.47l-1.54,2.57l-2.81,4.68l-1.54,2.57
			l2.57,1.54l20.92,12.54l-10.31,8.11l-3.42,2.69l3.74,2.24l12.23,7.33l1.71,1.03L66,138.6l12.66-9.3l0.71,0.42l-1.51,3.58
			l-1.02,2.4l2.24,1.34l6.48,3.89l-0.29,7.87l-0.11,3l3,0.11l5.46,0.2l3,0.11l0.11-3l0.32-8.89l12.17,7.3l3.9,2.34l0.61-4.51
			l0.8-5.89l0.27-1.96l-1.7-1.02L45.42,96.01L42.85,94.47z"/>
	</g>
	<g>
		<polygon fill="#231F20" points="17.94,80.54 23.31,71.58 33.29,77.56 33.55,80.04 75,104.89 76.02,103.18 92.4,113 91.65,118.45 
			90.86,124.26 		"/>
	</g>
	<g>
		<path fill="#C1B49A" d="M23.83,73.63l8.05,4.82l0.26,2.48l43.38,26.01l1.03-1.71l14.24,8.54l-0.62,4.47l-0.48,3.56L20,80.03
			l1.69-2.83l1.11-1.86L23.83,73.63z M22.8,69.52l-1.54,2.57l-1.03,1.71l-1.11,1.86l-1.7,2.83l-1.54,2.57l2.57,1.54l69.69,41.78
			l3.9,2.34l0.61-4.51l0.49-3.56l0.61-4.46l0.27-1.96l-1.7-1.02l-14.24-8.54l-2.57-1.54l-1.02,1.71l-39.52-23.7l-0.1-0.99
			l-0.16-1.49l-1.29-0.77l-8.05-4.82L22.8,69.52z"/>
	</g>
	<g>
		<polygon fill="#231F20" points="112.61,154.51 125.34,144.94 93.33,125.74 94.5,116.58 140.48,144.15 117.69,161.28 		"/>
	</g>
	<g>
		<path fill="#C1B49A" d="M95.7,119.05l42.1,25.24l-19.81,14.89l-3.28-4.37l13.32-10.01l-33.09-19.84L95.7,119.05z M93.31,114.12
			l-0.58,4.55l-0.76,5.91l-0.25,1.95l1.68,1.01l29.26,17.54l-9.75,7.33l-2.4,1.8l1.8,2.4l3.28,4.37l1.8,2.4l2.4-1.8l19.81-14.89
			l3.56-2.68l-3.82-2.29l-42.1-25.24L93.31,114.12z"/>
	</g>
	<g>
		<polygon fill="#231F20" points="88.16,110.24 88.21,100.41 95.07,104.52 95.07,102.4 109.91,111.29 109.91,113.42 115.5,116.77 
			115.53,126.66 		"/>
	</g>
	<g>
		<path fill="#C1B49A" d="M89.7,103.05l6.86,4.11l0.01-2.12l11.85,7.1l0,2.13l5.59,3.35l0.02,6.38L89.67,109.4L89.7,103.05z
			 M86.73,97.77l-0.03,5.26l-0.03,6.35l-0.01,1.71l1.47,0.88l24.36,14.61l4.56,2.74l-0.02-5.32l-0.02-6.38l-0.01-1.69l-1.45-0.87
			l-4.14-2.48v-0.43l0-1.7l-1.45-0.87l-11.85-7.1l-4.53-2.72l0,2.12l-2.33-1.4L86.73,97.77z"/>
	</g>
	<g>
		<path fill="#231F20" d="M149.35,137.73l-16.3,9.77l-1.24-9.12l69.81-41.86l4.35,7.26l-24.07,14.43l13.74,10.8l-14.95,8.97
			l-14.27-10.48l-2.68,1.61l2.53,5.98l-8.36,5.01l0.38,10.25l-8.46,0.31L149.35,137.73z M157.67,133.67l1.6-0.96l-0.33-0.73
			l-1.3,0.78L157.67,133.67z M181.09,129.69l2.44-1.46l-7.96-6.22l-2.76,1.65L181.09,129.69z"/>
	</g>
	<g>
		<path fill="#C1B49A" d="M201.1,98.58l2.81,4.68l-24.66,14.78l13.74,10.8l-12.23,7.33L166.5,125.7l-4.65,2.79l2.53,5.98l-8,4.8
			l0.35,9.64l-5.46,0.2l-0.51-13.96l-16.53,9.91l-0.8-5.89L201.1,98.58z M181.01,131.49l5.17-3.1l-10.49-8.2l-5.58,3.35
			L181.01,131.49 M156.26,136.26l4.92-2.95l-1.57-3.48l-3.5,2.1L156.26,136.26 M202.13,94.47l-2.57,1.54l-67.68,40.58l-1.7,1.02
			l0.27,1.96l0.8,5.89l0.61,4.51l3.9-2.34l12.17-7.3l0.32,8.89l0.11,3l3-0.11l5.46-0.2l3-0.11l-0.11-3l-0.29-7.87l6.48-3.89
			l2.24-1.34l-1.02-2.4l-1.51-3.58l0.71-0.42l12.66,9.3l1.61,1.18l1.71-1.03l12.23-7.33l3.73-2.24l-3.42-2.69l-10.31-8.11
			l20.92-12.54l2.57-1.54l-1.54-2.57l-2.81-4.68L202.13,94.47z"/>
	</g>
	<g>
		<polygon fill="#231F20" points="153.33,118.45 152.58,113 168.96,103.18 169.98,104.89 211.43,80.04 211.69,77.56 221.67,71.58 
			227.04,80.54 154.12,124.26 		"/>
	</g>
	<g>
		<path fill="#C1B49A" d="M221.15,73.63l1.03,1.71l1.11,1.86l1.7,2.83l-69.69,41.78l-0.48-3.56l-0.62-4.47l14.24-8.54l1.02,1.71
			l43.38-26.01l0.26-2.48L221.15,73.63z M222.18,69.52l-2.57,1.54l-8.04,4.82l-1.29,0.77l-0.15,1.49l-0.1,0.99l-39.52,23.7
			l-1.03-1.71l-2.57,1.54l-14.24,8.54l-1.7,1.02l0.27,1.96l0.62,4.47l0.48,3.56l0.61,4.51l3.9-2.34l69.69-41.78l2.57-1.54
			l-1.54-2.57l-1.69-2.83l-1.12-1.86l-1.03-1.71L222.18,69.52z"/>
	</g>
	<g>
		<polygon fill="#231F20" points="104.5,144.15 150.48,116.58 151.65,125.74 119.64,144.94 132.37,154.51 127.29,161.28 		"/>
	</g>
	<g>
		<path fill="#C1B49A" d="M149.28,119.05l0.76,5.91l-33.09,19.84l13.32,10.01l-3.28,4.37l-19.8-14.89L149.28,119.05z M151.68,114.12
			l-3.94,2.36l-42.1,25.24l-3.82,2.29l3.56,2.68l19.81,14.89l2.4,1.8l1.8-2.4l3.28-4.37l1.8-2.4l-2.4-1.8l-9.75-7.33l29.26-17.54
			l1.68-1.01l-0.25-1.95l-0.76-5.91L151.68,114.12z"/>
	</g>
	<g>
		<polygon fill="#231F20" points="129.48,116.77 135.07,113.42 135.07,111.29 149.91,102.4 149.92,104.52 156.77,100.41 
			156.82,110.24 129.45,126.66 		"/>
	</g>
	<g>
		<path fill="#C1B49A" d="M155.28,103.05l0.03,6.35L130.95,124l0.02-6.38l5.59-3.35l0-2.13l11.85-7.1l0.01,2.12L155.28,103.05z
			 M158.25,97.77l-4.51,2.71l-2.33,1.4l-0.01-2.12l-4.53,2.72l-11.85,7.1l-1.46,0.87l0,1.7l0,0.43l-4.14,2.48l-1.45,0.87l0,1.69
			l-0.02,6.38l-0.02,5.32l4.56-2.74l24.36-14.61l1.47-0.88l-0.01-1.71l-0.03-6.35L158.25,97.77z"/>
	</g>
	<g>
		<path fill="#231F20" d="M111.1,206.58v-20.09l-4.47,1.21L98,182.61l3.15-14.57c-0.32-1.48-1.84-9.43,1.34-16.59
			c3.65-8.22,9.79-11.89,19.9-11.89c10.25,0,16.2,3.55,19.9,11.89c3.18,7.17,1.67,15.11,1.34,16.59l3.15,14.57l-8.63,5.09
			l-4.47-1.21v20.09l-11.29,5.85L111.1,206.58z M122.4,185.22l3.29-1.55l-3.29-7.29l-3.29,7.29L122.4,185.22z M105.14,178.47
			c3.02-0.07,10.53-0.77,13.23-6.03l-10.83-4.51L105.14,178.47z M126.44,172.44c1.06,1.98,3.08,3.5,6,4.55
			c3.17,1.13,5.8,1.41,7.22,1.47l-2.39-10.53L126.44,172.44z"/>
	</g>
	<g>
		<path fill="#C1B49A" d="M122.4,140.56c10.43,0,15.71,3.92,18.99,11.29c3.35,7.55,1.23,16.18,1.23,16.18l3.05,14.08l-7.65,4.51
			l-5.32-1.45v20.79l-3.29,1.71v-17.41h-2v18.44l-4,2.07v-18.51h-2v18.51l-4-2.07v-18.44h-2v17.41l-3.29-1.71v-20.79l-5.32,1.45
			l-7.65-4.51l3.05-14.08c0,0-2.12-8.63,1.23-16.18C106.68,144.48,111.97,140.56,122.4,140.56 M140.33,179.47
			c0.38,0,0.58-0.01,0.58-0.01l-2.93-12.91l-12.88,5.36c1.16,3.1,3.96,4.93,7,6.02C135.99,179.31,139.1,179.47,140.33,179.47
			 M104.62,179.47c2.76,0,12.41-0.51,15.06-7.56l-12.87-5.36l-2.93,12.91C103.89,179.46,104.15,179.47,104.62,179.47 M122.4,186.33
			l4.61-2.17l-4.61-10.21l-4.61,10.21L122.4,186.33 M122.4,138.56c-10.57,0-16.99,3.85-20.82,12.48c-3.17,7.13-1.86,14.99-1.45,17
			l-2.96,13.66l-0.31,1.41l1.24,0.73l7.65,4.51l0.73,0.43l0.82-0.22l2.8-0.76v18.17v1.22l1.08,0.56l3.29,1.71l0.92,0.48l1.08,0.56
			l4,2.07l0.92,0.48v1.03l1-0.52l1,0.52v-1.03l0.92-0.48l4-2.07l1.08-0.56l0.92-0.48l3.29-1.71l1.08-0.56v-1.22V187.8l2.8,0.76
			l0.81,0.22l0.73-0.43l7.65-4.51l1.24-0.73l-0.31-1.41l-2.96-13.66c0.41-2,1.71-9.86-1.45-17
			C139.38,142.41,132.96,138.56,122.4,138.56 M127.94,172.9l8.62-3.59l1.83,8.05c-1.42-0.16-3.37-0.52-5.61-1.31
			C130.6,175.26,128.98,174.21,127.94,172.9 M106.4,177.41l1.84-8.1l8.66,3.61C114.45,176.3,109.44,177.19,106.4,177.41
			 M120.42,183.18l1.97-4.38l1.97,4.38l-1.97,0.93L120.42,183.18z"/>
	</g>
</g>
</svg>
