<svg xmlns="http://www.w3.org/2000/svg" xmlns:xlink="http://www.w3.org/1999/xlink" width="500" height="500" viewBox="0 0 500 500"><symbol id="b" viewBox="-250.5 -250.36 501 501"><path fill="none" stroke="#C8C8C8" stroke-width="10" stroke-linecap="round" stroke-linejoin="round" stroke-miterlimit="10" d="M141.8 99.36c5.5 0 10 4.5 10 10v22.81c0 5.5-4.5 10-10 10h-283.23c-5.5 0-10-4.5-10-10v-22.81c0-5.5 4.5-10 10-10H141.8z"/><g fill="none" stroke="#79BBAE" stroke-width="10" stroke-linecap="round" stroke-linejoin="round" stroke-miterlimit="10"><path d="M173.21 59.36v-160L0-200.64l-173.21 100v160M-173.21 59.36h48.8M124.41 59.36h48.8"/></g><path fill="none" stroke="#C8C8C8" stroke-width="10" stroke-linecap="round" stroke-linejoin="round" stroke-miterlimit="10" d="M-92.67-174.13l46.34-30M44.81-204.13l44.81 30"/><path fill="#0CBF9D" d="M-135-202.72L0-169.23l135-33.49v310.56h-270z"/><path fill="#64998F" d="M122.53 107.84V70.38h-245.06v38.52"/><path fill="#79BBAE" d="M-122.53-129.9L0-200.64l122.53 70.74V70.38h-245.06z"/><path opacity=".25" fill="#231F20" d="M-122.53 39.7H-135v10.75h12.47zM135 39.7h-12.47v10.75H135zM-122.53-149.84l60.07-34.68 24.94 5.54-85.01 49.08v-19.94zm160.05-29.14l24.94-5.54 60.07 34.68v19.94l-85.01-49.08zM-79.01-188.83l13.21 3.27 6.3-4.32-11-4.37zM77.28-188.4l-13.22 3.27-6.3-4.32 11-4.37z"/><g fill="#79BBAE"><path d="M-10.47 85.49L0 91.54l10.47-6.05V-194.6L0-200.64l-10.47 6.04zM40.47 85.49l10.47 6.05 10.47-6.05v-250.68l-10.47-6.04-10.47-6.05zM90.47 70.38l10.47 6.05 10.47-6.05v-207.13l-10.47-6.04-10.47-6.05zM-61.41 85.49l10.47 6.05 10.47-6.05v-262.77l-10.47 6.05-10.47 6.04zM-111.41 70.38l10.47 6.05 10.47-6.05v-219.22l-10.47 6.05-10.47 6.04z"/></g><path fill="none" stroke="#231F20" stroke-width="10" stroke-linejoin="round" stroke-miterlimit="10" d="M74.33 56.55h6.32c3.48 0 6.32 4.5 6.32 10v22.81c0 5.5-4.5 10-10 10H-76.6c-5.5 0-10-4.5-10-10V66.55c0-5.5 2.79-10 6.19-10h6.19M44.47 142.17h-89.32" opacity=".25"/><path fill="none" stroke="#FFF" stroke-width="10" stroke-linecap="round" stroke-linejoin="round" stroke-miterlimit="10" d="M-.03 142.17v-22.81"/><path fill="none" stroke="#FFF" stroke-width="10" stroke-linejoin="round" stroke-miterlimit="10" d="M74.33 76.55h6.32c3.48 0 6.32 4.5 6.32 10v22.81c0 5.5-4.5 10-10 10H-76.6c-5.5 0-10-4.5-10-10V86.55c0-5.5 2.79-10 6.19-10h6.19"/><g fill="none" stroke="#FFF" stroke-width="10" stroke-linecap="round" stroke-linejoin="round" stroke-miterlimit="10"><path d="M-.95 221.58h-28.72l-22.95-30.31 50.93-49.1M-52.62 191.27H50.72M-1.69 142.17l-19.77 49.1M-21.46 191.27l12.42 30.31M-.95 221.58h28.72l22.95-30.31-50.93-49.1M-.21 142.17l19.77 49.1M19.56 191.27L7.14 221.58"/></g><path opacity=".25" fill="#79BBAE" d="M-106 68.4v39.44h-16.53v-39.5m245.06 0v39.5H106V68.05"/><g><path fill="#0CBF9D" d="M124.41-151.95v34L0-46.13l-124.41-71.82v-34L0-80.13z"/><path opacity=".25" fill="#231F20" d="M-124.41-151.95L0-80.13l124.41-71.82L0-88.39z"/><path fill="#FFF" d="M-124.41-151.95L0-80.13l124.41-71.82L0-76.03z"/></g><g><path fill="#0CBF9D" d="M124.41-85.13v34L0 20.69l-124.41-71.82v-34L0-13.31z"/><path opacity=".25" fill="#231F20" d="M-124.41-85.13L0-13.31l124.41-71.82L0-21.57z"/><path fill="#FFF" d="M-124.41-85.13L0-13.31l124.41-71.82L0-9.2z"/></g><g><path fill="#0CBF9D" d="M124.41-19.21v33.99L0 86.61l-124.41-71.83v-33.99L0 52.61z"/><path opacity=".25" fill="#231F20" d="M-124.41-19.21L0 52.61l124.41-71.82L0 44.35z"/><path fill="#FFF" d="M-124.41-19.21L0 52.61l124.41-71.82L0 56.71z"/></g><g><path fill="none" stroke="#C8C8C8" stroke-width="10" stroke-linecap="round" stroke-linejoin="round" stroke-miterlimit="10" d="M44.81-204.13v14.23c0 7.82-.35 14.23-.77 14.23s-10.71 5.74-22.87 12.76-32.04 7.02-44.19 0-22.37-12.76-22.71-12.76-.61-6.41-.61-14.23v-14.23"/></g></symbol><symbol id="a" viewBox="-251.5 -251.36 503 503"><path fill="none" stroke="#231F20" stroke-width="3" stroke-miterlimit="10" d="M250-249.86h-500v500h500zM-250 250.14l500-500M250 250.14l-500-500"/><path fill="none" stroke="#F00" stroke-width="10" stroke-miterlimit="10" d="M-173.21 99.36L0 199.36l173.21-100v-200L0-200.64l-173.21 100z"/></symbol><use xlink:href="#b" width="501" height="501" x="-250.5" y="-250.36" transform="matrix(1 0 0 -1 256.5 252.334)" overflow="visible"/><path opacity=".25" d="M324 412.31V214.14H189v198.17l67.5 38.97z"/><path d="M330.12 390.39V142.6H182.88v247.79l73.62 42.5z"/><path fill="#79BBAE" d="M255.58 185.8l13.73 42.25h44.42l-35.94 26.11 13.73 42.25-35.94-26.11-35.94 26.11 13.73-42.25-35.94-26.11h44.42z"/><path fill="#FFF" d="M182.88 352.78l73.62 42.5 73.62-42.5v10l-73.62 42.5-73.62-42.5z"/><path fill="#FFF" d="M182.88 332.78l73.62 42.5 73.62-42.5v10l-73.62 42.5-73.62-42.5z"/><path fill="#FFF" d="M182.88 312.78l73.62 42.5 73.62-42.5v10l-73.62 42.5-73.62-42.5z"/><path fill="#FFF" d="M295.48 342.78l-38.98-22.5-38.98 22.5v-10l38.98-22.5 38.98 22.5z"/></svg>