<?xml version="1.0" encoding="utf-8"?>
<!-- Generator: Adobe Illustrator 16.0.2, SVG Export Plug-In . SVG Version: 6.00 Build 0)  -->
<!DOCTYPE svg PUBLIC "-//W3C//DTD SVG 1.1//EN" "http://www.w3.org/Graphics/SVG/1.1/DTD/svg11.dtd">
<svg version="1.1" id="Ranks" xmlns="http://www.w3.org/2000/svg" xmlns:xlink="http://www.w3.org/1999/xlink" x="0px" y="0px"
	 width="242.38px" height="242.38px" viewBox="0 0 242.38 242.38" enable-background="new 0 0 242.38 242.38" xml:space="preserve">
<g>
	<g>
		<polygon fill="#ABB7BF" points="189.75,133.08 179.04,139.47 146.65,139.47 120.61,201.82 120.61,231.09 155.5,210.63 
			165.34,215.76 190.53,204.38 182.11,195.32 		"/>
	</g>
	<g>
		<path fill="#ABB7BF" d="M120.11,231.97l0.04-30.33l26.17-62.66h32.58l11.47-6.85l-7.74,63.03l8.74,9.4l-26.05,11.77l-9.81-5.12
			L120.11,231.97z M121.11,201.92v28.3l34.38-20.16l9.87,5.15l24.33-10.99l-8.11-8.72l7.55-61.46l-9.96,5.94h-32.19L121.11,201.92z"
			/>
	</g>
	<g>
		<polygon fill="#ABB7BF" points="51.46,133.08 62.18,139.47 94.57,139.47 120.61,201.82 120.61,231.09 85.72,210.63 75.87,215.76 
			50.68,204.38 59.11,195.32 		"/>
	</g>
	<g>
		<path fill="#ABB7BF" d="M121.11,231.97L85.7,211.2l-9.81,5.12l-0.22-0.1l-25.82-11.67l8.74-9.4l-7.74-63.03l11.47,6.85H94.9
			l26.21,62.85V231.97z M85.73,210.06l34.38,20.16v-28.3l-25.88-61.95H62.04l-9.96-5.94l7.55,61.46l-8.11,8.72l24.33,10.99
			L85.73,210.06z"/>
	</g>
	<g>
		<path fill="#231F20" d="M196.79,132.8h-7c0-38.19-31.07-69.26-69.26-69.26S51.27,94.61,51.27,132.8h-7
			c0-42.05,34.21-76.26,76.26-76.26S196.79,90.75,196.79,132.8z"/>
	</g>
	<g>
		<path fill="#ABB7BF" d="M125.86,34.87c2.91-4.55,4.07-9,3.44-13.29c-1.05-7.22-6.85-11.04-7.1-11.2l-1.63-1.05l-1.63,1.05
			c-0.25,0.16-6.04,3.98-7.09,11.2c-0.62,4.29,0.54,8.75,3.45,13.29l-47.08,9.7v5.89v4.43v6.04v4.21v23v44.79
			c0,0,0,36.12,52.36,64.36c52.36-28.24,52.36-64.36,52.36-64.36V65.14v-4.21v-6.04v-4.27v-5.89L125.86,34.87z"/>
	</g>
	<g>
		<path fill="#ABB7BF" d="M120.59,197.86l-0.24-0.13c-52.02-28.05-52.62-64.44-52.62-64.8V44.15l46.78-9.64
			c-2.69-4.44-3.75-8.81-3.14-13.02c1.08-7.44,7.06-11.38,7.31-11.54l1.9-1.23l1.9,1.23c0.25,0.16,6.24,4.1,7.33,11.55
			c0.61,4.21-0.44,8.58-3.14,13.02l46.78,9.79v88.62c0,0.36-0.6,36.75-52.62,64.8L120.59,197.86z M68.73,44.97v87.96
			c0,0.36,0.63,36.06,51.86,63.79c51.27-27.76,51.86-63.43,51.86-63.79v-87.8l-47.4-9.92l0.39-0.61c2.84-4.44,3.98-8.8,3.37-12.95
			c-1.02-7.01-6.64-10.7-6.88-10.86l-1.36-0.88l-1.36,0.88c-0.24,0.15-5.85,3.85-6.86,10.85c-0.6,4.16,0.53,8.51,3.37,12.95
			l0.39,0.61L68.73,44.97z"/>
	</g>
	<g>
		<polygon fill="#231F20" points="70.29,201.82 94.54,187.82 90.87,185.48 66.28,199.67 		"/>
	</g>
	<g>
		<polygon fill="#231F20" points="172.94,60.92 120.59,50.57 68.23,60.92 68.23,54.89 120.59,44.53 172.94,54.89 		"/>
	</g>
	<g>
		<polygon fill="#231F20" points="170.88,201.82 146.63,187.82 150.3,185.48 174.89,199.67 		"/>
	</g>
	<g>
		<path fill="#231F20" d="M68.23,50.45v-5.89l47.08-9.7c-2.91-4.55-4.07-9-3.45-13.29c1.05-7.21,6.84-11.04,7.09-11.2l1.63-1.05
			l1.63,1.05c0.25,0.16,6.05,3.99,7.1,11.2c0.63,4.29-0.53,8.75-3.44,13.29l47.08,9.85v5.89L120.58,40.1L68.23,50.45z M120.58,16.87
			c-1.11,1.2-2.44,3.11-2.79,5.63c-0.4,2.9,0.54,6.08,2.8,9.48c2.26-3.4,3.19-6.57,2.79-9.47
			C123.03,19.98,121.69,18.07,120.58,16.87"/>
	</g>
	<g>
		<polygon fill="#231F20" points="120.59,231.09 166.66,204.08 142.92,190.17 137.21,193.77 154.8,204.08 120.59,224.14 
			86.37,204.08 103.94,193.79 98.23,190.18 74.51,204.08 		"/>
	</g>
	<g>
		<polygon fill="#231F20" points="183,197.29 167.58,206.11 165.34,215.76 170.78,208.62 181.07,205.66 185.04,208.67 
			184.14,201.91 188.43,202.25 		"/>
	</g>
	<g>
		<path fill="#231F20" d="M152.39,191.24c15.61-12.39,31.36-28.81,34.21-56.27l-7.58,4.5c-3.11,20.79-18.33,37.26-32.45,48.4
			L152.39,191.24z"/>
	</g>
	<g>
		<path fill="#231F20" d="M88.78,191.24l5.83-3.37c-14.13-11.14-29.35-27.61-32.45-48.4l-7.59-4.5
			C57.42,162.43,73.17,178.85,88.78,191.24"/>
	</g>
	<g>
		<path fill="#231F20" d="M81.28,195.57l4.71-2.72c-16.22-13.03-32.33-30.45-34.61-59.77l-51.99-30.86l11.66,29.45L45,151.27
			l-30.03-9.7l7.28,18.39l21.7,12.53l-19.19-6.2l4.74,11.99l29.53,17.05l11.08-6.4L81.28,195.57z"/>
	</g>
	<g>
		<path fill="#231F20" d="M197.22,172.49l21.7-12.53l7.28-18.39l-30.03,9.7l33.95-19.6l11.66-29.45l-51.99,30.86
			c-2.28,29.32-18.39,46.73-34.61,59.77l4.71,2.72l11.17-6.64l11.08,6.4l29.53-17.05l4.74-11.99L197.22,172.49z"/>
	</g>
	<g>
		<polygon fill="#231F20" points="58.17,197.29 73.59,206.11 75.83,215.76 70.39,208.62 60.1,205.66 56.13,208.67 57.03,201.91 
			52.74,202.25 		"/>
	</g>
	<g>
		<polygon fill="#231F20" points="120.55,174.93 116.59,187.13 104.21,187.41 114.15,195.08 110.56,207.4 120.66,199.94 
			130.83,207.28 127.13,195 137.01,187.21 124.62,187.08 		"/>
	</g>
	<g>
		<path fill="#231F20" d="M120.61,54.08L68.25,65.14v67.79c0,0,0,25.63,31.29,50.59l4.58-0.1l8.61-0.2
			c-13.7-9.19-24.08-19.9-30.34-31.44c-5.78-10.65-6.13-18.48-6.15-18.91V71.63l44.36-9.37l44.36,9.37v61.3
			c0,0.07-0.24,7.54-5.64,17.89c-4.52,8.67-13.4,20.69-30.68,32.3l8.4,0.09l4.94,0.05c30.98-24.88,30.98-50.33,30.98-50.33V65.14
			L120.61,54.08z"/>
	</g>
	<g>
		<path fill-rule="evenodd" clip-rule="evenodd" fill="#231F20" d="M143.34,99.5v-9.19c0-11.7-7.55-17.56-22.65-17.56
			c-15.32,0-22.97,5.89-22.97,17.68v58.49c0,10.9,7.62,16.35,22.85,16.35c6.77,0,12.26-1.43,16.47-4.28
			c4.21-2.85,6.31-6.92,6.31-12.2v-36.73c0-2.65-4.45-8.69-14.1-8.78c-0.43,0-0.84-0.01-1.24-0.01c-7.25,0-9.4,0.67-10.81,2.55
			V90.58c0,0,0.17-1.66,3.27-1.66c3.29,0,3.53,1.61,3.53,1.61l-0.03,8.96H143.34z M118.46,121.34c0.25,0,0.4,0,0.4,0
			s0.26,1.92,2.14,2.03c0.05,0,0.1,0,0.15,0c1.8,0,5.38-1.63,7.75-2.46c0.93-0.32,1.82-0.42,2.13-0.43c0.28-0.01,0.51-0.02,0.7-0.02
			c0.59,0,0.88,0.11,1.43,0.66c0.75,0.76,0.85,2.35,0.85,2.35v5.24l-8.01,1.5c0,0-0.7,0.09-1.06,0.43
			c-0.38,0.35-0.43,0.96-0.43,0.96v6.2c0,0-0.08,0.47-0.32,0.64c-0.15,0.11-0.34,0.13-0.49,0.13c-0.14,0-0.25-0.02-0.25-0.02
			s-1.67,0.21-2.78,0.75c-1.56,0.76-1.71,1.6-1.71,1.6v14.21c0,0-0.47,0.37-1.06,0.53c-0.73,0.2-1.6,0.21-1.6,0.21l-0.32,0.32h-2.56
			l-0.32-0.53h-0.53V155h-0.53l-0.21-0.21l0.75-1.5v-28.42l-0.53-0.43v-1.17h0.64c0,0,0.03-0.53,0.11-0.96
			c0.04-0.2,0.78-0.65,3.1-0.86C116.96,121.35,117.94,121.34,118.46,121.34"/>
	</g>
	<g>
		<path fill-rule="evenodd" clip-rule="evenodd" fill="#231F20" d="M119.5,137.55c0.23,0.18,0.64,0.21,0.64,0.21h2.99
			c0,0,0.3-0.04,0.53-0.21c0.19-0.14,0.32-0.43,0.32-0.43v-5.02c0,0-0.14-0.46-0.43-0.75c-0.15-0.15-0.52-0.39-0.85-0.43
			c-0.05-0.01-0.11-0.01-0.16-0.01c-0.33,0-0.59,0.12-0.59,0.12s0.84,0.4,1.28,0.96c0.35,0.45,0.52,0.87,0.43,1.07
			c-0.01,0.02-0.03,0.03-0.06,0.03c-0.25,0-1.16-0.58-2.13-0.58c-0.09,0-0.18,0-0.27,0.02c-1.06,0.13-2.03,1.07-2.03,1.07v3.42
			C119.18,137.02,119.26,137.36,119.5,137.55"/>
	</g>
</g>
</svg>
