<?xml version="1.0" encoding="utf-8"?>
<!-- Generator: Adobe Illustrator 16.0.0, SVG Export Plug-In . SVG Version: 6.00 Build 0)  -->
<!DOCTYPE svg PUBLIC "-//W3C//DTD SVG 1.1//EN" "http://www.w3.org/Graphics/SVG/1.1/DTD/svg11.dtd">
<svg version="1.1" xmlns="http://www.w3.org/2000/svg" xmlns:xlink="http://www.w3.org/1999/xlink" x="0px" y="0px" width="500px"
	 height="500px" viewBox="0 0 500 500" enable-background="new 0 0 500 500" xml:space="preserve">
<symbol  id="League_x5F_Diamond_1_" viewBox="-250.5 -250.36 501 501">
	<g>
		<path fill="none" stroke="#C8C8C8" stroke-width="10" stroke-linecap="round" stroke-linejoin="round" stroke-miterlimit="10" d="
			M141.8,99.36c5.5,0,10,4.5,10,10l0,22.81c0,5.5-4.5,10-10,10h-283.23c-5.5,0-10-4.5-10-10l0-22.81c0-5.5,4.5-10,10-10H141.8z"/>
	</g>
	<g>
		
			<polyline fill="none" stroke="#79BBAE" stroke-width="10" stroke-linecap="round" stroke-linejoin="round" stroke-miterlimit="10" points="
			173.21,59.36 173.21,-100.64 0,-200.64 -173.21,-100.64 -173.21,59.36 		"/>
		
			<line fill="none" stroke="#79BBAE" stroke-width="10" stroke-linecap="round" stroke-linejoin="round" stroke-miterlimit="10" x1="-173.21" y1="59.36" x2="-124.41" y2="59.36"/>
		
			<line fill="none" stroke="#79BBAE" stroke-width="10" stroke-linecap="round" stroke-linejoin="round" stroke-miterlimit="10" x1="124.41" y1="59.36" x2="173.21" y2="59.36"/>
	</g>
	<g>
		
			<line fill="none" stroke="#C8C8C8" stroke-width="10" stroke-linecap="round" stroke-linejoin="round" stroke-miterlimit="10" x1="-92.67" y1="-174.13" x2="-46.33" y2="-204.13"/>
		
			<line fill="none" stroke="#C8C8C8" stroke-width="10" stroke-linecap="round" stroke-linejoin="round" stroke-miterlimit="10" x1="44.81" y1="-204.13" x2="89.62" y2="-174.13"/>
		<g>
			<g>
				
					<path fill="none" stroke="#C8C8C8" stroke-width="10" stroke-linecap="round" stroke-linejoin="round" stroke-miterlimit="10" d="
					M-46.33-204.13"/>
			</g>
			<g>
				
					<path fill="none" stroke="#C8C8C8" stroke-width="10" stroke-linecap="round" stroke-linejoin="round" stroke-miterlimit="10" d="
					M44.81-204.13"/>
			</g>
		</g>
	</g>
	<polygon opacity="0" fill="none" stroke="#231F20" stroke-miterlimit="10" points="250,-249.86 -250,-249.86 -250,250.14 
		250,250.14 	"/>
	<polygon fill="#0CBF9D" points="-135,-202.72 0,-169.23 135,-202.72 135,107.84 -135,107.84 	"/>
	<polyline fill="#64998F" points="122.53,107.84 122.53,70.38 -122.53,70.38 -122.53,108.9 	"/>
	<polygon fill="#79BBAE" points="-122.53,-129.9 0,-200.64 122.53,-129.9 122.53,70.38 -122.53,70.38 	"/>
	<polygon opacity="0.25" fill="#231F20" points="-122.53,39.7 -135,39.7 -135,50.45 -122.53,50.45 	"/>
	<polygon opacity="0.25" fill="#231F20" points="135,39.7 122.53,39.7 122.53,50.45 135,50.45 	"/>
	<path opacity="0.25" fill="#231F20" d="M-122.53-149.84l60.07-34.68l24.94,5.54l-85.01,49.08V-149.84z M37.52-178.98l24.94-5.54
		l60.07,34.68v19.94L37.52-178.98z"/>
	<polygon opacity="0.25" fill="#231F20" points="-79.01,-188.83 -65.8,-185.56 -59.5,-189.88 -70.5,-194.25 	"/>
	<polygon opacity="0.25" fill="#231F20" points="77.28,-188.4 64.06,-185.13 57.76,-189.45 68.76,-193.82 	"/>
	<g>
		<polygon fill="#79BBAE" points="-10.47,85.49 0,91.54 10.47,85.49 10.47,-194.6 0,-200.64 -10.47,-194.6 		"/>
		<polygon fill="#79BBAE" points="40.47,85.49 50.94,91.54 61.41,85.49 61.41,-165.19 50.94,-171.23 40.47,-177.28 		"/>
		<polygon fill="#79BBAE" points="90.47,70.38 100.94,76.43 111.41,70.38 111.41,-136.75 100.94,-142.79 90.47,-148.84 		"/>
		<polygon fill="#79BBAE" points="-61.41,85.49 -50.94,91.54 -40.47,85.49 -40.47,-177.28 -50.94,-171.23 -61.41,-165.19 		"/>
		<polygon fill="#79BBAE" points="-111.41,70.38 -100.94,76.43 -90.47,70.38 -90.47,-148.84 -100.94,-142.79 -111.41,-136.75 		"/>
	</g>
	<g>
		<g opacity="0.25">
			<path fill="none" stroke="#231F20" stroke-width="10" stroke-linejoin="round" stroke-miterlimit="10" d="M74.33,56.55
				c0,0,2.84,0,6.32,0s6.32,4.5,6.32,10l0,22.81c0,5.5-4.5,10-10,10H-76.6c-5.5,0-10-4.5-10-10l0-22.81c0-5.5,2.79-10,6.19-10
				s6.19,0,6.19,0"/>
		</g>
		<g>
			<g opacity="0.25">
				
					<line fill="none" stroke="#231F20" stroke-width="10" stroke-linejoin="round" stroke-miterlimit="10" x1="44.47" y1="142.17" x2="-44.85" y2="142.17"/>
			</g>
			
				<line fill="none" stroke="#FFFFFF" stroke-width="10" stroke-linecap="round" stroke-linejoin="round" stroke-miterlimit="10" x1="-0.03" y1="142.17" x2="-0.03" y2="119.36"/>
		</g>
		<g>
			<path fill="none" stroke="#FFFFFF" stroke-width="10" stroke-linejoin="round" stroke-miterlimit="10" d="M74.33,76.55
				c0,0,2.84,0,6.32,0s6.32,4.5,6.32,10l0,22.81c0,5.5-4.5,10-10,10H-76.6c-5.5,0-10-4.5-10-10l0-22.81c0-5.5,2.79-10,6.19-10
				s6.19,0,6.19,0"/>
		</g>
		<g>
			
				<polyline fill="none" stroke="#FFFFFF" stroke-width="10" stroke-linecap="round" stroke-linejoin="round" stroke-miterlimit="10" points="
				-0.95,221.58 -29.67,221.58 -52.62,191.27 -1.69,142.17 			"/>
			
				<line fill="none" stroke="#FFFFFF" stroke-width="10" stroke-linecap="round" stroke-linejoin="round" stroke-miterlimit="10" x1="-52.62" y1="191.27" x2="50.72" y2="191.27"/>
			
				<line fill="none" stroke="#FFFFFF" stroke-width="10" stroke-linecap="round" stroke-linejoin="round" stroke-miterlimit="10" x1="-1.69" y1="142.17" x2="-21.46" y2="191.27"/>
			
				<line fill="none" stroke="#FFFFFF" stroke-width="10" stroke-linecap="round" stroke-linejoin="round" stroke-miterlimit="10" x1="-21.46" y1="191.27" x2="-9.04" y2="221.58"/>
			
				<polyline fill="none" stroke="#FFFFFF" stroke-width="10" stroke-linecap="round" stroke-linejoin="round" stroke-miterlimit="10" points="
				-0.95,221.58 27.77,221.58 50.72,191.27 -0.21,142.17 			"/>
			
				<line fill="none" stroke="#FFFFFF" stroke-width="10" stroke-linecap="round" stroke-linejoin="round" stroke-miterlimit="10" x1="-0.21" y1="142.17" x2="19.56" y2="191.27"/>
			
				<line fill="none" stroke="#FFFFFF" stroke-width="10" stroke-linecap="round" stroke-linejoin="round" stroke-miterlimit="10" x1="19.56" y1="191.27" x2="7.14" y2="221.58"/>
		</g>
	</g>
	<path opacity="0.25" fill="#79BBAE" d="M-106,68.4v39.44h-16.53v-39.5 M122.53,68.34v39.5H106V68.05"/>
	<g>
		<polygon fill="#0CBF9D" points="124.41,-151.95 124.41,-117.95 0,-46.13 -124.41,-117.95 -124.41,-151.95 0,-80.13 		"/>
		<polygon opacity="0.25" fill="#231F20" points="-124.41,-151.95 0,-80.13 124.41,-151.95 0,-88.39 		"/>
		<polygon fill="#FFFFFF" points="-124.41,-151.95 0,-80.13 124.41,-151.95 0,-76.03 		"/>
	</g>
	<g>
		<polygon fill="#0CBF9D" points="124.41,-85.13 124.41,-51.13 0,20.69 -124.41,-51.13 -124.41,-85.13 0,-13.31 		"/>
		<polygon opacity="0.25" fill="#231F20" points="-124.41,-85.13 0,-13.31 124.41,-85.13 0,-21.57 		"/>
		<polygon fill="#FFFFFF" points="-124.41,-85.13 0,-13.31 124.41,-85.13 0,-9.2 		"/>
	</g>
	<g>
		<polygon fill="#0CBF9D" points="124.41,-19.21 124.41,14.78 0,86.61 -124.41,14.78 -124.41,-19.21 0,52.61 		"/>
		<polygon opacity="0.25" fill="#231F20" points="-124.41,-19.21 0,52.61 124.41,-19.21 0,44.35 		"/>
		<polygon fill="#FFFFFF" points="-124.41,-19.21 0,52.61 124.41,-19.21 0,56.71 		"/>
	</g>
	<g>
		<path fill="none" stroke="#C8C8C8" stroke-width="10" stroke-linecap="round" stroke-linejoin="round" stroke-miterlimit="10" d="
			M44.81-204.13c0,0,0,6.41,0,14.23s-0.35,14.23-0.77,14.23s-10.71,5.74-22.87,12.76s-32.04,7.02-44.19,0s-22.37-12.76-22.71-12.76
			s-0.61-6.41-0.61-14.23s0-14.23,0-14.23"/>
	</g>
</symbol>
<symbol  id="base" viewBox="-251.5 -251.36 503 503">
	<polygon fill="none" stroke="#231F20" stroke-width="3" stroke-miterlimit="10" points="250,-249.86 -250,-249.86 -250,250.14 
		250,250.14 	"/>
	<line fill="none" stroke="#231F20" stroke-width="3" stroke-miterlimit="10" x1="-250" y1="250.14" x2="250" y2="-249.86"/>
	<line fill="none" stroke="#231F20" stroke-width="3" stroke-miterlimit="10" x1="250" y1="250.14" x2="-250" y2="-249.86"/>
	<polygon fill="none" stroke="#FF0000" stroke-width="10" stroke-miterlimit="10" points="-173.21,99.36 0,199.36 173.21,99.36 
		173.21,-100.64 0,-200.64 -173.21,-100.64 	"/>
</symbol>
<g id="Layer_1" display="none">
</g>
<g id="_x5B_HBE_x5D__-_Bg" display="none">
	<rect x="-2055.66" y="-3520.41" display="inline" fill="#3A3A3A" width="2615.48" height="4079.18"/>
</g>
<g id="_x5B_HBE_x5D__-_Struct" display="none">
	<g id="League_x5F_Bronze" display="inline">
	</g>
	
		<use xlink:href="#base"  width="503" height="503" id="XMLID_20_" x="-251.5" y="-251.36" transform="matrix(1 0 0 -1 256.5 252.334)" display="inline" overflow="visible"/>
</g>
<g id="Bases">
	<g id="League_x5F_Diamond_x5F_Small">
		<g id="League_x5F_Diamond">
		</g>
	</g>
</g>
<g id="Compound">
	<g id="Rank_x5F_Copper_x5F_4_x5F_Small_1_">
		<g id="Rank_x5F_Copper_x5F_4_2_">
		</g>
	</g>
	<g id="Rank_x5F_Copper_x5F_4_x5F_Small_2_">
		<g id="Rank_x5F_Copper_x5F_4_3_">
		</g>
	</g>
	<g id="Rank_x5F_Copper_x5F_4_5_">
		<g id="League_x5F_Copper">
		</g>
	</g>
	<g id="Rank_x5F_Copper_x5F_4_x5F_Small_4_">
		<g id="Rank_x5F_Copper_x5F_4_6_">
		</g>
	</g>
	<g id="Rank_x5F_Copper_x5F_4_x5F_Small_3_">
		<g id="Rank_x5F_Copper_x5F_4_4_">
		</g>
	</g>
	<g id="Rank_x5F_Copper_x5F_4_x5F_Small">
		<g id="Rank_x5F_Copper_x5F_4">
		</g>
	</g>
	<g id="Position_x5F_1_x5F_Small">
		<g id="Position_x5F_1_1_">
		</g>
	</g>
	<g id="Rank_x5F_Copper_x5F_3">
	</g>
	<g id="Rank_x5F_Copper_x5F_2">
	</g>
	<g id="Rank_x5F_Copper_x5F_1">
	</g>
	<g id="Rank_x5F_Bronze_x5F_4">
	</g>
	<g id="Rank_x5F_Bronze_x5F_3">
	</g>
	<g id="Rank_x5F_Bronze_x5F_2">
	</g>
	<g id="Rank_x5F_Bronze_x5F_1">
	</g>
	<g id="Rank_x5F_Silver_x5F_4">
	</g>
	<g id="Rank_x5F_Silver_x5F_3">
	</g>
	<g id="Rank_x5F_Silver_x5F_2">
	</g>
	<g id="Rank_x5F_Silver_x5F_1">
	</g>
	<g id="Rank_x5F_Gold_x5F_4">
	</g>
	<g id="Rank_x5F_Gold_x5F_3">
	</g>
	<g id="Rank_x5F_Gold_x5F_2">
	</g>
	<g id="Rank_x5F_Gold_x5F_1">
	</g>
	<g id="Rank_x5F_Platinum_x5F_4">
	</g>
	<g id="Rank_x5F_Platinum_x5F_3">
	</g>
	<g id="Rank_x5F_Platinum_x5F_2">
	</g>
	<g id="Rank_x5F_Platinum_x5F_1">
		
			<use xlink:href="#League_x5F_Diamond_1_"  width="501" height="501" id="XMLID_60_" x="-250.5" y="-250.36" transform="matrix(1 0 0 -1 256.5 252.334)" overflow="visible"/>
		<g id="Position_x5F_1">
			<g opacity="0">
				<polygon fill="none" stroke="#FF0000" stroke-width="0.25" stroke-miterlimit="10" points="83.29,151.28 256.5,51.28 
					429.71,151.28 429.71,351.28 256.5,451.28 83.29,351.28 				"/>
				<polygon fill="none" stroke="#FF0000" stroke-width="0.25" stroke-miterlimit="10" points="114.47,333.28 256.5,251.28 
					398.53,333.28 398.53,333.28 256.5,415.28 114.47,333.28 				"/>
			</g>
			<rect x="6.5" y="0.5" opacity="0" fill="none" stroke="#231F20" stroke-miterlimit="10" width="500" height="500"/>
			<g>
				<g>
					<polygon opacity="0.25" points="324,412.31 324,214.14 256.5,214.14 189,214.14 189,412.31 256.5,451.28 					"/>
					<polygon points="330.12,390.39 330.12,142.6 256.5,142.6 182.88,142.6 182.88,390.39 256.5,432.89 					"/>
					<polygon fill="#79BBAE" points="255.58,185.8 269.31,228.05 313.73,228.05 277.79,254.16 291.52,296.41 255.58,270.3 
						219.64,296.41 233.37,254.16 197.43,228.05 241.85,228.05 					"/>
				</g>
				<polygon fill="#FFFFFF" points="182.88,352.78 256.5,395.28 330.12,352.78 330.12,362.78 256.5,405.28 182.88,362.78 				"/>
				<polygon fill="#FFFFFF" points="182.88,332.78 256.5,375.28 330.12,332.78 330.12,342.78 256.5,385.28 182.88,342.78 				"/>
				<polygon fill="#FFFFFF" points="182.88,312.78 256.5,355.28 330.12,312.78 330.12,322.78 256.5,365.28 182.88,322.78 				"/>
				<polygon fill="#FFFFFF" points="295.48,342.78 256.5,320.28 217.52,342.78 217.52,332.78 256.5,310.28 295.48,332.78 				"/>
			</g>
		</g>
	</g>
</g>
</svg>
