<svg xmlns="http://www.w3.org/2000/svg" xmlns:xlink="http://www.w3.org/1999/xlink" width="500" height="500" viewBox="0 0 500 500"><symbol id="a" viewBox="-250.5 -250.36 501 501"><path fill="none" stroke="#C8C8C8" stroke-width="10" stroke-linecap="round" stroke-linejoin="round" stroke-miterlimit="10" d="M141.62 99.36c5.5 0 10 4.5 10 10v22.81c0 5.5-4.5 10-10 10h-283.23c-5.5 0-10-4.5-10-10v-22.81c0-5.5 4.5-10 10-10h283.23z"/><path fill="none" d="M29.66 203.5L-.92 172.92-31.5 203.5h-141.71V80.84h344.58V203.5z"/><path fill="#7C2B00" d="M-135-122.7L0-200.64l135 77.94v230.54h-270z"/><path fill="none" stroke="#C8C8C8" stroke-width="10" stroke-linecap="round" stroke-linejoin="round" stroke-miterlimit="10" d="M0 142.17l-28.59 40.68L0 199.36l28.59-16.51z"/><path opacity=".5" fill="#7C2B00" d="M-122.53-130.96l43.44-26.58-26.91 26.89V69.32h-16.53v-200.28zM106 69.32V-132.4l-29.52-26.73 46.04 28.16V69.32H106z"/><path opacity=".25" fill="#7C2B00" d="M-106 68.4v39.44h-16.53v-39.5m245.06 0v39.5H106V68.05"/></symbol><symbol id="b" viewBox="-250.5 -250.5 501 501"><path opacity=".25" d="M67.5-131.67V36.36h-135v-168.03L0-170.64z"/><path d="M73.62-109.75v217.59H-73.62v-217.59L0-152.25z"/><path d="M-32.2-46.28v93.9h17.7v-93.9h-17.7zm46.7 0v93.9h17.7v-93.9H14.5zM-73.62-89.75L0-132.25l73.62 42.5v-10L0-142.25l-73.62 42.5z" fill="#FFF"/><path fill="#FFF" d="M-73.62-69.75L0-112.25l73.62 42.5v-10L0-122.25l-73.62 42.5z"/></symbol><g transform="matrix(1 0 0 -1 256.5 252.336)"><use xlink:href="#a" width="501" height="501" x="-250.5" y="-250.36" overflow="visible"/><use xlink:href="#b" width="501" height="501" x="-250.5" y="-250.5" overflow="visible"/></g></svg>