<?xml version="1.0" encoding="utf-8"?>
<!-- Generator: Adobe Illustrator 16.0.0, SVG Export Plug-In . SVG Version: 6.00 Build 0)  -->
<!DOCTYPE svg PUBLIC "-//W3C//DTD SVG 1.1//EN" "http://www.w3.org/Graphics/SVG/1.1/DTD/svg11.dtd">
<svg version="1.1" xmlns="http://www.w3.org/2000/svg" xmlns:xlink="http://www.w3.org/1999/xlink" x="0px" y="0px" width="500px"
	 height="500px" viewBox="0 0 500 500" enable-background="new 0 0 500 500" xml:space="preserve">
<symbol  id="League_x5F_Copper_1_" viewBox="-250.5 -250.36 501 501">
	<path opacity="0" fill="#7C2B00" d="M0-200.64l173.21,100v200L0,199.36l-173.21-100v-200L0-200.64z"/>
	<polygon opacity="0" fill="none" stroke="#231F20" stroke-miterlimit="10" points="250,-249.86 -250,-249.86 -250,250.14 
		250,250.14 	"/>
	<g>
		<path fill="none" stroke="#C8C8C8" stroke-width="10" stroke-linecap="round" stroke-linejoin="round" stroke-miterlimit="10" d="
			M141.62,99.36c5.5,0,10,4.5,10,10l0,22.81c0,5.5-4.5,10-10,10h-283.23c-5.5,0-10-4.5-10-10l0-22.81c0-5.5,4.5-10,10-10H141.62z"/>
	</g>
	<polygon fill="none" points="29.66,203.5 -0.92,172.92 -31.5,203.5 -173.21,203.5 -173.21,80.84 171.37,80.84 171.37,203.5 	"/>
	<polygon fill="#7C2B00" points="-135,-122.7 0,-200.64 135,-122.7 135,107.84 -135,107.84 	"/>
	
		<polygon fill="none" stroke="#C8C8C8" stroke-width="10" stroke-linecap="round" stroke-linejoin="round" stroke-miterlimit="10" points="
		0,142.17 -28.59,182.85 0,199.36 28.59,182.85 	"/>
	<path opacity="0.5" fill="#7C2B00" d="M-122.53-130.96l43.44-26.58L-106-130.65V69.32h-16.53V-130.96z M106,69.32V-132.4
		l-29.52-26.73l46.04,28.16V69.32H106z"/>
	<path opacity="0.25" fill="#7C2B00" d="M-106,68.4v39.44h-16.53v-39.5 M122.53,68.34v39.5H106V68.05"/>
</symbol>
<symbol  id="Position_x5F_1_3_" viewBox="-250.5 -250.5 501 501">
	<g opacity="0">
		<polygon fill="none" stroke="#FF0000" stroke-width="0.25" stroke-miterlimit="10" points="-173.21,99.22 0,199.22 173.21,99.22 
			173.21,-100.78 0,-200.78 -173.21,-100.78 		"/>
		<polygon fill="none" stroke="#FF0000" stroke-width="0.25" stroke-miterlimit="10" points="-142.03,-82.78 0,-0.78 142.03,-82.78 
			142.03,-82.78 0,-164.78 -142.03,-82.78 		"/>
	</g>
	<polygon opacity="0" fill="none" stroke="#231F20" stroke-miterlimit="10" points="250,-250 -250,-250 -250,250 250,250 	"/>
	<g>
		<polygon opacity="0.25" points="67.5,-161.81 67.5,36.36 0,36.36 -67.5,36.36 -67.5,-161.81 0,-200.78 		"/>
		<polygon points="73.62,-139.89 73.62,107.9 0,107.9 -73.62,107.9 -73.62,-139.89 0,-182.39 		"/>
		<polygon fill="#FFFFFF" points="-0.92,64.7 12.81,22.45 57.23,22.45 21.29,-3.66 35.02,-45.91 -0.92,-19.8 -36.86,-45.91 
			-23.13,-3.66 -59.07,22.45 -14.65,22.45 		"/>
	</g>
	<polygon fill="#FFFFFF" points="-73.62,-102.28 0,-144.78 73.62,-102.28 73.62,-112.28 0,-154.78 -73.62,-112.28 	"/>
	<polygon fill="#FFFFFF" points="-73.62,-82.28 0,-124.78 73.62,-82.28 73.62,-92.28 0,-134.78 -73.62,-92.28 	"/>
	<polygon fill="#FFFFFF" points="-73.62,-62.28 0,-104.78 73.62,-62.28 73.62,-72.28 0,-114.78 -73.62,-72.28 	"/>
	<polygon fill="#FFFFFF" points="38.98,-92.28 0,-69.78 -38.98,-92.28 -38.98,-82.28 0,-59.78 38.98,-82.28 	"/>
</symbol>
<symbol  id="base" viewBox="-251.5 -251.36 503 503">
	<polygon fill="none" stroke="#231F20" stroke-width="3" stroke-miterlimit="10" points="250,-249.86 -250,-249.86 -250,250.14 
		250,250.14 	"/>
	<line fill="none" stroke="#231F20" stroke-width="3" stroke-miterlimit="10" x1="-250" y1="250.14" x2="250" y2="-249.86"/>
	<line fill="none" stroke="#231F20" stroke-width="3" stroke-miterlimit="10" x1="250" y1="250.14" x2="-250" y2="-249.86"/>
	<polygon fill="none" stroke="#FF0000" stroke-width="10" stroke-miterlimit="10" points="-173.21,99.36 0,199.36 173.21,99.36 
		173.21,-100.64 0,-200.64 -173.21,-100.64 	"/>
</symbol>
<g id="Layer_1" display="none">
</g>
<g id="_x5B_HBE_x5D__-_Bg" display="none">
	<rect x="-2055.66" y="-60.6" display="inline" fill="#3A3A3A" width="2615.48" height="4079.18"/>
</g>
<g id="_x5B_HBE_x5D__-_Struct" display="none">
	<g id="League_x5F_Bronze" display="inline">
	</g>
	
		<use xlink:href="#base"  width="503" height="503" id="XMLID_4_" x="-251.5" y="-251.36" transform="matrix(1 0 0 -1 256.5 252.334)" display="inline" overflow="visible"/>
</g>
<g id="Bases">
	<g id="League_x5F_Diamond_x5F_Small">
		<g id="League_x5F_Diamond">
		</g>
	</g>
</g>
<g id="Compound">
	<g id="Rank_x5F_Copper_x5F_4_x5F_Small_1_">
		<g id="Rank_x5F_Copper_x5F_4_2_">
		</g>
	</g>
	<g id="Rank_x5F_Copper_x5F_4_x5F_Small_2_">
		<g id="Rank_x5F_Copper_x5F_4_3_">
		</g>
	</g>
	<g id="Rank_x5F_Copper_x5F_4_5_">
		<g id="League_x5F_Copper">
		</g>
	</g>
	<g id="Rank_x5F_Copper_x5F_4_x5F_Small_4_">
		<g id="Rank_x5F_Copper_x5F_4_6_">
		</g>
	</g>
	<g id="Rank_x5F_Copper_x5F_4_x5F_Small_3_">
		<g id="Rank_x5F_Copper_x5F_4_4_">
		</g>
	</g>
	<g id="Rank_x5F_Copper_x5F_4_x5F_Small">
		<g id="Rank_x5F_Copper_x5F_4">
		</g>
	</g>
	<g id="Position_x5F_1_x5F_Small">
		<g id="Position_x5F_1_1_">
		</g>
	</g>
	<g id="Rank_x5F_Copper_x5F_3">
	</g>
	<g id="Rank_x5F_Copper_x5F_2">
	</g>
	<g id="Rank_x5F_Copper_x5F_1">
		
			<use xlink:href="#League_x5F_Copper_1_"  width="501" height="501" x="-250.5" y="-250.36" transform="matrix(1 0 0 -1 256.5 252.334)" overflow="visible"/>
		
			<use xlink:href="#Position_x5F_1_3_"  width="501" height="501" id="XMLID_120_" x="-250.5" y="-250.5" transform="matrix(1 0 0 -1 256.5 252.334)" overflow="visible"/>
	</g>
	<g id="Rank_x5F_Bronze_x5F_4">
	</g>
	<g id="Rank_x5F_Bronze_x5F_3">
	</g>
	<g id="Rank_x5F_Bronze_x5F_2">
	</g>
	<g id="Rank_x5F_Bronze_x5F_1">
	</g>
	<g id="Rank_x5F_Silver_x5F_4">
	</g>
	<g id="Rank_x5F_Silver_x5F_3">
	</g>
	<g id="Rank_x5F_Silver_x5F_2">
	</g>
	<g id="Rank_x5F_Silver_x5F_1">
	</g>
	<g id="Rank_x5F_Gold_x5F_4">
	</g>
	<g id="Rank_x5F_Gold_x5F_3">
	</g>
	<g id="Rank_x5F_Gold_x5F_2">
	</g>
	<g id="Rank_x5F_Gold_x5F_1">
	</g>
	<g id="Rank_x5F_Platinum_x5F_4">
	</g>
	<g id="Rank_x5F_Platinum_x5F_3">
	</g>
	<g id="Rank_x5F_Platinum_x5F_2">
	</g>
	<g id="Rank_x5F_Platinum_x5F_1">
		<g id="Position_x5F_1">
		</g>
	</g>
</g>
</svg>
