<?xml version="1.0" encoding="utf-8"?>
<!-- Generator: Adobe Illustrator 16.0.2, SVG Export Plug-In . SVG Version: 6.00 Build 0)  -->
<!DOCTYPE svg PUBLIC "-//W3C//DTD SVG 1.1//EN" "http://www.w3.org/Graphics/SVG/1.1/DTD/svg11.dtd">
<svg version="1.1" id="Ranks" xmlns="http://www.w3.org/2000/svg" xmlns:xlink="http://www.w3.org/1999/xlink" x="0px" y="0px"
	 width="242.38px" height="242.38px" viewBox="0 0 242.38 242.38" enable-background="new 0 0 242.38 242.38" xml:space="preserve">
<g>
	<g>
		<path fill="#D0D2D3" d="M120.61,54.08L68.25,65.01v23.13v44.79c0,0,0,36.12,52.36,64.36c52.36-28.24,52.36-64.36,52.36-64.36
			V65.01L120.61,54.08z"/>
	</g>
	<g>
		<path fill="#D0D2D3" d="M120.61,201.29c-0.65,0-1.31-0.16-1.9-0.48c-53.84-29.04-54.46-66.31-54.46-67.88V65.01
			c0-1.89,1.33-3.53,3.18-3.92l52.36-10.93c0.54-0.11,1.1-0.11,1.63,0l52.36,10.93c1.85,0.39,3.18,2.02,3.18,3.92v67.92
			c0,1.57-0.62,38.84-54.46,67.88C121.92,201.13,121.26,201.29,120.61,201.29z M72.25,68.26v64.67c0.01,1.35,0.89,33.38,48.36,59.8
			c47.47-26.42,48.35-58.45,48.36-59.82V68.26l-48.36-10.09L72.25,68.26z"/>
	</g>
	<g>
		<path fill="#231F20" d="M120.61,62.26l44.36,9.37v61.31c0,0.07-0.24,7.54-5.64,17.89c-5.17,9.93-16.06,24.23-38.72,37.31
			c-17.64-10.18-30.8-22.69-38.21-36.35c-5.78-10.65-6.13-18.48-6.14-18.91V71.63L120.61,62.26 M120.61,54.08L68.25,65.14v67.79
			c0,0,0,36.12,52.36,64.36c52.36-28.24,52.36-64.36,52.36-64.36V65.14L120.61,54.08z"/>
	</g>
	<g>
		<polygon fill="#231F20" points="74.25,93.55 72.13,89.02 120.61,66.33 169.08,89.02 166.96,93.55 120.61,71.85 		"/>
	</g>
	<g>
		<polygon fill="#231F20" points="119.16,100.47 109.29,108.25 112.98,120.54 102.81,113.2 92.71,120.66 96.3,108.34 86.37,100.67 
			98.74,100.39 102.71,88.19 106.77,100.34 		"/>
	</g>
	<g>
		<polygon fill="#231F20" points="154.63,100.47 144.76,108.25 148.46,120.54 138.29,113.2 128.19,120.66 131.77,108.34 
			121.84,100.67 134.22,100.39 138.18,88.19 142.25,100.34 		"/>
	</g>
	<g>
		<polygon fill="#231F20" points="119.16,133.47 109.29,141.25 112.98,153.54 102.81,146.2 92.71,153.66 96.3,141.34 86.37,133.67 
			98.74,133.39 102.71,121.19 106.77,133.34 		"/>
	</g>
	<g>
		<polygon fill="#231F20" points="154.63,133.47 144.76,141.25 148.46,153.54 138.29,146.2 128.19,153.66 131.77,141.34 
			121.84,133.67 134.22,133.39 138.18,121.19 142.25,133.34 		"/>
	</g>
</g>
</svg>
