<?xml version="1.0" encoding="utf-8"?>
<!-- Generator: Adobe Illustrator 16.0.2, SVG Export Plug-In . SVG Version: 6.00 Build 0)  -->
<!DOCTYPE svg PUBLIC "-//W3C//DTD SVG 1.1//EN" "http://www.w3.org/Graphics/SVG/1.1/DTD/svg11.dtd">
<svg version="1.1" id="Ranks" xmlns="http://www.w3.org/2000/svg" xmlns:xlink="http://www.w3.org/1999/xlink" x="0px" y="0px"
	 width="242.38px" height="242.38px" viewBox="0 0 242.38 242.38" enable-background="new 0 0 242.38 242.38" xml:space="preserve">
<g>
	<g>
		<polygon fill="#A57D2D" points="155.3,161.94 171.03,161.94 168.71,174.89 120.32,197.36 		"/>
	</g>
	<g>
		<path fill="#A57D2D" d="M120.32,201.36c-1.27,0-2.5-0.6-3.27-1.7c-1.11-1.58-0.93-3.74,0.43-5.11l34.99-35.42
			c0.75-0.76,1.78-1.19,2.85-1.19h15.73c1.18,0,2.31,0.52,3.07,1.43c0.76,0.91,1.08,2.11,0.87,3.27l-2.32,12.95
			c-0.23,1.28-1.07,2.38-2.25,2.92L122,200.98C121.46,201.24,120.89,201.36,120.32,201.36z M156.97,165.94l-18.23,18.45l26.39-12.25
			l1.11-6.2H156.97z"/>
	</g>
	<g>
		<polyline fill="#231F20" points="129.09,190.81 167.03,173.21 168.71,164.08 156.75,164.08 		"/>
	</g>
	<g>
		<polygon fill="#231F20" points="130.36,193.54 127.83,188.09 164.36,171.14 165.11,167.08 156.75,167.08 156.75,161.08 
			172.32,161.08 169.7,175.27 		"/>
	</g>
	<g>
		<polygon fill="#A57D2D" points="85.54,161.94 69.81,161.94 72.13,174.89 120.52,197.36 		"/>
	</g>
	<g>
		<path fill="#A57D2D" d="M120.52,201.36c-0.57,0-1.14-0.12-1.68-0.37l-48.4-22.46c-1.18-0.55-2.02-1.64-2.25-2.92l-2.32-12.95
			c-0.21-1.17,0.11-2.36,0.87-3.27c0.76-0.91,1.88-1.43,3.07-1.43h15.73c1.07,0,2.09,0.43,2.85,1.19l34.99,35.42
			c1.36,1.38,1.54,3.53,0.43,5.11C123.03,200.75,121.79,201.36,120.52,201.36z M75.7,172.14l26.39,12.25l-18.23-18.45h-9.28
			L75.7,172.14z"/>
	</g>
	<g>
		<polyline fill="#231F20" points="111.75,190.81 73.81,173.21 72.13,164.08 84.09,164.08 		"/>
	</g>
	<g>
		<polygon fill="#231F20" points="110.48,193.54 71.15,175.27 68.52,161.08 84.09,161.08 84.09,167.08 75.73,167.08 76.48,171.14 
			113.01,188.09 		"/>
	</g>
	<g>
		<path fill="#A57D2D" d="M120.58,44.53L68.23,54.89v6.04v4.21v23v44.79c0,0,0,36.12,52.36,64.36
			c52.36-28.24,52.36-64.36,52.36-64.36V65.14v-4.21v-6.04L120.58,44.53z"/>
	</g>
	<g>
		<path fill="#A57D2D" d="M120.58,201.29c-0.65,0-1.31-0.16-1.9-0.48c-53.84-29.04-54.46-66.31-54.46-67.88V54.89
			c0-1.91,1.35-3.55,3.22-3.92l52.36-10.35c0.51-0.1,1.04-0.1,1.55,0l52.36,10.35c1.87,0.37,3.22,2.01,3.22,3.92v78.04
			c0,1.57-0.62,38.84-54.46,67.88C121.89,201.13,121.24,201.29,120.58,201.29z M72.23,58.17v74.76c0.01,1.35,0.89,33.38,48.36,59.8
			c47.47-26.42,48.35-58.45,48.36-59.82V58.17l-48.36-9.56L72.23,58.17z"/>
	</g>
	<g>
		<polygon fill="#231F20" points="172.94,60.93 120.58,50.57 68.22,60.93 68.22,54.89 120.58,44.53 172.94,54.89 		"/>
	</g>
	<g>
		<path fill="#231F20" d="M120.53,62.26l44.36,9.37v61.31c0,0.07-0.24,7.54-5.64,17.89c-5.17,9.93-16.06,24.23-38.72,37.31
			c-17.64-10.18-30.8-22.69-38.21-36.36c-5.78-10.65-6.13-18.48-6.15-18.91V71.63L120.53,62.26 M120.53,54.08L68.17,65.14v67.79
			c0,0,0,36.12,52.36,64.36c52.36-28.24,52.36-64.36,52.36-64.36V65.14L120.53,54.08z"/>
	</g>
	<g>
		<path fill="#231F20" d="M84.99,148.51l62.44-76.44l14.49,3.21l-68.3,85.73c0,0-2.81-3.01-4.81-5.81
			C86.61,152.13,84.99,148.51,84.99,148.51"/>
	</g>
	<g>
		<polygon fill="#A57D2D" points="111.22,116 97.1,105.1 114.7,104.7 120.43,87.05 126.32,104.63 143.94,104.81 129.9,115.89 
			135.21,133.54 120.59,122.99 106.06,133.72 		"/>
	</g>
	<g>
		<path fill="#A57D2D" d="M120.47,95.03l4.04,12.08l12.31,0.13l-9.81,7.74l3.67,12.21l-10.11-7.3l-10.04,7.42l3.57-12.25l-9.88-7.62
			l12.31-0.28L120.47,95.03z M120.4,79.07l-4.68,14.42l-2.84,8.75l-8.76,0.2l-14.13,0.32l11.19,8.64l7.18,5.54l-2.61,8.98
			l-4.14,14.21l11.91-8.79l7.11-5.25l7.15,5.16l11.96,8.63l-4.25-14.13l-2.69-8.96l7.14-5.63l11.13-8.78l-14.17-0.15l-8.75-0.09
			l-2.92-8.71L120.4,79.07z"/>
	</g>
	<g>
		<path fill="#231F20" d="M106.96,132.44l4.84-16.63l-13.27-10.25l16.54-0.38l5.38-16.55l5.52,16.48l16.56,0.17l-13.2,10.41
			l4.98,16.56l-13.71-9.9L106.96,132.44z M109.92,109.31l6.48,5l-2.29,7.88l6.45-4.76l6.51,4.7l-2.37-7.87l6.43-5.07l-8.07-0.08
			l-2.57-7.68l-2.5,7.71L109.92,109.31z"/>
	</g>
</g>
</svg>
