<?xml version="1.0" encoding="utf-8"?>
<!-- Generator: Adobe Illustrator 16.0.2, SVG Export Plug-In . SVG Version: 6.00 Build 0)  -->
<!DOCTYPE svg PUBLIC "-//W3C//DTD SVG 1.1//EN" "http://www.w3.org/Graphics/SVG/1.1/DTD/svg11.dtd">
<svg version="1.1" id="Ranks" xmlns="http://www.w3.org/2000/svg" xmlns:xlink="http://www.w3.org/1999/xlink" x="0px" y="0px"
	 width="242.38px" height="242.38px" viewBox="0 0 242.38 242.38" enable-background="new 0 0 242.38 242.38" xml:space="preserve">
<g>
	<g>
		<polygon fill="#A57D2D" points="164.13,158.63 180.79,158.63 178.04,174 122.6,200.67 		"/>
	</g>
	<g>
		<path fill="#A57D2D" d="M122.6,204.67c-1.26,0-2.49-0.59-3.26-1.68c-1.13-1.58-0.96-3.75,0.41-5.14l41.53-42.04
			c0.75-0.76,1.78-1.19,2.85-1.19h16.67c1.18,0,2.31,0.52,3.07,1.43s1.08,2.11,0.87,3.27l-2.75,15.37c-0.23,1.26-1.05,2.34-2.2,2.9
			l-55.44,26.66C123.78,204.54,123.19,204.67,122.6,204.67z M165.8,162.63l-24.13,24.43l32.8-15.77l1.55-8.65H165.8z"/>
	</g>
	<g>
		<polyline fill="#A57D2D" points="133.02,192.9 176.04,172 178.05,161.16 165.84,161.16 		"/>
	</g>
	<g>
		<polygon fill="#231F20" points="134.33,195.6 131.71,190.2 173.37,169.97 174.44,164.16 165.84,164.16 165.84,158.16 
			181.65,158.16 178.72,174.04 		"/>
	</g>
	<g>
		<polygon fill="#A57D2D" points="81.32,158.63 64.65,158.63 67.4,174 122.85,200.67 		"/>
	</g>
	<g>
		<path fill="#A57D2D" d="M122.84,204.67c-0.58,0-1.18-0.13-1.73-0.4l-55.44-26.66c-1.16-0.56-1.98-1.64-2.2-2.9l-2.75-15.37
			c-0.21-1.17,0.11-2.36,0.87-3.27s1.88-1.43,3.07-1.43h16.67c1.07,0,2.09,0.43,2.85,1.19l41.53,42.04
			c1.37,1.38,1.54,3.55,0.41,5.14C125.33,204.07,124.1,204.67,122.84,204.67z M70.98,171.28l32.8,15.77l-24.13-24.43H69.43
			L70.98,171.28z"/>
	</g>
	<g>
		<polyline fill="#A57D2D" points="112.43,192.9 69.4,172 67.4,161.16 79.6,161.16 		"/>
	</g>
	<g>
		<polygon fill="#231F20" points="111.12,195.6 66.73,174.04 63.79,158.16 79.6,158.16 79.6,164.16 71,164.16 72.08,169.97 
			113.74,190.2 		"/>
	</g>
	<g>
		<path fill="#A57D2D" d="M122.81,44.53L70.45,54.89v6.04v4.21v23v44.79c0,0,0,36.12,52.36,64.36
			c52.36-28.24,52.36-64.36,52.36-64.36V65.14v-4.21v-6.04L122.81,44.53z"/>
	</g>
	<g>
		<path fill="#A57D2D" d="M122.81,201.29c-0.65,0-1.31-0.16-1.9-0.48c-53.84-29.04-54.46-66.31-54.46-67.88V54.89
			c0-1.91,1.35-3.55,3.22-3.92l52.36-10.35c0.51-0.1,1.04-0.1,1.55,0l52.36,10.35c1.87,0.37,3.22,2.01,3.22,3.92v78.04
			c0,1.57-0.62,38.84-54.46,67.88C124.12,201.13,123.46,201.29,122.81,201.29z M74.45,58.17v74.76c0.01,1.35,0.89,33.38,48.36,59.8
			c47.8-26.62,48.36-59.46,48.36-59.8V58.17l-48.36-9.56L74.45,58.17z"/>
	</g>
	<g>
		<polygon fill="#231F20" points="175.17,60.93 122.81,50.57 70.45,60.93 70.45,54.89 122.81,44.53 175.17,54.89 		"/>
	</g>
	<g>
		<path fill="#231F20" d="M122.75,62.26l44.36,9.37v61.31c0,0.07-0.24,7.54-5.64,17.89c-5.17,9.93-16.06,24.23-38.72,37.31
			c-17.64-10.18-30.8-22.69-38.21-36.36c-5.78-10.65-6.13-18.48-6.14-18.91V71.63L122.75,62.26 M122.75,54.08L70.39,65.14v67.79
			c0,0,0,36.12,52.36,64.36c52.36-28.24,52.36-64.36,52.36-64.36V65.14L122.75,54.08z"/>
	</g>
	<g>
		<polygon fill="#231F20" points="117.81,177.54 111.92,121.19 101.29,128.74 98.83,102.71 84.71,115.32 96.69,143.44 
			105.08,137.33 		"/>
	</g>
	<g>
		<polygon fill="#231F20" points="128.18,178.19 134.07,121.84 144.7,129.4 146.86,102.06 160.98,114.67 149.3,144.09 
			140.92,137.99 		"/>
	</g>
	<g>
		<polygon fill="#A57D2D" points="139.85,93.07 129.61,101.15 133.45,113.88 122.9,106.27 112.42,114.01 116.14,101.23 
			105.84,93.28 118.68,92.99 122.79,80.34 127.01,92.94 		"/>
	</g>
	<g>
		<path fill="#231F20" d="M108.85,119.13l4.99-17.15l-13.7-10.57l17.07-0.39l5.54-17.07l5.69,17l17.09,0.18l-13.62,10.74l5.14,17.08
			l-14.15-10.21L108.85,119.13z M111.54,95.15l6.91,5.33l-2.44,8.4l6.89-5.08l6.95,5.01l-2.52-8.39l6.85-5.41l-8.6-0.09l-2.75-8.2
			l-2.67,8.23L111.54,95.15z"/>
	</g>
</g>
</svg>
