<?xml version="1.0" encoding="utf-8"?>
<!-- Generator: Adobe Illustrator 16.0.2, SVG Export Plug-In . SVG Version: 6.00 Build 0)  -->
<!DOCTYPE svg PUBLIC "-//W3C//DTD SVG 1.1//EN" "http://www.w3.org/Graphics/SVG/1.1/DTD/svg11.dtd">
<svg version="1.1" id="Ranks" xmlns="http://www.w3.org/2000/svg" xmlns:xlink="http://www.w3.org/1999/xlink" x="0px" y="0px"
	 width="242.38px" height="242.38px" viewBox="0 0 242.38 242.38" enable-background="new 0 0 242.38 242.38" xml:space="preserve">
<g>
	<g>
		<polygon fill="#A57D2D" points="163.47,158.63 180.14,158.63 177.39,174 121.94,200.67 		"/>
	</g>
	<g>
		<path fill="#A57D2D" d="M121.95,204.67c-1.26,0-2.49-0.59-3.26-1.68c-1.13-1.58-0.96-3.75,0.41-5.14l41.53-42.04
			c0.75-0.76,1.78-1.19,2.85-1.19h16.67c1.18,0,2.31,0.52,3.07,1.43s1.08,2.11,0.87,3.27l-2.75,15.37c-0.23,1.26-1.05,2.34-2.2,2.9
			l-55.44,26.66C123.12,204.54,122.53,204.67,121.95,204.67z M165.14,162.63l-24.13,24.43l32.8-15.77l1.55-8.65H165.14z"/>
	</g>
	<g>
		<polyline fill="#A57D2D" points="132.36,192.9 175.39,172 177.39,161.16 165.18,161.16 		"/>
	</g>
	<g>
		<polygon fill="#231F20" points="133.67,195.6 131.05,190.2 172.71,169.97 173.78,164.16 165.18,164.16 165.18,158.16 
			180.99,158.16 178.06,174.04 		"/>
	</g>
	<g>
		<polygon fill="#A57D2D" points="80.66,158.63 63.99,158.63 66.74,174 122.19,200.67 		"/>
	</g>
	<g>
		<path fill="#A57D2D" d="M122.19,204.67c-0.58,0-1.18-0.13-1.73-0.4l-55.45-26.66c-1.16-0.56-1.98-1.64-2.2-2.9l-2.75-15.37
			c-0.21-1.17,0.11-2.36,0.87-3.27s1.88-1.43,3.07-1.43h16.67c1.07,0,2.09,0.43,2.85,1.19l41.53,42.04
			c1.37,1.38,1.54,3.55,0.41,5.14C124.67,204.07,123.45,204.67,122.19,204.67z M70.32,171.28l32.8,15.77l-24.13-24.43H68.77
			L70.32,171.28z"/>
	</g>
	<g>
		<polyline fill="#A57D2D" points="111.77,192.9 68.74,172 66.74,161.16 78.95,161.16 		"/>
	</g>
	<g>
		<polygon fill="#231F20" points="110.46,195.6 66.07,174.04 63.14,158.16 78.95,158.16 78.95,164.16 70.35,164.16 71.42,169.97 
			113.08,190.2 		"/>
	</g>
	<g>
		<path fill="#A57D2D" d="M122.42,44.53L70.06,54.89v6.04v4.21v23v44.79c0,0,0,36.12,52.36,64.36
			c52.36-28.24,52.36-64.36,52.36-64.36V65.14v-4.21v-6.04L122.42,44.53z"/>
	</g>
	<g>
		<path fill="#A57D2D" d="M122.42,201.29c-0.65,0-1.31-0.16-1.9-0.48c-53.84-29.04-54.46-66.31-54.46-67.88V54.89
			c0-1.91,1.35-3.55,3.22-3.92l52.36-10.35c0.51-0.1,1.04-0.1,1.55,0l52.36,10.35c1.87,0.37,3.22,2.01,3.22,3.92v78.04
			c0,1.57-0.62,38.84-54.46,67.88C123.72,201.13,123.07,201.29,122.42,201.29z M74.06,58.17v74.76c0.01,1.35,0.89,33.38,48.36,59.8
			c47.8-26.62,48.36-59.47,48.36-59.8V58.17l-48.36-9.56L74.06,58.17z"/>
	</g>
	<g>
		<polygon fill="#231F20" points="174.78,60.93 122.42,50.57 70.06,60.93 70.06,54.89 122.42,44.53 174.78,54.89 		"/>
	</g>
	<g>
		<path fill="#231F20" d="M122.36,62.26l44.36,9.37v61.31c0,0.07-0.24,7.54-5.64,17.89c-5.17,9.93-16.06,24.23-38.72,37.31
			c-17.64-10.18-30.8-22.69-38.21-36.36c-5.78-10.65-6.13-18.48-6.14-18.91V71.63L122.36,62.26 M122.36,54.08L70,65.14v67.79
			c0,0,0,36.12,52.36,64.36c52.36-28.24,52.36-64.36,52.36-64.36V65.14L122.36,54.08z"/>
	</g>
	<g>
		<polygon fill="#231F20" points="122.15,174.63 131.99,126.83 163.79,88.61 154.83,135.54 		"/>
	</g>
	<g>
		<polygon fill="#231F20" points="122.7,174.63 112.86,126.83 81.06,88.61 90.02,135.54 		"/>
	</g>
	<g>
		<polygon fill="#A57D2D" points="109.65,108.75 91.08,94.42 114.22,93.89 121.72,70.79 129.43,93.8 152.59,94.04 134.13,108.6 
			141.09,131.74 121.93,117.92 102.88,131.98 		"/>
	</g>
	<g>
		<path fill="#A57D2D" d="M121.76,78.77l5.87,17.51l17.85,0.19l-14.23,11.22l5.33,17.71l-14.66-10.58l-14.56,10.75l5.17-17.76
			L98.2,96.76l17.84-0.41L121.76,78.77z M121.69,62.81L117,77.22l-4.62,14.21l-14.3,0.33l-14.13,0.32l11.19,8.64l11.62,8.97
			l-4.22,14.49l-4.14,14.21l11.91-8.79l11.62-8.58l11.7,8.44l11.96,8.63l-4.25-14.13l-4.35-14.45l11.56-9.12l11.13-8.78l-14.17-0.15
			l-14.29-0.15l-4.73-14.14L121.69,62.81z"/>
	</g>
	<g>
		<path fill="#231F20" d="M103.78,130.7l6.44-22.14L92.51,94.89l22.08-0.5l7.15-22l7.34,21.92l22.1,0.23l-17.61,13.89l6.63,22.05
			l-18.26-13.18L103.78,130.7z M103.9,98.63l10.92,8.43l-3.9,13.39l10.97-8.1l11.06,7.98l-4.02-13.36l10.85-8.55l-13.61-0.14
			l-4.39-13.12l-4.28,13.17L103.9,98.63z"/>
	</g>
</g>
</svg>
