<?xml version="1.0" encoding="utf-8"?>
<!-- Generator: Adobe Illustrator 16.0.2, SVG Export Plug-In . SVG Version: 6.00 Build 0)  -->
<!DOCTYPE svg PUBLIC "-//W3C//DTD SVG 1.1//EN" "http://www.w3.org/Graphics/SVG/1.1/DTD/svg11.dtd">
<svg version="1.1" id="Ranks" xmlns="http://www.w3.org/2000/svg" xmlns:xlink="http://www.w3.org/1999/xlink" x="0px" y="0px"
	 width="242.38px" height="242.38px" viewBox="0 0 242.38 242.38" enable-background="new 0 0 242.38 242.38" xml:space="preserve">
<g>
	<g>
		<polygon fill="#A6A8AB" points="159.78,153.72 172.87,180.05 120.46,201.38 		"/>
	</g>
	<g>
		<path fill="#A6A8AB" d="M120.46,205.38c-1.24,0-2.45-0.58-3.22-1.63c-1.08-1.48-1.03-3.5,0.14-4.91l39.33-47.66
			c0.86-1.04,2.2-1.58,3.54-1.43c1.35,0.15,2.52,0.98,3.13,2.19l13.09,26.33c0.5,1,0.55,2.15,0.16,3.2
			c-0.39,1.04-1.2,1.87-2.23,2.29l-52.41,21.33C121.48,205.28,120.97,205.38,120.46,205.38z M158.95,161.02l-25.32,30.68
			l33.74-13.73L158.95,161.02z"/>
	</g>
	<g>
		<polygon fill="#A6A8AB" points="81.24,153.72 68.15,180.05 120.57,201.38 		"/>
	</g>
	<g>
		<path fill="#A6A8AB" d="M120.56,205.38c-0.51,0-1.02-0.1-1.51-0.29l-52.41-21.33c-1.03-0.42-1.84-1.25-2.23-2.29
			c-0.39-1.04-0.34-2.2,0.16-3.2l13.09-26.33c0.6-1.21,1.78-2.04,3.13-2.19c1.35-0.15,2.68,0.38,3.54,1.43l39.33,47.66
			c1.17,1.41,1.22,3.44,0.14,4.91C123.02,204.8,121.81,205.38,120.56,205.38z M73.65,177.97l33.74,13.73l-25.32-30.68L73.65,177.97z
			"/>
	</g>
	<g>
		<path fill="#231F20" d="M165.62,165.32L165.62,165.32c-6.7,11.73-23.19,24.62-33.44,31.29l40.7-16.69L165.62,165.32z"/>
	</g>
	<g>
		<path fill="#231F20" d="M75.41,165.32L75.41,165.32c6.7,11.73,23.19,24.62,33.44,31.29l-40.7-16.69L75.41,165.32z"/>
	</g>
	<g>
		<path fill="#A6A8AB" d="M120.67,43.52L68.31,53.87v6.04v4.21v23v44.79c0,0,0,36.12,52.36,64.36
			c52.36-28.24,52.36-64.36,52.36-64.36V64.12v-4.21v-6.04L120.67,43.52z"/>
	</g>
	<g>
		<path fill="#A6A8AB" d="M120.67,200.27c-0.65,0-1.31-0.16-1.9-0.48c-53.84-29.04-54.46-66.31-54.46-67.88V53.87
			c0-1.91,1.35-3.55,3.22-3.92l52.36-10.35c0.51-0.1,1.04-0.1,1.55,0l52.36,10.35c1.87,0.37,3.22,2.01,3.22,3.92v78.04
			c0,1.57-0.62,38.84-54.46,67.88C121.97,200.11,121.32,200.27,120.67,200.27z M72.31,57.16v74.76c0.01,1.35,0.89,33.38,48.36,59.8
			c47.8-26.62,48.36-59.47,48.36-59.8V57.16l-48.36-9.56L72.31,57.16z"/>
	</g>
	<g>
		<path fill="#231F20" d="M120.61,62.26l44.36,9.37v61.3c0,0.07-0.24,7.54-5.64,17.89c-5.17,9.93-16.06,24.23-38.72,37.31
			c-17.64-10.18-30.8-22.69-38.21-36.35c-5.78-10.65-6.13-18.48-6.15-18.91V71.63L120.61,62.26 M120.61,54.08L68.25,65.14v67.79
			c0,0,0,36.12,52.36,64.36c52.36-28.24,52.36-64.36,52.36-64.36V65.14L120.61,54.08z"/>
	</g>
	<g>
		<polygon fill="#231F20" points="173.03,59.91 120.67,49.55 68.31,59.91 68.31,53.87 120.67,43.52 173.03,53.87 		"/>
	</g>
	<g>
		<path fill="#231F20" d="M120.36,165.58l-7.49-15.5v-36.64h14.98v36.64L120.36,165.58z M117.87,148.94l2.49,5.15l2.49-5.15v-30.5
			h-4.98V148.94z"/>
	</g>
	<g>
		<rect x="109.81" y="113.44" fill="#231F20" width="21.1" height="5"/>
	</g>
	<g>
		<path fill="#231F20" d="M128.17,112.03h-15.63l1.89-15.39l-4.37-4.37l10.29-10.29l10.29,10.29l-4.37,4.37L128.17,112.03z
			 M118.19,107.03h4.33l-1.5-12.2l2.56-2.56l-3.22-3.22l-3.22,3.22l2.56,2.56L118.19,107.03z"/>
	</g>
	<g>
		<polygon fill="#231F20" points="160.21,93.77 150.38,115.87 160.21,112.86 		"/>
	</g>
	<g>
		<polygon fill="#231F20" points="80.46,93.77 90.29,115.87 80.46,112.86 		"/>
	</g>
	<g>
		<path fill="#231F20" d="M134.38,155.39c-0.41,0-0.81-0.12-1.17-0.37c-0.76-0.55-1.04-1.55-0.67-2.41l16-37.52
			c0.17-0.39,0.45-0.71,0.81-0.93l26.53-15.87c0.32-0.19,0.67-0.29,1.03-0.29c0.37,0,0.74,0.1,1.06,0.31c0.64,0.4,1,1.12,0.93,1.87
			l-1.51,16.66c-0.05,0.5-0.28,0.97-0.66,1.31l-41.03,36.74C135.34,155.22,134.86,155.39,134.38,155.39"/>
	</g>
	<g>
		<path fill="#A6A8AB" d="M176.91,100L176.91,100 M176.91,100l-1.51,16.66l-41.03,36.74l16-37.52L176.91,100 M176.91,96
			c-0.01,0-0.03,0-0.04,0h0c-0.76,0.01-1.46,0.23-2.07,0.6l-26.48,15.83c-0.73,0.43-1.29,1.09-1.63,1.86l-16,37.52
			c-0.74,1.72-0.17,3.73,1.35,4.82c0.7,0.5,1.51,0.75,2.33,0.75c0.96,0,1.91-0.34,2.67-1.02l41.03-36.74
			c0.75-0.68,1.22-1.61,1.31-2.62l1.49-16.5c0.02-0.17,0.03-0.34,0.03-0.51C180.92,97.79,179.13,96,176.91,96L176.91,96z"/>
	</g>
	<g>
		<path fill="#231F20" d="M106.65,155.39c-0.48,0-0.96-0.17-1.33-0.51l-41.03-36.74c-0.38-0.34-0.61-0.81-0.66-1.31l-1.51-16.66
			c-0.07-0.75,0.29-1.47,0.93-1.87c0.33-0.2,0.7-0.31,1.06-0.31c0.35,0,0.71,0.1,1.03,0.29l26.53,15.87
			c0.36,0.22,0.65,0.54,0.81,0.93l16,37.52c0.37,0.86,0.09,1.86-0.67,2.41C107.46,155.27,107.05,155.39,106.65,155.39"/>
	</g>
	<g>
		<path fill="#A6A8AB" d="M64.11,100l26.53,15.87l16,37.52l-41.03-36.74L64.11,100 M64.11,96c-0.74,0-1.48,0.21-2.13,0.61
			c-1.27,0.8-1.99,2.25-1.86,3.75l1.51,16.65c0.09,1.01,0.56,1.94,1.31,2.62l41.03,36.74c0.76,0.68,1.71,1.02,2.67,1.02
			c0.81,0,1.63-0.25,2.33-0.75c1.52-1.09,2.08-3.1,1.35-4.82l-16-37.52c-0.33-0.78-0.9-1.43-1.63-1.86L66.17,96.57
			C65.53,96.19,64.82,96,64.11,96"/>
	</g>
</g>
</svg>
