<svg xmlns="http://www.w3.org/2000/svg" xmlns:xlink="http://www.w3.org/1999/xlink" width="500" height="500" viewBox="0 0 500 500"><symbol id="b" viewBox="-250.5 -250.36 501 501"><path fill="none" stroke="#C8C8C8" stroke-width="10" stroke-linecap="round" stroke-linejoin="round" stroke-miterlimit="10" d="M141.83 99.29c5.5 0 10 4.5 10 10v22.81c0 5.5-4.5 10-10 10H-141.4c-5.5 0-10-4.5-10-10v-22.81c0-5.5 4.5-10 10-10h283.23z"/><path fill="#666" d="M-135-92.7L0-170.64 135-92.7v200.54h-270z"/><path fill="#8C8C8C" d="M122.53 107.84V70.38h-245.06v38.52"/><path fill="#A5A5A5" d="M-122.53-129.9L0-200.64l122.53 70.74V70.38h-245.06z"/><path opacity=".25" fill="#231F20" d="M-122.53 39.7H-135v10.75h12.47zM135 39.7h-12.47v10.75H135z"/><path fill="#CCC" d="M124.4-128.82L0-200.64l-124.41 71.82L0-204.74z"/><path fill="#A5A5A5" d="M-122.53-129.9l43.44-26.58-26.91 26.89V70.38h-16.53V-129.9zM106 70.38v-201.72l-29.52-26.73 46.04 28.16V70.38H106zM-30.71 70.38L0 88.11l30.71-17.73v-253.29L0-200.64l-30.71 17.73z"/><path opacity=".25" fill="#A5A5A5" d="M-106 68.4v39.44h-16.53v-39.5m245.06 0v39.5H106V68.05"/><path fill="none" stroke="#231F20" stroke-width="10" stroke-linejoin="round" stroke-miterlimit="10" d="M74.36 56.48h6.32c3.48 0 6.32 4.5 6.32 10v22.81c0 5.5-4.5 10-10 10H-76.57c-5.5 0-10-4.5-10-10V66.48c0-5.5 2.79-10 6.19-10h6.19M46.83 142.1H14.26M-13.83 142.1H-46.4" opacity=".25"/><path fill="none" stroke="#C8C8C8" stroke-width="10" stroke-linecap="round" stroke-linejoin="round" stroke-miterlimit="10" d="M-30.71 142.1v-22.81M30.71 142.1v-22.81M-30.71 142.1l-19.72 28.05 19.72 11.39 19.72-11.39zM30.71 142.1l-19.72 28.05 19.72 11.39 19.72-11.39z"/><path fill="none" stroke="#C8C8C8" stroke-width="10" stroke-linejoin="round" stroke-miterlimit="10" d="M74.36 76.48h6.32c3.48 0 6.32 4.5 6.32 10v22.81c0 5.5-4.5 10-10 10H-76.57c-5.5 0-10-4.5-10-10V86.48c0-5.5 2.79-10 6.19-10h6.19"/></symbol><symbol id="c" viewBox="-250.5 -250.5 501 501"><path opacity=".25" d="M67.5-87.55V37.03h-135V-87.55L0-126.53z"/><path d="M73.61-65.63v173.47H-73.62V-65.63L0-108.13z"/><g fill="#FFF"><path d="M-45.02-47.67v93.9h17.7v-93.9h-17.7zM15.03-47.97l-17.7 94.2h17.7l6.9-39.3 3.15-21.9 3 21.75 7.05 39.45h17.1l-17.55-94.2H15.03z"/></g><path fill="none" d="M135 99.25L0 99.36l-135-.11v-222.09L0-200.78l135 77.94z"/></symbol><symbol id="a" viewBox="-251.5 -251.36 503 503"><path fill="none" stroke="#231F20" stroke-width="3" stroke-miterlimit="10" d="M250-249.86h-500v500h500zM-250 250.14l500-500M250 250.14l-500-500"/><path fill="none" stroke="#F00" stroke-width="10" stroke-miterlimit="10" d="M-173.21 99.36L0 199.36l173.21-100v-200L0-200.64l-173.21 100z"/></symbol><g transform="matrix(1 0 0 -1 256.5 252.334)"><use xlink:href="#b" width="501" height="501" x="-250.5" y="-250.36" overflow="visible"/><use xlink:href="#c" width="501" height="501" x="-250.5" y="-250.5" overflow="visible"/></g></svg>