<?xml version="1.0" encoding="utf-8"?>
<!-- Generator: Adobe Illustrator 16.0.0, SVG Export Plug-In . SVG Version: 6.00 Build 0)  -->
<!DOCTYPE svg PUBLIC "-//W3C//DTD SVG 1.1//EN" "http://www.w3.org/Graphics/SVG/1.1/DTD/svg11.dtd">
<svg version="1.1" xmlns="http://www.w3.org/2000/svg" xmlns:xlink="http://www.w3.org/1999/xlink" x="0px" y="0px" width="500px"
	 height="500px" viewBox="0 0 500 500" enable-background="new 0 0 500 500" xml:space="preserve">
<symbol  id="League_x5F_Silver" viewBox="-250.5 -250.36 501 501">
	<polygon opacity="0" fill="#A5A5A5" points="-173.21,99.36 0,199.36 173.21,99.36 173.21,-100.64 0,-200.64 -173.21,-100.64 	"/>
	<g>
		<path fill="none" stroke="#C8C8C8" stroke-width="10" stroke-linecap="round" stroke-linejoin="round" stroke-miterlimit="10" d="
			M141.83,99.29c5.5,0,10,4.5,10,10l0,22.81c0,5.5-4.5,10-10,10H-141.4c-5.5,0-10-4.5-10-10l0-22.81c0-5.5,4.5-10,10-10H141.83z"/>
	</g>
	<polygon opacity="0" fill="none" stroke="#231F20" stroke-miterlimit="10" points="250,-249.86 -250,-249.86 -250,250.14 
		250,250.14 	"/>
	<polygon fill="#666666" points="-135,-92.7 0,-170.64 135,-92.7 135,107.84 -135,107.84 	"/>
	<polyline fill="#8C8C8C" points="122.53,107.84 122.53,70.38 -122.53,70.38 -122.53,108.9 	"/>
	<polygon fill="#A5A5A5" points="-122.53,-129.9 0,-200.64 122.53,-129.9 122.53,70.38 -122.53,70.38 	"/>
	<polygon opacity="0.25" fill="#231F20" points="-122.53,39.7 -135,39.7 -135,50.45 -122.53,50.45 	"/>
	<polygon opacity="0.25" fill="#231F20" points="135,39.7 122.53,39.7 122.53,50.45 135,50.45 	"/>
	<polygon fill="#CCCCCC" points="124.4,-128.82 0,-200.64 -124.41,-128.82 0,-204.74 	"/>
	<path fill="#A5A5A5" d="M-122.53-129.9l43.44-26.58L-106-129.59V70.38h-16.53V-129.9z M106,70.38v-201.72l-29.52-26.73l46.04,28.16
		V70.38H106z"/>
	<polygon fill="#A5A5A5" points="-30.71,70.38 0,88.11 30.71,70.38 30.71,-182.91 0,-200.64 -30.71,-182.91 	"/>
	<path opacity="0.25" fill="#A5A5A5" d="M-106,68.4v39.44h-16.53v-39.5 M122.53,68.34v39.5H106V68.05"/>
	<g>
		<g opacity="0.25">
			<path fill="none" stroke="#231F20" stroke-width="10" stroke-linejoin="round" stroke-miterlimit="10" d="M74.36,56.48
				c0,0,2.84,0,6.32,0s6.32,4.5,6.32,10l0,22.81c0,5.5-4.5,10-10,10H-76.57c-5.5,0-10-4.5-10-10l0-22.81c0-5.5,2.79-10,6.19-10
				s6.19,0,6.19,0"/>
		</g>
		<g opacity="0.25">
			
				<line fill="none" stroke="#231F20" stroke-width="10" stroke-linejoin="round" stroke-miterlimit="10" x1="46.83" y1="142.1" x2="14.26" y2="142.1"/>
		</g>
		<g opacity="0.25">
			
				<line fill="none" stroke="#231F20" stroke-width="10" stroke-linejoin="round" stroke-miterlimit="10" x1="-13.83" y1="142.1" x2="-46.4" y2="142.1"/>
		</g>
		
			<line fill="none" stroke="#C8C8C8" stroke-width="10" stroke-linecap="round" stroke-linejoin="round" stroke-miterlimit="10" x1="-30.71" y1="142.1" x2="-30.71" y2="119.29"/>
		
			<line fill="none" stroke="#C8C8C8" stroke-width="10" stroke-linecap="round" stroke-linejoin="round" stroke-miterlimit="10" x1="30.71" y1="142.1" x2="30.71" y2="119.29"/>
		
			<polygon fill="none" stroke="#C8C8C8" stroke-width="10" stroke-linecap="round" stroke-linejoin="round" stroke-miterlimit="10" points="
			-30.71,142.1 -50.43,170.15 -30.71,181.54 -10.99,170.15 		"/>
		
			<polygon fill="none" stroke="#C8C8C8" stroke-width="10" stroke-linecap="round" stroke-linejoin="round" stroke-miterlimit="10" points="
			30.71,142.1 10.99,170.15 30.71,181.54 50.43,170.15 		"/>
		<g>
			<path fill="none" stroke="#C8C8C8" stroke-width="10" stroke-linejoin="round" stroke-miterlimit="10" d="M74.36,76.48
				c0,0,2.84,0,6.32,0s6.32,4.5,6.32,10l0,22.81c0,5.5-4.5,10-10,10H-76.57c-5.5,0-10-4.5-10-10l0-22.81c0-5.5,2.79-10,6.19-10
				s6.19,0,6.19,0"/>
		</g>
	</g>
</symbol>
<symbol  id="Position_x5F_4" viewBox="-250.5 -250.5 501 501">
	<polygon opacity="0.25" points="67.5,-87.55 67.5,37.03 0,37.03 -67.5,37.03 -67.5,-87.55 0,-126.53 	"/>
	<polygon opacity="0" fill="none" stroke="#FF0000" stroke-width="10" stroke-miterlimit="10" points="-173.21,99.22 0,199.22 
		173.21,99.22 173.21,-100.78 0,-200.78 -173.21,-100.78 	"/>
	<polygon opacity="0" fill="none" stroke="#FF0000" stroke-width="10" stroke-miterlimit="10" points="-142.03,-82.78 0,-0.78 
		142.03,-82.78 142.03,-82.78 0,-164.78 -142.03,-82.78 	"/>
	<polygon opacity="0" fill="none" stroke="#231F20" stroke-miterlimit="10" points="250,-250 -250,-250 -250,250 250,250 	"/>
	<g>
		<polygon points="73.61,-65.63 73.61,107.84 0,107.84 -73.62,107.84 -73.62,-65.63 0,-108.13 		"/>
		<g>
			<path fill="#FFFFFF" d="M-45.02-47.67v93.9h17.7v-93.9H-45.02z"/>
			<path fill="#FFFFFF" d="M15.03-47.97l-17.7,94.2h17.7l6.9-39.3l3.15-21.9l3,21.75l7.05,39.45h17.1l-17.55-94.2H15.03z"/>
		</g>
	</g>
	<polygon fill="none" points="135,99.25 0,99.36 -135,99.25 -135,-122.84 0,-200.78 135,-122.84 	"/>
</symbol>
<symbol  id="base" viewBox="-251.5 -251.36 503 503">
	<polygon fill="none" stroke="#231F20" stroke-width="3" stroke-miterlimit="10" points="250,-249.86 -250,-249.86 -250,250.14 
		250,250.14 	"/>
	<line fill="none" stroke="#231F20" stroke-width="3" stroke-miterlimit="10" x1="-250" y1="250.14" x2="250" y2="-249.86"/>
	<line fill="none" stroke="#231F20" stroke-width="3" stroke-miterlimit="10" x1="250" y1="250.14" x2="-250" y2="-249.86"/>
	<polygon fill="none" stroke="#FF0000" stroke-width="10" stroke-miterlimit="10" points="-173.21,99.36 0,199.36 173.21,99.36 
		173.21,-100.64 0,-200.64 -173.21,-100.64 	"/>
</symbol>
<g id="Layer_1" display="none">
</g>
<g id="_x5B_HBE_x5D__-_Bg" display="none">
	<rect x="-54.6" y="-1426.98" display="inline" fill="#3A3A3A" width="2615.48" height="4079.18"/>
</g>
<g id="_x5B_HBE_x5D__-_Struct" display="none">
	<g id="League_x5F_Bronze" display="inline">
	</g>
	
		<use xlink:href="#base"  width="503" height="503" id="XMLID_9_" x="-251.5" y="-251.36" transform="matrix(1 0 0 -1 256.5 252.334)" display="inline" overflow="visible"/>
</g>
<g id="Bases">
	<g id="League_x5F_Diamond_x5F_Small">
		<g id="League_x5F_Diamond">
		</g>
	</g>
</g>
<g id="Compound">
	<g id="Rank_x5F_Copper_x5F_4_x5F_Small_1_">
		<g id="Rank_x5F_Copper_x5F_4_2_">
		</g>
	</g>
	<g id="Rank_x5F_Copper_x5F_4_x5F_Small_2_">
		<g id="Rank_x5F_Copper_x5F_4_3_">
		</g>
	</g>
	<g id="Rank_x5F_Copper_x5F_4_5_">
		<g id="League_x5F_Copper">
		</g>
	</g>
	<g id="Rank_x5F_Copper_x5F_4_x5F_Small_4_">
		<g id="Rank_x5F_Copper_x5F_4_6_">
		</g>
	</g>
	<g id="Rank_x5F_Copper_x5F_4_x5F_Small_3_">
		<g id="Rank_x5F_Copper_x5F_4_4_">
		</g>
	</g>
	<g id="Rank_x5F_Copper_x5F_4_x5F_Small">
		<g id="Rank_x5F_Copper_x5F_4">
		</g>
	</g>
	<g id="Position_x5F_1_x5F_Small">
		<g id="Position_x5F_1_1_">
		</g>
	</g>
	<g id="Rank_x5F_Copper_x5F_3">
	</g>
	<g id="Rank_x5F_Copper_x5F_2">
	</g>
	<g id="Rank_x5F_Copper_x5F_1">
	</g>
	<g id="Rank_x5F_Bronze_x5F_4">
	</g>
	<g id="Rank_x5F_Bronze_x5F_3">
	</g>
	<g id="Rank_x5F_Bronze_x5F_2">
	</g>
	<g id="Rank_x5F_Bronze_x5F_1">
	</g>
	<g id="Rank_x5F_Silver_x5F_4">
		
			<use xlink:href="#League_x5F_Silver"  width="501" height="501" x="-250.5" y="-250.36" transform="matrix(1 0 0 -1 256.5 252.334)" overflow="visible"/>
		
			<use xlink:href="#Position_x5F_4"  width="501" height="501" x="-250.5" y="-250.5" transform="matrix(1 0 0 -1 256.5 252.334)" overflow="visible"/>
	</g>
	<g id="Rank_x5F_Silver_x5F_3">
	</g>
	<g id="Rank_x5F_Silver_x5F_2">
	</g>
	<g id="Rank_x5F_Silver_x5F_1">
	</g>
	<g id="Rank_x5F_Gold_x5F_4">
	</g>
	<g id="Rank_x5F_Gold_x5F_3">
	</g>
	<g id="Rank_x5F_Gold_x5F_2">
	</g>
	<g id="Rank_x5F_Gold_x5F_1">
	</g>
	<g id="Rank_x5F_Platinum_x5F_4">
	</g>
	<g id="Rank_x5F_Platinum_x5F_3">
	</g>
	<g id="Rank_x5F_Platinum_x5F_2">
	</g>
	<g id="Rank_x5F_Platinum_x5F_1">
		<g id="Position_x5F_1">
		</g>
	</g>
</g>
</svg>
