<?xml version="1.0" encoding="utf-8"?>
<!-- Generator: Adobe Illustrator 16.0.2, SVG Export Plug-In . SVG Version: 6.00 Build 0)  -->
<!DOCTYPE svg PUBLIC "-//W3C//DTD SVG 1.1//EN" "http://www.w3.org/Graphics/SVG/1.1/DTD/svg11.dtd">
<svg version="1.1" id="Ranks" xmlns="http://www.w3.org/2000/svg" xmlns:xlink="http://www.w3.org/1999/xlink" x="0px" y="0px"
	 width="242.38px" height="242.38px" viewBox="0 0 242.38 242.38" enable-background="new 0 0 242.38 242.38" xml:space="preserve">
<g>
	<g>
		<polygon fill="#A6A8AB" points="162.03,153.72 175.12,180.05 122.71,201.38 		"/>
	</g>
	<g>
		<path fill="#A6A8AB" d="M122.71,205.38c-1.24,0-2.45-0.58-3.22-1.63c-1.08-1.48-1.03-3.5,0.14-4.91l39.32-47.66
			c0.86-1.04,2.19-1.58,3.54-1.43c1.35,0.15,2.52,0.98,3.13,2.19l13.09,26.33c0.5,1,0.55,2.15,0.16,3.2s-1.2,1.87-2.23,2.29
			l-52.41,21.33C123.73,205.28,123.22,205.38,122.71,205.38z M161.2,161.02l-25.32,30.68l33.74-13.73L161.2,161.02z"/>
	</g>
	<g>
		<polygon fill="#A6A8AB" points="83.49,153.72 70.4,180.05 122.81,201.38 		"/>
	</g>
	<g>
		<path fill="#A6A8AB" d="M122.81,205.38c-0.51,0-1.02-0.1-1.51-0.29l-52.41-21.33c-1.03-0.42-1.84-1.25-2.23-2.29
			s-0.34-2.2,0.16-3.2l13.09-26.33c0.6-1.21,1.78-2.04,3.13-2.19c1.35-0.16,2.68,0.38,3.54,1.43l39.32,47.66
			c1.17,1.41,1.22,3.44,0.14,4.91C125.27,204.8,124.06,205.38,122.81,205.38z M75.9,177.97l33.74,13.73l-25.32-30.68L75.9,177.97z"
			/>
	</g>
	<g>
		<path fill="#231F20" d="M167.87,165.32L167.87,165.32c-6.7,11.73-23.19,24.62-33.44,31.29l40.7-16.69L167.87,165.32z"/>
	</g>
	<g>
		<path fill="#231F20" d="M77.66,165.32L77.66,165.32c6.7,11.73,23.19,24.62,33.44,31.29l-40.7-16.69L77.66,165.32z"/>
	</g>
	<g>
		<path fill="#A6A8AB" d="M122.82,43.52L70.46,53.87v6.04v4.21v23v44.79c0,0,0,36.12,52.36,64.36
			c52.36-28.24,52.36-64.36,52.36-64.36V64.12v-4.21v-6.04L122.82,43.52z"/>
	</g>
	<g>
		<path fill="#A6A8AB" d="M122.82,200.27c-0.65,0-1.31-0.16-1.9-0.48c-53.84-29.04-54.46-66.31-54.46-67.88V53.87
			c0-1.91,1.35-3.55,3.22-3.92l52.36-10.35c0.51-0.1,1.04-0.1,1.55,0l52.36,10.35c1.87,0.37,3.22,2.01,3.22,3.92v78.04
			c0,1.57-0.62,38.84-54.46,67.88C124.13,200.11,123.47,200.27,122.82,200.27z M74.46,57.16v74.76c0.01,1.35,0.89,33.38,48.36,59.8
			c47.47-26.42,48.34-58.45,48.36-59.82V57.16l-48.36-9.56L74.46,57.16z"/>
	</g>
	<g>
		<polygon fill="#231F20" points="175.18,59.91 122.82,49.55 70.46,59.91 70.46,53.87 122.82,43.52 175.18,53.87 		"/>
	</g>
	<g>
		<path fill="#231F20" d="M122.76,61.24l44.36,9.37v61.31c0,0.07-0.24,7.54-5.64,17.89c-5.17,9.93-16.06,24.23-38.72,37.31
			c-17.64-10.18-30.8-22.69-38.22-36.35c-5.78-10.65-6.13-18.48-6.14-18.91V70.61L122.76,61.24 M122.76,53.07L70.4,64.13v67.79
			c0,0,0,36.12,52.36,64.36c52.36-28.24,52.36-64.36,52.36-64.36V64.13L122.76,53.07z"/>
	</g>
	<g>
		<polygon fill="#A6A8AB" points="49.67,102.97 60.39,109.36 92.78,126.36 118.82,173.71 70.14,156.51 		"/>
	</g>
	<g>
		<path fill="#A6A8AB" d="M118.82,177.71c-0.45,0-0.9-0.07-1.33-0.23l-48.68-17.2c-1.11-0.39-1.99-1.25-2.4-2.34L45.94,104.4
			c-0.61-1.59-0.14-3.39,1.16-4.49c1.3-1.09,3.16-1.25,4.62-0.37l10.62,6.34l32.29,16.95c0.69,0.37,1.27,0.93,1.65,1.61l26.04,47.35
			c0.8,1.45,0.62,3.25-0.46,4.52C121.1,177.21,119.97,177.71,118.82,177.71z M73.22,153.36l37.04,13.08l-20.41-37.1L58.53,112.9
			c-0.06-0.03-0.13-0.07-0.19-0.11l-0.81-0.48L73.22,153.36z"/>
	</g>
	<g>
		<polygon fill="#A6A8AB" points="195.96,102.97 185.25,109.36 152.86,126.36 126.82,173.71 175.49,156.51 		"/>
	</g>
	<g>
		<path fill="#A6A8AB" d="M126.82,177.71c-1.15,0-2.28-0.5-3.05-1.41c-1.07-1.27-1.25-3.06-0.46-4.52l26.04-47.35
			c0.38-0.69,0.95-1.25,1.65-1.61l32.29-16.95l10.62-6.34c1.46-0.87,3.32-0.72,4.62,0.37c1.3,1.1,1.77,2.9,1.16,4.49l-20.47,53.55
			c-0.42,1.1-1.3,1.95-2.4,2.34l-48.68,17.2C127.71,177.64,127.26,177.71,126.82,177.71z M155.79,129.34l-20.41,37.1l37.04-13.08
			l15.69-41.04l-0.81,0.48c-0.06,0.04-0.13,0.07-0.19,0.11L155.79,129.34z"/>
	</g>
	<g>
		<path fill="#231F20" d="M150.87,167.07c21.93-15.21,39.1-34.76,41.95-62.21l-7.59,4.5c-3.11,20.78-20.46,40.83-40.79,54.17
			L150.87,167.07z"/>
	</g>
	<g>
		<polygon fill="#231F20" points="143.41,130.66 183.45,109.02 169.37,137.67 157.42,137.67 168.33,140.42 130.88,170.09 		"/>
	</g>
	<g>
		<path fill="#A6A8AB" d="M181.17,111.39l-12.42,25.28h-19.38l16.75,4.22l-33.3,26.39l11.42-35.93L181.17,111.39z M185.72,106.65
			l-5.51,2.98l-36.93,19.96l-0.71,0.38l-0.24,0.77l-11.42,35.93l-1.98,6.24l5.13-4.07l33.3-26.38l3.18-2.52l-3.93-0.99l-1.12-0.28
			h3.26h1.24l0.55-1.12l12.42-25.28L185.72,106.65z"/>
	</g>
	<g>
		<polygon fill="#231F20" points="77.31,140.42 88.21,137.67 76.27,137.67 62.19,109.02 102.23,130.66 114.76,170.09 		"/>
	</g>
	<g>
		<path fill="#A6A8AB" d="M64.47,111.39l36.93,19.96l11.42,35.93l-33.3-26.39l16.75-4.22H76.89L64.47,111.39z M59.92,106.65
			l2.76,5.62l12.42,25.28l0.55,1.12h1.24h3.26l-1.12,0.28l-3.93,0.99l3.18,2.52l33.3,26.38l5.13,4.07l-1.98-6.24l-11.42-35.93
			l-0.24-0.77l-0.71-0.38l-36.93-19.96L59.92,106.65z"/>
	</g>
	<g>
		<path fill="#231F20" d="M94.77,167.07c-21.93-15.21-39.09-34.76-41.95-62.21l7.59,4.5c3.11,20.78,20.46,40.83,40.79,54.17
			L94.77,167.07z"/>
	</g>
	<g>
		<polygon fill="#A6A8AB" points="112.82,167.27 81.78,156.97 93.72,168.69 		"/>
	</g>
	<g>
		<polygon fill="#A6A8AB" points="132.82,167.27 163.86,156.97 151.92,168.69 		"/>
	</g>
	<g>
		<path fill="#231F20" d="M126.62,163.71l-11.01-11.82l-16.6-53.74l13.43-4.15l16.6,53.74L126.62,163.71z M120.05,149.32l3.18,3.41
			l0.7-4.61l-14.78-47.87l-3.88,1.2L120.05,149.32z"/>
	</g>
	<g>
		
			<rect x="103.96" y="86.02" transform="matrix(0.2953 0.9554 -0.9554 0.2953 169.1061 -32.3242)" fill="#231F20" width="5" height="24.91"/>
	</g>
	<g>
		<path fill="#231F20" d="M98.46,97.47l-2.51-14l-5.07-2.68l6.39-12.09l12.09,6.38l-2.67,5.07l5.83,12.98L98.46,97.47z M97.64,78.71
			l2.8,1.48l1.94,10.84l3.25-1.01l-4.51-10.05l1.48-2.8l-3.25-1.72L97.64,78.71z"/>
	</g>
	<g>
		<polygon fill="#A6A8AB" points="124.84,112.19 112.69,150.61 126.94,176.36 142.94,125.11 		"/>
	</g>
	<g>
		<path fill="#231F20" d="M119.13,163.71l-2.42-15.97l16.6-53.74l13.43,4.15l-16.6,53.74L119.13,163.71z M121.82,148.13l0.7,4.61
			l3.18-3.41l14.78-47.86l-3.88-1.2L121.82,148.13z"/>
	</g>
	<g>
		
			<rect x="126.83" y="95.97" transform="matrix(0.9555 0.2951 -0.2951 0.9555 35.2645 -36.719)" fill="#231F20" width="24.91" height="5"/>
	</g>
	<g>
		<path fill="#231F20" d="M147.29,97.47l-14.06-4.34l5.83-12.98l-2.68-5.06l12.09-6.38l6.38,12.09l-5.06,2.67L147.29,97.47z
			 M140.11,90.02l3.25,1.01l1.94-10.84l2.8-1.48l-1.71-3.25l-3.25,1.71l1.48,2.8L140.11,90.02z"/>
	</g>
	<g>
		<polygon fill="#231F20" points="162.56,104.51 143.21,127.15 162.56,116.08 		"/>
	</g>
	<g>
		<polygon fill="#231F20" points="82.85,104.51 102.21,127.15 82.85,116.08 		"/>
	</g>
</g>
</svg>
