<svg xmlns="http://www.w3.org/2000/svg" viewBox="0 0 256 170.66666666666666" clip-path="url(#clip)" width="1034" height="689.3333333333333"><defs><clipPath id="clip" clipPathUnits="objectBoundingBox"><rect x="0" y="0" width="256" height="170.66666666666666"/></clipPath></defs><rect x="0" y="0" width="256" height="170.66666666666666" fill="rgb(88, 0, 11)"/><path d="M267,-35L204,144L114,1Z" fill="rgb(168, 6, 26)" fill-opacity="0.49"/><path d="M140,141L447,41L125,94Z" fill="rgb(119, 1, 16)" fill-opacity="0.98"/><path d="M145,94L144,34L78,70Z" fill="rgb(19, 1, 0)" fill-opacity="0.53"/><path d="M129,122L65,166L76,95Z" fill="rgb(136, 4, 19)" fill-opacity="0.55"/><path d="M171,-67L108,59L31,27Z" fill="rgb(131, 9, 23)" fill-opacity="0.60"/><path d="M127,28L158,54L102,66Z" fill="rgb(55, 1, 5)" fill-opacity="0.90"/><path d="M294,143L198,204L173,156Z" fill="rgb(43, 0, 2)" fill-opacity="0.53"/><path d="M81,87L131,48L123,126Z" fill="rgb(44, 1, 3)" fill-opacity="0.62"/><path d="M90,49L79,67L132,77Z" fill="rgb(44, 0, 3)" fill-opacity="0.86"/><path d="M120,124L151,128L178,153Z" fill="rgb(19, 0, 0)" fill-opacity="0.39"/><path d="M82,160L120,150L130,100Z" fill="rgb(141, 3, 20)" fill-opacity="0.29"/><path d="M110,105L117,132L22,97Z" fill="rgb(145, 6, 23)" fill-opacity="0.39"/><path d="M89,48L115,62L112,16Z" fill="rgb(249, 33, 62)" fill-opacity="0.15"/><path d="M203,14L277,66L239,50Z" fill="rgb(74, 0, 8)" fill-opacity="0.78"/><path d="M227,65L143,40L142,-12Z" fill="rgb(150, 7, 24)" fill-opacity="0.66"/><path d="M119,28L140,58L112,31Z" fill="rgb(32, 1, 2)" fill-opacity="0.55"/><path d="M95,60L155,75L177,97Z" fill="rgb(51, 0, 4)" fill-opacity="0.93"/><path d="M127,99L86,87L54,100Z" fill="rgb(47, 0, 4)" fill-opacity="0.82"/><path d="M153,87L141,128L124,97Z" fill="rgb(148, 8, 23)" fill-opacity="0.68"/><path d="M82,90L71,7L42,57Z" fill="rgb(144, 12, 29)" fill-opacity="0.32"/><path d="M236,149L199,145L203,123Z" fill="rgb(13, 0, 0)" fill-opacity="0.24"/><path d="M104,87L88,87L114,79Z" fill="rgb(136, 7, 23)" fill-opacity="0.58"/><path d="M163,83L140,55L359,62Z" fill="rgb(140, 5, 21)" fill-opacity="0.40"/><path d="M35,99L88,88L42,80Z" fill="rgb(121, 5, 19)" fill-opacity="0.60"/><path d="M119,122L134,115L132,137Z" fill="rgb(3, 1, 0)" fill-opacity="0.28"/><path d="M18,150L34,87L183,160Z" fill="rgb(111, 2, 14)" fill-opacity="0.58"/><path d="M293,136L255,68L177,142Z" fill="rgb(102, 0, 13)" fill-opacity="0.69"/><path d="M120,108L200,120L159,88Z" fill="rgb(151, 7, 25)" fill-opacity="0.37"/><path d="M236,59L229,-57L272,26Z" fill="rgb(102, 1, 12)" fill-opacity="0.56"/><path d="M86,97L90,127L111,110Z" fill="rgb(141, 6, 23)" fill-opacity="0.60"/><path d="M213,27L187,92L123,11Z" fill="rgb(149, 7, 24)" fill-opacity="0.54"/><path d="M88,76L72,66L73,61Z" fill="rgb(127, 5, 20)" fill-opacity="0.86"/><path d="M114,18L183,57L162,19Z" fill="rgb(154, 12, 28)" fill-opacity="0.45"/><path d="M143,130L93,149L171,155Z" fill="rgb(105, 0, 13)" fill-opacity="0.94"/><path d="M2,22L38,11L-29,-127Z" fill="rgb(66, 1, 9)" fill-opacity="0.51"/><path d="M121,140L130,116L135,132Z" fill="rgb(48, 0, 3)" fill-opacity="0.88"/><path d="M230,128L260,167L270,61Z" fill="rgb(94, 0, 12)" fill-opacity="0.79"/><path d="M131,38L117,14L109,22Z" fill="rgb(125, 7, 21)" fill-opacity="0.90"/><path d="M200,151L245,162L266,200Z" fill="rgb(38, 0, 2)" fill-opacity="0.63"/><path d="M174,148L171,154L138,125Z" fill="rgb(50, 0, 3)" fill-opacity="0.79"/><path d="M2,18L11,79L63,21Z" fill="rgb(97, 2, 14)" fill-opacity="0.78"/><path d="M85,55L165,91L68,58Z" fill="rgb(47, 1, 4)" fill-opacity="0.51"/><path d="M139,31L139,58L152,53Z" fill="rgb(51, 0, 4)" fill-opacity="0.91"/><path d="M68,-9L72,56L50,71Z" fill="rgb(134, 8, 24)" fill-opacity="0.36"/><path d="M140,87L202,119L168,145Z" fill="rgb(130, 3, 19)" fill-opacity="0.40"/><path d="M18,202L-83,195L4,81Z" fill="rgb(68, 0, 8)" fill-opacity="0.58"/><path d="M147,75L85,91L115,110Z" fill="rgb(46, 0, 4)" fill-opacity="0.66"/><path d="M196,147L176,162L176,141Z" fill="rgb(109, 0, 4)" fill-opacity="0.55"/><path d="M36,7L51,47L68,47Z" fill="rgb(99, 2, 15)" fill-opacity="0.89"/><path d="M190,-1L214,-22L221,41Z" fill="rgb(108, 1, 13)" fill-opacity="0.58"/><path d="M158,165L187,164L216,150Z" fill="rgb(37, 0, 0)" fill-opacity="0.43"/><path d="M73,57L135,-93L102,25Z" fill="rgb(101, 4, 16)" fill-opacity="0.96"/><path d="M157,16L138,3L157,-16Z" fill="rgb(99, 0, 13)" fill-opacity="0.32"/><path d="M200,144L247,152L220,141Z" fill="rgb(33, 0, 0)" fill-opacity="0.49"/><path d="M39,63L57,56L3,24Z" fill="rgb(120, 6, 21)" fill-opacity="0.36"/><path d="M61,154L75,193L85,149Z" fill="rgb(93, 0, 12)" fill-opacity="0.78"/><path d="M185,163L165,184L244,171Z" fill="rgb(109, 0, 16)" fill-opacity="0.40"/><path d="M70,60L53,64L71,74Z" fill="rgb(78, 1, 11)" fill-opacity="0.57"/><path d="M89,125L115,101L106,128Z" fill="rgb(128, 3, 19)" fill-opacity="0.57"/><path d="M53,79L54,92L79,92Z" fill="rgb(130, 5, 20)" fill-opacity="0.58"/><path d="M99,105L93,92L123,104Z" fill="rgb(45, 0, 3)" fill-opacity="0.99"/><path d="M278,175L209,147L227,148Z" fill="rgb(105, 0, 13)" fill-opacity="0.49"/><path d="M163,48L161,57L143,44Z" fill="rgb(104, 7, 18)" fill-opacity="0.54"/><path d="M260,58L219,24L264,74Z" fill="rgb(57, 0, 6)" fill-opacity="0.60"/><path d="M214,-16L184,17L158,-8Z" fill="rgb(101, 2, 13)" fill-opacity="0.48"/><path d="M82,53L94,54L80,46Z" fill="rgb(49, 3, 6)" fill-opacity="0.63"/><path d="M95,80L95,89L32,75Z" fill="rgb(82, 4, 14)" fill-opacity="0.56"/><path d="M95,39L80,44L125,55Z" fill="rgb(137, 14, 28)" fill-opacity="0.42"/><path d="M74,87L31,59L20,70Z" fill="rgb(72, 2, 11)" fill-opacity="0.55"/><path d="M111,72L80,37L107,75Z" fill="rgb(49, 1, 5)" fill-opacity="0.71"/><path d="M128,122L122,112L112,109Z" fill="rgb(43, 0, 2)" fill-opacity="0.68"/><path d="M166,80L163,60L137,67Z" fill="rgb(113, 9, 20)" fill-opacity="0.54"/><path d="M192,142L209,24L246,54Z" fill="rgb(122, 2, 17)" fill-opacity="0.57"/><path d="M208,4L252,36L243,44Z" fill="rgb(138, 4, 19)" fill-opacity="0.32"/><path d="M197,149L201,142L187,142Z" fill="rgb(43, 0, 1)" fill-opacity="0.53"/><path d="M130,106L131,100L120,100Z" fill="rgb(128, 3, 19)" fill-opacity="0.62"/><path d="M159,38L143,33L163,17Z" fill="rgb(167, 14, 31)" fill-opacity="0.53"/><path d="M125,23L125,29L134,34Z" fill="rgb(41, 2, 4)" fill-opacity="0.56"/><path d="M171,97L171,80L181,119Z" fill="rgb(126, 2, 18)" fill-opacity="0.69"/><path d="M38,50L56,51L33,37Z" fill="rgb(77, 1, 11)" fill-opacity="0.54"/><path d="M90,57L92,56L60,46Z" fill="rgb(127, 12, 25)" fill-opacity="0.57"/><path d="M101,61L116,49L97,92Z" fill="rgb(40, 0, 2)" fill-opacity="0.36"/><path d="M165,84L238,67L247,129Z" fill="rgb(122, 1, 18)" fill-opacity="0.39"/><path d="M110,25L116,38L102,59Z" fill="rgb(144, 12, 27)" fill-opacity="0.64"/><path d="M247,154L237,127L241,156Z" fill="rgb(34, 0, 1)" fill-opacity="0.40"/><path d="M42,6L62,-7L55,34Z" fill="rgb(97, 2, 14)" fill-opacity="0.79"/><path d="M132,39L131,33L125,33Z" fill="rgb(153, 15, 33)" fill-opacity="0.40"/><path d="M189,130L201,122L170,130Z" fill="rgb(126, 2, 18)" fill-opacity="0.61"/><path d="M113,105L112,117L119,121Z" fill="rgb(39, 0, 3)" fill-opacity="0.70"/><path d="M210,130L217,132L223,144Z" fill="rgb(55, 0, 5)" fill-opacity="0.67"/><path d="M72,92L85,102L60,94Z" fill="rgb(50, 0, 4)" fill-opacity="0.67"/><path d="M167,66L145,73L149,54Z" fill="rgb(116, 7, 19)" fill-opacity="0.76"/><path d="M255,171L243,162L255,154Z" fill="rgb(82, 0, 11)" fill-opacity="0.76"/><path d="M138,198L129,144L149,148Z" fill="rgb(143, 2, 20)" fill-opacity="0.15"/><path d="M93,99L103,127L77,102Z" fill="rgb(141, 6, 22)" fill-opacity="0.57"/><path d="M116,28L157,57L117,38Z" fill="rgb(45, 0, 3)" fill-opacity="0.64"/><path d="M137,90L175,103L133,128Z" fill="rgb(140, 6, 21)" fill-opacity="0.50"/><path d="M146,126L142,131L127,129Z" fill="rgb(47, 0, 3)" fill-opacity="0.68"/><path d="M115,147L162,206L146,191Z" fill="rgb(50, 0, 4)" fill-opacity="0.58"/><path d="M218,104L226,93L210,126Z" fill="rgb(74, 1, 6)" fill-opacity="0.42"/><path d="M30,144L99,157L51,83Z" fill="rgb(108, 2, 15)" fill-opacity="0.50"/><path d="M150,15L146,41L150,53Z" fill="rgb(145, 11, 26)" fill-opacity="0.58"/><path d="M209,164L203,147L226,168Z" fill="rgb(46, 0, 3)" fill-opacity="0.62"/><path d="M220,58L151,5L207,21Z" fill="rgb(140, 4, 21)" fill-opacity="0.58"/><path d="M113,56L111,37L121,68Z" fill="rgb(85, 5, 12)" fill-opacity="0.53"/><path d="M127,121L117,115L124,124Z" fill="rgb(143, 3, 20)" fill-opacity="0.49"/><path d="M226,152L199,157L277,192Z" fill="rgb(45, 0, 3)" fill-opacity="0.66"/><path d="M81,57L79,51L56,37Z" fill="rgb(121, 11, 23)" fill-opacity="0.58"/><path d="M-37,82L36,97L41,104Z" fill="rgb(83, 1, 11)" fill-opacity="0.63"/><path d="M182,130L167,166L161,163Z" fill="rgb(19, 0, 0)" fill-opacity="0.22"/><path d="M217,120L213,121L190,104Z" fill="rgb(80, 0, 8)" fill-opacity="0.55"/><path d="M215,120L216,116L208,119Z" fill="rgb(37, 0, 4)" fill-opacity="0.43"/><path d="M143,86L114,101L147,61Z" fill="rgb(55, 2, 6)" fill-opacity="0.58"/><path d="M123,56L113,56L123,55Z" fill="rgb(150, 3, 22)" fill-opacity="0.45"/><path d="M233,62L253,58L261,78Z" fill="rgb(95, 0, 11)" fill-opacity="0.53"/><path d="M138,57L157,49L113,46Z" fill="rgb(45, 0, 3)" fill-opacity="0.54"/><path d="M71,47L68,39L50,75Z" fill="rgb(158, 13, 31)" fill-opacity="0.19"/><path d="M122,114L128,118L128,99Z" fill="rgb(137, 5, 21)" fill-opacity="0.49"/><path d="M37,63L28,61L22,83Z" fill="rgb(62, 0, 7)" fill-opacity="0.44"/><path d="M215,136L200,124L173,146Z" fill="rgb(108, 0, 14)" fill-opacity="0.50"/><path d="M262,34L237,27L271,28Z" fill="rgb(70, 0, 8)" fill-opacity="0.59"/><path d="M139,31L139,40L129,27Z" fill="rgb(139, 10, 25)" fill-opacity="0.48"/><path d="M135,18L118,13L140,41Z" fill="rgb(139, 9, 25)" fill-opacity="0.58"/><path d="M132,13L96,16L115,8Z" fill="rgb(81, 5, 17)" fill-opacity="0.30"/><path d="M98,6L130,-4L76,1Z" fill="rgb(91, 1, 13)" fill-opacity="0.55"/><path d="M83,107L87,100L102,102Z" fill="rgb(134, 6, 21)" fill-opacity="0.51"/><path d="M79,102L61,101L61,91Z" fill="rgb(61, 1, 7)" fill-opacity="0.59"/><path d="M224,27L236,47L207,22Z" fill="rgb(84, 0, 10)" fill-opacity="0.45"/><path d="M116,1L53,15L62,44Z" fill="rgb(132, 7, 24)" fill-opacity="0.25"/><path d="M153,133L145,132L135,127Z" fill="rgb(27, 0, 0)" fill-opacity="0.52"/><path d="M123,101L118,114L123,118Z" fill="rgb(41, 0, 3)" fill-opacity="0.68"/><path d="M74,43L73,37L80,47Z" fill="rgb(75, 7, 15)" fill-opacity="0.48"/><path d="M95,55L119,17L106,46Z" fill="rgb(144, 11, 26)" fill-opacity="0.56"/><path d="M156,57L151,39L178,42Z" fill="rgb(134, 6, 22)" fill-opacity="0.49"/><path d="M130,108L130,112L139,129Z" fill="rgb(136, 4, 20)" fill-opacity="0.55"/><path d="M203,151L187,149L208,144Z" fill="rgb(112, 0, 6)" fill-opacity="0.50"/><path d="M78,77L77,92L68,73Z" fill="rgb(123, 9, 21)" fill-opacity="0.40"/><path d="M123,95L137,91L126,100Z" fill="rgb(98, 5, 16)" fill-opacity="0.69"/><path d="M120,142L147,133L158,141Z" fill="rgb(91, 0, 13)" fill-opacity="0.43"/><path d="M105,33L110,47L105,61Z" fill="rgb(176, 20, 36)" fill-opacity="0.27"/><path d="M116,79L98,88L107,81Z" fill="rgb(191, 10, 32)" fill-opacity="0.25"/><path d="M110,27L116,31L114,22Z" fill="rgb(146, 8, 24)" fill-opacity="0.47"/><path d="M40,11L12,32L-53,-8Z" fill="rgb(79, 2, 13)" fill-opacity="0.41"/><path d="M22,23L56,21L17,48Z" fill="rgb(107, 3, 17)" fill-opacity="0.54"/><path d="M43,37L33,45L50,44Z" fill="rgb(72, 0, 9)" fill-opacity="0.58"/><path d="M138,102L118,102L138,95Z" fill="rgb(165, 22, 38)" fill-opacity="0.25"/><path d="M153,88L155,75L143,89Z" fill="rgb(45, 2, 5)" fill-opacity="0.50"/><path d="M110,50L97,55L129,50Z" fill="rgb(136, 7, 22)" fill-opacity="0.39"/><path d="M91,90L98,84L91,80Z" fill="rgb(108, 2, 18)" fill-opacity="0.48"/><path d="M175,92L92,55L165,84Z" fill="rgb(39, 0, 3)" fill-opacity="0.50"/><path d="M132,76L130,78L146,80Z" fill="rgb(90, 8, 18)" fill-opacity="0.35"/><path d="M81,105L124,125L80,117Z" fill="rgb(136, 6, 22)" fill-opacity="0.50"/><path d="M128,26L144,47L137,44Z" fill="rgb(41, 2, 4)" fill-opacity="0.53"/><path d="M141,11L151,28L160,8Z" fill="rgb(135, 5, 21)" fill-opacity="0.63"/><path d="M55,48L75,49L55,52Z" fill="rgb(151, 13, 31)" fill-opacity="0.38"/><path d="M146,132L129,135L124,140Z" fill="rgb(133, 2, 19)" fill-opacity="0.60"/><path d="M-30,55L23,52L-19,42Z" fill="rgb(33, 5, 10)" fill-opacity="0.17"/><path d="M138,35L123,22L133,2Z" fill="rgb(142, 8, 24)" fill-opacity="0.57"/><path d="M147,111L141,101L139,102Z" fill="rgb(113, 2, 9)" fill-opacity="0.53"/><path d="M178,98L192,105L170,103Z" fill="rgb(134, 5, 21)" fill-opacity="0.53"/><path d="M197,142L213,132L180,135Z" fill="rgb(112, 0, 14)" fill-opacity="0.62"/><path d="M215,147L208,138L201,144Z" fill="rgb(42, 0, 2)" fill-opacity="0.54"/><path d="M159,145L176,157L164,138Z" fill="rgb(50, 0, 3)" fill-opacity="0.55"/><path d="M167,85L189,80L152,73Z" fill="rgb(135, 5, 20)" fill-opacity="0.55"/><path d="M203,9L209,15L192,51Z" fill="rgb(145, 6, 21)" fill-opacity="0.39"/><path d="M132,128L158,106L177,115Z" fill="rgb(125, 3, 18)" fill-opacity="0.72"/><path d="M72,52L72,55L86,71Z" fill="rgb(61, 3, 9)" fill-opacity="0.60"/><path d="M232,127L239,134L232,123Z" fill="rgb(42, 0, 2)" fill-opacity="0.53"/><path d="M33,161L38,67L7,153Z" fill="rgb(95, 1, 12)" fill-opacity="0.54"/><path d="M129,138L149,133L136,132Z" fill="rgb(130, 2, 19)" fill-opacity="0.50"/><path d="M156,64L141,60L205,48Z" fill="rgb(141, 6, 22)" fill-opacity="0.43"/><path d="M253,-20L223,0L233,10Z" fill="rgb(104, 2, 14)" fill-opacity="0.51"/><path d="M160,129L156,129L160,127Z" fill="rgb(58, 0, 0)" fill-opacity="0.56"/><path d="M219,127L212,134L222,116Z" fill="rgb(70, 0, 8)" fill-opacity="0.49"/><path d="M110,33L109,35L107,34Z" fill="rgb(39, 1, 5)" fill-opacity="0.47"/><path d="M-64,92L17,121L23,85Z" fill="rgb(75, 2, 10)" fill-opacity="0.38"/><path d="M109,83L119,80L99,108Z" fill="rgb(44, 0, 3)" fill-opacity="0.63"/><path d="M10,31L3,47L33,39Z" fill="rgb(104, 2, 16)" fill-opacity="0.64"/><path d="M134,79L136,77L130,75Z" fill="rgb(123, 6, 21)" fill-opacity="0.40"/><path d="M214,116L225,81L189,57Z" fill="rgb(127, 2, 19)" fill-opacity="0.53"/><path d="M134,121L128,110L134,125Z" fill="rgb(33, 0, 0)" fill-opacity="0.56"/><path d="M117,107L118,110L117,129Z" fill="rgb(132, 1, 16)" fill-opacity="0.59"/><path d="M112,131L126,127L115,153Z" fill="rgb(120, 2, 18)" fill-opacity="0.39"/><path d="M120,57L110,60L108,76Z" fill="rgb(40, 0, 2)" fill-opacity="0.42"/><path d="M66,93L64,88L80,88Z" fill="rgb(141, 5, 22)" fill-opacity="0.58"/><path d="M152,129L194,123L136,124Z" fill="rgb(127, 2, 17)" fill-opacity="0.61"/><path d="M116,60L135,69L147,61Z" fill="rgb(41, 0, 2)" fill-opacity="0.54"/><path d="M161,83L207,73L176,65Z" fill="rgb(156, 6, 24)" fill-opacity="0.28"/><path d="M149,51L144,39L111,49Z" fill="rgb(44, 0, 3)" fill-opacity="0.70"/><path d="M133,69L77,77L81,88Z" fill="rgb(28, 6, 8)" fill-opacity="0.14"/><path d="M80,56L74,56L74,51Z" fill="rgb(134, 18, 31)" fill-opacity="0.69"/><path d="M57,92L33,68L30,78Z" fill="rgb(99, 2, 14)" fill-opacity="0.65"/><path d="M25,50L21,54L14,41Z" fill="rgb(73, 3, 12)" fill-opacity="0.48"/><path d="M66,151L33,114L56,66Z" fill="rgb(106, 3, 16)" fill-opacity="0.43"/><path d="M235,44L256,56L228,31Z" fill="rgb(59, 0, 7)" fill-opacity="0.47"/><path d="M218,73L234,40L247,101Z" fill="rgb(112, 1, 15)" fill-opacity="0.47"/><path d="M160,145L150,135L148,162Z" fill="rgb(106, 0, 14)" fill-opacity="0.82"/><path d="M102,71L109,53L112,55Z" fill="rgb(41, 0, 2)" fill-opacity="0.67"/><path d="M134,94L147,88L134,118Z" fill="rgb(146, 7, 22)" fill-opacity="0.56"/><path d="M112,40L104,32L125,43Z" fill="rgb(126, 17, 30)" fill-opacity="0.45"/><path d="M88,42L88,48L95,38Z" fill="rgb(136, 22, 36)" fill-opacity="0.44"/><path d="M157,89L154,88L136,99Z" fill="rgb(143, 3, 19)" fill-opacity="0.53"/><path d="M187,130L165,130L189,142Z" fill="rgb(83, 0, 10)" fill-opacity="0.51"/><path d="M87,46L81,38L68,28Z" fill="rgb(77, 6, 13)" fill-opacity="0.51"/><path d="M228,111L233,132L218,125Z" fill="rgb(113, 0, 16)" fill-opacity="0.47"/><path d="M179,135L193,148L179,147Z" fill="rgb(114, 0, 14)" fill-opacity="0.54"/><path d="M135,125L130,125L118,111Z" fill="rgb(48, 0, 4)" fill-opacity="0.67"/><path d="M116,36L98,44L101,50Z" fill="rgb(149, 16, 32)" fill-opacity="0.52"/><path d="M105,47L108,55L105,58Z" fill="rgb(165, 14, 31)" fill-opacity="0.50"/><path d="M97,86L91,99L81,100Z" fill="rgb(61, 0, 6)" fill-opacity="0.82"/><path d="M56,95L64,94L66,95Z" fill="rgb(116, 0, 15)" fill-opacity="0.71"/><path d="M225,148L226,143L256,158Z" fill="rgb(41, 0, 3)" fill-opacity="0.47"/><path d="M158,-2L185,38L165,23Z" fill="rgb(133, 4, 20)" fill-opacity="0.60"/><path d="M178,136L180,138L168,154Z" fill="rgb(46, 0, 0)" fill-opacity="0.44"/><path d="M128,92L136,91L102,68Z" fill="rgb(41, 0, 2)" fill-opacity="0.49"/><path d="M71,161L122,163L98,132Z" fill="rgb(102, 0, 13)" fill-opacity="0.39"/><path d="M69,57L61,48L71,53Z" fill="rgb(149, 11, 28)" fill-opacity="0.57"/><path d="M134,71L158,71L142,74Z" fill="rgb(94, 5, 15)" fill-opacity="0.54"/><path d="M62,73L64,83L70,75Z" fill="rgb(88, 9, 19)" fill-opacity="0.69"/><path d="M21,111L-2,112L12,158Z" fill="rgb(86, 1, 10)" fill-opacity="0.57"/><path d="M154,46L133,64L158,47Z" fill="rgb(53, 1, 6)" fill-opacity="0.32"/><path d="M101,36L96,50L79,21Z" fill="rgb(119, 7, 19)" fill-opacity="0.47"/><path d="M153,93L152,117L138,113Z" fill="rgb(157, 12, 29)" fill-opacity="0.21"/><path d="M174,76L147,65L140,54Z" fill="rgb(126, 16, 28)" fill-opacity="0.30"/><path d="M234,151L218,146L246,164Z" fill="rgb(96, 0, 14)" fill-opacity="0.50"/><path d="M247,28L269,2L236,18Z" fill="rgb(107, 1, 13)" fill-opacity="0.74"/><path d="M57,53L89,68L59,51Z" fill="rgb(97, 2, 14)" fill-opacity="0.77"/><path d="M224,64L241,51L250,59Z" fill="rgb(119, 3, 17)" fill-opacity="0.45"/><path d="M102,105L108,105L86,118Z" fill="rgb(136, 4, 20)" fill-opacity="0.76"/><path d="M62,9L102,7L72,-24Z" fill="rgb(104, 3, 18)" fill-opacity="0.48"/><path d="M200,213L198,165L214,164Z" fill="rgb(89, 0, 11)" fill-opacity="0.56"/><path d="M151,62L164,61L140,68Z" fill="rgb(123, 9, 23)" fill-opacity="0.68"/><path d="M169,155L177,147L167,177Z" fill="rgb(88, 0, 8)" fill-opacity="0.81"/><path d="M77,102L94,93L63,103Z" fill="rgb(81, 4, 12)" fill-opacity="0.48"/><path d="M41,69L41,48L52,52Z" fill="rgb(120, 6, 20)" fill-opacity="0.39"/><path d="M119,30L126,30L123,25Z" fill="rgb(148, 27, 39)" fill-opacity="0.46"/><path d="M218,110L213,120L218,104Z" fill="rgb(65, 0, 8)" fill-opacity="0.49"/><path d="M126,127L113,112L114,117Z" fill="rgb(37, 0, 2)" fill-opacity="0.67"/><path d="M83,68L65,43L80,67Z" fill="rgb(64, 5, 11)" fill-opacity="0.51"/><path d="M90,18L96,30L87,33Z" fill="rgb(86, 6, 15)" fill-opacity="0.50"/><path d="M146,53L141,31L138,34Z" fill="rgb(41, 0, 3)" fill-opacity="0.39"/><path d="M230,32L239,16L213,6Z" fill="rgb(137, 4, 17)" fill-opacity="0.45"/><path d="M82,40L80,26L88,40Z" fill="rgb(87, 5, 14)" fill-opacity="0.55"/><path d="M194,155L221,159L195,160Z" fill="rgb(44, 0, 3)" fill-opacity="0.84"/><path d="M75,91L82,98L86,91Z" fill="rgb(35, 0, 1)" fill-opacity="0.58"/><path d="M99,107L112,107L112,133Z" fill="rgb(127, 3, 18)" fill-opacity="0.64"/></svg>