<svg xmlns="http://www.w3.org/2000/svg" width="1104" height="736" viewBox="0 0 512 341.3" clip-path="url(#a)"><defs><clipPath id="a" clipPathUnits="objectBoundingBox"><path d="M0 0h512v341.3H0z"/></clipPath><filter id="b"><feComponentTransfer><feFuncR type="linear" slope="2.5" intercept=".5"/><feFuncG type="linear" slope="2.5" intercept=".5"/><feFuncB type="linear" slope="2.5" intercept=".5"/></feComponentTransfer></filter></defs><g filter="url(#b)"><path fill="#464540" d="M0 0h512v341.3H0z"/><path fill="#A5A9AC" fill-opacity=".8" d="M209-74l50 268L345-6z"/><path fill="#565B5D" fill-opacity=".9" d="M249 51l-45 39L50-310z"/><path fill="#DEE0E1" fill-opacity=".8" d="M212-23l54 98 24-101z"/><path fill="#1B1A17" fill-opacity=".6" d="M236 112l26 441L109 84z"/><path fill="#6F7172" fill-opacity=".7" d="M237 202L313 3l-11 193z"/><path fill="#6A6D70" fill-opacity=".6" d="M404 38L270 87l180-271z"/><path fill="#888D8D" d="M242 201v-28l40-1z"/><path fill="#767B7D" fill-opacity=".9" d="M249 54L170-54l73 81z"/><path fill="#AEB2B3" fill-opacity=".6" d="M228 72l52 59-1-96z"/><path fill="#6B7172" fill-opacity=".8" d="M238 73l5 93 12-73z"/><path fill="#333434" fill-opacity=".6" d="M346 125l-76 5 80 45z"/><path fill="#454746" fill-opacity=".8" d="M335 114l-57-34 5-19z"/><path fill="#28241F" fill-opacity=".4" d="M145 608L-171 72l779 208z"/><path fill="#708E9E" fill-opacity=".3" d="M172 68l22-21-30-4z"/><path fill="#CEF1FE" fill-opacity=".2" d="M253 233l-14-1 14-74z"/><path fill="#FBFFFF" fill-opacity=".5" d="M204 71l4 16 7-18z"/><path fill="#D0DEE8" fill-opacity=".5" d="M290 255l-42 31 59-37z"/><path fill="#DCDDDD" fill-opacity=".8" d="M255 31L208-6l63-5z"/><path fill="#B0B3B2" fill-opacity=".5" d="M269 77l-10 81 31-72z"/><path fill="#010811" fill-opacity=".2" d="M131 130l82-111 24 31z"/><path fill="#D4D6D7" fill-opacity=".9" d="M249 63h32l-33-20z"/><path fill="#D0D2D0" fill-opacity=".5" d="M274 135l28 11-42-8z"/><path fill="#BDC2C6" fill-opacity=".6" d="M318 105v-4l-22-3z"/><path fill="#FFFEF9" fill-opacity=".6" d="M308 76l-4-5-6 5z"/><path fill="#7E8589" d="M248 71l7-6-33-5z"/><path fill="#45433E" fill-opacity=".7" d="M211 375l153-89-204-9z"/><path fill="#A0B1BA" fill-opacity=".4" d="M230 266l-26-20 67 41z"/><path fill="#98A4A8" fill-opacity=".3" d="M330 70l-71-46 147-174z"/><path fill="#49565F" fill-opacity=".3" d="M189 140l23 67 1-123z"/><path fill="#E6F0F8" fill-opacity=".3" d="M258 281l-7-2 28-13z"/><path fill="#BACDD7" fill-opacity=".6" d="M195 106l-1 35 1 86z"/><path fill="#989D9F" fill-opacity=".7" d="M305 57l-74 15-5 14z"/><path fill="#F1FFFE" fill-opacity=".3" d="M256 61h-22l-40 6z"/><path fill="#525556" fill-opacity=".7" d="M314 231l-62-30 62-53z"/><path fill="#090804" fill-opacity=".4" d="M198 263l-63-102 48-96z"/><path fill="#C4CACF" fill-opacity=".5" d="M217 75l-6 10-10-7z"/><path fill="#676B6C" fill-opacity=".8" d="M234 81l18 32 12 2z"/><path fill="#35332D" fill-opacity=".8" d="M384 204l120 285 29-573z"/><path fill="#3B3B3B" fill-opacity=".7" d="M70 229l73-251 23 104z"/><path fill="#393B38" fill-opacity=".6" d="M308 73l-43-10 58 4z"/><path fill="#010300" fill-opacity=".3" d="M193 237l29-97 36 139z"/><path fill="#515456" fill-opacity=".6" d="M257 142l-33-4 35 42z"/><path fill="#C1C9CA" fill-opacity=".1" d="M221 129l38-39 57 107z"/><path fill="#363738" fill-opacity=".6" d="M317 208l33-120-51 25z"/><path fill="#252726" fill-opacity=".8" d="M221 87l-67 32 14-38z"/><path fill="#CFE2F0" fill-opacity=".5" d="M207 102l10-5-27 5z"/><path fill="#171616" fill-opacity=".3" d="M325 90l-31 11 20-35z"/><path fill="#979D9D" fill-opacity=".5" d="M280 179l-38-5v25z"/><path fill="#B0B5B8" fill-opacity=".7" d="M302 8l-33 45 1-95z"/><path fill="#C0C0BE" fill-opacity=".6" d="M300 70l-4-2-1 5z"/><path fill="#282724" fill-opacity=".6" d="M235 292l12-10 27-5z"/><path fill="#121110" fill-opacity=".4" d="M274 232l-48 2 30 26z"/><path fill="#FCFAF6" fill-opacity=".5" d="M283 73l-19-7 3 9z"/><path fill="#0C0801" fill-opacity=".5" d="M279 188l2-21 2 16z"/><path fill="#0B0A03" fill-opacity=".2" d="M290 82l16 33-6-30z"/><path fill="#393D3F" fill-opacity=".5" d="M212 42l38 17-50 7z"/><path fill="#0F0C09" fill-opacity=".6" d="M308 102h-11l27 8z"/><path fill="#FEFFFD" fill-opacity=".3" d="M300 100l-25-22 36 25z"/><path fill="#030B13" fill-opacity=".2" d="M309 218l3 63 41-42z"/><path fill="#130F09" fill-opacity=".4" d="M260 129l5 4 39-2z"/><path fill="#444B4D" fill-opacity=".5" d="M213 236l-2-112-3 105z"/><path fill="#323537" fill-opacity=".7" d="M240 63l-39 4 23 6z"/><path fill="#FDFDFB" fill-opacity=".3" d="M266 55l-17-97-3 91z"/><path fill="#FEFEFC" fill-opacity=".5" d="M214 77l-10 1 5-10z"/><path fill="#9DA2A5" fill-opacity=".8" d="M224 86l-9 8 52-34z"/><path fill="#99A5AD" fill-opacity=".6" d="M211 98l-15 7-5-2z"/><path fill="#33312A" fill-opacity=".4" d="M81 485l17-371-321-160z"/><path fill="#7D7F7E" fill-opacity=".7" d="M300 130V95l-32 28z"/><path fill="#4E4F50" fill-opacity=".7" d="M380 105L503-86 318 68z"/><path fill="#5C6465" fill-opacity=".4" d="M312 41l74 26-77 1z"/><path fill="#F8F7F2" fill-opacity=".4" d="M236 73l17 2-16-10z"/><path fill="#42474C" fill-opacity=".4" d="M224 86l14 83 9-89z"/><path fill="#A2ADB5" fill-opacity=".1" d="M245 4l-74 21-59-122z"/><path fill="#232827" fill-opacity=".8" d="M263 133l-1-13 1-9z"/><path fill="#6E7B7E" fill-opacity=".4" d="M187 67l7 4 23-41z"/><path fill="#C9EAFD" fill-opacity=".2" d="M309 246l4-9-34 30z"/><path fill="#D6EDFA" fill-opacity=".3" d="M195 110l-1-1 1 120z"/><path fill="#5E6467" fill-opacity=".3" d="M246 77l28 2-17-13z"/><path fill="#465157" fill-opacity=".4" d="M202 34l-44 38-2-86z"/><path fill="#0B0700" fill-opacity=".6" d="M271 189l14-5-21 4z"/><path fill="#868C8F" fill-opacity=".6" d="M306 67l-40-8 66-72z"/><path fill="#3F3C36" fill-opacity=".6" d="M267 354l-93-11L-81-57z"/><path fill="#B0AEAD" fill-opacity=".4" d="M313 71l-17 12 17-8z"/><path fill="#8B8F8C" fill-opacity=".3" d="M299 214l8-20-9-26z"/><path fill="#CDD6DA" fill-opacity=".6" d="M317 239V107l1 23z"/><path fill="#4C5052" fill-opacity=".4" d="M144 50l102-17-24-24z"/><path fill="#717777" fill-opacity=".5" d="M278 101l9 6-29-29z"/><path fill="#7C868A" fill-opacity=".5" d="M231 265l-24-15-4-9z"/><path fill="#373F42" fill-opacity=".6" d="M195 98l-8 15-13-6z"/><path fill="#8B9091" fill-opacity=".7" d="M252 111l-4-32 16 17z"/><path fill="#1E1C18" fill-opacity=".6" d="M252 279l-37-23 21 33z"/><path fill="#4E565A" fill-opacity=".7" d="M213 78v10l29-12z"/><path fill="#FEFFFE" fill-opacity=".5" d="M234 71l3 12-8-12z"/><path fill="#7C868A" fill-opacity=".6" d="M262 195l-2 8-6-9z"/><path fill="#535256" fill-opacity=".3" d="M-99-127l226 248-1-87z"/><path fill="#EEEDEC" fill-opacity=".5" d="M293 145l-17-8 16 5z"/><path fill="#292826" fill-opacity=".6" d="M327 217l2 62 18-55z"/><path fill="#BFC4C5" fill-opacity=".2" d="M246 112l19 7-19 36z"/><path fill="#FCFBF8" fill-opacity=".5" d="M276 66l5 5-5 6z"/><path fill="#6A6C6A" fill-opacity=".4" d="M321-8l21 68 28-87z"/><path fill="#262528" fill-opacity=".3" d="M225 177l39-9-17-14z"/><path fill="#9C9E9D" fill-opacity=".5" d="M290 148l11 7-6-12z"/><path fill="#070600" fill-opacity=".5" d="M251 209l6-6 11-1z"/><path fill="#3F3E3A" fill-opacity=".7" d="M427 192L310 336 459 8z"/><path fill="#9A9D9D" fill-opacity=".8" d="M252 131l36 2-37 3z"/><path fill="#3A3D3F" fill-opacity=".8" d="M236 70l-18-6-6 9z"/><path fill="#2F3233" fill-opacity=".9" d="M203 95l-4-29-22 17z"/><path fill="#474846" fill-opacity=".8" d="M307 104l7 72-20-34z"/><path fill="#5A5C61" fill-opacity=".4" d="M274 293l21-15-60 20z"/><path fill="#373634" fill-opacity=".6" d="M321 69l-28 22 6 6z"/><path fill="#0D0903" fill-opacity=".6" d="M314 103l3 6-3 158z"/><path fill="#FAFFFB" fill-opacity=".6" d="M266 63l-1-5-35 5z"/><path fill="#FFFEFB" fill-opacity=".4" d="M287 85l10 10 2 7z"/><path fill="#1C1C18" fill-opacity=".7" d="M321 240l-67 43 26-12z"/><path fill="#515051" fill-opacity=".5" d="M304 310l14-36-40 26z"/><path fill="#FDFDFC" fill-opacity=".5" d="M276 80h-37l14-3z"/><path fill="#262524" fill-opacity=".4" d="M180 66l-46 12 1 115z"/><path fill="#818788" fill-opacity=".4" d="M341 31l-26-70 6 90z"/><path fill="#616868" fill-opacity=".6" d="M242 190l13 11-13 34z"/><path fill="#292B2B" fill-opacity=".7" d="M203 102l-8 31 12-3z"/><path fill="#3C3D3C" fill-opacity=".9" d="M320 212l22-54 24 75z"/><path fill="#636B6C" fill-opacity=".9" d="M243 63l-3 9 6-4z"/><path fill="#292C2E" fill-opacity=".5" d="M200 114l36 36-12-62z"/><path fill="#110F08" fill-opacity=".4" d="M210 208l-9 56-8-47z"/><path fill="#22211E" fill-opacity=".6" d="M240 167l-13 66 16-34z"/><path fill="#535555" fill-opacity=".8" d="M315 142l-21-19-22-24z"/><path fill="#868A89" fill-opacity=".5" d="M278 167l-16 8 18 11z"/><path fill="#C1C3C5" fill-opacity=".5" d="M247 8l-22-3 14 21z"/><path fill="#242422" fill-opacity=".8" d="M154 98l40 71v-54z"/><path fill="#495255" fill-opacity=".3" d="M229 61h20l-12-42z"/><path fill="#B3C4CB" fill-opacity=".2" d="M174 46h20l-12 12z"/><path fill="#1D1B18" fill-opacity=".7" d="M299 101l30 7-30-4z"/><path fill="#3F3F3F" fill-opacity=".4" d="M267 170l-10 7-9-9z"/><path fill="#0E0C06" fill-opacity=".7" d="M197 160v58l7-27z"/><path fill="#686F71" fill-opacity=".6" d="M241 24l-15-3-4 22z"/><path fill="#383634" fill-opacity=".7" d="M309 67l1 11-12-13z"/><path fill="#3C4245" fill-opacity=".7" d="M233 81l-31 9-5-4z"/><path fill="#C6CAC9" fill-opacity=".5" d="M246 172h9l-7 4z"/><path fill="#F6FBFC" fill-opacity=".5" d="M215 73l1-3v15z"/><path fill="#252321" fill-opacity=".7" d="M320 69v22l-10-24z"/><path fill="#3F3D3A" fill-opacity=".7" d="M522 30l-19-66-111 163z"/><path fill="#FDFCFB" fill-opacity=".5" d="M278 137h-21l14 2z"/><path fill="#D5D5D4" fill-opacity=".4" d="M286 129l-20-23-7-3z"/><path fill="#3D403B" fill-opacity=".2" d="M287 95l-16 23 5-1z"/><path fill="#3A3D3F" fill-opacity=".6" d="M349 105l-36-5 33-31z"/><path fill="#5A5C5A" fill-opacity=".9" d="M282 133l18 17-10-18z"/><path fill="#9BA0A4" fill-opacity=".4" d="M298 28l-31 10 4 24z"/><path fill="#000106" fill-opacity=".2" d="M255 203l-3 38 21-20z"/><path fill="#7A7B7C" fill-opacity=".6" d="M310 81l4 1-7 4z"/><path fill="#AAB4BA" fill-opacity=".4" d="M210 98l3 2-24 5z"/><path fill="#A3A4A3" fill-opacity=".6" d="M277 137l17 17v3z"/><path fill="#414343" fill-opacity=".6" d="M182 40l17 10 16-24z"/><path fill="#18150D" fill-opacity=".5" d="M232 234v18l23-18z"/><path fill="#E1E2E3" fill-opacity=".6" d="M233 81h14l-3-3z"/><path fill="#131317" fill-opacity=".5" d="M277 249l7 10-21-22z"/><path fill="#858D91" fill-opacity=".5" d="M259 280l-28-15 22 15z"/><path fill="#383B3C" fill-opacity=".9" d="M215 65l11-1-8 25z"/><path fill="#F3F3F0" fill-opacity=".6" d="M246 70l1 4-6 2z"/><path fill="#4E4F4D" fill-opacity=".7" d="M273 113l13 11 20 25z"/><path fill="#7A7C7C" fill-opacity=".7" d="M287 146l-13-8 1 37z"/><path fill="#4D5355" d="M229 63h7v11z"/><path fill="#343534" fill-opacity=".6" d="M300 127l2 11-2-62z"/><path fill="#76777A" fill-opacity=".5" d="M216 5l-38-29 20 37z"/><path fill="#393F3E" fill-opacity=".6" d="M256 109l5 4h-13z"/><path fill="#302E2C" fill-opacity=".5" d="M281 282l-15 10-82-13z"/><path fill="#FCFCFF" fill-opacity=".4" d="M299 117l1-16v19z"/><path fill="#3B3434" fill-opacity=".4" d="M296 177l1 13-14-26z"/><path fill="#393C3C" fill-opacity=".5" d="M298 180l-38-38 25 27z"/><path fill="#878B8B" fill-opacity=".5" d="M280 89l-5 4-2-18z"/><path fill="#6C7273" fill-opacity=".6" d="M242 140l16 2-22-8z"/><path fill="#B5BDC1" fill-opacity=".5" d="M266 271l-8 9 48-32z"/><path fill="#4B4D4D" fill-opacity=".6" d="M273 81l62 65-61-62z"/><path fill="#161416" fill-opacity=".4" d="M284 159l-15-13 30 30z"/><path fill="#5D6161" fill-opacity=".7" d="M286 179l-34-34-5-1z"/><path fill="#FFF" fill-opacity=".4" d="M237 76l-9-7 3 6z"/><path fill="#1F2120" fill-opacity=".7" d="M204 102l12 1-34 6z"/><path fill="#6E6E6F" fill-opacity=".6" d="M277 189l9 5 12 15z"/><path fill="#393E41" fill-opacity=".7" d="M288 258l32-27-75 40z"/><path fill="#1B1A17" fill-opacity=".6" d="M212 125l2 78 11-76z"/><path fill="#B2B9BC" fill-opacity=".6" d="M317 235V134l1 22z"/><path fill="#2F3031" fill-opacity=".4" d="M247 135l32 31 24 27z"/><path fill="#E5ECEE" fill-opacity=".3" d="M270 62l11-2 27 6z"/><path fill="#494644" fill-opacity=".5" d="M229 288l-3 29 84-5z"/><path fill="#6D7271" fill-opacity=".8" d="M286 70h10l-23 8z"/><path fill="#27292A" fill-opacity=".5" d="M205 71v25l-2-21z"/><path fill="#5B6969" fill-opacity=".3" d="M212 155l-7-16 8-35z"/><path fill="#302D28" fill-opacity=".5" d="M134 109l24 130-37-92z"/><path fill="#717778" fill-opacity=".4" d="M282 57l33 11 24-32z"/><path fill="#4C4F4F" fill-opacity=".8" d="M244 124l-19-15 17 20z"/><path fill="#181613" fill-opacity=".6" d="M193 91l28-5-47 19z"/><path fill="#4C555D" fill-opacity=".3" d="M320 240l14-49-13-42z"/><path fill="#959B9F" fill-opacity=".5" d="M246 62l4-10-7-26z"/><path fill="#3B444B" fill-opacity=".4" d="M135-65l25 168 14-40z"/><path fill="#3F4243" fill-opacity=".5" d="M315 228l-45 15 5-57z"/><path fill="#F2F2EF" fill-opacity=".4" d="M287 84l2 4-21-10z"/><path fill="#FDFCFB" fill-opacity=".6" d="M211 64l3 1 3-1z"/><path fill="#484A4A" d="M288 64l-20-1 61 7z"/><path fill="#0F0D08" fill-opacity=".5" d="M319 234l-12 16 12-24z"/><path fill="#0B0703" fill-opacity=".3" d="M279 170l13 17-12-10z"/><path fill="#0A0601" fill-opacity=".6" d="M265 202l-2-13v15z"/></g></svg>