<svg xmlns="http://www.w3.org/2000/svg" viewBox="0 0 256 170.66666666666666" clip-path="url(#clip)" width="512" height="341.3333333333333"><defs><clipPath id="clip" clipPathUnits="objectBoundingBox"><rect x="0" y="0" width="256" height="170.66666666666666"/></clipPath></defs><rect x="0" y="0" width="256" height="170.66666666666666" fill="rgb(88, 0, 11)"/><path d="M198,131L325,20L72,-61Z" fill="rgb(143, 4, 21)" fill-opacity="0.65"/><path d="M210,142L157,84L117,108Z" fill="rgb(172, 6, 26)" fill-opacity="0.44"/><path d="M104,109L79,48L156,75Z" fill="rgb(28, 1, 0)" fill-opacity="0.61"/><path d="M32,29L107,58L195,-93Z" fill="rgb(129, 8, 23)" fill-opacity="0.64"/><path d="M67,108L158,54L129,29Z" fill="rgb(51, 1, 5)" fill-opacity="0.78"/><path d="M160,158L11,145L86,94Z" fill="rgb(171, 6, 25)" fill-opacity="0.26"/><path d="M226,33L408,-163L227,145Z" fill="rgb(104, 0, 13)" fill-opacity="0.96"/><path d="M226,151L167,159L268,179Z" fill="rgb(31, 0, 0)" fill-opacity="0.56"/><path d="M138,129L156,87L125,95Z" fill="rgb(145, 6, 22)" fill-opacity="0.71"/><path d="M114,16L114,61L87,46Z" fill="rgb(255, 37, 61)" fill-opacity="0.14"/><path d="M190,92L122,12L214,23Z" fill="rgb(154, 7, 25)" fill-opacity="0.61"/><path d="M156,76L171,90L132,87Z" fill="rgb(36, 1, 2)" fill-opacity="0.61"/><path d="M73,8L80,86L39,58Z" fill="rgb(140, 11, 27)" fill-opacity="0.34"/><path d="M144,129L121,139L128,121Z" fill="rgb(29, 0, 0)" fill-opacity="0.56"/><path d="M133,119L207,66L173,143Z" fill="rgb(126, 2, 17)" fill-opacity="0.71"/><path d="M34,97L116,133L110,106Z" fill="rgb(158, 8, 26)" fill-opacity="0.34"/><path d="M135,78L102,88L118,124Z" fill="rgb(44, 1, 3)" fill-opacity="0.54"/><path d="M103,87L85,87L115,79Z" fill="rgb(139, 6, 23)" fill-opacity="0.56"/><path d="M219,140L197,143L269,161Z" fill="rgb(30, 0, 0)" fill-opacity="0.48"/><path d="M65,8L12,81L4,30Z" fill="rgb(98, 2, 14)" fill-opacity="0.85"/><path d="M267,75L271,63L207,17Z" fill="rgb(59, 0, 6)" fill-opacity="0.64"/><path d="M149,127L159,146L178,154Z" fill="rgb(32, 0, 0)" fill-opacity="0.51"/><path d="M55,81L80,90L30,99Z" fill="rgb(142, 7, 23)" fill-opacity="0.42"/><path d="M115,101L87,87L56,98Z" fill="rgb(39, 0, 2)" fill-opacity="0.62"/><path d="M240,46L140,56L166,86Z" fill="rgb(139, 5, 21)" fill-opacity="0.51"/><path d="M181,166L170,163L215,150Z" fill="rgb(50, 0, 3)" fill-opacity="0.84"/><path d="M114,35L147,58L117,27Z" fill="rgb(36, 0, 2)" fill-opacity="0.63"/><path d="M207,2L237,46L207,24Z" fill="rgb(89, 0, 10)" fill-opacity="0.44"/><path d="M112,24L131,38L117,15Z" fill="rgb(127, 8, 22)" fill-opacity="0.83"/><path d="M178,148L280,114L186,91Z" fill="rgb(108, 0, 14)" fill-opacity="0.54"/><path d="M86,44L80,70L125,82Z" fill="rgb(43, 0, 3)" fill-opacity="0.56"/><path d="M119,162L39,74L13,151Z" fill="rgb(104, 2, 14)" fill-opacity="0.66"/><path d="M182,14L148,51L141,1Z" fill="rgb(155, 11, 27)" fill-opacity="0.38"/><path d="M89,121L113,110L86,98Z" fill="rgb(145, 7, 25)" fill-opacity="0.48"/><path d="M104,20L54,97L125,-72Z" fill="rgb(96, 5, 16)" fill-opacity="0.63"/><path d="M140,31L111,86L150,51Z" fill="rgb(45, 0, 3)" fill-opacity="0.74"/><path d="M130,108L127,110L133,136Z" fill="rgb(59, 1, 6)" fill-opacity="0.65"/><path d="M-20,12L41,20L17,-38Z" fill="rgb(68, 1, 9)" fill-opacity="0.54"/><path d="M163,68L150,44L157,39Z" fill="rgb(120, 6, 19)" fill-opacity="0.86"/><path d="M7,246L15,162L-9,94Z" fill="rgb(47, 1, 5)" fill-opacity="0.33"/><path d="M57,45L88,54L52,62Z" fill="rgb(125, 7, 21)" fill-opacity="0.60"/><path d="M175,159L86,157L143,129Z" fill="rgb(104, 0, 13)" fill-opacity="0.65"/><path d="M246,46L213,18L228,4Z" fill="rgb(138, 4, 18)" fill-opacity="0.46"/><path d="M209,22L225,141L250,61Z" fill="rgb(124, 1, 17)" fill-opacity="0.45"/><path d="M176,165L220,166L275,202Z" fill="rgb(84, 0, 10)" fill-opacity="0.96"/><path d="M247,152L240,140L242,160Z" fill="rgb(38, 0, 2)" fill-opacity="0.55"/><path d="M69,49L82,70L101,80Z" fill="rgb(50, 2, 6)" fill-opacity="0.56"/><path d="M76,72L89,76L71,59Z" fill="rgb(134, 6, 22)" fill-opacity="0.44"/><path d="M71,58L70,73L56,66Z" fill="rgb(78, 1, 11)" fill-opacity="0.60"/><path d="M162,133L176,157L163,148Z" fill="rgb(43, 0, 0)" fill-opacity="0.47"/><path d="M145,20L119,17L137,36Z" fill="rgb(147, 11, 27)" fill-opacity="0.50"/><path d="M66,92L62,84L78,91Z" fill="rgb(163, 10, 29)" fill-opacity="0.40"/><path d="M164,91L132,127L205,123Z" fill="rgb(128, 2, 18)" fill-opacity="0.72"/><path d="M124,95L197,103L124,117Z" fill="rgb(156, 9, 27)" fill-opacity="0.24"/><path d="M143,13L138,41L129,6Z" fill="rgb(138, 6, 22)" fill-opacity="0.70"/><path d="M126,69L96,95L99,109Z" fill="rgb(43, 0, 3)" fill-opacity="0.51"/><path d="M134,50L84,73L147,69Z" fill="rgb(44, 0, 3)" fill-opacity="0.60"/><path d="M209,119L220,121L203,113Z" fill="rgb(55, 0, 3)" fill-opacity="0.53"/><path d="M152,55L144,72L170,80Z" fill="rgb(117, 9, 22)" fill-opacity="0.53"/><path d="M137,25L167,23L149,49Z" fill="rgb(163, 14, 29)" fill-opacity="0.33"/><path d="M174,147L203,146L175,162Z" fill="rgb(106, 0, 1)" fill-opacity="0.50"/><path d="M-3,136L-13,66L21,101Z" fill="rgb(74, 1, 9)" fill-opacity="0.62"/><path d="M65,109L68,100L87,121Z" fill="rgb(99, 0, 13)" fill-opacity="0.44"/><path d="M22,70L32,58L52,81Z" fill="rgb(66, 2, 9)" fill-opacity="0.52"/><path d="M131,92L114,59L166,84Z" fill="rgb(52, 1, 5)" fill-opacity="0.90"/><path d="M172,95L76,45L169,87Z" fill="rgb(46, 0, 3)" fill-opacity="0.78"/><path d="M78,81L100,71L88,98Z" fill="rgb(71, 3, 11)" fill-opacity="0.47"/><path d="M136,122L127,122L115,110Z" fill="rgb(30, 0, 0)" fill-opacity="0.43"/><path d="M117,56L108,54L109,58Z" fill="rgb(36, 0, 1)" fill-opacity="0.60"/><path d="M206,138L216,144L189,147Z" fill="rgb(55, 0, 3)" fill-opacity="0.67"/><path d="M96,53L100,40L121,54Z" fill="rgb(170, 16, 33)" fill-opacity="0.27"/><path d="M33,60L56,58L9,25Z" fill="rgb(113, 4, 18)" fill-opacity="0.46"/><path d="M163,-4L182,14L223,1Z" fill="rgb(109, 2, 14)" fill-opacity="0.58"/><path d="M234,155L182,142L235,150Z" fill="rgb(99, 0, 11)" fill-opacity="0.50"/><path d="M173,152L180,137L197,150Z" fill="rgb(110, 0, 10)" fill-opacity="0.50"/><path d="M82,105L77,126L109,105Z" fill="rgb(136, 6, 22)" fill-opacity="0.44"/><path d="M202,129L196,135L141,132Z" fill="rgb(79, 0, 10)" fill-opacity="0.46"/><path d="M173,153L179,136L168,151Z" fill="rgb(52, 0, 2)" fill-opacity="0.76"/><path d="M61,46L46,52L48,-62Z" fill="rgb(97, 2, 14)" fill-opacity="0.72"/><path d="M166,166L170,161L156,160Z" fill="rgb(53, 0, 1)" fill-opacity="0.54"/><path d="M114,101L111,120L126,104Z" fill="rgb(42, 0, 3)" fill-opacity="0.50"/><path d="M240,135L232,127L232,121Z" fill="rgb(21, 0, 0)" fill-opacity="0.37"/><path d="M117,117L117,112L127,125Z" fill="rgb(125, 1, 15)" fill-opacity="0.63"/><path d="M136,109L124,141L123,133Z" fill="rgb(44, 0, 3)" fill-opacity="0.49"/><path d="M118,42L112,47L155,55Z" fill="rgb(41, 0, 3)" fill-opacity="0.58"/><path d="M65,54L53,48L73,48Z" fill="rgb(144, 8, 26)" fill-opacity="0.47"/><path d="M137,127L160,142L150,132Z" fill="rgb(35, 0, 1)" fill-opacity="0.59"/><path d="M70,60L56,30L70,-11Z" fill="rgb(150, 10, 28)" fill-opacity="0.22"/><path d="M250,186L198,150L248,164Z" fill="rgb(33, 0, 0)" fill-opacity="0.39"/><path d="M196,149L202,144L183,138Z" fill="rgb(40, 1, 3)" fill-opacity="0.37"/><path d="M143,131L126,136L137,137Z" fill="rgb(157, 2, 22)" fill-opacity="0.36"/><path d="M146,166L148,132L126,160Z" fill="rgb(113, 1, 16)" fill-opacity="0.44"/></svg>