<svg xmlns="http://www.w3.org/2000/svg" viewBox="0 0 512 341.3333333333333" clip-path="url(#clip)" width="1104" height="736"><defs><clipPath id="clip" clipPathUnits="objectBoundingBox"><rect x="0" y="0" width="512" height="341.3333333333333"/></clipPath></defs><rect x="0" y="0" width="512" height="341.3333333333333" fill="rgb(70, 69, 64)"/><path d="M209,-74L259,194L345,-6Z" fill="rgb(165, 169, 172)" fill-opacity="0.83"/><path d="M249,51L204,90L50,-310Z" fill="rgb(86, 91, 93)" fill-opacity="0.90"/><path d="M212,-23L266,75L290,-26Z" fill="rgb(222, 224, 225)" fill-opacity="0.76"/><path d="M236,112L262,553L109,84Z" fill="rgb(27, 26, 23)" fill-opacity="0.62"/><path d="M237,202L313,3L302,196Z" fill="rgb(111, 113, 114)" fill-opacity="0.68"/><path d="M404,38L270,87L450,-184Z" fill="rgb(106, 109, 112)" fill-opacity="0.58"/><path d="M242,201L242,173L282,172Z" fill="rgb(136, 141, 141)" fill-opacity="0.98"/><path d="M249,54L170,-54L243,27Z" fill="rgb(118, 123, 125)" fill-opacity="0.86"/><path d="M228,72L280,131L279,35Z" fill="rgb(174, 178, 179)" fill-opacity="0.57"/><path d="M238,73L243,166L255,93Z" fill="rgb(107, 113, 114)" fill-opacity="0.81"/><path d="M346,125L270,130L350,175Z" fill="rgb(51, 52, 52)" fill-opacity="0.61"/><path d="M335,114L278,80L283,61Z" fill="rgb(69, 71, 70)" fill-opacity="0.83"/><path d="M145,608L-171,72L608,280Z" fill="rgb(40, 36, 31)" fill-opacity="0.40"/><path d="M172,68L194,47L164,43Z" fill="rgb(112, 142, 158)" fill-opacity="0.35"/><path d="M253,233L239,232L253,158Z" fill="rgb(206, 241, 254)" fill-opacity="0.18"/><path d="M204,71L208,87L215,69Z" fill="rgb(251, 255, 255)" fill-opacity="0.53"/><path d="M290,255L248,286L307,249Z" fill="rgb(208, 222, 232)" fill-opacity="0.45"/><path d="M255,31L208,-6L271,-11Z" fill="rgb(220, 221, 221)" fill-opacity="0.84"/><path d="M269,77L259,158L290,86Z" fill="rgb(176, 179, 178)" fill-opacity="0.49"/><path d="M131,130L213,19L237,50Z" fill="rgb(1, 8, 17)" fill-opacity="0.22"/><path d="M249,63L281,63L248,43Z" fill="rgb(212, 214, 215)" fill-opacity="0.92"/><path d="M274,135L302,146L260,138Z" fill="rgb(208, 210, 208)" fill-opacity="0.51"/><path d="M318,105L318,101L296,98Z" fill="rgb(189, 194, 198)" fill-opacity="0.59"/><path d="M308,76L304,71L298,76Z" fill="rgb(255, 254, 249)" fill-opacity="0.57"/><path d="M248,71L255,65L222,60Z" fill="rgb(126, 133, 137)" fill-opacity="1.00"/><path d="M211,375L364,286L160,277Z" fill="rgb(69, 67, 62)" fill-opacity="0.71"/><path d="M230,266L204,246L271,287Z" fill="rgb(160, 177, 186)" fill-opacity="0.40"/><path d="M330,70L259,24L406,-150Z" fill="rgb(152, 164, 168)" fill-opacity="0.26"/><path d="M189,140L212,207L213,84Z" fill="rgb(73, 86, 95)" fill-opacity="0.35"/><path d="M258,281L251,279L279,266Z" fill="rgb(230, 240, 248)" fill-opacity="0.32"/><path d="M195,106L194,141L195,227Z" fill="rgb(186, 205, 215)" fill-opacity="0.60"/><path d="M305,57L231,72L226,86Z" fill="rgb(152, 157, 159)" fill-opacity="0.71"/><path d="M256,61L234,61L194,67Z" fill="rgb(241, 255, 254)" fill-opacity="0.34"/><path d="M314,231L252,201L314,148Z" fill="rgb(82, 85, 86)" fill-opacity="0.70"/><path d="M198,263L135,161L183,65Z" fill="rgb(9, 8, 4)" fill-opacity="0.39"/><path d="M217,75L211,85L201,78Z" fill="rgb(196, 202, 207)" fill-opacity="0.49"/><path d="M234,81L252,113L264,115Z" fill="rgb(103, 107, 108)" fill-opacity="0.81"/><path d="M384,204L504,489L533,-84Z" fill="rgb(53, 51, 45)" fill-opacity="0.77"/><path d="M70,229L143,-22L166,82Z" fill="rgb(59, 59, 59)" fill-opacity="0.71"/><path d="M308,73L265,63L323,67Z" fill="rgb(57, 59, 56)" fill-opacity="0.62"/><path d="M193,237L222,140L258,279Z" fill="rgb(1, 3, 0)" fill-opacity="0.30"/><path d="M257,142L224,138L259,180Z" fill="rgb(81, 84, 86)" fill-opacity="0.57"/><path d="M221,129L259,90L316,197Z" fill="rgb(193, 201, 202)" fill-opacity="0.10"/><path d="M317,208L350,88L299,113Z" fill="rgb(54, 55, 56)" fill-opacity="0.60"/><path d="M221,87L154,119L168,81Z" fill="rgb(37, 39, 38)" fill-opacity="0.84"/><path d="M207,102L217,97L190,102Z" fill="rgb(207, 226, 240)" fill-opacity="0.47"/><path d="M325,90L294,101L314,66Z" fill="rgb(23, 22, 22)" fill-opacity="0.28"/><path d="M280,179L242,174L242,199Z" fill="rgb(151, 157, 157)" fill-opacity="0.52"/><path d="M302,8L269,53L270,-42Z" fill="rgb(176, 181, 184)" fill-opacity="0.65"/><path d="M300,70L296,68L295,73Z" fill="rgb(192, 192, 190)" fill-opacity="0.61"/><path d="M235,292L247,282L274,277Z" fill="rgb(40, 39, 36)" fill-opacity="0.58"/><path d="M274,232L226,234L256,260Z" fill="rgb(18, 17, 16)" fill-opacity="0.41"/><path d="M283,73L264,66L267,75Z" fill="rgb(252, 250, 246)" fill-opacity="0.51"/><path d="M279,188L281,167L283,183Z" fill="rgb(12, 8, 1)" fill-opacity="0.51"/><path d="M290,82L306,115L300,85Z" fill="rgb(11, 10, 3)" fill-opacity="0.23"/><path d="M212,42L250,59L200,66Z" fill="rgb(57, 61, 63)" fill-opacity="0.54"/><path d="M308,102L297,102L324,110Z" fill="rgb(15, 12, 9)" fill-opacity="0.58"/><path d="M300,100L275,78L311,103Z" fill="rgb(254, 255, 253)" fill-opacity="0.26"/><path d="M309,218L312,281L353,239Z" fill="rgb(3, 11, 19)" fill-opacity="0.24"/><path d="M260,129L265,133L304,131Z" fill="rgb(19, 15, 9)" fill-opacity="0.39"/><path d="M213,236L211,124L208,229Z" fill="rgb(68, 75, 77)" fill-opacity="0.52"/><path d="M240,63L201,67L224,73Z" fill="rgb(50, 53, 55)" fill-opacity="0.72"/><path d="M266,55L249,-42L246,49Z" fill="rgb(253, 253, 251)" fill-opacity="0.31"/><path d="M214,77L204,78L209,68Z" fill="rgb(254, 254, 252)" fill-opacity="0.48"/><path d="M224,86L215,94L267,60Z" fill="rgb(157, 162, 165)" fill-opacity="0.79"/><path d="M211,98L196,105L191,103Z" fill="rgb(153, 165, 173)" fill-opacity="0.63"/><path d="M81,485L98,114L-223,-46Z" fill="rgb(51, 49, 42)" fill-opacity="0.40"/><path d="M300,130L300,95L268,123Z" fill="rgb(125, 127, 126)" fill-opacity="0.68"/><path d="M380,105L503,-86L318,68Z" fill="rgb(78, 79, 80)" fill-opacity="0.66"/><path d="M312,41L386,67L309,68Z" fill="rgb(92, 100, 101)" fill-opacity="0.37"/><path d="M236,73L253,75L237,65Z" fill="rgb(248, 247, 242)" fill-opacity="0.37"/><path d="M224,86L238,169L247,80Z" fill="rgb(66, 71, 76)" fill-opacity="0.41"/><path d="M245,4L171,25L112,-97Z" fill="rgb(162, 173, 181)" fill-opacity="0.15"/><path d="M263,133L262,120L263,111Z" fill="rgb(35, 40, 39)" fill-opacity="0.76"/><path d="M187,67L194,71L217,30Z" fill="rgb(110, 123, 126)" fill-opacity="0.37"/><path d="M309,246L313,237L279,267Z" fill="rgb(201, 234, 253)" fill-opacity="0.22"/><path d="M195,110L194,109L195,229Z" fill="rgb(214, 237, 250)" fill-opacity="0.32"/><path d="M246,77L274,79L257,66Z" fill="rgb(94, 100, 103)" fill-opacity="0.26"/><path d="M202,34L158,72L156,-14Z" fill="rgb(70, 81, 87)" fill-opacity="0.41"/><path d="M271,189L285,184L264,188Z" fill="rgb(11, 7, 0)" fill-opacity="0.61"/><path d="M306,67L266,59L332,-13Z" fill="rgb(134, 140, 143)" fill-opacity="0.60"/><path d="M267,354L174,343L-81,-57Z" fill="rgb(63, 60, 54)" fill-opacity="0.60"/><path d="M313,71L296,83L313,75Z" fill="rgb(176, 174, 173)" fill-opacity="0.44"/><path d="M299,214L307,194L298,168Z" fill="rgb(139, 143, 140)" fill-opacity="0.33"/><path d="M317,239L317,107L318,130Z" fill="rgb(205, 214, 218)" fill-opacity="0.62"/><path d="M144,50L246,33L222,9Z" fill="rgb(76, 80, 82)" fill-opacity="0.36"/><path d="M278,101L287,107L258,78Z" fill="rgb(113, 119, 119)" fill-opacity="0.54"/><path d="M231,265L207,250L203,241Z" fill="rgb(124, 134, 138)" fill-opacity="0.46"/><path d="M195,98L187,113L174,107Z" fill="rgb(55, 63, 66)" fill-opacity="0.57"/><path d="M252,111L248,79L264,96Z" fill="rgb(139, 144, 145)" fill-opacity="0.65"/><path d="M252,279L215,256L236,289Z" fill="rgb(30, 28, 24)" fill-opacity="0.63"/><path d="M213,78L213,88L242,76Z" fill="rgb(78, 86, 90)" fill-opacity="0.74"/><path d="M234,71L237,83L229,71Z" fill="rgb(254, 255, 254)" fill-opacity="0.45"/><path d="M262,195L260,203L254,194Z" fill="rgb(124, 134, 138)" fill-opacity="0.55"/><path d="M-99,-127L127,121L126,34Z" fill="rgb(83, 82, 86)" fill-opacity="0.33"/><path d="M293,145L276,137L292,142Z" fill="rgb(238, 237, 236)" fill-opacity="0.54"/><path d="M327,217L329,279L347,224Z" fill="rgb(41, 40, 38)" fill-opacity="0.58"/><path d="M246,112L265,119L246,155Z" fill="rgb(191, 196, 197)" fill-opacity="0.21"/><path d="M276,66L281,71L276,77Z" fill="rgb(252, 251, 248)" fill-opacity="0.49"/><path d="M321,-8L342,60L370,-27Z" fill="rgb(106, 108, 106)" fill-opacity="0.44"/><path d="M225,177L264,168L247,154Z" fill="rgb(38, 37, 40)" fill-opacity="0.26"/><path d="M290,148L301,155L295,143Z" fill="rgb(156, 158, 157)" fill-opacity="0.53"/><path d="M251,209L257,203L268,202Z" fill="rgb(7, 6, 0)" fill-opacity="0.47"/><path d="M427,192L310,336L459,8Z" fill="rgb(63, 62, 58)" fill-opacity="0.73"/><path d="M252,131L288,133L251,136Z" fill="rgb(154, 157, 157)" fill-opacity="0.77"/><path d="M236,70L218,64L212,73Z" fill="rgb(58, 61, 63)" fill-opacity="0.78"/><path d="M203,95L199,66L177,83Z" fill="rgb(47, 50, 51)" fill-opacity="0.95"/><path d="M307,104L314,176L294,142Z" fill="rgb(71, 72, 70)" fill-opacity="0.79"/><path d="M274,293L295,278L235,298Z" fill="rgb(90, 92, 97)" fill-opacity="0.42"/><path d="M321,69L293,91L299,97Z" fill="rgb(55, 54, 52)" fill-opacity="0.58"/><path d="M314,103L317,109L314,267Z" fill="rgb(13, 9, 3)" fill-opacity="0.62"/><path d="M266,63L265,58L230,63Z" fill="rgb(250, 255, 251)" fill-opacity="0.57"/><path d="M287,85L297,95L299,102Z" fill="rgb(255, 254, 251)" fill-opacity="0.41"/><path d="M321,240L254,283L280,271Z" fill="rgb(28, 28, 24)" fill-opacity="0.69"/><path d="M304,310L318,274L278,300Z" fill="rgb(81, 80, 81)" fill-opacity="0.46"/><path d="M276,80L239,80L253,77Z" fill="rgb(253, 253, 252)" fill-opacity="0.51"/><path d="M180,66L134,78L135,193Z" fill="rgb(38, 37, 36)" fill-opacity="0.39"/><path d="M341,31L315,-39L321,51Z" fill="rgb(129, 135, 136)" fill-opacity="0.44"/><path d="M242,190L255,201L242,235Z" fill="rgb(97, 104, 104)" fill-opacity="0.60"/><path d="M203,102L195,133L207,130Z" fill="rgb(41, 43, 43)" fill-opacity="0.70"/><path d="M320,212L342,158L366,233Z" fill="rgb(60, 61, 60)" fill-opacity="0.87"/><path d="M243,63L240,72L246,68Z" fill="rgb(99, 107, 108)" fill-opacity="0.86"/><path d="M200,114L236,150L224,88Z" fill="rgb(41, 44, 46)" fill-opacity="0.53"/><path d="M210,208L201,264L193,217Z" fill="rgb(17, 15, 8)" fill-opacity="0.42"/><path d="M240,167L227,233L243,199Z" fill="rgb(34, 33, 30)" fill-opacity="0.61"/><path d="M315,142L294,123L272,99Z" fill="rgb(83, 85, 85)" fill-opacity="0.76"/><path d="M278,167L262,175L280,186Z" fill="rgb(134, 138, 137)" fill-opacity="0.49"/><path d="M247,8L225,5L239,26Z" fill="rgb(193, 195, 197)" fill-opacity="0.54"/><path d="M154,98L194,169L194,115Z" fill="rgb(36, 36, 34)" fill-opacity="0.81"/><path d="M229,61L249,61L237,19Z" fill="rgb(73, 82, 85)" fill-opacity="0.31"/><path d="M174,46L194,46L182,58Z" fill="rgb(179, 196, 203)" fill-opacity="0.17"/><path d="M299,101L329,108L299,104Z" fill="rgb(29, 27, 24)" fill-opacity="0.68"/><path d="M267,170L257,177L248,168Z" fill="rgb(63, 63, 63)" fill-opacity="0.39"/><path d="M197,160L197,218L204,191Z" fill="rgb(14, 12, 6)" fill-opacity="0.66"/><path d="M241,24L226,21L222,43Z" fill="rgb(104, 111, 113)" fill-opacity="0.64"/><path d="M309,67L310,78L298,65Z" fill="rgb(56, 54, 52)" fill-opacity="0.65"/><path d="M233,81L202,90L197,86Z" fill="rgb(60, 66, 69)" fill-opacity="0.73"/><path d="M246,172L255,172L248,176Z" fill="rgb(198, 202, 201)" fill-opacity="0.47"/><path d="M215,73L216,70L216,85Z" fill="rgb(246, 251, 252)" fill-opacity="0.48"/><path d="M320,69L320,91L310,67Z" fill="rgb(37, 35, 33)" fill-opacity="0.68"/><path d="M522,30L503,-36L392,127Z" fill="rgb(63, 61, 58)" fill-opacity="0.70"/><path d="M278,137L257,137L271,139Z" fill="rgb(253, 252, 251)" fill-opacity="0.53"/><path d="M286,129L266,106L259,103Z" fill="rgb(213, 213, 212)" fill-opacity="0.39"/><path d="M287,95L271,118L276,117Z" fill="rgb(61, 64, 59)" fill-opacity="0.21"/><path d="M349,105L313,100L346,69Z" fill="rgb(58, 61, 63)" fill-opacity="0.64"/><path d="M282,133L300,150L290,132Z" fill="rgb(90, 92, 90)" fill-opacity="0.94"/><path d="M298,28L267,38L271,62Z" fill="rgb(155, 160, 164)" fill-opacity="0.44"/><path d="M255,203L252,241L273,221Z" fill="rgb(0, 1, 6)" fill-opacity="0.20"/><path d="M310,81L314,82L307,86Z" fill="rgb(122, 123, 124)" fill-opacity="0.60"/><path d="M210,98L213,100L189,105Z" fill="rgb(170, 180, 186)" fill-opacity="0.44"/><path d="M277,137L294,154L294,157Z" fill="rgb(163, 164, 163)" fill-opacity="0.63"/><path d="M182,40L199,50L215,26Z" fill="rgb(65, 67, 67)" fill-opacity="0.58"/><path d="M232,234L232,252L255,234Z" fill="rgb(24, 21, 13)" fill-opacity="0.53"/><path d="M233,81L247,81L244,78Z" fill="rgb(225, 226, 227)" fill-opacity="0.56"/><path d="M277,249L284,259L263,237Z" fill="rgb(19, 19, 23)" fill-opacity="0.49"/><path d="M259,280L231,265L253,280Z" fill="rgb(133, 141, 145)" fill-opacity="0.51"/><path d="M215,65L226,64L218,89Z" fill="rgb(56, 59, 60)" fill-opacity="0.94"/><path d="M246,70L247,74L241,76Z" fill="rgb(243, 243, 240)" fill-opacity="0.57"/><path d="M273,113L286,124L306,149Z" fill="rgb(78, 79, 77)" fill-opacity="0.69"/><path d="M287,146L274,138L275,175Z" fill="rgb(122, 124, 124)" fill-opacity="0.69"/><path d="M229,63L236,63L236,74Z" fill="rgb(77, 83, 85)" fill-opacity="1.00"/><path d="M300,127L302,138L300,76Z" fill="rgb(52, 53, 52)" fill-opacity="0.55"/><path d="M216,5L178,-24L198,13Z" fill="rgb(118, 119, 122)" fill-opacity="0.51"/><path d="M256,109L261,113L248,113Z" fill="rgb(57, 63, 62)" fill-opacity="0.62"/><path d="M281,282L266,292L184,279Z" fill="rgb(48, 46, 44)" fill-opacity="0.51"/><path d="M299,117L300,101L300,120Z" fill="rgb(252, 252, 255)" fill-opacity="0.42"/><path d="M296,177L297,190L283,164Z" fill="rgb(59, 52, 52)" fill-opacity="0.37"/><path d="M298,180L260,142L285,169Z" fill="rgb(57, 60, 60)" fill-opacity="0.51"/><path d="M280,89L275,93L273,75Z" fill="rgb(135, 139, 139)" fill-opacity="0.53"/><path d="M242,140L258,142L236,134Z" fill="rgb(108, 114, 115)" fill-opacity="0.62"/><path d="M266,271L258,280L306,248Z" fill="rgb(181, 189, 193)" fill-opacity="0.51"/><path d="M273,81L335,146L274,84Z" fill="rgb(75, 77, 77)" fill-opacity="0.58"/><path d="M284,159L269,146L299,176Z" fill="rgb(22, 20, 22)" fill-opacity="0.37"/><path d="M286,179L252,145L247,144Z" fill="rgb(93, 97, 97)" fill-opacity="0.69"/><path d="M237,76L228,69L231,75Z" fill="rgb(255, 255, 255)" fill-opacity="0.39"/><path d="M204,102L216,103L182,109Z" fill="rgb(31, 33, 32)" fill-opacity="0.65"/><path d="M277,189L286,194L298,209Z" fill="rgb(110, 110, 111)" fill-opacity="0.56"/><path d="M288,258L320,231L245,271Z" fill="rgb(57, 62, 65)" fill-opacity="0.69"/><path d="M212,125L214,203L225,127Z" fill="rgb(27, 26, 23)" fill-opacity="0.63"/><path d="M317,235L317,134L318,156Z" fill="rgb(178, 185, 188)" fill-opacity="0.58"/><path d="M247,135L279,166L303,193Z" fill="rgb(47, 48, 49)" fill-opacity="0.37"/><path d="M270,62L281,60L308,66Z" fill="rgb(229, 236, 238)" fill-opacity="0.32"/><path d="M229,288L226,317L310,312Z" fill="rgb(73, 70, 68)" fill-opacity="0.45"/><path d="M286,70L296,70L273,78Z" fill="rgb(109, 114, 113)" fill-opacity="0.81"/><path d="M205,71L205,96L203,75Z" fill="rgb(39, 41, 42)" fill-opacity="0.52"/><path d="M212,155L205,139L213,104Z" fill="rgb(91, 105, 105)" fill-opacity="0.25"/><path d="M134,109L158,239L121,147Z" fill="rgb(48, 45, 40)" fill-opacity="0.50"/><path d="M282,57L315,68L339,36Z" fill="rgb(113, 119, 120)" fill-opacity="0.44"/><path d="M244,124L225,109L242,129Z" fill="rgb(76, 79, 79)" fill-opacity="0.79"/><path d="M193,91L221,86L174,105Z" fill="rgb(24, 22, 19)" fill-opacity="0.57"/><path d="M320,240L334,191L321,149Z" fill="rgb(76, 85, 93)" fill-opacity="0.27"/><path d="M246,62L250,52L243,26Z" fill="rgb(149, 155, 159)" fill-opacity="0.51"/><path d="M135,-65L160,103L174,63Z" fill="rgb(59, 68, 75)" fill-opacity="0.37"/><path d="M315,228L270,243L275,186Z" fill="rgb(63, 66, 67)" fill-opacity="0.53"/><path d="M287,84L289,88L268,78Z" fill="rgb(242, 242, 239)" fill-opacity="0.42"/><path d="M211,64L214,65L217,64Z" fill="rgb(253, 252, 251)" fill-opacity="0.61"/><path d="M288,64L268,63L329,70Z" fill="rgb(72, 74, 74)" fill-opacity="0.99"/><path d="M319,234L307,250L319,226Z" fill="rgb(15, 13, 8)" fill-opacity="0.53"/><path d="M279,170L292,187L280,177Z" fill="rgb(11, 7, 3)" fill-opacity="0.32"/><path d="M265,202L263,189L263,204Z" fill="rgb(10, 6, 1)" fill-opacity="0.56"/></svg>