<svg xmlns="http://www.w3.org/2000/svg" viewBox="0 0 512 341.3333333333333" clip-path="url(#clip)" width="1200" height="800"><defs><clipPath id="clip" clipPathUnits="objectBoundingBox"><rect x="0" y="0" width="512" height="341.3333333333333"/></clipPath></defs><rect x="0" y="0" width="512" height="341.3333333333333" fill="rgb(36, 33, 27)"/><path d="M130,-88L266,217L348,8Z" fill="rgb(200, 209, 217)" fill-opacity="0.51"/><path d="M220,-31L270,130L292,-2Z" fill="rgb(214, 217, 219)" fill-opacity="0.69"/><path d="M294,306L31,-96L371,123Z" fill="rgb(84, 91, 96)" fill-opacity="0.42"/><path d="M237,71L154,67L168,-187Z" fill="rgb(75, 80, 82)" fill-opacity="0.83"/><path d="M211,329L214,21L244,122Z" fill="rgb(21, 21, 19)" fill-opacity="0.46"/><path d="M284,136L232,79L262,-15Z" fill="rgb(254, 255, 253)" fill-opacity="0.28"/><path d="M242,172L265,177L242,234Z" fill="rgb(180, 190, 190)" fill-opacity="0.42"/><path d="M288,260L252,278L257,281Z" fill="rgb(233, 243, 251)" fill-opacity="0.48"/><path d="M206,68L205,85L218,78Z" fill="rgb(248, 254, 255)" fill-opacity="0.50"/><path d="M211,-7L266,-58L260,45Z" fill="rgb(224, 225, 225)" fill-opacity="0.81"/><path d="M251,148L243,101L310,158Z" fill="rgb(189, 192, 189)" fill-opacity="0.41"/><path d="M344,-38L288,145L423,1Z" fill="rgb(65, 68, 70)" fill-opacity="0.64"/><path d="M308,248L298,250L251,284Z" fill="rgb(189, 198, 203)" fill-opacity="0.48"/><path d="M225,130L262,167L239,174Z" fill="rgb(56, 56, 55)" fill-opacity="0.65"/><path d="M296,360L737,337L498,-10Z" fill="rgb(14, 10, 0)" fill-opacity="0.84"/><path d="M235,144L313,227L314,146Z" fill="rgb(116, 118, 117)" fill-opacity="0.49"/><path d="M247,147L260,51L297,96Z" fill="rgb(173, 176, 176)" fill-opacity="0.45"/><path d="M249,58L241,21L177,78Z" fill="rgb(67, 72, 75)" fill-opacity="0.59"/><path d="M306,73L316,67L266,63Z" fill="rgb(51, 52, 50)" fill-opacity="0.64"/><path d="M437,133L263,129L262,132Z" fill="rgb(43, 43, 41)" fill-opacity="0.85"/><path d="M194,174L195,190L195,100Z" fill="rgb(219, 240, 251)" fill-opacity="0.56"/><path d="M199,104L216,98L190,101Z" fill="rgb(167, 181, 188)" fill-opacity="0.62"/><path d="M294,92L321,66L320,93Z" fill="rgb(39, 37, 33)" fill-opacity="0.66"/><path d="M61,88L278,391L-609,234Z" fill="rgb(18, 14, 5)" fill-opacity="0.93"/><path d="M255,291L279,184L253,192Z" fill="rgb(49, 48, 46)" fill-opacity="0.62"/><path d="M199,66L235,61L276,61Z" fill="rgb(242, 254, 251)" fill-opacity="0.43"/><path d="M347,67L265,60L298,-38Z" fill="rgb(131, 141, 145)" fill-opacity="0.38"/><path d="M248,81L224,161L235,82Z" fill="rgb(55, 56, 57)" fill-opacity="0.50"/><path d="M344,235L458,-96L327,102Z" fill="rgb(39, 40, 40)" fill-opacity="0.76"/><path d="M203,243L265,286L206,250Z" fill="rgb(135, 146, 153)" fill-opacity="0.53"/><path d="M288,-14L279,62L304,10Z" fill="rgb(154, 159, 162)" fill-opacity="0.80"/><path d="M275,103L236,127L274,167Z" fill="rgb(215, 218, 219)" fill-opacity="0.15"/><path d="M299,72L278,77L304,100Z" fill="rgb(59, 59, 55)" fill-opacity="0.55"/><path d="M220,13L221,-117L167,21Z" fill="rgb(250, 241, 244)" fill-opacity="0.11"/><path d="M245,217L229,145L154,280Z" fill="rgb(28, 27, 23)" fill-opacity="0.59"/><path d="M242,193L280,178L243,171Z" fill="rgb(168, 173, 172)" fill-opacity="0.43"/><path d="M247,8L280,79L249,59Z" fill="rgb(253, 253, 251)" fill-opacity="0.31"/><path d="M193,89L-84,-134L194,152Z" fill="rgb(43, 43, 44)" fill-opacity="0.86"/><path d="M343,226L291,137L318,114Z" fill="rgb(65, 66, 65)" fill-opacity="0.70"/><path d="M279,65L266,75L281,73Z" fill="rgb(253, 250, 244)" fill-opacity="0.39"/><path d="M298,99L276,79L319,105Z" fill="rgb(190, 192, 189)" fill-opacity="0.41"/><path d="M269,117L300,130L300,91Z" fill="rgb(125, 127, 126)" fill-opacity="0.77"/><path d="M282,172L279,171L282,194Z" fill="rgb(22, 20, 13)" fill-opacity="0.66"/><path d="M168,44L195,47L176,63Z" fill="rgb(108, 122, 128)" fill-opacity="0.51"/><path d="M303,65L248,61L281,61Z" fill="rgb(247, 252, 251)" fill-opacity="0.45"/><path d="M228,106L265,112L236,116Z" fill="rgb(84, 89, 90)" fill-opacity="0.67"/><path d="M248,73L238,66L226,77Z" fill="rgb(255, 255, 255)" fill-opacity="0.34"/><path d="M248,74L284,63L261,63Z" fill="rgb(37, 45, 53)" fill-opacity="0.23"/><path d="M212,109L213,241L199,164Z" fill="rgb(58, 64, 67)" fill-opacity="0.59"/><path d="M202,76L201,82L218,66Z" fill="rgb(247, 247, 247)" fill-opacity="0.34"/><path d="M311,242L410,274L84,476Z" fill="rgb(24, 23, 20)" fill-opacity="0.42"/><path d="M220,82L235,144L206,85Z" fill="rgb(51, 53, 54)" fill-opacity="0.88"/><path d="M242,296L308,302L335,227Z" fill="rgb(43, 43, 41)" fill-opacity="0.98"/><path d="M275,241L263,228L211,249Z" fill="rgb(26, 24, 21)" fill-opacity="0.55"/><path d="M248,282L279,264L247,254Z" fill="rgb(68, 72, 77)" fill-opacity="0.42"/><path d="M255,230L242,188L243,235Z" fill="rgb(88, 94, 93)" fill-opacity="0.89"/><path d="M308,249L303,182L251,193Z" fill="rgb(101, 104, 105)" fill-opacity="0.25"/><path d="M310,190L288,137L300,201Z" fill="rgb(113, 114, 113)" fill-opacity="0.58"/><path d="M194,111L194,226L196,174Z" fill="rgb(187, 211, 227)" fill-opacity="0.29"/><path d="M296,142L275,119L278,137Z" fill="rgb(44, 43, 36)" fill-opacity="0.26"/><path d="M346,66L359,-121L319,89Z" fill="rgb(76, 81, 80)" fill-opacity="0.59"/><path d="M150,-16L229,12L208,-10Z" fill="rgb(128, 131, 133)" fill-opacity="0.80"/><path d="M356,-23L318,40L316,5Z" fill="rgb(93, 100, 102)" fill-opacity="0.50"/><path d="M241,268L263,285L229,265Z" fill="rgb(113, 121, 124)" fill-opacity="0.49"/><path d="M232,83L227,78L212,100Z" fill="rgb(114, 124, 128)" fill-opacity="0.53"/><path d="M319,101L292,97L318,105Z" fill="rgb(147, 150, 152)" fill-opacity="0.75"/><path d="M175,94L68,177L217,361Z" fill="rgb(25, 22, 18)" fill-opacity="0.69"/><path d="M278,81L238,68L318,86Z" fill="rgb(93, 96, 97)" fill-opacity="0.43"/><path d="M279,172L267,181L261,171Z" fill="rgb(148, 151, 150)" fill-opacity="0.64"/><path d="M152,130L168,79L218,15Z" fill="rgb(34, 35, 34)" fill-opacity="0.37"/><path d="M301,104L289,81L309,81Z" fill="rgb(46, 46, 43)" fill-opacity="0.44"/><path d="M260,138L269,136L292,141Z" fill="rgb(239, 239, 236)" fill-opacity="0.54"/><path d="M241,96L266,104L248,86Z" fill="rgb(51, 63, 68)" fill-opacity="0.19"/><path d="M-2,1L177,190L-65,69Z" fill="rgb(26, 23, 20)" fill-opacity="0.74"/><path d="M302,82L309,76L297,69Z" fill="rgb(233, 231, 228)" fill-opacity="0.40"/><path d="M317,104L318,145L317,200Z" fill="rgb(206, 213, 216)" fill-opacity="0.69"/><path d="M257,277L239,263L268,270Z" fill="rgb(44, 43, 42)" fill-opacity="0.86"/><path d="M258,98L240,118L243,125Z" fill="rgb(125, 132, 133)" fill-opacity="0.67"/><path d="M237,80L275,80L251,77Z" fill="rgb(242, 243, 243)" fill-opacity="0.58"/><path d="M337,108L314,110L298,101Z" fill="rgb(43, 42, 40)" fill-opacity="0.83"/><path d="M157,296L320,320L231,465Z" fill="rgb(23, 20, 13)" fill-opacity="0.82"/><path d="M213,254L206,246L238,267Z" fill="rgb(143, 156, 160)" fill-opacity="0.32"/><path d="M106,-79L249,31L65,66Z" fill="rgb(70, 72, 84)" fill-opacity="0.15"/><path d="M201,89L222,87L172,104Z" fill="rgb(19, 18, 14)" fill-opacity="0.60"/><path d="M235,63L279,93L250,63Z" fill="rgb(65, 76, 85)" fill-opacity="0.19"/><path d="M200,59L204,81L213,39Z" fill="rgb(44, 44, 45)" fill-opacity="0.44"/><path d="M225,85L247,64L230,86Z" fill="rgb(127, 132, 134)" fill-opacity="0.90"/><path d="M165,90L138,51L177,53Z" fill="rgb(66, 73, 77)" fill-opacity="0.49"/><path d="M368,291L354,117L561,-88Z" fill="rgb(24, 24, 22)" fill-opacity="0.54"/><path d="M298,96L300,120L300,110Z" fill="rgb(229, 231, 232)" fill-opacity="0.46"/><path d="M306,191L271,148L287,142Z" fill="rgb(109, 110, 109)" fill-opacity="0.64"/><path d="M286,64L261,50L303,21Z" fill="rgb(144, 148, 152)" fill-opacity="0.42"/><path d="M258,185L271,247L270,201Z" fill="rgb(45, 45, 42)" fill-opacity="0.37"/><path d="M268,65L264,69L274,82Z" fill="rgb(254, 251, 248)" fill-opacity="0.34"/><path d="M236,-24L246,31L231,14Z" fill="rgb(202, 203, 205)" fill-opacity="0.92"/><path d="M250,137L260,181L229,145Z" fill="rgb(71, 73, 72)" fill-opacity="0.36"/><path d="M319,68L298,66L322,76Z" fill="rgb(43, 41, 38)" fill-opacity="0.58"/><path d="M226,143L261,178L224,154Z" fill="rgb(49, 48, 47)" fill-opacity="0.60"/><path d="M244,209L276,196L242,193Z" fill="rgb(100, 106, 107)" fill-opacity="0.46"/><path d="M314,107L318,104L314,152Z" fill="rgb(12, 9, 1)" fill-opacity="0.57"/><path d="M216,98L207,98L205,103Z" fill="rgb(187, 198, 204)" fill-opacity="0.50"/><path d="M227,70L235,72L234,77Z" fill="rgb(254, 254, 252)" fill-opacity="0.46"/><path d="M246,63L269,63L250,-35Z" fill="rgb(239, 240, 238)" fill-opacity="0.25"/><path d="M296,94L287,85L276,80Z" fill="rgb(244, 243, 242)" fill-opacity="0.62"/><path d="M215,57L232,19L213,10Z" fill="rgb(78, 81, 82)" fill-opacity="0.56"/><path d="M318,197L317,87L317,229Z" fill="rgb(190, 198, 202)" fill-opacity="0.51"/><path d="M319,241L322,156L375,189Z" fill="rgb(73, 80, 83)" fill-opacity="0.18"/><path d="M233,81L226,64L206,66Z" fill="rgb(60, 63, 65)" fill-opacity="0.91"/><path d="M272,165L264,159L282,178Z" fill="rgb(72, 74, 73)" fill-opacity="0.51"/><path d="M209,68L206,79L213,77Z" fill="rgb(242, 244, 243)" fill-opacity="0.52"/><path d="M254,296L282,288L310,268Z" fill="rgb(68, 69, 71)" fill-opacity="0.51"/><path d="M301,152L290,141L281,138Z" fill="rgb(254, 252, 249)" fill-opacity="0.38"/><path d="M242,78L249,71L244,70Z" fill="rgb(252, 253, 251)" fill-opacity="0.49"/><path d="M236,297L290,290L237,292Z" fill="rgb(80, 80, 79)" fill-opacity="0.37"/><path d="M307,215L339,241L321,286Z" fill="rgb(39, 39, 39)" fill-opacity="0.52"/><path d="M304,68L332,102L309,78Z" fill="rgb(43, 42, 40)" fill-opacity="0.56"/><path d="M241,176L253,171L253,196Z" fill="rgb(152, 158, 158)" fill-opacity="0.67"/><path d="M231,94L189,107L235,141Z" fill="rgb(36, 38, 38)" fill-opacity="0.29"/><path d="M442,-110L318,180L319,111Z" fill="rgb(48, 48, 48)" fill-opacity="0.68"/><path d="M194,154L187,109L99,113Z" fill="rgb(33, 33, 30)" fill-opacity="0.74"/><path d="M295,65L279,63L283,83Z" fill="rgb(76, 79, 78)" fill-opacity="0.74"/><path d="M203,86L276,69L200,84Z" fill="rgb(120, 128, 132)" fill-opacity="0.51"/><path d="M239,135L269,165L262,161Z" fill="rgb(165, 170, 170)" fill-opacity="0.46"/><path d="M245,58L249,42L229,11Z" fill="rgb(116, 125, 127)" fill-opacity="0.35"/><path d="M288,261L315,234L308,247Z" fill="rgb(205, 233, 248)" fill-opacity="0.20"/><path d="M264,130L275,144L289,156Z" fill="rgb(173, 175, 174)" fill-opacity="0.54"/><path d="M283,98L283,100L315,130Z" fill="rgb(77, 79, 78)" fill-opacity="0.78"/><path d="M213,26L182,71L209,40Z" fill="rgb(57, 59, 60)" fill-opacity="0.71"/><path d="M267,240L296,199L308,244Z" fill="rgb(58, 58, 58)" fill-opacity="0.39"/><path d="M259,145L251,134L307,193Z" fill="rgb(189, 191, 190)" fill-opacity="0.37"/><path d="M203,58L246,61L217,30Z" fill="rgb(60, 62, 63)" fill-opacity="0.55"/><path d="M295,97L305,102L318,102Z" fill="rgb(162, 164, 165)" fill-opacity="0.79"/><path d="M233,75L238,75L234,77Z" fill="rgb(232, 233, 232)" fill-opacity="0.79"/><path d="M243,80L237,79L224,86Z" fill="rgb(209, 213, 218)" fill-opacity="0.47"/><path d="M238,178L249,168L220,161Z" fill="rgb(44, 42, 40)" fill-opacity="0.62"/><path d="M214,70L201,83L211,70Z" fill="rgb(236, 240, 240)" fill-opacity="0.45"/><path d="M310,67L301,66L297,75Z" fill="rgb(63, 63, 61)" fill-opacity="0.87"/><path d="M269,198L272,203L254,190Z" fill="rgb(50, 48, 47)" fill-opacity="0.58"/><path d="M202,84L202,70L204,86Z" fill="rgb(179, 184, 188)" fill-opacity="0.52"/><path d="M288,176L273,160L261,151Z" fill="rgb(76, 75, 78)" fill-opacity="0.51"/><path d="M298,162L276,142L273,136Z" fill="rgb(36, 39, 36)" fill-opacity="0.32"/><path d="M222,75L225,86L212,79Z" fill="rgb(68, 74, 76)" fill-opacity="0.69"/><path d="M218,68L214,80L212,77Z" fill="rgb(111, 115, 116)" fill-opacity="0.99"/><path d="M290,295L315,321L362,301Z" fill="rgb(25, 22, 16)" fill-opacity="0.70"/><path d="M225,-18L217,27L214,-12Z" fill="rgb(190, 191, 190)" fill-opacity="0.24"/><path d="M244,164L254,140L257,143Z" fill="rgb(82, 85, 85)" fill-opacity="0.51"/><path d="M247,201L253,234L253,202Z" fill="rgb(90, 96, 95)" fill-opacity="0.93"/><path d="M256,66L269,78L246,78Z" fill="rgb(139, 144, 146)" fill-opacity="1.00"/><path d="M234,71L221,71L240,62Z" fill="rgb(63, 68, 70)" fill-opacity="0.55"/><path d="M313,163L317,108L317,256Z" fill="rgb(17, 13, 7)" fill-opacity="0.55"/><path d="M292,103L271,80L299,108Z" fill="rgb(91, 96, 95)" fill-opacity="0.67"/><path d="M244,230L213,112L212,179Z" fill="rgb(27, 24, 20)" fill-opacity="0.51"/><path d="M299,62L339,6L329,73Z" fill="rgb(101, 107, 108)" fill-opacity="0.33"/><path d="M267,13L298,11L266,56Z" fill="rgb(178, 182, 185)" fill-opacity="0.48"/><path d="M208,76L204,71L214,70Z" fill="rgb(227, 229, 228)" fill-opacity="0.63"/><path d="M252,231L262,201L273,222Z" fill="rgb(40, 40, 37)" fill-opacity="0.56"/><path d="M246,64L239,63L243,71Z" fill="rgb(64, 76, 80)" fill-opacity="0.50"/><path d="M270,273L253,281L286,258Z" fill="rgb(166, 172, 177)" fill-opacity="0.49"/><path d="M259,206L267,201L251,207Z" fill="rgb(12, 8, 1)" fill-opacity="0.55"/><path d="M320,144L320,232L318,230Z" fill="rgb(20, 16, 11)" fill-opacity="0.67"/><path d="M156,249L242,177L242,204Z" fill="rgb(28, 25, 20)" fill-opacity="0.41"/><path d="M291,255L268,273L299,254Z" fill="rgb(229, 238, 243)" fill-opacity="0.23"/><path d="M273,171L244,183L265,188Z" fill="rgb(148, 152, 151)" fill-opacity="0.67"/><path d="M238,266L190,233L252,234Z" fill="rgb(27, 25, 21)" fill-opacity="1.00"/><path d="M263,105L276,118L263,121Z" fill="rgb(213, 212, 212)" fill-opacity="0.41"/><path d="M276,65L274,66L274,72Z" fill="rgb(34, 39, 37)" fill-opacity="0.64"/><path d="M299,169L270,140L299,171Z" fill="rgb(58, 60, 60)" fill-opacity="0.67"/><path d="M309,128L295,83L302,116Z" fill="rgb(66, 67, 65)" fill-opacity="0.70"/><path d="M147,383L-1,62L-67,333Z" fill="rgb(14, 10, 0)" fill-opacity="0.71"/><path d="M276,1L274,-54L251,39Z" fill="rgb(212, 213, 215)" fill-opacity="0.47"/><path d="M219,96L193,102L191,106Z" fill="rgb(191, 207, 219)" fill-opacity="0.26"/><path d="M283,179L280,172L280,190Z" fill="rgb(10, 7, 1)" fill-opacity="0.56"/><path d="M217,9L196,12L180,-19Z" fill="rgb(113, 116, 116)" fill-opacity="0.53"/><path d="M182,58L169,73L204,89Z" fill="rgb(42, 46, 48)" fill-opacity="0.47"/><path d="M299,76L308,76L303,71Z" fill="rgb(255, 255, 252)" fill-opacity="0.59"/><path d="M294,64L294,74L275,66Z" fill="rgb(65, 67, 66)" fill-opacity="0.50"/><path d="M201,138L212,143L212,131Z" fill="rgb(78, 92, 92)" fill-opacity="0.56"/><path d="M203,60L210,67L216,54Z" fill="rgb(51, 52, 56)" fill-opacity="0.70"/><path d="M306,281L276,291L318,265Z" fill="rgb(27, 24, 21)" fill-opacity="0.60"/><path d="M272,70L272,63L266,64Z" fill="rgb(110, 117, 121)" fill-opacity="0.71"/><path d="M420,79L458,542L584,52Z" fill="rgb(13, 9, 0)" fill-opacity="0.44"/><path d="M263,139L280,156L267,145Z" fill="rgb(75, 83, 83)" fill-opacity="0.45"/><path d="M275,212L284,217L265,198Z" fill="rgb(111, 113, 114)" fill-opacity="0.53"/><path d="M342,216L344,175L303,269Z" fill="rgb(50, 52, 52)" fill-opacity="0.70"/><path d="M283,121L245,80L292,128Z" fill="rgb(206, 206, 206)" fill-opacity="0.44"/><path d="M253,80L250,111L274,82Z" fill="rgb(145, 150, 152)" fill-opacity="0.39"/><path d="M445,118L332,322L335,244Z" fill="rgb(27, 25, 21)" fill-opacity="0.64"/><path d="M262,124L263,111L263,133Z" fill="rgb(0, 6, 4)" fill-opacity="0.59"/><path d="M202,67L199,67L199,65Z" fill="rgb(191, 195, 195)" fill-opacity="0.70"/><path d="M239,71L240,60L236,72Z" fill="rgb(249, 253, 252)" fill-opacity="0.46"/><path d="M295,71L297,75L297,66Z" fill="rgb(246, 243, 242)" fill-opacity="0.35"/><path d="M215,65L236,63L218,82Z" fill="rgb(58, 61, 63)" fill-opacity="0.81"/><path d="M240,74L242,74L204,98Z" fill="rgb(63, 68, 70)" fill-opacity="0.63"/><path d="M297,180L297,200L272,219Z" fill="rgb(78, 78, 78)" fill-opacity="0.77"/><path d="M225,25L222,43L244,27Z" fill="rgb(99, 106, 108)" fill-opacity="0.64"/><path d="M294,79L259,77L327,88Z" fill="rgb(83, 84, 84)" fill-opacity="0.61"/><path d="M296,183L269,158L294,184Z" fill="rgb(63, 60, 61)" fill-opacity="0.58"/><path d="M253,140L280,137L263,137Z" fill="rgb(252, 253, 251)" fill-opacity="0.41"/><path d="M238,292L256,282L208,251Z" fill="rgb(24, 22, 18)" fill-opacity="0.69"/><path d="M259,62L278,62L293,64Z" fill="rgb(252, 254, 253)" fill-opacity="0.45"/><path d="M307,78L305,76L321,77Z" fill="rgb(45, 43, 40)" fill-opacity="0.51"/><path d="M238,150L246,130L244,81Z" fill="rgb(95, 102, 103)" fill-opacity="0.51"/><path d="M283,84L298,102L288,93Z" fill="rgb(99, 102, 102)" fill-opacity="0.58"/><path d="M310,188L279,154L272,149Z" fill="rgb(53, 52, 54)" fill-opacity="0.38"/><path d="M213,232L208,231L208,215Z" fill="rgb(62, 67, 68)" fill-opacity="0.73"/><path d="M296,148L291,144L298,165Z" fill="rgb(111, 112, 111)" fill-opacity="1.00"/><path d="M309,83L311,69L312,88Z" fill="rgb(173, 172, 169)" fill-opacity="0.28"/><path d="M266,-11L210,-4L230,10Z" fill="rgb(209, 210, 211)" fill-opacity="0.74"/><path d="M286,231L294,237L277,220Z" fill="rgb(19, 17, 15)" fill-opacity="0.53"/><path d="M178,146L161,97L180,76Z" fill="rgb(35, 35, 33)" fill-opacity="0.88"/><path d="M320,69L320,87L309,79Z" fill="rgb(38, 36, 33)" fill-opacity="0.64"/><path d="M228,63L245,61L284,63Z" fill="rgb(242, 248, 243)" fill-opacity="0.96"/><path d="M244,86L232,83L254,99Z" fill="rgb(91, 96, 98)" fill-opacity="0.68"/><path d="M331,187L321,218L321,148Z" fill="rgb(77, 81, 80)" fill-opacity="0.48"/><path d="M280,82L267,78L243,78Z" fill="rgb(255, 254, 251)" fill-opacity="0.50"/><path d="M314,243L301,256L320,229Z" fill="rgb(16, 14, 8)" fill-opacity="0.55"/><path d="M359,61L339,49L320,122Z" fill="rgb(58, 61, 63)" fill-opacity="0.42"/><path d="M271,318L247,321L254,289Z" fill="rgb(32, 30, 26)" fill-opacity="0.80"/><path d="M255,194L263,194L260,203Z" fill="rgb(116, 123, 125)" fill-opacity="0.62"/><path d="M217,77L206,74L205,77Z" fill="rgb(242, 243, 241)" fill-opacity="0.57"/><path d="M363,-9L330,-19L347,57Z" fill="rgb(67, 66, 67)" fill-opacity="0.45"/><path d="M234,69L241,79L207,42Z" fill="rgb(80, 85, 87)" fill-opacity="0.82"/><path d="M205,247L207,247L205,234Z" fill="rgb(63, 68, 68)" fill-opacity="0.48"/><path d="M289,87L314,90L319,94Z" fill="rgb(14, 10, 3)" fill-opacity="0.51"/><path d="M329,96L294,89L305,99Z" fill="rgb(68, 71, 70)" fill-opacity="0.85"/><path d="M260,186L242,181L250,199Z" fill="rgb(127, 134, 134)" fill-opacity="0.59"/><path d="M242,141L265,151L255,143Z" fill="rgb(122, 128, 128)" fill-opacity="0.86"/><path d="M263,115L261,110L251,110Z" fill="rgb(56, 62, 61)" fill-opacity="0.55"/><path d="M417,55L319,132L371,221Z" fill="rgb(36, 38, 36)" fill-opacity="0.39"/><path d="M314,147L314,193L295,138Z" fill="rgb(74, 75, 74)" fill-opacity="0.81"/><path d="M245,35L265,-9L250,-42Z" fill="rgb(236, 236, 233)" fill-opacity="0.52"/><path d="M301,207L315,214L311,236Z" fill="rgb(66, 71, 71)" fill-opacity="0.65"/><path d="M253,172L253,179L242,174Z" fill="rgb(171, 176, 177)" fill-opacity="0.67"/><path d="M282,269L262,279L312,245Z" fill="rgb(23, 21, 16)" fill-opacity="0.78"/><path d="M209,223L197,206L197,159Z" fill="rgb(15, 14, 8)" fill-opacity="0.53"/><path d="M242,168L301,229L295,225Z" fill="rgb(106, 109, 109)" fill-opacity="0.87"/><path d="M275,86L289,100L282,96Z" fill="rgb(208, 209, 208)" fill-opacity="0.46"/><path d="M215,68L215,85L217,82Z" fill="rgb(246, 253, 255)" fill-opacity="0.29"/><path d="M109,-10L128,54L77,-7Z" fill="rgb(51, 51, 54)" fill-opacity="0.73"/><path d="M228,85L249,100L233,83Z" fill="rgb(72, 75, 77)" fill-opacity="0.68"/><path d="M222,61L245,61L201,67Z" fill="rgb(211, 242, 255)" fill-opacity="0.19"/><path d="M281,174L266,155L252,144Z" fill="rgb(181, 183, 182)" fill-opacity="0.35"/><path d="M118,-17L163,73L159,-29Z" fill="rgb(62, 65, 68)" fill-opacity="0.72"/><path d="M298,26L313,4L294,-101Z" fill="rgb(133, 138, 142)" fill-opacity="0.70"/><path d="M215,34L208,47L224,1Z" fill="rgb(103, 108, 110)" fill-opacity="0.68"/><path d="M305,269L308,251L261,284Z" fill="rgb(55, 57, 60)" fill-opacity="0.44"/><path d="M307,236L260,192L293,226Z" fill="rgb(41, 41, 38)" fill-opacity="0.49"/><path d="M288,148L302,164L277,138Z" fill="rgb(189, 190, 189)" fill-opacity="0.41"/><path d="M288,215L282,207L301,226Z" fill="rgb(33, 31, 30)" fill-opacity="0.56"/><path d="M294,84L300,82L295,77Z" fill="rgb(131, 130, 130)" fill-opacity="0.50"/><path d="M311,65L313,67L309,67Z" fill="rgb(185, 189, 187)" fill-opacity="0.49"/><path d="M205,52L185,71L214,33Z" fill="rgb(95, 106, 110)" fill-opacity="0.50"/><path d="M241,89L280,130L281,128Z" fill="rgb(197, 199, 199)" fill-opacity="0.38"/><path d="M263,291L254,292L265,292Z" fill="rgb(148, 149, 148)" fill-opacity="0.49"/><path d="M215,256L165,216L211,316Z" fill="rgb(31, 28, 24)" fill-opacity="0.74"/><path d="M305,62L280,63L283,60Z" fill="rgb(153, 161, 169)" fill-opacity="0.68"/><path d="M259,278L243,273L255,281Z" fill="rgb(134, 140, 144)" fill-opacity="0.50"/><path d="M287,141L291,142L299,150Z" fill="rgb(255, 255, 254)" fill-opacity="0.40"/><path d="M252,236L246,234L273,259Z" fill="rgb(16, 11, 6)" fill-opacity="0.43"/><path d="M299,152L301,103L314,107Z" fill="rgb(66, 68, 67)" fill-opacity="0.89"/><path d="M286,240L255,211L291,248Z" fill="rgb(31, 30, 28)" fill-opacity="0.65"/><path d="M301,80L315,83L305,77Z" fill="rgb(243, 244, 247)" fill-opacity="0.18"/><path d="M455,3L417,-47L412,46Z" fill="rgb(38, 41, 45)" fill-opacity="0.41"/><path d="M277,301L296,287L276,294Z" fill="rgb(28, 25, 20)" fill-opacity="0.59"/><path d="M281,89L290,95L275,80Z" fill="rgb(195, 195, 193)" fill-opacity="0.52"/><path d="M314,226L316,230L314,133Z" fill="rgb(25, 23, 18)" fill-opacity="0.97"/><path d="M216,100L177,115L197,104Z" fill="rgb(32, 33, 31)" fill-opacity="0.66"/><path d="M212,230L214,197L247,239Z" fill="rgb(23, 21, 16)" fill-opacity="0.52"/><path d="M224,35L200,74L223,11Z" fill="rgb(63, 65, 66)" fill-opacity="0.70"/><path d="M299,175L300,149L300,212Z" fill="rgb(154, 157, 158)" fill-opacity="0.64"/><path d="M235,53L247,61L241,39Z" fill="rgb(90, 97, 99)" fill-opacity="0.95"/><path d="M300,133L298,134L269,102Z" fill="rgb(56, 56, 53)" fill-opacity="0.38"/><path d="M8,38L102,-49L61,124Z" fill="rgb(38, 36, 37)" fill-opacity="0.35"/><path d="M300,163L300,146L299,162Z" fill="rgb(165, 166, 163)" fill-opacity="0.42"/><path d="M194,230L195,109L194,111Z" fill="rgb(170, 187, 195)" fill-opacity="0.38"/><path d="M291,99L280,90L300,110Z" fill="rgb(58, 60, 60)" fill-opacity="0.43"/><path d="M268,85L296,113L263,83Z" fill="rgb(211, 211, 210)" fill-opacity="0.37"/><path d="M214,18L177,27L159,-7Z" fill="rgb(92, 97, 96)" fill-opacity="0.52"/><path d="M262,194L251,194L258,192Z" fill="rgb(11, 5, 1)" fill-opacity="0.49"/><path d="M352,-5L329,-45L323,23Z" fill="rgb(85, 93, 91)" fill-opacity="0.35"/><path d="M194,104L203,99L213,100Z" fill="rgb(151, 161, 166)" fill-opacity="0.77"/><path d="M297,96L299,103L290,87Z" fill="rgb(229, 229, 228)" fill-opacity="0.46"/><path d="M230,119L235,121L250,138Z" fill="rgb(53, 54, 54)" fill-opacity="0.44"/><path d="M218,62L213,71L234,79Z" fill="rgb(56, 59, 60)" fill-opacity="0.58"/><path d="M195,154L207,121L195,107Z" fill="rgb(38, 41, 41)" fill-opacity="0.56"/><path d="M197,97L207,52L187,101Z" fill="rgb(32, 35, 35)" fill-opacity="0.39"/><path d="M393,112L452,91L564,-83Z" fill="rgb(24, 22, 18)" fill-opacity="0.63"/><path d="M291,154L280,145L302,168Z" fill="rgb(64, 64, 64)" fill-opacity="0.54"/><path d="M242,238L256,237L238,232Z" fill="rgb(14, 10, 0)" fill-opacity="0.55"/><path d="M167,77L165,42L182,57Z" fill="rgb(80, 92, 94)" fill-opacity="0.41"/><path d="M275,188L264,188L290,183Z" fill="rgb(17, 13, 7)" fill-opacity="0.53"/><path d="M342,34L297,-31L341,55Z" fill="rgb(103, 113, 114)" fill-opacity="0.23"/><path d="M383,270L460,160L412,90Z" fill="rgb(23, 22, 16)" fill-opacity="0.40"/><path d="M187,45L192,49L182,57Z" fill="rgb(116, 127, 132)" fill-opacity="0.49"/><path d="M288,189L288,200L286,198Z" fill="rgb(126, 126, 129)" fill-opacity="0.53"/><path d="M201,319L161,248L269,324Z" fill="rgb(27, 23, 18)" fill-opacity="0.59"/><path d="M278,76L293,78L269,73Z" fill="rgb(117, 120, 120)" fill-opacity="0.55"/><path d="M260,138L260,132L275,132Z" fill="rgb(169, 171, 171)" fill-opacity="0.97"/><path d="M250,139L249,96L247,140Z" fill="rgb(129, 134, 136)" fill-opacity="1.00"/><path d="M303,153L276,121L258,103Z" fill="rgb(86, 89, 89)" fill-opacity="0.50"/><path d="M196,46L178,45L216,22Z" fill="rgb(68, 72, 73)" fill-opacity="0.84"/><path d="M321,91L320,83L306,86Z" fill="rgb(41, 40, 37)" fill-opacity="0.55"/><path d="M235,268L212,253L261,280Z" fill="rgb(100, 107, 110)" fill-opacity="0.53"/><path d="M240,291L242,281L273,291Z" fill="rgb(29, 27, 23)" fill-opacity="0.83"/><path d="M264,203L299,237L262,197Z" fill="rgb(47, 47, 44)" fill-opacity="0.66"/><path d="M281,248L266,235L285,254Z" fill="rgb(17, 14, 12)" fill-opacity="0.64"/><path d="M299,198L298,200L279,181Z" fill="rgb(43, 41, 41)" fill-opacity="0.60"/><path d="M292,88L293,84L298,90Z" fill="rgb(11, 6, 1)" fill-opacity="0.47"/><path d="M235,103L259,124L230,95Z" fill="rgb(181, 189, 188)" fill-opacity="0.18"/><path d="M277,194L288,180L272,195Z" fill="rgb(97, 96, 98)" fill-opacity="0.50"/><path d="M268,73L263,64L273,74Z" fill="rgb(255, 252, 249)" fill-opacity="0.39"/><path d="M259,133L296,170L277,148Z" fill="rgb(166, 168, 168)" fill-opacity="0.50"/><path d="M154,120L192,159L190,205Z" fill="rgb(22, 21, 16)" fill-opacity="0.61"/><path d="M199,274L-62,57L104,86Z" fill="rgb(25, 22, 17)" fill-opacity="0.36"/><path d="M271,297L289,279L270,291Z" fill="rgb(155, 155, 174)" fill-opacity="0.10"/><path d="M275,189L307,224L271,188Z" fill="rgb(110, 112, 113)" fill-opacity="0.49"/><path d="M303,227L300,221L253,174Z" fill="rgb(131, 135, 135)" fill-opacity="0.31"/><path d="M298,130L267,99L284,113Z" fill="rgb(169, 171, 171)" fill-opacity="0.60"/><path d="M162,111L73,14L141,148Z" fill="rgb(38, 37, 36)" fill-opacity="0.55"/><path d="M382,61L508,-42L399,95Z" fill="rgb(31, 31, 30)" fill-opacity="0.53"/><path d="M269,176L244,183L241,176Z" fill="rgb(155, 160, 160)" fill-opacity="0.73"/><path d="M279,90L263,76L283,96Z" fill="rgb(203, 204, 205)" fill-opacity="0.57"/><path d="M284,207L264,190L288,214Z" fill="rgb(24, 22, 20)" fill-opacity="0.36"/><path d="M207,95L181,104L174,112Z" fill="rgb(57, 66, 69)" fill-opacity="0.72"/><path d="M262,91L283,109L254,80Z" fill="rgb(130, 134, 135)" fill-opacity="0.53"/><path d="M250,146L258,114L250,115Z" fill="rgb(168, 172, 173)" fill-opacity="0.82"/><path d="M308,102L327,110L298,103Z" fill="rgb(29, 26, 23)" fill-opacity="0.59"/><path d="M316,58L299,19L330,25Z" fill="rgb(116, 121, 124)" fill-opacity="0.54"/><path d="M254,233L276,255L270,252Z" fill="rgb(23, 19, 17)" fill-opacity="0.56"/><path d="M249,64L235,63L200,69Z" fill="rgb(63, 68, 71)" fill-opacity="0.64"/><path d="M231,83L234,78L254,79Z" fill="rgb(208, 211, 214)" fill-opacity="0.34"/><path d="M229,111L256,142L229,114Z" fill="rgb(120, 124, 125)" fill-opacity="0.37"/><path d="M217,82L219,74L216,81Z" fill="rgb(47, 50, 51)" fill-opacity="0.71"/><path d="M254,216L285,245L288,251Z" fill="rgb(19, 17, 13)" fill-opacity="0.46"/><path d="M303,19L280,62L267,57Z" fill="rgb(140, 144, 148)" fill-opacity="0.43"/><path d="M250,100L266,119L226,76Z" fill="rgb(68, 74, 74)" fill-opacity="0.40"/><path d="M242,101L254,112L235,86Z" fill="rgb(89, 93, 93)" fill-opacity="0.50"/><path d="M39,-33L-74,62L19,20Z" fill="rgb(26, 22, 19)" fill-opacity="0.58"/><path d="M302,145L301,131L276,136Z" fill="rgb(80, 82, 79)" fill-opacity="0.62"/><path d="M261,176L253,173L256,176Z" fill="rgb(27, 26, 26)" fill-opacity="0.58"/><path d="M239,315L243,293L251,280Z" fill="rgb(32, 30, 26)" fill-opacity="1.00"/><path d="M307,81L303,81L308,75Z" fill="rgb(164, 165, 165)" fill-opacity="0.71"/><path d="M271,170L271,172L265,166Z" fill="rgb(52, 55, 54)" fill-opacity="0.53"/><path d="M292,162L271,139L268,140Z" fill="rgb(79, 83, 83)" fill-opacity="0.38"/><path d="M221,95L238,112L236,113Z" fill="rgb(42, 42, 42)" fill-opacity="0.54"/><path d="M281,194L287,196L281,190Z" fill="rgb(129, 130, 133)" fill-opacity="0.46"/><path d="M293,173L248,128L271,148Z" fill="rgb(177, 180, 179)" fill-opacity="0.45"/><path d="M196,252L206,189L207,235Z" fill="rgb(22, 20, 14)" fill-opacity="0.63"/><path d="M279,108L251,80L267,99Z" fill="rgb(205, 206, 206)" fill-opacity="0.51"/><path d="M318,104L317,138L318,143Z" fill="rgb(188, 196, 201)" fill-opacity="0.51"/><path d="M265,78L272,74L246,73Z" fill="rgb(157, 161, 164)" fill-opacity="0.44"/><path d="M255,291L260,297L257,291Z" fill="rgb(204, 208, 212)" fill-opacity="0.22"/><path d="M276,76L281,71L276,66Z" fill="rgb(255, 255, 252)" fill-opacity="0.52"/><path d="M263,130L274,129L263,111Z" fill="rgb(180, 182, 182)" fill-opacity="0.44"/><path d="M300,127L316,147L278,105Z" fill="rgb(76, 78, 77)" fill-opacity="0.81"/><path d="M213,103L239,132L218,124Z" fill="rgb(44, 44, 43)" fill-opacity="0.77"/><path d="M295,173L277,153L298,174Z" fill="rgb(41, 40, 41)" fill-opacity="0.38"/><path d="M300,158L303,181L302,139Z" fill="rgb(69, 70, 67)" fill-opacity="0.49"/><path d="M283,121L274,114L294,135Z" fill="rgb(58, 57, 54)" fill-opacity="0.45"/><path d="M265,67L270,67L265,79Z" fill="rgb(255, 254, 251)" fill-opacity="0.38"/><path d="M61,248L206,311L70,169Z" fill="rgb(21, 18, 9)" fill-opacity="0.54"/><path d="M302,123L260,81L295,118Z" fill="rgb(72, 76, 76)" fill-opacity="0.44"/><path d="M195,150L209,149L195,185Z" fill="rgb(42, 45, 46)" fill-opacity="0.43"/><path d="M303,72L297,68L322,68Z" fill="rgb(55, 55, 53)" fill-opacity="0.65"/><path d="M280,173L277,185L272,170Z" fill="rgb(128, 132, 131)" fill-opacity="0.71"/><path d="M237,23L239,64L238,20Z" fill="rgb(102, 108, 110)" fill-opacity="0.79"/><path d="M260,177L263,189L248,185Z" fill="rgb(145, 150, 150)" fill-opacity="0.79"/><path d="M260,64L271,63L257,49Z" fill="rgb(252, 254, 255)" fill-opacity="0.20"/><path d="M256,239L256,237L284,268Z" fill="rgb(83, 84, 85)" fill-opacity="0.56"/><path d="M257,281L262,285L270,273Z" fill="rgb(25, 25, 20)" fill-opacity="0.45"/><path d="M295,155L279,137L315,171Z" fill="rgb(64, 65, 63)" fill-opacity="0.43"/><path d="M295,298L313,309L240,307Z" fill="rgb(39, 36, 33)" fill-opacity="0.42"/><path d="M270,77L269,79L266,75Z" fill="rgb(84, 90, 92)" fill-opacity="0.52"/><path d="M259,155L252,150L282,180Z" fill="rgb(163, 166, 166)" fill-opacity="0.52"/><path d="M246,36L250,68L241,24Z" fill="rgb(144, 149, 152)" fill-opacity="0.64"/><path d="M294,144L271,137L279,137Z" fill="rgb(253, 253, 251)" fill-opacity="0.39"/><path d="M256,164L269,175L206,110Z" fill="rgb(58, 59, 60)" fill-opacity="0.52"/><path d="M220,91L196,128L231,83Z" fill="rgb(53, 58, 59)" fill-opacity="0.48"/><path d="M282,296L274,289L302,301Z" fill="rgb(27, 23, 19)" fill-opacity="0.55"/><path d="M191,163L191,233L198,195Z" fill="rgb(93, 126, 152)" fill-opacity="0.10"/><path d="M244,140L248,142L276,170Z" fill="rgb(80, 85, 86)" fill-opacity="0.51"/><path d="M250,294L222,268L252,293Z" fill="rgb(25, 22, 19)" fill-opacity="0.68"/><path d="M205,79L202,52L204,98Z" fill="rgb(43, 47, 49)" fill-opacity="0.51"/><path d="M204,102L188,107L210,104Z" fill="rgb(30, 31, 29)" fill-opacity="0.54"/><path d="M280,86L270,80L275,86Z" fill="rgb(125, 130, 131)" fill-opacity="0.50"/><path d="M265,72L265,65L257,72Z" fill="rgb(131, 135, 138)" fill-opacity="0.66"/><path d="M220,89L234,81L218,92Z" fill="rgb(158, 166, 169)" fill-opacity="0.59"/><path d="M293,174L273,156L299,183Z" fill="rgb(55, 52, 53)" fill-opacity="0.49"/><path d="M190,90L175,94L172,102Z" fill="rgb(28, 29, 25)" fill-opacity="0.66"/><path d="M209,251L237,269L208,247Z" fill="rgb(120, 128, 131)" fill-opacity="0.47"/><path d="M212,73L196,81L210,76Z" fill="rgb(193, 196, 195)" fill-opacity="0.36"/><path d="M272,271L285,261L304,250Z" fill="rgb(233, 238, 241)" fill-opacity="0.22"/><path d="M241,230L242,218L241,172Z" fill="rgb(11, 7, 4)" fill-opacity="0.81"/><path d="M249,264L228,240L261,270Z" fill="rgb(43, 43, 40)" fill-opacity="0.46"/><path d="M290,110L295,105L290,108Z" fill="rgb(182, 184, 183)" fill-opacity="0.43"/><path d="M260,216L269,229L299,259Z" fill="rgb(91, 95, 96)" fill-opacity="0.34"/><path d="M300,179L314,224L314,172Z" fill="rgb(84, 87, 86)" fill-opacity="0.50"/><path d="M231,80L227,66L225,85Z" fill="rgb(64, 72, 73)" fill-opacity="0.53"/><path d="M301,195L303,193L291,183Z" fill="rgb(123, 125, 125)" fill-opacity="0.52"/><path d="M263,192L270,187L263,188Z" fill="rgb(23, 19, 15)" fill-opacity="0.49"/><path d="M261,132L298,129L298,132Z" fill="rgb(9, 4, 0)" fill-opacity="0.40"/><path d="M327,185L350,180L338,201Z" fill="rgb(61, 62, 62)" fill-opacity="0.44"/><path d="M255,71L244,64L261,63Z" fill="rgb(150, 155, 160)" fill-opacity="0.60"/><path d="M283,139L286,142L286,139Z" fill="rgb(252, 251, 249)" fill-opacity="0.55"/><path d="M289,141L259,111L286,135Z" fill="rgb(85, 87, 87)" fill-opacity="0.41"/><path d="M285,101L277,90L264,80Z" fill="rgb(119, 123, 124)" fill-opacity="0.76"/><path d="M294,76L296,87L277,80Z" fill="rgb(74, 77, 75)" fill-opacity="0.81"/><path d="M148,30L163,97L111,25Z" fill="rgb(52, 53, 55)" fill-opacity="0.55"/><path d="M198,140L212,135L195,146Z" fill="rgb(62, 70, 70)" fill-opacity="0.77"/><path d="M124,50L12,24L71,110Z" fill="rgb(34, 34, 34)" fill-opacity="0.31"/><path d="M356,690L661,6L373,289Z" fill="rgb(14, 9, 0)" fill-opacity="0.64"/><path d="M278,172L279,167L289,159Z" fill="rgb(17, 5, 8)" fill-opacity="0.21"/><path d="M258,163L258,160L271,173Z" fill="rgb(155, 157, 159)" fill-opacity="0.60"/><path d="M-221,191L141,302L216,491Z" fill="rgb(14, 10, 0)" fill-opacity="0.58"/><path d="M318,125L337,175L348,166Z" fill="rgb(50, 49, 49)" fill-opacity="0.61"/><path d="M260,213L281,237L252,208Z" fill="rgb(19, 18, 15)" fill-opacity="0.40"/><path d="M248,84L242,80L238,65Z" fill="rgb(250, 255, 255)" fill-opacity="0.20"/><path d="M236,82L245,81L214,104Z" fill="rgb(71, 74, 75)" fill-opacity="0.59"/><path d="M211,84L205,84L213,81Z" fill="rgb(186, 194, 200)" fill-opacity="0.65"/><path d="M276,221L271,224L272,226Z" fill="rgb(111, 120, 119)" fill-opacity="0.44"/><path d="M203,51L125,-51L136,-4Z" fill="rgb(76, 79, 78)" fill-opacity="0.39"/><path d="M200,66L200,64L211,64Z" fill="rgb(10, 6, 3)" fill-opacity="0.46"/><path d="M217,298L220,263L186,237Z" fill="rgb(40, 38, 37)" fill-opacity="0.35"/><path d="M174,256L176,140L80,224Z" fill="rgb(24, 21, 16)" fill-opacity="0.70"/><path d="M262,116L263,114L263,134Z" fill="rgb(33, 39, 38)" fill-opacity="0.57"/><path d="M278,63L332,70L269,63Z" fill="rgb(65, 68, 68)" fill-opacity="0.73"/><path d="M213,161L196,156L212,215Z" fill="rgb(54, 58, 60)" fill-opacity="0.50"/><path d="M263,172L244,151L272,185Z" fill="rgb(134, 137, 137)" fill-opacity="0.47"/><path d="M299,250L248,259L268,269Z" fill="rgb(57, 59, 60)" fill-opacity="1.00"/><path d="M303,283L319,281L286,296Z" fill="rgb(56, 55, 55)" fill-opacity="0.55"/><path d="M276,272L250,284L264,279Z" fill="rgb(26, 24, 19)" fill-opacity="1.00"/><path d="M247,82L271,104L252,84Z" fill="rgb(130, 135, 138)" fill-opacity="0.62"/><path d="M314,75L308,70L311,75Z" fill="rgb(217, 216, 212)" fill-opacity="0.45"/><path d="M597,-62L515,-13L468,97Z" fill="rgb(21, 19, 11)" fill-opacity="0.57"/><path d="M251,94L285,128L261,101Z" fill="rgb(223, 223, 222)" fill-opacity="0.33"/><path d="M222,92L238,109L252,129Z" fill="rgb(90, 94, 95)" fill-opacity="0.82"/><path d="M303,205L285,189L297,203Z" fill="rgb(123, 127, 126)" fill-opacity="0.47"/><path d="M276,80L305,112L273,80Z" fill="rgb(199, 199, 198)" fill-opacity="0.32"/><path d="M275,188L273,191L273,188Z" fill="rgb(177, 177, 179)" fill-opacity="0.51"/><path d="M301,209L280,185L284,192Z" fill="rgb(42, 40, 41)" fill-opacity="0.64"/><path d="M287,297L288,305L281,297Z" fill="rgb(79, 80, 84)" fill-opacity="0.36"/><path d="M320,113L320,80L333,110Z" fill="rgb(59, 60, 61)" fill-opacity="0.61"/><path d="M253,245L239,235L263,259Z" fill="rgb(57, 57, 57)" fill-opacity="0.42"/><path d="M305,129L282,105L270,96Z" fill="rgb(157, 159, 159)" fill-opacity="0.59"/><path d="M185,63L186,59L197,68Z" fill="rgb(77, 85, 88)" fill-opacity="0.75"/><path d="M210,118L214,94L210,195Z" fill="rgb(88, 103, 103)" fill-opacity="0.19"/><path d="M231,76L237,76L230,71Z" fill="rgb(250, 250, 250)" fill-opacity="0.54"/><path d="M286,82L300,76L298,74Z" fill="rgb(61, 62, 60)" fill-opacity="0.64"/><path d="M215,86L219,90L222,87Z" fill="rgb(26, 26, 22)" fill-opacity="0.61"/><path d="M300,134L300,103L314,160Z" fill="rgb(66, 67, 66)" fill-opacity="1.00"/><path d="M250,16L245,39L273,39Z" fill="rgb(225, 227, 225)" fill-opacity="0.27"/><path d="M387,28L462,-54L352,21Z" fill="rgb(51, 49, 50)" fill-opacity="0.48"/><path d="M267,102L255,92L291,128Z" fill="rgb(243, 241, 241)" fill-opacity="0.24"/><path d="M252,162L245,175L250,156Z" fill="rgb(63, 61, 61)" fill-opacity="0.41"/><path d="M251,300L247,292L247,294Z" fill="rgb(99, 103, 104)" fill-opacity="0.49"/><path d="M265,128L267,121L264,115Z" fill="rgb(204, 205, 205)" fill-opacity="0.54"/><path d="M206,66L233,65L185,73Z" fill="rgb(45, 46, 47)" fill-opacity="0.44"/><path d="M242,111L239,111L239,106Z" fill="rgb(54, 57, 58)" fill-opacity="0.72"/><path d="M241,203L281,245L266,232Z" fill="rgb(74, 76, 75)" fill-opacity="0.58"/><path d="M175,35L110,20L108,-61Z" fill="rgb(60, 61, 65)" fill-opacity="0.35"/><path d="M288,91L300,105L291,93Z" fill="rgb(78, 82, 80)" fill-opacity="0.44"/><path d="M301,64L319,88L300,66Z" fill="rgb(55, 54, 52)" fill-opacity="1.00"/><path d="M255,255L280,232L246,259Z" fill="rgb(30, 28, 27)" fill-opacity="0.42"/><path d="M319,173L319,104L321,134Z" fill="rgb(32, 30, 26)" fill-opacity="0.57"/><path d="M385,123L323,243L368,206Z" fill="rgb(38, 37, 35)" fill-opacity="0.43"/><path d="M283,97L310,127L290,107Z" fill="rgb(71, 74, 73)" fill-opacity="0.46"/><path d="M297,139L272,110L246,85Z" fill="rgb(89, 92, 94)" fill-opacity="0.26"/><path d="M236,42L198,63L217,64Z" fill="rgb(59, 62, 65)" fill-opacity="0.85"/><path d="M297,191L290,187L279,173Z" fill="rgb(30, 28, 28)" fill-opacity="0.47"/><path d="M194,117L194,166L170,130Z" fill="rgb(36, 36, 34)" fill-opacity="0.68"/><path d="M281,226L299,246L281,229Z" fill="rgb(87, 89, 90)" fill-opacity="0.48"/><path d="M298,100L300,106L300,116Z" fill="rgb(234, 234, 236)" fill-opacity="0.40"/><path d="M293,214L284,218L305,214Z" fill="rgb(59, 59, 58)" fill-opacity="0.50"/><path d="M178,89L196,91L216,83Z" fill="rgb(52, 58, 59)" fill-opacity="0.82"/><path d="M115,148L90,60L163,146Z" fill="rgb(31, 30, 27)" fill-opacity="0.53"/><path d="M309,228L288,240L303,240Z" fill="rgb(44, 46, 47)" fill-opacity="0.51"/><path d="M262,173L233,145L260,174Z" fill="rgb(59, 59, 59)" fill-opacity="0.60"/><path d="M254,231L253,218L281,256Z" fill="rgb(41, 40, 38)" fill-opacity="0.89"/><path d="M184,292L197,220L179,192Z" fill="rgb(30, 28, 24)" fill-opacity="0.67"/><path d="M258,22L248,48L246,30Z" fill="rgb(225, 227, 225)" fill-opacity="0.50"/><path d="M296,228L299,226L293,228Z" fill="rgb(105, 112, 113)" fill-opacity="0.41"/><path d="M245,103L228,86L237,92Z" fill="rgb(57, 61, 60)" fill-opacity="0.57"/><path d="M271,261L257,247L259,246Z" fill="rgb(92, 93, 94)" fill-opacity="0.45"/><path d="M270,189L268,191L267,189Z" fill="rgb(168, 170, 177)" fill-opacity="0.66"/><path d="M273,95L250,75L287,112Z" fill="rgb(198, 200, 200)" fill-opacity="0.46"/><path d="M241,297L240,299L236,290Z" fill="rgb(81, 87, 91)" fill-opacity="0.37"/><path d="M284,238L301,253L258,210Z" fill="rgb(89, 92, 93)" fill-opacity="0.42"/><path d="M235,80L185,92L224,85Z" fill="rgb(66, 72, 74)" fill-opacity="0.80"/><path d="M302,78L287,77L303,77Z" fill="rgb(74, 75, 74)" fill-opacity="1.00"/><path d="M290,119L297,109L288,118Z" fill="rgb(54, 54, 53)" fill-opacity="0.25"/><path d="M296,200L272,221L296,202Z" fill="rgb(7, 3, 3)" fill-opacity="0.16"/><path d="M288,240L303,244L297,240Z" fill="rgb(77, 83, 87)" fill-opacity="0.52"/><path d="M102,140L100,91L-80,272Z" fill="rgb(13, 12, 0)" fill-opacity="0.20"/><path d="M281,87L276,81L271,70Z" fill="rgb(208, 210, 210)" fill-opacity="0.39"/><path d="M242,220L243,234L255,232Z" fill="rgb(82, 88, 88)" fill-opacity="0.57"/><path d="M242,104L242,106L221,85Z" fill="rgb(46, 48, 49)" fill-opacity="0.56"/><path d="M269,136L294,163L300,166Z" fill="rgb(197, 199, 199)" fill-opacity="0.25"/><path d="M308,184L281,211L289,206Z" fill="rgb(112, 117, 117)" fill-opacity="0.40"/><path d="M294,16L269,43L289,39Z" fill="rgb(158, 163, 166)" fill-opacity="0.57"/><path d="M371,210L361,118L342,134Z" fill="rgb(38, 37, 34)" fill-opacity="0.70"/></svg>