<svg xmlns="http://www.w3.org/2000/svg" viewBox="0 0 512 288" clip-path="url(#clip)" width="1920" height="1080"><defs><clipPath id="clip" clipPathUnits="objectBoundingBox"><rect x="0" y="0" width="512" height="288"/></clipPath></defs><rect x="0" y="0" width="512" height="288" fill="rgb(93, 28, 25)"/><path d="M218,166L54,150L148,499Z" fill="rgb(230, 172, 159)" fill-opacity="0.71"/><path d="M397,753L284,103L450,67Z" fill="rgb(189, 118, 99)" fill-opacity="0.85"/><path d="M288,167L326,216L389,184Z" fill="rgb(255, 244, 228)" fill-opacity="0.77"/><path d="M202,168L-166,203L222,84Z" fill="rgb(175, 82, 65)" fill-opacity="0.71"/><path d="M174,218L224,164L58,216Z" fill="rgb(255, 243, 229)" fill-opacity="0.59"/><path d="M143,249L317,186L126,223Z" fill="rgb(79, 13, 14)" fill-opacity="0.74"/><path d="M396,196L443,195L341,96Z" fill="rgb(255, 203, 157)" fill-opacity="0.50"/><path d="M303,243L203,228L122,239Z" fill="rgb(73, 10, 10)" fill-opacity="0.88"/><path d="M310,232L415,199L413,272Z" fill="rgb(78, 9, 12)" fill-opacity="0.65"/><path d="M212,262L117,269L204,238Z" fill="rgb(255, 213, 202)" fill-opacity="0.47"/><path d="M367,220L362,189L332,212Z" fill="rgb(253, 232, 212)" fill-opacity="0.65"/><path d="M373,155L309,170L149,48Z" fill="rgb(72, 0, 5)" fill-opacity="0.61"/><path d="M364,137L304,132L330,94Z" fill="rgb(236, 172, 137)" fill-opacity="0.81"/><path d="M295,194L399,158L295,171Z" fill="rgb(255, 233, 219)" fill-opacity="0.63"/><path d="M500,105L454,152L547,243Z" fill="rgb(185, 79, 54)" fill-opacity="0.73"/><path d="M362,308L356,240L293,245Z" fill="rgb(220, 163, 149)" fill-opacity="0.80"/><path d="M294,249L290,202L368,221Z" fill="rgb(112, 47, 43)" fill-opacity="1.00"/><path d="M6,135L81,207L117,354Z" fill="rgb(144, 66, 58)" fill-opacity="0.72"/><path d="M408,33L711,206L346,86Z" fill="rgb(141, 38, 13)" fill-opacity="0.47"/><path d="M295,151L216,173L147,145Z" fill="rgb(83, 2, 7)" fill-opacity="0.55"/><path d="M205,208L130,132L112,158Z" fill="rgb(255, 254, 228)" fill-opacity="0.24"/><path d="M106,238L77,199L209,165Z" fill="rgb(240, 201, 186)" fill-opacity="0.51"/><path d="M438,259L355,241L438,397Z" fill="rgb(143, 59, 56)" fill-opacity="0.78"/><path d="M161,295L286,381L302,232Z" fill="rgb(54, 0, 0)" fill-opacity="0.71"/><path d="M206,74L290,78L297,139Z" fill="rgb(61, 3, 3)" fill-opacity="0.81"/><path d="M307,137L377,136L351,161Z" fill="rgb(97, 28, 27)" fill-opacity="0.87"/><path d="M137,86L230,106L164,146Z" fill="rgb(255, 190, 144)" fill-opacity="0.21"/><path d="M147,298L135,246L187,240Z" fill="rgb(237, 190, 182)" fill-opacity="0.65"/><path d="M363,214L312,207L305,168Z" fill="rgb(251, 238, 226)" fill-opacity="0.71"/><path d="M127,184L157,185L117,162Z" fill="rgb(73, 17, 25)" fill-opacity="0.49"/><path d="M371,176L377,199L390,156Z" fill="rgb(98, 39, 48)" fill-opacity="0.46"/><path d="M215,162L196,207L109,226Z" fill="rgb(253, 233, 221)" fill-opacity="0.53"/><path d="M124,-40L352,1L256,71Z" fill="rgb(69, 2, 2)" fill-opacity="0.89"/><path d="M310,150L291,180L271,138Z" fill="rgb(110, 33, 37)" fill-opacity="0.81"/><path d="M257,447L217,232L336,290Z" fill="rgb(57, 4, 4)" fill-opacity="0.90"/><path d="M8,130L-17,211L215,81Z" fill="rgb(144, 45, 33)" fill-opacity="0.59"/><path d="M430,190L417,241L411,187Z" fill="rgb(237, 190, 165)" fill-opacity="0.63"/><path d="M361,185L350,179L368,173Z" fill="rgb(74, 16, 31)" fill-opacity="0.48"/><path d="M429,205L379,181L431,134Z" fill="rgb(255, 198, 153)" fill-opacity="0.40"/><path d="M178,216L225,189L211,250Z" fill="rgb(108, 36, 34)" fill-opacity="0.66"/><path d="M472,179L504,136L466,121Z" fill="rgb(216, 117, 80)" fill-opacity="0.38"/><path d="M295,94L430,125L293,114Z" fill="rgb(215, 130, 87)" fill-opacity="0.77"/><path d="M467,198L445,83L467,1Z" fill="rgb(78, 15, 14)" fill-opacity="0.80"/><path d="M291,235L268,226L373,223Z" fill="rgb(184, 114, 95)" fill-opacity="0.46"/><path d="M174,240L133,225L130,247Z" fill="rgb(80, 0, 0)" fill-opacity="0.70"/><path d="M446,116L416,201L450,174Z" fill="rgb(215, 127, 99)" fill-opacity="0.45"/><path d="M141,139L151,162L228,130Z" fill="rgb(72, 5, 15)" fill-opacity="0.47"/><path d="M213,149L213,199L231,180Z" fill="rgb(134, 39, 36)" fill-opacity="0.74"/><path d="M504,185L666,199L502,255Z" fill="rgb(197, 98, 89)" fill-opacity="0.50"/><path d="M308,240L298,251L340,285Z" fill="rgb(217, 153, 137)" fill-opacity="0.71"/><path d="M381,191L416,198L358,227Z" fill="rgb(135, 57, 53)" fill-opacity="0.84"/><path d="M6,139L-83,345L50,281Z" fill="rgb(49, 0, 0)" fill-opacity="0.43"/><path d="M198,134L217,91L131,137Z" fill="rgb(208, 140, 105)" fill-opacity="0.47"/><path d="M213,173L213,198L195,169Z" fill="rgb(248, 219, 192)" fill-opacity="0.74"/><path d="M138,53L173,100L67,80Z" fill="rgb(127, 38, 31)" fill-opacity="0.73"/><path d="M338,241L293,237L392,227Z" fill="rgb(49, 0, 0)" fill-opacity="0.73"/><path d="M363,176L299,177L370,158Z" fill="rgb(246, 215, 190)" fill-opacity="0.68"/><path d="M442,79L326,31L301,59Z" fill="rgb(154, 50, 25)" fill-opacity="0.59"/><path d="M108,320L82,258L82,325Z" fill="rgb(172, 94, 89)" fill-opacity="1.00"/><path d="M316,173L283,157L373,155Z" fill="rgb(184, 30, 40)" fill-opacity="0.52"/><path d="M204,153L225,168L156,167Z" fill="rgb(171, 40, 37)" fill-opacity="0.64"/><path d="M505,190L479,173L481,424Z" fill="rgb(64, 1, 11)" fill-opacity="0.45"/><path d="M375,252L364,241L332,262Z" fill="rgb(221, 144, 112)" fill-opacity="0.44"/><path d="M-137,149L91,53L187,-202Z" fill="rgb(62, 6, 4)" fill-opacity="0.83"/><path d="M376,154L361,168L381,170Z" fill="rgb(233, 187, 161)" fill-opacity="0.73"/><path d="M200,120L222,184L208,114Z" fill="rgb(97, 30, 30)" fill-opacity="0.75"/><path d="M150,-5L181,43L235,37Z" fill="rgb(148, 1, 1)" fill-opacity="0.54"/><path d="M476,156L428,183L442,209Z" fill="rgb(139, 45, 43)" fill-opacity="0.42"/><path d="M350,159L346,174L369,149Z" fill="rgb(194, 67, 62)" fill-opacity="0.55"/><path d="M134,152L165,165L181,148Z" fill="rgb(148, 13, 14)" fill-opacity="0.60"/><path d="M193,268L207,279L213,240Z" fill="rgb(170, 35, 36)" fill-opacity="0.59"/><path d="M337,170L295,189L296,172Z" fill="rgb(255, 250, 245)" fill-opacity="0.63"/><path d="M362,235L413,283L413,195Z" fill="rgb(64, 0, 0)" fill-opacity="0.30"/><path d="M360,243L321,237L397,235Z" fill="rgb(91, 1, 1)" fill-opacity="0.75"/><path d="M455,176L376,45L348,129Z" fill="rgb(242, 120, 61)" fill-opacity="0.25"/><path d="M330,97L266,59L370,66Z" fill="rgb(55, 0, 1)" fill-opacity="0.56"/><path d="M80,203L81,234L122,163Z" fill="rgb(220, 163, 151)" fill-opacity="0.59"/><path d="M358,-7L346,11L360,7Z" fill="rgb(166, 0, 0)" fill-opacity="0.84"/><path d="M164,195L163,162L190,181Z" fill="rgb(246, 211, 190)" fill-opacity="0.52"/><path d="M402,172L417,192L371,184Z" fill="rgb(243, 206, 170)" fill-opacity="0.58"/><path d="M149,189L133,172L143,168Z" fill="rgb(134, 70, 67)" fill-opacity="0.75"/><path d="M306,113L310,143L188,134Z" fill="rgb(53, 2, 3)" fill-opacity="0.41"/><path d="M359,8L292,15L290,63Z" fill="rgb(128, 6, 5)" fill-opacity="0.52"/><path d="M2,179L87,183L16,198Z" fill="rgb(152, 73, 64)" fill-opacity="0.57"/><path d="M198,189L226,186L203,204Z" fill="rgb(163, 70, 74)" fill-opacity="0.51"/><path d="M314,100L367,83L289,92Z" fill="rgb(170, 0, 0)" fill-opacity="0.52"/><path d="M141,264L52,299L67,214Z" fill="rgb(154, 61, 59)" fill-opacity="0.31"/><path d="M290,174L280,202L303,203Z" fill="rgb(135, 45, 52)" fill-opacity="0.60"/><path d="M495,63L605,-19L300,7Z" fill="rgb(68, 3, 0)" fill-opacity="0.65"/><path d="M145,244L128,231L129,246Z" fill="rgb(175, 0, 0)" fill-opacity="0.44"/><path d="M216,143L202,149L264,145Z" fill="rgb(180, 114, 105)" fill-opacity="0.47"/><path d="M424,257L440,206L437,275Z" fill="rgb(149, 53, 45)" fill-opacity="0.57"/><path d="M108,239L84,214L140,235Z" fill="rgb(215, 147, 131)" fill-opacity="0.72"/><path d="M337,160L373,160L354,146Z" fill="rgb(128, 0, 5)" fill-opacity="0.60"/><path d="M324,286L313,262L274,235Z" fill="rgb(152, 39, 35)" fill-opacity="0.62"/><path d="M316,149L228,145L304,141Z" fill="rgb(160, 104, 101)" fill-opacity="0.49"/><path d="M385,197L376,186L400,188Z" fill="rgb(128, 35, 30)" fill-opacity="0.47"/><path d="M256,140L300,85L216,122Z" fill="rgb(62, 4, 3)" fill-opacity="0.76"/><path d="M248,69L266,53L142,66Z" fill="rgb(61, 10, 10)" fill-opacity="0.87"/><path d="M305,201L337,221L181,221Z" fill="rgb(59, 4, 10)" fill-opacity="0.46"/><path d="M182,148L216,142L143,139Z" fill="rgb(148, 95, 90)" fill-opacity="0.52"/><path d="M404,133L385,159L423,178Z" fill="rgb(217, 138, 98)" fill-opacity="0.61"/><path d="M365,179L354,184L358,186Z" fill="rgb(81, 21, 21)" fill-opacity="0.53"/><path d="M361,261L321,272L355,288Z" fill="rgb(221, 181, 170)" fill-opacity="0.52"/><path d="M401,225L399,209L401,166Z" fill="rgb(226, 168, 148)" fill-opacity="0.59"/><path d="M347,125L309,115L322,137Z" fill="rgb(250, 216, 198)" fill-opacity="0.43"/><path d="M195,96L216,126L216,97Z" fill="rgb(197, 126, 100)" fill-opacity="0.54"/><path d="M40,199L39,272L-131,187Z" fill="rgb(66, 5, 5)" fill-opacity="0.88"/><path d="M379,168L349,164L356,158Z" fill="rgb(252, 205, 179)" fill-opacity="0.47"/><path d="M366,189L348,216L294,166Z" fill="rgb(252, 232, 211)" fill-opacity="0.62"/><path d="M170,149L137,134L145,146Z" fill="rgb(54, 1, 2)" fill-opacity="0.58"/><path d="M145,64L166,87L213,83Z" fill="rgb(63, 1, 2)" fill-opacity="0.87"/><path d="M172,186L144,178L152,158Z" fill="rgb(248, 200, 181)" fill-opacity="0.48"/><path d="M379,178L362,167L385,173Z" fill="rgb(79, 32, 51)" fill-opacity="0.58"/><path d="M352,86L359,90L372,60Z" fill="rgb(176, 33, 19)" fill-opacity="0.61"/><path d="M239,77L315,85L324,75Z" fill="rgb(31, 0, 0)" fill-opacity="0.54"/><path d="M157,275L153,298L138,287Z" fill="rgb(238, 208, 215)" fill-opacity="0.54"/><path d="M207,170L194,208L140,221Z" fill="rgb(241, 219, 208)" fill-opacity="0.72"/><path d="M218,40L183,40L217,30Z" fill="rgb(200, 31, 26)" fill-opacity="0.60"/><path d="M168,90L156,76L146,82Z" fill="rgb(175, 0, 0)" fill-opacity="0.62"/><path d="M330,142L346,146L322,148Z" fill="rgb(185, 129, 128)" fill-opacity="0.42"/><path d="M176,99L179,83L220,93Z" fill="rgb(152, 7, 12)" fill-opacity="0.62"/><path d="M385,145L388,118L311,102Z" fill="rgb(214, 142, 112)" fill-opacity="0.62"/><path d="M282,201L315,185L303,209Z" fill="rgb(144, 58, 70)" fill-opacity="0.46"/><path d="M155,298L211,247L195,242Z" fill="rgb(254, 205, 190)" fill-opacity="0.34"/><path d="M148,125L69,116L114,175Z" fill="rgb(198, 91, 57)" fill-opacity="0.36"/><path d="M147,146L136,161L158,159Z" fill="rgb(185, 23, 21)" fill-opacity="0.55"/><path d="M256,147L233,174L281,173Z" fill="rgb(56, 0, 0)" fill-opacity="0.53"/><path d="M423,238L428,216L423,190Z" fill="rgb(255, 220, 219)" fill-opacity="0.33"/><path d="M512,78L468,65L466,105Z" fill="rgb(163, 68, 47)" fill-opacity="0.27"/><path d="M383,155L365,150L372,140Z" fill="rgb(248, 196, 168)" fill-opacity="0.59"/><path d="M338,16L359,6L362,-7Z" fill="rgb(179, 1, 3)" fill-opacity="0.59"/><path d="M379,163L382,179L390,160Z" fill="rgb(112, 48, 55)" fill-opacity="0.48"/><path d="M90,133L112,166L-36,178Z" fill="rgb(150, 64, 52)" fill-opacity="0.50"/><path d="M363,248L383,229L386,256Z" fill="rgb(253, 62, 38)" fill-opacity="0.24"/><path d="M47,236L81,225L43,228Z" fill="rgb(71, 20, 15)" fill-opacity="0.64"/><path d="M166,307L221,254L170,286Z" fill="rgb(143, 35, 28)" fill-opacity="0.34"/><path d="M172,235L166,210L249,228Z" fill="rgb(124, 56, 46)" fill-opacity="0.53"/><path d="M373,58L331,-110L450,60Z" fill="rgb(72, 7, 0)" fill-opacity="0.34"/><path d="M128,170L131,186L120,175Z" fill="rgb(73, 23, 32)" fill-opacity="0.69"/><path d="M336,64L350,64L326,54Z" fill="rgb(202, 105, 71)" fill-opacity="0.49"/><path d="M217,141L249,142L216,79Z" fill="rgb(77, 9, 11)" fill-opacity="0.71"/><path d="M414,238L414,209L421,199Z" fill="rgb(250, 205, 177)" fill-opacity="0.58"/><path d="M185,-14L176,13L160,0Z" fill="rgb(62, 0, 0)" fill-opacity="0.67"/><path d="M134,254L116,246L157,246Z" fill="rgb(225, 164, 147)" fill-opacity="0.77"/><path d="M152,4L134,-49L166,10Z" fill="rgb(181, 0, 0)" fill-opacity="0.59"/><path d="M381,180L360,178L386,170Z" fill="rgb(80, 32, 49)" fill-opacity="0.54"/><path d="M122,163L121,195L50,179Z" fill="rgb(209, 138, 115)" fill-opacity="0.45"/><path d="M322,184L326,209L308,204Z" fill="rgb(251, 242, 237)" fill-opacity="0.72"/><path d="M488,122L638,129L493,49Z" fill="rgb(108, 26, 15)" fill-opacity="0.61"/><path d="M305,265L242,254L306,239Z" fill="rgb(179, 46, 50)" fill-opacity="0.21"/><path d="M392,210L391,230L390,198Z" fill="rgb(255, 187, 169)" fill-opacity="0.40"/><path d="M307,99L376,86L349,113Z" fill="rgb(212, 123, 85)" fill-opacity="0.48"/><path d="M359,140L268,136L322,134Z" fill="rgb(64, 11, 11)" fill-opacity="0.63"/><path d="M467,344L467,236L583,290Z" fill="rgb(72, 11, 16)" fill-opacity="0.79"/><path d="M228,230L233,146L298,171Z" fill="rgb(73, 6, 8)" fill-opacity="0.50"/><path d="M271,72L308,57L256,57Z" fill="rgb(25, 0, 0)" fill-opacity="0.51"/><path d="M390,196L357,196L357,223Z" fill="rgb(197, 98, 82)" fill-opacity="0.32"/><path d="M298,97L326,103L292,121Z" fill="rgb(232, 149, 85)" fill-opacity="0.36"/><path d="M127,234L65,197L128,181Z" fill="rgb(225, 183, 173)" fill-opacity="0.33"/><path d="M52,163L41,197L55,199Z" fill="rgb(169, 96, 80)" fill-opacity="0.56"/><path d="M292,188L300,190L311,188Z" fill="rgb(149, 31, 43)" fill-opacity="0.70"/><path d="M126,260L118,278L132,294Z" fill="rgb(171, 72, 79)" fill-opacity="0.47"/><path d="M220,14L203,37L180,10Z" fill="rgb(112, 7, 7)" fill-opacity="0.86"/><path d="M463,102L442,92L469,73Z" fill="rgb(57, 5, 7)" fill-opacity="0.52"/><path d="M66,216L80,202L81,333Z" fill="rgb(115, 50, 40)" fill-opacity="0.67"/><path d="M396,63L452,146L383,119Z" fill="rgb(184, 88, 59)" fill-opacity="0.47"/><path d="M164,273L166,261L172,274Z" fill="rgb(158, 87, 99)" fill-opacity="0.49"/><path d="M235,199L217,202L245,202Z" fill="rgb(173, 81, 68)" fill-opacity="0.50"/><path d="M420,230L423,218L421,202Z" fill="rgb(137, 38, 26)" fill-opacity="0.51"/><path d="M60,244L60,199L42,206Z" fill="rgb(79, 20, 7)" fill-opacity="0.33"/><path d="M212,278L207,234L314,234Z" fill="rgb(70, 6, 8)" fill-opacity="0.62"/><path d="M195,133L146,136L206,120Z" fill="rgb(210, 145, 108)" fill-opacity="0.61"/><path d="M461,209L471,155L465,235Z" fill="rgb(136, 39, 32)" fill-opacity="0.67"/><path d="M309,252L301,257L327,265Z" fill="rgb(235, 195, 186)" fill-opacity="0.52"/><path d="M428,207L437,207L424,212Z" fill="rgb(233, 178, 165)" fill-opacity="0.50"/><path d="M366,176L363,199L378,194Z" fill="rgb(255, 199, 150)" fill-opacity="0.34"/><path d="M291,54L217,54L225,-90Z" fill="rgb(59, 2, 1)" fill-opacity="0.71"/><path d="M177,236L177,245L185,235Z" fill="rgb(76, 6, 9)" fill-opacity="0.67"/><path d="M477,113L466,175L497,175Z" fill="rgb(192, 97, 69)" fill-opacity="0.41"/><path d="M80,66L-15,148L-12,50Z" fill="rgb(80, 14, 14)" fill-opacity="0.84"/><path d="M339,136L355,120L321,135Z" fill="rgb(230, 166, 131)" fill-opacity="0.65"/><path d="M329,155L276,150L373,145Z" fill="rgb(67, 7, 13)" fill-opacity="0.55"/><path d="M414,203L414,232L401,197Z" fill="rgb(81, 14, 18)" fill-opacity="0.56"/><path d="M385,278L346,291L415,292Z" fill="rgb(178, 101, 104)" fill-opacity="0.54"/><path d="M66,174L79,178L66,215Z" fill="rgb(179, 112, 98)" fill-opacity="0.82"/><path d="M83,81L144,75L151,59Z" fill="rgb(253, 149, 105)" fill-opacity="0.13"/><path d="M233,164L244,176L212,171Z" fill="rgb(80, 10, 10)" fill-opacity="0.57"/><path d="M352,168L341,149L351,172Z" fill="rgb(134, 47, 47)" fill-opacity="0.62"/><path d="M333,274L322,241L346,239Z" fill="rgb(198, 126, 118)" fill-opacity="0.47"/><path d="M426,194L426,205L430,194Z" fill="rgb(155, 78, 76)" fill-opacity="0.53"/><path d="M347,98L346,82L343,98Z" fill="rgb(90, 26, 24)" fill-opacity="0.69"/><path d="M367,139L369,144L335,151Z" fill="rgb(46, 0, 0)" fill-opacity="0.63"/><path d="M137,291L153,276L145,263Z" fill="rgb(212, 151, 147)" fill-opacity="0.79"/><path d="M325,234L325,244L312,233Z" fill="rgb(70, 0, 1)" fill-opacity="0.60"/><path d="M196,188L224,189L194,189Z" fill="rgb(148, 40, 45)" fill-opacity="0.59"/><path d="M42,207L40,203L42,252Z" fill="rgb(162, 57, 53)" fill-opacity="0.70"/><path d="M386,163L396,191L427,201Z" fill="rgb(237, 191, 156)" fill-opacity="0.88"/><path d="M458,60L491,63L462,75Z" fill="rgb(116, 37, 24)" fill-opacity="0.76"/><path d="M213,232L219,248L188,236Z" fill="rgb(70, 4, 4)" fill-opacity="0.55"/><path d="M384,224L382,220L382,192Z" fill="rgb(200, 138, 132)" fill-opacity="0.55"/><path d="M314,77L174,71L369,68Z" fill="rgb(240, 199, 204)" fill-opacity="0.10"/><path d="M140,162L138,134L121,163Z" fill="rgb(207, 133, 114)" fill-opacity="0.57"/><path d="M173,234L237,234L153,219Z" fill="rgb(127, 59, 49)" fill-opacity="0.58"/><path d="M356,24L327,12L346,11Z" fill="rgb(139, 28, 21)" fill-opacity="0.55"/><path d="M385,139L367,147L386,112Z" fill="rgb(209, 132, 98)" fill-opacity="0.71"/><path d="M317,142L328,144L319,149Z" fill="rgb(151, 96, 96)" fill-opacity="0.49"/><path d="M344,268L298,255L356,259Z" fill="rgb(245, 236, 233)" fill-opacity="0.17"/><path d="M163,55L162,64L180,62Z" fill="rgb(159, 64, 42)" fill-opacity="0.44"/><path d="M363,151L373,140L389,151Z" fill="rgb(234, 177, 148)" fill-opacity="0.77"/><path d="M143,174L171,182L147,160Z" fill="rgb(232, 180, 160)" fill-opacity="0.63"/><path d="M319,263L276,267L317,262Z" fill="rgb(110, 20, 20)" fill-opacity="0.98"/><path d="M193,55L270,54L289,57Z" fill="rgb(220, 112, 98)" fill-opacity="0.31"/><path d="M39,252L54,242L87,241Z" fill="rgb(176, 74, 65)" fill-opacity="0.35"/><path d="M312,197L304,208L296,196Z" fill="rgb(145, 62, 70)" fill-opacity="0.52"/><path d="M144,243L131,226L169,235Z" fill="rgb(50, 1, 3)" fill-opacity="0.64"/><path d="M415,290L374,258L404,260Z" fill="rgb(140, 57, 54)" fill-opacity="0.62"/><path d="M142,161L129,171L159,164Z" fill="rgb(230, 169, 142)" fill-opacity="0.69"/><path d="M457,63L440,83L355,79Z" fill="rgb(151, 56, 35)" fill-opacity="0.58"/><path d="M373,179L378,177L378,188Z" fill="rgb(66, 15, 20)" fill-opacity="0.42"/><path d="M361,294L317,273L325,286Z" fill="rgb(164, 71, 24)" fill-opacity="0.42"/><path d="M155,203L96,211L117,227Z" fill="rgb(229, 200, 195)" fill-opacity="0.62"/><path d="M298,167L294,188L324,187Z" fill="rgb(254, 251, 253)" fill-opacity="0.49"/><path d="M185,153L159,170L161,156Z" fill="rgb(139, 34, 34)" fill-opacity="0.48"/><path d="M388,221L371,244L337,239Z" fill="rgb(59, 0, 0)" fill-opacity="0.56"/><path d="M163,182L142,192L155,182Z" fill="rgb(162, 97, 88)" fill-opacity="0.52"/><path d="M392,160L378,157L385,163Z" fill="rgb(236, 182, 149)" fill-opacity="0.56"/><path d="M368,71L417,83L365,103Z" fill="rgb(175, 71, 36)" fill-opacity="0.60"/><path d="M173,265L167,255L189,261Z" fill="rgb(246, 217, 208)" fill-opacity="0.57"/><path d="M190,246L190,239L226,184Z" fill="rgb(95, 23, 22)" fill-opacity="0.56"/><path d="M196,194L196,191L202,194Z" fill="rgb(197, 107, 107)" fill-opacity="0.67"/><path d="M334,248L354,241L361,246Z" fill="rgb(255, 222, 193)" fill-opacity="0.31"/><path d="M30,240L64,241L82,235Z" fill="rgb(87, 26, 19)" fill-opacity="0.69"/><path d="M214,202L284,202L261,224Z" fill="rgb(48, 0, 1)" fill-opacity="0.42"/><path d="M414,237L400,196L414,196Z" fill="rgb(90, 21, 22)" fill-opacity="0.64"/><path d="M81,276L82,226L114,260Z" fill="rgb(171, 91, 87)" fill-opacity="0.89"/><path d="M312,117L308,132L331,135Z" fill="rgb(247, 198, 171)" fill-opacity="0.56"/><path d="M218,119L205,123L201,120Z" fill="rgb(77, 5, 14)" fill-opacity="0.65"/><path d="M303,39L291,43L292,32Z" fill="rgb(186, 36, 29)" fill-opacity="0.46"/><path d="M307,194L313,194L307,188Z" fill="rgb(174, 70, 72)" fill-opacity="0.52"/><path d="M442,109L466,119L466,97Z" fill="rgb(61, 5, 8)" fill-opacity="0.52"/><path d="M124,181L126,165L121,165Z" fill="rgb(53, 12, 25)" fill-opacity="0.56"/><path d="M399,187L391,174L369,187Z" fill="rgb(246, 206, 171)" fill-opacity="0.61"/><path d="M386,252L384,252L384,303Z" fill="rgb(255, 177, 135)" fill-opacity="0.32"/><path d="M193,41L185,36L173,44Z" fill="rgb(228, 20, 22)" fill-opacity="0.41"/><path d="M414,198L421,193L419,245Z" fill="rgb(246, 200, 168)" fill-opacity="0.50"/><path d="M337,169L370,172L329,183Z" fill="rgb(248, 218, 190)" fill-opacity="0.74"/><path d="M474,182L493,171L474,217Z" fill="rgb(118, 30, 26)" fill-opacity="0.59"/><path d="M279,148L294,158L155,149Z" fill="rgb(37, 0, 0)" fill-opacity="0.46"/><path d="M359,164L356,161L343,164Z" fill="rgb(247, 187, 163)" fill-opacity="0.52"/><path d="M336,66L283,67L295,57Z" fill="rgb(49, 3, 3)" fill-opacity="0.86"/><path d="M119,291L111,267L118,268Z" fill="rgb(219, 165, 169)" fill-opacity="0.42"/><path d="M210,260L199,257L211,242Z" fill="rgb(198, 62, 58)" fill-opacity="0.52"/><path d="M320,267L295,262L300,279Z" fill="rgb(114, 5, 7)" fill-opacity="0.42"/><path d="M348,149L331,142L360,140Z" fill="rgb(133, 69, 65)" fill-opacity="0.50"/><path d="M213,200L213,191L201,183Z" fill="rgb(234, 192, 181)" fill-opacity="0.40"/><path d="M132,202L149,179L98,203Z" fill="rgb(225, 179, 159)" fill-opacity="0.56"/><path d="M311,240L321,240L330,262Z" fill="rgb(216, 150, 133)" fill-opacity="1.00"/><path d="M427,203L435,199L427,199Z" fill="rgb(255, 248, 235)" fill-opacity="0.43"/><path d="M337,167L367,154L312,170Z" fill="rgb(187, 33, 39)" fill-opacity="0.62"/><path d="M394,253L396,272L399,243Z" fill="rgb(204, 103, 76)" fill-opacity="0.39"/><path d="M356,263L354,253L362,253Z" fill="rgb(164, 81, 68)" fill-opacity="0.48"/><path d="M321,45L322,39L302,40Z" fill="rgb(173, 7, 8)" fill-opacity="0.70"/><path d="M33,174L37,179L36,209Z" fill="rgb(89, 23, 20)" fill-opacity="0.65"/><path d="M127,222L133,221L141,238Z" fill="rgb(48, 1, 1)" fill-opacity="0.55"/><path d="M218,197L197,197L203,210Z" fill="rgb(146, 65, 65)" fill-opacity="0.64"/><path d="M385,244L365,244L379,232Z" fill="rgb(164, 0, 0)" fill-opacity="0.46"/><path d="M400,209L383,204L393,185Z" fill="rgb(95, 19, 23)" fill-opacity="0.34"/><path d="M290,152L279,210L299,164Z" fill="rgb(107, 23, 27)" fill-opacity="0.61"/><path d="M377,247L363,286L375,281Z" fill="rgb(165, 84, 80)" fill-opacity="0.62"/><path d="M364,263L374,246L371,289Z" fill="rgb(131, 54, 54)" fill-opacity="0.42"/><path d="M228,6L200,12L295,14Z" fill="rgb(27, 2, 1)" fill-opacity="0.67"/><path d="M182,264L167,242L168,256Z" fill="rgb(244, 216, 206)" fill-opacity="0.48"/><path d="M381,247L386,236L382,236Z" fill="rgb(214, 79, 78)" fill-opacity="0.48"/><path d="M248,120L191,115L258,115Z" fill="rgb(63, 7, 9)" fill-opacity="0.66"/><path d="M491,176L438,185L440,207Z" fill="rgb(105, 28, 27)" fill-opacity="0.75"/><path d="M156,38L188,15L148,5Z" fill="rgb(63, 0, 0)" fill-opacity="0.35"/><path d="M223,12L222,24L251,23Z" fill="rgb(113, 12, 6)" fill-opacity="0.51"/><path d="M305,202L345,219L281,225Z" fill="rgb(96, 29, 30)" fill-opacity="0.45"/><path d="M43,283L38,229L72,295Z" fill="rgb(103, 27, 27)" fill-opacity="0.71"/><path d="M307,124L307,121L353,121Z" fill="rgb(244, 214, 205)" fill-opacity="0.58"/><path d="M396,179L395,196L409,196Z" fill="rgb(246, 211, 175)" fill-opacity="0.49"/><path d="M205,189L185,169L214,179Z" fill="rgb(252, 224, 195)" fill-opacity="0.57"/><path d="M353,137L370,136L334,135Z" fill="rgb(231, 161, 117)" fill-opacity="0.59"/><path d="M67,257L68,251L56,252Z" fill="rgb(170, 80, 77)" fill-opacity="0.48"/><path d="M87,126L123,88L191,116Z" fill="rgb(144, 56, 44)" fill-opacity="0.30"/><path d="M131,234L117,227L111,265Z" fill="rgb(210, 134, 119)" fill-opacity="0.72"/><path d="M386,171L384,180L403,166Z" fill="rgb(240, 203, 177)" fill-opacity="0.51"/><path d="M194,225L209,202L232,225Z" fill="rgb(84, 20, 19)" fill-opacity="0.62"/><path d="M202,248L300,241L300,264Z" fill="rgb(96, 19, 19)" fill-opacity="0.44"/><path d="M135,185L128,185L136,183Z" fill="rgb(82, 17, 26)" fill-opacity="0.51"/><path d="M144,244L146,264L157,270Z" fill="rgb(237, 211, 210)" fill-opacity="0.49"/><path d="M303,129L301,127L198,129Z" fill="rgb(138, 50, 41)" fill-opacity="0.68"/><path d="M37,181L-25,173L35,176Z" fill="rgb(83, 22, 24)" fill-opacity="0.68"/><path d="M87,253L93,241L96,260Z" fill="rgb(144, 54, 50)" fill-opacity="0.52"/><path d="M332,162L324,171L287,166Z" fill="rgb(190, 48, 52)" fill-opacity="0.57"/><path d="M184,171L182,174L166,172Z" fill="rgb(251, 217, 192)" fill-opacity="0.59"/><path d="M32,148L-50,100L1,170Z" fill="rgb(112, 26, 28)" fill-opacity="0.55"/><path d="M475,161L465,136L476,133Z" fill="rgb(185, 99, 74)" fill-opacity="0.55"/><path d="M18,134L27,145L48,137Z" fill="rgb(169, 58, 35)" fill-opacity="0.54"/><path d="M-9,95L142,79L41,119Z" fill="rgb(75, 10, 17)" fill-opacity="0.49"/><path d="M382,218L345,234L338,218Z" fill="rgb(124, 57, 50)" fill-opacity="0.83"/><path d="M201,225L261,230L281,225Z" fill="rgb(133, 57, 40)" fill-opacity="0.64"/><path d="M442,181L446,141L373,139Z" fill="rgb(210, 131, 97)" fill-opacity="0.58"/><path d="M297,235L297,226L315,227Z" fill="rgb(185, 125, 112)" fill-opacity="0.57"/><path d="M95,155L131,131L118,166Z" fill="rgb(173, 90, 74)" fill-opacity="0.67"/><path d="M293,119L274,129L313,120Z" fill="rgb(77, 1, 6)" fill-opacity="0.44"/><path d="M49,75L177,14L110,-11Z" fill="rgb(83, 20, 17)" fill-opacity="0.57"/><path d="M305,148L305,144L323,148Z" fill="rgb(163, 109, 106)" fill-opacity="0.63"/><path d="M256,275L221,278L179,275Z" fill="rgb(180, 63, 50)" fill-opacity="0.37"/><path d="M180,85L168,98L162,86Z" fill="rgb(124, 4, 5)" fill-opacity="0.46"/><path d="M325,220L334,231L323,233Z" fill="rgb(191, 131, 125)" fill-opacity="0.28"/><path d="M80,291L134,300L102,278Z" fill="rgb(181, 111, 112)" fill-opacity="0.74"/><path d="M420,217L413,250L419,283Z" fill="rgb(221, 132, 120)" fill-opacity="0.36"/><path d="M458,134L455,144L455,120Z" fill="rgb(175, 80, 59)" fill-opacity="0.45"/><path d="M356,217L324,210L357,203Z" fill="rgb(245, 227, 208)" fill-opacity="0.74"/><path d="M125,159L160,161L127,170Z" fill="rgb(212, 145, 122)" fill-opacity="0.76"/><path d="M313,257L307,241L301,242Z" fill="rgb(202, 126, 109)" fill-opacity="0.79"/><path d="M133,177L136,174L160,167Z" fill="rgb(232, 176, 158)" fill-opacity="0.59"/><path d="M361,185L354,185L369,174Z" fill="rgb(95, 40, 46)" fill-opacity="0.47"/><path d="M505,199L490,207L498,182Z" fill="rgb(83, 17, 21)" fill-opacity="0.63"/><path d="M214,277L317,277L291,275Z" fill="rgb(143, 40, 27)" fill-opacity="0.76"/><path d="M128,180L141,170L127,172Z" fill="rgb(92, 37, 44)" fill-opacity="0.75"/><path d="M365,278L352,252L363,291Z" fill="rgb(205, 140, 121)" fill-opacity="0.52"/><path d="M305,261L318,263L302,268Z" fill="rgb(179, 48, 45)" fill-opacity="0.55"/><path d="M50,259L80,329L82,252Z" fill="rgb(113, 43, 41)" fill-opacity="0.70"/><path d="M323,62L336,59L336,64Z" fill="rgb(180, 96, 70)" fill-opacity="0.57"/><path d="M421,267L425,211L425,276Z" fill="rgb(198, 113, 93)" fill-opacity="0.52"/><path d="M457,162L440,162L445,161Z" fill="rgb(223, 150, 143)" fill-opacity="0.53"/><path d="M183,177L185,162L197,152Z" fill="rgb(170, 44, 44)" fill-opacity="0.43"/><path d="M356,284L335,273L347,286Z" fill="rgb(235, 209, 214)" fill-opacity="0.48"/><path d="M286,100L271,93L211,99Z" fill="rgb(31, 0, 0)" fill-opacity="0.62"/><path d="M42,165L116,165L39,188Z" fill="rgb(171, 92, 76)" fill-opacity="0.42"/><path d="M359,151L416,151L373,148Z" fill="rgb(248, 204, 191)" fill-opacity="0.31"/><path d="M327,96L190,86L321,82Z" fill="rgb(105, 10, 10)" fill-opacity="0.50"/><path d="M73,110L112,135L-21,135Z" fill="rgb(134, 8, 3)" fill-opacity="0.22"/><path d="M437,145L442,139L473,147Z" fill="rgb(136, 50, 47)" fill-opacity="0.51"/><path d="M425,241L426,268L426,228Z" fill="rgb(86, 0, 0)" fill-opacity="0.41"/><path d="M153,136L138,136L156,156Z" fill="rgb(69, 4, 7)" fill-opacity="0.55"/><path d="M67,217L53,209L67,211Z" fill="rgb(178, 98, 90)" fill-opacity="0.44"/><path d="M96,221L150,278L79,230Z" fill="rgb(209, 124, 110)" fill-opacity="0.42"/><path d="M337,83L335,86L332,83Z" fill="rgb(203, 76, 71)" fill-opacity="0.57"/><path d="M383,259L376,255L384,254Z" fill="rgb(51, 0, 5)" fill-opacity="0.64"/><path d="M49,175L67,195L64,168Z" fill="rgb(168, 89, 79)" fill-opacity="0.49"/><path d="M236,31L302,27L220,24Z" fill="rgb(10, 0, 0)" fill-opacity="0.51"/><path d="M480,134L447,133L440,135Z" fill="rgb(79, 14, 16)" fill-opacity="0.75"/><path d="M296,76L292,93L284,80Z" fill="rgb(51, 0, 0)" fill-opacity="0.67"/><path d="M302,139L333,141L294,126Z" fill="rgb(72, 14, 15)" fill-opacity="0.59"/><path d="M210,202L191,198L225,202Z" fill="rgb(195, 120, 116)" fill-opacity="0.56"/><path d="M398,240L412,258L414,209Z" fill="rgb(70, 13, 18)" fill-opacity="0.57"/><path d="M421,252L420,287L420,223Z" fill="rgb(130, 31, 25)" fill-opacity="0.49"/><path d="M272,129L223,139L279,142Z" fill="rgb(42, 1, 2)" fill-opacity="0.41"/><path d="M422,215L422,171L421,200Z" fill="rgb(121, 28, 29)" fill-opacity="0.59"/><path d="M219,268L214,254L219,238Z" fill="rgb(130, 34, 32)" fill-opacity="0.47"/><path d="M301,232L282,235L275,232Z" fill="rgb(205, 113, 92)" fill-opacity="0.38"/><path d="M324,199L362,176L350,192Z" fill="rgb(249, 223, 194)" fill-opacity="0.48"/><path d="M81,199L47,201L68,207Z" fill="rgb(171, 89, 86)" fill-opacity="0.46"/><path d="M24,57L79,1L-50,-17Z" fill="rgb(50, 0, 1)" fill-opacity="0.58"/><path d="M140,149L138,158L151,160Z" fill="rgb(127, 6, 9)" fill-opacity="0.42"/><path d="M201,240L210,251L191,251Z" fill="rgb(255, 204, 188)" fill-opacity="0.31"/><path d="M456,157L458,172L456,203Z" fill="rgb(161, 63, 55)" fill-opacity="0.53"/><path d="M198,70L177,74L177,65Z" fill="rgb(99, 56, 53)" fill-opacity="0.44"/><path d="M155,218L170,214L149,190Z" fill="rgb(243, 221, 212)" fill-opacity="0.55"/><path d="M309,198L306,199L312,193Z" fill="rgb(224, 198, 195)" fill-opacity="0.52"/><path d="M190,157L314,157L264,167Z" fill="rgb(228, 123, 113)" fill-opacity="0.10"/><path d="M469,165L443,156L469,141Z" fill="rgb(100, 26, 30)" fill-opacity="0.50"/><path d="M385,169L380,163L389,165Z" fill="rgb(93, 25, 32)" fill-opacity="0.48"/><path d="M181,57L213,40L167,44Z" fill="rgb(71, 12, 17)" fill-opacity="0.55"/><path d="M-18,189L47,188L-3,184Z" fill="rgb(95, 24, 23)" fill-opacity="0.68"/><path d="M345,88L362,88L350,99Z" fill="rgb(215, 137, 103)" fill-opacity="0.55"/><path d="M202,127L200,132L169,136Z" fill="rgb(204, 142, 114)" fill-opacity="0.77"/><path d="M392,205L399,193L399,229Z" fill="rgb(82, 16, 18)" fill-opacity="0.58"/><path d="M402,160L418,151L384,154Z" fill="rgb(193, 108, 68)" fill-opacity="0.43"/><path d="M87,207L81,238L81,202Z" fill="rgb(219, 174, 172)" fill-opacity="0.42"/><path d="M301,168L322,174L295,168Z" fill="rgb(249, 236, 228)" fill-opacity="0.59"/><path d="M328,80L371,62L347,88Z" fill="rgb(53, 0, 0)" fill-opacity="0.66"/><path d="M197,29L318,33L229,42Z" fill="rgb(161, 18, 6)" fill-opacity="0.16"/><path d="M183,95L180,97L200,96Z" fill="rgb(234, 41, 41)" fill-opacity="0.47"/><path d="M160,249L169,248L161,260Z" fill="rgb(200, 115, 93)" fill-opacity="0.42"/><path d="M365,245L360,243L363,281Z" fill="rgb(255, 194, 135)" fill-opacity="0.22"/><path d="M186,225L172,214L201,206Z" fill="rgb(111, 45, 45)" fill-opacity="0.75"/><path d="M325,105L340,92L343,98Z" fill="rgb(223, 161, 138)" fill-opacity="0.48"/><path d="M372,145L372,169L379,171Z" fill="rgb(237, 193, 167)" fill-opacity="0.77"/><path d="M506,164L493,193L481,144Z" fill="rgb(176, 76, 54)" fill-opacity="0.57"/><path d="M159,163L180,171L228,162Z" fill="rgb(182, 45, 38)" fill-opacity="0.57"/><path d="M493,110L464,112L479,134Z" fill="rgb(141, 45, 34)" fill-opacity="0.44"/><path d="M451,177L440,161L463,167Z" fill="rgb(123, 45, 48)" fill-opacity="0.47"/><path d="M325,42L323,55L275,55Z" fill="rgb(89, 10, 6)" fill-opacity="0.39"/><path d="M421,27L525,72L356,76Z" fill="rgb(110, 35, 22)" fill-opacity="0.30"/><path d="M332,39L353,19L401,54Z" fill="rgb(98, 21, 6)" fill-opacity="0.64"/><path d="M299,126L288,128L312,113Z" fill="rgb(80, 4, 4)" fill-opacity="0.48"/><path d="M401,58L346,64L364,40Z" fill="rgb(151, 48, 18)" fill-opacity="0.35"/><path d="M374,134L365,149L349,151Z" fill="rgb(64, 0, 1)" fill-opacity="0.52"/><path d="M202,74L217,81L146,72Z" fill="rgb(41, 3, 2)" fill-opacity="0.67"/><path d="M114,131L171,127L180,94Z" fill="rgb(166, 82, 59)" fill-opacity="0.45"/><path d="M383,190L371,186L383,206Z" fill="rgb(194, 98, 81)" fill-opacity="0.40"/><path d="M57,226L44,226L47,228Z" fill="rgb(196, 89, 83)" fill-opacity="0.49"/><path d="M379,94L449,89L445,75Z" fill="rgb(168, 74, 50)" fill-opacity="0.68"/><path d="M219,188L201,188L206,191Z" fill="rgb(158, 59, 61)" fill-opacity="0.59"/><path d="M314,200L185,201L301,202Z" fill="rgb(179, 97, 89)" fill-opacity="0.51"/><path d="M356,169L374,175L376,174Z" fill="rgb(241, 212, 203)" fill-opacity="0.44"/><path d="M139,139L134,134L52,141Z" fill="rgb(207, 103, 55)" fill-opacity="0.45"/><path d="M306,118L308,116L344,128Z" fill="rgb(233, 188, 168)" fill-opacity="0.61"/><path d="M301,120L292,117L304,117Z" fill="rgb(239, 158, 155)" fill-opacity="0.40"/><path d="M204,273L190,260L208,271Z" fill="rgb(161, 59, 60)" fill-opacity="0.58"/><path d="M197,194L146,214L196,207Z" fill="rgb(246, 228, 217)" fill-opacity="0.71"/><path d="M506,220L559,177L501,173Z" fill="rgb(197, 93, 61)" fill-opacity="0.38"/><path d="M426,191L427,221L427,182Z" fill="rgb(150, 60, 58)" fill-opacity="0.51"/><path d="M312,95L318,100L324,97Z" fill="rgb(251, 23, 19)" fill-opacity="0.45"/><path d="M288,232L298,231L273,228Z" fill="rgb(71, 0, 4)" fill-opacity="0.48"/><path d="M426,173L443,176L435,189Z" fill="rgb(200, 112, 86)" fill-opacity="0.56"/><path d="M109,217L84,229L76,185Z" fill="rgb(217, 173, 172)" fill-opacity="0.35"/><path d="M128,236L129,245L141,239Z" fill="rgb(135, 2, 0)" fill-opacity="0.55"/><path d="M223,201L211,193L248,171Z" fill="rgb(106, 22, 24)" fill-opacity="0.56"/><path d="M259,8L328,10L272,15Z" fill="rgb(36, 0, 0)" fill-opacity="0.62"/><path d="M432,210L436,241L438,142Z" fill="rgb(197, 114, 96)" fill-opacity="0.75"/><path d="M376,261L374,241L374,268Z" fill="rgb(236, 157, 125)" fill-opacity="0.46"/><path d="M426,230L426,181L425,186Z" fill="rgb(251, 236, 228)" fill-opacity="0.44"/><path d="M451,183L450,169L450,216Z" fill="rgb(247, 100, 79)" fill-opacity="0.37"/><path d="M448,119L441,122L474,121Z" fill="rgb(60, 5, 9)" fill-opacity="0.73"/><path d="M143,182L161,217L125,222Z" fill="rgb(236, 207, 196)" fill-opacity="0.48"/><path d="M325,265L312,265L333,259Z" fill="rgb(242, 213, 202)" fill-opacity="0.48"/><path d="M223,28L220,52L218,10Z" fill="rgb(36, 1, 0)" fill-opacity="0.70"/><path d="M148,188L136,172L153,188Z" fill="rgb(138, 71, 67)" fill-opacity="0.70"/><path d="M216,56L216,54L253,55Z" fill="rgb(183, 99, 84)" fill-opacity="0.40"/><path d="M362,148L368,160L356,160Z" fill="rgb(201, 2, 9)" fill-opacity="0.49"/><path d="M402,196L397,196L400,194Z" fill="rgb(113, 24, 23)" fill-opacity="0.67"/><path d="M174,172L168,189L163,164Z" fill="rgb(237, 196, 176)" fill-opacity="0.50"/><path d="M311,177L309,194L310,201Z" fill="rgb(240, 213, 209)" fill-opacity="0.63"/><path d="M422,218L433,214L433,218Z" fill="rgb(219, 156, 144)" fill-opacity="0.73"/><path d="M438,123L449,113L410,109Z" fill="rgb(172, 77, 51)" fill-opacity="0.57"/><path d="M184,65L208,56L266,56Z" fill="rgb(50, 4, 4)" fill-opacity="0.71"/><path d="M194,255L190,241L169,251Z" fill="rgb(228, 165, 144)" fill-opacity="0.69"/><path d="M390,195L392,198L392,239Z" fill="rgb(200, 134, 124)" fill-opacity="0.62"/><path d="M307,277L198,277L413,326Z" fill="rgb(35, 0, 0)" fill-opacity="0.67"/><path d="M167,73L146,62L149,72Z" fill="rgb(23, 1, 1)" fill-opacity="0.41"/><path d="M412,159L442,156L432,134Z" fill="rgb(219, 142, 109)" fill-opacity="0.55"/><path d="M132,152L147,150L139,138Z" fill="rgb(205, 134, 116)" fill-opacity="0.49"/><path d="M204,129L200,126L282,114Z" fill="rgb(63, 4, 7)" fill-opacity="0.59"/><path d="M225,76L263,70L178,73Z" fill="rgb(132, 70, 71)" fill-opacity="0.39"/><path d="M285,57L307,57L295,54Z" fill="rgb(169, 98, 96)" fill-opacity="0.44"/><path d="M315,114L273,117L311,116Z" fill="rgb(92, 17, 14)" fill-opacity="0.50"/><path d="M466,105L487,90L474,79Z" fill="rgb(147, 58, 43)" fill-opacity="0.57"/><path d="M190,95L200,84L226,88Z" fill="rgb(104, 0, 0)" fill-opacity="0.60"/><path d="M255,235L257,245L153,234Z" fill="rgb(51, 2, 2)" fill-opacity="0.66"/><path d="M240,277L186,285L113,361Z" fill="rgb(54, 3, 3)" fill-opacity="0.87"/><path d="M180,228L248,228L214,227Z" fill="rgb(217, 142, 108)" fill-opacity="0.38"/><path d="M246,269L268,263L190,269Z" fill="rgb(65, 3, 4)" fill-opacity="0.65"/><path d="M385,223L359,232L379,231Z" fill="rgb(12, 0, 0)" fill-opacity="0.48"/><path d="M209,194L191,186L217,194Z" fill="rgb(185, 100, 98)" fill-opacity="0.56"/><path d="M299,189L301,192L298,191Z" fill="rgb(255, 255, 255)" fill-opacity="0.54"/><path d="M190,156L194,158L192,160Z" fill="rgb(198, 119, 117)" fill-opacity="0.50"/><path d="M185,175L186,177L182,177Z" fill="rgb(120, 32, 28)" fill-opacity="0.60"/><path d="M234,142L223,127L175,137Z" fill="rgb(81, 25, 26)" fill-opacity="0.62"/><path d="M225,174L212,171L219,193Z" fill="rgb(141, 49, 43)" fill-opacity="0.68"/><path d="M357,119L400,118L362,94Z" fill="rgb(205, 120, 86)" fill-opacity="0.54"/><path d="M315,110L293,107L317,119Z" fill="rgb(223, 134, 63)" fill-opacity="0.46"/><path d="M195,85L197,81L197,90Z" fill="rgb(231, 83, 94)" fill-opacity="0.49"/><path d="M69,216L58,223L46,216Z" fill="rgb(74, 22, 15)" fill-opacity="0.51"/><path d="M448,119L448,105L474,107Z" fill="rgb(69, 9, 9)" fill-opacity="0.66"/><path d="M178,239L138,248L174,248Z" fill="rgb(240, 184, 162)" fill-opacity="0.48"/><path d="M436,178L479,175L495,177Z" fill="rgb(83, 13, 16)" fill-opacity="0.73"/><path d="M377,183L366,179L382,178Z" fill="rgb(62, 18, 34)" fill-opacity="0.43"/><path d="M468,184L480,190L462,189Z" fill="rgb(64, 0, 5)" fill-opacity="0.71"/><path d="M346,193L361,179L339,185Z" fill="rgb(247, 219, 190)" fill-opacity="0.75"/><path d="M104,257L139,287L120,256Z" fill="rgb(182, 72, 71)" fill-opacity="0.28"/><path d="M221,7L217,9L219,3Z" fill="rgb(142, 55, 52)" fill-opacity="0.52"/><path d="M455,123L457,127L457,123Z" fill="rgb(233, 123, 81)" fill-opacity="0.51"/><path d="M195,262L168,268L201,264Z" fill="rgb(177, 95, 92)" fill-opacity="0.48"/><path d="M212,81L307,84L359,73Z" fill="rgb(45, 0, 0)" fill-opacity="0.78"/><path d="M247,59L221,59L230,61Z" fill="rgb(123, 47, 41)" fill-opacity="0.50"/><path d="M484,131L466,123L465,132Z" fill="rgb(163, 61, 43)" fill-opacity="0.66"/><path d="M208,140L197,151L245,128Z" fill="rgb(99, 37, 34)" fill-opacity="0.55"/><path d="M215,97L216,111L206,116Z" fill="rgb(227, 160, 127)" fill-opacity="0.36"/><path d="M430,185L434,185L430,191Z" fill="rgb(93, 23, 21)" fill-opacity="0.55"/><path d="M186,136L158,136L158,141Z" fill="rgb(55, 7, 9)" fill-opacity="0.41"/><path d="M315,102L318,120L335,93Z" fill="rgb(223, 155, 121)" fill-opacity="0.47"/><path d="M449,250L451,225L449,200Z" fill="rgb(179, 65, 59)" fill-opacity="0.48"/><path d="M427,183L427,209L429,183Z" fill="rgb(238, 208, 198)" fill-opacity="0.51"/><path d="M370,127L365,137L338,114Z" fill="rgb(221, 155, 127)" fill-opacity="0.67"/><path d="M181,13L203,13L157,8Z" fill="rgb(177, 7, 7)" fill-opacity="0.52"/><path d="M375,181L374,195L363,195Z" fill="rgb(246, 209, 171)" fill-opacity="0.51"/><path d="M348,164L348,170L350,167Z" fill="rgb(62, 11, 22)" fill-opacity="0.52"/><path d="M173,281L190,281L178,294Z" fill="rgb(179, 93, 75)" fill-opacity="0.51"/><path d="M356,203L365,216L367,197Z" fill="rgb(224, 168, 151)" fill-opacity="0.54"/><path d="M197,238L195,243L209,237Z" fill="rgb(123, 23, 19)" fill-opacity="0.41"/><path d="M232,84L236,84L232,89Z" fill="rgb(142, 69, 63)" fill-opacity="0.59"/><path d="M165,281L194,274L189,266Z" fill="rgb(221, 172, 161)" fill-opacity="0.46"/><path d="M285,75L288,76L305,75Z" fill="rgb(158, 97, 94)" fill-opacity="0.49"/><path d="M401,234L399,216L401,223Z" fill="rgb(185, 110, 102)" fill-opacity="0.46"/><path d="M303,245L283,252L303,238Z" fill="rgb(109, 22, 23)" fill-opacity="0.83"/><path d="M364,210L374,202L366,231Z" fill="rgb(166, 91, 81)" fill-opacity="0.47"/><path d="M361,89L369,80L349,78Z" fill="rgb(139, 0, 4)" fill-opacity="0.54"/><path d="M230,205L219,206L177,206Z" fill="rgb(197, 134, 121)" fill-opacity="0.64"/><path d="M370,151L370,159L361,151Z" fill="rgb(147, 0, 0)" fill-opacity="0.52"/><path d="M292,149L289,173L295,168Z" fill="rgb(81, 12, 18)" fill-opacity="0.70"/><path d="M324,70L340,74L297,76Z" fill="rgb(118, 59, 59)" fill-opacity="0.31"/><path d="M446,301L438,200L450,203Z" fill="rgb(60, 0, 12)" fill-opacity="0.36"/><path d="M348,178L355,180L383,172Z" fill="rgb(124, 66, 73)" fill-opacity="0.71"/><path d="M446,89L477,90L461,94Z" fill="rgb(49, 1, 4)" fill-opacity="0.62"/></svg>