<svg xmlns="http://www.w3.org/2000/svg" version="1" viewBox="0 0 1080 1064">
<path d="M494.5 1C379.7 10.3 278.2 51.7 190 125c-16.1 13.4-51.6 48.9-65 65C57.8 270.8 16.9 364.1 4.1 466c-5.9 46.1-5.3 100.4 1.4 146.5C27.1 760.3 111.9 894 237 977.5c63.9 42.6 129.1 68.7 206.5 82.7l18 3.2 67.5.4c58.4.3 69.1.1 79-1.3 90.7-12.9 177.3-49 249-103.8 37.1-28.4 73.3-64.6 101.7-101.7 116.5-152.4 141.6-358.6 65.1-535.5-35.7-82.6-94.4-157.7-165.7-211.9C778 48.7 689 13.4 587.5 2.4 570.9.6 511-.3 494.5 1zM587 58.4c56.7 7.1 105.5 21.3 154.5 45 35.2 17 64.3 35.6 96 61.5 16.4 13.3 50.8 47.7 64.3 64.1 53.3 65 88 139.7 102.6 221 11.8 65.8 9.3 136.4-7.3 201.2-43.3 169.4-176.5 302.6-345.9 345.9-64.8 16.6-135.4 19.1-201.2 7.3-81.3-14.6-156-49.3-221-102.6-16.4-13.5-50.8-47.9-64.1-64.3-25.9-31.7-44.5-60.8-61.5-96-23.8-49.3-38-98-45.1-155.5-2.2-18.3-2.6-80.5-.5-99.5 5.8-53.3 18.2-99.8 39.1-147 47.3-106.7 135.9-195.3 242.6-242.6C386.7 76 437.3 62.6 486 58.1c6.3-.6 13.1-1.3 15-1.5 1.9-.2 19-.3 38-.1 24.9.2 38.3.7 48 1.9z"/>
<path d="M328.5 388C214.7 547.1 121.2 677.8 120.8 678.4c-.9 1.6 9.9 28.3 19.1 47.1 11.8 23.8 31.8 56 45.4 72.8l2.3 2.9 284-289.9c156.2-159.4 291.8-297.8 301.3-307.6 14.7-15 17.1-17.9 16.1-19.2-1.7-2-25-17.7-37.9-25.5C693 124.1 618.7 101.9 551 99.4l-15.5-.6-207 289.2z" />
<path d="M226 840.5l7.7 7.6c23.4 22.9 55.3 46.6 86.6 64.3 6.5 3.7 12.4 6.5 13.1 6.3.7-.3 19-13.5 40.7-29.4L520.5 782c58.9-43.1 161.7-118.4 228.5-167.4 66.8-48.9 141.8-103.8 166.5-121.9 24.8-18.1 45.3-33.2 45.7-33.6.9-.8-2.1-16.1-6.7-34.1-18.2-70.6-55.3-137.6-105.6-190.3l-8.4-8.8-307.3 307.3z" />
<path d="M682 738.6C525 851.1 395.9 943.7 395.1 944.5c-1.1 1.1.2 1.8 8.7 4.4 66.1 20.4 135.2 25 203.3 13.5 147.8-24.9 273.7-126.6 330.3-266.8 15-37 25.1-78.6 29-119.1 2-19.9 3-42.5 1.9-42.4-.4 0-129.3 92-286.3 204.5z"/>
</svg>
