<svg xmlns="http://www.w3.org/2000/svg" viewBox="0 0 128 128" clip-path="url(#a)" width="128" height="128"><defs><clipPath id="a" clipPathUnits="objectBoundingBox"><path d="M0 0h128v128H0z"/></clipPath></defs><path fill="#16181B" d="M0 0h128v128H0z"/><path d="M76 103l26-15L39-24z" fill="#C0C1C1" fill-opacity=".47"/><path d="M27 91l25 12 12-85z" fill="#EDEDEC" fill-opacity=".44"/><path d="M73 29l-10-7 5 22z" fill="#FDFDFD" fill-opacity=".71"/><path d="M74 46h6l4 44z" fill="#F6F6F6" fill-opacity=".8"/><path d="M47 54l34-6-33-3z" fill="#EEE" fill-opacity=".68"/><path d="M33 75l11 19-2-38z" fill="#141619" fill-opacity=".73"/><path d="M82 74L54 48l-7 33z" fill="#141618" fill-opacity=".93"/><path d="M40 80l11-37-3 41z" fill="#FEFDFD" fill-opacity=".61"/><path d="M78 27l9 61 82-135z" fill="#1A1C20"/><path d="M-132 18l189 9 52-34z" fill="#191C20" fill-opacity=".98"/><path d="M80 80l-29 3 22-35z" fill="#15171A"/><path d="M53 105l-13-9 13-5z" fill="#D4D3D2" fill-opacity=".63"/><path d="M97 82l2 8-32 18z" fill="#FEFEFD" fill-opacity=".44"/><path d="M56 27l9-3-9 19z" fill="#FEFEFE" fill-opacity=".78"/><path d="M24 88l24 13-17-17z" fill="#FFF" fill-opacity=".54"/><path d="M82 62l-8 31 13-14z" fill="#F3F2F2" fill-opacity=".49"/><path d="M41 78l12 17V83z" fill="#C9C9C9" fill-opacity=".74"/><path d="M69 40l-5 6-8-8z" fill="#FFF" fill-opacity=".73"/><path d="M46-11l-1 59 12-5z" fill="#1D2024" fill-opacity=".96"/><path d="M86 92l5-18-12 15z" fill="#141516" fill-opacity=".91"/><path d="M51 60l-2-18-7 38z" fill="#FDFDFD" fill-opacity=".56"/><path d="M74 50l-13 4 8-26z" fill="#FFF" fill-opacity=".35"/><path d="M87 97H72l31-10z" fill="#FDFCFB" fill-opacity=".36"/><path d="M48 95l-2-11-12 3z" fill="#000102" fill-opacity=".67"/><path d="M107 17L78 41 54 53z" fill="#282B2F" fill-opacity=".76"/><path d="M49 7L17 95l27-23z" fill="#1A1D21" fill-opacity=".66"/><path d="M52 108l28-30-14-26z" fill="#16181B" fill-opacity=".97"/><path d="M46 47l22 7-8-8z" fill="#FFF" fill-opacity=".49"/><path d="M66 32l-3 9-1-14z" fill="#000307" fill-opacity=".55"/><path d="M65 46v2L23 31z" fill="#25272A"/><path d="M187-134L113 99 86 74z" fill="#181A1E"/><path d="M95 92l-7-11h7z" fill="#FCFBFB" fill-opacity=".46"/></svg>