<svg 
	xmlns="http://www.w3.org/2000/svg" viewBox="0 0 360 175">
	<path d="m 318.36817,139.5 v -104 h 7.63089 v 104 z M 275.8805,70.168548 h 7.5832 v 32.972132 h -7.95988 L 263.63215,81.943665 v 21.197015 h -7.63088 V 70.168548 h 7.95987 l 11.91936,21.478701 z m -49.97743,-0.848157 c 10.92657,0 17.42743,8.290508 17.42743,17.334274 0,9.043669 -6.50086,17.334275 -17.42743,17.334275 -10.97621,0 -17.47706,-8.290606 -17.47706,-17.334275 0,-9.043766 6.50085,-17.334274 17.47706,-17.334274 z m 9.65639,17.334274 c 0,-5.41676 -3.67528,-10.456939 -9.65639,-10.456939 -6.02976,0 -9.65638,5.040179 -9.65638,10.456939 0,5.41676 3.62662,10.456843 9.65638,10.456843 5.9811,0 9.65639,-5.040083 9.65639,-10.456843 z m -132.87959,-9.89202 v -6.594097 h 22.56103 v 6.594097 h -7.48985 v 26.378035 h -7.63059 V 76.762645 Z m 80.87667,7.018272 h 12.48195 v 5.983334 h -12.48196 v 7.25226 h 12.48195 v 6.124179 H 175.92565 V 70.168548 h 20.11283 v 6.124175 H 183.55653 Z M 150.96078,70.168548 c 7.29995,0 12.01086,5.511757 12.01086,11.917515 0,4.616101 -2.44987,8.713029 -6.54855,10.645278 l 6.59624,10.409349 H 154.164 l -5.84288,-9.138768 h -3.5799 v 9.138768 h -7.62991 V 70.168548 Z m 4.28556,11.917515 c 0,-3.062087 -2.07319,-5.699998 -5.27641,-5.699998 h -5.22871 v 11.398438 h 5.22871 c 3.20322,0 5.27641,-2.636353 5.27641,-5.69844 z M 87.747765,99.137099 H 76.018492 l -1.272333,4.003591 H 66.596394 L 78.373165,70.168548 H 85.39134 L 97.308854,103.14069 H 89.018346 Z M 81.905175,79.588992 77.85409,93.15542 h 8.007173 z m -34.10363,-9.420444 c 7.301511,0 12.012511,5.511757 12.012511,11.917515 0,6.405757 -4.711,11.915859 -12.012511,11.915859 h -6.170018 v 9.138768 H 34.000935 V 70.168548 Z m 4.33442,11.917515 c 0,-3.062087 -2.073089,-5.699998 -5.276016,-5.699998 h -5.228422 v 11.398438 h 5.228422 c 3.202927,0 5.276016,-2.636353 5.276016,-5.69844 z"/>
</svg>