<svg xmlns="http://www.w3.org/2000/svg" width="1920" height="1200"><path d="M127,-245L629,-220L998,-234Z" fill="#050505" stroke="#050505" stroke-width="1.51"/><path d="M996,1430L731,1444L1212,1443Z" fill="#080808" stroke="#080808" stroke-width="1.51"/><path d="M127,-245L998,-234L1500,-244Z" fill="#070707" stroke="#070707" stroke-width="1.51"/><path d="M998,-234L1202,-206L1500,-244Z" fill="#060606" stroke="#060606" stroke-width="1.51"/><path d="M1516,1336L1429,1363L1729,1332Z" fill="#040504" stroke="#040504" stroke-width="1.51"/><path d="M1429,1363L1311,1424L1729,1332Z" fill="#040504" stroke="#040504" stroke-width="1.51"/><path d="M1311,1424L1212,1443L1945,1382Z" fill="#040504" stroke="#040504" stroke-width="1.51"/><path d="M1729,1332L1311,1424L1945,1382Z" fill="#030403" stroke="#030403" stroke-width="1.51"/><path d="M1985,961L2016,1049L2061,1068Z" fill="#040404" stroke="#040404" stroke-width="1.51"/><path d="M2029,1288L2037,1327L2061,1068Z" fill="#020302" stroke="#020302" stroke-width="1.51"/><path d="M1942,313L2009,396L2069,214Z" fill="#060606" stroke="#060606" stroke-width="1.51"/><path d="M2035,-80L1956,109L2083,140Z" fill="#030303" stroke="#030303" stroke-width="1.51"/><path d="M1819,-215L1988,-127L2094,-164Z" fill="#010201" stroke="#010201" stroke-width="1.51"/><path d="M2035,-80L2083,140L2094,-164Z" fill="#020302" stroke="#020302" stroke-width="1.51"/><path d="M2061,1068L2037,1327L2099,857Z" fill="#030403" stroke="#030403" stroke-width="1.51"/><path d="M1985,961L2061,1068L2099,857Z" fill="#050505" stroke="#050505" stroke-width="1.51"/><path d="M2069,214L2009,396L2127,562Z" fill="#060606" stroke="#060606" stroke-width="1.51"/><path d="M2009,396L2015,430L2127,562Z" fill="#070707" stroke="#070707" stroke-width="1.51"/><path d="M1918,550L2086,726L2127,562Z" fill="#080808" stroke="#080808" stroke-width="1.51"/><path d="M1982,471L1918,550L2127,562Z" fill="#080808" stroke="#080808" stroke-width="1.51"/><path d="M2015,430L1982,471L2127,562Z" fill="#070707" stroke="#070707" stroke-width="1.51"/><path d="M2083,140L2069,214L2127,562Z" fill="#050505" stroke="#050505" stroke-width="1.51"/><path d="M2094,-164L2083,140L2127,562Z" fill="#040404" stroke="#040404" stroke-width="1.51"/><path d="M2086,726L2099,857L2127,562Z" fill="#070707" stroke="#070707" stroke-width="1.51"/><path d="M2016,1049L1902,1075L2029,1288Z" fill="#030403" stroke="#030403" stroke-width="1.51"/><path d="M1902,1075L1940,1291L2029,1288Z" fill="#030303" stroke="#030303" stroke-width="1.51"/><path d="M1920,-30L1956,109L2035,-80Z" fill="#030303" stroke="#030303" stroke-width="1.51"/><path d="M2016,1049L2029,1288L2061,1068Z" fill="#030403" stroke="#030403" stroke-width="1.51"/><path d="M1918,550L1854,647L2086,726Z" fill="#080808" stroke="#080808" stroke-width="1.51"/><path d="M1988,-127L2035,-80L2094,-164Z" fill="#010201" stroke="#010201" stroke-width="1.51"/><path d="M2086,726L1924,804L2099,857Z" fill="#070707" stroke="#070707" stroke-width="1.51"/><path d="M1924,804L1985,961L2099,857Z" fill="#060606" stroke="#060606" stroke-width="1.51"/><path d="M1955,153L2069,214L2083,140Z" fill="#040404" stroke="#040404" stroke-width="1.51"/><path d="M1854,647L1924,804L2086,726Z" fill="#080808" stroke="#080808" stroke-width="1.51"/><path d="M1956,109L1955,153L2083,140Z" fill="#040504" stroke="#040504" stroke-width="1.51"/><path d="M1955,153L1942,313L2069,214Z" fill="#050505" stroke="#050505" stroke-width="1.51"/><path d="M2029,1288L1940,1291L2037,1327Z" fill="#020302" stroke="#020302" stroke-width="1.51"/><path d="M1940,1291L1945,1382L2037,1327Z" fill="#020202" stroke="#020202" stroke-width="1.51"/><path d="M1988,-127L1920,-30L2035,-80Z" fill="#020302" stroke="#020302" stroke-width="1.51"/><path d="M1902,1075L1795,1177L1940,1291Z" fill="#040404" stroke="#040404" stroke-width="1.51"/><path d="M1985,961L1902,1075L2016,1049Z" fill="#040504" stroke="#040504" stroke-width="1.51"/><path d="M1854,647L1870,788L1924,804Z" fill="#080808" stroke="#080808" stroke-width="1.51"/><path d="M1839,1327L1729,1332L1945,1382Z" fill="#030303" stroke="#030303" stroke-width="1.51"/><path d="M2009,396L1982,471L2015,430Z" fill="#070707" stroke="#070707" stroke-width="1.51"/><path d="M1924,804L1865,824L1985,961Z" fill="#060706" stroke="#060706" stroke-width="1.51"/><path d="M1942,313L1982,471L2009,396Z" fill="#070707" stroke="#070707" stroke-width="1.51"/><path d="M1942,313L1787,355L1982,471Z" fill="#070707" stroke="#070707" stroke-width="1.51"/><path d="M1818,1029L1902,1075L1985,961Z" fill="#050605" stroke="#050605" stroke-width="1.51"/><path d="M1865,824L1818,1029L1985,961Z" fill="#060606" stroke="#060606" stroke-width="1.51"/><path d="M1819,-215L1920,-30L1988,-127Z" fill="#020302" stroke="#020302" stroke-width="1.51"/><path d="M1795,1177L1815,1273L1940,1291Z" fill="#040404" stroke="#040404" stroke-width="1.51"/><path d="M1787,355L1768,494L1982,471Z" fill="#080808" stroke="#080808" stroke-width="1.51"/><path d="M1762,243L1942,313L1955,153Z" fill="#060606" stroke="#060606" stroke-width="1.51"/><path d="M1768,494L1918,550L1982,471Z" fill="#080808" stroke="#080808" stroke-width="1.51"/><path d="M1202,-206L1363,-210L1500,-244Z" fill="#050505" stroke="#050505" stroke-width="1.51"/><path d="M1819,-215L1815,-19L1920,-30Z" fill="#030403" stroke="#030403" stroke-width="1.51"/><path d="M1940,1291L1839,1327L1945,1382Z" fill="#020302" stroke="#020302" stroke-width="1.51"/><path d="M1790,111L1762,243L1955,153Z" fill="#050605" stroke="#050605" stroke-width="1.51"/><path d="M1920,-30L1815,-19L1956,109Z" fill="#040404" stroke="#040404" stroke-width="1.51"/><path d="M1815,-19L1790,111L1956,109Z" fill="#050505" stroke="#050505" stroke-width="1.51"/><path d="M1790,111L1955,153L1956,109Z" fill="#050505" stroke="#050505" stroke-width="1.51"/><path d="M1762,243L1787,355L1942,313Z" fill="#070707" stroke="#070707" stroke-width="1.51"/><path d="M1815,1273L1839,1327L1940,1291Z" fill="#030303" stroke="#030303" stroke-width="1.51"/><path d="M1870,788L1865,824L1924,804Z" fill="#070707" stroke="#070707" stroke-width="1.51"/><path d="M1768,494L1854,647L1918,550Z" fill="#090909" stroke="#090909" stroke-width="1.51"/><path d="M1717,-106L1815,-19L1819,-215Z" fill="#030303" stroke="#030303" stroke-width="1.51"/><path d="M1768,494L1727,575L1854,647Z" fill="#0a0a0a" stroke="#0a0a0a" stroke-width="1.51"/><path d="M1693,899L1818,1029L1865,824Z" fill="#060706" stroke="#060706" stroke-width="1.51"/><path d="M1854,647L1772,706L1870,788Z" fill="#090909" stroke="#090909" stroke-width="1.51"/><path d="M1818,1029L1795,1177L1902,1075Z" fill="#050505" stroke="#050505" stroke-width="1.51"/><path d="M1772,706L1865,824L1870,788Z" fill="#080808" stroke="#080808" stroke-width="1.51"/><path d="M1772,706L1693,899L1865,824Z" fill="#080808" stroke="#080808" stroke-width="1.51"/><path d="M1500,-244L1623,-148L1819,-215Z" fill="#030403" stroke="#030403" stroke-width="1.51"/><path d="M1727,575L1772,706L1854,647Z" fill="#090909" stroke="#090909" stroke-width="1.51"/><path d="M1734,485L1768,494L1787,355Z" fill="#090909" stroke="#090909" stroke-width="1.51"/><path d="M1719,89L1790,111L1815,-19Z" fill="#050505" stroke="#050505" stroke-width="1.51"/><path d="M1815,1273L1729,1332L1839,1327Z" fill="#030303" stroke="#030303" stroke-width="1.51"/><path d="M1795,1177L1665,1198L1815,1273Z" fill="#040504" stroke="#040504" stroke-width="1.51"/><path d="M1620,1120L1795,1177L1818,1029Z" fill="#050605" stroke="#050605" stroke-width="1.51"/><path d="M1626,996L1620,1120L1818,1029Z" fill="#060706" stroke="#060706" stroke-width="1.51"/><path d="M1693,899L1626,996L1818,1029Z" fill="#060706" stroke="#060706" stroke-width="1.51"/><path d="M1623,-148L1717,-106L1819,-215Z" fill="#030403" stroke="#030403" stroke-width="1.51"/><path d="M1665,1198L1729,1332L1815,1273Z" fill="#040404" stroke="#040404" stroke-width="1.51"/><path d="M1601,803L1693,899L1772,706Z" fill="#090909" stroke="#090909" stroke-width="1.51"/><path d="M1620,1120L1665,1198L1795,1177Z" fill="#050605" stroke="#050605" stroke-width="1.51"/><path d="M1717,-106L1719,89L1815,-19Z" fill="#040504" stroke="#040504" stroke-width="1.51"/><path d="M1719,89L1651,155L1762,243Z" fill="#060606" stroke="#060606" stroke-width="1.51"/><path d="M1681,681L1601,803L1772,706Z" fill="#0a0a0a" stroke="#0a0a0a" stroke-width="1.51"/><path d="M1727,575L1681,681L1772,706Z" fill="#0a0a0a" stroke="#0a0a0a" stroke-width="1.51"/><path d="M1762,243L1626,376L1787,355Z" fill="#070807" stroke="#070807" stroke-width="1.51"/><path d="M1626,376L1734,485L1787,355Z" fill="#090909" stroke="#090909" stroke-width="1.51"/><path d="M1719,89L1762,243L1790,111Z" fill="#060606" stroke="#060606" stroke-width="1.51"/><path d="M1717,-106L1595,-64L1719,89Z" fill="#050505" stroke="#050505" stroke-width="1.51"/><path d="M1599,353L1626,376L1762,243Z" fill="#080808" stroke="#080808" stroke-width="1.51"/><path d="M1734,485L1727,575L1768,494Z" fill="#0a0a0a" stroke="#0a0a0a" stroke-width="1.51"/><path d="M1651,155L1599,353L1762,243Z" fill="#070807" stroke="#070807" stroke-width="1.51"/><path d="M1517,466L1727,575L1734,485Z" fill="#0a0a0a" stroke="#0a0a0a" stroke-width="1.51"/><path d="M1626,376L1517,466L1734,485Z" fill="#090909" stroke="#090909" stroke-width="1.51"/><path d="M1609,155L1599,353L1651,155Z" fill="#070807" stroke="#070807" stroke-width="1.51"/><path d="M1665,1198L1516,1336L1729,1332Z" fill="#040504" stroke="#040504" stroke-width="1.51"/><path d="M1595,-64L1609,155L1719,89Z" fill="#050605" stroke="#050605" stroke-width="1.51"/><path d="M1481,610L1681,681L1727,575Z" fill="#0b0b0b" stroke="#0b0b0b" stroke-width="1.51"/><path d="M1517,466L1481,610L1727,575Z" fill="#0b0b0b" stroke="#0b0b0b" stroke-width="1.51"/><path d="M1609,155L1651,155L1719,89Z" fill="#060706" stroke="#060706" stroke-width="1.51"/><path d="M1623,-148L1595,-64L1717,-106Z" fill="#040404" stroke="#040404" stroke-width="1.51"/><path d="M1595,-64L1484,18L1609,155Z" fill="#060606" stroke="#060606" stroke-width="1.51"/><path d="M1601,803L1626,996L1693,899Z" fill="#080808" stroke="#080808" stroke-width="1.51"/><path d="M1601,803L1553,1003L1626,996Z" fill="#080808" stroke="#080808" stroke-width="1.51"/><path d="M1531,1173L1516,1336L1665,1198Z" fill="#050605" stroke="#050605" stroke-width="1.51"/><path d="M1523,743L1601,803L1681,681Z" fill="#0a0a0a" stroke="#0a0a0a" stroke-width="1.51"/><path d="M1481,610L1523,743L1681,681Z" fill="#0b0b0b" stroke="#0b0b0b" stroke-width="1.51"/><path d="M1620,1120L1531,1173L1665,1198Z" fill="#060606" stroke="#060606" stroke-width="1.51"/><path d="M1475,348L1599,353L1609,155Z" fill="#080808" stroke="#080808" stroke-width="1.51"/><path d="M1440,186L1475,348L1609,155Z" fill="#080808" stroke="#080808" stroke-width="1.51"/><path d="M1553,1003L1620,1120L1626,996Z" fill="#070707" stroke="#070707" stroke-width="1.51"/><path d="M1497,1189L1516,1336L1531,1173Z" fill="#060606" stroke="#060606" stroke-width="1.51"/><path d="M1553,1003L1531,1173L1620,1120Z" fill="#060706" stroke="#060706" stroke-width="1.51"/><path d="M1599,353L1517,466L1626,376Z" fill="#0a0a0a" stroke="#0a0a0a" stroke-width="1.51"/><path d="M1381,782L1553,1003L1601,803Z" fill="#090909" stroke="#090909" stroke-width="1.51"/><path d="M1500,-244L1595,-64L1623,-148Z" fill="#040504" stroke="#040504" stroke-width="1.51"/><path d="M1523,743L1381,782L1601,803Z" fill="#0a0a0a" stroke="#0a0a0a" stroke-width="1.51"/><path d="M1478,20L1440,186L1484,18Z" fill="#070707" stroke="#070707" stroke-width="1.51"/><path d="M1381,782L1356,810L1553,1003Z" fill="#090a09" stroke="#090a09" stroke-width="1.51"/><path d="M1475,348L1517,466L1599,353Z" fill="#0a0a0a" stroke="#0a0a0a" stroke-width="1.51"/><path d="M1484,18L1440,186L1609,155Z" fill="#070707" stroke="#070707" stroke-width="1.51"/><path d="M1500,-244L1369,-68L1595,-64Z" fill="#050505" stroke="#050505" stroke-width="1.51"/><path d="M1356,810L1364,996L1553,1003Z" fill="#090909" stroke="#090909" stroke-width="1.51"/><path d="M1369,-68L1484,18L1595,-64Z" fill="#060606" stroke="#060606" stroke-width="1.51"/><path d="M1356,810L1323,865L1364,996Z" fill="#0a0a0a" stroke="#0a0a0a" stroke-width="1.51"/><path d="M1363,-210L1369,-68L1500,-244Z" fill="#050505" stroke="#050505" stroke-width="1.51"/><path d="M1497,1189L1428,1251L1516,1336Z" fill="#050605" stroke="#050605" stroke-width="1.51"/><path d="M1408,1125L1497,1189L1531,1173Z" fill="#060706" stroke="#060706" stroke-width="1.51"/><path d="M1408,1125L1531,1173L1553,1003Z" fill="#070707" stroke="#070707" stroke-width="1.51"/><path d="M1364,996L1408,1125L1553,1003Z" fill="#080808" stroke="#080808" stroke-width="1.51"/><path d="M1369,-68L1478,20L1484,18Z" fill="#060706" stroke="#060706" stroke-width="1.51"/><path d="M1475,348L1383,423L1517,466Z" fill="#0b0b0b" stroke="#0b0b0b" stroke-width="1.51"/><path d="M1365,549L1481,610L1517,466Z" fill="#0c0c0c" stroke="#0c0c0c" stroke-width="1.51"/><path d="M1481,610L1381,782L1523,743Z" fill="#0b0b0b" stroke="#0b0b0b" stroke-width="1.51"/><path d="M1428,1251L1429,1363L1516,1336Z" fill="#050605" stroke="#050605" stroke-width="1.51"/><path d="M1383,423L1365,549L1517,466Z" fill="#0b0b0b" stroke="#0b0b0b" stroke-width="1.51"/><path d="M1440,186L1334,339L1475,348Z" fill="#090a09" stroke="#090a09" stroke-width="1.51"/><path d="M1323,25L1440,186L1478,20Z" fill="#070807" stroke="#070807" stroke-width="1.51"/><path d="M1408,1125L1428,1251L1497,1189Z" fill="#070707" stroke="#070707" stroke-width="1.51"/><path d="M1365,549L1381,782L1481,610Z" fill="#0c0c0c" stroke="#0c0c0c" stroke-width="1.51"/><path d="M1365,549L1276,588L1381,782Z" fill="#0c0c0c" stroke="#0c0c0c" stroke-width="1.51"/><path d="M1300,232L1334,339L1440,186Z" fill="#090a09" stroke="#090a09" stroke-width="1.51"/><path d="M1369,-68L1323,25L1478,20Z" fill="#060706" stroke="#060706" stroke-width="1.51"/><path d="M1334,339L1383,423L1475,348Z" fill="#0a0a0a" stroke="#0a0a0a" stroke-width="1.51"/><path d="M1364,996L1330,1014L1408,1125Z" fill="#080908" stroke="#080908" stroke-width="1.51"/><path d="M1408,1125L1294,1199L1428,1251Z" fill="#070707" stroke="#070707" stroke-width="1.51"/><path d="M1428,1251L1294,1199L1429,1363Z" fill="#060706" stroke="#060706" stroke-width="1.51"/><path d="M1294,1199L1311,1424L1429,1363Z" fill="#060606" stroke="#060606" stroke-width="1.51"/><path d="M1323,25L1300,232L1440,186Z" fill="#080908" stroke="#080908" stroke-width="1.51"/><path d="M1276,588L1291,788L1381,782Z" fill="#0c0c0c" stroke="#0c0c0c" stroke-width="1.51"/><path d="M1363,-210L1261,-147L1369,-68Z" fill="#060606" stroke="#060606" stroke-width="1.51"/><path d="M1330,1014L1294,1199L1408,1125Z" fill="#080808" stroke="#080808" stroke-width="1.51"/><path d="M1226,1175L1294,1199L1330,1014Z" fill="#090909" stroke="#090909" stroke-width="1.51"/><path d="M1323,865L1330,1014L1364,996Z" fill="#090a09" stroke="#090a09" stroke-width="1.51"/><path d="M1289,-40L1323,25L1369,-68Z" fill="#070707" stroke="#070707" stroke-width="1.51"/><path d="M1291,788L1356,810L1381,782Z" fill="#0b0b0b" stroke="#0b0b0b" stroke-width="1.51"/><path d="M1223,468L1365,549L1383,423Z" fill="#0c0c0c" stroke="#0c0c0c" stroke-width="1.51"/><path d="M1334,339L1223,468L1383,423Z" fill="#0c0c0c" stroke="#0c0c0c" stroke-width="1.51"/><path d="M1162,153L1300,232L1323,25Z" fill="#090909" stroke="#090909" stroke-width="1.51"/><path d="M1223,468L1276,588L1365,549Z" fill="#0d0d0d" stroke="#0d0d0d" stroke-width="1.51"/><path d="M1261,-147L1289,-40L1369,-68Z" fill="#070707" stroke="#070707" stroke-width="1.51"/><path d="M1294,1199L1212,1443L1311,1424Z" fill="#070707" stroke="#070707" stroke-width="1.51"/><path d="M1202,-206L1261,-147L1363,-210Z" fill="#060606" stroke="#060606" stroke-width="1.51"/><path d="M1323,865L1143,951L1330,1014Z" fill="#0a0a0a" stroke="#0a0a0a" stroke-width="1.51"/><path d="M1291,788L1323,865L1356,810Z" fill="#0b0b0b" stroke="#0b0b0b" stroke-width="1.51"/><path d="M1223,468L1201,507L1276,588Z" fill="#0d0d0d" stroke="#0d0d0d" stroke-width="1.51"/><path d="M1276,588L1167,618L1291,788Z" fill="#0d0d0d" stroke="#0d0d0d" stroke-width="1.51"/><path d="M1167,618L1205,805L1291,788Z" fill="#0d0d0d" stroke="#0d0d0d" stroke-width="1.51"/><path d="M1226,1175L1124,1217L1294,1199Z" fill="#080808" stroke="#080808" stroke-width="1.51"/><path d="M1124,1217L1212,1443L1294,1199Z" fill="#080808" stroke="#080808" stroke-width="1.51"/><path d="M1141,1121L1226,1175L1330,1014Z" fill="#090909" stroke="#090909" stroke-width="1.51"/><path d="M1300,232L1095,335L1334,339Z" fill="#0b0b0b" stroke="#0b0b0b" stroke-width="1.51"/><path d="M1095,335L1223,468L1334,339Z" fill="#0c0c0c" stroke="#0c0c0c" stroke-width="1.51"/><path d="M1205,805L1143,951L1323,865Z" fill="#0b0b0b" stroke="#0b0b0b" stroke-width="1.51"/><path d="M1143,951L1141,1121L1330,1014Z" fill="#0a0a0a" stroke="#0a0a0a" stroke-width="1.51"/><path d="M1291,788L1205,805L1323,865Z" fill="#0b0b0b" stroke="#0b0b0b" stroke-width="1.51"/><path d="M1289,-40L1162,153L1323,25Z" fill="#080808" stroke="#080808" stroke-width="1.51"/><path d="M1103,109L1162,153L1289,-40Z" fill="#090909" stroke="#090909" stroke-width="1.51"/><path d="M1115,-47L1103,109L1289,-40Z" fill="#080808" stroke="#080808" stroke-width="1.51"/><path d="M1162,153L1095,335L1300,232Z" fill="#0b0b0b" stroke="#0b0b0b" stroke-width="1.51"/><path d="M1261,-147L1115,-47L1289,-40Z" fill="#080808" stroke="#080808" stroke-width="1.51"/><path d="M1201,507L1167,618L1276,588Z" fill="#0e0e0e" stroke="#0e0e0e" stroke-width="1.51"/><path d="M1167,618L1093,670L1205,805Z" fill="#0d0d0d" stroke="#0d0d0d" stroke-width="1.51"/><path d="M1202,-206L1115,-47L1261,-147Z" fill="#070707" stroke="#070707" stroke-width="1.51"/><path d="M890,1412L731,1444L996,1430Z" fill="#070707" stroke="#070707" stroke-width="1.51"/><path d="M1048,-113L1115,-47L1202,-206Z" fill="#080808" stroke="#080808" stroke-width="1.51"/><path d="M1124,1217L996,1430L1212,1443Z" fill="#070707" stroke="#070707" stroke-width="1.51"/><path d="M1095,335L1063,402L1223,468Z" fill="#0d0d0d" stroke="#0d0d0d" stroke-width="1.51"/><path d="M1063,402L1058,454L1223,468Z" fill="#0d0d0d" stroke="#0d0d0d" stroke-width="1.51"/><path d="M1141,1121L1124,1217L1226,1175Z" fill="#090909" stroke="#090909" stroke-width="1.51"/><path d="M1058,454L1201,507L1223,468Z" fill="#0d0d0d" stroke="#0d0d0d" stroke-width="1.51"/><path d="M127,-245L541,-201L629,-220Z" fill="#040404" stroke="#040404" stroke-width="1.51"/><path d="M1028,816L1143,951L1205,805Z" fill="#0c0c0c" stroke="#0c0c0c" stroke-width="1.51"/><path d="M1093,670L1028,816L1205,805Z" fill="#0d0d0d" stroke="#0d0d0d" stroke-width="1.51"/><path d="M1044,537L1167,618L1201,507Z" fill="#0e0e0e" stroke="#0e0e0e" stroke-width="1.51"/><path d="M998,-234L1048,-113L1202,-206Z" fill="#080808" stroke="#080808" stroke-width="1.51"/><path d="M1058,454L1044,537L1201,507Z" fill="#0d0d0d" stroke="#0d0d0d" stroke-width="1.51"/><path d="M-2,1419L-183,1421L169,1441Z" fill="#010201" stroke="#010201" stroke-width="1.51"/><path d="M1078,1190L1124,1217L1141,1121Z" fill="#090909" stroke="#090909" stroke-width="1.51"/><path d="M972,1028L1141,1121L1143,951Z" fill="#0b0b0b" stroke="#0b0b0b" stroke-width="1.51"/><path d="M1103,109L1012,168L1162,153Z" fill="#0a0a0a" stroke="#0a0a0a" stroke-width="1.51"/><path d="M1012,168L1095,335L1162,153Z" fill="#0b0b0b" stroke="#0b0b0b" stroke-width="1.51"/><path d="M1044,537L1093,670L1167,618Z" fill="#0e0e0e" stroke="#0e0e0e" stroke-width="1.51"/><path d="M1078,1190L996,1430L1124,1217Z" fill="#090909" stroke="#090909" stroke-width="1.51"/><path d="M998,121L1103,109L1115,-47Z" fill="#0a0a0a" stroke="#0a0a0a" stroke-width="1.51"/><path d="M972,1028L1054,1160L1141,1121Z" fill="#0a0a0a" stroke="#0a0a0a" stroke-width="1.51"/><path d="M1054,1160L1078,1190L1141,1121Z" fill="#090909" stroke="#090909" stroke-width="1.51"/><path d="M1028,816L938,941L1143,951Z" fill="#0c0c0c" stroke="#0c0c0c" stroke-width="1.51"/><path d="M938,941L972,1028L1143,951Z" fill="#0b0b0b" stroke="#0b0b0b" stroke-width="1.51"/><path d="M950,-34L998,121L1115,-47Z" fill="#0a0a0a" stroke="#0a0a0a" stroke-width="1.51"/><path d="M838,1296L996,1430L1078,1190Z" fill="#090909" stroke="#090909" stroke-width="1.51"/><path d="M962,710L1028,816L1093,670Z" fill="#0e0e0e" stroke="#0e0e0e" stroke-width="1.51"/><path d="M1048,-113L950,-34L1115,-47Z" fill="#090909" stroke="#090909" stroke-width="1.51"/><path d="M1044,537L962,710L1093,670Z" fill="#0e0e0e" stroke="#0e0e0e" stroke-width="1.51"/><path d="M1012,168L874,344L1095,335Z" fill="#0c0c0c" stroke="#0c0c0c" stroke-width="1.51"/><path d="M998,121L1012,168L1103,109Z" fill="#0b0b0b" stroke="#0b0b0b" stroke-width="1.51"/><path d="M1054,1160L838,1296L1078,1190Z" fill="#0a0a0a" stroke="#0a0a0a" stroke-width="1.51"/><path d="M874,344L1063,402L1095,335Z" fill="#0d0d0d" stroke="#0d0d0d" stroke-width="1.51"/><path d="M838,1296L890,1412L996,1430Z" fill="#080808" stroke="#080808" stroke-width="1.51"/><path d="M944,839L938,941L1028,816Z" fill="#0d0d0d" stroke="#0d0d0d" stroke-width="1.51"/><path d="M856,1152L838,1296L1054,1160Z" fill="#090909" stroke="#090909" stroke-width="1.51"/><path d="M629,-220L835,-154L998,-234Z" fill="#070707" stroke="#070707" stroke-width="1.51"/><path d="M864,606L962,710L1044,537Z" fill="#0f0f0f" stroke="#0f0f0f" stroke-width="1.51"/><path d="M874,344L1058,454L1063,402Z" fill="#0e0e0e" stroke="#0e0e0e" stroke-width="1.51"/><path d="M972,1028L856,1152L1054,1160Z" fill="#0b0b0b" stroke="#0b0b0b" stroke-width="1.51"/><path d="M833,424L1044,537L1058,454Z" fill="#0e0e0e" stroke="#0e0e0e" stroke-width="1.51"/><path d="M874,344L833,424L1058,454Z" fill="#0e0e0e" stroke="#0e0e0e" stroke-width="1.51"/><path d="M835,-154L950,-34L998,-234Z" fill="#090909" stroke="#090909" stroke-width="1.51"/><path d="M833,424L864,606L1044,537Z" fill="#0e0e0e" stroke="#0e0e0e" stroke-width="1.51"/><path d="M998,-234L950,-34L1048,-113Z" fill="#090909" stroke="#090909" stroke-width="1.51"/><path d="M922,138L874,344L1012,168Z" fill="#0c0c0c" stroke="#0c0c0c" stroke-width="1.51"/><path d="M833,424L818,444L864,606Z" fill="#0e0e0e" stroke="#0e0e0e" stroke-width="1.51"/><path d="M950,-34L922,138L998,121Z" fill="#0b0b0b" stroke="#0b0b0b" stroke-width="1.51"/><path d="M962,710L944,839L1028,816Z" fill="#0e0e0e" stroke="#0e0e0e" stroke-width="1.51"/><path d="M878,146L874,344L922,138Z" fill="#0b0b0b" stroke="#0b0b0b" stroke-width="1.51"/><path d="M886,794L944,839L962,710Z" fill="#0e0e0e" stroke="#0e0e0e" stroke-width="1.51"/><path d="M998,121L922,138L1012,168Z" fill="#0b0b0b" stroke="#0b0b0b" stroke-width="1.51"/><path d="M878,146L922,138L950,-34Z" fill="#0b0b0b" stroke="#0b0b0b" stroke-width="1.51"/><path d="M774,64L878,146L950,-34Z" fill="#0a0a0a" stroke="#0a0a0a" stroke-width="1.51"/><path d="M938,941L785,1112L972,1028Z" fill="#0b0b0b" stroke="#0b0b0b" stroke-width="1.51"/><path d="M785,1112L856,1152L972,1028Z" fill="#0a0a0a" stroke="#0a0a0a" stroke-width="1.51"/><path d="M788,927L785,1112L938,941Z" fill="#0b0b0b" stroke="#0b0b0b" stroke-width="1.51"/><path d="M864,606L886,794L962,710Z" fill="#0e0e0e" stroke="#0e0e0e" stroke-width="1.51"/><path d="M202,1421L169,1441L731,1444Z" fill="#030403" stroke="#030403" stroke-width="1.51"/><path d="M864,606L820,794L886,794Z" fill="#0e0e0e" stroke="#0e0e0e" stroke-width="1.51"/><path d="M811,900L938,941L944,839Z" fill="#0c0c0c" stroke="#0c0c0c" stroke-width="1.51"/><path d="M835,-154L754,-68L950,-34Z" fill="#090909" stroke="#090909" stroke-width="1.51"/><path d="M754,-68L774,64L950,-34Z" fill="#090909" stroke="#090909" stroke-width="1.51"/><path d="M409,1358L202,1421L731,1444Z" fill="#040504" stroke="#040504" stroke-width="1.51"/><path d="M886,794L811,900L944,839Z" fill="#0d0d0d" stroke="#0d0d0d" stroke-width="1.51"/><path d="M811,900L788,927L938,941Z" fill="#0c0c0c" stroke="#0c0c0c" stroke-width="1.51"/><path d="M723,204L874,344L878,146Z" fill="#0b0b0b" stroke="#0b0b0b" stroke-width="1.51"/><path d="M741,593L820,794L864,606Z" fill="#0e0e0e" stroke="#0e0e0e" stroke-width="1.51"/><path d="M818,444L741,593L864,606Z" fill="#0e0e0e" stroke="#0e0e0e" stroke-width="1.51"/><path d="M694,271L820,382L874,344Z" fill="#0c0c0c" stroke="#0c0c0c" stroke-width="1.51"/><path d="M723,204L694,271L874,344Z" fill="#0b0b0b" stroke="#0b0b0b" stroke-width="1.51"/><path d="M820,382L833,424L874,344Z" fill="#0d0d0d" stroke="#0d0d0d" stroke-width="1.51"/><path d="M820,794L811,900L886,794Z" fill="#0d0d0d" stroke="#0d0d0d" stroke-width="1.51"/><path d="M838,1296L731,1444L890,1412Z" fill="#070707" stroke="#070707" stroke-width="1.51"/><path d="M629,-220L723,-129L835,-154Z" fill="#070707" stroke="#070707" stroke-width="1.51"/><path d="M709,1218L838,1296L856,1152Z" fill="#090909" stroke="#090909" stroke-width="1.51"/><path d="M774,64L723,204L878,146Z" fill="#0a0a0a" stroke="#0a0a0a" stroke-width="1.51"/><path d="M696,1346L731,1444L838,1296Z" fill="#070707" stroke="#070707" stroke-width="1.51"/><path d="M785,1112L709,1218L856,1152Z" fill="#090909" stroke="#090909" stroke-width="1.51"/><path d="M637,991L785,1112L788,927Z" fill="#0a0a0a" stroke="#0a0a0a" stroke-width="1.51"/><path d="M741,593L615,694L820,794Z" fill="#0d0d0d" stroke="#0d0d0d" stroke-width="1.51"/><path d="M723,-129L754,-68L835,-154Z" fill="#080808" stroke="#080808" stroke-width="1.51"/><path d="M709,1218L696,1346L838,1296Z" fill="#080808" stroke="#080808" stroke-width="1.51"/><path d="M127,-245L391,-171L541,-201Z" fill="#040404" stroke="#040404" stroke-width="1.51"/><path d="M649,474L741,593L818,444Z" fill="#0d0d0d" stroke="#0d0d0d" stroke-width="1.51"/><path d="M681,885L811,900L820,794Z" fill="#0c0c0c" stroke="#0c0c0c" stroke-width="1.51"/><path d="M694,271L671,372L820,382Z" fill="#0b0b0b" stroke="#0b0b0b" stroke-width="1.51"/><path d="M820,382L818,444L833,424Z" fill="#0d0d0d" stroke="#0d0d0d" stroke-width="1.51"/><path d="M615,694L681,885L820,794Z" fill="#0c0c0c" stroke="#0c0c0c" stroke-width="1.51"/><path d="M671,372L818,444L820,382Z" fill="#0d0d0d" stroke="#0d0d0d" stroke-width="1.51"/><path d="M671,372L649,474L818,444Z" fill="#0c0c0c" stroke="#0c0c0c" stroke-width="1.51"/><path d="M681,885L788,927L811,900Z" fill="#0c0c0c" stroke="#0c0c0c" stroke-width="1.51"/><path d="M658,1265L696,1346L709,1218Z" fill="#080808" stroke="#080808" stroke-width="1.51"/><path d="M754,-68L693,-76L774,64Z" fill="#080808" stroke="#080808" stroke-width="1.51"/><path d="M624,1116L709,1218L785,1112Z" fill="#090909" stroke="#090909" stroke-width="1.51"/><path d="M637,991L624,1116L785,1112Z" fill="#0a0a0a" stroke="#0a0a0a" stroke-width="1.51"/><path d="M681,885L637,991L788,927Z" fill="#0b0b0b" stroke="#0b0b0b" stroke-width="1.51"/><path d="M693,-76L597,42L774,64Z" fill="#090909" stroke="#090909" stroke-width="1.51"/><path d="M597,42L723,204L774,64Z" fill="#090909" stroke="#090909" stroke-width="1.51"/><path d="M597,42L563,119L723,204Z" fill="#090909" stroke="#090909" stroke-width="1.51"/><path d="M475,1330L409,1358L731,1444Z" fill="#050605" stroke="#050605" stroke-width="1.51"/><path d="M602,659L615,694L741,593Z" fill="#0d0d0d" stroke="#0d0d0d" stroke-width="1.51"/><path d="M723,-129L693,-76L754,-68Z" fill="#080808" stroke="#080808" stroke-width="1.51"/><path d="M615,694L563,837L681,885Z" fill="#0b0b0b" stroke="#0b0b0b" stroke-width="1.51"/><path d="M649,474L602,659L741,593Z" fill="#0d0d0d" stroke="#0d0d0d" stroke-width="1.51"/><path d="M696,1346L475,1330L731,1444Z" fill="#060606" stroke="#060606" stroke-width="1.51"/><path d="M563,119L694,271L723,204Z" fill="#0a0a0a" stroke="#0a0a0a" stroke-width="1.51"/><path d="M629,-220L693,-76L723,-129Z" fill="#070707" stroke="#070707" stroke-width="1.51"/><path d="M624,1116L658,1265L709,1218Z" fill="#080808" stroke="#080808" stroke-width="1.51"/><path d="M629,-220L541,-201L693,-76Z" fill="#060606" stroke="#060606" stroke-width="1.51"/><path d="M563,119L448,234L694,271Z" fill="#090909" stroke="#090909" stroke-width="1.51"/><path d="M472,349L671,372L694,271Z" fill="#0b0b0b" stroke="#0b0b0b" stroke-width="1.51"/><path d="M658,1265L475,1330L696,1346Z" fill="#070707" stroke="#070707" stroke-width="1.51"/><path d="M624,1116L537,1218L658,1265Z" fill="#080808" stroke="#080808" stroke-width="1.51"/><path d="M448,234L472,349L694,271Z" fill="#090a09" stroke="#090a09" stroke-width="1.51"/><path d="M541,-201L597,42L693,-76Z" fill="#070707" stroke="#070707" stroke-width="1.51"/><path d="M541,-201L434,-81L597,42Z" fill="#060606" stroke="#060606" stroke-width="1.51"/><path d="M473,570L602,659L649,474Z" fill="#0c0c0c" stroke="#0c0c0c" stroke-width="1.51"/><path d="M547,439L649,474L671,372Z" fill="#0c0c0c" stroke="#0c0c0c" stroke-width="1.51"/><path d="M563,837L637,991L681,885Z" fill="#0b0b0b" stroke="#0b0b0b" stroke-width="1.51"/><path d="M556,1003L624,1116L637,991Z" fill="#090909" stroke="#090909" stroke-width="1.51"/><path d="M563,837L556,1003L637,991Z" fill="#090a09" stroke="#090a09" stroke-width="1.51"/><path d="M547,439L473,570L649,474Z" fill="#0c0c0c" stroke="#0c0c0c" stroke-width="1.51"/><path d="M472,349L547,439L671,372Z" fill="#0b0b0b" stroke="#0b0b0b" stroke-width="1.51"/><path d="M537,1218L475,1330L658,1265Z" fill="#060706" stroke="#060706" stroke-width="1.51"/><path d="M434,-81L445,13L597,42Z" fill="#060706" stroke="#060706" stroke-width="1.51"/><path d="M556,1003L488,1127L624,1116Z" fill="#080808" stroke="#080808" stroke-width="1.51"/><path d="M488,1127L537,1218L624,1116Z" fill="#070807" stroke="#070807" stroke-width="1.51"/><path d="M447,683L563,837L615,694Z" fill="#0c0c0c" stroke="#0c0c0c" stroke-width="1.51"/><path d="M447,683L426,765L563,837Z" fill="#0b0b0b" stroke="#0b0b0b" stroke-width="1.51"/><path d="M602,659L447,683L615,694Z" fill="#0c0c0c" stroke="#0c0c0c" stroke-width="1.51"/><path d="M473,570L447,683L602,659Z" fill="#0c0c0c" stroke="#0c0c0c" stroke-width="1.51"/><path d="M445,13L563,119L597,42Z" fill="#070807" stroke="#070807" stroke-width="1.51"/><path d="M127,-245L221,-182L391,-171Z" fill="#030403" stroke="#030403" stroke-width="1.51"/><path d="M434,612L447,683L473,570Z" fill="#0c0c0c" stroke="#0c0c0c" stroke-width="1.51"/><path d="M376,818L406,1043L556,1003Z" fill="#080908" stroke="#080908" stroke-width="1.51"/><path d="M406,1043L488,1127L556,1003Z" fill="#080808" stroke="#080808" stroke-width="1.51"/><path d="M376,818L556,1003L563,837Z" fill="#090a09" stroke="#090a09" stroke-width="1.51"/><path d="M426,765L376,818L563,837Z" fill="#0a0a0a" stroke="#0a0a0a" stroke-width="1.51"/><path d="M435,86L448,234L563,119Z" fill="#080808" stroke="#080808" stroke-width="1.51"/><path d="M445,13L435,86L563,119Z" fill="#070807" stroke="#070807" stroke-width="1.51"/><path d="M472,349L311,438L473,570Z" fill="#0b0b0b" stroke="#0b0b0b" stroke-width="1.51"/><path d="M391,-171L434,-81L541,-201Z" fill="#050605" stroke="#050605" stroke-width="1.51"/><path d="M472,349L473,570L547,439Z" fill="#0b0b0b" stroke="#0b0b0b" stroke-width="1.51"/><path d="M488,1127L360,1214L537,1218Z" fill="#070707" stroke="#070707" stroke-width="1.51"/><path d="M360,1214L475,1330L537,1218Z" fill="#060606" stroke="#060606" stroke-width="1.51"/><path d="M448,234L358,270L472,349Z" fill="#080908" stroke="#080908" stroke-width="1.51"/><path d="M360,1214L409,1358L475,1330Z" fill="#050605" stroke="#050605" stroke-width="1.51"/><path d="M406,1043L360,1214L488,1127Z" fill="#070707" stroke="#070707" stroke-width="1.51"/><path d="M335,296L311,438L472,349Z" fill="#090909" stroke="#090909" stroke-width="1.51"/><path d="M311,438L434,612L473,570Z" fill="#0b0b0b" stroke="#0b0b0b" stroke-width="1.51"/><path d="M358,270L335,296L472,349Z" fill="#090909" stroke="#090909" stroke-width="1.51"/><path d="M435,86L358,270L448,234Z" fill="#080808" stroke="#080808" stroke-width="1.51"/><path d="M376,818L274,1031L406,1043Z" fill="#080808" stroke="#080808" stroke-width="1.51"/><path d="M316,1070L360,1214L406,1043Z" fill="#060706" stroke="#060706" stroke-width="1.51"/><path d="M305,265L358,270L435,86Z" fill="#070807" stroke="#070807" stroke-width="1.51"/><path d="M434,-81L282,-76L445,13Z" fill="#050605" stroke="#050605" stroke-width="1.51"/><path d="M434,612L293,708L447,683Z" fill="#0b0b0b" stroke="#0b0b0b" stroke-width="1.51"/><path d="M293,708L426,765L447,683Z" fill="#0b0b0b" stroke="#0b0b0b" stroke-width="1.51"/><path d="M282,-76L435,86L445,13Z" fill="#060606" stroke="#060606" stroke-width="1.51"/><path d="M311,438L189,557L434,612Z" fill="#0b0b0b" stroke="#0b0b0b" stroke-width="1.51"/><path d="M189,557L293,708L434,612Z" fill="#0b0b0b" stroke="#0b0b0b" stroke-width="1.51"/><path d="M391,-171L282,-76L434,-81Z" fill="#040504" stroke="#040504" stroke-width="1.51"/><path d="M198,44L305,265L435,86Z" fill="#070707" stroke="#070707" stroke-width="1.51"/><path d="M282,-76L198,44L435,86Z" fill="#060606" stroke="#060606" stroke-width="1.51"/><path d="M198,44L173,84L305,265Z" fill="#060706" stroke="#060706" stroke-width="1.51"/><path d="M293,708L376,818L426,765Z" fill="#0a0a0a" stroke="#0a0a0a" stroke-width="1.51"/><path d="M200,834L274,1031L376,818Z" fill="#080808" stroke="#080808" stroke-width="1.51"/><path d="M274,1031L316,1070L406,1043Z" fill="#070707" stroke="#070707" stroke-width="1.51"/><path d="M360,1214L265,1216L409,1358Z" fill="#050505" stroke="#050505" stroke-width="1.51"/><path d="M265,1216L202,1421L409,1358Z" fill="#040404" stroke="#040404" stroke-width="1.51"/><path d="M-190,-193L-8,-197L127,-245Z" fill="#010201" stroke="#010201" stroke-width="1.51"/><path d="M316,1070L265,1216L360,1214Z" fill="#060606" stroke="#060606" stroke-width="1.51"/><path d="M221,-182L282,-76L391,-171Z" fill="#040504" stroke="#040504" stroke-width="1.51"/><path d="M293,708L200,834L376,818Z" fill="#090909" stroke="#090909" stroke-width="1.51"/><path d="M200,834L172,984L274,1031Z" fill="#070707" stroke="#070707" stroke-width="1.51"/><path d="M218,385L311,438L335,296Z" fill="#090909" stroke="#090909" stroke-width="1.51"/><path d="M202,1137L265,1216L316,1070Z" fill="#050605" stroke="#050605" stroke-width="1.51"/><path d="M305,265L335,296L358,270Z" fill="#080808" stroke="#080808" stroke-width="1.51"/><path d="M176,1230L202,1421L265,1216Z" fill="#040404" stroke="#040404" stroke-width="1.51"/><path d="M305,265L218,385L335,296Z" fill="#080808" stroke="#080808" stroke-width="1.51"/><path d="M173,84L66,237L305,265Z" fill="#060706" stroke="#060706" stroke-width="1.51"/><path d="M180,414L189,557L311,438Z" fill="#0a0a0a" stroke="#0a0a0a" stroke-width="1.51"/><path d="M274,1031L202,1137L316,1070Z" fill="#060606" stroke="#060606" stroke-width="1.51"/><path d="M218,385L180,414L311,438Z" fill="#090909" stroke="#090909" stroke-width="1.51"/><path d="M97,339L218,385L305,265Z" fill="#070807" stroke="#070807" stroke-width="1.51"/><path d="M66,237L97,339L305,265Z" fill="#070707" stroke="#070707" stroke-width="1.51"/><path d="M189,557L96,586L293,708Z" fill="#0a0a0a" stroke="#0a0a0a" stroke-width="1.51"/><path d="M96,586L65,762L293,708Z" fill="#0a0a0a" stroke="#0a0a0a" stroke-width="1.51"/><path d="M65,762L200,834L293,708Z" fill="#090909" stroke="#090909" stroke-width="1.51"/><path d="M221,-182L146,-93L282,-76Z" fill="#030403" stroke="#030403" stroke-width="1.51"/><path d="M146,-93L198,44L282,-76Z" fill="#040504" stroke="#040504" stroke-width="1.51"/><path d="M172,984L202,1137L274,1031Z" fill="#060606" stroke="#060606" stroke-width="1.51"/><path d="M180,414L135,448L189,557Z" fill="#090909" stroke="#090909" stroke-width="1.51"/><path d="M202,1137L176,1230L265,1216Z" fill="#040504" stroke="#040504" stroke-width="1.51"/><path d="M66,901L172,984L200,834Z" fill="#070807" stroke="#070807" stroke-width="1.51"/><path d="M176,1230L37,1291L202,1421Z" fill="#030303" stroke="#030303" stroke-width="1.51"/><path d="M37,1291L169,1441L202,1421Z" fill="#020302" stroke="#020302" stroke-width="1.51"/><path d="M172,984L120,1107L202,1137Z" fill="#060606" stroke="#060606" stroke-width="1.51"/><path d="M97,339L180,414L218,385Z" fill="#080808" stroke="#080808" stroke-width="1.51"/><path d="M127,-245L146,-93L221,-182Z" fill="#030303" stroke="#030303" stroke-width="1.51"/><path d="M26,712L65,762L96,586Z" fill="#090909" stroke="#090909" stroke-width="1.51"/><path d="M146,-93L173,84L198,44Z" fill="#050505" stroke="#050505" stroke-width="1.51"/><path d="M120,1107L176,1230L202,1137Z" fill="#050505" stroke="#050505" stroke-width="1.51"/><path d="M65,762L66,901L200,834Z" fill="#080808" stroke="#080808" stroke-width="1.51"/><path d="M135,448L96,586L189,557Z" fill="#090909" stroke="#090909" stroke-width="1.51"/><path d="M37,1291L-2,1419L169,1441Z" fill="#020302" stroke="#020302" stroke-width="1.51"/><path d="M146,-93L-79,31L173,84Z" fill="#040404" stroke="#040404" stroke-width="1.51"/><path d="M-29,-110L-79,31L146,-93Z" fill="#030303" stroke="#030303" stroke-width="1.51"/><path d="M47,970L120,1107L172,984Z" fill="#060606" stroke="#060606" stroke-width="1.51"/><path d="M66,901L47,970L172,984Z" fill="#060706" stroke="#060706" stroke-width="1.51"/><path d="M120,1107L37,1291L176,1230Z" fill="#040404" stroke="#040404" stroke-width="1.51"/><path d="M97,339L135,448L180,414Z" fill="#080808" stroke="#080808" stroke-width="1.51"/><path d="M127,-245L-8,-197L146,-93Z" fill="#020302" stroke="#020302" stroke-width="1.51"/><path d="M-79,31L66,237L173,84Z" fill="#040504" stroke="#040504" stroke-width="1.51"/><path d="M-79,31L-101,118L66,237Z" fill="#040504" stroke="#040504" stroke-width="1.51"/><path d="M66,237L39,280L97,339Z" fill="#060706" stroke="#060706" stroke-width="1.51"/><path d="M-56,1130L37,1291L120,1107Z" fill="#040404" stroke="#040404" stroke-width="1.51"/><path d="M-51,518L96,586L135,448Z" fill="#090909" stroke="#090909" stroke-width="1.51"/><path d="M-8,-197L-29,-110L146,-93Z" fill="#020302" stroke="#020302" stroke-width="1.51"/><path d="M97,339L-51,518L135,448Z" fill="#080808" stroke="#080808" stroke-width="1.51"/><path d="M47,970L-56,1130L120,1107Z" fill="#050505" stroke="#050505" stroke-width="1.51"/><path d="M65,762L-18,849L66,901Z" fill="#070707" stroke="#070707" stroke-width="1.51"/><path d="M-101,118L-22,254L66,237Z" fill="#050505" stroke="#050505" stroke-width="1.51"/><path d="M-66,647L26,712L96,586Z" fill="#090909" stroke="#090909" stroke-width="1.51"/><path d="M39,280L-51,518L97,339Z" fill="#070707" stroke="#070707" stroke-width="1.51"/><path d="M-51,518L-66,647L96,586Z" fill="#090909" stroke="#090909" stroke-width="1.51"/><path d="M-175,330L-51,518L-22,254Z" fill="#070707" stroke="#070707" stroke-width="1.51"/><path d="M-22,254L-51,518L39,280Z" fill="#070707" stroke="#070707" stroke-width="1.51"/><path d="M26,712L-18,849L65,762Z" fill="#080808" stroke="#080808" stroke-width="1.51"/><path d="M-18,849L47,970L66,901Z" fill="#060706" stroke="#060706" stroke-width="1.51"/><path d="M-22,254L39,280L66,237Z" fill="#060606" stroke="#060606" stroke-width="1.51"/><path d="M-18,849L-209,1018L47,970Z" fill="#050605" stroke="#050605" stroke-width="1.51"/><path d="M-209,1018L-56,1130L47,970Z" fill="#040504" stroke="#040504" stroke-width="1.51"/><path d="M-56,1130L-204,1199L37,1291Z" fill="#030303" stroke="#030303" stroke-width="1.51"/><path d="M-183,1421L-2,1419L37,1291Z" fill="#010201" stroke="#010201" stroke-width="1.51"/><path d="M-204,1199L-183,1421L37,1291Z" fill="#020202" stroke="#020202" stroke-width="1.51"/><path d="M-167,839L-209,1018L-18,849Z" fill="#050605" stroke="#050605" stroke-width="1.51"/><path d="M-66,647L-112,657L26,712Z" fill="#080808" stroke="#080808" stroke-width="1.51"/><path d="M-177,753L-18,849L26,712Z" fill="#070707" stroke="#070707" stroke-width="1.51"/><path d="M-112,657L-177,753L26,712Z" fill="#080808" stroke="#080808" stroke-width="1.51"/><path d="M-175,330L-177,509L-51,518Z" fill="#070707" stroke="#070707" stroke-width="1.51"/><path d="M-87,-106L-79,31L-29,-110Z" fill="#020302" stroke="#020302" stroke-width="1.51"/><path d="M-101,118L-136,183L-22,254Z" fill="#050505" stroke="#050505" stroke-width="1.51"/><path d="M-177,753L-167,839L-18,849Z" fill="#060606" stroke="#060606" stroke-width="1.51"/><path d="M-87,-106L-29,-110L-8,-197Z" fill="#020202" stroke="#020202" stroke-width="1.51"/><path d="M-190,-193L-87,-106L-8,-197Z" fill="#010101" stroke="#010101" stroke-width="1.51"/><path d="M-209,1018L-192,1111L-56,1130Z" fill="#030403" stroke="#030403" stroke-width="1.51"/><path d="M-136,183L-175,330L-22,254Z" fill="#050505" stroke="#050505" stroke-width="1.51"/><path d="M-112,657L-66,647L-51,518Z" fill="#090909" stroke="#090909" stroke-width="1.51"/><path d="M-192,1111L-204,1199L-56,1130Z" fill="#030303" stroke="#030303" stroke-width="1.51"/><path d="M-177,509L-112,657L-51,518Z" fill="#080808" stroke="#080808" stroke-width="1.51"/><path d="M-87,-106L-190,-193L-79,31Z" fill="#020202" stroke="#020202" stroke-width="1.51"/><path d="M-190,-193L-101,118L-79,31Z" fill="#020302" stroke="#020302" stroke-width="1.51"/><path d="M-190,-193L-136,183L-101,118Z" fill="#030303" stroke="#030303" stroke-width="1.51"/><path d="M-177,509L-177,753L-112,657Z" fill="#080808" stroke="#080808" stroke-width="1.51"/><path d="M-190,-193L-175,330L-136,183Z" fill="#030403" stroke="#030403" stroke-width="1.51"/><path d="M-177,753L-209,1018L-167,839Z" fill="#050505" stroke="#050505" stroke-width="1.51"/><path d="M-209,1018L-177,753L-177,509Z" fill="#060606" stroke="#060606" stroke-width="1.51"/><path d="M-209,1018L-177,509L-175,330Z" fill="#080808" stroke="#080808" stroke-width="1.51"/><path d="M-190,-193L-209,1018L-175,330Z" fill="#060606" stroke="#060606" stroke-width="1.51"/><path d="M-209,1018L-204,1199L-192,1111Z" fill="#030303" stroke="#030303" stroke-width="1.51"/></svg>