
<svg xmlns="http://www.w3.org/2000/svg" width="310" height="218"><path d="M-53,-51L22,-41L80,-42Z" fill="#e3eef9" stroke="#e3eef9" stroke-width="1.51"/><path d="M49,259L2,258L114,268Z" fill="#6f85b2" stroke="#6f85b2" stroke-width="1.51"/><path d="M-53,-51L80,-42L163,-52Z" fill="#d7e7f4" stroke="#d7e7f4" stroke-width="1.51"/><path d="M163,-52L208,-48L252,-50Z" fill="#a2c4e2" stroke="#a2c4e2" stroke-width="1.51"/><path d="M277,265L219,268L308,266Z" fill="#145092" stroke="#145092" stroke-width="1.51"/><path d="M-53,-51L163,-52L324,-54Z" fill="#b8d6eb" stroke="#b8d6eb" stroke-width="1.51"/><path d="M252,-50L291,-50L324,-54Z" fill="#94a8d2" stroke="#94a8d2" stroke-width="1.51"/><path d="M163,-52L252,-50L324,-54Z" fill="#9bb7dc" stroke="#9bb7dc" stroke-width="1.51"/><path d="M313,227L344,241L348,202Z" fill="#0d4d94" stroke="#0d4d94" stroke-width="1.51"/><path d="M344,134L312,169L351,175Z" fill="#2765a4" stroke="#2765a4" stroke-width="1.51"/><path d="M308,266L219,268L355,268Z" fill="#0e488c" stroke="#0e488c" stroke-width="1.51"/><path d="M351,175L348,202L355,268Z" fill="#0f4b8f" stroke="#0f4b8f" stroke-width="1.51"/><path d="M348,202L344,241L355,268Z" fill="#094388" stroke="#094388" stroke-width="1.51"/><path d="M337,109L344,134L356,45Z" fill="#4b77aa" stroke="#4b77aa" stroke-width="1.51"/><path d="M338,71L337,109L356,45Z" fill="#597dae" stroke="#597dae" stroke-width="1.51"/><path d="M329,67L338,71L356,45Z" fill="#6282b1" stroke="#6282b1" stroke-width="1.51"/><path d="M350,22L317,47L356,45Z" fill="#6d86b5" stroke="#6d86b5" stroke-width="1.51"/><path d="M317,47L329,67L356,45Z" fill="#6786b6" stroke="#6786b6" stroke-width="1.51"/><path d="M346,-6L350,22L356,45Z" fill="#7386b3" stroke="#7386b3" stroke-width="1.51"/><path d="M343,-33L346,-6L356,45Z" fill="#798ab6" stroke="#798ab6" stroke-width="1.51"/><path d="M344,134L351,175L356,45Z" fill="#3c6ea5" stroke="#3c6ea5" stroke-width="1.51"/><path d="M351,175L355,268L356,45Z" fill="#245e9a" stroke="#245e9a" stroke-width="1.51"/><path d="M319,134L312,169L344,134Z" fill="#2e6eac" stroke="#2e6eac" stroke-width="1.51"/><path d="M344,241L308,266L355,268Z" fill="#093f81" stroke="#093f81" stroke-width="1.51"/><path d="M343,-33L326,-19L346,-6Z" fill="#8191bd" stroke="#8191bd" stroke-width="1.51"/><path d="M312,169L309,202L348,202Z" fill="#175da3" stroke="#175da3" stroke-width="1.51"/><path d="M346,-6L312,17L350,22Z" fill="#788dbb" stroke="#788dbb" stroke-width="1.51"/><path d="M312,17L317,47L350,22Z" fill="#748dbe" stroke="#748dbe" stroke-width="1.51"/><path d="M312,169L348,202L351,175Z" fill="#1c5c9f" stroke="#1c5c9f" stroke-width="1.51"/><path d="M191,262L114,268L219,268Z" fill="#386aa1" stroke="#386aa1" stroke-width="1.51"/><path d="M319,107L337,109L338,71Z" fill="#4d7cb2" stroke="#4d7cb2" stroke-width="1.51"/><path d="M309,202L313,227L348,202Z" fill="#11569e" stroke="#11569e" stroke-width="1.51"/><path d="M329,67L319,107L338,71Z" fill="#5781b5" stroke="#5781b5" stroke-width="1.51"/><path d="M337,109L319,134L344,134Z" fill="#3a72ac" stroke="#3a72ac" stroke-width="1.51"/><path d="M326,-19L312,17L346,-6Z" fill="#7e92c0" stroke="#7e92c0" stroke-width="1.51"/><path d="M313,227L308,266L344,241Z" fill="#094990" stroke="#094990" stroke-width="1.51"/><path d="M324,-54L326,-19L343,-33Z" fill="#8797c2" stroke="#8797c2" stroke-width="1.51"/><path d="M319,107L319,134L337,109Z" fill="#3f77b1" stroke="#3f77b1" stroke-width="1.51"/><path d="M22,-41L44,-40L80,-42Z" fill="#dbe8f6" stroke="#dbe8f6" stroke-width="1.51"/><path d="M253,261L219,268L277,265Z" fill="#1b5696" stroke="#1b5696" stroke-width="1.51"/><path d="M291,-50L296,-21L324,-54Z" fill="#8ea1ce" stroke="#8ea1ce" stroke-width="1.51"/><path d="M299,9L312,17L326,-19Z" fill="#7f97c8" stroke="#7f97c8" stroke-width="1.51"/><path d="M296,-21L299,9L326,-19Z" fill="#849bca" stroke="#849bca" stroke-width="1.51"/><path d="M324,-54L296,-21L326,-19Z" fill="#899bc9" stroke="#899bc9" stroke-width="1.51"/><path d="M317,47L287,79L329,67Z" fill="#648cbf" stroke="#648cbf" stroke-width="1.51"/><path d="M292,99L319,107L329,67Z" fill="#5283bb" stroke="#5283bb" stroke-width="1.51"/><path d="M287,79L292,99L329,67Z" fill="#5b89bf" stroke="#5b89bf" stroke-width="1.51"/><path d="M298,195L309,202L312,169Z" fill="#1a64aa" stroke="#1a64aa" stroke-width="1.51"/><path d="M282,57L287,79L317,47Z" fill="#6992c4" stroke="#6992c4" stroke-width="1.51"/><path d="M319,107L291,126L319,134Z" fill="#3e7bb7" stroke="#3e7bb7" stroke-width="1.51"/><path d="M291,126L288,171L312,169Z" fill="#2d74b3" stroke="#2d74b3" stroke-width="1.51"/><path d="M309,202L297,223L313,227Z" fill="#1059a2" stroke="#1059a2" stroke-width="1.51"/><path d="M297,223L308,266L313,227Z" fill="#0b509a" stroke="#0b509a" stroke-width="1.51"/><path d="M312,17L282,57L317,47Z" fill="#7293c5" stroke="#7293c5" stroke-width="1.51"/><path d="M292,99L291,126L319,107Z" fill="#4681bb" stroke="#4681bb" stroke-width="1.51"/><path d="M291,126L312,169L319,134Z" fill="#3275b3" stroke="#3275b3" stroke-width="1.51"/><path d="M297,223L277,265L308,266Z" fill="#0e4f95" stroke="#0e4f95" stroke-width="1.51"/><path d="M299,9L268,28L312,17Z" fill="#7d9bcb" stroke="#7d9bcb" stroke-width="1.51"/><path d="M268,28L282,57L312,17Z" fill="#7899ca" stroke="#7899ca" stroke-width="1.51"/><path d="M137,262L114,268L191,262Z" fill="#4572a7" stroke="#4572a7" stroke-width="1.51"/><path d="M288,171L298,195L312,169Z" fill="#216aae" stroke="#216aae" stroke-width="1.51"/><path d="M266,232L277,265L297,223Z" fill="#12589f" stroke="#12589f" stroke-width="1.51"/><path d="M298,195L297,223L309,202Z" fill="#155ea6" stroke="#155ea6" stroke-width="1.51"/><path d="M252,165L288,171L291,126Z" fill="#307ab8" stroke="#307ab8" stroke-width="1.51"/><path d="M247,138L252,165L291,126Z" fill="#3883be" stroke="#3883be" stroke-width="1.51"/><path d="M266,232L297,223L298,195Z" fill="#165ea7" stroke="#165ea7" stroke-width="1.51"/><path d="M255,187L266,232L298,195Z" fill="#1c68ae" stroke="#1c68ae" stroke-width="1.51"/><path d="M296,-21L270,-2L299,9Z" fill="#85a0ce" stroke="#85a0ce" stroke-width="1.51"/><path d="M270,-2L268,28L299,9Z" fill="#82a0cf" stroke="#82a0cf" stroke-width="1.51"/><path d="M291,-50L252,-50L296,-21Z" fill="#92aad4" stroke="#92aad4" stroke-width="1.51"/><path d="M288,171L255,187L298,195Z" fill="#216db1" stroke="#216db1" stroke-width="1.51"/><path d="M252,-50L270,-2L296,-21Z" fill="#8ea9d4" stroke="#8ea9d4" stroke-width="1.51"/><path d="M256,119L291,126L292,99Z" fill="#4687c0" stroke="#4687c0" stroke-width="1.51"/><path d="M268,28L262,46L282,57Z" fill="#759dcd" stroke="#759dcd" stroke-width="1.51"/><path d="M256,119L247,138L291,126Z" fill="#4187c1" stroke="#4187c1" stroke-width="1.51"/><path d="M287,79L247,81L292,99Z" fill="#5b91c5" stroke="#5b91c5" stroke-width="1.51"/><path d="M247,81L256,119L292,99Z" fill="#5290c6" stroke="#5290c6" stroke-width="1.51"/><path d="M282,57L247,81L287,79Z" fill="#6597c8" stroke="#6597c8" stroke-width="1.51"/><path d="M252,165L255,187L288,171Z" fill="#2976b8" stroke="#2976b8" stroke-width="1.51"/><path d="M252,-50L240,-45L270,-2Z" fill="#94b1d9" stroke="#94b1d9" stroke-width="1.51"/><path d="M266,232L253,261L277,265Z" fill="#15579b" stroke="#15579b" stroke-width="1.51"/><path d="M262,46L247,81L282,57Z" fill="#6c9ccb" stroke="#6c9ccb" stroke-width="1.51"/><path d="M255,187L236,196L266,232Z" fill="#216eb2" stroke="#216eb2" stroke-width="1.51"/><path d="M240,-45L230,-3L270,-2Z" fill="#90b0d8" stroke="#90b0d8" stroke-width="1.51"/><path d="M208,-48L240,-45L252,-50Z" fill="#9dbbde" stroke="#9dbbde" stroke-width="1.51"/><path d="M247,81L233,102L256,119Z" fill="#5596c9" stroke="#5596c9" stroke-width="1.51"/><path d="M236,196L223,221L266,232Z" fill="#236db0" stroke="#236db0" stroke-width="1.51"/><path d="M236,31L268,28L270,-2Z" fill="#82a6d3" stroke="#82a6d3" stroke-width="1.51"/><path d="M230,-3L236,31L270,-2Z" fill="#88acd6" stroke="#88acd6" stroke-width="1.51"/><path d="M233,47L247,81L262,46Z" fill="#72a2cf" stroke="#72a2cf" stroke-width="1.51"/><path d="M236,31L262,46L268,28Z" fill="#7ca4d2" stroke="#7ca4d2" stroke-width="1.51"/><path d="M223,221L253,261L266,232Z" fill="#1d63a7" stroke="#1d63a7" stroke-width="1.51"/><path d="M247,138L237,159L252,165Z" fill="#3784bf" stroke="#3784bf" stroke-width="1.51"/><path d="M236,31L233,47L262,46Z" fill="#7ba7d2" stroke="#7ba7d2" stroke-width="1.51"/><path d="M233,47L226,77L247,81Z" fill="#6ea4cf" stroke="#6ea4cf" stroke-width="1.51"/><path d="M237,159L236,196L252,165Z" fill="#307dbc" stroke="#307dbc" stroke-width="1.51"/><path d="M223,221L219,268L253,261Z" fill="#2362a2" stroke="#2362a2" stroke-width="1.51"/><path d="M252,165L236,196L255,187Z" fill="#2a78b9" stroke="#2a78b9" stroke-width="1.51"/><path d="M230,133L247,138L256,119Z" fill="#448dc4" stroke="#448dc4" stroke-width="1.51"/><path d="M233,102L230,133L256,119Z" fill="#4c93c8" stroke="#4c93c8" stroke-width="1.51"/><path d="M208,-48L230,-3L240,-45Z" fill="#99badd" stroke="#99badd" stroke-width="1.51"/><path d="M230,133L237,159L247,138Z" fill="#3e8bc3" stroke="#3e8bc3" stroke-width="1.51"/><path d="M226,77L233,102L247,81Z" fill="#629ecd" stroke="#629ecd" stroke-width="1.51"/><path d="M208,-48L196,-16L230,-3Z" fill="#99bedf" stroke="#99bedf" stroke-width="1.51"/><path d="M205,111L230,133L233,102Z" fill="#5199cb" stroke="#5199cb" stroke-width="1.51"/><path d="M230,-3L208,30L236,31Z" fill="#89b1d8" stroke="#89b1d8" stroke-width="1.51"/><path d="M193,164L236,196L237,159Z" fill="#3684bf" stroke="#3684bf" stroke-width="1.51"/><path d="M80,-42L145,-45L163,-52Z" fill="#bdd9ec" stroke="#bdd9ec" stroke-width="1.51"/><path d="M201,222L219,268L223,221Z" fill="#296dad" stroke="#296dad" stroke-width="1.51"/><path d="M208,30L233,47L236,31Z" fill="#82add6" stroke="#82add6" stroke-width="1.51"/><path d="M193,164L189,196L236,196Z" fill="#3684bf" stroke="#3684bf" stroke-width="1.51"/><path d="M230,133L197,142L237,159Z" fill="#428fc5" stroke="#428fc5" stroke-width="1.51"/><path d="M197,142L193,164L237,159Z" fill="#408fc5" stroke="#408fc5" stroke-width="1.51"/><path d="M198,68L226,77L233,47Z" fill="#74abd2" stroke="#74abd2" stroke-width="1.51"/><path d="M189,196L223,221L236,196Z" fill="#2f7ab8" stroke="#2f7ab8" stroke-width="1.51"/><path d="M201,222L191,262L219,268Z" fill="#2d6aa6" stroke="#2d6aa6" stroke-width="1.51"/><path d="M189,196L201,222L223,221Z" fill="#317ab7" stroke="#317ab7" stroke-width="1.51"/><path d="M208,30L198,68L233,47Z" fill="#7eafd6" stroke="#7eafd6" stroke-width="1.51"/><path d="M226,77L205,111L233,102Z" fill="#5e9fce" stroke="#5e9fce" stroke-width="1.51"/><path d="M189,53L198,68L208,30Z" fill="#81b4d8" stroke="#81b4d8" stroke-width="1.51"/><path d="M196,-16L208,30L230,-3Z" fill="#91b9dc" stroke="#91b9dc" stroke-width="1.51"/><path d="M205,111L197,142L230,133Z" fill="#4d98ca" stroke="#4d98ca" stroke-width="1.51"/><path d="M196,-16L182,13L208,30Z" fill="#94bcde" stroke="#94bcde" stroke-width="1.51"/><path d="M198,68L205,111L226,77Z" fill="#68a7d1" stroke="#68a7d1" stroke-width="1.51"/><path d="M-53,-51L-19,-43L22,-41Z" fill="#ebf3fb" stroke="#ebf3fb" stroke-width="1.51"/><path d="M198,68L175,87L205,111Z" fill="#6cabd3" stroke="#6cabd3" stroke-width="1.51"/><path d="M162,238L191,262L201,222Z" fill="#3773af" stroke="#3773af" stroke-width="1.51"/><path d="M176,112L197,142L205,111Z" fill="#579fce" stroke="#579fce" stroke-width="1.51"/><path d="M175,87L176,112L205,111Z" fill="#65a8d3" stroke="#65a8d3" stroke-width="1.51"/><path d="M179,-22L196,-16L208,-48Z" fill="#9fc4e2" stroke="#9fc4e2" stroke-width="1.51"/><path d="M163,-52L179,-22L208,-48Z" fill="#a7c9e5" stroke="#a7c9e5" stroke-width="1.51"/><path d="M169,38L189,53L208,30Z" fill="#89b8db" stroke="#89b8db" stroke-width="1.51"/><path d="M182,13L169,38L208,30Z" fill="#91bcde" stroke="#91bcde" stroke-width="1.51"/><path d="M161,251L137,262L191,262Z" fill="#3e71a8" stroke="#3e71a8" stroke-width="1.51"/><path d="M172,178L189,196L193,164Z" fill="#438cc4" stroke="#438cc4" stroke-width="1.51"/><path d="M189,196L163,206L201,222Z" fill="#3c80bc" stroke="#3c80bc" stroke-width="1.51"/><path d="M163,206L162,238L201,222Z" fill="#3e7db9" stroke="#3e7db9" stroke-width="1.51"/><path d="M162,238L161,251L191,262Z" fill="#3c72ac" stroke="#3c72ac" stroke-width="1.51"/><path d="M179,-22L182,13L196,-16Z" fill="#9cc2e2" stroke="#9cc2e2" stroke-width="1.51"/><path d="M163,145L193,164L197,142Z" fill="#4c98c9" stroke="#4c98c9" stroke-width="1.51"/><path d="M176,112L163,145L197,142Z" fill="#579fce" stroke="#579fce" stroke-width="1.51"/><path d="M189,53L175,87L198,68Z" fill="#7ab3d7" stroke="#7ab3d7" stroke-width="1.51"/><path d="M163,145L172,178L193,164Z" fill="#4c95c9" stroke="#4c95c9" stroke-width="1.51"/><path d="M151,74L175,87L189,53Z" fill="#7eb6d9" stroke="#7eb6d9" stroke-width="1.51"/><path d="M172,178L163,206L189,196Z" fill="#4389c2" stroke="#4389c2" stroke-width="1.51"/><path d="M169,38L151,74L189,53Z" fill="#88badc" stroke="#88badc" stroke-width="1.51"/><path d="M152,138L163,145L176,112Z" fill="#5ea3d0" stroke="#5ea3d0" stroke-width="1.51"/><path d="M135,-11L149,17L179,-22Z" fill="#a5cae6" stroke="#a5cae6" stroke-width="1.51"/><path d="M179,-22L149,17L182,13Z" fill="#9dc5e3" stroke="#9dc5e3" stroke-width="1.51"/><path d="M149,17L169,38L182,13Z" fill="#98c2e1" stroke="#98c2e1" stroke-width="1.51"/><path d="M163,145L148,174L172,178Z" fill="#5198ca" stroke="#5198ca" stroke-width="1.51"/><path d="M175,87L141,98L176,112Z" fill="#6fafd6" stroke="#6fafd6" stroke-width="1.51"/><path d="M163,-52L145,-45L179,-22Z" fill="#adcfe8" stroke="#adcfe8" stroke-width="1.51"/><path d="M145,-45L135,-11L179,-22Z" fill="#accfe8" stroke="#accfe8" stroke-width="1.51"/><path d="M145,216L162,238L163,206Z" fill="#4683bc" stroke="#4683bc" stroke-width="1.51"/><path d="M141,98L152,138L176,112Z" fill="#68abd4" stroke="#68abd4" stroke-width="1.51"/><path d="M148,174L163,206L172,178Z" fill="#4b8fc6" stroke="#4b8fc6" stroke-width="1.51"/><path d="M151,74L141,98L175,87Z" fill="#7ab5d9" stroke="#7ab5d9" stroke-width="1.51"/><path d="M128,48L151,74L169,38Z" fill="#90c0df" stroke="#90c0df" stroke-width="1.51"/><path d="M149,17L128,48L169,38Z" fill="#9ac4e2" stroke="#9ac4e2" stroke-width="1.51"/><path d="M148,174L130,203L163,206Z" fill="#5090c6" stroke="#5090c6" stroke-width="1.51"/><path d="M130,203L145,216L163,206Z" fill="#4e8ac1" stroke="#4e8ac1" stroke-width="1.51"/><path d="M152,138L148,174L163,145Z" fill="#589fcd" stroke="#589fcd" stroke-width="1.51"/><path d="M145,216L119,241L162,238Z" fill="#4d82bb" stroke="#4d82bb" stroke-width="1.51"/><path d="M137,262L161,251L162,238Z" fill="#4477ae" stroke="#4477ae" stroke-width="1.51"/><path d="M119,241L137,262L162,238Z" fill="#4c7bb2" stroke="#4c7bb2" stroke-width="1.51"/><path d="M112,99L99,126L141,98Z" fill="#7fb8da" stroke="#7fb8da" stroke-width="1.51"/><path d="M80,-42L101,-30L145,-45Z" fill="#c3ddee" stroke="#c3ddee" stroke-width="1.51"/><path d="M135,-11L122,6L149,17Z" fill="#aacee7" stroke="#aacee7" stroke-width="1.51"/><path d="M141,98L99,126L152,138Z" fill="#73b0d6" stroke="#73b0d6" stroke-width="1.51"/><path d="M99,126L108,157L152,138Z" fill="#70add4" stroke="#70add4" stroke-width="1.51"/><path d="M108,157L148,174L152,138Z" fill="#61a2cf" stroke="#61a2cf" stroke-width="1.51"/><path d="M122,6L128,48L149,17Z" fill="#a6cbe5" stroke="#a6cbe5" stroke-width="1.51"/><path d="M101,66L112,99L151,74Z" fill="#8fc1de" stroke="#8fc1de" stroke-width="1.51"/><path d="M111,54L101,66L151,74Z" fill="#97c5e0" stroke="#97c5e0" stroke-width="1.51"/><path d="M128,48L111,54L151,74Z" fill="#96c4e0" stroke="#96c4e0" stroke-width="1.51"/><path d="M112,99L141,98L151,74Z" fill="#82badb" stroke="#82badb" stroke-width="1.51"/><path d="M107,190L130,203L148,174Z" fill="#5c97c9" stroke="#5c97c9" stroke-width="1.51"/><path d="M101,-30L135,-11L145,-45Z" fill="#b8d6eb" stroke="#b8d6eb" stroke-width="1.51"/><path d="M108,157L107,190L148,174Z" fill="#649fcd" stroke="#649fcd" stroke-width="1.51"/><path d="M130,203L119,241L145,216Z" fill="#5589bf" stroke="#5589bf" stroke-width="1.51"/><path d="M86,255L49,259L114,268Z" fill="#6581af" stroke="#6581af" stroke-width="1.51"/><path d="M119,241L114,268L137,262Z" fill="#537bad" stroke="#537bad" stroke-width="1.51"/><path d="M122,6L111,54L128,48Z" fill="#a6cbe4" stroke="#a6cbe4" stroke-width="1.51"/><path d="M90,208L119,241L130,203Z" fill="#5f8fc2" stroke="#5f8fc2" stroke-width="1.51"/><path d="M107,-3L122,6L135,-11Z" fill="#b3d3e9" stroke="#b3d3e9" stroke-width="1.51"/><path d="M101,-30L107,-3L135,-11Z" fill="#b9d7eb" stroke="#b9d7eb" stroke-width="1.51"/><path d="M84,8L111,54L122,6Z" fill="#b2d2e8" stroke="#b2d2e8" stroke-width="1.51"/><path d="M107,190L90,208L130,203Z" fill="#6497c8" stroke="#6497c8" stroke-width="1.51"/><path d="M86,255L114,268L119,241Z" fill="#5d80b0" stroke="#5d80b0" stroke-width="1.51"/><path d="M107,-3L84,8L122,6Z" fill="#b8d6ea" stroke="#b8d6ea" stroke-width="1.51"/><path d="M92,163L107,190L108,157Z" fill="#6fa5d0" stroke="#6fa5d0" stroke-width="1.51"/><path d="M90,208L86,255L119,241Z" fill="#648abe" stroke="#648abe" stroke-width="1.51"/><path d="M75,216L86,255L90,208Z" fill="#6c90c3" stroke="#6c90c3" stroke-width="1.51"/><path d="M84,8L68,56L111,54Z" fill="#b2d2e8" stroke="#b2d2e8" stroke-width="1.51"/><path d="M80,118L99,126L112,99Z" fill="#85bbdb" stroke="#85bbdb" stroke-width="1.51"/><path d="M101,66L85,73L112,99Z" fill="#98c6e0" stroke="#98c6e0" stroke-width="1.51"/><path d="M99,126L92,163L108,157Z" fill="#76afd5" stroke="#76afd5" stroke-width="1.51"/><path d="M68,56L101,66L111,54Z" fill="#a6cde3" stroke="#a6cde3" stroke-width="1.51"/><path d="M85,73L80,118L112,99Z" fill="#91c1df" stroke="#91c1df" stroke-width="1.51"/><path d="M101,-30L76,-16L107,-3Z" fill="#c2dced" stroke="#c2dced" stroke-width="1.51"/><path d="M72,146L92,163L99,126Z" fill="#7db2d7" stroke="#7db2d7" stroke-width="1.51"/><path d="M76,-16L84,8L107,-3Z" fill="#c1daed" stroke="#c1daed" stroke-width="1.51"/><path d="M92,163L90,208L107,190Z" fill="#6d9fcd" stroke="#6d9fcd" stroke-width="1.51"/><path d="M45,170L90,208L92,163Z" fill="#78a5d1" stroke="#78a5d1" stroke-width="1.51"/><path d="M80,118L72,146L99,126Z" fill="#85b8da" stroke="#85b8da" stroke-width="1.51"/><path d="M68,56L85,73L101,66Z" fill="#a7cde4" stroke="#a7cde4" stroke-width="1.51"/><path d="M80,-42L76,-16L101,-30Z" fill="#c9e0ef" stroke="#c9e0ef" stroke-width="1.51"/><path d="M45,170L52,209L90,208Z" fill="#7aa1cf" stroke="#7aa1cf" stroke-width="1.51"/><path d="M47,17L68,56L84,8Z" fill="#c0d8ed" stroke="#c0d8ed" stroke-width="1.51"/><path d="M61,114L80,118L85,73Z" fill="#95c3e0" stroke="#95c3e0" stroke-width="1.51"/><path d="M53,75L61,114L85,73Z" fill="#a1c9e3" stroke="#a1c9e3" stroke-width="1.51"/><path d="M52,209L75,216L90,208Z" fill="#7399c9" stroke="#7399c9" stroke-width="1.51"/><path d="M72,146L45,170L92,163Z" fill="#80afd6" stroke="#80afd6" stroke-width="1.51"/><path d="M62,127L72,146L80,118Z" fill="#8ab9dc" stroke="#8ab9dc" stroke-width="1.51"/><path d="M75,216L49,259L86,255Z" fill="#6e8bbc" stroke="#6e8bbc" stroke-width="1.51"/><path d="M47,17L44,45L68,56Z" fill="#bfd8ec" stroke="#bfd8ec" stroke-width="1.51"/><path d="M46,220L49,259L75,216Z" fill="#7592c5" stroke="#7592c5" stroke-width="1.51"/><path d="M68,56L53,75L85,73Z" fill="#abcfe5" stroke="#abcfe5" stroke-width="1.51"/><path d="M76,-16L47,17L84,8Z" fill="#c6dcef" stroke="#c6dcef" stroke-width="1.51"/><path d="M47,-20L47,17L76,-16Z" fill="#cde0f1" stroke="#cde0f1" stroke-width="1.51"/><path d="M47,-20L76,-16L80,-42Z" fill="#cfe2f1" stroke="#cfe2f1" stroke-width="1.51"/><path d="M44,-40L47,-20L80,-42Z" fill="#d6e5f4" stroke="#d6e5f4" stroke-width="1.51"/><path d="M61,114L62,127L80,118Z" fill="#90bede" stroke="#90bede" stroke-width="1.51"/><path d="M52,209L46,220L75,216Z" fill="#7899ca" stroke="#7899ca" stroke-width="1.51"/><path d="M62,127L31,132L72,146Z" fill="#8ebadd" stroke="#8ebadd" stroke-width="1.51"/><path d="M31,132L45,170L72,146Z" fill="#8bb6db" stroke="#8bb6db" stroke-width="1.51"/><path d="M53,75L27,102L61,114Z" fill="#a2c9e4" stroke="#a2c9e4" stroke-width="1.51"/><path d="M44,45L53,75L68,56Z" fill="#b5d4e9" stroke="#b5d4e9" stroke-width="1.51"/><path d="M31,132L27,162L45,170Z" fill="#8db6db" stroke="#8db6db" stroke-width="1.51"/><path d="M13,253L2,258L49,259Z" fill="#798cb8" stroke="#798cb8" stroke-width="1.51"/><path d="M61,114L31,132L62,127Z" fill="#94bfe0" stroke="#94bfe0" stroke-width="1.51"/><path d="M27,102L31,132L61,114Z" fill="#9bc3e2" stroke="#9bc3e2" stroke-width="1.51"/><path d="M2,200L10,211L45,170Z" fill="#87a7d4" stroke="#87a7d4" stroke-width="1.51"/><path d="M9,226L13,253L46,220Z" fill="#7f96c7" stroke="#7f96c7" stroke-width="1.51"/><path d="M28,18L44,45L47,17Z" fill="#c9dcf0" stroke="#c9dcf0" stroke-width="1.51"/><path d="M28,18L47,17L47,-20Z" fill="#cfe0f1" stroke="#cfe0f1" stroke-width="1.51"/><path d="M15,-20L28,18L47,-20Z" fill="#d5e4f4" stroke="#d5e4f4" stroke-width="1.51"/><path d="M46,220L13,253L49,259Z" fill="#788fbf" stroke="#788fbf" stroke-width="1.51"/><path d="M45,170L10,211L52,209Z" fill="#82a4d2" stroke="#82a4d2" stroke-width="1.51"/><path d="M44,45L24,71L53,75Z" fill="#b6d5e9" stroke="#b6d5e9" stroke-width="1.51"/><path d="M24,71L27,102L53,75Z" fill="#aed0e7" stroke="#aed0e7" stroke-width="1.51"/><path d="M27,162L2,200L45,170Z" fill="#8aaed7" stroke="#8aaed7" stroke-width="1.51"/><path d="M10,211L46,220L52,209Z" fill="#7f9dcc" stroke="#7f9dcc" stroke-width="1.51"/><path d="M44,-40L22,-41L47,-20Z" fill="#dbe8f6" stroke="#dbe8f6" stroke-width="1.51"/><path d="M28,18L19,45L44,45Z" fill="#c6dcef" stroke="#c6dcef" stroke-width="1.51"/><path d="M19,45L24,71L44,45Z" fill="#bed8ec" stroke="#bed8ec" stroke-width="1.51"/><path d="M22,-41L15,-20L47,-20Z" fill="#dbe9f6" stroke="#dbe9f6" stroke-width="1.51"/><path d="M10,211L9,226L46,220Z" fill="#819ccb" stroke="#819ccb" stroke-width="1.51"/><path d="M24,71L-15,78L27,102Z" fill="#b2d3e9" stroke="#b2d3e9" stroke-width="1.51"/><path d="M15,-20L-5,8L28,18Z" fill="#d6e5f5" stroke="#d6e5f5" stroke-width="1.51"/><path d="M27,102L-2,113L31,132Z" fill="#a0c7e4" stroke="#a0c7e4" stroke-width="1.51"/><path d="M-17,138L27,162L31,132Z" fill="#96bddf" stroke="#96bddf" stroke-width="1.51"/><path d="M-2,113L-17,138L31,132Z" fill="#9fc4e3" stroke="#9fc4e3" stroke-width="1.51"/><path d="M-15,78L-2,113L27,102Z" fill="#accfe8" stroke="#accfe8" stroke-width="1.51"/><path d="M-17,138L-18,160L27,162Z" fill="#96bcde" stroke="#96bcde" stroke-width="1.51"/><path d="M-18,160L2,200L27,162Z" fill="#8fb2d9" stroke="#8fb2d9" stroke-width="1.51"/><path d="M-5,8L19,45L28,18Z" fill="#cfe1f2" stroke="#cfe1f2" stroke-width="1.51"/><path d="M2,-22L15,-20L22,-41Z" fill="#dfebf8" stroke="#dfebf8" stroke-width="1.51"/><path d="M19,45L-17,52L24,71Z" fill="#c2dbed" stroke="#c2dbed" stroke-width="1.51"/><path d="M-17,52L-15,78L24,71Z" fill="#bfdaec" stroke="#bfdaec" stroke-width="1.51"/><path d="M2,-22L-5,8L15,-20Z" fill="#dce9f6" stroke="#dce9f6" stroke-width="1.51"/><path d="M-5,8L-17,52L19,45Z" fill="#cee1f1" stroke="#cee1f1" stroke-width="1.51"/><path d="M-19,-43L2,-22L22,-41Z" fill="#e3eef8" stroke="#e3eef8" stroke-width="1.51"/><path d="M9,226L-9,239L13,253Z" fill="#8196c5" stroke="#8196c5" stroke-width="1.51"/><path d="M-9,239L2,258L13,253Z" fill="#7f92be" stroke="#7f92be" stroke-width="1.51"/><path d="M2,200L-9,239L9,226Z" fill="#869ecd" stroke="#869ecd" stroke-width="1.51"/><path d="M2,200L9,226L10,211Z" fill="#86a1cf" stroke="#86a1cf" stroke-width="1.51"/><path d="M-43,22L-17,52L-5,8Z" fill="#d6e6f5" stroke="#d6e6f5" stroke-width="1.51"/><path d="M-18,160L-36,161L2,200Z" fill="#95b5db" stroke="#95b5db" stroke-width="1.51"/><path d="M-36,161L-53,202L2,200Z" fill="#94b1d9" stroke="#94b1d9" stroke-width="1.51"/><path d="M-53,202L-45,219L2,200Z" fill="#91a9d4" stroke="#91a9d4" stroke-width="1.51"/><path d="M-45,219L-9,239L2,200Z" fill="#8ba1ce" stroke="#8ba1ce" stroke-width="1.51"/><path d="M-43,-17L-5,8L2,-22Z" fill="#e0ecf8" stroke="#e0ecf8" stroke-width="1.51"/><path d="M-19,-43L-43,-17L2,-22Z" fill="#e6f0f9" stroke="#e6f0f9" stroke-width="1.51"/><path d="M-9,239L-51,252L2,258Z" fill="#8594c0" stroke="#8594c0" stroke-width="1.51"/><path d="M-15,78L-52,106L-2,113Z" fill="#b2d3ea" stroke="#b2d3ea" stroke-width="1.51"/><path d="M-52,106L-17,138L-2,113Z" fill="#a9cbe6" stroke="#a9cbe6" stroke-width="1.51"/><path d="M-43,-17L-43,22L-5,8Z" fill="#dfebf7" stroke="#dfebf7" stroke-width="1.51"/><path d="M-43,22L-28,55L-17,52Z" fill="#d1e3f2" stroke="#d1e3f2" stroke-width="1.51"/><path d="M-52,106L-40,141L-17,138Z" fill="#a8cae5" stroke="#a8cae5" stroke-width="1.51"/><path d="M-17,52L-28,55L-15,78Z" fill="#c5deee" stroke="#c5deee" stroke-width="1.51"/><path d="M-45,219L-51,252L-9,239Z" fill="#8b9dc9" stroke="#8b9dc9" stroke-width="1.51"/><path d="M-40,141L-36,161L-18,160Z" fill="#9ec0e0" stroke="#9ec0e0" stroke-width="1.51"/><path d="M-40,141L-18,160L-17,138Z" fill="#9fc2e1" stroke="#9fc2e1" stroke-width="1.51"/><path d="M-28,55L-48,68L-15,78Z" fill="#c6deee" stroke="#c6deee" stroke-width="1.51"/><path d="M-48,68L-52,106L-15,78Z" fill="#bedaed" stroke="#bedaed" stroke-width="1.51"/><path d="M-53,-51L-43,-17L-19,-43Z" fill="#eef5fc" stroke="#eef5fc" stroke-width="1.51"/><path d="M-43,22L-48,68L-28,55Z" fill="#d1e4f2" stroke="#d1e4f2" stroke-width="1.51"/><path d="M-40,141L-53,202L-36,161Z" fill="#9dbcde" stroke="#9dbcde" stroke-width="1.51"/><path d="M-52,106L-53,202L-40,141Z" fill="#a3c4e2" stroke="#a3c4e2" stroke-width="1.51"/><path d="M-43,-17L-53,-51L-43,22Z" fill="#e9f1fb" stroke="#e9f1fb" stroke-width="1.51"/><path d="M-53,-51L-48,68L-43,22Z" fill="#e1ecf8" stroke="#e1ecf8" stroke-width="1.51"/><path d="M-53,202L-51,252L-45,219Z" fill="#92a4cf" stroke="#92a4cf" stroke-width="1.51"/><path d="M-53,-51L-52,106L-48,68Z" fill="#d7e7f4" stroke="#d7e7f4" stroke-width="1.51"/></svg>