<svg xmlns="http://www.w3.org/2000/svg" width="400" height="30"><path d="M132,69L53,77L244,77Z" fill="#eab333" stroke="#eab333" stroke-width="1.51"/><path d="M188,-40L241,-40L307,-46Z" fill="#f2d963" stroke="#f2d963" stroke-width="1.51"/><path d="M80,-48L188,-40L307,-46Z" fill="#f0d156" stroke="#f0d156" stroke-width="1.51"/><path d="M329,-41L353,-36L403,-37Z" fill="#f6cd55" stroke="#f6cd55" stroke-width="1.51"/><path d="M329,-41L403,-37L438,-45Z" fill="#f7ca4e" stroke="#f7ca4e" stroke-width="1.51"/><path d="M307,-46L329,-41L438,-45Z" fill="#f8d159" stroke="#f8d159" stroke-width="1.51"/><path d="M438,-45L403,-37L444,-13Z" fill="#f3be3d" stroke="#f3be3d" stroke-width="1.51"/><path d="M403,-37L400,-9L444,-13Z" fill="#eeba3a" stroke="#eeba3a" stroke-width="1.51"/><path d="M405,3L430,24L444,-13Z" fill="#ebb83c" stroke="#ebb83c" stroke-width="1.51"/><path d="M430,24L414,42L445,31Z" fill="#f3c95b" stroke="#f3c95b" stroke-width="1.51"/><path d="M444,-13L430,24L445,31Z" fill="#eebb43" stroke="#eebb43" stroke-width="1.51"/><path d="M416,56L378,71L445,54Z" fill="#f5bb47" stroke="#f5bb47" stroke-width="1.51"/><path d="M445,31L414,42L445,54Z" fill="#f4c556" stroke="#f4c556" stroke-width="1.51"/><path d="M414,42L416,56L445,54Z" fill="#f5c04f" stroke="#f5c04f" stroke-width="1.51"/><path d="M400,-9L405,3L444,-13Z" fill="#e8b331" stroke="#e8b331" stroke-width="1.51"/><path d="M396,29L414,42L430,24Z" fill="#f2cb5f" stroke="#f2cb5f" stroke-width="1.51"/><path d="M405,3L396,29L430,24Z" fill="#efc451" stroke="#efc451" stroke-width="1.51"/><path d="M353,-36L387,-30L403,-37Z" fill="#f4c84d" stroke="#f4c84d" stroke-width="1.51"/><path d="M414,42L396,29L416,56Z" fill="#f4ca5e" stroke="#f4ca5e" stroke-width="1.51"/><path d="M396,29L378,71L416,56Z" fill="#f4c556" stroke="#f4c556" stroke-width="1.51"/><path d="M111,69L53,77L132,69Z" fill="#eab330" stroke="#eab330" stroke-width="1.51"/><path d="M387,-30L400,-9L403,-37Z" fill="#f0c143" stroke="#f0c143" stroke-width="1.51"/><path d="M400,-9L384,10L405,3Z" fill="#eabc41" stroke="#eabc41" stroke-width="1.51"/><path d="M384,10L396,29L405,3Z" fill="#edc451" stroke="#edc451" stroke-width="1.51"/><path d="M353,30L378,71L396,29Z" fill="#f3cf66" stroke="#f3cf66" stroke-width="1.51"/><path d="M387,-30L375,-16L400,-9Z" fill="#edbf42" stroke="#edbf42" stroke-width="1.51"/><path d="M375,-16L384,10L400,-9Z" fill="#e8ba3c" stroke="#e8ba3c" stroke-width="1.51"/><path d="M280,63L244,77L346,74Z" fill="#f4ca5e" stroke="#f4ca5e" stroke-width="1.51"/><path d="M384,10L353,30L396,29Z" fill="#efcd60" stroke="#efcd60" stroke-width="1.51"/><path d="M353,30L351,65L378,71Z" fill="#f4c95d" stroke="#f4c95d" stroke-width="1.51"/><path d="M366,5L353,30L384,10Z" fill="#edca59" stroke="#edca59" stroke-width="1.51"/><path d="M375,-16L366,5L384,10Z" fill="#e9bf45" stroke="#e9bf45" stroke-width="1.51"/><path d="M353,-36L375,-16L387,-30Z" fill="#f1c64c" stroke="#f1c64c" stroke-width="1.51"/><path d="M203,67L132,69L244,77Z" fill="#edbe46" stroke="#edbe46" stroke-width="1.51"/><path d="M351,65L346,74L378,71Z" fill="#f5be4c" stroke="#f5be4c" stroke-width="1.51"/><path d="M352,1L366,5L375,-16Z" fill="#e8bf45" stroke="#e8bf45" stroke-width="1.51"/><path d="M353,-36L352,1L375,-16Z" fill="#ecc34a" stroke="#ecc34a" stroke-width="1.51"/><path d="M335,-8L352,1L353,-36Z" fill="#ebc44d" stroke="#ebc44d" stroke-width="1.51"/><path d="M349,7L353,30L366,5Z" fill="#edcb5c" stroke="#edcb5c" stroke-width="1.51"/><path d="M352,1L349,7L366,5Z" fill="#eac551" stroke="#eac551" stroke-width="1.51"/><path d="M-15,-45L18,-43L80,-48Z" fill="#f6d04c" stroke="#f6d04c" stroke-width="1.51"/><path d="M241,-40L258,-37L307,-46Z" fill="#f4db69" stroke="#f4db69" stroke-width="1.51"/><path d="M305,56L280,63L346,74Z" fill="#f4cc61" stroke="#f4cc61" stroke-width="1.51"/><path d="M339,31L305,56L351,65Z" fill="#f3d26a" stroke="#f3d26a" stroke-width="1.51"/><path d="M329,-41L335,-8L353,-36Z" fill="#f1cc56" stroke="#f1cc56" stroke-width="1.51"/><path d="M339,31L351,65L353,30Z" fill="#f2d66f" stroke="#f2d66f" stroke-width="1.51"/><path d="M349,7L339,31L353,30Z" fill="#eed267" stroke="#eed267" stroke-width="1.51"/><path d="M335,-8L349,7L352,1Z" fill="#e8c44f" stroke="#e8c44f" stroke-width="1.51"/><path d="M320,15L339,31L349,7Z" fill="#edd266" stroke="#edd266" stroke-width="1.51"/><path d="M305,56L346,74L351,65Z" fill="#f4c759" stroke="#f4c759" stroke-width="1.51"/><path d="M335,-8L320,15L349,7Z" fill="#eac957" stroke="#eac957" stroke-width="1.51"/><path d="M298,-16L304,-7L329,-41Z" fill="#edcf5b" stroke="#edcf5b" stroke-width="1.51"/><path d="M329,-41L304,-7L335,-8Z" fill="#eccb56" stroke="#eccb56" stroke-width="1.51"/><path d="M320,15L304,36L339,31Z" fill="#efda74" stroke="#efda74" stroke-width="1.51"/><path d="M304,36L305,56L339,31Z" fill="#f1dd7a" stroke="#f1dd7a" stroke-width="1.51"/><path d="M298,-36L298,-16L329,-41Z" fill="#f1d461" stroke="#f1d461" stroke-width="1.51"/><path d="M304,-7L320,15L335,-8Z" fill="#e7c956" stroke="#e7c956" stroke-width="1.51"/><path d="M307,-46L298,-36L329,-41Z" fill="#f5d865" stroke="#f5d865" stroke-width="1.51"/><path d="M80,-48L164,-36L188,-40Z" fill="#ecc845" stroke="#ecc845" stroke-width="1.51"/><path d="M304,-7L288,25L320,15Z" fill="#ead367" stroke="#ead367" stroke-width="1.51"/><path d="M288,25L304,36L320,15Z" fill="#eddc77" stroke="#eddc77" stroke-width="1.51"/><path d="M81,71L53,77L111,69Z" fill="#ecb532" stroke="#ecb532" stroke-width="1.51"/><path d="M304,36L278,40L305,56Z" fill="#f0de7c" stroke="#f0de7c" stroke-width="1.51"/><path d="M258,-37L298,-36L307,-46Z" fill="#f4dc6c" stroke="#f4dc6c" stroke-width="1.51"/><path d="M278,40L274,52L280,63Z" fill="#f0da75" stroke="#f0da75" stroke-width="1.51"/><path d="M261,-6L274,24L288,25Z" fill="#e9d86e" stroke="#e9d86e" stroke-width="1.51"/><path d="M298,-16L261,-6L304,-7Z" fill="#e7ce5b" stroke="#e7ce5b" stroke-width="1.51"/><path d="M261,-6L288,25L304,-7Z" fill="#e8d365" stroke="#e8d365" stroke-width="1.51"/><path d="M278,40L280,63L305,56Z" fill="#f1d974" stroke="#f1d974" stroke-width="1.51"/><path d="M188,-40L215,-36L241,-40Z" fill="#efd259" stroke="#efd259" stroke-width="1.51"/><path d="M288,25L278,40L304,36Z" fill="#eee484" stroke="#eee484" stroke-width="1.51"/><path d="M274,48L274,52L278,40Z" fill="#f0dd7a" stroke="#f0dd7a" stroke-width="1.51"/><path d="M298,-36L258,-37L298,-16Z" fill="#efd867" stroke="#efd867" stroke-width="1.51"/><path d="M258,-37L261,-6L298,-16Z" fill="#ead15f" stroke="#ead15f" stroke-width="1.51"/><path d="M274,24L278,40L288,25Z" fill="#ede281" stroke="#ede281" stroke-width="1.51"/><path d="M274,52L244,77L280,63Z" fill="#f2ce64" stroke="#f2ce64" stroke-width="1.51"/><path d="M274,24L274,48L278,40Z" fill="#eee584" stroke="#eee584" stroke-width="1.51"/><path d="M80,-48L146,-34L164,-36Z" fill="#eac53f" stroke="#eac53f" stroke-width="1.51"/><path d="M261,-6L230,11L274,24Z" fill="#e7d264" stroke="#e7d264" stroke-width="1.51"/><path d="M230,11L240,50L274,24Z" fill="#ebdc77" stroke="#ebdc77" stroke-width="1.51"/><path d="M274,24L240,50L274,48Z" fill="#eee07d" stroke="#eee07d" stroke-width="1.51"/><path d="M274,48L240,50L274,52Z" fill="#f0d973" stroke="#f0d973" stroke-width="1.51"/><path d="M240,50L244,77L274,52Z" fill="#f1d065" stroke="#f1d065" stroke-width="1.51"/><path d="M258,-37L241,-40L261,-6Z" fill="#edd25e" stroke="#edd25e" stroke-width="1.51"/><path d="M241,-40L228,0L261,-6Z" fill="#e7cb54" stroke="#e7cb54" stroke-width="1.51"/><path d="M228,0L230,11L261,-6Z" fill="#e4ca57" stroke="#e4ca57" stroke-width="1.51"/><path d="M230,11L221,40L240,50Z" fill="#ebdd77" stroke="#ebdd77" stroke-width="1.51"/><path d="M215,-36L228,0L241,-40Z" fill="#eacd55" stroke="#eacd55" stroke-width="1.51"/><path d="M240,50L203,67L244,77Z" fill="#f0c859" stroke="#f0c859" stroke-width="1.51"/><path d="M221,40L203,67L240,50Z" fill="#eed064" stroke="#eed064" stroke-width="1.51"/><path d="M201,-1L221,40L222,3Z" fill="#e6ce5e" stroke="#e6ce5e" stroke-width="1.51"/><path d="M215,-36L201,-1L222,3Z" fill="#e3c449" stroke="#e3c449" stroke-width="1.51"/><path d="M215,-36L222,3L228,0Z" fill="#e4c54b" stroke="#e4c54b" stroke-width="1.51"/><path d="M228,0L222,3L230,11Z" fill="#e4ca56" stroke="#e4ca56" stroke-width="1.51"/><path d="M222,3L221,40L230,11Z" fill="#e8d265" stroke="#e8d265" stroke-width="1.51"/><path d="M185,3L194,46L201,-1Z" fill="#e6cc5a" stroke="#e6cc5a" stroke-width="1.51"/><path d="M197,-2L201,-1L215,-36Z" fill="#e3c447" stroke="#e3c447" stroke-width="1.51"/><path d="M194,46L203,67L221,40Z" fill="#edcf62" stroke="#edcf62" stroke-width="1.51"/><path d="M201,-1L194,46L221,40Z" fill="#e9d56b" stroke="#e9d56b" stroke-width="1.51"/><path d="M168,54L132,69L203,67Z" fill="#ebc049" stroke="#ebc049" stroke-width="1.51"/><path d="M188,-40L197,-2L215,-36Z" fill="#e9ca4d" stroke="#e9ca4d" stroke-width="1.51"/><path d="M160,-22L185,3L188,-40Z" fill="#e5c343" stroke="#e5c343" stroke-width="1.51"/><path d="M188,-40L185,3L197,-2Z" fill="#e2c243" stroke="#e2c243" stroke-width="1.51"/><path d="M197,-2L185,3L201,-1Z" fill="#e1c247" stroke="#e1c247" stroke-width="1.51"/><path d="M187,56L168,54L203,67Z" fill="#edc653" stroke="#edc653" stroke-width="1.51"/><path d="M194,46L187,56L203,67Z" fill="#edc959" stroke="#edc959" stroke-width="1.51"/><path d="M185,3L151,39L194,46Z" fill="#e7d264" stroke="#e7d264" stroke-width="1.51"/><path d="M151,39L168,54L194,46Z" fill="#eacd5e" stroke="#eacd5e" stroke-width="1.51"/><path d="M158,3L151,39L185,3Z" fill="#e3c750" stroke="#e3c750" stroke-width="1.51"/><path d="M164,-36L160,-22L188,-40Z" fill="#eac848" stroke="#eac848" stroke-width="1.51"/><path d="M168,54L187,56L194,46Z" fill="#ebcb5b" stroke="#ebcb5b" stroke-width="1.51"/><path d="M160,-22L158,3L185,3Z" fill="#debb39" stroke="#debb39" stroke-width="1.51"/><path d="M132,19L151,39L158,3Z" fill="#e3c751" stroke="#e3c751" stroke-width="1.51"/><path d="M151,39L132,69L168,54Z" fill="#eac44f" stroke="#eac44f" stroke-width="1.51"/><path d="M142,-6L158,3L160,-22Z" fill="#deb935" stroke="#deb935" stroke-width="1.51"/><path d="M146,-34L160,-22L164,-36Z" fill="#e8c543" stroke="#e8c543" stroke-width="1.51"/><path d="M126,49L132,69L151,39Z" fill="#e8c34d" stroke="#e8c34d" stroke-width="1.51"/><path d="M146,-34L142,-6L160,-22Z" fill="#e3bf3b" stroke="#e3bf3b" stroke-width="1.51"/><path d="M80,-48L101,-27L146,-34Z" fill="#e9c23a" stroke="#e9c23a" stroke-width="1.51"/><path d="M142,-6L132,19L158,3Z" fill="#dfbe3f" stroke="#dfbe3f" stroke-width="1.51"/><path d="M132,19L124,41L151,39Z" fill="#e6ce5d" stroke="#e6ce5d" stroke-width="1.51"/><path d="M124,41L126,49L151,39Z" fill="#e8ca57" stroke="#e8ca57" stroke-width="1.51"/><path d="M101,-27L110,-1L142,-6Z" fill="#dcb52a" stroke="#dcb52a" stroke-width="1.51"/><path d="M101,-27L142,-6L146,-34Z" fill="#e2bd35" stroke="#e2bd35" stroke-width="1.51"/><path d="M110,-1L121,19L132,19Z" fill="#e0be40" stroke="#e0be40" stroke-width="1.51"/><path d="M110,-1L132,19L142,-6Z" fill="#deba38" stroke="#deba38" stroke-width="1.51"/><path d="M126,49L111,69L132,69Z" fill="#e8ba3c" stroke="#e8ba3c" stroke-width="1.51"/><path d="M121,19L124,41L132,19Z" fill="#e3c852" stroke="#e3c852" stroke-width="1.51"/><path d="M121,19L96,43L124,41Z" fill="#e5cc59" stroke="#e5cc59" stroke-width="1.51"/><path d="M124,41L96,43L126,49Z" fill="#e6c650" stroke="#e6c650" stroke-width="1.51"/><path d="M96,43L111,69L126,49Z" fill="#e8bf46" stroke="#e8bf46" stroke-width="1.51"/><path d="M110,-1L90,21L121,19Z" fill="#e0bf41" stroke="#e0bf41" stroke-width="1.51"/><path d="M90,21L96,43L121,19Z" fill="#e5c953" stroke="#e5c953" stroke-width="1.51"/><path d="M101,-27L87,-21L110,-1Z" fill="#e1ba2f" stroke="#e1ba2f" stroke-width="1.51"/><path d="M96,43L81,71L111,69Z" fill="#eabc3f" stroke="#eabc3f" stroke-width="1.51"/><path d="M87,-21L90,21L110,-1Z" fill="#deb931" stroke="#deb931" stroke-width="1.51"/><path d="M87,-21L59,15L90,21Z" fill="#e1be3b" stroke="#e1be3b" stroke-width="1.51"/><path d="M80,-48L87,-21L101,-27Z" fill="#e9c23b" stroke="#e9c23b" stroke-width="1.51"/><path d="M90,21L60,40L96,43Z" fill="#e9d05e" stroke="#e9d05e" stroke-width="1.51"/><path d="M60,40L81,71L96,43Z" fill="#ebc54d" stroke="#ebc54d" stroke-width="1.51"/><path d="M18,-43L39,-35L80,-48Z" fill="#f2cd47" stroke="#f2cd47" stroke-width="1.51"/><path d="M50,-15L59,15L87,-21Z" fill="#e0b92f" stroke="#e0b92f" stroke-width="1.51"/><path d="M80,-48L66,-32L87,-21Z" fill="#ebc53d" stroke="#ebc53d" stroke-width="1.51"/><path d="M59,15L60,40L90,21Z" fill="#e8cc55" stroke="#e8cc55" stroke-width="1.51"/><path d="M66,-32L50,-15L87,-21Z" fill="#e7c139" stroke="#e7c139" stroke-width="1.51"/><path d="M39,-35L66,-32L80,-48Z" fill="#efc943" stroke="#efc943" stroke-width="1.51"/><path d="M60,40L53,77L81,71Z" fill="#eebe41" stroke="#eebe41" stroke-width="1.51"/><path d="M34,59L53,77L60,40Z" fill="#efc449" stroke="#efc449" stroke-width="1.51"/><path d="M59,15L47,20L60,40Z" fill="#eacd57" stroke="#eacd57" stroke-width="1.51"/><path d="M39,-35L50,-15L66,-32Z" fill="#ebc43e" stroke="#ebc43e" stroke-width="1.51"/><path d="M25,1L47,20L50,-15Z" fill="#e5c13c" stroke="#e5c13c" stroke-width="1.51"/><path d="M22,61L-1,66L53,77Z" fill="#f2bf40" stroke="#f2bf40" stroke-width="1.51"/><path d="M50,-15L47,20L59,15Z" fill="#e5c241" stroke="#e5c241" stroke-width="1.51"/><path d="M47,20L30,45L60,40Z" fill="#edd563" stroke="#edd563" stroke-width="1.51"/><path d="M30,45L34,59L60,40Z" fill="#efcc57" stroke="#efcc57" stroke-width="1.51"/><path d="M34,59L22,61L53,77Z" fill="#f1c042" stroke="#f1c042" stroke-width="1.51"/><path d="M39,-35L25,1L50,-15Z" fill="#e7c139" stroke="#e7c139" stroke-width="1.51"/><path d="M12,31L30,45L47,20Z" fill="#eed562" stroke="#eed562" stroke-width="1.51"/><path d="M25,1L12,31L47,20Z" fill="#eacc52" stroke="#eacc52" stroke-width="1.51"/><path d="M19,0L25,1L39,-35Z" fill="#e7c038" stroke="#e7c038" stroke-width="1.51"/><path d="M18,-43L19,0L39,-35Z" fill="#edc741" stroke="#edc741" stroke-width="1.51"/><path d="M9,5L12,31L25,1Z" fill="#ebca4d" stroke="#ebca4d" stroke-width="1.51"/><path d="M30,45L22,61L34,59Z" fill="#f1c850" stroke="#f1c850" stroke-width="1.51"/><path d="M19,0L9,5L25,1Z" fill="#e7c440" stroke="#e7c440" stroke-width="1.51"/><path d="M12,31L22,61L30,45Z" fill="#f1d15c" stroke="#f1d15c" stroke-width="1.51"/><path d="M-15,-45L9,5L18,-43Z" fill="#f0cb45" stroke="#f0cb45" stroke-width="1.51"/><path d="M18,-43L9,5L19,0Z" fill="#e8c23a" stroke="#e8c23a" stroke-width="1.51"/><path d="M12,31L-1,66L22,61Z" fill="#f2cc55" stroke="#f2cc55" stroke-width="1.51"/><path d="M-15,-45L-21,1L9,5Z" fill="#ebc53e" stroke="#ebc53e" stroke-width="1.51"/><path d="M-18,49L-1,66L12,31Z" fill="#f4d15b" stroke="#f4d15b" stroke-width="1.51"/><path d="M9,5L-7,23L12,31Z" fill="#eed157" stroke="#eed157" stroke-width="1.51"/><path d="M-7,23L-18,49L12,31Z" fill="#f2da69" stroke="#f2da69" stroke-width="1.51"/><path d="M-21,1L-7,23L9,5Z" fill="#eccb4d" stroke="#eccb4d" stroke-width="1.51"/><path d="M-43,-19L-21,1L-15,-45Z" fill="#f0cb45" stroke="#f0cb45" stroke-width="1.51"/><path d="M-18,49L-39,57L-1,66Z" fill="#f6cd54" stroke="#f6cd54" stroke-width="1.51"/><path d="M-29,9L-38,48L-18,49Z" fill="#f5de6d" stroke="#f5de6d" stroke-width="1.51"/><path d="M-29,9L-18,49L-7,23Z" fill="#f2d863" stroke="#f2d863" stroke-width="1.51"/><path d="M-21,1L-29,9L-7,23Z" fill="#edcd50" stroke="#edcd50" stroke-width="1.51"/><path d="M-49,-34L-43,-19L-15,-45Z" fill="#f7d24e" stroke="#f7d24e" stroke-width="1.51"/><path d="M-38,48L-39,57L-18,49Z" fill="#f7d35c" stroke="#f7d35c" stroke-width="1.51"/><path d="M-43,-19L-29,9L-21,1Z" fill="#ebc641" stroke="#ebc641" stroke-width="1.51"/><path d="M-43,-19L-38,48L-29,9Z" fill="#f0d155" stroke="#f0d155" stroke-width="1.51"/><path d="M-49,-34L-39,57L-38,48Z" fill="#f3d962" stroke="#f3d962" stroke-width="1.51"/><path d="M-43,-19L-49,-34L-38,48Z" fill="#edc844" stroke="#edc844" stroke-width="1.51"/></svg>