<svg xmlns="http://www.w3.org/2000/svg" width="400" height="30"><path d="M132,69L53,77L244,77Z"  fill="#c56339" stroke="#c56339" stroke-width="1.51"/><path d="M188,-40L241,-40L307,-46Z" fill="#ffb174" stroke="#ffb174" stroke-width="1.51"/><path d="M80,-48L188,-40L307,-46Z" fill="#ffc781" stroke="#ffc781" stroke-width="1.51"/><path d="M329,-41L353,-36L403,-37Z" fill="#ef9366" stroke="#ef9366" stroke-width="1.51"/><path d="M329,-41L403,-37L438,-45Z" fill="#e5906b" stroke="#e5906b" stroke-width="1.51"/><path d="M307,-46L329,-41L438,-45Z" fill="#f1966d" stroke="#f1966d" stroke-width="1.51"/><path d="M438,-45L403,-37L444,-13Z" fill="#cf845e" stroke="#cf845e" stroke-width="1.51"/><path d="M403,-37L400,-9L444,-13Z" fill="#d47e50" stroke="#d47e50" stroke-width="1.51"/><path d="M405,3L430,24L444,-13Z" fill="#cb6036" stroke="#cb6036" stroke-width="1.51"/><path d="M430,24L414,42L445,31Z" fill="#c52a28" stroke="#c52a28" stroke-width="1.51"/><path d="M444,-13L430,24L445,31Z" fill="#c35133" stroke="#c35133" stroke-width="1.51"/><path d="M416,56L378,71L445,54Z" fill="#b20126" stroke="#b20126" stroke-width="1.51"/><path d="M445,31L414,42L445,54Z" fill="#bb1724" stroke="#bb1724" stroke-width="1.51"/><path d="M414,42L416,56L445,54Z" fill="#b80923" stroke="#b80923" stroke-width="1.51"/><path d="M400,-9L405,3L444,-13Z" fill="#d16f40" stroke="#d16f40" stroke-width="1.51"/><path d="M396,29L414,42L430,24Z" fill="#ce2c29" stroke="#ce2c29" stroke-width="1.51"/><path d="M405,3L396,29L430,24Z" fill="#d14c30" stroke="#d14c30" stroke-width="1.51"/><path d="M353,-36L387,-30L403,-37Z" fill="#e88e62" stroke="#e88e62" stroke-width="1.51"/><path d="M414,42L396,29L416,56Z" fill="#c81924" stroke="#c81924" stroke-width="1.51"/><path d="M396,29L378,71L416,56Z" fill="#c40923" stroke="#c40923" stroke-width="1.51"/><path d="M111,69L53,77L132,69Z" fill="#cd7345" stroke="#cd7345" stroke-width="1.51"/><path d="M387,-30L400,-9L403,-37Z" fill="#df8657" stroke="#df8657" stroke-width="1.51"/><path d="M400,-9L384,10L405,3Z" fill="#db6837" stroke="#db6837" stroke-width="1.51"/><path d="M384,10L396,29L405,3Z" fill="#da5732" stroke="#da5732" stroke-width="1.51"/><path d="M353,30L378,71L396,29Z" fill="#d61922" stroke="#d61922" stroke-width="1.51"/><path d="M387,-30L375,-16L400,-9Z" fill="#e3834e" stroke="#e3834e" stroke-width="1.51"/><path d="M375,-16L384,10L400,-9Z" fill="#e1723e" stroke="#e1723e" stroke-width="1.51"/><path d="M280,63L244,77L346,74Z" fill="#c42126" stroke="#c42126" stroke-width="1.51"/><path d="M384,10L353,30L396,29Z" fill="#e0472c" stroke="#e0472c" stroke-width="1.51"/><path d="M353,30L351,65L378,71Z" fill="#cd0c22" stroke="#cd0c22" stroke-width="1.51"/><path d="M366,5L353,30L384,10Z" fill="#e45a2f" stroke="#e45a2f" stroke-width="1.51"/><path d="M375,-16L366,5L384,10Z" fill="#e46d37" stroke="#e46d37" stroke-width="1.51"/><path d="M353,-36L375,-16L387,-30Z" fill="#ea8b58" stroke="#ea8b58" stroke-width="1.51"/><path d="M203,67L132,69L244,77Z" fill="#cb5433" stroke="#cb5433" stroke-width="1.51"/><path d="M351,65L346,74L378,71Z" fill="#b60524" stroke="#b60524" stroke-width="1.51"/><path d="M352,1L366,5L375,-16Z" fill="#e77339" stroke="#e77339" stroke-width="1.51"/><path d="M353,-36L352,1L375,-16Z" fill="#eb864a" stroke="#eb864a" stroke-width="1.51"/><path d="M335,-8L352,1L353,-36Z" fill="#ef8446" stroke="#ef8446" stroke-width="1.51"/><path d="M349,7L353,30L366,5Z" fill="#e75c2f" stroke="#e75c2f" stroke-width="1.51"/><path d="M352,1L349,7L366,5Z" fill="#e96a33" stroke="#e96a33" stroke-width="1.51"/><path d="M-15,-45L18,-43L80,-48Z" fill="#fff2ae" stroke="#fff2ae" stroke-width="1.51"/><path d="M241,-40L258,-37L307,-46Z" fill="#ffa86f" stroke="#ffa86f" stroke-width="1.51"/><path d="M305,56L280,63L346,74Z" fill="#ce1923" stroke="#ce1923" stroke-width="1.51"/><path d="M339,31L305,56L351,65Z" fill="#db161e" stroke="#db161e" stroke-width="1.51"/><path d="M329,-41L335,-8L353,-36Z" fill="#f49058" stroke="#f49058" stroke-width="1.51"/><path d="M339,31L351,65L353,30Z" fill="#df2120" stroke="#df2120" stroke-width="1.51"/><path d="M349,7L339,31L353,30Z" fill="#ea4b29" stroke="#ea4b29" stroke-width="1.51"/><path d="M335,-8L349,7L352,1Z" fill="#ed7134" stroke="#ed7134" stroke-width="1.51"/><path d="M320,15L339,31L349,7Z" fill="#ed582b" stroke="#ed582b" stroke-width="1.51"/><path d="M305,56L346,74L351,65Z" fill="#c70c23" stroke="#c70c23" stroke-width="1.51"/><path d="M335,-8L320,15L349,7Z" fill="#f06c31" stroke="#f06c31" stroke-width="1.51"/><path d="M298,-16L304,-7L329,-41Z" fill="#fa914f" stroke="#fa914f" stroke-width="1.51"/><path d="M329,-41L304,-7L335,-8Z" fill="#f78c4a" stroke="#f78c4a" stroke-width="1.51"/><path d="M320,15L304,36L339,31Z" fill="#f14425" stroke="#f14425" stroke-width="1.51"/><path d="M304,36L305,56L339,31Z" fill="#e92b1f" stroke="#e92b1f" stroke-width="1.51"/><path d="M298,-36L298,-16L329,-41Z" fill="#fc985c" stroke="#fc985c" stroke-width="1.51"/><path d="M304,-7L320,15L335,-8Z" fill="#f47532" stroke="#f47532" stroke-width="1.51"/><path d="M307,-46L298,-36L329,-41Z" fill="#fe9c69" stroke="#fe9c69" stroke-width="1.51"/><path d="M80,-48L164,-36L188,-40Z" fill="#ffd383" stroke="#ffd383" stroke-width="1.51"/><path d="M304,-7L288,25L320,15Z" fill="#f66b30" stroke="#f66b30" stroke-width="1.51"/><path d="M288,25L304,36L320,15Z" fill="#f44e28" stroke="#f44e28" stroke-width="1.51"/><path d="M81,71L53,77L111,69Z" fill="#cc784a" stroke="#cc784a" stroke-width="1.51"/><path d="M304,36L278,40L305,56Z" fill="#eb2f20" stroke="#eb2f20" stroke-width="1.51"/><path d="M258,-37L298,-36L307,-46Z" fill="#ffa26a" stroke="#ffa26a" stroke-width="1.51"/><path d="M278,40L274,52L280,63Z" fill="#e62f23" stroke="#e62f23" stroke-width="1.51"/><path d="M261,-6L274,24L288,25Z" fill="#fb6e32" stroke="#fb6e32" stroke-width="1.51"/><path d="M298,-16L261,-6L304,-7Z" fill="#fc8b43" stroke="#fc8b43" stroke-width="1.51"/><path d="M261,-6L288,25L304,-7Z" fill="#fa7935" stroke="#fa7935" stroke-width="1.51"/><path d="M278,40L280,63L305,56Z" fill="#e22a23" stroke="#e22a23" stroke-width="1.51"/><path d="M188,-40L215,-36L241,-40Z" fill="#ffbc75" stroke="#ffbc75" stroke-width="1.51"/><path d="M288,25L278,40L304,36Z" fill="#f44125" stroke="#f44125" stroke-width="1.51"/><path d="M274,48L274,52L278,40Z" fill="#ed3221" stroke="#ed3221" stroke-width="1.51"/><path d="M298,-36L258,-37L298,-16Z" fill="#ff9d5d" stroke="#ff9d5d" stroke-width="1.51"/><path d="M258,-37L261,-6L298,-16Z" fill="#ff9a52" stroke="#ff9a52" stroke-width="1.51"/><path d="M274,24L278,40L288,25Z" fill="#f94b28" stroke="#f94b28" stroke-width="1.51"/><path d="M274,52L244,77L280,63Z" fill="#d72e28" stroke="#d72e28" stroke-width="1.51"/><path d="M274,24L274,48L278,40Z" fill="#f44025" stroke="#f44025" stroke-width="1.51"/><path d="M80,-48L146,-34L164,-36Z" fill="#ffd683" stroke="#ffd683" stroke-width="1.51"/><path d="M261,-6L230,11L274,24Z" fill="#fe7b36" stroke="#fe7b36" stroke-width="1.51"/><path d="M230,11L240,50L274,24Z" fill="#fd5c2d" stroke="#fd5c2d" stroke-width="1.51"/><path d="M274,24L240,50L274,48Z" fill="#f44025" stroke="#f44025" stroke-width="1.51"/><path d="M274,48L240,50L274,52Z" fill="#eb3624" stroke="#eb3624" stroke-width="1.51"/><path d="M240,50L244,77L274,52Z" fill="#df3929" stroke="#df3929" stroke-width="1.51"/><path d="M258,-37L241,-40L261,-6Z" fill="#ffa55f" stroke="#ffa55f" stroke-width="1.51"/><path d="M241,-40L228,0L261,-6Z" fill="#ffa151" stroke="#ffa151" stroke-width="1.51"/><path d="M228,0L230,11L261,-6Z" fill="#ff8c3d" stroke="#ff8c3d" stroke-width="1.51"/><path d="M230,11L221,40L240,50Z" fill="#fa5d2d" stroke="#fa5d2d" stroke-width="1.51"/><path d="M215,-36L228,0L241,-40Z" fill="#ffae61" stroke="#ffae61" stroke-width="1.51"/><path d="M240,50L203,67L244,77Z" fill="#d7462d" stroke="#d7462d" stroke-width="1.51"/><path d="M221,40L203,67L240,50Z" fill="#e9502b" stroke="#e9502b" stroke-width="1.51"/><path d="M201,-1L221,40L222,3Z" fill="#fd883a" stroke="#fd883a" stroke-width="1.51"/><path d="M215,-36L201,-1L222,3Z" fill="#ffa950" stroke="#ffa950" stroke-width="1.51"/><path d="M215,-36L222,3L228,0Z" fill="#ffa44e" stroke="#ffa44e" stroke-width="1.51"/><path d="M228,0L222,3L230,11Z" fill="#fe8e3d" stroke="#fe8e3d" stroke-width="1.51"/><path d="M222,3L221,40L230,11Z" fill="#fd7d36" stroke="#fd7d36" stroke-width="1.51"/><path d="M185,3L194,46L201,-1Z" fill="#fd8d3c" stroke="#fd8d3c" stroke-width="1.51"/><path d="M197,-2L201,-1L215,-36Z" fill="#ffae54" stroke="#ffae54" stroke-width="1.51"/><path d="M194,46L203,67L221,40Z" fill="#eb5a2c" stroke="#eb5a2c" stroke-width="1.51"/><path d="M201,-1L194,46L221,40Z" fill="#fd7233" stroke="#fd7233" stroke-width="1.51"/><path d="M168,54L132,69L203,67Z" fill="#dc6135" stroke="#dc6135" stroke-width="1.51"/><path d="M188,-40L197,-2L215,-36Z" fill="#ffba66" stroke="#ffba66" stroke-width="1.51"/><path d="M160,-22L185,3L188,-40Z" fill="#ffbc60" stroke="#ffbc60" stroke-width="1.51"/><path d="M188,-40L185,3L197,-2Z" fill="#ffb356" stroke="#ffb356" stroke-width="1.51"/><path d="M197,-2L185,3L201,-1Z" fill="#fea144" stroke="#fea144" stroke-width="1.51"/><path d="M187,56L168,54L203,67Z" fill="#e25e32" stroke="#e25e32" stroke-width="1.51"/><path d="M194,46L187,56L203,67Z" fill="#e45c2f" stroke="#e45c2f" stroke-width="1.51"/><path d="M185,3L151,39L194,46Z" fill="#fe7a36" stroke="#fe7a36" stroke-width="1.51"/><path d="M151,39L168,54L194,46Z" fill="#f2692e" stroke="#f2692e" stroke-width="1.51"/><path d="M158,3L151,39L185,3Z" fill="#fe9840" stroke="#fe9840" stroke-width="1.51"/><path d="M164,-36L160,-22L188,-40Z" fill="#ffc773" stroke="#ffc773" stroke-width="1.51"/><path d="M168,54L187,56L194,46Z" fill="#eb622f" stroke="#eb622f" stroke-width="1.51"/><path d="M160,-22L158,3L185,3Z" fill="#ffaf4e" stroke="#ffaf4e" stroke-width="1.51"/><path d="M132,19L151,39L158,3Z" fill="#fe9440" stroke="#fe9440" stroke-width="1.51"/><path d="M151,39L132,69L168,54Z" fill="#e96c34" stroke="#e96c34" stroke-width="1.51"/><path d="M142,-6L158,3L160,-22Z" fill="#ffb755" stroke="#ffb755" stroke-width="1.51"/><path d="M146,-34L160,-22L164,-36Z" fill="#ffc972" stroke="#ffc972" stroke-width="1.51"/><path d="M126,49L132,69L151,39Z" fill="#ec7236" stroke="#ec7236" stroke-width="1.51"/><path d="M146,-34L142,-6L160,-22Z" fill="#ffc566" stroke="#ffc566" stroke-width="1.51"/><path d="M80,-48L101,-27L146,-34Z" fill="#ffdb86" stroke="#ffdb86" stroke-width="1.51"/><path d="M142,-6L132,19L158,3Z" fill="#fea948" stroke="#fea948" stroke-width="1.51"/><path d="M132,19L124,41L151,39Z" fill="#fd833a" stroke="#fd833a" stroke-width="1.51"/><path d="M124,41L126,49L151,39Z" fill="#f67936" stroke="#f67936" stroke-width="1.51"/><path d="M101,-27L110,-1L142,-6Z" fill="#ffc661" stroke="#ffc661" stroke-width="1.51"/><path d="M101,-27L142,-6L146,-34Z" fill="#ffcc6c" stroke="#ffcc6c" stroke-width="1.51"/><path d="M110,-1L121,19L132,19Z" fill="#fea84b" stroke="#fea84b" stroke-width="1.51"/><path d="M110,-1L132,19L142,-6Z" fill="#feb04c" stroke="#feb04c" stroke-width="1.51"/><path d="M126,49L111,69L132,69Z" fill="#df713d" stroke="#df713d" stroke-width="1.51"/><path d="M121,19L124,41L132,19Z" fill="#ff9041" stroke="#ff9041" stroke-width="1.51"/><path d="M121,19L96,43L124,41Z" fill="#fd8940" stroke="#fd8940" stroke-width="1.51"/><path d="M124,41L96,43L126,49Z" fill="#f67e3b" stroke="#f67e3b" stroke-width="1.51"/><path d="M96,43L111,69L126,49Z" fill="#eb7a3d" stroke="#eb7a3d" stroke-width="1.51"/><path d="M110,-1L90,21L121,19Z" fill="#ffac4f" stroke="#ffac4f" stroke-width="1.51"/><path d="M90,21L96,43L121,19Z" fill="#ff9648" stroke="#ff9648" stroke-width="1.51"/><path d="M101,-27L87,-21L110,-1Z" fill="#ffd26e" stroke="#ffd26e" stroke-width="1.51"/><path d="M96,43L81,71L111,69Z" fill="#e37b45" stroke="#e37b45" stroke-width="1.51"/><path d="M87,-21L90,21L110,-1Z" fill="#ffbf5a" stroke="#ffbf5a" stroke-width="1.51"/><path d="M87,-21L59,15L90,21Z" fill="#ffbe5d" stroke="#ffbe5d" stroke-width="1.51"/><path d="M80,-48L87,-21L101,-27Z" fill="#ffde86" stroke="#ffde86" stroke-width="1.51"/><path d="M90,21L60,40L96,43Z" fill="#ff944a" stroke="#ff944a" stroke-width="1.51"/><path d="M60,40L81,71L96,43Z" fill="#f08647" stroke="#f08647" stroke-width="1.51"/><path d="M18,-43L39,-35L80,-48Z" fill="#ffeda4" stroke="#ffeda4" stroke-width="1.51"/><path d="M50,-15L59,15L87,-21Z" fill="#ffcf6d" stroke="#ffcf6d" stroke-width="1.51"/><path d="M80,-48L66,-32L87,-21Z" fill="#ffe38d" stroke="#ffe38d" stroke-width="1.51"/><path d="M59,15L60,40L90,21Z" fill="#ffa454" stroke="#ffa454" stroke-width="1.51"/><path d="M66,-32L50,-15L87,-21Z" fill="#ffde81" stroke="#ffde81" stroke-width="1.51"/><path d="M39,-35L66,-32L80,-48Z" fill="#ffe899" stroke="#ffe899" stroke-width="1.51"/><path d="M60,40L53,77L81,71Z" fill="#e1824f" stroke="#e1824f" stroke-width="1.51"/><path d="M34,59L53,77L60,40Z" fill="#e88753" stroke="#e88753" stroke-width="1.51"/><path d="M59,15L47,20L60,40Z" fill="#ffa659" stroke="#ffa659" stroke-width="1.51"/><path d="M39,-35L50,-15L66,-32Z" fill="#ffe38d" stroke="#ffe38d" stroke-width="1.51"/><path d="M25,1L47,20L50,-15Z" fill="#ffc86b" stroke="#ffc86b" stroke-width="1.51"/><path d="M22,61L-1,66L53,77Z" fill="#d7855b" stroke="#d7855b" stroke-width="1.51"/><path d="M50,-15L47,20L59,15Z" fill="#ffc165" stroke="#ffc165" stroke-width="1.51"/><path d="M47,20L30,45L60,40Z" fill="#ff9a56" stroke="#ff9a56" stroke-width="1.51"/><path d="M30,45L34,59L60,40Z" fill="#f68f52" stroke="#f68f52" stroke-width="1.51"/><path d="M34,59L22,61L53,77Z" fill="#dc8557" stroke="#dc8557" stroke-width="1.51"/><path d="M39,-35L25,1L50,-15Z" fill="#ffdf83" stroke="#ffdf83" stroke-width="1.51"/><path d="M12,31L30,45L47,20Z" fill="#ffa05d" stroke="#ffa05d" stroke-width="1.51"/><path d="M25,1L12,31L47,20Z" fill="#ffb867" stroke="#ffb867" stroke-width="1.51"/><path d="M19,0L25,1L39,-35Z" fill="#ffda80" stroke="#ffda80" stroke-width="1.51"/><path d="M18,-43L19,0L39,-35Z" fill="#ffe794" stroke="#ffe794" stroke-width="1.51"/><path d="M9,5L12,31L25,1Z" fill="#ffc16e" stroke="#ffc16e" stroke-width="1.51"/><path d="M30,45L22,61L34,59Z" fill="#ee8d58" stroke="#ee8d58" stroke-width="1.51"/><path d="M19,0L9,5L25,1Z" fill="#ffcc73" stroke="#ffcc73" stroke-width="1.51"/><path d="M12,31L22,61L30,45Z" fill="#fa9358" stroke="#fa9358" stroke-width="1.51"/><path d="M-15,-45L9,5L18,-43Z" fill="#ffeb9e" stroke="#ffeb9e" stroke-width="1.51"/><path d="M18,-43L9,5L19,0Z" fill="#ffde85" stroke="#ffde85" stroke-width="1.51"/><path d="M12,31L-1,66L22,61Z" fill="#f1915d" stroke="#f1915d" stroke-width="1.51"/><path d="M-15,-45L-21,1L9,5Z" fill="#ffe28e" stroke="#ffe28e" stroke-width="1.51"/><path d="M-18,49L-1,66L12,31Z" fill="#f79560" stroke="#f79560" stroke-width="1.51"/><path d="M9,5L-7,23L12,31Z" fill="#ffb76d" stroke="#ffb76d" stroke-width="1.51"/><path d="M-7,23L-18,49L12,31Z" fill="#ffa367" stroke="#ffa367" stroke-width="1.51"/><path d="M-21,1L-7,23L9,5Z" fill="#ffc677" stroke="#ffc677" stroke-width="1.51"/><path d="M-43,-19L-21,1L-15,-45Z" fill="#ffeb9f" stroke="#ffeb9f" stroke-width="1.51"/><path d="M-18,49L-39,57L-1,66Z" fill="#ed9268" stroke="#ed9268" stroke-width="1.51"/><path d="M-29,9L-38,48L-18,49Z" fill="#ffa56f" stroke="#ffa56f" stroke-width="1.51"/><path d="M-29,9L-18,49L-7,23Z" fill="#ffaf70" stroke="#ffaf70" stroke-width="1.51"/><path d="M-21,1L-29,9L-7,23Z" fill="#ffc77b" stroke="#ffc77b" stroke-width="1.51"/><path d="M-49,-34L-43,-19L-15,-45Z" fill="#fff4b2" stroke="#fff4b2" stroke-width="1.51"/><path d="M-38,48L-39,57L-18,49Z" fill="#f5986b" stroke="#f5986b" stroke-width="1.51"/><path d="M-43,-19L-29,9L-21,1Z" fill="#ffd889" stroke="#ffd889" stroke-width="1.51"/><path d="M-43,-19L-38,48L-29,9Z" fill="#ffc780" stroke="#ffc780" stroke-width="1.51"/><path d="M-49,-34L-39,57L-38,48Z" fill="#ffb87b" stroke="#ffb87b" stroke-width="1.51"/><path d="M-43,-19L-49,-34L-38,48Z" fill="#ffd98b" stroke="#ffd98b" stroke-width="1.51"/></svg>