
<svg xmlns="http://www.w3.org/2000/svg" width="310" height="216"><path d="M19,-55L47,-51L100,-50Z" fill="#fff5ad" stroke="#fff5ad" stroke-width="1.51"/><path d="M80,261L22,264L165,266Z" fill="#e8a60e" stroke="#e8a60e" stroke-width="1.51"/><path d="M232,249L165,266L256,250Z" fill="#e68a16" stroke="#e68a16" stroke-width="1.51"/><path d="M256,250L165,266L294,255Z" fill="#e48414" stroke="#e48414" stroke-width="1.51"/><path d="M294,255L165,266L327,264Z" fill="#e07d10" stroke="#e07d10" stroke-width="1.51"/><path d="M309,64L325,117L344,116Z" fill="#eba015" stroke="#eba015" stroke-width="1.51"/><path d="M100,-50L191,-45L351,-56Z" fill="#ffd391" stroke="#ffd391" stroke-width="1.51"/><path d="M19,-55L100,-50L351,-56Z" fill="#ffe197" stroke="#ffe197" stroke-width="1.51"/><path d="M224,-37L285,-35L351,-56Z" fill="#fac182" stroke="#fac182" stroke-width="1.51"/><path d="M191,-45L224,-37L351,-56Z" fill="#fec989" stroke="#fec989" stroke-width="1.51"/><path d="M285,-35L308,-38L351,-56Z" fill="#f7b97f" stroke="#f7b97f" stroke-width="1.51"/><path d="M340,-23L323,-4L356,26Z" fill="#f0af56" stroke="#f0af56" stroke-width="1.51"/><path d="M351,-56L340,-23L356,26Z" fill="#f0af65" stroke="#f0af65" stroke-width="1.51"/><path d="M349,141L350,168L357,192Z" fill="#e48414" stroke="#e48414" stroke-width="1.51"/><path d="M309,64L344,116L361,68Z" fill="#e9a212" stroke="#e9a212" stroke-width="1.51"/><path d="M344,116L349,141L361,68Z" fill="#e79712" stroke="#e79712" stroke-width="1.51"/><path d="M356,26L348,45L361,68Z" fill="#e9a71d" stroke="#e9a71d" stroke-width="1.51"/><path d="M351,-56L356,26L361,68Z" fill="#edaa48" stroke="#edaa48" stroke-width="1.51"/><path d="M349,141L357,192L361,68Z" fill="#e68e13" stroke="#e68e13" stroke-width="1.51"/><path d="M357,192L321,220L362,230Z" fill="#dd770d" stroke="#dd770d" stroke-width="1.51"/><path d="M321,220L350,244L362,230Z" fill="#da720a" stroke="#da720a" stroke-width="1.51"/><path d="M361,68L357,192L362,230Z" fill="#e38413" stroke="#e38413" stroke-width="1.51"/><path d="M348,45L309,64L361,68Z" fill="#eaa911" stroke="#eaa911" stroke-width="1.51"/><path d="M319,46L309,64L348,45Z" fill="#ecae16" stroke="#ecae16" stroke-width="1.51"/><path d="M349,141L330,165L350,168Z" fill="#e68a16" stroke="#e68a16" stroke-width="1.51"/><path d="M350,168L330,165L357,192Z" fill="#e38314" stroke="#e38314" stroke-width="1.51"/><path d="M330,165L310,193L357,192Z" fill="#e48413" stroke="#e48413" stroke-width="1.51"/><path d="M310,193L321,220L357,192Z" fill="#e17f11" stroke="#e17f11" stroke-width="1.51"/><path d="M323,-4L307,26L356,26Z" fill="#f0b047" stroke="#f0b047" stroke-width="1.51"/><path d="M319,46L348,45L356,26Z" fill="#ecab2a" stroke="#ecab2a" stroke-width="1.51"/><path d="M307,26L319,46L356,26Z" fill="#eeaf34" stroke="#eeaf34" stroke-width="1.51"/><path d="M344,116L329,128L349,141Z" fill="#e89414" stroke="#e89414" stroke-width="1.51"/><path d="M308,-38L340,-23L351,-56Z" fill="#f5b479" stroke="#f5b479" stroke-width="1.51"/><path d="M321,220L327,264L350,244Z" fill="#da710a" stroke="#da710a" stroke-width="1.51"/><path d="M329,128L330,165L349,141Z" fill="#e88f15" stroke="#e88f15" stroke-width="1.51"/><path d="M325,117L329,128L344,116Z" fill="#e99815" stroke="#e99815" stroke-width="1.51"/><path d="M309,64L285,87L325,117Z" fill="#eda817" stroke="#eda817" stroke-width="1.51"/><path d="M308,-38L323,-4L340,-23Z" fill="#f3b56b" stroke="#f3b56b" stroke-width="1.51"/><path d="M224,-37L249,-30L285,-35Z" fill="#fdc87e" stroke="#fdc87e" stroke-width="1.51"/><path d="M285,87L290,111L325,117Z" fill="#eea519" stroke="#eea519" stroke-width="1.51"/><path d="M321,220L294,255L327,264Z" fill="#dc750c" stroke="#dc750c" stroke-width="1.51"/><path d="M288,179L310,193L330,165Z" fill="#e88c17" stroke="#e88c17" stroke-width="1.51"/><path d="M329,128L281,124L330,165Z" fill="#ea9718" stroke="#ea9718" stroke-width="1.51"/><path d="M281,124L288,179L330,165Z" fill="#ec951b" stroke="#ec951b" stroke-width="1.51"/><path d="M325,117L290,111L329,128Z" fill="#eb9d17" stroke="#eb9d17" stroke-width="1.51"/><path d="M290,111L281,124L329,128Z" fill="#eda019" stroke="#eda019" stroke-width="1.51"/><path d="M286,220L294,255L321,220Z" fill="#e07d11" stroke="#e07d11" stroke-width="1.51"/><path d="M308,-38L280,-6L323,-4Z" fill="#f5b968" stroke="#f5b968" stroke-width="1.51"/><path d="M310,193L286,220L321,220Z" fill="#e38213" stroke="#e38213" stroke-width="1.51"/><path d="M280,-6L307,26L323,-4Z" fill="#f4b854" stroke="#f4b854" stroke-width="1.51"/><path d="M285,-35L280,-6L308,-38Z" fill="#f8be73" stroke="#f8be73" stroke-width="1.51"/><path d="M307,26L299,42L319,46Z" fill="#f0b32f" stroke="#f0b32f" stroke-width="1.51"/><path d="M299,42L309,64L319,46Z" fill="#eeb21a" stroke="#eeb21a" stroke-width="1.51"/><path d="M281,124L262,164L288,179Z" fill="#ef9b1d" stroke="#ef9b1d" stroke-width="1.51"/><path d="M280,-6L278,17L307,26Z" fill="#f5bb4f" stroke="#f5bb4f" stroke-width="1.51"/><path d="M288,179L276,186L310,193Z" fill="#e98e18" stroke="#e98e18" stroke-width="1.51"/><path d="M276,186L286,220L310,193Z" fill="#e78a16" stroke="#e78a16" stroke-width="1.51"/><path d="M299,42L285,87L309,64Z" fill="#efb117" stroke="#efb117" stroke-width="1.51"/><path d="M278,17L299,42L307,26Z" fill="#f3b83d" stroke="#f3b83d" stroke-width="1.51"/><path d="M286,220L262,228L294,255Z" fill="#e28112" stroke="#e28112" stroke-width="1.51"/><path d="M265,36L285,87L299,42Z" fill="#f1b819" stroke="#f1b819" stroke-width="1.51"/><path d="M270,28L265,36L299,42Z" fill="#f4bb36" stroke="#f4bb36" stroke-width="1.51"/><path d="M278,17L270,28L299,42Z" fill="#f4bb3d" stroke="#f4bb3d" stroke-width="1.51"/><path d="M265,36L263,91L285,87Z" fill="#f2b61b" stroke="#f2b61b" stroke-width="1.51"/><path d="M262,228L256,250L294,255Z" fill="#e28012" stroke="#e28012" stroke-width="1.51"/><path d="M248,132L262,164L281,124Z" fill="#f1a31e" stroke="#f1a31e" stroke-width="1.51"/><path d="M265,-7L280,-6L285,-35Z" fill="#f8c06b" stroke="#f8c06b" stroke-width="1.51"/><path d="M276,186L262,228L286,220Z" fill="#e78a17" stroke="#e78a17" stroke-width="1.51"/><path d="M262,164L276,186L288,179Z" fill="#ed951c" stroke="#ed951c" stroke-width="1.51"/><path d="M285,87L263,91L290,111Z" fill="#f0ac1b" stroke="#f0ac1b" stroke-width="1.51"/><path d="M263,91L281,124L290,111Z" fill="#f0a91b" stroke="#f0a91b" stroke-width="1.51"/><path d="M255,187L262,228L276,186Z" fill="#ea9019" stroke="#ea9019" stroke-width="1.51"/><path d="M249,-30L265,-7L285,-35Z" fill="#fac474" stroke="#fac474" stroke-width="1.51"/><path d="M237,43L263,91L265,36Z" fill="#f4be1c" stroke="#f4be1c" stroke-width="1.51"/><path d="M265,-7L278,17L280,-6Z" fill="#f7bf5b" stroke="#f7bf5b" stroke-width="1.51"/><path d="M263,91L251,96L281,124Z" fill="#f2ae1d" stroke="#f2ae1d" stroke-width="1.51"/><path d="M251,96L248,132L281,124Z" fill="#f2ab1e" stroke="#f2ab1e" stroke-width="1.51"/><path d="M262,164L255,187L276,186Z" fill="#ee971c" stroke="#ee971c" stroke-width="1.51"/><path d="M265,-7L270,28L278,17Z" fill="#f7bf51" stroke="#f7bf51" stroke-width="1.51"/><path d="M237,43L223,76L263,91Z" fill="#f5be1f" stroke="#f5be1f" stroke-width="1.51"/><path d="M191,249L165,266L232,249Z" fill="#e78f15" stroke="#e78f15" stroke-width="1.51"/><path d="M248,132L242,136L262,164Z" fill="#f3a51f" stroke="#f3a51f" stroke-width="1.51"/><path d="M255,187L242,190L262,228Z" fill="#eb931b" stroke="#eb931b" stroke-width="1.51"/><path d="M223,76L251,96L263,91Z" fill="#f5b81f" stroke="#f5b81f" stroke-width="1.51"/><path d="M237,-12L224,26L265,-7Z" fill="#fbc75e" stroke="#fbc75e" stroke-width="1.51"/><path d="M265,-7L224,26L270,28Z" fill="#f9c44f" stroke="#f9c44f" stroke-width="1.51"/><path d="M224,26L265,36L270,28Z" fill="#f8c23f" stroke="#f8c23f" stroke-width="1.51"/><path d="M242,190L232,232L262,228Z" fill="#ea9019" stroke="#ea9019" stroke-width="1.51"/><path d="M224,26L237,43L265,36Z" fill="#f8c43a" stroke="#f8c43a" stroke-width="1.51"/><path d="M249,-30L237,-12L265,-7Z" fill="#fcc76f" stroke="#fcc76f" stroke-width="1.51"/><path d="M242,190L255,187L262,164Z" fill="#ef9a1d" stroke="#ef9a1d" stroke-width="1.51"/><path d="M232,232L256,250L262,228Z" fill="#e68815" stroke="#e68815" stroke-width="1.51"/><path d="M220,166L242,190L262,164Z" fill="#f19e20" stroke="#f19e20" stroke-width="1.51"/><path d="M242,136L220,166L262,164Z" fill="#f3a521" stroke="#f3a521" stroke-width="1.51"/><path d="M218,115L248,132L251,96Z" fill="#f4b121" stroke="#f4b121" stroke-width="1.51"/><path d="M232,232L232,249L256,250Z" fill="#e68816" stroke="#e68816" stroke-width="1.51"/><path d="M218,115L242,136L248,132Z" fill="#f5ae22" stroke="#f5ae22" stroke-width="1.51"/><path d="M223,76L218,115L251,96Z" fill="#f6b921" stroke="#f6b921" stroke-width="1.51"/><path d="M224,-37L237,-12L249,-30Z" fill="#fecc7a" stroke="#fecc7a" stroke-width="1.51"/><path d="M203,228L232,232L242,190Z" fill="#ec951b" stroke="#ec951b" stroke-width="1.51"/><path d="M210,23L224,26L237,-12Z" fill="#fccb56" stroke="#fccb56" stroke-width="1.51"/><path d="M206,48L223,76L237,43Z" fill="#f7c620" stroke="#f7c620" stroke-width="1.51"/><path d="M199,146L220,166L242,136Z" fill="#f6ab23" stroke="#f6ab23" stroke-width="1.51"/><path d="M218,115L199,146L242,136Z" fill="#f6b123" stroke="#f6b123" stroke-width="1.51"/><path d="M220,166L195,190L242,190Z" fill="#f2a220" stroke="#f2a220" stroke-width="1.51"/><path d="M195,190L203,228L242,190Z" fill="#ef9c1d" stroke="#ef9c1d" stroke-width="1.51"/><path d="M100,-50L145,-35L191,-45Z" fill="#ffe38e" stroke="#ffe38e" stroke-width="1.51"/><path d="M224,-37L189,-22L237,-12Z" fill="#ffd079" stroke="#ffd079" stroke-width="1.51"/><path d="M189,-22L210,23L237,-12Z" fill="#fdcf66" stroke="#fdcf66" stroke-width="1.51"/><path d="M224,26L206,48L237,43Z" fill="#fac937" stroke="#fac937" stroke-width="1.51"/><path d="M196,84L196,107L218,115Z" fill="#f7bd21" stroke="#f7bd21" stroke-width="1.51"/><path d="M196,84L218,115L223,76Z" fill="#f7be21" stroke="#f7be21" stroke-width="1.51"/><path d="M232,232L203,228L232,249Z" fill="#e98f18" stroke="#e98f18" stroke-width="1.51"/><path d="M203,228L191,249L232,249Z" fill="#e99117" stroke="#e99117" stroke-width="1.51"/><path d="M206,48L196,84L223,76Z" fill="#f8c621" stroke="#f8c621" stroke-width="1.51"/><path d="M191,-45L189,-22L224,-37Z" fill="#ffd583" stroke="#ffd583" stroke-width="1.51"/><path d="M210,23L206,48L224,26Z" fill="#fbcc40" stroke="#fbcc40" stroke-width="1.51"/><path d="M196,107L199,146L218,115Z" fill="#f7b722" stroke="#f7b722" stroke-width="1.51"/><path d="M199,146L187,161L220,166Z" fill="#f6ad23" stroke="#f6ad23" stroke-width="1.51"/><path d="M187,161L195,190L220,166Z" fill="#f4a921" stroke="#f4a921" stroke-width="1.51"/><path d="M178,73L196,84L206,48Z" fill="#f7ca20" stroke="#f7ca20" stroke-width="1.51"/><path d="M189,-22L162,-4L210,23Z" fill="#fdd564" stroke="#fdd564" stroke-width="1.51"/><path d="M162,-4L158,7L210,23Z" fill="#fdd65b" stroke="#fdd65b" stroke-width="1.51"/><path d="M156,40L206,48L210,23Z" fill="#fad03a" stroke="#fad03a" stroke-width="1.51"/><path d="M158,7L156,40L210,23Z" fill="#fcd54b" stroke="#fcd54b" stroke-width="1.51"/><path d="M145,-35L170,-34L191,-45Z" fill="#ffdc88" stroke="#ffdc88" stroke-width="1.51"/><path d="M196,107L169,109L199,146Z" fill="#f7bb22" stroke="#f7bb22" stroke-width="1.51"/><path d="M169,109L176,151L199,146Z" fill="#f7b922" stroke="#f7b922" stroke-width="1.51"/><path d="M195,190L171,229L203,228Z" fill="#ee9e1b" stroke="#ee9e1b" stroke-width="1.51"/><path d="M156,40L178,73L206,48Z" fill="#f8d120" stroke="#f8d120" stroke-width="1.51"/><path d="M166,192L171,229L195,190Z" fill="#f0a41c" stroke="#f0a41c" stroke-width="1.51"/><path d="M171,229L191,249L203,228Z" fill="#eb9717" stroke="#eb9717" stroke-width="1.51"/><path d="M187,161L166,175L195,190Z" fill="#f4ac20" stroke="#f4ac20" stroke-width="1.51"/><path d="M196,84L169,109L196,107Z" fill="#f8c221" stroke="#f8c221" stroke-width="1.51"/><path d="M176,151L187,161L199,146Z" fill="#f7b223" stroke="#f7b223" stroke-width="1.51"/><path d="M100,253L80,261L165,266Z" fill="#e8a110" stroke="#e8a110" stroke-width="1.51"/><path d="M170,-34L189,-22L191,-45Z" fill="#ffd984" stroke="#ffd984" stroke-width="1.51"/><path d="M166,175L166,192L195,190Z" fill="#f3aa1e" stroke="#f3aa1e" stroke-width="1.51"/><path d="M178,73L169,109L196,84Z" fill="#f8c721" stroke="#f8c721" stroke-width="1.51"/><path d="M171,229L165,266L191,249Z" fill="#e99615" stroke="#e99615" stroke-width="1.51"/><path d="M169,109L148,133L176,151Z" fill="#f7be22" stroke="#f7be22" stroke-width="1.51"/><path d="M170,-34L162,-4L189,-22Z" fill="#ffda77" stroke="#ffda77" stroke-width="1.51"/><path d="M176,151L166,175L187,161Z" fill="#f6b222" stroke="#f6b222" stroke-width="1.51"/><path d="M146,249L165,266L171,229Z" fill="#e99a15" stroke="#e99a15" stroke-width="1.51"/><path d="M166,192L140,223L171,229Z" fill="#eea51a" stroke="#eea51a" stroke-width="1.51"/><path d="M135,76L169,109L178,73Z" fill="#f8cc20" stroke="#f8cc20" stroke-width="1.51"/><path d="M156,40L135,76L178,73Z" fill="#f8d41f" stroke="#f8d41f" stroke-width="1.51"/><path d="M148,133L166,175L176,151Z" fill="#f7b822" stroke="#f7b822" stroke-width="1.51"/><path d="M146,249L100,253L165,266Z" fill="#e89d13" stroke="#e89d13" stroke-width="1.51"/><path d="M148,133L130,173L166,175Z" fill="#f7b922" stroke="#f7b922" stroke-width="1.51"/><path d="M145,188L140,223L166,192Z" fill="#f1ac1c" stroke="#f1ac1c" stroke-width="1.51"/><path d="M141,116L148,133L169,109Z" fill="#f8c421" stroke="#f8c421" stroke-width="1.51"/><path d="M135,76L141,116L169,109Z" fill="#f8cb20" stroke="#f8cb20" stroke-width="1.51"/><path d="M145,-35L162,-4L170,-34Z" fill="#ffde7c" stroke="#ffde7c" stroke-width="1.51"/><path d="M140,223L146,249L171,229Z" fill="#eca016" stroke="#eca016" stroke-width="1.51"/><path d="M166,175L145,188L166,192Z" fill="#f3af1f" stroke="#f3af1f" stroke-width="1.51"/><path d="M131,27L156,40L158,7Z" fill="#fcdb4a" stroke="#fcdb4a" stroke-width="1.51"/><path d="M145,-35L130,-24L162,-4Z" fill="#ffe179" stroke="#ffe179" stroke-width="1.51"/><path d="M130,173L145,188L166,175Z" fill="#f4b41f" stroke="#f4b41f" stroke-width="1.51"/><path d="M130,-24L158,7L162,-4Z" fill="#fede6b" stroke="#fede6b" stroke-width="1.51"/><path d="M127,36L135,76L156,40Z" fill="#f9db23" stroke="#f9db23" stroke-width="1.51"/><path d="M130,-24L131,27L158,7Z" fill="#fddf61" stroke="#fddf61" stroke-width="1.51"/><path d="M130,-24L112,19L131,27Z" fill="#fde25e" stroke="#fde25e" stroke-width="1.51"/><path d="M131,27L127,36L156,40Z" fill="#fbdd3e" stroke="#fbdd3e" stroke-width="1.51"/><path d="M99,137L102,162L130,173Z" fill="#f7c221" stroke="#f7c221" stroke-width="1.51"/><path d="M127,36L112,70L135,76Z" fill="#f8dc1e" stroke="#f8dc1e" stroke-width="1.51"/><path d="M135,76L105,105L141,116Z" fill="#f8d020" stroke="#f8d020" stroke-width="1.51"/><path d="M106,204L140,223L145,188Z" fill="#f0af1b" stroke="#f0af1b" stroke-width="1.51"/><path d="M100,-50L130,-24L145,-35Z" fill="#ffe788" stroke="#ffe788" stroke-width="1.51"/><path d="M141,116L99,137L148,133Z" fill="#f8c721" stroke="#f8c721" stroke-width="1.51"/><path d="M99,137L130,173L148,133Z" fill="#f7c221" stroke="#f7c221" stroke-width="1.51"/><path d="M102,-10L112,19L130,-24Z" fill="#fde66a" stroke="#fde66a" stroke-width="1.51"/><path d="M106,204L108,216L140,223Z" fill="#efaf19" stroke="#efaf19" stroke-width="1.51"/><path d="M140,223L100,253L146,249Z" fill="#eba414" stroke="#eba414" stroke-width="1.51"/><path d="M130,173L106,204L145,188Z" fill="#f3b51e" stroke="#f3b51e" stroke-width="1.51"/><path d="M108,216L100,253L140,223Z" fill="#edaa16" stroke="#edaa16" stroke-width="1.51"/><path d="M105,105L99,137L141,116Z" fill="#f8cd20" stroke="#f8cd20" stroke-width="1.51"/><path d="M112,70L105,105L135,76Z" fill="#f8d71f" stroke="#f8d71f" stroke-width="1.51"/><path d="M113,36L112,70L127,36Z" fill="#f9e029" stroke="#f9e029" stroke-width="1.51"/><path d="M102,162L106,204L130,173Z" fill="#f5bb1e" stroke="#f5bb1e" stroke-width="1.51"/><path d="M113,36L127,36L131,27Z" fill="#fbe03f" stroke="#fbe03f" stroke-width="1.51"/><path d="M112,19L113,36L131,27Z" fill="#fbe246" stroke="#fbe246" stroke-width="1.51"/><path d="M100,-50L102,-10L130,-24Z" fill="#ffe981" stroke="#ffe981" stroke-width="1.51"/><path d="M100,-50L69,-36L102,-10Z" fill="#ffef86" stroke="#ffef86" stroke-width="1.51"/><path d="M85,162L73,185L102,162Z" fill="#f7c41f" stroke="#f7c41f" stroke-width="1.51"/><path d="M89,129L99,137L105,105Z" fill="#f8d01f" stroke="#f8d01f" stroke-width="1.51"/><path d="M102,162L73,185L106,204Z" fill="#f4be1d" stroke="#f4be1d" stroke-width="1.51"/><path d="M85,215L100,253L108,216Z" fill="#eeaf16" stroke="#eeaf16" stroke-width="1.51"/><path d="M102,-10L91,23L112,19Z" fill="#fce75a" stroke="#fce75a" stroke-width="1.51"/><path d="M83,44L72,66L112,70Z" fill="#f8e41d" stroke="#f8e41d" stroke-width="1.51"/><path d="M85,95L105,105L112,70Z" fill="#f8d91e" stroke="#f8d91e" stroke-width="1.51"/><path d="M112,19L91,23L113,36Z" fill="#fce549" stroke="#fce549" stroke-width="1.51"/><path d="M91,23L83,44L113,36Z" fill="#fbe63e" stroke="#fbe63e" stroke-width="1.51"/><path d="M83,44L112,70L113,36Z" fill="#f9e323" stroke="#f9e323" stroke-width="1.51"/><path d="M72,66L85,95L112,70Z" fill="#f8df1d" stroke="#f8df1d" stroke-width="1.51"/><path d="M106,204L85,215L108,216Z" fill="#f0b419" stroke="#f0b419" stroke-width="1.51"/><path d="M56,254L22,264L80,261Z" fill="#edaa38" stroke="#edaa38" stroke-width="1.51"/><path d="M71,-6L91,23L102,-10Z" fill="#fdeb64" stroke="#fdeb64" stroke-width="1.51"/><path d="M99,137L85,162L102,162Z" fill="#f8c721" stroke="#f8c721" stroke-width="1.51"/><path d="M85,95L89,129L105,105Z" fill="#f8d51f" stroke="#f8d51f" stroke-width="1.51"/><path d="M73,185L85,215L106,204Z" fill="#f2ba1a" stroke="#f2ba1a" stroke-width="1.51"/><path d="M85,215L80,261L100,253Z" fill="#ebac12" stroke="#ebac12" stroke-width="1.51"/><path d="M69,-36L71,-6L102,-10Z" fill="#feef7b" stroke="#feef7b" stroke-width="1.51"/><path d="M47,-51L69,-36L100,-50Z" fill="#fff29c" stroke="#fff29c" stroke-width="1.51"/><path d="M55,238L80,261L85,215Z" fill="#eeb025" stroke="#eeb025" stroke-width="1.51"/><path d="M89,129L85,162L99,137Z" fill="#f8cb20" stroke="#f8cb20" stroke-width="1.51"/><path d="M85,95L49,125L89,129Z" fill="#f9d62e" stroke="#f9d62e" stroke-width="1.51"/><path d="M49,125L85,162L89,129Z" fill="#f9cf2f" stroke="#f9cf2f" stroke-width="1.51"/><path d="M49,12L83,44L91,23Z" fill="#fdea53" stroke="#fdea53" stroke-width="1.51"/><path d="M71,-6L49,12L91,23Z" fill="#feec68" stroke="#feec68" stroke-width="1.51"/><path d="M55,238L56,254L80,261Z" fill="#edac2e" stroke="#edac2e" stroke-width="1.51"/><path d="M49,179L73,185L85,162Z" fill="#f7c433" stroke="#f7c433" stroke-width="1.51"/><path d="M49,125L49,179L85,162Z" fill="#facb3e" stroke="#facb3e" stroke-width="1.51"/><path d="M55,74L38,111L85,95Z" fill="#fbdd40" stroke="#fbdd40" stroke-width="1.51"/><path d="M38,111L49,125L85,95Z" fill="#fbd842" stroke="#fbd842" stroke-width="1.51"/><path d="M72,66L55,74L85,95Z" fill="#fae033" stroke="#fae033" stroke-width="1.51"/><path d="M73,185L44,193L85,215Z" fill="#f5bd32" stroke="#f5bd32" stroke-width="1.51"/><path d="M44,193L55,238L85,215Z" fill="#f3b836" stroke="#f3b836" stroke-width="1.51"/><path d="M69,-36L54,-19L71,-6Z" fill="#fff08a" stroke="#fff08a" stroke-width="1.51"/><path d="M45,56L72,66L83,44Z" fill="#fae838" stroke="#fae838" stroke-width="1.51"/><path d="M49,12L45,56L83,44Z" fill="#fdea54" stroke="#fdea54" stroke-width="1.51"/><path d="M45,56L55,74L72,66Z" fill="#fbe542" stroke="#fbe542" stroke-width="1.51"/><path d="M49,179L44,193L73,185Z" fill="#f8c23f" stroke="#f8c23f" stroke-width="1.51"/><path d="M54,-19L49,12L71,-6Z" fill="#ffef80" stroke="#ffef80" stroke-width="1.51"/><path d="M49,125L15,150L49,179Z" fill="#fcce53" stroke="#fcce53" stroke-width="1.51"/><path d="M47,-51L54,-19L69,-36Z" fill="#fff29e" stroke="#fff29e" stroke-width="1.51"/><path d="M7,30L45,56L49,12Z" fill="#feed6e" stroke="#feed6e" stroke-width="1.51"/><path d="M30,-25L49,12L54,-19Z" fill="#fff090" stroke="#fff090" stroke-width="1.51"/><path d="M47,-51L30,-25L54,-19Z" fill="#fff3a3" stroke="#fff3a3" stroke-width="1.51"/><path d="M44,193L19,215L55,238Z" fill="#f4b94a" stroke="#f4b94a" stroke-width="1.51"/><path d="M13,97L38,111L55,74Z" fill="#fcdf56" stroke="#fcdf56" stroke-width="1.51"/><path d="M15,67L13,97L55,74Z" fill="#fde45d" stroke="#fde45d" stroke-width="1.51"/><path d="M55,238L22,264L56,254Z" fill="#eead40" stroke="#eead40" stroke-width="1.51"/><path d="M19,215L22,264L55,238Z" fill="#f1b34c" stroke="#f1b34c" stroke-width="1.51"/><path d="M45,56L15,67L55,74Z" fill="#fce754" stroke="#fce754" stroke-width="1.51"/><path d="M7,30L7,54L45,56Z" fill="#feed6b" stroke="#feed6b" stroke-width="1.51"/><path d="M19,-55L30,-25L47,-51Z" fill="#fff6b6" stroke="#fff6b6" stroke-width="1.51"/><path d="M38,111L15,150L49,125Z" fill="#fcd556" stroke="#fcd556" stroke-width="1.51"/><path d="M30,-25L-7,0L49,12Z" fill="#fff299" stroke="#fff299" stroke-width="1.51"/><path d="M-7,0L7,30L49,12Z" fill="#fff08d" stroke="#fff08d" stroke-width="1.51"/><path d="M12,180L44,193L49,179Z" fill="#f9c452" stroke="#f9c452" stroke-width="1.51"/><path d="M15,150L12,180L49,179Z" fill="#fcc95b" stroke="#fcc95b" stroke-width="1.51"/><path d="M10,196L19,215L44,193Z" fill="#f7bf57" stroke="#f7bf57" stroke-width="1.51"/><path d="M7,54L15,67L45,56Z" fill="#fdea62" stroke="#fdea62" stroke-width="1.51"/><path d="M19,215L-4,245L22,264Z" fill="#f2b35b" stroke="#f2b35b" stroke-width="1.51"/><path d="M12,180L10,196L44,193Z" fill="#f9c35b" stroke="#f9c35b" stroke-width="1.51"/><path d="M-39,-54L-15,-46L19,-55Z" fill="#fffadd" stroke="#fffadd" stroke-width="1.51"/><path d="M-3,137L15,150L38,111Z" fill="#fdd564" stroke="#fdd564" stroke-width="1.51"/><path d="M13,97L-3,137L38,111Z" fill="#fdda65" stroke="#fdda65" stroke-width="1.51"/><path d="M19,-55L-15,-46L30,-25Z" fill="#fff7c3" stroke="#fff7c3" stroke-width="1.51"/><path d="M-15,-46L-7,0L30,-25Z" fill="#fff6b9" stroke="#fff6b9" stroke-width="1.51"/><path d="M-7,0L-12,15L7,30Z" fill="#fff29b" stroke="#fff29b" stroke-width="1.51"/><path d="M-1,75L13,97L15,67Z" fill="#fde56c" stroke="#fde56c" stroke-width="1.51"/><path d="M0,176L12,180L15,150Z" fill="#fcca67" stroke="#fcca67" stroke-width="1.51"/><path d="M-4,245L-37,255L22,264Z" fill="#f1b066" stroke="#f1b066" stroke-width="1.51"/><path d="M-19,99L-3,137L13,97Z" fill="#fedd74" stroke="#fedd74" stroke-width="1.51"/><path d="M-21,228L-4,245L19,215Z" fill="#f5b867" stroke="#f5b867" stroke-width="1.51"/><path d="M-12,206L-21,228L19,215Z" fill="#f7bd6b" stroke="#f7bd6b" stroke-width="1.51"/><path d="M10,196L-12,206L19,215Z" fill="#f7bf65" stroke="#f7bf65" stroke-width="1.51"/><path d="M7,54L-1,75L15,67Z" fill="#fdea6e" stroke="#fdea6e" stroke-width="1.51"/><path d="M-3,137L0,176L15,150Z" fill="#fecf6d" stroke="#fecf6d" stroke-width="1.51"/><path d="M-11,41L7,54L7,30Z" fill="#ffef7e" stroke="#ffef7e" stroke-width="1.51"/><path d="M0,176L10,196L12,180Z" fill="#fac667" stroke="#fac667" stroke-width="1.51"/><path d="M-1,75L-19,99L13,97Z" fill="#fee374" stroke="#fee374" stroke-width="1.51"/><path d="M0,176L-12,206L10,196Z" fill="#fac46b" stroke="#fac46b" stroke-width="1.51"/><path d="M-15,-46L-31,-6L-7,0Z" fill="#fff7c2" stroke="#fff7c2" stroke-width="1.51"/><path d="M-19,99L-28,105L-3,137Z" fill="#ffdd7e" stroke="#ffdd7e" stroke-width="1.51"/><path d="M-11,41L-1,75L7,54Z" fill="#feed76" stroke="#feed76" stroke-width="1.51"/><path d="M-12,15L-11,41L7,30Z" fill="#fff190" stroke="#fff190" stroke-width="1.51"/><path d="M-47,149L-45,170L-3,137Z" fill="#ffd387" stroke="#ffd387" stroke-width="1.51"/><path d="M-11,41L-48,74L-1,75Z" fill="#ffed83" stroke="#ffed83" stroke-width="1.51"/><path d="M-32,202L-12,206L0,176Z" fill="#fbc575" stroke="#fbc575" stroke-width="1.51"/><path d="M-45,170L-32,202L0,176Z" fill="#fdc97f" stroke="#fdc97f" stroke-width="1.51"/><path d="M-3,137L-45,170L0,176Z" fill="#ffcf7b" stroke="#ffcf7b" stroke-width="1.51"/><path d="M-48,74L-19,99L-1,75Z" fill="#ffe784" stroke="#ffe784" stroke-width="1.51"/><path d="M-28,105L-47,149L-3,137Z" fill="#ffd984" stroke="#ffd984" stroke-width="1.51"/><path d="M-21,228L-37,255L-4,245Z" fill="#f4b572" stroke="#f4b572" stroke-width="1.51"/><path d="M-12,15L-30,13L-11,41Z" fill="#fff29d" stroke="#fff29d" stroke-width="1.51"/><path d="M-53,45L-48,74L-11,41Z" fill="#fff190" stroke="#fff190" stroke-width="1.51"/><path d="M-30,13L-12,15L-7,0Z" fill="#fff4a9" stroke="#fff4a9" stroke-width="1.51"/><path d="M-31,-6L-30,13L-7,0Z" fill="#fff5b4" stroke="#fff5b4" stroke-width="1.51"/><path d="M-39,-54L-31,-6L-15,-46Z" fill="#fffada" stroke="#fffada" stroke-width="1.51"/><path d="M-32,202L-21,228L-12,206Z" fill="#f9bf78" stroke="#f9bf78" stroke-width="1.51"/><path d="M-30,13L-53,45L-11,41Z" fill="#fff39e" stroke="#fff39e" stroke-width="1.51"/><path d="M-48,74L-28,105L-19,99Z" fill="#ffe58a" stroke="#ffe58a" stroke-width="1.51"/><path d="M-53,235L-37,255L-21,228Z" fill="#f6b87e" stroke="#f6b87e" stroke-width="1.51"/><path d="M-32,202L-53,235L-21,228Z" fill="#f9bd80" stroke="#f9bd80" stroke-width="1.51"/><path d="M-48,74L-47,149L-28,105Z" fill="#ffe08f" stroke="#ffe08f" stroke-width="1.51"/><path d="M-31,-6L-53,45L-30,13Z" fill="#fff5b1" stroke="#fff5b1" stroke-width="1.51"/><path d="M-39,-54L-53,45L-31,-6Z" fill="#fff7c7" stroke="#fff7c7" stroke-width="1.51"/><path d="M-45,170L-53,235L-32,202Z" fill="#fcc488" stroke="#fcc488" stroke-width="1.51"/><path d="M-47,149L-53,235L-45,170Z" fill="#ffca8e" stroke="#ffca8e" stroke-width="1.51"/><path d="M-48,74L-53,45L-47,149Z" fill="#ffe797" stroke="#ffe797" stroke-width="1.51"/><path d="M-53,45L-53,235L-47,149Z" fill="#ffd794" stroke="#ffd794" stroke-width="1.51"/></svg>