<svg xmlns="http://www.w3.org/2000/svg" width="400" height="30"><path d="M132 69l-79 8h191z" fill="#eab333" stroke="#eab333" stroke-width="1.51"/><path d="M188-40h53l66-6z" fill="#f2d963" stroke="#f2d963" stroke-width="1.51"/><path d="M80-48l108 8 119-6z" fill="#f0d156" stroke="#f0d156" stroke-width="1.51"/><path d="M329-41l24 5 50-1z" fill="#f6cd55" stroke="#f6cd55" stroke-width="1.51"/><path d="M329-41l74 4 35-8z" fill="#f7ca4e" stroke="#f7ca4e" stroke-width="1.51"/><path d="M307-46l22 5 109-4z" fill="#f8d159" stroke="#f8d159" stroke-width="1.51"/><path d="M438-45l-35 8 41 24z" fill="#f3be3d" stroke="#f3be3d" stroke-width="1.51"/><path d="M403-37l-3 28 44-4z" fill="#eeba3a" stroke="#eeba3a" stroke-width="1.51"/><path d="M405 3l25 21 14-37z" fill="#ebb83c" stroke="#ebb83c" stroke-width="1.51"/><path d="M430 24l-16 18 31-11z" fill="#f3c95b" stroke="#f3c95b" stroke-width="1.51"/><path d="M444-13l-14 37 15 7z" fill="#eebb43" stroke="#eebb43" stroke-width="1.51"/><path d="M416 56l-38 15 67-17z" fill="#f5bb47" stroke="#f5bb47" stroke-width="1.51"/><path d="M445 31l-31 11 31 12z" fill="#f4c556" stroke="#f4c556" stroke-width="1.51"/><path d="M414 42l2 14 29-2z" fill="#f5c04f" stroke="#f5c04f" stroke-width="1.51"/><path d="M400-9l5 12 39-16z" fill="#e8b331" stroke="#e8b331" stroke-width="1.51"/><path d="M396 29l18 13 16-18z" fill="#f2cb5f" stroke="#f2cb5f" stroke-width="1.51"/><path d="M405 3l-9 26 34-5z" fill="#efc451" stroke="#efc451" stroke-width="1.51"/><path d="M353-36l34 6 16-7z" fill="#f4c84d" stroke="#f4c84d" stroke-width="1.51"/><path d="M414 42l-18-13 20 27z" fill="#f4ca5e" stroke="#f4ca5e" stroke-width="1.51"/><path d="M396 29l-18 42 38-15z" fill="#f4c556" stroke="#f4c556" stroke-width="1.51"/><path d="M111 69l-58 8 79-8z" fill="#eab330" stroke="#eab330" stroke-width="1.51"/><path d="M387-30l13 21 3-28z" fill="#f0c143" stroke="#f0c143" stroke-width="1.51"/><path d="M400-9l-16 19 21-7z" fill="#eabc41" stroke="#eabc41" stroke-width="1.51"/><path d="M384 10l12 19 9-26z" fill="#edc451" stroke="#edc451" stroke-width="1.51"/><path d="M353 30l25 41 18-42z" fill="#f3cf66" stroke="#f3cf66" stroke-width="1.51"/><path d="M387-30l-12 14 25 7z" fill="#edbf42" stroke="#edbf42" stroke-width="1.51"/><path d="M375-16l9 26 16-19z" fill="#e8ba3c" stroke="#e8ba3c" stroke-width="1.51"/><path d="M280 63l-36 14 102-3z" fill="#f4ca5e" stroke="#f4ca5e" stroke-width="1.51"/><path d="M384 10l-31 20 43-1z" fill="#efcd60" stroke="#efcd60" stroke-width="1.51"/><path d="M353 30l-2 35 27 6z" fill="#f4c95d" stroke="#f4c95d" stroke-width="1.51"/><path d="M366 5l-13 25 31-20z" fill="#edca59" stroke="#edca59" stroke-width="1.51"/><path d="M375-16l-9 21 18 5z" fill="#e9bf45" stroke="#e9bf45" stroke-width="1.51"/><path d="M353-36l22 20 12-14z" fill="#f1c64c" stroke="#f1c64c" stroke-width="1.51"/><path d="M203 67l-71 2 112 8z" fill="#edbe46" stroke="#edbe46" stroke-width="1.51"/><path d="M351 65l-5 9 32-3z" fill="#f5be4c" stroke="#f5be4c" stroke-width="1.51"/><path d="M352 1l14 4 9-21z" fill="#e8bf45" stroke="#e8bf45" stroke-width="1.51"/><path d="M353-36l-1 37 23-17z" fill="#ecc34a" stroke="#ecc34a" stroke-width="1.51"/><path d="M335-8l17 9 1-37z" fill="#ebc44d" stroke="#ebc44d" stroke-width="1.51"/><path d="M349 7l4 23 13-25z" fill="#edcb5c" stroke="#edcb5c" stroke-width="1.51"/><path d="M352 1l-3 6 17-2z" fill="#eac551" stroke="#eac551" stroke-width="1.51"/><path d="M-15-45l33 2 62-5z" fill="#f6d04c" stroke="#f6d04c" stroke-width="1.51"/><path d="M241-40l17 3 49-9z" fill="#f4db69" stroke="#f4db69" stroke-width="1.51"/><path d="M305 56l-25 7 66 11z" fill="#f4cc61" stroke="#f4cc61" stroke-width="1.51"/><path d="M339 31l-34 25 46 9z" fill="#f3d26a" stroke="#f3d26a" stroke-width="1.51"/><path d="M329-41l6 33 18-28z" fill="#f1cc56" stroke="#f1cc56" stroke-width="1.51"/><path d="M339 31l12 34 2-35z" fill="#f2d66f" stroke="#f2d66f" stroke-width="1.51"/><path d="M349 7l-10 24 14-1z" fill="#eed267" stroke="#eed267" stroke-width="1.51"/><path d="M335-8l14 15 3-6z" fill="#e8c44f" stroke="#e8c44f" stroke-width="1.51"/><path d="M320 15l19 16 10-24z" fill="#edd266" stroke="#edd266" stroke-width="1.51"/><path d="M305 56l41 18 5-9z" fill="#f4c759" stroke="#f4c759" stroke-width="1.51"/><path d="M335-8l-15 23 29-8z" fill="#eac957" stroke="#eac957" stroke-width="1.51"/><path d="M298-16l6 9 25-34z" fill="#edcf5b" stroke="#edcf5b" stroke-width="1.51"/><path d="M329-41L304-7l31-1z" fill="#eccb56" stroke="#eccb56" stroke-width="1.51"/><path d="M320 15l-16 21 35-5z" fill="#efda74" stroke="#efda74" stroke-width="1.51"/><path d="M304 36l1 20 34-25z" fill="#f1dd7a" stroke="#f1dd7a" stroke-width="1.51"/><path d="M298-36v20l31-25z" fill="#f1d461" stroke="#f1d461" stroke-width="1.51"/><path d="M304-7l16 22 15-23z" fill="#e7c956" stroke="#e7c956" stroke-width="1.51"/><path d="M307-46l-9 10 31-5z" fill="#f5d865" stroke="#f5d865" stroke-width="1.51"/><path d="M80-48l84 12 24-4z" fill="#ecc845" stroke="#ecc845" stroke-width="1.51"/><path d="M304-7l-16 32 32-10z" fill="#ead367" stroke="#ead367" stroke-width="1.51"/><path d="M288 25l16 11 16-21z" fill="#eddc77" stroke="#eddc77" stroke-width="1.51"/><path d="M81 71l-28 6 58-8z" fill="#ecb532" stroke="#ecb532" stroke-width="1.51"/><path d="M304 36l-26 4 27 16z" fill="#f0de7c" stroke="#f0de7c" stroke-width="1.51"/><path d="M258-37l40 1 9-10z" fill="#f4dc6c" stroke="#f4dc6c" stroke-width="1.51"/><path d="M278 40l-4 12 6 11z" fill="#f0da75" stroke="#f0da75" stroke-width="1.51"/><path d="M261-6l13 30 14 1z" fill="#e9d86e" stroke="#e9d86e" stroke-width="1.51"/><path d="M298-16L261-6l43-1z" fill="#e7ce5b" stroke="#e7ce5b" stroke-width="1.51"/><path d="M261-6l27 31 16-32z" fill="#e8d365" stroke="#e8d365" stroke-width="1.51"/><path d="M278 40l2 23 25-7z" fill="#f1d974" stroke="#f1d974" stroke-width="1.51"/><path d="M188-40l27 4 26-4z" fill="#efd259" stroke="#efd259" stroke-width="1.51"/><path d="M288 25l-10 15 26-4z" fill="#eee484" stroke="#eee484" stroke-width="1.51"/><path d="M274 48v4l4-12z" fill="#f0dd7a" stroke="#f0dd7a" stroke-width="1.51"/><path d="M298-36l-40-1 40 21z" fill="#efd867" stroke="#efd867" stroke-width="1.51"/><path d="M258-37l3 31 37-10z" fill="#ead15f" stroke="#ead15f" stroke-width="1.51"/><path d="M274 24l4 16 10-15z" fill="#ede281" stroke="#ede281" stroke-width="1.51"/><path d="M274 52l-30 25 36-14z" fill="#f2ce64" stroke="#f2ce64" stroke-width="1.51"/><path d="M274 24v24l4-8z" fill="#eee584" stroke="#eee584" stroke-width="1.51"/><path d="M80-48l66 14 18-2z" fill="#eac53f" stroke="#eac53f" stroke-width="1.51"/><path d="M261-6l-31 17 44 13z" fill="#e7d264" stroke="#e7d264" stroke-width="1.51"/><path d="M230 11l10 39 34-26z" fill="#ebdc77" stroke="#ebdc77" stroke-width="1.51"/><path d="M274 24l-34 26 34-2z" fill="#eee07d" stroke="#eee07d" stroke-width="1.51"/><path d="M274 48l-34 2 34 2z" fill="#f0d973" stroke="#f0d973" stroke-width="1.51"/><path d="M240 50l4 27 30-25z" fill="#f1d065" stroke="#f1d065" stroke-width="1.51"/><path d="M258-37l-17-3 20 34z" fill="#edd25e" stroke="#edd25e" stroke-width="1.51"/><path d="M241-40L228 0l33-6z" fill="#e7cb54" stroke="#e7cb54" stroke-width="1.51"/><path d="M228 0l2 11 31-17z" fill="#e4ca57" stroke="#e4ca57" stroke-width="1.51"/><path d="M230 11l-9 29 19 10z" fill="#ebdd77" stroke="#ebdd77" stroke-width="1.51"/><path d="M215-36l13 36 13-40z" fill="#eacd55" stroke="#eacd55" stroke-width="1.51"/><path d="M240 50l-37 17 41 10z" fill="#f0c859" stroke="#f0c859" stroke-width="1.51"/><path d="M221 40l-18 27 37-17z" fill="#eed064" stroke="#eed064" stroke-width="1.51"/><path d="M201-1l20 41 1-37z" fill="#e6ce5e" stroke="#e6ce5e" stroke-width="1.51"/><path d="M215-36L201-1l21 4z" fill="#e3c449" stroke="#e3c449" stroke-width="1.51"/><path d="M215-36l7 39 6-3z" fill="#e4c54b" stroke="#e4c54b" stroke-width="1.51"/><path d="M228 0l-6 3 8 8z" fill="#e4ca56" stroke="#e4ca56" stroke-width="1.51"/><path d="M222 3l-1 37 9-29z" fill="#e8d265" stroke="#e8d265" stroke-width="1.51"/><path d="M185 3l9 43 7-47z" fill="#e6cc5a" stroke="#e6cc5a" stroke-width="1.51"/><path d="M197-2l4 1 14-35z" fill="#e3c447" stroke="#e3c447" stroke-width="1.51"/><path d="M194 46l9 21 18-27z" fill="#edcf62" stroke="#edcf62" stroke-width="1.51"/><path d="M201-1l-7 47 27-6z" fill="#e9d56b" stroke="#e9d56b" stroke-width="1.51"/><path d="M168 54l-36 15 71-2z" fill="#ebc049" stroke="#ebc049" stroke-width="1.51"/><path d="M188-40l9 38 18-34z" fill="#e9ca4d" stroke="#e9ca4d" stroke-width="1.51"/><path d="M160-22l25 25 3-43z" fill="#e5c343" stroke="#e5c343" stroke-width="1.51"/><path d="M188-40l-3 43 12-5z" fill="#e2c243" stroke="#e2c243" stroke-width="1.51"/><path d="M197-2l-12 5 16-4z" fill="#e1c247" stroke="#e1c247" stroke-width="1.51"/><path d="M187 56l-19-2 35 13z" fill="#edc653" stroke="#edc653" stroke-width="1.51"/><path d="M194 46l-7 10 16 11z" fill="#edc959" stroke="#edc959" stroke-width="1.51"/><path d="M185 3l-34 36 43 7z" fill="#e7d264" stroke="#e7d264" stroke-width="1.51"/><path d="M151 39l17 15 26-8z" fill="#eacd5e" stroke="#eacd5e" stroke-width="1.51"/><path d="M158 3l-7 36 34-36z" fill="#e3c750" stroke="#e3c750" stroke-width="1.51"/><path d="M164-36l-4 14 28-18z" fill="#eac848" stroke="#eac848" stroke-width="1.51"/><path d="M168 54l19 2 7-10z" fill="#ebcb5b" stroke="#ebcb5b" stroke-width="1.51"/><path d="M160-22l-2 25h27z" fill="#debb39" stroke="#debb39" stroke-width="1.51"/><path d="M132 19l19 20 7-36z" fill="#e3c751" stroke="#e3c751" stroke-width="1.51"/><path d="M151 39l-19 30 36-15z" fill="#eac44f" stroke="#eac44f" stroke-width="1.51"/><path d="M142-6l16 9 2-25z" fill="#deb935" stroke="#deb935" stroke-width="1.51"/><path d="M146-34l14 12 4-14z" fill="#e8c543" stroke="#e8c543" stroke-width="1.51"/><path d="M126 49l6 20 19-30z" fill="#e8c34d" stroke="#e8c34d" stroke-width="1.51"/><path d="M146-34l-4 28 18-16z" fill="#e3bf3b" stroke="#e3bf3b" stroke-width="1.51"/><path d="M80-48l21 21 45-7z" fill="#e9c23a" stroke="#e9c23a" stroke-width="1.51"/><path d="M142-6l-10 25 26-16z" fill="#dfbe3f" stroke="#dfbe3f" stroke-width="1.51"/><path d="M132 19l-8 22 27-2z" fill="#e6ce5d" stroke="#e6ce5d" stroke-width="1.51"/><path d="M124 41l2 8 25-10z" fill="#e8ca57" stroke="#e8ca57" stroke-width="1.51"/><path d="M101-27l9 26 32-5z" fill="#dcb52a" stroke="#dcb52a" stroke-width="1.51"/><path d="M101-27l41 21 4-28z" fill="#e2bd35" stroke="#e2bd35" stroke-width="1.51"/><path d="M110-1l11 20h11z" fill="#e0be40" stroke="#e0be40" stroke-width="1.51"/><path d="M110-1l22 20 10-25z" fill="#deba38" stroke="#deba38" stroke-width="1.51"/><path d="M126 49l-15 20h21z" fill="#e8ba3c" stroke="#e8ba3c" stroke-width="1.51"/><path d="M121 19l3 22 8-22z" fill="#e3c852" stroke="#e3c852" stroke-width="1.51"/><path d="M121 19L96 43l28-2z" fill="#e5cc59" stroke="#e5cc59" stroke-width="1.51"/><path d="M124 41l-28 2 30 6z" fill="#e6c650" stroke="#e6c650" stroke-width="1.51"/><path d="M96 43l15 26 15-20z" fill="#e8bf46" stroke="#e8bf46" stroke-width="1.51"/><path d="M110-1L90 21l31-2z" fill="#e0bf41" stroke="#e0bf41" stroke-width="1.51"/><path d="M90 21l6 22 25-24z" fill="#e5c953" stroke="#e5c953" stroke-width="1.51"/><path d="M101-27l-14 6 23 20z" fill="#e1ba2f" stroke="#e1ba2f" stroke-width="1.51"/><path d="M96 43L81 71l30-2z" fill="#eabc3f" stroke="#eabc3f" stroke-width="1.51"/><path d="M87-21l3 42 20-22z" fill="#deb931" stroke="#deb931" stroke-width="1.51"/><path d="M87-21L59 15l31 6z" fill="#e1be3b" stroke="#e1be3b" stroke-width="1.51"/><path d="M80-48l7 27 14-6z" fill="#e9c23b" stroke="#e9c23b" stroke-width="1.51"/><path d="M90 21L60 40l36 3z" fill="#e9d05e" stroke="#e9d05e" stroke-width="1.51"/><path d="M60 40l21 31 15-28z" fill="#ebc54d" stroke="#ebc54d" stroke-width="1.51"/><path d="M18-43l21 8 41-13z" fill="#f2cd47" stroke="#f2cd47" stroke-width="1.51"/><path d="M50-15l9 30 28-36z" fill="#e0b92f" stroke="#e0b92f" stroke-width="1.51"/><path d="M80-48L66-32l21 11z" fill="#ebc53d" stroke="#ebc53d" stroke-width="1.51"/><path d="M59 15l1 25 30-19z" fill="#e8cc55" stroke="#e8cc55" stroke-width="1.51"/><path d="M66-32L50-15l37-6z" fill="#e7c139" stroke="#e7c139" stroke-width="1.51"/><path d="M39-35l27 3 14-16z" fill="#efc943" stroke="#efc943" stroke-width="1.51"/><path d="M60 40l-7 37 28-6z" fill="#eebe41" stroke="#eebe41" stroke-width="1.51"/><path d="M34 59l19 18 7-37z" fill="#efc449" stroke="#efc449" stroke-width="1.51"/><path d="M59 15l-12 5 13 20z" fill="#eacd57" stroke="#eacd57" stroke-width="1.51"/><path d="M39-35l11 20 16-17z" fill="#ebc43e" stroke="#ebc43e" stroke-width="1.51"/><path d="M25 1l22 19 3-35z" fill="#e5c13c" stroke="#e5c13c" stroke-width="1.51"/><path d="M22 61l-23 5 54 11z" fill="#f2bf40" stroke="#f2bf40" stroke-width="1.51"/><path d="M50-15l-3 35 12-5z" fill="#e5c241" stroke="#e5c241" stroke-width="1.51"/><path d="M47 20L30 45l30-5z" fill="#edd563" stroke="#edd563" stroke-width="1.51"/><path d="M30 45l4 14 26-19z" fill="#efcc57" stroke="#efcc57" stroke-width="1.51"/><path d="M34 59l-12 2 31 16z" fill="#f1c042" stroke="#f1c042" stroke-width="1.51"/><path d="M39-35L25 1l25-16z" fill="#e7c139" stroke="#e7c139" stroke-width="1.51"/><path d="M12 31l18 14 17-25z" fill="#eed562" stroke="#eed562" stroke-width="1.51"/><path d="M25 1L12 31l35-11z" fill="#eacc52" stroke="#eacc52" stroke-width="1.51"/><path d="M19 0l6 1 14-36z" fill="#e7c038" stroke="#e7c038" stroke-width="1.51"/><path d="M18-43l1 43 20-35z" fill="#edc741" stroke="#edc741" stroke-width="1.51"/><path d="M9 5l3 26L25 1z" fill="#ebca4d" stroke="#ebca4d" stroke-width="1.51"/><path d="M30 45l-8 16 12-2z" fill="#f1c850" stroke="#f1c850" stroke-width="1.51"/><path d="M19 0L9 5l16-4z" fill="#e7c440" stroke="#e7c440" stroke-width="1.51"/><path d="M12 31l10 30 8-16z" fill="#f1d15c" stroke="#f1d15c" stroke-width="1.51"/><path d="M-15-45L9 5l9-48z" fill="#f0cb45" stroke="#f0cb45" stroke-width="1.51"/><path d="M18-43L9 5l10-5z" fill="#e8c23a" stroke="#e8c23a" stroke-width="1.51"/><path d="M12 31L-1 66l23-5z" fill="#f2cc55" stroke="#f2cc55" stroke-width="1.51"/><path d="M-15-45l-6 46L9 5z" fill="#ebc53e" stroke="#ebc53e" stroke-width="1.51"/><path d="M-18 49l17 17 13-35z" fill="#f4d15b" stroke="#f4d15b" stroke-width="1.51"/><path d="M9 5L-7 23l19 8z" fill="#eed157" stroke="#eed157" stroke-width="1.51"/><path d="M-7 23l-11 26 30-18z" fill="#f2da69" stroke="#f2da69" stroke-width="1.51"/><path d="M-21 1l14 22L9 5z" fill="#eccb4d" stroke="#eccb4d" stroke-width="1.51"/><path d="M-43-19l22 20 6-46z" fill="#f0cb45" stroke="#f0cb45" stroke-width="1.51"/><path d="M-18 49l-21 8 38 9z" fill="#f6cd54" stroke="#f6cd54" stroke-width="1.51"/><path d="M-29 9l-9 39 20 1z" fill="#f5de6d" stroke="#f5de6d" stroke-width="1.51"/><path d="M-29 9l11 40 11-26z" fill="#f2d863" stroke="#f2d863" stroke-width="1.51"/><path d="M-21 1l-8 8 22 14z" fill="#edcd50" stroke="#edcd50" stroke-width="1.51"/><path d="M-49-34l6 15 28-26z" fill="#f7d24e" stroke="#f7d24e" stroke-width="1.51"/><path d="M-38 48l-1 9 21-8z" fill="#f7d35c" stroke="#f7d35c" stroke-width="1.51"/><path d="M-43-19l14 28 8-8z" fill="#ebc641" stroke="#ebc641" stroke-width="1.51"/><path d="M-43-19l5 67 9-39z" fill="#f0d155" stroke="#f0d155" stroke-width="1.51"/><path d="M-49-34l10 91 1-9z" fill="#f3d962" stroke="#f3d962" stroke-width="1.51"/><path d="M-43-19l-6-15 11 82z" fill="#edc844" stroke="#edc844" stroke-width="1.51"/></svg>