<svg xmlns="http://www.w3.org/2000/svg" width="400" height="30"><path d="M132 69l-79 8h191z" fill="#c56339" stroke="#c56339" stroke-width="1.51"/><path d="M188-40h53l66-6z" fill="#ffb174" stroke="#ffb174" stroke-width="1.51"/><path d="M80-48l108 8 119-6z" fill="#ffc781" stroke="#ffc781" stroke-width="1.51"/><path d="M329-41l24 5 50-1z" fill="#ef9366" stroke="#ef9366" stroke-width="1.51"/><path d="M329-41l74 4 35-8z" fill="#e5906b" stroke="#e5906b" stroke-width="1.51"/><path d="M307-46l22 5 109-4z" fill="#f1966d" stroke="#f1966d" stroke-width="1.51"/><path d="M438-45l-35 8 41 24z" fill="#cf845e" stroke="#cf845e" stroke-width="1.51"/><path d="M403-37l-3 28 44-4z" fill="#d47e50" stroke="#d47e50" stroke-width="1.51"/><path d="M405 3l25 21 14-37z" fill="#cb6036" stroke="#cb6036" stroke-width="1.51"/><path d="M430 24l-16 18 31-11z" fill="#c52a28" stroke="#c52a28" stroke-width="1.51"/><path d="M444-13l-14 37 15 7z" fill="#c35133" stroke="#c35133" stroke-width="1.51"/><path d="M416 56l-38 15 67-17z" fill="#b20126" stroke="#b20126" stroke-width="1.51"/><path d="M445 31l-31 11 31 12z" fill="#bb1724" stroke="#bb1724" stroke-width="1.51"/><path d="M414 42l2 14 29-2z" fill="#b80923" stroke="#b80923" stroke-width="1.51"/><path d="M400-9l5 12 39-16z" fill="#d16f40" stroke="#d16f40" stroke-width="1.51"/><path d="M396 29l18 13 16-18z" fill="#ce2c29" stroke="#ce2c29" stroke-width="1.51"/><path d="M405 3l-9 26 34-5z" fill="#d14c30" stroke="#d14c30" stroke-width="1.51"/><path d="M353-36l34 6 16-7z" fill="#e88e62" stroke="#e88e62" stroke-width="1.51"/><path d="M414 42l-18-13 20 27z" fill="#c81924" stroke="#c81924" stroke-width="1.51"/><path d="M396 29l-18 42 38-15z" fill="#c40923" stroke="#c40923" stroke-width="1.51"/><path d="M111 69l-58 8 79-8z" fill="#cd7345" stroke="#cd7345" stroke-width="1.51"/><path d="M387-30l13 21 3-28z" fill="#df8657" stroke="#df8657" stroke-width="1.51"/><path d="M400-9l-16 19 21-7z" fill="#db6837" stroke="#db6837" stroke-width="1.51"/><path d="M384 10l12 19 9-26z" fill="#da5732" stroke="#da5732" stroke-width="1.51"/><path d="M353 30l25 41 18-42z" fill="#d61922" stroke="#d61922" stroke-width="1.51"/><path d="M387-30l-12 14 25 7z" fill="#e3834e" stroke="#e3834e" stroke-width="1.51"/><path d="M375-16l9 26 16-19z" fill="#e1723e" stroke="#e1723e" stroke-width="1.51"/><path d="M280 63l-36 14 102-3z" fill="#c42126" stroke="#c42126" stroke-width="1.51"/><path d="M384 10l-31 20 43-1z" fill="#e0472c" stroke="#e0472c" stroke-width="1.51"/><path d="M353 30l-2 35 27 6z" fill="#cd0c22" stroke="#cd0c22" stroke-width="1.51"/><path d="M366 5l-13 25 31-20z" fill="#e45a2f" stroke="#e45a2f" stroke-width="1.51"/><path d="M375-16l-9 21 18 5z" fill="#e46d37" stroke="#e46d37" stroke-width="1.51"/><path d="M353-36l22 20 12-14z" fill="#ea8b58" stroke="#ea8b58" stroke-width="1.51"/><path d="M203 67l-71 2 112 8z" fill="#cb5433" stroke="#cb5433" stroke-width="1.51"/><path d="M351 65l-5 9 32-3z" fill="#b60524" stroke="#b60524" stroke-width="1.51"/><path d="M352 1l14 4 9-21z" fill="#e77339" stroke="#e77339" stroke-width="1.51"/><path d="M353-36l-1 37 23-17z" fill="#eb864a" stroke="#eb864a" stroke-width="1.51"/><path d="M335-8l17 9 1-37z" fill="#ef8446" stroke="#ef8446" stroke-width="1.51"/><path d="M349 7l4 23 13-25z" fill="#e75c2f" stroke="#e75c2f" stroke-width="1.51"/><path d="M352 1l-3 6 17-2z" fill="#e96a33" stroke="#e96a33" stroke-width="1.51"/><path d="M-15-45l33 2 62-5z" fill="#fff2ae" stroke="#fff2ae" stroke-width="1.51"/><path d="M241-40l17 3 49-9z" fill="#ffa86f" stroke="#ffa86f" stroke-width="1.51"/><path d="M305 56l-25 7 66 11z" fill="#ce1923" stroke="#ce1923" stroke-width="1.51"/><path d="M339 31l-34 25 46 9z" fill="#db161e" stroke="#db161e" stroke-width="1.51"/><path d="M329-41l6 33 18-28z" fill="#f49058" stroke="#f49058" stroke-width="1.51"/><path d="M339 31l12 34 2-35z" fill="#df2120" stroke="#df2120" stroke-width="1.51"/><path d="M349 7l-10 24 14-1z" fill="#ea4b29" stroke="#ea4b29" stroke-width="1.51"/><path d="M335-8l14 15 3-6z" fill="#ed7134" stroke="#ed7134" stroke-width="1.51"/><path d="M320 15l19 16 10-24z" fill="#ed582b" stroke="#ed582b" stroke-width="1.51"/><path d="M305 56l41 18 5-9z" fill="#c70c23" stroke="#c70c23" stroke-width="1.51"/><path d="M335-8l-15 23 29-8z" fill="#f06c31" stroke="#f06c31" stroke-width="1.51"/><path d="M298-16l6 9 25-34z" fill="#fa914f" stroke="#fa914f" stroke-width="1.51"/><path d="M329-41L304-7l31-1z" fill="#f78c4a" stroke="#f78c4a" stroke-width="1.51"/><path d="M320 15l-16 21 35-5z" fill="#f14425" stroke="#f14425" stroke-width="1.51"/><path d="M304 36l1 20 34-25z" fill="#e92b1f" stroke="#e92b1f" stroke-width="1.51"/><path d="M298-36v20l31-25z" fill="#fc985c" stroke="#fc985c" stroke-width="1.51"/><path d="M304-7l16 22 15-23z" fill="#f47532" stroke="#f47532" stroke-width="1.51"/><path d="M307-46l-9 10 31-5z" fill="#fe9c69" stroke="#fe9c69" stroke-width="1.51"/><path d="M80-48l84 12 24-4z" fill="#ffd383" stroke="#ffd383" stroke-width="1.51"/><path d="M304-7l-16 32 32-10z" fill="#f66b30" stroke="#f66b30" stroke-width="1.51"/><path d="M288 25l16 11 16-21z" fill="#f44e28" stroke="#f44e28" stroke-width="1.51"/><path d="M81 71l-28 6 58-8z" fill="#cc784a" stroke="#cc784a" stroke-width="1.51"/><path d="M304 36l-26 4 27 16z" fill="#eb2f20" stroke="#eb2f20" stroke-width="1.51"/><path d="M258-37l40 1 9-10z" fill="#ffa26a" stroke="#ffa26a" stroke-width="1.51"/><path d="M278 40l-4 12 6 11z" fill="#e62f23" stroke="#e62f23" stroke-width="1.51"/><path d="M261-6l13 30 14 1z" fill="#fb6e32" stroke="#fb6e32" stroke-width="1.51"/><path d="M298-16L261-6l43-1z" fill="#fc8b43" stroke="#fc8b43" stroke-width="1.51"/><path d="M261-6l27 31 16-32z" fill="#fa7935" stroke="#fa7935" stroke-width="1.51"/><path d="M278 40l2 23 25-7z" fill="#e22a23" stroke="#e22a23" stroke-width="1.51"/><path d="M188-40l27 4 26-4z" fill="#ffbc75" stroke="#ffbc75" stroke-width="1.51"/><path d="M288 25l-10 15 26-4z" fill="#f44125" stroke="#f44125" stroke-width="1.51"/><path d="M274 48v4l4-12z" fill="#ed3221" stroke="#ed3221" stroke-width="1.51"/><path d="M298-36l-40-1 40 21z" fill="#ff9d5d" stroke="#ff9d5d" stroke-width="1.51"/><path d="M258-37l3 31 37-10z" fill="#ff9a52" stroke="#ff9a52" stroke-width="1.51"/><path d="M274 24l4 16 10-15z" fill="#f94b28" stroke="#f94b28" stroke-width="1.51"/><path d="M274 52l-30 25 36-14z" fill="#d72e28" stroke="#d72e28" stroke-width="1.51"/><path d="M274 24v24l4-8z" fill="#f44025" stroke="#f44025" stroke-width="1.51"/><path d="M80-48l66 14 18-2z" fill="#ffd683" stroke="#ffd683" stroke-width="1.51"/><path d="M261-6l-31 17 44 13z" fill="#fe7b36" stroke="#fe7b36" stroke-width="1.51"/><path d="M230 11l10 39 34-26z" fill="#fd5c2d" stroke="#fd5c2d" stroke-width="1.51"/><path d="M274 24l-34 26 34-2z" fill="#f44025" stroke="#f44025" stroke-width="1.51"/><path d="M274 48l-34 2 34 2z" fill="#eb3624" stroke="#eb3624" stroke-width="1.51"/><path d="M240 50l4 27 30-25z" fill="#df3929" stroke="#df3929" stroke-width="1.51"/><path d="M258-37l-17-3 20 34z" fill="#ffa55f" stroke="#ffa55f" stroke-width="1.51"/><path d="M241-40L228 0l33-6z" fill="#ffa151" stroke="#ffa151" stroke-width="1.51"/><path d="M228 0l2 11 31-17z" fill="#ff8c3d" stroke="#ff8c3d" stroke-width="1.51"/><path d="M230 11l-9 29 19 10z" fill="#fa5d2d" stroke="#fa5d2d" stroke-width="1.51"/><path d="M215-36l13 36 13-40z" fill="#ffae61" stroke="#ffae61" stroke-width="1.51"/><path d="M240 50l-37 17 41 10z" fill="#d7462d" stroke="#d7462d" stroke-width="1.51"/><path d="M221 40l-18 27 37-17z" fill="#e9502b" stroke="#e9502b" stroke-width="1.51"/><path d="M201-1l20 41 1-37z" fill="#fd883a" stroke="#fd883a" stroke-width="1.51"/><path d="M215-36L201-1l21 4z" fill="#ffa950" stroke="#ffa950" stroke-width="1.51"/><path d="M215-36l7 39 6-3z" fill="#ffa44e" stroke="#ffa44e" stroke-width="1.51"/><path d="M228 0l-6 3 8 8z" fill="#fe8e3d" stroke="#fe8e3d" stroke-width="1.51"/><path d="M222 3l-1 37 9-29z" fill="#fd7d36" stroke="#fd7d36" stroke-width="1.51"/><path d="M185 3l9 43 7-47z" fill="#fd8d3c" stroke="#fd8d3c" stroke-width="1.51"/><path d="M197-2l4 1 14-35z" fill="#ffae54" stroke="#ffae54" stroke-width="1.51"/><path d="M194 46l9 21 18-27z" fill="#eb5a2c" stroke="#eb5a2c" stroke-width="1.51"/><path d="M201-1l-7 47 27-6z" fill="#fd7233" stroke="#fd7233" stroke-width="1.51"/><path d="M168 54l-36 15 71-2z" fill="#dc6135" stroke="#dc6135" stroke-width="1.51"/><path d="M188-40l9 38 18-34z" fill="#ffba66" stroke="#ffba66" stroke-width="1.51"/><path d="M160-22l25 25 3-43z" fill="#ffbc60" stroke="#ffbc60" stroke-width="1.51"/><path d="M188-40l-3 43 12-5z" fill="#ffb356" stroke="#ffb356" stroke-width="1.51"/><path d="M197-2l-12 5 16-4z" fill="#fea144" stroke="#fea144" stroke-width="1.51"/><path d="M187 56l-19-2 35 13z" fill="#e25e32" stroke="#e25e32" stroke-width="1.51"/><path d="M194 46l-7 10 16 11z" fill="#e45c2f" stroke="#e45c2f" stroke-width="1.51"/><path d="M185 3l-34 36 43 7z" fill="#fe7a36" stroke="#fe7a36" stroke-width="1.51"/><path d="M151 39l17 15 26-8z" fill="#f2692e" stroke="#f2692e" stroke-width="1.51"/><path d="M158 3l-7 36 34-36z" fill="#fe9840" stroke="#fe9840" stroke-width="1.51"/><path d="M164-36l-4 14 28-18z" fill="#ffc773" stroke="#ffc773" stroke-width="1.51"/><path d="M168 54l19 2 7-10z" fill="#eb622f" stroke="#eb622f" stroke-width="1.51"/><path d="M160-22l-2 25h27z" fill="#ffaf4e" stroke="#ffaf4e" stroke-width="1.51"/><path d="M132 19l19 20 7-36z" fill="#fe9440" stroke="#fe9440" stroke-width="1.51"/><path d="M151 39l-19 30 36-15z" fill="#e96c34" stroke="#e96c34" stroke-width="1.51"/><path d="M142-6l16 9 2-25z" fill="#ffb755" stroke="#ffb755" stroke-width="1.51"/><path d="M146-34l14 12 4-14z" fill="#ffc972" stroke="#ffc972" stroke-width="1.51"/><path d="M126 49l6 20 19-30z" fill="#ec7236" stroke="#ec7236" stroke-width="1.51"/><path d="M146-34l-4 28 18-16z" fill="#ffc566" stroke="#ffc566" stroke-width="1.51"/><path d="M80-48l21 21 45-7z" fill="#ffdb86" stroke="#ffdb86" stroke-width="1.51"/><path d="M142-6l-10 25 26-16z" fill="#fea948" stroke="#fea948" stroke-width="1.51"/><path d="M132 19l-8 22 27-2z" fill="#fd833a" stroke="#fd833a" stroke-width="1.51"/><path d="M124 41l2 8 25-10z" fill="#f67936" stroke="#f67936" stroke-width="1.51"/><path d="M101-27l9 26 32-5z" fill="#ffc661" stroke="#ffc661" stroke-width="1.51"/><path d="M101-27l41 21 4-28z" fill="#ffcc6c" stroke="#ffcc6c" stroke-width="1.51"/><path d="M110-1l11 20h11z" fill="#fea84b" stroke="#fea84b" stroke-width="1.51"/><path d="M110-1l22 20 10-25z" fill="#feb04c" stroke="#feb04c" stroke-width="1.51"/><path d="M126 49l-15 20h21z" fill="#df713d" stroke="#df713d" stroke-width="1.51"/><path d="M121 19l3 22 8-22z" fill="#ff9041" stroke="#ff9041" stroke-width="1.51"/><path d="M121 19L96 43l28-2z" fill="#fd8940" stroke="#fd8940" stroke-width="1.51"/><path d="M124 41l-28 2 30 6z" fill="#f67e3b" stroke="#f67e3b" stroke-width="1.51"/><path d="M96 43l15 26 15-20z" fill="#eb7a3d" stroke="#eb7a3d" stroke-width="1.51"/><path d="M110-1L90 21l31-2z" fill="#ffac4f" stroke="#ffac4f" stroke-width="1.51"/><path d="M90 21l6 22 25-24z" fill="#ff9648" stroke="#ff9648" stroke-width="1.51"/><path d="M101-27l-14 6 23 20z" fill="#ffd26e" stroke="#ffd26e" stroke-width="1.51"/><path d="M96 43L81 71l30-2z" fill="#e37b45" stroke="#e37b45" stroke-width="1.51"/><path d="M87-21l3 42 20-22z" fill="#ffbf5a" stroke="#ffbf5a" stroke-width="1.51"/><path d="M87-21L59 15l31 6z" fill="#ffbe5d" stroke="#ffbe5d" stroke-width="1.51"/><path d="M80-48l7 27 14-6z" fill="#ffde86" stroke="#ffde86" stroke-width="1.51"/><path d="M90 21L60 40l36 3z" fill="#ff944a" stroke="#ff944a" stroke-width="1.51"/><path d="M60 40l21 31 15-28z" fill="#f08647" stroke="#f08647" stroke-width="1.51"/><path d="M18-43l21 8 41-13z" fill="#ffeda4" stroke="#ffeda4" stroke-width="1.51"/><path d="M50-15l9 30 28-36z" fill="#ffcf6d" stroke="#ffcf6d" stroke-width="1.51"/><path d="M80-48L66-32l21 11z" fill="#ffe38d" stroke="#ffe38d" stroke-width="1.51"/><path d="M59 15l1 25 30-19z" fill="#ffa454" stroke="#ffa454" stroke-width="1.51"/><path d="M66-32L50-15l37-6z" fill="#ffde81" stroke="#ffde81" stroke-width="1.51"/><path d="M39-35l27 3 14-16z" fill="#ffe899" stroke="#ffe899" stroke-width="1.51"/><path d="M60 40l-7 37 28-6z" fill="#e1824f" stroke="#e1824f" stroke-width="1.51"/><path d="M34 59l19 18 7-37z" fill="#e88753" stroke="#e88753" stroke-width="1.51"/><path d="M59 15l-12 5 13 20z" fill="#ffa659" stroke="#ffa659" stroke-width="1.51"/><path d="M39-35l11 20 16-17z" fill="#ffe38d" stroke="#ffe38d" stroke-width="1.51"/><path d="M25 1l22 19 3-35z" fill="#ffc86b" stroke="#ffc86b" stroke-width="1.51"/><path d="M22 61l-23 5 54 11z" fill="#d7855b" stroke="#d7855b" stroke-width="1.51"/><path d="M50-15l-3 35 12-5z" fill="#ffc165" stroke="#ffc165" stroke-width="1.51"/><path d="M47 20L30 45l30-5z" fill="#ff9a56" stroke="#ff9a56" stroke-width="1.51"/><path d="M30 45l4 14 26-19z" fill="#f68f52" stroke="#f68f52" stroke-width="1.51"/><path d="M34 59l-12 2 31 16z" fill="#dc8557" stroke="#dc8557" stroke-width="1.51"/><path d="M39-35L25 1l25-16z" fill="#ffdf83" stroke="#ffdf83" stroke-width="1.51"/><path d="M12 31l18 14 17-25z" fill="#ffa05d" stroke="#ffa05d" stroke-width="1.51"/><path d="M25 1L12 31l35-11z" fill="#ffb867" stroke="#ffb867" stroke-width="1.51"/><path d="M19 0l6 1 14-36z" fill="#ffda80" stroke="#ffda80" stroke-width="1.51"/><path d="M18-43l1 43 20-35z" fill="#ffe794" stroke="#ffe794" stroke-width="1.51"/><path d="M9 5l3 26L25 1z" fill="#ffc16e" stroke="#ffc16e" stroke-width="1.51"/><path d="M30 45l-8 16 12-2z" fill="#ee8d58" stroke="#ee8d58" stroke-width="1.51"/><path d="M19 0L9 5l16-4z" fill="#ffcc73" stroke="#ffcc73" stroke-width="1.51"/><path d="M12 31l10 30 8-16z" fill="#fa9358" stroke="#fa9358" stroke-width="1.51"/><path d="M-15-45L9 5l9-48z" fill="#ffeb9e" stroke="#ffeb9e" stroke-width="1.51"/><path d="M18-43L9 5l10-5z" fill="#ffde85" stroke="#ffde85" stroke-width="1.51"/><path d="M12 31L-1 66l23-5z" fill="#f1915d" stroke="#f1915d" stroke-width="1.51"/><path d="M-15-45l-6 46L9 5z" fill="#ffe28e" stroke="#ffe28e" stroke-width="1.51"/><path d="M-18 49l17 17 13-35z" fill="#f79560" stroke="#f79560" stroke-width="1.51"/><path d="M9 5L-7 23l19 8z" fill="#ffb76d" stroke="#ffb76d" stroke-width="1.51"/><path d="M-7 23l-11 26 30-18z" fill="#ffa367" stroke="#ffa367" stroke-width="1.51"/><path d="M-21 1l14 22L9 5z" fill="#ffc677" stroke="#ffc677" stroke-width="1.51"/><path d="M-43-19l22 20 6-46z" fill="#ffeb9f" stroke="#ffeb9f" stroke-width="1.51"/><path d="M-18 49l-21 8 38 9z" fill="#ed9268" stroke="#ed9268" stroke-width="1.51"/><path d="M-29 9l-9 39 20 1z" fill="#ffa56f" stroke="#ffa56f" stroke-width="1.51"/><path d="M-29 9l11 40 11-26z" fill="#ffaf70" stroke="#ffaf70" stroke-width="1.51"/><path d="M-21 1l-8 8 22 14z" fill="#ffc77b" stroke="#ffc77b" stroke-width="1.51"/><path d="M-49-34l6 15 28-26z" fill="#fff4b2" stroke="#fff4b2" stroke-width="1.51"/><path d="M-38 48l-1 9 21-8z" fill="#f5986b" stroke="#f5986b" stroke-width="1.51"/><path d="M-43-19l14 28 8-8z" fill="#ffd889" stroke="#ffd889" stroke-width="1.51"/><path d="M-43-19l5 67 9-39z" fill="#ffc780" stroke="#ffc780" stroke-width="1.51"/><path d="M-49-34l10 91 1-9z" fill="#ffb87b" stroke="#ffb87b" stroke-width="1.51"/><path d="M-43-19l-6-15 11 82z" fill="#ffd98b" stroke="#ffd98b" stroke-width="1.51"/></svg>