<svg xmlns="http://www.w3.org/2000/svg" width="400" height="30"><path d="M2,-54L68,-53L232,-53Z" fill="#d4e6f3" stroke="#d4e6f3" stroke-width="1.51"/><path d="M68,-53L121,-45L232,-53Z" fill="#c6dfee" stroke="#c6dfee" stroke-width="1.51"/><path d="M152,54L100,63L288,75Z" fill="#5085bd" stroke="#5085bd" stroke-width="1.51"/><path d="M100,63L50,76L288,75Z" fill="#5c85b8" stroke="#5c85b8" stroke-width="1.51"/><path d="M232,-53L313,-39L360,-48Z" fill="#98b8dc" stroke="#98b8dc" stroke-width="1.51"/><path d="M360,-48L403,-33L428,-29Z" fill="#8499c9" stroke="#8499c9" stroke-width="1.51"/><path d="M451,15L407,19L452,54Z" fill="#2f68a3" stroke="#2f68a3" stroke-width="1.51"/><path d="M421,3L451,15L459,-4Z" fill="#5278aa" stroke="#5278aa" stroke-width="1.51"/><path d="M428,-29L421,3L459,-4Z" fill="#6683b2" stroke="#6683b2" stroke-width="1.51"/><path d="M451,15L452,54L459,-4Z" fill="#37699f" stroke="#37699f" stroke-width="1.51"/><path d="M421,3L407,19L451,15Z" fill="#4778ae" stroke="#4778ae" stroke-width="1.51"/><path d="M407,19L396,75L452,54Z" fill="#185ca1" stroke="#185ca1" stroke-width="1.51"/><path d="M375,35L396,75L407,19Z" fill="#2168ad" stroke="#2168ad" stroke-width="1.51"/><path d="M403,-33L421,3L428,-29Z" fill="#748cbd" stroke="#748cbd" stroke-width="1.51"/><path d="M369,-10L407,19L421,3Z" fill="#5885bb" stroke="#5885bb" stroke-width="1.51"/><path d="M403,-33L369,-10L421,3Z" fill="#7090c2" stroke="#7090c2" stroke-width="1.51"/><path d="M369,-10L375,35L407,19Z" fill="#4782bb" stroke="#4782bb" stroke-width="1.51"/><path d="M375,35L370,75L396,75Z" fill="#125aa3" stroke="#125aa3" stroke-width="1.51"/><path d="M360,-48L369,-10L403,-33Z" fill="#819ccb" stroke="#819ccb" stroke-width="1.51"/><path d="M360,-48L353,-31L369,-10Z" fill="#83a0cf" stroke="#83a0cf" stroke-width="1.51"/><path d="M356,57L370,75L375,35Z" fill="#1962aa" stroke="#1962aa" stroke-width="1.51"/><path d="M185,50L152,54L288,75Z" fill="#4583bd" stroke="#4583bd" stroke-width="1.51"/><path d="M333,-16L315,13L337,41Z" fill="#5091c7" stroke="#5091c7" stroke-width="1.51"/><path d="M333,-16L337,41L369,-10Z" fill="#5c93c6" stroke="#5c93c6" stroke-width="1.51"/><path d="M369,-10L337,41L375,35Z" fill="#4082bd" stroke="#4082bd" stroke-width="1.51"/><path d="M337,41L356,57L375,35Z" fill="#2570b3" stroke="#2570b3" stroke-width="1.51"/><path d="M356,57L288,75L370,75Z" fill="#165ea5" stroke="#165ea5" stroke-width="1.51"/><path d="M353,-31L333,-16L369,-10Z" fill="#7c9ece" stroke="#7c9ece" stroke-width="1.51"/><path d="M337,41L288,75L356,57Z" fill="#1e6bb0" stroke="#1e6bb0" stroke-width="1.51"/><path d="M313,-39L353,-31L360,-48Z" fill="#8daad5" stroke="#8daad5" stroke-width="1.51"/><path d="M313,-39L333,-16L353,-31Z" fill="#86a7d4" stroke="#86a7d4" stroke-width="1.51"/><path d="M243,53L185,50L288,75Z" fill="#3a7eba" stroke="#3a7eba" stroke-width="1.51"/><path d="M315,13L294,21L337,41Z" fill="#428bc3" stroke="#428bc3" stroke-width="1.51"/><path d="M294,21L284,46L337,41Z" fill="#3684c0" stroke="#3684c0" stroke-width="1.51"/><path d="M284,46L288,75L337,41Z" fill="#2874b5" stroke="#2874b5" stroke-width="1.51"/><path d="M232,-53L276,-28L313,-39Z" fill="#98bcde" stroke="#98bcde" stroke-width="1.51"/><path d="M313,-39L315,13L333,-16Z" fill="#7aa4d1" stroke="#7aa4d1" stroke-width="1.51"/><path d="M284,46L279,61L288,75Z" fill="#2a73b3" stroke="#2a73b3" stroke-width="1.51"/><path d="M276,-28L267,2L294,21Z" fill="#71a9d2" stroke="#71a9d2" stroke-width="1.51"/><path d="M313,-39L276,-28L315,13Z" fill="#82abd5" stroke="#82abd5" stroke-width="1.51"/><path d="M276,-28L294,21L315,13Z" fill="#69a2ce" stroke="#69a2ce" stroke-width="1.51"/><path d="M267,2L284,46L294,21Z" fill="#4b95c8" stroke="#4b95c8" stroke-width="1.51"/><path d="M267,2L234,35L284,46Z" fill="#4a97c9" stroke="#4a97c9" stroke-width="1.51"/><path d="M279,61L243,53L288,75Z" fill="#2d74b3" stroke="#2d74b3" stroke-width="1.51"/><path d="M234,35L243,53L284,46Z" fill="#3d89c2" stroke="#3d89c2" stroke-width="1.51"/><path d="M243,53L279,61L284,46Z" fill="#317dba" stroke="#317dba" stroke-width="1.51"/><path d="M232,-9L267,2L276,-28Z" fill="#82b3d8" stroke="#82b3d8" stroke-width="1.51"/><path d="M232,-53L232,-9L276,-28Z" fill="#97bee0" stroke="#97bee0" stroke-width="1.51"/><path d="M232,-9L234,35L267,2Z" fill="#68a9d3" stroke="#68a9d3" stroke-width="1.51"/><path d="M121,-45L162,-28L232,-53Z" fill="#b5d4ea" stroke="#b5d4ea" stroke-width="1.51"/><path d="M232,-53L216,-23L232,-9Z" fill="#9ac2e1" stroke="#9ac2e1" stroke-width="1.51"/><path d="M232,-9L197,0L234,35Z" fill="#70aed6" stroke="#70aed6" stroke-width="1.51"/><path d="M234,35L185,50L243,53Z" fill="#478ec5" stroke="#478ec5" stroke-width="1.51"/><path d="M197,0L189,20L234,35Z" fill="#66aad4" stroke="#66aad4" stroke-width="1.51"/><path d="M189,20L185,50L234,35Z" fill="#559dcd" stroke="#559dcd" stroke-width="1.51"/><path d="M162,-28L216,-23L232,-53Z" fill="#a5cae6" stroke="#a5cae6" stroke-width="1.51"/><path d="M216,-23L197,0L232,-9Z" fill="#8cbddd" stroke="#8cbddd" stroke-width="1.51"/><path d="M162,-28L197,0L216,-23Z" fill="#9ac5e2" stroke="#9ac5e2" stroke-width="1.51"/><path d="M172,-4L189,20L197,0Z" fill="#80b8da" stroke="#80b8da" stroke-width="1.51"/><path d="M162,-28L172,-4L197,0Z" fill="#98c5e1" stroke="#98c5e1" stroke-width="1.51"/><path d="M161,29L185,50L189,20Z" fill="#61a4d0" stroke="#61a4d0" stroke-width="1.51"/><path d="M172,-4L161,29L189,20Z" fill="#76b3d8" stroke="#76b3d8" stroke-width="1.51"/><path d="M161,29L152,54L185,50Z" fill="#609bcc" stroke="#609bcc" stroke-width="1.51"/><path d="M119,52L100,63L152,54Z" fill="#6b97c8" stroke="#6b97c8" stroke-width="1.51"/><path d="M129,16L161,29L172,-4Z" fill="#80b9db" stroke="#80b9db" stroke-width="1.51"/><path d="M129,-10L129,16L172,-4Z" fill="#96c5df" stroke="#96c5df" stroke-width="1.51"/><path d="M162,-28L129,-10L172,-4Z" fill="#a4cbe4" stroke="#a4cbe4" stroke-width="1.51"/><path d="M121,-45L129,-10L162,-28Z" fill="#b7d5ea" stroke="#b7d5ea" stroke-width="1.51"/><path d="M129,16L152,54L161,29Z" fill="#6faad3" stroke="#6faad3" stroke-width="1.51"/><path d="M129,16L119,52L152,54Z" fill="#70a5d0" stroke="#70a5d0" stroke-width="1.51"/><path d="M121,-45L99,-24L129,-10Z" fill="#bcd8eb" stroke="#bcd8eb" stroke-width="1.51"/><path d="M99,-24L97,-20L129,-10Z" fill="#b8d5ea" stroke="#b8d5ea" stroke-width="1.51"/><path d="M91,44L119,52L129,16Z" fill="#78acd4" stroke="#78acd4" stroke-width="1.51"/><path d="M129,-10L97,-20L129,16Z" fill="#a6cde4" stroke="#a6cde4" stroke-width="1.51"/><path d="M97,-20L91,44L129,16Z" fill="#91c1df" stroke="#91c1df" stroke-width="1.51"/><path d="M68,-53L99,-24L121,-45Z" fill="#cde1f0" stroke="#cde1f0" stroke-width="1.51"/><path d="M56,-1L91,44L97,-20Z" fill="#a0c9e4" stroke="#a0c9e4" stroke-width="1.51"/><path d="M91,44L100,63L119,52Z" fill="#739dcd" stroke="#739dcd" stroke-width="1.51"/><path d="M56,-1L62,44L91,44Z" fill="#8db9dc" stroke="#8db9dc" stroke-width="1.51"/><path d="M68,-53L97,-20L99,-24Z" fill="#c9def0" stroke="#c9def0" stroke-width="1.51"/><path d="M91,44L62,44L100,63Z" fill="#7aa2d1" stroke="#7aa2d1" stroke-width="1.51"/><path d="M62,44L50,76L100,63Z" fill="#7a99ca" stroke="#7a99ca" stroke-width="1.51"/><path d="M68,-53L56,-1L97,-20Z" fill="#c8dcef" stroke="#c8dcef" stroke-width="1.51"/><path d="M56,-1L40,15L62,44Z" fill="#9ac3e2" stroke="#9ac3e2" stroke-width="1.51"/><path d="M2,-54L27,-31L68,-53Z" fill="#dfebf7" stroke="#dfebf7" stroke-width="1.51"/><path d="M27,-31L56,-1L68,-53Z" fill="#cfe1f2" stroke="#cfe1f2" stroke-width="1.51"/><path d="M20,58L50,76L62,44Z" fill="#809ecd" stroke="#809ecd" stroke-width="1.51"/><path d="M40,15L20,58L62,44Z" fill="#8cb3d9" stroke="#8cb3d9" stroke-width="1.51"/><path d="M27,-31L40,15L56,-1Z" fill="#bbd7eb" stroke="#bbd7eb" stroke-width="1.51"/><path d="M27,-31L19,14L40,15Z" fill="#b8d6ea" stroke="#b8d6ea" stroke-width="1.51"/><path d="M19,14L20,58L40,15Z" fill="#96bedf" stroke="#96bedf" stroke-width="1.51"/><path d="M20,58L-14,75L50,76Z" fill="#8096c5" stroke="#8096c5" stroke-width="1.51"/><path d="M19,14L0,46L20,58Z" fill="#91b6db" stroke="#91b6db" stroke-width="1.51"/><path d="M-12,-10L19,14L27,-31Z" fill="#c4dcee" stroke="#c4dcee" stroke-width="1.51"/><path d="M2,-54L-12,-10L27,-31Z" fill="#dae8f5" stroke="#dae8f5" stroke-width="1.51"/><path d="M0,46L-14,75L20,58Z" fill="#88a2cf" stroke="#88a2cf" stroke-width="1.51"/><path d="M-12,-10L0,46L19,14Z" fill="#a6cbe6" stroke="#a6cbe6" stroke-width="1.51"/><path d="M-12,-10L-30,41L0,46Z" fill="#a1c5e3" stroke="#a1c5e3" stroke-width="1.51"/><path d="M-30,41L-14,75L0,46Z" fill="#8eaad4" stroke="#8eaad4" stroke-width="1.51"/><path d="M-44,-24L-12,-10L2,-54Z" fill="#ddeaf6" stroke="#ddeaf6" stroke-width="1.51"/><path d="M-30,41L-58,70L-14,75Z" fill="#8ea4d0" stroke="#8ea4d0" stroke-width="1.51"/><path d="M-61,1L-30,41L-12,-10Z" fill="#b5d4eb" stroke="#b5d4eb" stroke-width="1.51"/><path d="M-44,-24L-61,1L-12,-10Z" fill="#d0e3f2" stroke="#d0e3f2" stroke-width="1.51"/><path d="M-61,1L-58,70L-30,41Z" fill="#9fbfdf" stroke="#9fbfdf" stroke-width="1.51"/></svg>