
<svg xmlns="http://www.w3.org/2000/svg" width="310" height="218"><path d="M-53,-51L22,-41L80,-42Z" fill="#fff6c4" stroke="#fff6c4" stroke-width="1.51"/><path d="M49,259L2,258L114,268Z" fill="#bb8245" stroke="#bb8245" stroke-width="1.51"/><path d="M-53,-51L80,-42L163,-52Z" fill="#ffecaf" stroke="#ffecaf" stroke-width="1.51"/><path d="M163,-52L208,-48L252,-50Z" fill="#ffb87c" stroke="#ffb87c" stroke-width="1.51"/><path d="M277,265L219,268L308,266Z" fill="#983806" stroke="#983806" stroke-width="1.51"/><path d="M-53,-51L163,-52L324,-54Z" fill="#ffd08b" stroke="#ffd08b" stroke-width="1.51"/><path d="M252,-50L291,-50L324,-54Z" fill="#e09e71" stroke="#e09e71" stroke-width="1.51"/><path d="M163,-52L252,-50L324,-54Z" fill="#f4ab77" stroke="#f4ab77" stroke-width="1.51"/><path d="M313,227L344,241L348,202Z" fill="#933305" stroke="#933305" stroke-width="1.51"/><path d="M344,134L312,169L351,175Z" fill="#b24a0b" stroke="#b24a0b" stroke-width="1.51"/><path d="M308,266L219,268L355,268Z" fill="#8c3106" stroke="#8c3106" stroke-width="1.51"/><path d="M351,175L348,202L355,268Z" fill="#903305" stroke="#903305" stroke-width="1.51"/><path d="M348,202L344,241L355,268Z" fill="#842e06" stroke="#842e06" stroke-width="1.51"/><path d="M337,109L344,134L356,45Z" fill="#ba671d" stroke="#ba671d" stroke-width="1.51"/><path d="M338,71L337,109L356,45Z" fill="#bb7226" stroke="#bb7226" stroke-width="1.51"/><path d="M329,67L338,71L356,45Z" fill="#bd792e" stroke="#bd792e" stroke-width="1.51"/><path d="M350,22L317,47L356,45Z" fill="#bf8140" stroke="#bf8140" stroke-width="1.51"/><path d="M317,47L329,67L356,45Z" fill="#c27d35" stroke="#c27d35" stroke-width="1.51"/><path d="M346,-6L350,22L356,45Z" fill="#bb854b" stroke="#bb854b" stroke-width="1.51"/><path d="M343,-33L346,-6L356,45Z" fill="#bd8954" stroke="#bd8954" stroke-width="1.51"/><path d="M344,134L351,175L356,45Z" fill="#b55b15" stroke="#b55b15" stroke-width="1.51"/><path d="M351,175L355,268L356,45Z" fill="#a7450b" stroke="#a7450b" stroke-width="1.51"/><path d="M319,134L312,169L344,134Z" fill="#bc520d" stroke="#bc520d" stroke-width="1.51"/><path d="M344,241L308,266L355,268Z" fill="#7d2c06" stroke="#7d2c06" stroke-width="1.51"/><path d="M343,-33L326,-19L346,-6Z" fill="#c4905f" stroke="#c4905f" stroke-width="1.51"/><path d="M312,169L309,202L348,202Z" fill="#ad3e04" stroke="#ad3e04" stroke-width="1.51"/><path d="M346,-6L312,17L350,22Z" fill="#c48a50" stroke="#c48a50" stroke-width="1.51"/><path d="M312,17L317,47L350,22Z" fill="#c78747" stroke="#c78747" stroke-width="1.51"/><path d="M312,169L348,202L351,175Z" fill="#a94007" stroke="#a94007" stroke-width="1.51"/><path d="M191,262L114,268L219,268Z" fill="#b15713" stroke="#b15713" stroke-width="1.51"/><path d="M319,107L337,109L338,71Z" fill="#c16a1d" stroke="#c16a1d" stroke-width="1.51"/><path d="M309,202L313,227L348,202Z" fill="#a13904" stroke="#a13904" stroke-width="1.51"/><path d="M329,67L319,107L338,71Z" fill="#c47223" stroke="#c47223" stroke-width="1.51"/><path d="M337,109L319,134L344,134Z" fill="#bc5b13" stroke="#bc5b13" stroke-width="1.51"/><path d="M326,-19L312,17L346,-6Z" fill="#c98f57" stroke="#c98f57" stroke-width="1.51"/><path d="M313,227L308,266L344,241Z" fill="#8d3105" stroke="#8d3105" stroke-width="1.51"/><path d="M324,-54L326,-19L343,-33Z" fill="#c99367" stroke="#c99367" stroke-width="1.51"/><path d="M319,107L319,134L337,109Z" fill="#c36014" stroke="#c36014" stroke-width="1.51"/><path d="M22,-41L44,-40L80,-42Z" fill="#fff0b4" stroke="#fff0b4" stroke-width="1.51"/><path d="M253,261L219,268L277,265Z" fill="#a03d07" stroke="#a03d07" stroke-width="1.51"/><path d="M291,-50L296,-21L324,-54Z" fill="#d8996b" stroke="#d8996b" stroke-width="1.51"/><path d="M299,9L312,17L326,-19Z" fill="#d19155" stroke="#d19155" stroke-width="1.51"/><path d="M296,-21L299,9L326,-19Z" fill="#d5955c" stroke="#d5955c" stroke-width="1.51"/><path d="M324,-54L296,-21L326,-19Z" fill="#d19565" stroke="#d19565" stroke-width="1.51"/><path d="M317,47L287,79L329,67Z" fill="#cd7e2c" stroke="#cd7e2c" stroke-width="1.51"/><path d="M292,99L319,107L329,67Z" fill="#cb701e" stroke="#cb701e" stroke-width="1.51"/><path d="M287,79L292,99L329,67Z" fill="#d17723" stroke="#d17723" stroke-width="1.51"/><path d="M298,195L309,202L312,169Z" fill="#b64304" stroke="#b64304" stroke-width="1.51"/><path d="M282,57L287,79L317,47Z" fill="#d5832f" stroke="#d5832f" stroke-width="1.51"/><path d="M319,107L291,126L319,134Z" fill="#c96012" stroke="#c96012" stroke-width="1.51"/><path d="M291,126L288,171L312,169Z" fill="#c8530a" stroke="#c8530a" stroke-width="1.51"/><path d="M309,202L297,223L313,227Z" fill="#a53a04" stroke="#a53a04" stroke-width="1.51"/><path d="M297,223L308,266L313,227Z" fill="#983405" stroke="#983405" stroke-width="1.51"/><path d="M312,17L282,57L317,47Z" fill="#d38940" stroke="#d38940" stroke-width="1.51"/><path d="M292,99L291,126L319,107Z" fill="#d06815" stroke="#d06815" stroke-width="1.51"/><path d="M291,126L312,169L319,134Z" fill="#c6560d" stroke="#c6560d" stroke-width="1.51"/><path d="M297,223L277,265L308,266Z" fill="#963405" stroke="#963405" stroke-width="1.51"/><path d="M299,9L268,28L312,17Z" fill="#da934f" stroke="#da934f" stroke-width="1.51"/><path d="M268,28L282,57L312,17Z" fill="#dc8f45" stroke="#dc8f45" stroke-width="1.51"/><path d="M137,262L114,268L191,262Z" fill="#b66219" stroke="#b66219" stroke-width="1.51"/><path d="M288,171L298,195L312,169Z" fill="#be4905" stroke="#be4905" stroke-width="1.51"/><path d="M266,232L277,265L297,223Z" fill="#a43a04" stroke="#a43a04" stroke-width="1.51"/><path d="M298,195L297,223L309,202Z" fill="#ae3e04" stroke="#ae3e04" stroke-width="1.51"/><path d="M252,165L288,171L291,126Z" fill="#d2590a" stroke="#d2590a" stroke-width="1.51"/><path d="M247,138L252,165L291,126Z" fill="#dc610d" stroke="#dc610d" stroke-width="1.51"/><path d="M266,232L297,223L298,195Z" fill="#af3e04" stroke="#af3e04" stroke-width="1.51"/><path d="M255,187L266,232L298,195Z" fill="#bd4503" stroke="#bd4503" stroke-width="1.51"/><path d="M296,-21L270,-2L299,9Z" fill="#de995a" stroke="#de995a" stroke-width="1.51"/><path d="M270,-2L268,28L299,9Z" fill="#e29853" stroke="#e29853" stroke-width="1.51"/><path d="M291,-50L252,-50L296,-21Z" fill="#e5a06d" stroke="#e5a06d" stroke-width="1.51"/><path d="M288,171L255,187L298,195Z" fill="#c54a04" stroke="#c54a04" stroke-width="1.51"/><path d="M252,-50L270,-2L296,-21Z" fill="#e7a066" stroke="#e7a066" stroke-width="1.51"/><path d="M256,119L291,126L292,99Z" fill="#da6b14" stroke="#da6b14" stroke-width="1.51"/><path d="M268,28L262,46L282,57Z" fill="#e3903f" stroke="#e3903f" stroke-width="1.51"/><path d="M256,119L247,138L291,126Z" fill="#df6911" stroke="#df6911" stroke-width="1.51"/><path d="M287,79L247,81L292,99Z" fill="#df7c21" stroke="#df7c21" stroke-width="1.51"/><path d="M247,81L256,119L292,99Z" fill="#e3771b" stroke="#e3771b" stroke-width="1.51"/><path d="M282,57L247,81L287,79Z" fill="#e18428" stroke="#e18428" stroke-width="1.51"/><path d="M252,165L255,187L288,171Z" fill="#d05305" stroke="#d05305" stroke-width="1.51"/><path d="M252,-50L240,-45L270,-2Z" fill="#f1a66c" stroke="#f1a66c" stroke-width="1.51"/><path d="M266,232L253,261L277,265Z" fill="#a33b05" stroke="#a33b05" stroke-width="1.51"/><path d="M262,46L247,81L282,57Z" fill="#e58b30" stroke="#e58b30" stroke-width="1.51"/><path d="M255,187L236,196L266,232Z" fill="#c64a03" stroke="#c64a03" stroke-width="1.51"/><path d="M240,-45L230,-3L270,-2Z" fill="#f1a765" stroke="#f1a765" stroke-width="1.51"/><path d="M208,-48L240,-45L252,-50Z" fill="#f7ae77" stroke="#f7ae77" stroke-width="1.51"/><path d="M247,81L233,102L256,119Z" fill="#ea7d1d" stroke="#ea7d1d" stroke-width="1.51"/><path d="M236,196L223,221L266,232Z" fill="#c24b06" stroke="#c24b06" stroke-width="1.51"/><path d="M236,31L268,28L270,-2Z" fill="#eb9c51" stroke="#eb9c51" stroke-width="1.51"/><path d="M230,-3L236,31L270,-2Z" fill="#f0a359" stroke="#f0a359" stroke-width="1.51"/><path d="M233,47L247,81L262,46Z" fill="#ec9235" stroke="#ec9235" stroke-width="1.51"/><path d="M236,31L262,46L268,28Z" fill="#eb9847" stroke="#eb9847" stroke-width="1.51"/><path d="M223,221L253,261L266,232Z" fill="#b24306" stroke="#b24306" stroke-width="1.51"/><path d="M247,138L237,159L252,165Z" fill="#df620c" stroke="#df620c" stroke-width="1.51"/><path d="M236,31L233,47L262,46Z" fill="#ee9944" stroke="#ee9944" stroke-width="1.51"/><path d="M233,47L226,77L247,81Z" fill="#ee912e" stroke="#ee912e" stroke-width="1.51"/><path d="M237,159L236,196L252,165Z" fill="#d85b08" stroke="#d85b08" stroke-width="1.51"/><path d="M223,221L219,268L253,261Z" fill="#af4609" stroke="#af4609" stroke-width="1.51"/><path d="M252,165L236,196L255,187Z" fill="#d35505" stroke="#d35505" stroke-width="1.51"/><path d="M230,133L247,138L256,119Z" fill="#e66e14" stroke="#e66e14" stroke-width="1.51"/><path d="M233,102L230,133L256,119Z" fill="#e97517" stroke="#e97517" stroke-width="1.51"/><path d="M208,-48L230,-3L240,-45Z" fill="#f9af70" stroke="#f9af70" stroke-width="1.51"/><path d="M230,133L237,159L247,138Z" fill="#e46911" stroke="#e46911" stroke-width="1.51"/><path d="M226,77L233,102L247,81Z" fill="#ee8825" stroke="#ee8825" stroke-width="1.51"/><path d="M208,-48L196,-16L230,-3Z" fill="#fcb36e" stroke="#fcb36e" stroke-width="1.51"/><path d="M205,111L230,133L233,102Z" fill="#ef7d1b" stroke="#ef7d1b" stroke-width="1.51"/><path d="M230,-3L208,30L236,31Z" fill="#f5a656" stroke="#f5a656" stroke-width="1.51"/><path d="M193,164L236,196L237,159Z" fill="#de610d" stroke="#de610d" stroke-width="1.51"/><path d="M80,-42L145,-45L163,-52Z" fill="#ffd58d" stroke="#ffd58d" stroke-width="1.51"/><path d="M201,222L219,268L223,221Z" fill="#bd4e0b" stroke="#bd4e0b" stroke-width="1.51"/><path d="M208,30L233,47L236,31Z" fill="#f4a14b" stroke="#f4a14b" stroke-width="1.51"/><path d="M193,164L189,196L236,196Z" fill="#df610d" stroke="#df610d" stroke-width="1.51"/><path d="M230,133L197,142L237,159Z" fill="#ea6f13" stroke="#ea6f13" stroke-width="1.51"/><path d="M197,142L193,164L237,159Z" fill="#e96e12" stroke="#e96e12" stroke-width="1.51"/><path d="M198,68L226,77L233,47Z" fill="#f39934" stroke="#f39934" stroke-width="1.51"/><path d="M189,196L223,221L236,196Z" fill="#d15709" stroke="#d15709" stroke-width="1.51"/><path d="M201,222L191,262L219,268Z" fill="#b64f0d" stroke="#b64f0d" stroke-width="1.51"/><path d="M189,196L201,222L223,221Z" fill="#cf590b" stroke="#cf590b" stroke-width="1.51"/><path d="M208,30L198,68L233,47Z" fill="#f7a143" stroke="#f7a143" stroke-width="1.51"/><path d="M226,77L205,111L233,102Z" fill="#f28723" stroke="#f28723" stroke-width="1.51"/><path d="M189,53L198,68L208,30Z" fill="#f9a544" stroke="#f9a544" stroke-width="1.51"/><path d="M196,-16L208,30L230,-3Z" fill="#faaf61" stroke="#faaf61" stroke-width="1.51"/><path d="M205,111L197,142L230,133Z" fill="#f07a19" stroke="#f07a19" stroke-width="1.51"/><path d="M196,-16L182,13L208,30Z" fill="#fcb361" stroke="#fcb361" stroke-width="1.51"/><path d="M198,68L205,111L226,77Z" fill="#f6912a" stroke="#f6912a" stroke-width="1.51"/><path d="M-53,-51L-19,-43L22,-41Z" fill="#fffbd1" stroke="#fffbd1" stroke-width="1.51"/><path d="M198,68L175,87L205,111Z" fill="#f8952c" stroke="#f8952c" stroke-width="1.51"/><path d="M162,238L191,262L201,222Z" fill="#c05910" stroke="#c05910" stroke-width="1.51"/><path d="M176,112L197,142L205,111Z" fill="#f5851f" stroke="#f5851f" stroke-width="1.51"/><path d="M175,87L176,112L205,111Z" fill="#f99126" stroke="#f99126" stroke-width="1.51"/><path d="M179,-22L196,-16L208,-48Z" fill="#ffbb75" stroke="#ffbb75" stroke-width="1.51"/><path d="M163,-52L179,-22L208,-48Z" fill="#ffc07d" stroke="#ffc07d" stroke-width="1.51"/><path d="M169,38L189,53L208,30Z" fill="#fcad4e" stroke="#fcad4e" stroke-width="1.51"/><path d="M182,13L169,38L208,30Z" fill="#fcb359" stroke="#fcb359" stroke-width="1.51"/><path d="M161,251L137,262L191,262Z" fill="#b85e15" stroke="#b85e15" stroke-width="1.51"/><path d="M172,178L189,196L193,164Z" fill="#e56d12" stroke="#e56d12" stroke-width="1.51"/><path d="M189,196L163,206L201,222Z" fill="#d56210" stroke="#d56210" stroke-width="1.51"/><path d="M163,206L162,238L201,222Z" fill="#ce6212" stroke="#ce6212" stroke-width="1.51"/><path d="M162,238L161,251L191,262Z" fill="#bd5c13" stroke="#bd5c13" stroke-width="1.51"/><path d="M179,-22L182,13L196,-16Z" fill="#ffbb6c" stroke="#ffbb6c" stroke-width="1.51"/><path d="M163,145L193,164L197,142Z" fill="#f07919" stroke="#f07919" stroke-width="1.51"/><path d="M176,112L163,145L197,142Z" fill="#f5841f" stroke="#f5841f" stroke-width="1.51"/><path d="M189,53L175,87L198,68Z" fill="#faa236" stroke="#faa236" stroke-width="1.51"/><path d="M163,145L172,178L193,164Z" fill="#ed7818" stroke="#ed7818" stroke-width="1.51"/><path d="M151,74L175,87L189,53Z" fill="#fca638" stroke="#fca638" stroke-width="1.51"/><path d="M172,178L163,206L189,196Z" fill="#e16b12" stroke="#e16b12" stroke-width="1.51"/><path d="M169,38L151,74L189,53Z" fill="#fdae45" stroke="#fdae45" stroke-width="1.51"/><path d="M152,138L163,145L176,112Z" fill="#f88b22" stroke="#f88b22" stroke-width="1.51"/><path d="M135,-11L149,17L179,-22Z" fill="#ffc671" stroke="#ffc671" stroke-width="1.51"/><path d="M179,-22L149,17L182,13Z" fill="#ffbe69" stroke="#ffbe69" stroke-width="1.51"/><path d="M149,17L169,38L182,13Z" fill="#ffbb5f" stroke="#ffbb5f" stroke-width="1.51"/><path d="M163,145L148,174L172,178Z" fill="#ee7c1a" stroke="#ee7c1a" stroke-width="1.51"/><path d="M175,87L141,98L176,112Z" fill="#fd9b2c" stroke="#fd9b2c" stroke-width="1.51"/><path d="M163,-52L145,-45L179,-22Z" fill="#ffc880" stroke="#ffc880" stroke-width="1.51"/><path d="M145,-45L135,-11L179,-22Z" fill="#ffca7c" stroke="#ffca7c" stroke-width="1.51"/><path d="M145,216L162,238L163,206Z" fill="#d26a15" stroke="#d26a15" stroke-width="1.51"/><path d="M141,98L152,138L176,112Z" fill="#fd9527" stroke="#fd9527" stroke-width="1.51"/><path d="M148,174L163,206L172,178Z" fill="#e67316" stroke="#e67316" stroke-width="1.51"/><path d="M151,74L141,98L175,87Z" fill="#ffa534" stroke="#ffa534" stroke-width="1.51"/><path d="M128,48L151,74L169,38Z" fill="#ffb74b" stroke="#ffb74b" stroke-width="1.51"/><path d="M149,17L128,48L169,38Z" fill="#ffbe5b" stroke="#ffbe5b" stroke-width="1.51"/><path d="M148,174L130,203L163,206Z" fill="#e37619" stroke="#e37619" stroke-width="1.51"/><path d="M130,203L145,216L163,206Z" fill="#db721a" stroke="#db721a" stroke-width="1.51"/><path d="M152,138L148,174L163,145Z" fill="#f4841f" stroke="#f4841f" stroke-width="1.51"/><path d="M145,216L119,241L162,238Z" fill="#cc6c1b" stroke="#cc6c1b" stroke-width="1.51"/><path d="M137,262L161,251L162,238Z" fill="#bf6317" stroke="#bf6317" stroke-width="1.51"/><path d="M119,241L137,262L162,238Z" fill="#c26a1c" stroke="#c26a1c" stroke-width="1.51"/><path d="M112,99L99,126L141,98Z" fill="#ffa938" stroke="#ffa938" stroke-width="1.51"/><path d="M80,-42L101,-30L145,-45Z" fill="#ffdd91" stroke="#ffdd91" stroke-width="1.51"/><path d="M135,-11L122,6L149,17Z" fill="#ffcc72" stroke="#ffcc72" stroke-width="1.51"/><path d="M141,98L99,126L152,138Z" fill="#fc9e2f" stroke="#fc9e2f" stroke-width="1.51"/><path d="M99,126L108,157L152,138Z" fill="#f8992f" stroke="#f8992f" stroke-width="1.51"/><path d="M108,157L148,174L152,138Z" fill="#f48b25" stroke="#f48b25" stroke-width="1.51"/><path d="M122,6L128,48L149,17Z" fill="#ffc868" stroke="#ffc868" stroke-width="1.51"/><path d="M101,66L112,99L151,74Z" fill="#ffb743" stroke="#ffb743" stroke-width="1.51"/><path d="M111,54L101,66L151,74Z" fill="#ffbe4b" stroke="#ffbe4b" stroke-width="1.51"/><path d="M128,48L111,54L151,74Z" fill="#ffbd4d" stroke="#ffbd4d" stroke-width="1.51"/><path d="M112,99L141,98L151,74Z" fill="#ffac3a" stroke="#ffac3a" stroke-width="1.51"/><path d="M107,190L130,203L148,174Z" fill="#e78022" stroke="#e78022" stroke-width="1.51"/><path d="M101,-30L135,-11L145,-45Z" fill="#ffd586" stroke="#ffd586" stroke-width="1.51"/><path d="M108,157L107,190L148,174Z" fill="#ee8a27" stroke="#ee8a27" stroke-width="1.51"/><path d="M130,203L119,241L145,216Z" fill="#d4741f" stroke="#d4741f" stroke-width="1.51"/><path d="M86,255L49,259L114,268Z" fill="#ba7a35" stroke="#ba7a35" stroke-width="1.51"/><path d="M119,241L114,268L137,262Z" fill="#bc6d21" stroke="#bc6d21" stroke-width="1.51"/><path d="M122,6L111,54L128,48Z" fill="#ffc963" stroke="#ffc963" stroke-width="1.51"/><path d="M90,208L119,241L130,203Z" fill="#d67d26" stroke="#d67d26" stroke-width="1.51"/><path d="M107,-3L122,6L135,-11Z" fill="#ffd37a" stroke="#ffd37a" stroke-width="1.51"/><path d="M101,-30L107,-3L135,-11Z" fill="#ffd883" stroke="#ffd883" stroke-width="1.51"/><path d="M84,8L111,54L122,6Z" fill="#ffd372" stroke="#ffd372" stroke-width="1.51"/><path d="M107,190L90,208L130,203Z" fill="#e18428" stroke="#e18428" stroke-width="1.51"/><path d="M86,255L114,268L119,241Z" fill="#bd7527" stroke="#bd7527" stroke-width="1.51"/><path d="M107,-3L84,8L122,6Z" fill="#ffd87d" stroke="#ffd87d" stroke-width="1.51"/><path d="M92,163L107,190L108,157Z" fill="#ef932f" stroke="#ef932f" stroke-width="1.51"/><path d="M90,208L86,255L119,241Z" fill="#cb7d2b" stroke="#cb7d2b" stroke-width="1.51"/><path d="M75,216L86,255L90,208Z" fill="#d28436" stroke="#d28436" stroke-width="1.51"/><path d="M84,8L68,56L111,54Z" fill="#ffd370" stroke="#ffd370" stroke-width="1.51"/><path d="M80,118L99,126L112,99Z" fill="#feae3f" stroke="#feae3f" stroke-width="1.51"/><path d="M101,66L85,73L112,99Z" fill="#febf4c" stroke="#febf4c" stroke-width="1.51"/><path d="M99,126L92,163L108,157Z" fill="#f79d35" stroke="#f79d35" stroke-width="1.51"/><path d="M68,56L101,66L111,54Z" fill="#ffca5d" stroke="#ffca5d" stroke-width="1.51"/><path d="M85,73L80,118L112,99Z" fill="#ffb849" stroke="#ffb849" stroke-width="1.51"/><path d="M101,-30L76,-16L107,-3Z" fill="#ffe08c" stroke="#ffe08c" stroke-width="1.51"/><path d="M72,146L92,163L99,126Z" fill="#f8a23e" stroke="#f8a23e" stroke-width="1.51"/><path d="M76,-16L84,8L107,-3Z" fill="#ffdf89" stroke="#ffdf89" stroke-width="1.51"/><path d="M92,163L90,208L107,190Z" fill="#e98e30" stroke="#e98e30" stroke-width="1.51"/><path d="M45,170L90,208L92,163Z" fill="#ed973f" stroke="#ed973f" stroke-width="1.51"/><path d="M80,118L72,146L99,126Z" fill="#fcaa45" stroke="#fcaa45" stroke-width="1.51"/><path d="M68,56L85,73L101,66Z" fill="#ffca5d" stroke="#ffca5d" stroke-width="1.51"/><path d="M80,-42L76,-16L101,-30Z" fill="#ffe498" stroke="#ffe498" stroke-width="1.51"/><path d="M45,170L52,209L90,208Z" fill="#e79545" stroke="#e79545" stroke-width="1.51"/><path d="M47,17L68,56L84,8Z" fill="#ffde87" stroke="#ffde87" stroke-width="1.51"/><path d="M61,114L80,118L85,73Z" fill="#ffbb52" stroke="#ffbb52" stroke-width="1.51"/><path d="M53,75L61,114L85,73Z" fill="#ffc55e" stroke="#ffc55e" stroke-width="1.51"/><path d="M52,209L75,216L90,208Z" fill="#dd8c3e" stroke="#dd8c3e" stroke-width="1.51"/><path d="M72,146L45,170L92,163Z" fill="#f5a147" stroke="#f5a147" stroke-width="1.51"/><path d="M62,127L72,146L80,118Z" fill="#fcae4d" stroke="#fcae4d" stroke-width="1.51"/><path d="M75,216L49,259L86,255Z" fill="#c7833d" stroke="#c7833d" stroke-width="1.51"/><path d="M47,17L44,45L68,56Z" fill="#ffdd85" stroke="#ffdd85" stroke-width="1.51"/><path d="M46,220L49,259L75,216Z" fill="#cf8a46" stroke="#cf8a46" stroke-width="1.51"/><path d="M68,56L53,75L85,73Z" fill="#ffce65" stroke="#ffce65" stroke-width="1.51"/><path d="M76,-16L47,17L84,8Z" fill="#ffe392" stroke="#ffe392" stroke-width="1.51"/><path d="M47,-20L47,17L76,-16Z" fill="#ffe99e" stroke="#ffe99e" stroke-width="1.51"/><path d="M47,-20L76,-16L80,-42Z" fill="#ffe9a1" stroke="#ffe9a1" stroke-width="1.51"/><path d="M44,-40L47,-20L80,-42Z" fill="#ffedac" stroke="#ffedac" stroke-width="1.51"/><path d="M61,114L62,127L80,118Z" fill="#feb452" stroke="#feb452" stroke-width="1.51"/><path d="M52,209L46,220L75,216Z" fill="#da8f46" stroke="#da8f46" stroke-width="1.51"/><path d="M62,127L31,132L72,146Z" fill="#fcb056" stroke="#fcb056" stroke-width="1.51"/><path d="M31,132L45,170L72,146Z" fill="#f9ab56" stroke="#f9ab56" stroke-width="1.51"/><path d="M53,75L27,102L61,114Z" fill="#ffc566" stroke="#ffc566" stroke-width="1.51"/><path d="M44,45L53,75L68,56Z" fill="#ffd575" stroke="#ffd575" stroke-width="1.51"/><path d="M31,132L27,162L45,170Z" fill="#f9ac5b" stroke="#f9ac5b" stroke-width="1.51"/><path d="M13,253L2,258L49,259Z" fill="#c08a53" stroke="#c08a53" stroke-width="1.51"/><path d="M61,114L31,132L62,127Z" fill="#feb75b" stroke="#feb75b" stroke-width="1.51"/><path d="M27,102L31,132L61,114Z" fill="#ffbd62" stroke="#ffbd62" stroke-width="1.51"/><path d="M2,200L10,211L45,170Z" fill="#eb9f59" stroke="#eb9f59" stroke-width="1.51"/><path d="M9,226L13,253L46,220Z" fill="#d19054" stroke="#d19054" stroke-width="1.51"/><path d="M28,18L44,45L47,17Z" fill="#fee595" stroke="#fee595" stroke-width="1.51"/><path d="M28,18L47,17L47,-20Z" fill="#ffeaa0" stroke="#ffeaa0" stroke-width="1.51"/><path d="M15,-20L28,18L47,-20Z" fill="#ffefab" stroke="#ffefab" stroke-width="1.51"/><path d="M46,220L13,253L49,259Z" fill="#c88b4e" stroke="#c88b4e" stroke-width="1.51"/><path d="M45,170L10,211L52,209Z" fill="#e89a52" stroke="#e89a52" stroke-width="1.51"/><path d="M44,45L24,71L53,75Z" fill="#ffd778" stroke="#ffd778" stroke-width="1.51"/><path d="M24,71L27,102L53,75Z" fill="#ffcf71" stroke="#ffcf71" stroke-width="1.51"/><path d="M27,162L2,200L45,170Z" fill="#f1a45b" stroke="#f1a45b" stroke-width="1.51"/><path d="M10,211L46,220L52,209Z" fill="#dd9450" stroke="#dd9450" stroke-width="1.51"/><path d="M44,-40L22,-41L47,-20Z" fill="#fff1b5" stroke="#fff1b5" stroke-width="1.51"/><path d="M28,18L19,45L44,45Z" fill="#ffe392" stroke="#ffe392" stroke-width="1.51"/><path d="M19,45L24,71L44,45Z" fill="#ffdd84" stroke="#ffdd84" stroke-width="1.51"/><path d="M22,-41L15,-20L47,-20Z" fill="#fff2b5" stroke="#fff2b5" stroke-width="1.51"/><path d="M10,211L9,226L46,220Z" fill="#da9556" stroke="#da9556" stroke-width="1.51"/><path d="M24,71L-15,78L27,102Z" fill="#ffd27a" stroke="#ffd27a" stroke-width="1.51"/><path d="M15,-20L-5,8L28,18Z" fill="#fff0ae" stroke="#fff0ae" stroke-width="1.51"/><path d="M27,102L-2,113L31,132Z" fill="#ffc16b" stroke="#ffc16b" stroke-width="1.51"/><path d="M-17,138L27,162L31,132Z" fill="#fdb466" stroke="#fdb466" stroke-width="1.51"/><path d="M-2,113L-17,138L31,132Z" fill="#ffbe6e" stroke="#ffbe6e" stroke-width="1.51"/><path d="M-15,78L-2,113L27,102Z" fill="#ffcd77" stroke="#ffcd77" stroke-width="1.51"/><path d="M-17,138L-18,160L27,162Z" fill="#fcb36a" stroke="#fcb36a" stroke-width="1.51"/><path d="M-18,160L2,200L27,162Z" fill="#f4a963" stroke="#f4a963" stroke-width="1.51"/><path d="M-5,8L19,45L28,18Z" fill="#ffeaa1" stroke="#ffeaa1" stroke-width="1.51"/><path d="M2,-22L15,-20L22,-41Z" fill="#fff5bc" stroke="#fff5bc" stroke-width="1.51"/><path d="M19,45L-17,52L24,71Z" fill="#ffe08b" stroke="#ffe08b" stroke-width="1.51"/><path d="M-17,52L-15,78L24,71Z" fill="#ffde87" stroke="#ffde87" stroke-width="1.51"/><path d="M2,-22L-5,8L15,-20Z" fill="#fff5b8" stroke="#fff5b8" stroke-width="1.51"/><path d="M-5,8L-17,52L19,45Z" fill="#ffe9a0" stroke="#ffe9a0" stroke-width="1.51"/><path d="M-19,-43L2,-22L22,-41Z" fill="#fff8c5" stroke="#fff8c5" stroke-width="1.51"/><path d="M9,226L-9,239L13,253Z" fill="#cd925b" stroke="#cd925b" stroke-width="1.51"/><path d="M-9,239L2,258L13,253Z" fill="#c58f5b" stroke="#c58f5b" stroke-width="1.51"/><path d="M2,200L-9,239L9,226Z" fill="#d9985e" stroke="#d9985e" stroke-width="1.51"/><path d="M2,200L9,226L10,211Z" fill="#df9a5c" stroke="#df9a5c" stroke-width="1.51"/><path d="M-43,22L-17,52L-5,8Z" fill="#ffeeae" stroke="#ffeeae" stroke-width="1.51"/><path d="M-18,160L-36,161L2,200Z" fill="#f5ac6c" stroke="#f5ac6c" stroke-width="1.51"/><path d="M-36,161L-53,202L2,200Z" fill="#f0a66d" stroke="#f0a66d" stroke-width="1.51"/><path d="M-53,202L-45,219L2,200Z" fill="#e5a06c" stroke="#e5a06c" stroke-width="1.51"/><path d="M-45,219L-9,239L2,200Z" fill="#dc9a65" stroke="#dc9a65" stroke-width="1.51"/><path d="M-43,-17L-5,8L2,-22Z" fill="#fff7bf" stroke="#fff7bf" stroke-width="1.51"/><path d="M-19,-43L-43,-17L2,-22Z" fill="#fff9c9" stroke="#fff9c9" stroke-width="1.51"/><path d="M-9,239L-51,252L2,258Z" fill="#c79263" stroke="#c79263" stroke-width="1.51"/><path d="M-15,78L-52,106L-2,113Z" fill="#ffcf82" stroke="#ffcf82" stroke-width="1.51"/><path d="M-52,106L-17,138L-2,113Z" fill="#ffc57b" stroke="#ffc57b" stroke-width="1.51"/><path d="M-43,-17L-43,22L-5,8Z" fill="#fff4bd" stroke="#fff4bd" stroke-width="1.51"/><path d="M-43,22L-28,55L-17,52Z" fill="#ffe9a4" stroke="#ffe9a4" stroke-width="1.51"/><path d="M-52,106L-40,141L-17,138Z" fill="#ffc17d" stroke="#ffc17d" stroke-width="1.51"/><path d="M-17,52L-28,55L-15,78Z" fill="#ffe192" stroke="#ffe192" stroke-width="1.51"/><path d="M-45,219L-51,252L-9,239Z" fill="#d19669" stroke="#d19669" stroke-width="1.51"/><path d="M-40,141L-36,161L-18,160Z" fill="#fdb576" stroke="#fdb576" stroke-width="1.51"/><path d="M-40,141L-18,160L-17,138Z" fill="#ffb875" stroke="#ffb875" stroke-width="1.51"/><path d="M-28,55L-48,68L-15,78Z" fill="#ffe092" stroke="#ffe092" stroke-width="1.51"/><path d="M-48,68L-52,106L-15,78Z" fill="#ffd78e" stroke="#ffd78e" stroke-width="1.51"/><path d="M-53,-51L-43,-17L-19,-43Z" fill="#fffbd5" stroke="#fffbd5" stroke-width="1.51"/><path d="M-43,22L-48,68L-28,55Z" fill="#ffe8a4" stroke="#ffe8a4" stroke-width="1.51"/><path d="M-40,141L-53,202L-36,161Z" fill="#f8b077" stroke="#f8b077" stroke-width="1.51"/><path d="M-52,106L-53,202L-40,141Z" fill="#ffb87d" stroke="#ffb87d" stroke-width="1.51"/><path d="M-43,-17L-53,-51L-43,22Z" fill="#ffface" stroke="#ffface" stroke-width="1.51"/><path d="M-53,-51L-48,68L-43,22Z" fill="#fff4c0" stroke="#fff4c0" stroke-width="1.51"/><path d="M-53,202L-51,252L-45,219Z" fill="#da9b70" stroke="#da9b70" stroke-width="1.51"/><path d="M-53,-51L-52,106L-48,68Z" fill="#ffebae" stroke="#ffebae" stroke-width="1.51"/></svg>