<svg xmlns="http://www.w3.org/2000/svg" version="1" viewBox="0 0 723 749"><path d="M304.4 1.5C197.8 12.1 103.1 68 38.2 158.7c-8.7 12.1-20.8 31-26.6 41.4L8 206.8l13.6 9.8c7.6 5.5 14.1 10.2 14.6 10.5.5.3-1.8 7-5.2 14.8C17.1 274.4 8.5 307 3.3 346.5c-2.1 16.4-2.4 62.7-.5 79C12.9 510.9 48 584.1 107 643c60.8 60.6 138.4 96.5 225 104.1 17 1.5 59.3.6 75-1.6 40.1-5.5 74.7-15.8 110.5-32.9 71.7-34.4 130.7-92.8 166.4-164.6 18.5-37.3 29-72.5 35.3-118 2.1-15.1 1.7-76.6-.5-95-10.9-88.4-46.1-162.2-105.7-222.1-15.3-15.4-24.8-23.7-40.5-35.5C514.8 33.8 445 7.4 371.5 1c-16-1.3-50.9-1.1-67.1.5zM366.5 64c57.7 5 115.4 25.9 161.5 58.5 99.8 70.8 149.6 190.9 129.3 312-7.9 47.3-23.4 86.5-49.1 124-52 76-133.1 121.2-224.9 125.4-50.7 2.3-99.1-10.6-139.9-37.4-31.7-20.8-56.2-48.6-72.9-82.8-41.6-84.9-19.9-181.2 51.6-229.7l6.1-4.2 3 3 3.1 3-5.6 6.9c-25.4 31.3-41.3 81.4-37.7 118.7 6 63.5 39.9 110.8 96.7 135.2 70.4 30.1 156.5 11.1 210.5-46.5 21.2-22.6 36.7-49.3 47.2-81.3 10.1-30.4 13.2-52.2 12.3-86.1-.7-24-2.1-34.3-7.6-55.1C525 233.8 443.2 158.6 345 139c-22.2-4.4-32.6-5.4-56-5.4-22.9.1-36.8 1.5-58.2 5.9-39.7 8.1-82.7 26.9-119.3 51.9-4.9 3.4-9.5 6.5-10.1 6.9-.6.3-2.3-.6-3.8-2.1l-2.6-2.8 6.2-9.1c18.9-27.4 44.9-52.8 73.3-71.7 55.3-36.8 124.4-54.3 192-48.6zm-43 134.4c80.4 15 143 65.5 166.9 134.4 2 5.7 3.6 11 3.6 11.6 0 .7-1.8 2-3.9 2.8l-3.9 1.6-7-8.7c-9.5-11.7-31.4-32.9-44-42.5-30.5-23.2-63.1-37.8-99.7-44.7-14-2.7-46.9-3.7-61.2-2-28.8 3.6-57 13-80.9 27.2-15.4 9.2-26.6 18-40 31.3-24.8 24.7-41.7 52.4-53.3 87.2-9 27-12.5 48.9-12.5 79.1l-.1 18.3-2.9 1c-1.6.5-3.5 1-4.2 1-2.5 0-10.3-25.5-13.9-45.5-3.4-19-3-51.1 1.1-72.2 6.9-36.4 22.6-70.6 45.4-99.3 8.5-10.7 27.9-29.5 38.6-37.6 27-20.3 61.6-35.6 94.4-41.8 18.5-3.5 17.5-3.4 44.5-3.1 17.2.2 26.5.7 33 1.9zM368 351.6c29.4 7.5 52.4 31.1 58.5 60.2 2.1 9.9 1.9 25-.5 35.2-2.5 10.1-8.3 22.7-14.1 30.1-2.3 3-4.6 5.9-5 6.5-.5.6 4 4.3 12.1 10 7.2 4.9 13 9.1 13 9.5 0 .3-2.5 3.5-5.6 7.2-11.8 14.4-30.9 26.3-50.1 31.4-8.3 2.2-12 2.6-24.3 2.6-12.5 0-15.8-.4-24.4-2.6-72.2-19.2-97.8-107.8-46.7-162 14.6-15.4 33.9-25.8 55.1-29.6 7.4-1.3 24-.6 32 1.5z"/></svg>