<svg xmlns="http://www.w3.org/2000/svg" viewBox="0 0 512 341.3333333333333" clip-path="url(#clip)" width="958.9999999999999" height="639.3333333333333"><defs><clipPath id="clip" clipPathUnits="objectBoundingBox"><rect x="0" y="0" width="512" height="341.3333333333333"/></clipPath></defs><rect x="0" y="0" width="512" height="341.3333333333333" fill="rgb(36, 33, 27)"/><path d="M277,226L362,-41L158,-12Z" fill="rgb(144, 150, 153)" fill-opacity="0.75"/><path d="M486,-210L289,82L255,377Z" fill="rgb(69, 72, 74)" fill-opacity="0.60"/><path d="M271,130L214,-46L296,-32Z" fill="rgb(235, 237, 238)" fill-opacity="0.58"/><path d="M269,174L241,171L244,238Z" fill="rgb(149, 159, 161)" fill-opacity="0.58"/><path d="M61,4L256,176L215,-13Z" fill="rgb(63, 67, 70)" fill-opacity="0.71"/><path d="M255,111L240,140L310,159Z" fill="rgb(252, 252, 248)" fill-opacity="0.22"/><path d="M245,284L264,277L321,238Z" fill="rgb(224, 237, 245)" fill-opacity="0.39"/><path d="M264,53L277,-103L217,-2Z" fill="rgb(221, 222, 222)" fill-opacity="0.84"/><path d="M304,268L226,10L356,199Z" fill="rgb(126, 130, 134)" fill-opacity="0.21"/><path d="M227,78L242,57L318,105Z" fill="rgb(155, 159, 160)" fill-opacity="0.80"/><path d="M274,74L363,-87L273,18Z" fill="rgb(152, 157, 161)" fill-opacity="0.72"/><path d="M214,100L187,105L209,97Z" fill="rgb(163, 175, 181)" fill-opacity="0.62"/><path d="M292,170L301,152L306,223Z" fill="rgb(113, 115, 115)" fill-opacity="0.61"/><path d="M209,86L215,70L203,70Z" fill="rgb(255, 255, 255)" fill-opacity="0.49"/><path d="M303,72L308,75L295,79Z" fill="rgb(255, 253, 249)" fill-opacity="0.55"/><path d="M199,82L214,84L211,68Z" fill="rgb(247, 254, 255)" fill-opacity="0.35"/><path d="M123,64L249,60L241,23Z" fill="rgb(70, 76, 78)" fill-opacity="0.70"/><path d="M194,220L196,149L194,108Z" fill="rgb(107, 117, 120)" fill-opacity="0.99"/><path d="M238,197L321,259L283,182Z" fill="rgb(64, 65, 65)" fill-opacity="0.70"/><path d="M208,224L195,112L245,80Z" fill="rgb(46, 49, 49)" fill-opacity="0.70"/><path d="M242,173L271,178L242,205Z" fill="rgb(171, 177, 178)" fill-opacity="0.43"/><path d="M226,2L165,80L78,-346Z" fill="rgb(198, 216, 219)" fill-opacity="0.10"/><path d="M213,250L275,292L206,250Z" fill="rgb(150, 165, 174)" fill-opacity="0.44"/><path d="M383,116L319,65L295,96Z" fill="rgb(45, 46, 45)" fill-opacity="0.66"/><path d="M836,282L222,497L494,-4Z" fill="rgb(17, 13, 4)" fill-opacity="0.97"/><path d="M275,62L294,66L299,99Z" fill="rgb(62, 63, 61)" fill-opacity="0.61"/><path d="M-178,366L307,367L-2,51Z" fill="rgb(18, 14, 5)" fill-opacity="0.90"/><path d="M317,173L287,135L317,102Z" fill="rgb(25, 20, 16)" fill-opacity="0.30"/><path d="M303,107L244,50L251,144Z" fill="rgb(175, 177, 178)" fill-opacity="0.33"/><path d="M254,304L237,188L279,229Z" fill="rgb(70, 76, 81)" fill-opacity="0.30"/><path d="M244,-41L268,63L249,64Z" fill="rgb(233, 234, 234)" fill-opacity="0.61"/><path d="M325,107L323,-14L382,-70Z" fill="rgb(79, 84, 84)" fill-opacity="0.56"/><path d="M242,198L242,235L255,228Z" fill="rgb(87, 93, 92)" fill-opacity="0.79"/><path d="M290,284L178,332L406,445Z" fill="rgb(25, 22, 16)" fill-opacity="0.71"/><path d="M165,44L183,57L194,47Z" fill="rgb(109, 124, 129)" fill-opacity="0.52"/><path d="M281,187L283,178L278,164Z" fill="rgb(13, 7, 0)" fill-opacity="0.48"/><path d="M237,64L236,72L249,76Z" fill="rgb(231, 231, 230)" fill-opacity="0.56"/><path d="M258,59L319,68L335,20Z" fill="rgb(144, 151, 155)" fill-opacity="0.35"/><path d="M146,-12L224,-38L220,14Z" fill="rgb(242, 229, 231)" fill-opacity="0.14"/><path d="M343,222L300,307L248,290Z" fill="rgb(42, 42, 41)" fill-opacity="0.80"/><path d="M258,280L265,275L249,278Z" fill="rgb(224, 232, 237)" fill-opacity="0.34"/><path d="M215,59L234,78L211,96Z" fill="rgb(64, 69, 70)" fill-opacity="0.75"/><path d="M317,207L313,276L315,97Z" fill="rgb(33, 32, 28)" fill-opacity="1.00"/><path d="M288,86L303,131L276,123Z" fill="rgb(121, 123, 122)" fill-opacity="0.65"/><path d="M217,83L215,84L215,67Z" fill="rgb(168, 173, 175)" fill-opacity="0.67"/><path d="M482,-175L353,227L323,122Z" fill="rgb(38, 39, 39)" fill-opacity="0.70"/><path d="M112,102L181,74L197,112Z" fill="rgb(39, 41, 40)" fill-opacity="0.88"/><path d="M243,26L250,58L197,-8Z" fill="rgb(103, 109, 111)" fill-opacity="0.56"/><path d="M302,116L299,101L315,104Z" fill="rgb(41, 40, 37)" fill-opacity="0.62"/><path d="M311,241L302,252L251,284Z" fill="rgb(227, 244, 252)" fill-opacity="0.26"/><path d="M275,133L258,129L312,130Z" fill="rgb(11, 7, 2)" fill-opacity="0.44"/><path d="M262,99L264,128L282,101Z" fill="rgb(179, 181, 182)" fill-opacity="0.89"/><path d="M225,64L308,90L244,63Z" fill="rgb(3, 11, 16)" fill-opacity="0.17"/><path d="M217,330L80,168L256,282Z" fill="rgb(29, 26, 22)" fill-opacity="0.75"/><path d="M194,118L54,47L51,-53Z" fill="rgb(42, 42, 43)" fill-opacity="0.67"/><path d="M212,212L212,115L194,149Z" fill="rgb(68, 76, 80)" fill-opacity="0.50"/><path d="M259,117L219,81L245,81Z" fill="rgb(96, 102, 103)" fill-opacity="0.57"/><path d="M292,94L285,84L295,92Z" fill="rgb(234, 233, 229)" fill-opacity="0.54"/><path d="M317,94L317,220L318,141Z" fill="rgb(207, 215, 219)" fill-opacity="0.59"/><path d="M239,267L261,231L203,242Z" fill="rgb(28, 26, 22)" fill-opacity="0.95"/><path d="M261,165L229,181L239,145Z" fill="rgb(64, 63, 64)" fill-opacity="0.46"/><path d="M327,69L304,72L287,64Z" fill="rgb(51, 50, 46)" fill-opacity="0.63"/><path d="M260,137L277,137L295,143Z" fill="rgb(223, 223, 221)" fill-opacity="0.67"/><path d="M235,79L255,78L226,85Z" fill="rgb(237, 239, 242)" fill-opacity="0.43"/><path d="M186,70L200,15L241,57Z" fill="rgb(66, 70, 72)" fill-opacity="0.80"/><path d="M238,123L213,251L213,99Z" fill="rgb(8, 3, 0)" fill-opacity="0.25"/><path d="M300,220L292,145L314,187Z" fill="rgb(102, 104, 103)" fill-opacity="0.58"/><path d="M239,61L273,61L207,65Z" fill="rgb(243, 254, 251)" fill-opacity="0.53"/><path d="M341,96L294,90L277,75Z" fill="rgb(47, 47, 43)" fill-opacity="0.49"/><path d="M222,87L159,112L164,94Z" fill="rgb(34, 35, 32)" fill-opacity="0.99"/><path d="M205,248L240,271L204,243Z" fill="rgb(138, 149, 155)" fill-opacity="0.44"/><path d="M242,78L257,66L282,61Z" fill="rgb(149, 154, 156)" fill-opacity="1.00"/><path d="M556,-61L196,586L437,35Z" fill="rgb(24, 22, 18)" fill-opacity="0.67"/><path d="M231,20L222,13L186,74Z" fill="rgb(79, 84, 85)" fill-opacity="0.93"/><path d="M277,61L296,64L251,62Z" fill="rgb(249, 255, 252)" fill-opacity="0.53"/><path d="M261,74L280,67L280,74Z" fill="rgb(255, 253, 250)" fill-opacity="0.52"/><path d="M251,170L240,176L256,187Z" fill="rgb(171, 176, 176)" fill-opacity="0.47"/><path d="M272,165L278,139L249,141Z" fill="rgb(136, 140, 140)" fill-opacity="1.00"/><path d="M209,-12L223,-16L218,12Z" fill="rgb(244, 241, 241)" fill-opacity="0.19"/><path d="M302,112L296,93L294,93Z" fill="rgb(230, 227, 226)" fill-opacity="0.30"/><path d="M244,275L234,264L260,281Z" fill="rgb(114, 121, 125)" fill-opacity="0.50"/><path d="M248,195L243,214L271,193Z" fill="rgb(91, 96, 95)" fill-opacity="0.87"/><path d="M-34,25L189,155L198,348Z" fill="rgb(24, 21, 16)" fill-opacity="0.71"/><path d="M215,96L217,63L231,66Z" fill="rgb(8, 4, 9)" fill-opacity="0.19"/><path d="M308,80L314,73L283,85Z" fill="rgb(178, 173, 170)" fill-opacity="0.33"/><path d="M276,265L262,249L252,269Z" fill="rgb(62, 64, 65)" fill-opacity="0.62"/><path d="M213,22L162,18L189,47Z" fill="rgb(75, 80, 81)" fill-opacity="0.82"/><path d="M289,86L222,73L279,81Z" fill="rgb(222, 223, 222)" fill-opacity="0.42"/><path d="M300,275L243,296L272,293Z" fill="rgb(66, 66, 66)" fill-opacity="0.55"/><path d="M202,87L203,75L202,73Z" fill="rgb(205, 209, 212)" fill-opacity="0.72"/><path d="M195,225L194,150L195,94Z" fill="rgb(202, 222, 233)" fill-opacity="0.33"/><path d="M256,177L263,174L218,131Z" fill="rgb(66, 66, 65)" fill-opacity="0.66"/><path d="M204,74L227,10L196,74Z" fill="rgb(60, 62, 63)" fill-opacity="0.74"/><path d="M308,72L311,77L308,83Z" fill="rgb(39, 36, 33)" fill-opacity="0.64"/><path d="M210,70L206,51L213,70Z" fill="rgb(50, 52, 54)" fill-opacity="0.73"/><path d="M274,199L253,206L253,209Z" fill="rgb(28, 26, 21)" fill-opacity="0.63"/><path d="M450,8L353,62L287,-134Z" fill="rgb(50, 48, 50)" fill-opacity="0.34"/><path d="M263,113L265,84L250,99Z" fill="rgb(160, 164, 165)" fill-opacity="0.75"/><path d="M318,248L318,152L358,166Z" fill="rgb(55, 57, 58)" fill-opacity="0.59"/><path d="M287,212L315,186L277,187Z" fill="rgb(100, 100, 101)" fill-opacity="0.39"/><path d="M311,100L316,105L320,101Z" fill="rgb(235, 241, 246)" fill-opacity="0.34"/><path d="M250,137L271,141L250,115Z" fill="rgb(182, 186, 187)" fill-opacity="0.43"/><path d="M215,78L205,77L209,69Z" fill="rgb(232, 235, 234)" fill-opacity="0.62"/><path d="M197,272L209,218L197,161Z" fill="rgb(25, 23, 18)" fill-opacity="1.00"/><path d="M253,145L242,112L242,160Z" fill="rgb(114, 121, 121)" fill-opacity="0.51"/><path d="M301,72L297,84L274,79Z" fill="rgb(85, 87, 86)" fill-opacity="0.83"/><path d="M213,234L249,238L254,234Z" fill="rgb(15, 12, 4)" fill-opacity="0.67"/><path d="M284,63L256,60L226,63Z" fill="rgb(248, 255, 250)" fill-opacity="0.63"/><path d="M252,233L245,234L254,211Z" fill="rgb(85, 91, 90)" fill-opacity="0.77"/><path d="M290,140L300,151L282,139Z" fill="rgb(211, 209, 207)" fill-opacity="0.44"/><path d="M253,193L290,181L259,194Z" fill="rgb(14, 8, 2)" fill-opacity="0.35"/><path d="M340,185L321,228L321,161Z" fill="rgb(101, 106, 113)" fill-opacity="0.18"/><path d="M262,109L262,132L263,132Z" fill="rgb(59, 64, 63)" fill-opacity="0.97"/><path d="M288,38L297,5L253,19Z" fill="rgb(186, 191, 194)" fill-opacity="0.36"/><path d="M212,73L247,63L230,63Z" fill="rgb(58, 63, 66)" fill-opacity="0.58"/><path d="M300,132L258,132L290,129Z" fill="rgb(20, 16, 12)" fill-opacity="0.50"/><path d="M200,114L226,86L242,81Z" fill="rgb(60, 63, 64)" fill-opacity="0.79"/><path d="M264,113L248,113L257,109Z" fill="rgb(26, 35, 33)" fill-opacity="0.44"/><path d="M237,66L221,64L235,72Z" fill="rgb(68, 72, 73)" fill-opacity="0.78"/><path d="M253,210L253,196L296,238Z" fill="rgb(30, 31, 27)" fill-opacity="0.32"/><path d="M301,132L264,89L284,116Z" fill="rgb(140, 143, 143)" fill-opacity="1.00"/><path d="M255,163L246,157L253,144Z" fill="rgb(85, 86, 86)" fill-opacity="0.68"/><path d="M226,186L246,94L228,85Z" fill="rgb(65, 65, 65)" fill-opacity="0.36"/><path d="M147,-66L169,85L112,-11Z" fill="rgb(61, 64, 68)" fill-opacity="0.65"/><path d="M286,84L275,79L295,93Z" fill="rgb(245, 243, 240)" fill-opacity="0.40"/><path d="M311,130L292,115L259,80Z" fill="rgb(97, 101, 101)" fill-opacity="0.57"/><path d="M206,100L204,61L203,84Z" fill="rgb(57, 60, 61)" fill-opacity="0.93"/><path d="M300,99L300,143L315,124Z" fill="rgb(65, 66, 65)" fill-opacity="0.97"/><path d="M298,170L295,158L275,138Z" fill="rgb(95, 96, 95)" fill-opacity="0.81"/><path d="M272,126L269,122L299,101Z" fill="rgb(135, 138, 138)" fill-opacity="0.59"/><path d="M270,304L154,213L243,325Z" fill="rgb(42, 41, 40)" fill-opacity="0.30"/><path d="M307,-22L330,-21L288,58Z" fill="rgb(128, 134, 137)" fill-opacity="0.76"/><path d="M291,185L290,187L280,174Z" fill="rgb(29, 26, 25)" fill-opacity="0.62"/><path d="M290,239L414,235L428,126Z" fill="rgb(34, 34, 36)" fill-opacity="0.21"/><path d="M361,65L272,60L269,39Z" fill="rgb(116, 120, 125)" fill-opacity="0.22"/><path d="M259,78L281,81L232,78Z" fill="rgb(255, 255, 254)" fill-opacity="0.47"/><path d="M235,79L229,71L234,71Z" fill="rgb(251, 251, 251)" fill-opacity="0.59"/><path d="M274,256L263,247L261,243Z" fill="rgb(94, 95, 97)" fill-opacity="0.49"/><path d="M247,61L212,43L199,59Z" fill="rgb(54, 56, 57)" fill-opacity="0.46"/><path d="M312,62L315,99L322,81Z" fill="rgb(16, 11, 3)" fill-opacity="0.27"/><path d="M194,105L215,98L192,101Z" fill="rgb(167, 180, 188)" fill-opacity="0.52"/><path d="M268,139L308,180L276,144Z" fill="rgb(86, 87, 87)" fill-opacity="0.66"/><path d="M208,231L208,210L214,232Z" fill="rgb(64, 71, 74)" fill-opacity="0.53"/><path d="M278,167L245,198L280,178Z" fill="rgb(133, 137, 135)" fill-opacity="0.51"/><path d="M299,74L307,81L304,71Z" fill="rgb(255, 254, 252)" fill-opacity="0.41"/><path d="M300,118L270,89L263,80Z" fill="rgb(212, 213, 212)" fill-opacity="0.43"/><path d="M245,12L241,27L207,-38Z" fill="rgb(200, 201, 203)" fill-opacity="0.69"/><path d="M256,195L263,200L260,203Z" fill="rgb(116, 123, 126)" fill-opacity="0.68"/><path d="M194,96L206,99L219,93Z" fill="rgb(49, 54, 56)" fill-opacity="0.74"/><path d="M286,115L313,140L277,104Z" fill="rgb(70, 72, 72)" fill-opacity="0.50"/><path d="M249,74L283,79L243,77Z" fill="rgb(107, 113, 117)" fill-opacity="0.46"/><path d="M299,257L309,250L319,232Z" fill="rgb(19, 18, 14)" fill-opacity="0.64"/><path d="M242,190L253,208L253,188Z" fill="rgb(113, 121, 121)" fill-opacity="0.57"/><path d="M279,87L317,128L267,77Z" fill="rgb(99, 102, 102)" fill-opacity="0.71"/><path d="M274,155L311,190L252,130Z" fill="rgb(166, 166, 166)" fill-opacity="0.45"/><path d="M262,63L268,77L273,71Z" fill="rgb(249, 246, 244)" fill-opacity="0.32"/><path d="M247,114L261,114L263,146Z" fill="rgb(164, 167, 168)" fill-opacity="0.86"/><path d="M292,89L288,85L309,90Z" fill="rgb(27, 23, 18)" fill-opacity="0.63"/><path d="M158,114L169,76L70,-37Z" fill="rgb(51, 51, 54)" fill-opacity="0.49"/><path d="M316,239L314,104L317,106Z" fill="rgb(29, 27, 22)" fill-opacity="0.96"/><path d="M271,-56L257,61L268,60Z" fill="rgb(206, 207, 210)" fill-opacity="0.52"/><path d="M314,157L298,126L302,181Z" fill="rgb(75, 76, 75)" fill-opacity="0.77"/><path d="M244,70L247,71L241,80Z" fill="rgb(243, 244, 242)" fill-opacity="0.49"/><path d="M261,193L299,231L267,197Z" fill="rgb(31, 30, 27)" fill-opacity="0.62"/><path d="M291,64L248,55L322,68Z" fill="rgb(170, 173, 176)" fill-opacity="0.69"/><path d="M353,51L322,67L317,111Z" fill="rgb(66, 70, 71)" fill-opacity="0.57"/><path d="M274,65L276,63L274,77Z" fill="rgb(9, 14, 11)" fill-opacity="0.38"/><path d="M-9,84L156,349L-47,448Z" fill="rgb(15, 11, 0)" fill-opacity="0.85"/><path d="M225,41L239,26L223,13Z" fill="rgb(102, 107, 110)" fill-opacity="0.55"/><path d="M240,137L264,160L277,176Z" fill="rgb(226, 229, 228)" fill-opacity="0.21"/><path d="M299,106L301,104L299,120Z" fill="rgb(255, 254, 255)" fill-opacity="0.33"/><path d="M18,-3L-70,-7L62,128Z" fill="rgb(28, 26, 23)" fill-opacity="0.73"/><path d="M241,69L240,65L234,69Z" fill="rgb(254, 253, 250)" fill-opacity="0.42"/><path d="M288,255L264,270L247,258Z" fill="rgb(59, 61, 62)" fill-opacity="0.72"/><path d="M237,121L275,162L305,190Z" fill="rgb(219, 216, 217)" fill-opacity="0.21"/><path d="M532,534L535,21L308,445Z" fill="rgb(15, 10, 0)" fill-opacity="0.90"/><path d="M263,-10L247,45L245,-44Z" fill="rgb(234, 235, 232)" fill-opacity="0.52"/><path d="M250,139L251,132L282,132Z" fill="rgb(164, 167, 167)" fill-opacity="0.76"/><path d="M318,233L320,230L320,96Z" fill="rgb(25, 21, 17)" fill-opacity="0.72"/><path d="M291,97L282,85L297,98Z" fill="rgb(100, 101, 102)" fill-opacity="0.47"/><path d="M264,152L298,189L299,187Z" fill="rgb(58, 55, 57)" fill-opacity="0.57"/><path d="M265,110L256,97L288,130Z" fill="rgb(202, 202, 202)" fill-opacity="0.49"/><path d="M280,71L289,64L307,67Z" fill="rgb(57, 57, 56)" fill-opacity="0.50"/><path d="M308,90L301,88L297,75Z" fill="rgb(58, 58, 56)" fill-opacity="1.00"/><path d="M196,67L190,69L225,63Z" fill="rgb(169, 175, 176)" fill-opacity="0.47"/><path d="M282,133L314,153L277,135Z" fill="rgb(86, 87, 85)" fill-opacity="0.80"/><path d="M255,190L284,184L265,190Z" fill="rgb(7, 3, 0)" fill-opacity="0.40"/><path d="M211,80L199,85L217,83Z" fill="rgb(141, 149, 155)" fill-opacity="0.58"/><path d="M271,171L270,178L252,182Z" fill="rgb(160, 162, 160)" fill-opacity="0.55"/><path d="M289,250L253,214L284,248Z" fill="rgb(22, 22, 17)" fill-opacity="0.50"/><path d="M314,107L296,100L329,108Z" fill="rgb(20, 16, 12)" fill-opacity="0.47"/><path d="M306,78L292,78L315,83Z" fill="rgb(254, 252, 252)" fill-opacity="0.19"/><path d="M199,103L214,103L191,108Z" fill="rgb(19, 17, 14)" fill-opacity="0.53"/><path d="M248,172L253,172L253,180Z" fill="rgb(184, 188, 189)" fill-opacity="0.68"/><path d="M317,295L424,372L241,332Z" fill="rgb(14, 9, 0)" fill-opacity="0.28"/><path d="M282,96L274,85L303,115Z" fill="rgb(202, 202, 201)" fill-opacity="0.32"/><path d="M195,104L171,112L190,99Z" fill="rgb(60, 70, 73)" fill-opacity="0.46"/><path d="M202,80L182,100L177,63Z" fill="rgb(44, 47, 48)" fill-opacity="0.65"/><path d="M283,155L292,150L277,162Z" fill="rgb(140, 138, 139)" fill-opacity="0.52"/><path d="M295,278L309,314L277,320Z" fill="rgb(38, 35, 33)" fill-opacity="0.41"/><path d="M285,202L295,216L270,190Z" fill="rgb(52, 52, 52)" fill-opacity="0.59"/><path d="M310,-64L321,85L353,44Z" fill="rgb(93, 102, 101)" fill-opacity="0.21"/><path d="M264,192L268,189L282,187Z" fill="rgb(124, 127, 129)" fill-opacity="0.52"/><path d="M301,12L306,66L327,32Z" fill="rgb(119, 124, 127)" fill-opacity="0.62"/><path d="M222,78L219,81L247,76Z" fill="rgb(91, 98, 100)" fill-opacity="0.97"/><path d="M272,275L313,246L242,290Z" fill="rgb(24, 22, 16)" fill-opacity="0.64"/><path d="M266,51L300,7L295,65Z" fill="rgb(146, 151, 154)" fill-opacity="0.29"/><path d="M277,76L282,70L307,69Z" fill="rgb(113, 118, 116)" fill-opacity="0.53"/><path d="M299,102L290,87L296,95Z" fill="rgb(247, 246, 245)" fill-opacity="0.42"/><path d="M285,139L296,146L279,138Z" fill="rgb(250, 250, 248)" fill-opacity="0.48"/><path d="M245,60L237,77L239,80Z" fill="rgb(99, 106, 108)" fill-opacity="0.45"/><path d="M300,227L291,219L296,226Z" fill="rgb(104, 106, 108)" fill-opacity="0.53"/><path d="M283,70L271,63L284,63Z" fill="rgb(69, 74, 76)" fill-opacity="0.61"/><path d="M295,202L298,207L278,185Z" fill="rgb(38, 36, 36)" fill-opacity="0.65"/><path d="M290,227L283,222L260,197Z" fill="rgb(36, 36, 33)" fill-opacity="0.77"/><path d="M247,118L229,94L242,107Z" fill="rgb(87, 92, 92)" fill-opacity="0.99"/><path d="M238,14L199,-10L239,-57Z" fill="rgb(206, 207, 208)" fill-opacity="0.99"/><path d="M349,105L433,34L385,186Z" fill="rgb(30, 31, 30)" fill-opacity="0.68"/><path d="M289,149L289,145L299,158Z" fill="rgb(60, 60, 58)" fill-opacity="0.50"/><path d="M310,76L310,71L314,75Z" fill="rgb(221, 220, 215)" fill-opacity="0.40"/><path d="M296,221L299,226L276,201Z" fill="rgb(27, 24, 22)" fill-opacity="0.56"/><path d="M323,281L297,283L290,295Z" fill="rgb(65, 64, 69)" fill-opacity="0.31"/><path d="M192,208L155,129L163,100Z" fill="rgb(20, 20, 16)" fill-opacity="0.49"/><path d="M300,216L314,220L314,152Z" fill="rgb(80, 84, 84)" fill-opacity="0.68"/><path d="M435,152L422,85L658,-3Z" fill="rgb(15, 11, 0)" fill-opacity="0.41"/><path d="M255,293L239,298L233,291Z" fill="rgb(86, 90, 90)" fill-opacity="0.27"/><path d="M204,59L206,63L191,105Z" fill="rgb(43, 46, 47)" fill-opacity="0.63"/><path d="M300,175L299,225L299,149Z" fill="rgb(189, 193, 196)" fill-opacity="0.34"/><path d="M267,234L245,239L287,253Z" fill="rgb(43, 42, 41)" fill-opacity="0.80"/><path d="M295,173L294,170L266,142Z" fill="rgb(38, 35, 37)" fill-opacity="0.43"/><path d="M247,80L242,75L240,81Z" fill="rgb(203, 205, 207)" fill-opacity="0.64"/><path d="M283,102L265,82L281,98Z" fill="rgb(204, 206, 205)" fill-opacity="0.60"/><path d="M277,237L240,196L281,239Z" fill="rgb(84, 87, 86)" fill-opacity="0.60"/><path d="M242,79L238,71L238,78Z" fill="rgb(103, 108, 111)" fill-opacity="0.50"/><path d="M294,133L279,120L268,107Z" fill="rgb(67, 68, 67)" fill-opacity="0.46"/><path d="M240,64L241,71L248,68Z" fill="rgb(27, 40, 43)" fill-opacity="0.27"/><path d="M246,98L250,128L246,125Z" fill="rgb(132, 139, 140)" fill-opacity="0.79"/><path d="M325,84L366,51L319,160Z" fill="rgb(50, 51, 52)" fill-opacity="0.53"/><path d="M309,272L335,217L284,280Z" fill="rgb(49, 51, 53)" fill-opacity="0.47"/><path d="M293,165L258,130L282,157Z" fill="rgb(186, 185, 184)" fill-opacity="0.43"/><path d="M89,43L112,138L166,147Z" fill="rgb(33, 32, 30)" fill-opacity="0.62"/><path d="M212,124L224,130L215,249Z" fill="rgb(20, 18, 14)" fill-opacity="0.34"/><path d="M227,40L224,60L238,44Z" fill="rgb(56, 58, 58)" fill-opacity="0.39"/><path d="M211,89L229,82L192,86Z" fill="rgb(50, 55, 59)" fill-opacity="0.46"/><path d="M278,174L263,158L272,164Z" fill="rgb(75, 78, 77)" fill-opacity="0.56"/><path d="M180,24L221,20L154,-54Z" fill="rgb(99, 102, 101)" fill-opacity="0.38"/><path d="M240,179L244,169L213,181Z" fill="rgb(38, 37, 36)" fill-opacity="0.73"/><path d="M275,110L258,95L296,133Z" fill="rgb(224, 222, 222)" fill-opacity="0.38"/><path d="M312,278L306,272L276,292Z" fill="rgb(22, 18, 14)" fill-opacity="0.45"/><path d="M283,99L295,112L296,110Z" fill="rgb(62, 63, 64)" fill-opacity="0.39"/><path d="M313,67L324,70L337,13Z" fill="rgb(93, 99, 99)" fill-opacity="0.62"/><path d="M265,63L276,63L270,67Z" fill="rgb(87, 95, 103)" fill-opacity="0.48"/><path d="M273,80L239,80L264,78Z" fill="rgb(233, 234, 233)" fill-opacity="0.80"/><path d="M262,291L278,292L254,292Z" fill="rgb(145, 148, 146)" fill-opacity="0.44"/><path d="M197,128L204,124L194,102Z" fill="rgb(27, 26, 25)" fill-opacity="0.30"/><path d="M228,165L212,250L241,238Z" fill="rgb(26, 25, 21)" fill-opacity="0.70"/><path d="M342,81L349,113L407,74Z" fill="rgb(38, 40, 41)" fill-opacity="0.58"/><path d="M276,286L308,270L271,292Z" fill="rgb(74, 78, 83)" fill-opacity="0.50"/><path d="M212,131L207,133L212,169Z" fill="rgb(79, 91, 92)" fill-opacity="0.49"/><path d="M188,63L212,39L197,63Z" fill="rgb(124, 146, 155)" fill-opacity="0.22"/><path d="M179,76L210,38L205,38Z" fill="rgb(49, 51, 51)" fill-opacity="0.61"/><path d="M252,99L238,81L269,114Z" fill="rgb(99, 105, 107)" fill-opacity="0.40"/><path d="M305,249L255,281L266,275Z" fill="rgb(250, 251, 253)" fill-opacity="0.28"/><path d="M280,172L284,177L280,189Z" fill="rgb(9, 6, 1)" fill-opacity="0.50"/><path d="M186,64L173,88L174,103Z" fill="rgb(29, 28, 25)" fill-opacity="0.65"/><path d="M278,238L275,232L291,250Z" fill="rgb(84, 86, 88)" fill-opacity="0.51"/><path d="M273,189L285,199L293,210Z" fill="rgb(116, 120, 120)" fill-opacity="0.46"/><path d="M300,101L299,125L300,124Z" fill="rgb(227, 228, 230)" fill-opacity="0.43"/><path d="M294,198L270,220L298,198Z" fill="rgb(106, 111, 112)" fill-opacity="0.41"/><path d="M250,144L252,143L250,113Z" fill="rgb(179, 182, 184)" fill-opacity="0.57"/><path d="M306,229L293,254L321,230Z" fill="rgb(49, 53, 54)" fill-opacity="0.59"/><path d="M219,20L216,0L216,30Z" fill="rgb(126, 129, 132)" fill-opacity="0.51"/><path d="M270,116L257,106L281,131Z" fill="rgb(203, 204, 204)" fill-opacity="0.53"/><path d="M266,111L281,126L287,134Z" fill="rgb(78, 81, 82)" fill-opacity="0.61"/><path d="M226,85L215,96L223,86Z" fill="rgb(175, 189, 194)" fill-opacity="0.42"/><path d="M198,78L213,83L213,76Z" fill="rgb(187, 193, 198)" fill-opacity="0.39"/><path d="M294,257L299,250L270,269Z" fill="rgb(142, 152, 157)" fill-opacity="0.47"/><path d="M228,202L242,177L242,203Z" fill="rgb(35, 34, 30)" fill-opacity="1.00"/><path d="M300,98L327,95L292,89Z" fill="rgb(72, 75, 74)" fill-opacity="1.00"/><path d="M301,81L301,78L307,80Z" fill="rgb(195, 196, 198)" fill-opacity="0.61"/><path d="M212,61L234,61L227,63Z" fill="rgb(99, 121, 136)" fill-opacity="0.77"/><path d="M203,17L215,30L217,10Z" fill="rgb(63, 65, 64)" fill-opacity="0.30"/><path d="M245,295L256,282L204,249Z" fill="rgb(24, 22, 17)" fill-opacity="0.70"/><path d="M295,198L302,202L278,178Z" fill="rgb(39, 35, 36)" fill-opacity="0.39"/><path d="M211,249L232,262L244,232Z" fill="rgb(28, 26, 21)" fill-opacity="0.75"/><path d="M303,169L290,159L276,143Z" fill="rgb(160, 161, 161)" fill-opacity="0.49"/><path d="M263,193L256,175L263,189Z" fill="rgb(137, 143, 141)" fill-opacity="0.55"/><path d="M209,65L215,65L225,63Z" fill="rgb(253, 252, 253)" fill-opacity="0.38"/><path d="M306,99L320,102L303,102Z" fill="rgb(158, 159, 161)" fill-opacity="0.63"/><path d="M267,93L306,130L256,79Z" fill="rgb(232, 232, 231)" fill-opacity="0.21"/><path d="M270,62L260,60L240,22Z" fill="rgb(219, 221, 222)" fill-opacity="0.53"/><path d="M293,32L294,-26L278,-13Z" fill="rgb(158, 163, 166)" fill-opacity="0.65"/><path d="M260,268L239,262L257,279Z" fill="rgb(42, 42, 41)" fill-opacity="0.60"/><path d="M192,277L170,235L201,211Z" fill="rgb(29, 27, 23)" fill-opacity="0.88"/><path d="M291,67L269,64L294,64Z" fill="rgb(68, 70, 69)" fill-opacity="0.51"/><path d="M267,-8L261,19L277,2Z" fill="rgb(199, 202, 204)" fill-opacity="0.75"/><path d="M265,155L273,151L267,157Z" fill="rgb(11, 11, 23)" fill-opacity="0.19"/><path d="M195,122L199,136L195,213Z" fill="rgb(47, 50, 51)" fill-opacity="0.72"/><path d="M265,281L264,294L279,282Z" fill="rgb(39, 38, 36)" fill-opacity="0.86"/><path d="M375,200L341,224L347,142Z" fill="rgb(43, 42, 40)" fill-opacity="0.52"/><path d="M318,106L318,236L317,141Z" fill="rgb(199, 208, 212)" fill-opacity="0.45"/><path d="M25,162L109,330L99,82Z" fill="rgb(18, 17, 8)" fill-opacity="0.37"/><path d="M265,302L262,324L252,289Z" fill="rgb(33, 31, 27)" fill-opacity="1.00"/><path d="M245,112L260,108L263,104Z" fill="rgb(163, 168, 168)" fill-opacity="0.49"/><path d="M265,167L277,177L258,158Z" fill="rgb(76, 79, 81)" fill-opacity="0.45"/><path d="M284,297L299,302L280,299Z" fill="rgb(63, 63, 65)" fill-opacity="0.42"/><path d="M320,230L319,222L311,248Z" fill="rgb(20, 18, 12)" fill-opacity="0.65"/><path d="M299,166L264,133L265,131Z" fill="rgb(251, 252, 250)" fill-opacity="0.15"/><path d="M233,65L239,79L232,67Z" fill="rgb(87, 92, 93)" fill-opacity="0.75"/><path d="M321,91L315,93L295,88Z" fill="rgb(16, 12, 6)" fill-opacity="0.57"/><path d="M182,46L161,6L168,-16Z" fill="rgb(79, 84, 84)" fill-opacity="0.66"/><path d="M297,73L293,73L297,68Z" fill="rgb(221, 219, 217)" fill-opacity="0.47"/><path d="M292,66L275,80L297,87Z" fill="rgb(79, 83, 81)" fill-opacity="0.50"/><path d="M299,243L263,207L267,209Z" fill="rgb(12, 10, 7)" fill-opacity="0.45"/><path d="M296,74L299,71L296,67Z" fill="rgb(171, 171, 170)" fill-opacity="0.59"/><path d="M241,103L239,106L251,114Z" fill="rgb(102, 107, 109)" fill-opacity="0.98"/><path d="M235,78L221,76L204,61Z" fill="rgb(53, 55, 57)" fill-opacity="0.73"/><path d="M240,237L241,195L240,171Z" fill="rgb(69, 72, 72)" fill-opacity="0.67"/><path d="M277,94L264,79L278,91Z" fill="rgb(99, 105, 107)" fill-opacity="0.39"/><path d="M239,86L272,122L264,111Z" fill="rgb(202, 205, 204)" fill-opacity="0.37"/><path d="M271,111L240,83L248,80Z" fill="rgb(138, 144, 146)" fill-opacity="0.49"/><path d="M321,72L319,78L305,78Z" fill="rgb(46, 44, 41)" fill-opacity="0.62"/><path d="M262,144L276,160L293,175Z" fill="rgb(76, 77, 78)" fill-opacity="0.70"/><path d="M244,96L238,105L254,97Z" fill="rgb(87, 91, 92)" fill-opacity="0.52"/><path d="M260,238L272,247L278,256Z" fill="rgb(81, 81, 81)" fill-opacity="0.50"/><path d="M272,137L284,139L249,139Z" fill="rgb(255, 255, 255)" fill-opacity="0.36"/><path d="M281,178L308,205L289,188Z" fill="rgb(115, 117, 117)" fill-opacity="0.52"/><path d="M300,175L285,197L298,176Z" fill="rgb(127, 127, 129)" fill-opacity="0.45"/><path d="M301,153L294,144L290,142Z" fill="rgb(254, 252, 249)" fill-opacity="0.29"/><path d="M254,229L253,224L284,259Z" fill="rgb(28, 26, 23)" fill-opacity="0.69"/><path d="M306,86L299,88L314,74Z" fill="rgb(46, 44, 41)" fill-opacity="0.58"/><path d="M265,13L295,15L271,41Z" fill="rgb(180, 184, 187)" fill-opacity="0.47"/><path d="M202,83L198,64L189,96Z" fill="rgb(44, 47, 48)" fill-opacity="0.55"/><path d="M198,54L198,41L179,65Z" fill="rgb(54, 57, 58)" fill-opacity="0.53"/><path d="M237,94L223,95L237,81Z" fill="rgb(71, 73, 74)" fill-opacity="0.87"/><path d="M243,161L246,137L232,140Z" fill="rgb(79, 81, 80)" fill-opacity="0.34"/><path d="M249,80L252,80L238,93Z" fill="rgb(96, 101, 103)" fill-opacity="0.48"/><path d="M263,165L258,157L246,146Z" fill="rgb(82, 86, 87)" fill-opacity="0.66"/><path d="M317,223L317,92L318,226Z" fill="rgb(186, 195, 197)" fill-opacity="0.34"/><path d="M321,88L319,65L315,97Z" fill="rgb(27, 25, 20)" fill-opacity="0.29"/><path d="M258,87L289,115L254,80Z" fill="rgb(130, 135, 136)" fill-opacity="0.55"/><path d="M287,191L287,198L289,189Z" fill="rgb(190, 191, 193)" fill-opacity="0.26"/><path d="M174,62L160,103L149,17Z" fill="rgb(64, 74, 78)" fill-opacity="0.28"/><path d="M307,84L310,81L311,85Z" fill="rgb(132, 133, 132)" fill-opacity="0.55"/><path d="M176,63L184,57L164,42Z" fill="rgb(84, 97, 100)" fill-opacity="0.62"/><path d="M282,157L256,133L278,155Z" fill="rgb(45, 51, 51)" fill-opacity="0.27"/><path d="M85,225L134,264L104,61Z" fill="rgb(26, 23, 20)" fill-opacity="0.36"/><path d="M257,165L245,151L266,172Z" fill="rgb(65, 65, 66)" fill-opacity="0.58"/><path d="M261,194L242,174L249,170Z" fill="rgb(149, 154, 155)" fill-opacity="0.43"/><path d="M266,257L251,240L241,257Z" fill="rgb(36, 35, 32)" fill-opacity="0.82"/><path d="M9,41L65,112L95,-61Z" fill="rgb(35, 33, 34)" fill-opacity="0.36"/><path d="M226,84L215,95L228,84Z" fill="rgb(222, 240, 248)" fill-opacity="0.26"/><path d="M222,42L241,25L228,14Z" fill="rgb(102, 109, 111)" fill-opacity="0.53"/><path d="M315,134L283,136L302,150Z" fill="rgb(74, 75, 73)" fill-opacity="0.43"/><path d="M286,210L284,215L286,215Z" fill="rgb(137, 138, 146)" fill-opacity="0.46"/><path d="M246,36L258,84L240,34Z" fill="rgb(177, 182, 190)" fill-opacity="0.22"/><path d="M318,178L280,139L286,143Z" fill="rgb(82, 83, 81)" fill-opacity="0.79"/><path d="M229,116L229,91L243,125Z" fill="rgb(69, 71, 71)" fill-opacity="0.56"/><path d="M195,110L194,188L194,109Z" fill="rgb(212, 222, 228)" fill-opacity="0.28"/><path d="M294,99L282,84L297,99Z" fill="rgb(94, 97, 97)" fill-opacity="0.50"/><path d="M289,235L260,205L257,205Z" fill="rgb(98, 101, 104)" fill-opacity="0.36"/><path d="M300,166L310,214L311,168Z" fill="rgb(88, 90, 88)" fill-opacity="0.60"/><path d="M215,78L217,79L215,71Z" fill="rgb(254, 255, 255)" fill-opacity="0.38"/><path d="M212,90L218,93L177,107Z" fill="rgb(56, 62, 64)" fill-opacity="0.94"/><path d="M288,129L274,117L284,129Z" fill="rgb(169, 168, 167)" fill-opacity="0.48"/><path d="M298,258L233,297L310,247Z" fill="rgb(24, 22, 17)" fill-opacity="0.69"/><path d="M289,204L277,190L285,197Z" fill="rgb(25, 23, 22)" fill-opacity="0.45"/><path d="M229,45L234,56L237,25Z" fill="rgb(71, 75, 77)" fill-opacity="0.48"/><path d="M261,151L291,179L223,109Z" fill="rgb(63, 65, 68)" fill-opacity="0.26"/><path d="M255,87L254,83L264,93Z" fill="rgb(197, 200, 199)" fill-opacity="0.42"/><path d="M167,82L176,64L150,150Z" fill="rgb(31, 30, 27)" fill-opacity="0.47"/><path d="M299,78L290,67L304,89Z" fill="rgb(68, 69, 68)" fill-opacity="1.00"/><path d="M271,115L258,100L273,114Z" fill="rgb(249, 249, 247)" fill-opacity="0.27"/><path d="M262,95L295,128L297,133Z" fill="rgb(44, 43, 42)" fill-opacity="0.25"/><path d="M221,64L237,67L194,70Z" fill="rgb(52, 54, 55)" fill-opacity="0.72"/><path d="M296,151L294,154L298,158Z" fill="rgb(60, 57, 56)" fill-opacity="0.53"/><path d="M341,215L365,324L324,232Z" fill="rgb(27, 25, 24)" fill-opacity="0.26"/><path d="M254,171L269,183L237,151Z" fill="rgb(120, 123, 123)" fill-opacity="0.38"/><path d="M299,76L309,76L302,72Z" fill="rgb(250, 250, 247)" fill-opacity="0.60"/><path d="M241,63L257,63L270,78Z" fill="rgb(138, 145, 149)" fill-opacity="0.51"/><path d="M242,173L242,251L241,213Z" fill="rgb(16, 13, 9)" fill-opacity="0.85"/><path d="M275,229L261,217L298,255Z" fill="rgb(24, 25, 22)" fill-opacity="0.44"/><path d="M250,143L247,143L237,130Z" fill="rgb(77, 83, 83)" fill-opacity="0.60"/><path d="M194,13L176,-98L207,12Z" fill="rgb(107, 110, 113)" fill-opacity="0.69"/><path d="M203,246L236,269L206,245Z" fill="rgb(115, 123, 127)" fill-opacity="0.46"/><path d="M244,87L244,90L256,102Z" fill="rgb(72, 79, 80)" fill-opacity="0.45"/><path d="M299,100L299,104L320,106Z" fill="rgb(16, 12, 7)" fill-opacity="0.43"/><path d="M262,204L253,208L255,203Z" fill="rgb(13, 9, 1)" fill-opacity="0.58"/><path d="M264,206L263,198L264,188Z" fill="rgb(10, 6, 0)" fill-opacity="0.82"/><path d="M297,151L295,149L316,157Z" fill="rgb(74, 75, 74)" fill-opacity="0.71"/><path d="M279,230L295,245L257,205Z" fill="rgb(26, 25, 23)" fill-opacity="0.56"/><path d="M194,166L171,131L194,109Z" fill="rgb(36, 38, 38)" fill-opacity="0.69"/><path d="M158,134L110,78L153,81Z" fill="rgb(40, 40, 39)" fill-opacity="0.50"/><path d="M326,116L373,-15L351,-3Z" fill="rgb(62, 63, 63)" fill-opacity="0.41"/><path d="M273,134L301,161L298,161Z" fill="rgb(219, 215, 214)" fill-opacity="0.19"/><path d="M272,207L272,200L274,209Z" fill="rgb(191, 200, 206)" fill-opacity="0.19"/><path d="M218,96L211,93L246,128Z" fill="rgb(33, 34, 33)" fill-opacity="0.32"/><path d="M295,67L302,64L309,75Z" fill="rgb(60, 59, 58)" fill-opacity="0.53"/><path d="M265,272L258,280L288,260Z" fill="rgb(187, 192, 195)" fill-opacity="0.45"/><path d="M280,82L282,68L284,82Z" fill="rgb(75, 80, 79)" fill-opacity="0.72"/><path d="M263,257L259,255L248,242Z" fill="rgb(89, 88, 89)" fill-opacity="0.44"/><path d="M236,74L247,71L249,74Z" fill="rgb(249, 249, 245)" fill-opacity="0.50"/><path d="M317,141L318,126L317,108Z" fill="rgb(179, 187, 191)" fill-opacity="0.50"/><path d="M290,254L275,241L246,209Z" fill="rgb(73, 76, 75)" fill-opacity="0.62"/><path d="M300,105L314,107L314,191Z" fill="rgb(67, 69, 68)" fill-opacity="0.66"/><path d="M193,47L193,45L173,67Z" fill="rgb(115, 129, 134)" fill-opacity="0.56"/><path d="M298,132L301,129L258,131Z" fill="rgb(34, 32, 29)" fill-opacity="0.48"/><path d="M277,126L259,133L275,126Z" fill="rgb(112, 114, 114)" fill-opacity="0.85"/><path d="M223,10L224,34L209,51Z" fill="rgb(67, 69, 70)" fill-opacity="0.75"/><path d="M281,132L270,123L268,119Z" fill="rgb(78, 79, 81)" fill-opacity="0.58"/><path d="M191,64L197,61L183,64Z" fill="rgb(93, 104, 112)" fill-opacity="0.48"/><path d="M347,299L293,296L311,322Z" fill="rgb(26, 23, 18)" fill-opacity="0.67"/><path d="M303,224L271,192L306,231Z" fill="rgb(142, 148, 150)" fill-opacity="0.19"/><path d="M270,130L264,123L265,127Z" fill="rgb(223, 225, 223)" fill-opacity="0.37"/><path d="M194,91L221,86L179,101Z" fill="rgb(25, 23, 20)" fill-opacity="0.56"/><path d="M308,240L316,232L307,248Z" fill="rgb(86, 98, 103)" fill-opacity="0.49"/><path d="M200,53L181,81L187,68Z" fill="rgb(81, 92, 94)" fill-opacity="0.61"/><path d="M244,29L235,20L238,63Z" fill="rgb(104, 111, 115)" fill-opacity="0.46"/><path d="M11,-3L-49,-23L9,138Z" fill="rgb(21, 17, 10)" fill-opacity="0.32"/><path d="M243,96L253,110L255,108Z" fill="rgb(157, 162, 162)" fill-opacity="0.43"/><path d="M191,63L184,82L191,75Z" fill="rgb(35, 36, 36)" fill-opacity="0.32"/><path d="M133,116L17,118L62,24Z" fill="rgb(27, 27, 29)" fill-opacity="0.22"/><path d="M266,75L270,72L267,64Z" fill="rgb(240, 239, 237)" fill-opacity="0.51"/><path d="M246,285L283,290L242,292Z" fill="rgb(33, 30, 27)" fill-opacity="0.68"/><path d="M275,174L272,169L272,174Z" fill="rgb(181, 185, 187)" fill-opacity="0.45"/><path d="M264,93L284,114L283,115Z" fill="rgb(218, 218, 218)" fill-opacity="0.42"/><path d="M226,258L213,250L188,222Z" fill="rgb(21, 19, 14)" fill-opacity="0.66"/><path d="M296,207L282,190L278,189Z" fill="rgb(115, 116, 117)" fill-opacity="0.60"/><path d="M88,165L178,156L173,272Z" fill="rgb(25, 22, 17)" fill-opacity="0.95"/><path d="M279,186L270,173L280,172Z" fill="rgb(126, 130, 129)" fill-opacity="0.62"/><path d="M283,98L285,101L313,128Z" fill="rgb(68, 71, 70)" fill-opacity="0.68"/><path d="M263,144L256,132L270,149Z" fill="rgb(181, 185, 183)" fill-opacity="0.44"/><path d="M243,112L241,112L240,139Z" fill="rgb(89, 93, 94)" fill-opacity="1.00"/><path d="M178,46L201,46L213,31Z" fill="rgb(65, 69, 70)" fill-opacity="0.86"/><path d="M281,185L279,187L262,189Z" fill="rgb(10, 6, 0)" fill-opacity="0.53"/><path d="M282,115L270,102L284,119Z" fill="rgb(102, 105, 104)" fill-opacity="0.46"/><path d="M346,43L328,17L353,-32Z" fill="rgb(73, 76, 70)" fill-opacity="0.28"/><path d="M276,298L274,292L276,290Z" fill="rgb(131, 140, 142)" fill-opacity="0.33"/><path d="M243,133L249,142L248,137Z" fill="rgb(144, 151, 151)" fill-opacity="0.50"/><path d="M355,173L356,192L332,204Z" fill="rgb(50, 50, 51)" fill-opacity="0.45"/><path d="M256,148L263,146L258,151Z" fill="rgb(171, 174, 175)" fill-opacity="0.53"/><path d="M295,222L273,198L284,208Z" fill="rgb(35, 35, 33)" fill-opacity="0.48"/><path d="M305,73L306,78L306,73Z" fill="rgb(222, 222, 222)" fill-opacity="0.87"/><path d="M181,96L178,94L185,92Z" fill="rgb(23, 19, 16)" fill-opacity="0.53"/><path d="M232,105L230,101L261,132Z" fill="rgb(127, 132, 133)" fill-opacity="0.51"/><path d="M303,229L297,224L293,217Z" fill="rgb(43, 42, 42)" fill-opacity="0.56"/><path d="M321,104L318,101L296,100Z" fill="rgb(162, 166, 167)" fill-opacity="0.41"/><path d="M237,132L215,108L241,133Z" fill="rgb(37, 35, 34)" fill-opacity="0.51"/><path d="M260,110L263,113L263,122Z" fill="rgb(35, 43, 40)" fill-opacity="0.42"/><path d="M297,179L271,153L294,178Z" fill="rgb(48, 44, 45)" fill-opacity="0.53"/><path d="M249,80L264,80L282,84Z" fill="rgb(135, 140, 143)" fill-opacity="0.46"/><path d="M362,259L422,215L347,329Z" fill="rgb(21, 18, 10)" fill-opacity="0.67"/><path d="M267,255L265,256L255,243Z" fill="rgb(112, 114, 115)" fill-opacity="0.35"/><path d="M152,79L70,-1L77,41Z" fill="rgb(44, 44, 44)" fill-opacity="0.60"/><path d="M291,114L296,116L314,138Z" fill="rgb(70, 71, 69)" fill-opacity="0.41"/><path d="M297,209L279,193L313,229Z" fill="rgb(48, 48, 48)" fill-opacity="0.50"/><path d="M296,133L271,136L288,139Z" fill="rgb(95, 98, 95)" fill-opacity="0.60"/><path d="M251,101L251,103L231,81Z" fill="rgb(72, 75, 76)" fill-opacity="0.72"/><path d="M230,83L237,79L251,79Z" fill="rgb(203, 206, 208)" fill-opacity="0.64"/><path d="M195,172L194,217L195,214Z" fill="rgb(102, 116, 121)" fill-opacity="0.84"/><path d="M283,194L281,194L289,184Z" fill="rgb(123, 124, 125)" fill-opacity="0.52"/><path d="M311,271L417,146L332,320Z" fill="rgb(30, 28, 24)" fill-opacity="0.29"/><path d="M280,261L251,232L266,244Z" fill="rgb(31, 29, 26)" fill-opacity="0.56"/><path d="M273,206L291,224L274,211Z" fill="rgb(105, 108, 108)" fill-opacity="0.41"/><path d="M308,102L321,107L319,111Z" fill="rgb(30, 28, 24)" fill-opacity="0.57"/><path d="M250,91L257,95L243,80Z" fill="rgb(114, 121, 123)" fill-opacity="0.55"/><path d="M241,259L240,250L259,273Z" fill="rgb(44, 43, 41)" fill-opacity="0.68"/><path d="M243,273L260,280L254,280Z" fill="rgb(143, 149, 153)" fill-opacity="0.53"/><path d="M274,74L277,67L281,71Z" fill="rgb(241, 241, 239)" fill-opacity="0.66"/><path d="M255,43L269,32L259,57Z" fill="rgb(222, 223, 223)" fill-opacity="0.51"/><path d="M275,129L263,117L273,129Z" fill="rgb(199, 200, 199)" fill-opacity="0.88"/><path d="M164,244L70,249L179,375Z" fill="rgb(19, 16, 5)" fill-opacity="0.52"/><path d="M291,246L276,228L291,243Z" fill="rgb(90, 93, 92)" fill-opacity="0.56"/><path d="M319,143L326,107L371,206Z" fill="rgb(45, 44, 42)" fill-opacity="0.47"/><path d="M270,71L273,69L270,66Z" fill="rgb(105, 111, 111)" fill-opacity="0.60"/><path d="M254,179L282,154L271,165Z" fill="rgb(64, 60, 65)" fill-opacity="0.24"/><path d="M284,92L289,97L287,98Z" fill="rgb(24, 27, 30)" fill-opacity="0.27"/><path d="M217,161L237,142L239,135Z" fill="rgb(46, 44, 44)" fill-opacity="0.42"/><path d="M445,-28L350,18L400,25Z" fill="rgb(51, 50, 50)" fill-opacity="0.42"/><path d="M269,76L281,81L253,75Z" fill="rgb(121, 126, 127)" fill-opacity="0.49"/><path d="M268,177L268,180L239,146Z" fill="rgb(149, 150, 149)" fill-opacity="0.25"/><path d="M249,76L271,64L249,72Z" fill="rgb(134, 138, 141)" fill-opacity="0.65"/><path d="M271,176L242,181L246,176Z" fill="rgb(159, 164, 163)" fill-opacity="0.63"/><path d="M273,75L273,79L266,73Z" fill="rgb(175, 177, 178)" fill-opacity="1.00"/><path d="M294,165L302,161L284,175Z" fill="rgb(20, 12, 13)" fill-opacity="0.23"/><path d="M226,84L200,90L212,83Z" fill="rgb(61, 66, 68)" fill-opacity="0.80"/><path d="M271,91L267,89L259,79Z" fill="rgb(132, 138, 138)" fill-opacity="0.65"/><path d="M201,57L216,32L216,27Z" fill="rgb(105, 113, 116)" fill-opacity="0.50"/><path d="M299,156L299,153L288,172Z" fill="rgb(63, 59, 60)" fill-opacity="0.40"/><path d="M269,67L265,67L265,73Z" fill="rgb(249, 248, 245)" fill-opacity="0.71"/><path d="M244,124L247,123L233,111Z" fill="rgb(111, 117, 117)" fill-opacity="0.48"/><path d="M246,148L263,168L273,175Z" fill="rgb(146, 148, 150)" fill-opacity="0.47"/><path d="M409,89L400,166L540,-43Z" fill="rgb(23, 22, 18)" fill-opacity="0.48"/><path d="M225,143L223,178L255,170Z" fill="rgb(43, 44, 44)" fill-opacity="0.30"/><path d="M247,294L247,291L250,297Z" fill="rgb(195, 206, 213)" fill-opacity="0.26"/><path d="M249,163L229,140L262,173Z" fill="rgb(45, 44, 43)" fill-opacity="0.41"/><path d="M267,173L216,125L238,143Z" fill="rgb(64, 65, 65)" fill-opacity="0.64"/><path d="M354,59L366,17L455,84Z" fill="rgb(31, 26, 22)" fill-opacity="0.14"/><path d="M199,170L202,126L213,217Z" fill="rgb(48, 51, 52)" fill-opacity="0.62"/><path d="M281,287L284,282L270,292Z" fill="rgb(93, 96, 103)" fill-opacity="0.36"/></svg>