<svg xmlns="http://www.w3.org/2000/svg" viewBox="0 0 512 341.3333333333333" clip-path="url(#clip)" width="958.9999999999999" height="639.3333333333333"><defs><clipPath id="clip" clipPathUnits="objectBoundingBox"><rect x="0" y="0" width="512" height="341.3333333333333"/></clipPath></defs><rect x="0" y="0" width="512" height="341.3333333333333" fill="rgb(36, 33, 27)"/><path d="M382,-96L165,0L274,225Z" fill="rgb(222, 234, 243)" fill-opacity="0.44"/><path d="M268,132L297,-12L220,-36Z" fill="rgb(205, 208, 209)" fill-opacity="0.76"/><path d="M266,179L242,170L243,239Z" fill="rgb(147, 156, 158)" fill-opacity="0.62"/><path d="M359,166L208,77L272,302Z" fill="rgb(88, 91, 94)" fill-opacity="0.51"/><path d="M309,-71L241,133L273,166Z" fill="rgb(157, 161, 162)" fill-opacity="0.67"/><path d="M251,53L-136,-374L147,94Z" fill="rgb(66, 71, 74)" fill-opacity="0.76"/><path d="M191,23L194,214L249,98Z" fill="rgb(59, 63, 65)" fill-opacity="0.65"/><path d="M301,87L292,288L448,-223Z" fill="rgb(66, 68, 69)" fill-opacity="0.74"/><path d="M246,55L229,76L310,103Z" fill="rgb(158, 162, 163)" fill-opacity="0.88"/><path d="M266,56L207,-14L267,1Z" fill="rgb(225, 226, 226)" fill-opacity="0.77"/><path d="M203,71L213,70L211,87Z" fill="rgb(237, 241, 242)" fill-opacity="0.64"/><path d="M256,283L266,276L224,260Z" fill="rgb(104, 112, 116)" fill-opacity="0.55"/><path d="M101,-64L249,60L243,26Z" fill="rgb(94, 98, 100)" fill-opacity="0.73"/><path d="M313,91L281,89L279,59Z" fill="rgb(12, 9, 4)" fill-opacity="0.32"/><path d="M234,80L222,87L280,69Z" fill="rgb(174, 178, 180)" fill-opacity="0.77"/><path d="M314,166L268,118L305,228Z" fill="rgb(120, 121, 119)" fill-opacity="0.47"/><path d="M291,366L717,327L504,-16Z" fill="rgb(14, 10, 0)" fill-opacity="0.84"/><path d="M253,193L290,176L255,283Z" fill="rgb(42, 42, 39)" fill-opacity="0.51"/><path d="M267,275L314,242L251,281Z" fill="rgb(165, 173, 177)" fill-opacity="0.70"/><path d="M249,14L273,63L247,64Z" fill="rgb(230, 232, 232)" fill-opacity="0.57"/><path d="M274,77L232,79L294,90Z" fill="rgb(169, 173, 173)" fill-opacity="0.98"/><path d="M218,253L193,241L247,275Z" fill="rgb(104, 112, 115)" fill-opacity="0.72"/><path d="M246,128L210,82L216,256Z" fill="rgb(18, 18, 17)" fill-opacity="0.35"/><path d="M319,94L322,68L293,91Z" fill="rgb(30, 26, 20)" fill-opacity="0.50"/><path d="M195,47L161,42L171,68Z" fill="rgb(107, 123, 128)" fill-opacity="0.50"/><path d="M110,723L-107,-36L206,233Z" fill="rgb(16, 12, 3)" fill-opacity="0.82"/><path d="M297,144L251,127L249,138Z" fill="rgb(165, 168, 168)" fill-opacity="1.00"/><path d="M242,202L281,173L242,172Z" fill="rgb(239, 248, 243)" fill-opacity="0.24"/><path d="M179,108L203,98L221,98Z" fill="rgb(153, 167, 175)" fill-opacity="0.53"/><path d="M339,228L302,304L237,294Z" fill="rgb(43, 42, 41)" fill-opacity="0.94"/><path d="M208,246L260,275L254,277Z" fill="rgb(28, 27, 24)" fill-opacity="0.67"/><path d="M335,78L264,63L309,66Z" fill="rgb(65, 66, 65)" fill-opacity="0.80"/><path d="M306,82L312,72L299,74Z" fill="rgb(255, 250, 246)" fill-opacity="0.35"/><path d="M-173,-201L197,84L186,143Z" fill="rgb(44, 45, 48)" fill-opacity="0.60"/><path d="M260,177L212,151L250,152Z" fill="rgb(49, 48, 47)" fill-opacity="0.50"/><path d="M267,75L264,66L283,72Z" fill="rgb(251, 249, 245)" fill-opacity="0.48"/><path d="M308,144L275,114L315,174Z" fill="rgb(75, 76, 74)" fill-opacity="0.77"/><path d="M326,28L362,5L320,-35Z" fill="rgb(66, 70, 69)" fill-opacity="0.48"/><path d="M215,84L209,67L200,84Z" fill="rgb(246, 252, 255)" fill-opacity="0.29"/><path d="M319,-12L259,20L296,52Z" fill="rgb(164, 172, 181)" fill-opacity="0.27"/><path d="M227,63L241,63L198,101Z" fill="rgb(54, 58, 61)" fill-opacity="0.59"/><path d="M242,233L243,186L255,233Z" fill="rgb(88, 94, 94)" fill-opacity="0.89"/><path d="M319,101L317,105L299,98Z" fill="rgb(181, 184, 185)" fill-opacity="0.52"/><path d="M348,16L339,75L258,51Z" fill="rgb(120, 129, 133)" fill-opacity="0.27"/><path d="M203,88L201,78L203,74Z" fill="rgb(164, 168, 171)" fill-opacity="0.77"/><path d="M234,65L242,74L252,75Z" fill="rgb(255, 254, 250)" fill-opacity="0.44"/><path d="M249,112L263,114L258,108Z" fill="rgb(47, 53, 51)" fill-opacity="0.47"/><path d="M289,63L258,60L224,63Z" fill="rgb(232, 239, 236)" fill-opacity="0.88"/><path d="M195,213L194,126L195,111Z" fill="rgb(157, 171, 177)" fill-opacity="0.82"/><path d="M265,189L289,212L310,183Z" fill="rgb(91, 92, 92)" fill-opacity="0.61"/><path d="M286,133L312,129L259,130Z" fill="rgb(39, 37, 34)" fill-opacity="0.65"/><path d="M267,131L260,103L281,97Z" fill="rgb(195, 196, 196)" fill-opacity="0.49"/><path d="M239,79L263,78L279,81Z" fill="rgb(244, 243, 243)" fill-opacity="0.63"/><path d="M353,221L363,146L244,274Z" fill="rgb(52, 55, 56)" fill-opacity="0.52"/><path d="M205,191L197,214L197,162Z" fill="rgb(17, 15, 8)" fill-opacity="0.79"/><path d="M252,114L249,130L293,127Z" fill="rgb(189, 190, 188)" fill-opacity="0.31"/><path d="M307,187L453,-18L419,-166Z" fill="rgb(44, 45, 47)" fill-opacity="0.66"/><path d="M254,196L261,204L263,193Z" fill="rgb(113, 120, 122)" fill-opacity="0.64"/><path d="M225,-17L159,93L146,-70Z" fill="rgb(115, 125, 126)" fill-opacity="0.18"/><path d="M293,154L302,231L277,171Z" fill="rgb(80, 80, 79)" fill-opacity="0.58"/><path d="M446,149L339,327L336,69Z" fill="rgb(30, 32, 33)" fill-opacity="0.39"/><path d="M300,138L300,101L322,106Z" fill="rgb(42, 40, 36)" fill-opacity="0.44"/><path d="M284,259L250,285L307,248Z" fill="rgb(202, 213, 219)" fill-opacity="0.36"/><path d="M270,166L280,181L240,136Z" fill="rgb(144, 148, 147)" fill-opacity="0.63"/><path d="M216,72L215,72L216,88Z" fill="rgb(242, 249, 251)" fill-opacity="0.55"/><path d="M247,61L191,68L232,61Z" fill="rgb(173, 187, 190)" fill-opacity="0.54"/><path d="M254,76L236,63L248,63Z" fill="rgb(97, 105, 110)" fill-opacity="0.57"/><path d="M191,420L160,279L325,327Z" fill="rgb(23, 19, 13)" fill-opacity="0.84"/><path d="M190,330L209,212L-132,-115Z" fill="rgb(26, 23, 19)" fill-opacity="0.73"/><path d="M244,80L239,147L264,80Z" fill="rgb(129, 137, 138)" fill-opacity="0.35"/><path d="M84,246L194,191L168,97Z" fill="rgb(24, 21, 17)" fill-opacity="0.64"/><path d="M318,137L317,106L317,234Z" fill="rgb(220, 229, 232)" fill-opacity="0.57"/><path d="M301,63L310,80L326,97Z" fill="rgb(59, 58, 56)" fill-opacity="0.96"/><path d="M162,39L247,61L213,16Z" fill="rgb(70, 74, 75)" fill-opacity="0.75"/><path d="M205,77L217,79L208,70Z" fill="rgb(235, 237, 235)" fill-opacity="0.52"/><path d="M182,61L193,59L208,76Z" fill="rgb(73, 79, 82)" fill-opacity="0.90"/><path d="M212,243L212,70L206,198Z" fill="rgb(89, 106, 118)" fill-opacity="0.27"/><path d="M261,180L243,182L249,171Z" fill="rgb(166, 171, 171)" fill-opacity="0.66"/><path d="M267,-19L247,43L246,-2Z" fill="rgb(233, 234, 232)" fill-opacity="0.73"/><path d="M268,258L241,256L261,275Z" fill="rgb(57, 59, 60)" fill-opacity="0.61"/><path d="M300,254L280,265L314,237Z" fill="rgb(153, 169, 175)" fill-opacity="0.33"/><path d="M231,64L217,93L217,64Z" fill="rgb(55, 58, 60)" fill-opacity="0.84"/><path d="M415,58L573,-75L371,231Z" fill="rgb(23, 22, 18)" fill-opacity="0.69"/><path d="M314,212L317,150L314,103Z" fill="rgb(19, 15, 10)" fill-opacity="0.81"/><path d="M302,97L296,107L272,82Z" fill="rgb(120, 122, 122)" fill-opacity="0.67"/><path d="M240,268L261,230L205,243Z" fill="rgb(26, 24, 21)" fill-opacity="0.69"/><path d="M314,164L297,221L314,220Z" fill="rgb(84, 87, 87)" fill-opacity="0.64"/><path d="M248,69L248,74L240,73Z" fill="rgb(255, 255, 252)" fill-opacity="0.46"/><path d="M353,193L321,153L320,247Z" fill="rgb(103, 107, 113)" fill-opacity="0.12"/><path d="M269,187L284,185L257,192Z" fill="rgb(16, 12, 5)" fill-opacity="0.58"/><path d="M278,75L280,68L275,68Z" fill="rgb(234, 234, 232)" fill-opacity="0.90"/><path d="M269,115L273,123L254,103Z" fill="rgb(216, 218, 217)" fill-opacity="0.44"/><path d="M196,213L194,144L194,218Z" fill="rgb(210, 235, 250)" fill-opacity="0.23"/><path d="M288,79L327,97L298,98Z" fill="rgb(56, 57, 55)" fill-opacity="0.66"/><path d="M202,109L234,83L236,137Z" fill="rgb(49, 50, 49)" fill-opacity="0.52"/><path d="M299,154L300,151L300,220Z" fill="rgb(193, 197, 198)" fill-opacity="0.41"/><path d="M201,60L245,61L213,39Z" fill="rgb(50, 52, 54)" fill-opacity="0.47"/><path d="M233,18L247,31L231,-30Z" fill="rgb(180, 181, 187)" fill-opacity="0.32"/><path d="M265,66L265,79L239,67Z" fill="rgb(105, 111, 115)" fill-opacity="0.32"/><path d="M195,104L198,100L220,97Z" fill="rgb(189, 198, 205)" fill-opacity="0.45"/><path d="M233,15L274,-39L194,-21Z" fill="rgb(206, 207, 208)" fill-opacity="0.88"/><path d="M317,225L313,234L317,150Z" fill="rgb(15, 10, 4)" fill-opacity="0.53"/><path d="M266,156L277,138L288,174Z" fill="rgb(120, 122, 121)" fill-opacity="0.76"/><path d="M234,71L229,71L235,78Z" fill="rgb(250, 250, 249)" fill-opacity="0.71"/><path d="M296,181L302,208L298,140Z" fill="rgb(229, 237, 232)" fill-opacity="0.10"/><path d="M309,67L267,60L296,60Z" fill="rgb(170, 176, 183)" fill-opacity="0.49"/><path d="M185,71L207,49L217,29Z" fill="rgb(104, 116, 120)" fill-opacity="0.50"/><path d="M287,128L287,131L246,88Z" fill="rgb(213, 213, 211)" fill-opacity="0.34"/><path d="M220,89L164,98L224,85Z" fill="rgb(32, 32, 30)" fill-opacity="0.84"/><path d="M165,237L190,195L212,306Z" fill="rgb(30, 28, 23)" fill-opacity="0.83"/><path d="M241,235L242,184L241,177Z" fill="rgb(13, 10, 7)" fill-opacity="0.89"/><path d="M243,57L249,61L247,38Z" fill="rgb(129, 137, 139)" fill-opacity="0.64"/><path d="M205,99L200,100L205,72Z" fill="rgb(51, 55, 56)" fill-opacity="0.80"/><path d="M281,169L283,180L279,193Z" fill="rgb(19, 15, 9)" fill-opacity="0.50"/><path d="M240,72L242,65L245,68Z" fill="rgb(88, 95, 96)" fill-opacity="0.77"/><path d="M284,122L258,94L292,128Z" fill="rgb(202, 202, 201)" fill-opacity="0.54"/><path d="M360,315L386,187L290,326Z" fill="rgb(24, 22, 17)" fill-opacity="0.62"/><path d="M267,59L299,63L302,3Z" fill="rgb(137, 142, 146)" fill-opacity="0.41"/><path d="M287,64L274,80L307,86Z" fill="rgb(77, 80, 80)" fill-opacity="0.50"/><path d="M224,157L230,179L256,168Z" fill="rgb(44, 43, 42)" fill-opacity="0.54"/><path d="M291,142L299,150L283,139Z" fill="rgb(252, 251, 248)" fill-opacity="0.55"/><path d="M209,69L205,78L214,77Z" fill="rgb(224, 226, 226)" fill-opacity="0.73"/><path d="M258,203L269,202L249,209Z" fill="rgb(9, 8, 0)" fill-opacity="0.40"/><path d="M196,46L183,57L177,46Z" fill="rgb(109, 120, 124)" fill-opacity="0.51"/><path d="M247,250L289,250L257,216Z" fill="rgb(40, 39, 36)" fill-opacity="0.58"/><path d="M321,225L317,235L314,224Z" fill="rgb(18, 15, 11)" fill-opacity="0.60"/><path d="M308,80L302,71L301,81Z" fill="rgb(233, 233, 233)" fill-opacity="0.43"/><path d="M226,11L221,46L219,12Z" fill="rgb(34, 36, 33)" fill-opacity="0.25"/><path d="M278,165L247,190L279,185Z" fill="rgb(140, 145, 143)" fill-opacity="0.48"/><path d="M309,68L326,61L334,-78Z" fill="rgb(106, 113, 115)" fill-opacity="0.55"/><path d="M176,67L150,68L148,-21Z" fill="rgb(63, 67, 71)" fill-opacity="0.51"/><path d="M281,80L273,80L265,75Z" fill="rgb(102, 106, 107)" fill-opacity="0.52"/><path d="M306,87L310,80L314,82Z" fill="rgb(123, 123, 124)" fill-opacity="0.51"/><path d="M293,136L271,116L277,125Z" fill="rgb(81, 83, 82)" fill-opacity="0.52"/><path d="M200,88L114,96L203,67Z" fill="rgb(43, 46, 46)" fill-opacity="0.63"/><path d="M202,83L203,75L202,73Z" fill="rgb(238, 240, 240)" fill-opacity="0.54"/><path d="M264,129L315,132L261,132Z" fill="rgb(18, 16, 12)" fill-opacity="0.43"/><path d="M209,258L245,294L260,283Z" fill="rgb(25, 23, 19)" fill-opacity="0.71"/><path d="M284,64L293,64L288,63Z" fill="rgb(239, 238, 238)" fill-opacity="0.80"/><path d="M368,209L344,69L318,143Z" fill="rgb(44, 44, 43)" fill-opacity="0.63"/><path d="M309,128L313,155L281,136Z" fill="rgb(70, 70, 68)" fill-opacity="0.60"/><path d="M189,-3L216,4L198,15Z" fill="rgb(111, 114, 117)" fill-opacity="0.64"/><path d="M281,-14L291,33L302,11Z" fill="rgb(154, 159, 162)" fill-opacity="0.56"/><path d="M279,292L262,291L246,293Z" fill="rgb(109, 110, 108)" fill-opacity="0.49"/><path d="M320,102L317,104L286,95Z" fill="rgb(165, 168, 169)" fill-opacity="0.48"/><path d="M233,267L204,243L205,248Z" fill="rgb(137, 150, 155)" fill-opacity="0.42"/><path d="M310,93L322,92L318,65Z" fill="rgb(35, 32, 29)" fill-opacity="0.52"/><path d="M188,110L195,99L176,106Z" fill="rgb(52, 58, 60)" fill-opacity="0.93"/><path d="M277,109L275,104L296,127Z" fill="rgb(173, 173, 173)" fill-opacity="0.54"/><path d="M207,230L213,233L210,220Z" fill="rgb(67, 75, 77)" fill-opacity="0.55"/><path d="M260,113L248,116L264,147Z" fill="rgb(167, 170, 171)" fill-opacity="0.69"/><path d="M333,24L484,-82L379,40Z" fill="rgb(59, 56, 57)" fill-opacity="0.38"/><path d="M229,65L237,75L234,65Z" fill="rgb(78, 83, 83)" fill-opacity="0.93"/><path d="M328,227L271,292L303,274Z" fill="rgb(52, 53, 54)" fill-opacity="0.76"/><path d="M227,112L239,126L243,116Z" fill="rgb(76, 79, 78)" fill-opacity="0.55"/><path d="M216,19L150,-19L179,44Z" fill="rgb(95, 100, 98)" fill-opacity="0.28"/><path d="M288,85L268,78L290,88Z" fill="rgb(236, 234, 232)" fill-opacity="0.52"/><path d="M303,232L282,208L279,209Z" fill="rgb(108, 112, 113)" fill-opacity="0.46"/><path d="M279,220L285,230L258,202Z" fill="rgb(28, 29, 25)" fill-opacity="0.51"/><path d="M307,113L281,89L274,79Z" fill="rgb(205, 206, 205)" fill-opacity="0.30"/><path d="M247,133L277,163L261,144Z" fill="rgb(171, 174, 174)" fill-opacity="0.68"/><path d="M239,267L259,281L245,275Z" fill="rgb(129, 137, 141)" fill-opacity="0.46"/><path d="M300,104L309,105L298,98Z" fill="rgb(29, 26, 21)" fill-opacity="0.54"/><path d="M183,60L180,91L205,88Z" fill="rgb(49, 52, 53)" fill-opacity="0.94"/><path d="M81,27L171,112L72,-61Z" fill="rgb(47, 47, 48)" fill-opacity="0.65"/><path d="M313,244L301,256L253,286Z" fill="rgb(18, 15, 8)" fill-opacity="0.61"/><path d="M277,149L303,177L273,147Z" fill="rgb(189, 190, 188)" fill-opacity="0.42"/><path d="M208,98L192,103L213,101Z" fill="rgb(166, 177, 183)" fill-opacity="0.43"/><path d="M276,139L250,139L280,136Z" fill="rgb(249, 249, 247)" fill-opacity="0.36"/><path d="M290,87L322,92L297,90Z" fill="rgb(11, 7, 1)" fill-opacity="0.57"/><path d="M279,154L298,175L275,153Z" fill="rgb(70, 69, 71)" fill-opacity="0.56"/><path d="M240,112L259,104L240,101Z" fill="rgb(125, 132, 132)" fill-opacity="0.39"/><path d="M212,130L196,142L212,141Z" fill="rgb(91, 110, 112)" fill-opacity="0.31"/><path d="M317,113L307,102L316,105Z" fill="rgb(30, 28, 25)" fill-opacity="0.80"/><path d="M284,201L274,194L295,216Z" fill="rgb(48, 49, 49)" fill-opacity="0.59"/><path d="M237,78L219,85L242,73Z" fill="rgb(93, 100, 103)" fill-opacity="0.69"/><path d="M213,82L199,86L213,76Z" fill="rgb(154, 162, 167)" fill-opacity="0.61"/><path d="M209,63L208,69L221,71Z" fill="rgb(45, 46, 47)" fill-opacity="0.55"/><path d="M249,83L247,84L264,100Z" fill="rgb(189, 192, 193)" fill-opacity="0.42"/><path d="M264,175L256,176L222,136Z" fill="rgb(70, 71, 71)" fill-opacity="0.72"/><path d="M273,127L267,119L283,132Z" fill="rgb(101, 103, 104)" fill-opacity="0.66"/><path d="M338,120L332,-25L367,-61Z" fill="rgb(67, 71, 70)" fill-opacity="0.31"/><path d="M211,90L199,89L164,110Z" fill="rgb(12, 11, 5)" fill-opacity="0.35"/><path d="M273,-10L249,-96L269,61Z" fill="rgb(197, 200, 202)" fill-opacity="0.58"/><path d="M250,94L241,81L227,86Z" fill="rgb(83, 87, 89)" fill-opacity="0.67"/><path d="M206,238L255,238L221,224Z" fill="rgb(18, 16, 12)" fill-opacity="0.52"/><path d="M311,297L338,315L276,294Z" fill="rgb(27, 24, 19)" fill-opacity="0.81"/><path d="M262,156L238,195L272,177Z" fill="rgb(192, 197, 198)" fill-opacity="0.10"/><path d="M231,39L235,14L221,40Z" fill="rgb(118, 130, 132)" fill-opacity="0.31"/><path d="M250,142L244,131L250,133Z" fill="rgb(107, 114, 115)" fill-opacity="0.59"/><path d="M252,132L256,135L296,132Z" fill="rgb(166, 169, 168)" fill-opacity="0.39"/><path d="M283,282L294,279L258,299Z" fill="rgb(95, 97, 101)" fill-opacity="0.31"/><path d="M213,116L224,151L213,175Z" fill="rgb(25, 23, 18)" fill-opacity="0.61"/><path d="M265,231L273,236L285,251Z" fill="rgb(84, 87, 86)" fill-opacity="0.52"/><path d="M314,167L302,179L300,151Z" fill="rgb(71, 72, 69)" fill-opacity="0.53"/><path d="M205,60L205,68L200,65Z" fill="rgb(42, 44, 45)" fill-opacity="0.70"/><path d="M258,194L305,240L267,199Z" fill="rgb(96, 98, 98)" fill-opacity="0.45"/><path d="M67,-54L85,103L13,56Z" fill="rgb(36, 35, 35)" fill-opacity="0.46"/><path d="M189,63L190,50L211,37Z" fill="rgb(55, 57, 58)" fill-opacity="0.65"/><path d="M298,125L299,129L290,117Z" fill="rgb(73, 73, 74)" fill-opacity="0.58"/><path d="M238,65L242,68L235,75Z" fill="rgb(255, 255, 255)" fill-opacity="0.43"/><path d="M-118,368L3,107L154,356Z" fill="rgb(15, 10, 0)" fill-opacity="0.81"/><path d="M225,190L238,165L242,182Z" fill="rgb(34, 33, 31)" fill-opacity="0.56"/><path d="M104,77L92,190L-33,224Z" fill="rgb(13, 11, 1)" fill-opacity="0.26"/><path d="M298,296L322,277L288,292Z" fill="rgb(53, 52, 51)" fill-opacity="0.56"/><path d="M276,153L256,167L288,140Z" fill="rgb(179, 184, 182)" fill-opacity="0.25"/><path d="M297,68L298,72L294,72Z" fill="rgb(217, 215, 214)" fill-opacity="0.50"/><path d="M278,73L263,69L273,75Z" fill="rgb(255, 254, 251)" fill-opacity="0.38"/><path d="M298,65L285,72L271,63Z" fill="rgb(70, 73, 74)" fill-opacity="0.59"/><path d="M6,-56L37,-33L-11,93Z" fill="rgb(26, 22, 19)" fill-opacity="0.66"/><path d="M288,217L246,173L286,213Z" fill="rgb(117, 119, 120)" fill-opacity="0.69"/><path d="M279,220L271,211L288,228Z" fill="rgb(121, 127, 129)" fill-opacity="0.48"/><path d="M298,103L285,86L279,83Z" fill="rgb(115, 118, 118)" fill-opacity="0.84"/><path d="M296,196L300,197L281,178Z" fill="rgb(123, 125, 125)" fill-opacity="0.52"/><path d="M252,291L260,296L260,291Z" fill="rgb(77, 77, 74)" fill-opacity="0.58"/><path d="M357,58L319,66L321,94Z" fill="rgb(65, 70, 71)" fill-opacity="0.44"/><path d="M293,159L273,138L342,201Z" fill="rgb(74, 76, 74)" fill-opacity="0.64"/><path d="M210,301L273,324L285,292Z" fill="rgb(33, 30, 27)" fill-opacity="0.68"/><path d="M245,78L247,74L279,78Z" fill="rgb(129, 134, 137)" fill-opacity="0.82"/><path d="M303,164L276,136L283,146Z" fill="rgb(188, 188, 184)" fill-opacity="0.34"/><path d="M205,62L236,78L222,77Z" fill="rgb(56, 59, 60)" fill-opacity="0.75"/><path d="M320,69L305,66L320,79Z" fill="rgb(43, 41, 38)" fill-opacity="0.75"/><path d="M206,119L233,83L213,100Z" fill="rgb(55, 58, 59)" fill-opacity="1.00"/><path d="M225,152L236,120L237,142Z" fill="rgb(56, 55, 55)" fill-opacity="0.58"/><path d="M268,63L271,71L273,68Z" fill="rgb(134, 138, 140)" fill-opacity="0.75"/><path d="M230,75L238,76L230,71Z" fill="rgb(224, 225, 224)" fill-opacity="0.91"/><path d="M247,96L277,121L239,86Z" fill="rgb(136, 141, 142)" fill-opacity="0.81"/><path d="M249,311L206,248L185,242Z" fill="rgb(35, 33, 30)" fill-opacity="1.00"/><path d="M160,100L169,127L186,64Z" fill="rgb(34, 34, 32)" fill-opacity="0.77"/><path d="M319,100L318,236L321,216Z" fill="rgb(32, 29, 25)" fill-opacity="0.55"/><path d="M241,175L253,172L243,182Z" fill="rgb(154, 160, 160)" fill-opacity="0.83"/><path d="M247,301L231,292L254,292Z" fill="rgb(90, 93, 94)" fill-opacity="0.19"/><path d="M294,162L282,147L267,135Z" fill="rgb(184, 187, 184)" fill-opacity="0.44"/><path d="M258,299L253,284L253,294Z" fill="rgb(31, 28, 24)" fill-opacity="0.88"/><path d="M384,46L354,173L524,-64Z" fill="rgb(30, 32, 33)" fill-opacity="0.43"/><path d="M303,218L299,211L268,181Z" fill="rgb(39, 38, 37)" fill-opacity="0.44"/><path d="M258,138L266,143L306,186Z" fill="rgb(158, 160, 159)" fill-opacity="0.60"/><path d="M263,122L263,133L261,108Z" fill="rgb(32, 37, 35)" fill-opacity="0.51"/><path d="M218,88L232,81L196,86Z" fill="rgb(59, 64, 67)" fill-opacity="0.75"/><path d="M227,84L220,89L211,101Z" fill="rgb(151, 164, 168)" fill-opacity="0.38"/><path d="M247,60L235,57L239,21Z" fill="rgb(93, 102, 104)" fill-opacity="0.54"/><path d="M310,70L310,75L313,75Z" fill="rgb(250, 249, 244)" fill-opacity="0.45"/><path d="M309,75L290,64L308,67Z" fill="rgb(62, 62, 60)" fill-opacity="0.80"/><path d="M280,183L283,191L280,166Z" fill="rgb(18, 13, 8)" fill-opacity="0.46"/><path d="M318,191L318,228L317,209Z" fill="rgb(145, 156, 160)" fill-opacity="0.55"/><path d="M221,106L213,171L231,117Z" fill="rgb(32, 29, 26)" fill-opacity="0.34"/><path d="M247,157L267,173L235,138Z" fill="rgb(85, 88, 88)" fill-opacity="1.00"/><path d="M287,101L267,78L298,109Z" fill="rgb(189, 190, 190)" fill-opacity="0.49"/><path d="M690,68L374,552L441,83Z" fill="rgb(13, 9, 0)" fill-opacity="0.51"/><path d="M278,190L291,201L279,186Z" fill="rgb(124, 125, 127)" fill-opacity="0.45"/><path d="M300,71L293,76L299,79Z" fill="rgb(64, 64, 62)" fill-opacity="0.63"/><path d="M296,113L260,77L276,96Z" fill="rgb(223, 222, 220)" fill-opacity="0.31"/><path d="M214,100L126,141L177,110Z" fill="rgb(32, 32, 29)" fill-opacity="0.73"/><path d="M300,77L300,73L308,75Z" fill="rgb(243, 243, 241)" fill-opacity="0.67"/><path d="M296,68L296,73L299,70Z" fill="rgb(174, 175, 174)" fill-opacity="0.83"/><path d="M284,142L280,140L322,180Z" fill="rgb(77, 78, 76)" fill-opacity="0.78"/></svg>