<svg xmlns="http://www.w3.org/2000/svg" viewBox="0 0 512 341.3333333333333" clip-path="url(#clip)" width="958.9999999999999" height="639.3333333333333"><defs><clipPath id="clip" clipPathUnits="objectBoundingBox"><rect x="0" y="0" width="512" height="341.3333333333333"/></clipPath></defs><rect x="0" y="0" width="512" height="341.3333333333333" fill="rgb(36, 33, 27)"/><path d="M375,-88L163,-1L278,226Z" fill="rgb(138, 143, 146)" fill-opacity="0.80"/><path d="M224,-15L271,131L293,-12Z" fill="rgb(251, 253, 255)" fill-opacity="0.51"/><path d="M504,-233L254,370L289,80Z" fill="rgb(69, 72, 74)" fill-opacity="0.59"/><path d="M245,239L241,175L339,-4Z" fill="rgb(121, 125, 125)" fill-opacity="0.77"/><path d="M256,174L227,61L168,140Z" fill="rgb(53, 56, 56)" fill-opacity="0.76"/><path d="M249,45L-120,-271L157,102Z" fill="rgb(65, 69, 73)" fill-opacity="0.75"/><path d="M322,207L237,17L248,142Z" fill="rgb(154, 157, 156)" fill-opacity="0.39"/><path d="M264,48L187,-31L270,-62Z" fill="rgb(225, 226, 226)" fill-opacity="0.79"/><path d="M250,115L295,145L250,139Z" fill="rgb(167, 169, 169)" fill-opacity="0.69"/><path d="M-42,122L32,612L626,296Z" fill="rgb(4, 0, 0)" fill-opacity="0.40"/><path d="M250,324L238,188L379,179Z" fill="rgb(78, 82, 83)" fill-opacity="0.47"/><path d="M229,71L237,84L298,59Z" fill="rgb(154, 158, 159)" fill-opacity="1.00"/><path d="M276,62L362,111L297,96Z" fill="rgb(49, 50, 48)" fill-opacity="0.58"/><path d="M264,177L242,172L242,228Z" fill="rgb(236, 251, 254)" fill-opacity="0.21"/><path d="M218,82L198,86L208,66Z" fill="rgb(249, 255, 255)" fill-opacity="0.32"/><path d="M205,250L263,284L206,245Z" fill="rgb(123, 133, 137)" fill-opacity="0.61"/><path d="M217,96L180,105L209,102Z" fill="rgb(140, 153, 160)" fill-opacity="0.67"/><path d="M223,10L142,62L236,72Z" fill="rgb(72, 77, 79)" fill-opacity="0.93"/><path d="M268,151L313,237L314,150Z" fill="rgb(94, 95, 95)" fill-opacity="0.52"/><path d="M280,138L414,129L265,129Z" fill="rgb(41, 41, 39)" fill-opacity="0.54"/><path d="M953,46L282,495L467,15Z" fill="rgb(14, 10, 0)" fill-opacity="0.82"/><path d="M323,95L300,90L319,66Z" fill="rgb(46, 44, 41)" fill-opacity="0.78"/><path d="M305,90L273,79L291,64Z" fill="rgb(78, 80, 78)" fill-opacity="0.67"/><path d="M218,64L301,61L235,61Z" fill="rgb(242, 255, 252)" fill-opacity="0.57"/><path d="M329,-116L266,58L292,65Z" fill="rgb(151, 156, 160)" fill-opacity="0.73"/><path d="M317,206L314,100L314,234Z" fill="rgb(12, 8, 2)" fill-opacity="0.69"/><path d="M279,122L249,103L287,79Z" fill="rgb(167, 170, 170)" fill-opacity="0.55"/><path d="M262,278L251,280L314,243Z" fill="rgb(195, 204, 209)" fill-opacity="0.51"/><path d="M293,94L278,80L298,93Z" fill="rgb(236, 236, 233)" fill-opacity="0.46"/><path d="M244,24L251,63L275,63Z" fill="rgb(254, 254, 254)" fill-opacity="0.41"/><path d="M-66,-139L248,62L243,26Z" fill="rgb(89, 94, 95)" fill-opacity="0.66"/><path d="M251,61L236,152L248,165Z" fill="rgb(113, 118, 120)" fill-opacity="0.46"/><path d="M307,73L306,84L293,71Z" fill="rgb(249, 245, 242)" fill-opacity="0.35"/><path d="M143,-21L168,72L194,47Z" fill="rgb(114, 131, 131)" fill-opacity="0.20"/><path d="M195,86L243,119L246,81Z" fill="rgb(61, 64, 66)" fill-opacity="0.55"/><path d="M301,126L288,127L299,93Z" fill="rgb(134, 136, 133)" fill-opacity="0.53"/><path d="M247,114L269,115L269,130Z" fill="rgb(209, 212, 212)" fill-opacity="0.35"/><path d="M194,154L195,94L195,224Z" fill="rgb(192, 213, 223)" fill-opacity="0.57"/><path d="M273,324L349,262L320,213Z" fill="rgb(45, 46, 45)" fill-opacity="0.63"/><path d="M276,270L212,305L272,350Z" fill="rgb(29, 26, 21)" fill-opacity="0.63"/><path d="M213,110L197,146L212,242Z" fill="rgb(63, 70, 74)" fill-opacity="0.59"/><path d="M287,64L307,74L318,68Z" fill="rgb(42, 40, 36)" fill-opacity="0.58"/><path d="M299,150L290,141L280,138Z" fill="rgb(247, 245, 241)" fill-opacity="0.49"/><path d="M356,-2L321,-24L332,92Z" fill="rgb(79, 84, 84)" fill-opacity="0.63"/><path d="M348,266L494,-195L327,114Z" fill="rgb(36, 37, 37)" fill-opacity="0.64"/><path d="M286,84L299,95L300,70Z" fill="rgb(73, 74, 72)" fill-opacity="0.81"/><path d="M209,83L213,74L204,70Z" fill="rgb(246, 249, 249)" fill-opacity="0.47"/><path d="M231,81L217,91L244,78Z" fill="rgb(187, 194, 198)" fill-opacity="0.46"/><path d="M254,696L96,118L-316,-97Z" fill="rgb(14, 10, 0)" fill-opacity="0.66"/><path d="M313,162L295,144L311,76Z" fill="rgb(68, 69, 67)" fill-opacity="0.83"/><path d="M248,194L280,180L247,170Z" fill="rgb(155, 159, 159)" fill-opacity="0.44"/><path d="M239,65L229,74L249,74Z" fill="rgb(252, 252, 248)" fill-opacity="0.39"/><path d="M213,76L213,225L235,128Z" fill="rgb(24, 23, 21)" fill-opacity="0.40"/><path d="M299,100L304,97L323,105Z" fill="rgb(176, 180, 181)" fill-opacity="0.53"/><path d="M201,61L218,28L246,60Z" fill="rgb(56, 59, 60)" fill-opacity="0.60"/><path d="M229,175L225,129L265,170Z" fill="rgb(58, 56, 57)" fill-opacity="0.39"/><path d="M276,127L259,109L268,96Z" fill="rgb(187, 189, 190)" fill-opacity="0.52"/><path d="M221,76L207,66L241,63Z" fill="rgb(57, 60, 62)" fill-opacity="0.79"/><path d="M303,231L248,196L294,173Z" fill="rgb(75, 75, 75)" fill-opacity="0.78"/><path d="M244,80L282,120L269,67Z" fill="rgb(167, 171, 172)" fill-opacity="0.76"/><path d="M295,71L266,63L297,65Z" fill="rgb(73, 76, 76)" fill-opacity="0.80"/><path d="M250,187L254,231L242,234Z" fill="rgb(91, 98, 97)" fill-opacity="0.82"/><path d="M230,266L233,263L262,284Z" fill="rgb(137, 148, 153)" fill-opacity="0.38"/><path d="M283,129L327,134L258,131Z" fill="rgb(59, 58, 56)" fill-opacity="0.99"/><path d="M257,132L284,132L257,151Z" fill="rgb(176, 179, 179)" fill-opacity="0.43"/><path d="M300,103L293,89L300,115Z" fill="rgb(186, 185, 186)" fill-opacity="0.49"/><path d="M301,193L299,219L299,143Z" fill="rgb(236, 241, 240)" fill-opacity="0.22"/><path d="M158,58L157,131L-97,-159Z" fill="rgb(44, 44, 46)" fill-opacity="0.63"/><path d="M317,163L318,184L318,90Z" fill="rgb(217, 225, 229)" fill-opacity="0.61"/><path d="M203,88L145,114L182,58Z" fill="rgb(42, 44, 44)" fill-opacity="0.83"/><path d="M302,252L254,282L315,237Z" fill="rgb(227, 242, 252)" fill-opacity="0.25"/><path d="M197,186L194,133L194,229Z" fill="rgb(220, 250, 255)" fill-opacity="0.18"/><path d="M268,75L280,73L262,65Z" fill="rgb(252, 250, 246)" fill-opacity="0.46"/><path d="M233,264L213,211L266,248Z" fill="rgb(30, 28, 24)" fill-opacity="0.63"/><path d="M175,229L205,300L280,298Z" fill="rgb(36, 34, 30)" fill-opacity="0.69"/><path d="M255,291L283,291L236,296Z" fill="rgb(80, 81, 80)" fill-opacity="0.62"/><path d="M288,86L300,99L279,81Z" fill="rgb(229, 230, 227)" fill-opacity="0.53"/><path d="M203,23L183,71L225,20Z" fill="rgb(32, 30, 25)" fill-opacity="0.18"/><path d="M344,202L351,150L309,179Z" fill="rgb(140, 146, 156)" fill-opacity="0.10"/><path d="M180,20L218,12L146,-59Z" fill="rgb(102, 106, 107)" fill-opacity="0.69"/><path d="M297,62L307,66L270,62Z" fill="rgb(250, 252, 255)" fill-opacity="0.26"/><path d="M201,100L217,97L193,105Z" fill="rgb(210, 222, 231)" fill-opacity="0.42"/><path d="M299,99L299,104L326,109Z" fill="rgb(14, 11, 5)" fill-opacity="0.45"/><path d="M309,156L273,112L284,122Z" fill="rgb(82, 83, 81)" fill-opacity="0.76"/><path d="M368,112L564,-98L367,300Z" fill="rgb(23, 23, 20)" fill-opacity="0.56"/><path d="M317,177L318,231L318,101Z" fill="rgb(182, 190, 193)" fill-opacity="0.61"/><path d="M194,120L181,366L45,145Z" fill="rgb(24, 21, 15)" fill-opacity="0.60"/><path d="M320,66L336,18L264,60Z" fill="rgb(123, 130, 133)" fill-opacity="0.39"/><path d="M214,225L206,225L210,232Z" fill="rgb(73, 82, 82)" fill-opacity="0.48"/><path d="M318,238L321,215L319,132Z" fill="rgb(41, 40, 37)" fill-opacity="0.98"/><path d="M173,108L187,111L203,94Z" fill="rgb(58, 68, 74)" fill-opacity="0.60"/><path d="M240,238L267,240L258,229Z" fill="rgb(9, 5, 0)" fill-opacity="0.39"/><path d="M279,170L284,177L281,189Z" fill="rgb(27, 24, 19)" fill-opacity="0.56"/><path d="M180,60L174,47L195,45Z" fill="rgb(118, 133, 138)" fill-opacity="0.43"/><path d="M271,118L304,151L272,116Z" fill="rgb(84, 86, 85)" fill-opacity="0.69"/><path d="M205,53L199,59L205,83Z" fill="rgb(55, 58, 60)" fill-opacity="0.83"/><path d="M-71,-71L23,112L179,178Z" fill="rgb(26, 24, 22)" fill-opacity="0.59"/><path d="M280,82L241,80L296,102Z" fill="rgb(151, 154, 155)" fill-opacity="0.60"/><path d="M238,86L251,113L263,114Z" fill="rgb(92, 98, 99)" fill-opacity="0.54"/><path d="M286,82L291,77L252,75Z" fill="rgb(90, 96, 97)" fill-opacity="0.46"/><path d="M261,179L242,165L252,145Z" fill="rgb(78, 78, 79)" fill-opacity="0.51"/><path d="M287,46L271,-21L296,9Z" fill="rgb(169, 175, 178)" fill-opacity="0.50"/><path d="M242,178L213,178L242,236Z" fill="rgb(32, 31, 28)" fill-opacity="0.95"/><path d="M259,-65L245,15L257,51Z" fill="rgb(233, 234, 232)" fill-opacity="0.72"/><path d="M282,176L282,191L279,164Z" fill="rgb(9, 4, 0)" fill-opacity="0.38"/><path d="M250,111L261,107L241,103Z" fill="rgb(156, 163, 164)" fill-opacity="0.38"/><path d="M330,6L384,60L587,-135Z" fill="rgb(50, 47, 48)" fill-opacity="0.32"/><path d="M242,173L245,185L254,172Z" fill="rgb(166, 172, 172)" fill-opacity="0.52"/><path d="M303,103L300,101L300,131Z" fill="rgb(39, 39, 36)" fill-opacity="0.50"/><path d="M280,172L246,178L280,185Z" fill="rgb(152, 156, 155)" fill-opacity="0.43"/><path d="M286,140L259,138L273,136Z" fill="rgb(251, 250, 248)" fill-opacity="0.41"/><path d="M300,82L295,77L295,84Z" fill="rgb(167, 167, 168)" fill-opacity="0.39"/><path d="M293,137L262,137L296,132Z" fill="rgb(103, 106, 103)" fill-opacity="0.53"/><path d="M358,30L320,71L320,116Z" fill="rgb(66, 70, 71)" fill-opacity="0.58"/><path d="M261,112L263,134L263,112Z" fill="rgb(66, 70, 69)" fill-opacity="0.73"/><path d="M303,66L285,55L335,-86Z" fill="rgb(127, 133, 136)" fill-opacity="0.63"/><path d="M246,203L264,202L249,188Z" fill="rgb(107, 114, 114)" fill-opacity="0.49"/><path d="M368,317L367,199L300,311Z" fill="rgb(26, 24, 18)" fill-opacity="0.49"/><path d="M245,64L270,54L267,21Z" fill="rgb(211, 212, 215)" fill-opacity="0.48"/><path d="M242,63L246,66L236,80Z" fill="rgb(40, 51, 56)" fill-opacity="0.31"/><path d="M321,156L341,171L320,242Z" fill="rgb(69, 73, 75)" fill-opacity="0.44"/><path d="M313,74L309,70L311,76Z" fill="rgb(214, 214, 210)" fill-opacity="0.57"/><path d="M314,243L305,254L265,278Z" fill="rgb(9, 6, 0)" fill-opacity="0.50"/><path d="M275,80L238,80L252,77Z" fill="rgb(250, 250, 249)" fill-opacity="0.52"/><path d="M293,162L297,166L285,176Z" fill="rgb(79, 77, 77)" fill-opacity="0.64"/><path d="M287,218L280,213L270,201Z" fill="rgb(16, 15, 11)" fill-opacity="0.51"/><path d="M299,100L291,84L307,81Z" fill="rgb(58, 58, 56)" fill-opacity="0.73"/><path d="M173,266L226,237L174,173Z" fill="rgb(60, 72, 70)" fill-opacity="0.10"/></svg>