<svg id="Horizontal" preserveAspectRatio="xMinYMax" xmlns="http://www.w3.org/2000/svg" viewBox="0 0 393.59 698"><title>Artboard 1</title><path id="ShieldTopRight" d="M284,77.75c11.49,1.16,23.64,2.75,36.38,4.88s24.49,4.53,35.63,7.13v19.58Q341.51,106,325.75,103T295.5,98A40.08,40.08,0,0,0,284,77.75Z" style="fill:#fff"/><path id="ShieldTopLeft" d="M28.67,109.06V89.75q15.2-3.09,31.21-5.87,20.72-3.6,40.38-6.25A68.87,68.87,0,0,0,87.69,97.88q-14.52,2-30.19,5C47.46,104.79,37.84,106.87,28.67,109.06Z" style="fill:#fff"/><path id="ShieldGun" d="M251.87,278.64c-4.7-4.11-11.79-2.69-18.62-1.22-15.81,3.41-21.38,11.21-37.68,12-.74,0-1.35.05-1.74.06a10.47,10.47,0,0,1-7.5-3.25,10.31,10.31,0,0,1-2.67-6.58l-6.17.17c-11.2.28-14.37.21-18.33,2a21.54,21.54,0,0,0-5,3.17v4.42h-2.58v6.08a2.07,2.07,0,0,1,2.58,2.42V433.17a10.42,10.42,0,0,0-3.7,7.74H154v3.59h2.53a2,2,0,0,1,1.33.83,2,2,0,0,1,.33,1.33H170a2.57,2.57,0,0,1,.25-.67,3.32,3.32,0,0,1,2.25-1.5h5.33a6.92,6.92,0,0,0,3.79-.87,6.8,6.8,0,0,0,2-1.79l.5-68.75a12.18,12.18,0,0,1,1.58-2.83,14.32,14.32,0,0,1,6.33-4.5,53,53,0,0,1,14.08-3.58,4.56,4.56,0,0,0,2.58-.5,4.62,4.62,0,0,0,2.08-2.33l-.08-29.75a6.77,6.77,0,0,1,.58-2.25c1.67-3.64,6.33-4.74,13.45-6,10.77-2,15.17-2.21,22.25-3.81,4-.9,7.19-1.86,9.13-2.48V289.83C256.1,286.84,255.48,281.8,251.87,278.64Zm-43.7,76.78a5.35,5.35,0,0,1-2.21,3c-.65.39-1.34.56-3.71.67-1.21.06-2.85.1-4.83,0s-3.48,0-4.67,0c-3.73,0-5,.12-6.09-.75a4.85,4.85,0,0,1-1.66-2.88q0-7.23,0-14.46a7.18,7.18,0,0,1,.58-2.08,8.08,8.08,0,0,1,3.21-3.46c5.1-3.27,12.68-1.69,14.38-.25a4.24,4.24,0,0,0,1.81,1,4.09,4.09,0,0,0,1.65,0v-1.71a6.72,6.72,0,0,0-.37-1.33,7.27,7.27,0,0,0-1.58-2.37,17.17,17.17,0,0,0-4.83-3.37v-1.08a4.33,4.33,0,0,1,4.25.21,9.49,9.49,0,0,1,2.5,2.42,9.62,9.62,0,0,1,1.71,4.63Z" style="fill:#fff"/><path d="M329.67,114.17c-10.58-2-20.71-3.61-30.33-4.83a54.71,54.71,0,0,1,2.33,13.79c.06,1.44.05,2.83,0,4.15v48l-93.67.17.17-43.18a10,10,0,0,0-2.83-5.48c-.86-.81-2.83-2.3-13.67-2.16-9.13.12-11,1.22-12.06,2.13a11,11,0,0,0-3.44,5.51v72.41a59.81,59.81,0,0,1,12.21-6.85,61.68,61.68,0,0,1,19.25-4.48c12.09-1,66-5.5,87.75,27.28a50.78,50.78,0,0,1,6.29,13.45V416.26a74.61,74.61,0,0,1-10.73,33.11c-25.25,40.34-84.15,39.77-101.29,39.6-16.84-.16-76.49-.75-99-40.82a68.33,68.33,0,0,1-8.33-31.89q.17-145.66.33-291.31A34.46,34.46,0,0,1,84,112.16c.3-1,.64-1.94,1-2.82-9.54,1.19-19.56,2.72-30,4.67-9.21,1.72-18,3.62-26.33,5.63-.14,25.61,0,264.36,0,316.22A82.2,82.2,0,0,0,31,454.29C39.21,489,66.79,510.38,75.54,517c.78.59.44.32,17.4,11.21,36,23.12,43.63,28.24,70.75,45.56,6.43,4.11,16.35,10.43,28.64,18.21,31.38-20.69,56.1-36.57,71.09-46.15,46.91-29.94,65.8-41,79.32-65.7A114.22,114.22,0,0,0,356,435.52V120C347.68,117.89,338.9,115.93,329.67,114.17Z" style="fill:#fff"/></svg>
