<svg id="Horizontal" preserveAspectRatio="xMinYMax" xmlns="http://www.w3.org/2000/svg" viewBox="0 0 1880.95 516.03"><title>R6-OPSkullRain-Horizontal</title><path id="ShieldTopRight" d="M284,77.75c11.49,1.16,23.64,2.75,36.38,4.88s24.49,4.53,35.63,7.13v19.58Q341.51,106,325.75,103T295.5,98A40.08,40.08,0,0,0,284,77.75Z" transform="translate(-28.6 -77.63)" style="fill:#47893b"/><path id="ShieldTopLeft" d="M28.67,109.06V89.75q15.2-3.09,31.21-5.87,20.72-3.6,40.38-6.25A68.87,68.87,0,0,0,87.69,97.88q-14.52,2-30.19,5C47.46,104.79,37.84,106.87,28.67,109.06Z" transform="translate(-28.6 -77.63)" style="fill:#47893b"/><path id="ShieldGun" d="M251.87,278.64c-4.7-4.11-11.79-2.69-18.62-1.22-15.81,3.41-21.38,11.21-37.68,12-.74,0-1.35.05-1.74.06a10.47,10.47,0,0,1-7.5-3.25,10.31,10.31,0,0,1-2.67-6.58l-6.17.17c-11.2.28-14.37.21-18.33,2a21.54,21.54,0,0,0-5,3.17v4.42h-2.58v6.08a2.07,2.07,0,0,1,2.58,2.42V433.17a10.42,10.42,0,0,0-3.7,7.74H154v3.59h2.53a2,2,0,0,1,1.33.83,2,2,0,0,1,.33,1.33H170a2.57,2.57,0,0,1,.25-.67,3.32,3.32,0,0,1,2.25-1.5h5.33a6.92,6.92,0,0,0,3.79-.87,6.8,6.8,0,0,0,2-1.79l.5-68.75a12.18,12.18,0,0,1,1.58-2.83,14.32,14.32,0,0,1,6.33-4.5,53,53,0,0,1,14.08-3.58,4.56,4.56,0,0,0,2.58-.5,4.62,4.62,0,0,0,2.08-2.33l-.08-29.75a6.77,6.77,0,0,1,.58-2.25c1.67-3.64,6.33-4.74,13.45-6,10.77-2,15.17-2.21,22.25-3.81,4-.9,7.19-1.86,9.13-2.48V289.83C256.1,286.84,255.48,281.8,251.87,278.64Zm-43.7,76.78a5.35,5.35,0,0,1-2.21,3c-.65.39-1.34.56-3.71.67-1.21.06-2.85.1-4.83,0s-3.48,0-4.67,0c-3.73,0-5,.12-6.09-.75a4.85,4.85,0,0,1-1.66-2.88q0-7.23,0-14.46a7.18,7.18,0,0,1,.58-2.08,8.08,8.08,0,0,1,3.21-3.46c5.1-3.27,12.68-1.69,14.38-.25a4.24,4.24,0,0,0,1.81,1,4.09,4.09,0,0,0,1.65,0v-1.71a6.72,6.72,0,0,0-.37-1.33,7.27,7.27,0,0,0-1.58-2.37,17.17,17.17,0,0,0-4.83-3.37v-1.08a4.33,4.33,0,0,1,4.25.21,9.49,9.49,0,0,1,2.5,2.42,9.62,9.62,0,0,1,1.71,4.63Z" transform="translate(-28.6 -77.63)" style="fill:#fff"/><g id="OpTitle"><path d="M538.68,188.5V142.15c0-16.95,8.55-23.7,21.6-23.7,13.35,0,21.75,6.3,21.75,23.25v46.65c0,21.3-9.3,25.35-21.75,25.35S538.68,209.65,538.68,188.5Zm34.95,0V141.85c0-11.1-4.65-15.3-13.35-15.3s-13.2,4.2-13.2,15.45v46.35c0,13.95,4.2,17.4,13.2,17.4C568.38,205.75,573.63,202.3,573.63,188.5Z" transform="translate(-28.6 -77.63)" style="fill:#fff"/><path d="M612.18,119.21h15.9c15.6,0,22.65,4.2,22.65,22.2V150c0,18-7,22.2-22.65,22.2h-7.65V213.1h-8.25Zm16.5,45c11.7,0,13.8-3,13.8-14.25V141.4c0-10-2.1-14.1-13.8-14.1h-8.25v36.9Z" transform="translate(-28.6 -77.63)" style="fill:#fff"/><path d="M677.58,119.21h35.7v8.1H685.83V157h22.95v8.1H685.83v40h27.45v7.95h-35.7Z" transform="translate(-28.6 -77.63)" style="fill:#fff"/><path d="M741,119.21h15.3c15.6,0,22.65,4.2,22.65,22.2v7c0,13.65-4,19.35-12.75,21.3l12.45,43.35h-8.55L758,170.65h-8.7V213.1H741Zm15.9,43.35c11.7,0,13.8-2.85,13.8-14.25v-6.9c0-10-2.1-14.1-13.8-14.1h-7.65v35.25Z" transform="translate(-28.6 -77.63)" style="fill:#fff"/><path d="M821.27,118.46h8.4l17.85,94.65h-8.25l-4.95-26.55H816.17l-5,26.55h-7.8Zm11.4,60.45-7.5-41.25L822,155.8l-4.35,23.1Z" transform="translate(-28.6 -77.63)" style="fill:#fff"/><path d="M882,127.3H864.17v-8.1h43.65v8.1H890.27v85.8H882Z" transform="translate(-28.6 -77.63)" style="fill:#fff"/><path d="M934.52,119.21h8.25v93.9h-8.25Z" transform="translate(-28.6 -77.63)" style="fill:#fff"/><path d="M973.22,188.5V142.15c0-16.95,8.55-23.7,21.6-23.7,13.35,0,21.75,6.3,21.75,23.25v46.65c0,21.3-9.3,25.35-21.75,25.35S973.22,209.65,973.22,188.5Zm34.95,0V141.85c0-11.1-4.65-15.3-13.35-15.3s-13.2,4.2-13.2,15.45v46.35c0,13.95,4.2,17.4,13.2,17.4C1002.92,205.75,1008.17,202.3,1008.17,188.5Z" transform="translate(-28.6 -77.63)" style="fill:#fff"/><path d="M1046.72,119.21h12.15l19.95,66.3v-66.3h8v93.9h-8l-24-80.55V213.1h-8.1Z" transform="translate(-28.6 -77.63)" style="fill:#fff"/></g><g id="OpName"><path d="M533.08,518.66l15.5-2c2.5,40,11.5,62.5,47.5,62.5,39.5,0,45.5-23.5,45.5-48,0-34-19.5-56-57-104-33-42.5-46.5-61-46.5-92,0-35,17-59,60-59,36,0,54,17,55.5,61l-15.5,2c.5-35.5-14-48.5-40-48.5-34,0-44.5,18.5-44.5,44.5,0,25.5,13.5,43.5,43.5,82.5,43,56,60,74.5,60,113.5,0,32-10,62.5-61,62.5C547.58,593.66,537.58,567.16,533.08,518.66Z" transform="translate(-28.6 -77.63)" style="fill:#fff"/><path d="M754.58,391.66l-35,57.5v142.5h-15.5v-313h15.5v145l88.5-145h16l-58.5,95.5,63.5,217.5h-15.5Z" transform="translate(-28.6 -77.63)" style="fill:#fff"/><path d="M865.07,522.16V278.66h15.5v243.5c0,47.5,21,57,46.5,57,26,0,46.5-9.5,46.5-57.5v-243h15v243c0,59.5-28,72-61.5,72C894.07,593.66,865.07,581.16,865.07,522.16Z" transform="translate(-28.6 -77.63)" style="fill:#fff"/><path d="M1045.07,278.66h15.5v298.5h93v14.5h-108.5Z" transform="translate(-28.6 -77.63)" style="fill:#fff"/><path d="M1192.06,278.66h15.5v298.5h93v14.5h-108.5Z" transform="translate(-28.6 -77.63)" style="fill:#fff"/><path d="M1390.56,278.66h45.5c49.5,0,69.5,14,69.5,69v25.5c0,45-13,62.5-44,68l44,150.5h-16.5l-43.5-148.5h-39.5v148.5h-15.5Zm45.5,150c41.5,0,54-11.5,54-55.5v-25.5c0-43.5-12.5-54.5-54-54.5h-30v135.5Z" transform="translate(-28.6 -77.63)" style="fill:#fff"/><path d="M1597.55,276.66h14.5l59.5,315h-15.5l-19-100.5h-65l-19,100.5h-15Zm36.5,200-15.5-83-14-75.5-14.5,76-15.5,82.5Z" transform="translate(-28.6 -77.63)" style="fill:#fff"/><path d="M1715.05,278.66h15.5v313h-15.5Z" transform="translate(-28.6 -77.63)" style="fill:#fff"/><path d="M1790.55,278.66H1811l83.5,264v-264h15v313h-15l-89-281.5v281.5h-15Z" transform="translate(-28.6 -77.63)" style="fill:#fff"/></g><path id="ShieldBody" d="M329.67,114.17c-10.58-2-20.71-3.61-30.33-4.83a54.71,54.71,0,0,1,2.33,13.79c.06,1.44.05,2.83,0,4.15v48l-93.67.17.17-43.18a10,10,0,0,0-2.83-5.48c-.86-.81-2.83-2.3-13.67-2.16-9.13.12-11,1.22-12.06,2.13a11,11,0,0,0-3.44,5.51v72.41a59.81,59.81,0,0,1,12.21-6.85,61.68,61.68,0,0,1,19.25-4.48c12.09-1,66-5.5,87.75,27.28a50.78,50.78,0,0,1,6.29,13.45V416.26a74.61,74.61,0,0,1-10.73,33.11c-25.25,40.34-84.15,39.77-101.29,39.6-16.84-.16-76.49-.75-99-40.82a68.33,68.33,0,0,1-8.33-31.89q.17-145.66.33-291.31A34.46,34.46,0,0,1,84,112.16c.3-1,.64-1.94,1-2.82-9.54,1.19-19.56,2.72-30,4.67-9.21,1.72-18,3.62-26.33,5.63-.14,25.61,0,264.36,0,316.22A82.2,82.2,0,0,0,31,454.29C39.21,489,66.79,510.38,75.54,517c.78.59.44.32,17.4,11.21,36,23.12,43.63,28.24,70.75,45.56,6.43,4.11,16.35,10.43,28.64,18.21,31.38-20.69,56.1-36.57,71.09-46.15,46.91-29.94,65.8-41,79.32-65.7A114.22,114.22,0,0,0,356,435.52V120C347.68,117.89,338.9,115.93,329.67,114.17ZM202.82,553.25H181.25a2.11,2.11,0,0,1,.31-1.31c.51-.76,1.41-.74,2.56-1.25a6.89,6.89,0,0,0,2.19-1.56V517.25a4.81,4.81,0,0,0-.33-1.5,6.41,6.41,0,0,0-3.18-3.1,9,9,0,0,0-1.55-.65v-1.94h21.57V512a9,9,0,0,0-1.55.65,6.41,6.41,0,0,0-3.18,3.1,4.81,4.81,0,0,0-.33,1.5v31.88a6.89,6.89,0,0,0,2.19,1.56c1.15.51,2.05.49,2.56,1.25A2.11,2.11,0,0,1,202.82,553.25Z" transform="translate(-28.6 -77.63)" style="fill:#fff"/></svg>
